<?xml version="1.0" encoding="utf-8"?>
<svg xmlns="http://www.w3.org/2000/svg" xmlns:xlink="http://www.w3.org/1999/xlink" width="600" height="400" viewBox="0 0 2400 1600">
<defs>
  <clipPath id="clip190">
    <rect x="0" y="0" width="2400" height="1600"/>
  </clipPath>
</defs>
<path clip-path="url(#clip190)" d="M0 1600 L2400 1600 L2400 0 L0 0  Z" fill="#ffffff" fill-rule="evenodd" fill-opacity="1"/>
<defs>
  <clipPath id="clip191">
    <rect x="480" y="0" width="1681" height="1600"/>
  </clipPath>
</defs>
<path clip-path="url(#clip190)" d="M800.666 1486.45 L2352.76 1486.45 L2352.76 123.472 L800.666 123.472  Z" fill="#ffffff" fill-rule="evenodd" fill-opacity="1"/>
<defs>
  <clipPath id="clip192">
    <rect x="800" y="123" width="1553" height="1364"/>
  </clipPath>
</defs>
<polyline clip-path="url(#clip192)" style="stroke:#000000; stroke-linecap:round; stroke-linejoin:round; stroke-width:2; stroke-opacity:0.1; fill:none" points="1108.62,1486.45 1108.62,123.472 "/>
<polyline clip-path="url(#clip192)" style="stroke:#000000; stroke-linecap:round; stroke-linejoin:round; stroke-width:2; stroke-opacity:0.1; fill:none" points="1476.91,1486.45 1476.91,123.472 "/>
<polyline clip-path="url(#clip192)" style="stroke:#000000; stroke-linecap:round; stroke-linejoin:round; stroke-width:2; stroke-opacity:0.1; fill:none" points="1845.2,1486.45 1845.2,123.472 "/>
<polyline clip-path="url(#clip192)" style="stroke:#000000; stroke-linecap:round; stroke-linejoin:round; stroke-width:2; stroke-opacity:0.1; fill:none" points="2213.48,1486.45 2213.48,123.472 "/>
<polyline clip-path="url(#clip190)" style="stroke:#000000; stroke-linecap:round; stroke-linejoin:round; stroke-width:4; stroke-opacity:1; fill:none" points="800.666,1486.45 2352.76,1486.45 "/>
<polyline clip-path="url(#clip190)" style="stroke:#000000; stroke-linecap:round; stroke-linejoin:round; stroke-width:4; stroke-opacity:1; fill:none" points="1108.62,1486.45 1108.62,1467.55 "/>
<polyline clip-path="url(#clip190)" style="stroke:#000000; stroke-linecap:round; stroke-linejoin:round; stroke-width:4; stroke-opacity:1; fill:none" points="1476.91,1486.45 1476.91,1467.55 "/>
<polyline clip-path="url(#clip190)" style="stroke:#000000; stroke-linecap:round; stroke-linejoin:round; stroke-width:4; stroke-opacity:1; fill:none" points="1845.2,1486.45 1845.2,1467.55 "/>
<polyline clip-path="url(#clip190)" style="stroke:#000000; stroke-linecap:round; stroke-linejoin:round; stroke-width:4; stroke-opacity:1; fill:none" points="2213.48,1486.45 2213.48,1467.55 "/>
<path clip-path="url(#clip190)" d="M1055.65 1532.02 L1085.33 1532.02 L1085.33 1535.95 L1055.65 1535.95 L1055.65 1532.02 Z" fill="#000000" fill-rule="nonzero" fill-opacity="1" /><path clip-path="url(#clip190)" d="M1105.42 1517.37 Q1101.81 1517.37 1099.98 1520.93 Q1098.17 1524.47 1098.17 1531.6 Q1098.17 1538.71 1099.98 1542.27 Q1101.81 1545.82 1105.42 1545.82 Q1109.05 1545.82 1110.86 1542.27 Q1112.69 1538.71 1112.69 1531.6 Q1112.69 1524.47 1110.86 1520.93 Q1109.05 1517.37 1105.42 1517.37 M1105.42 1513.66 Q1111.23 1513.66 1114.28 1518.27 Q1117.36 1522.85 1117.36 1531.6 Q1117.36 1540.33 1114.28 1544.94 Q1111.23 1549.52 1105.42 1549.52 Q1099.61 1549.52 1096.53 1544.94 Q1093.47 1540.33 1093.47 1531.6 Q1093.47 1522.85 1096.53 1518.27 Q1099.61 1513.66 1105.42 1513.66 Z" fill="#000000" fill-rule="nonzero" fill-opacity="1" /><path clip-path="url(#clip190)" d="M1125.58 1542.97 L1130.46 1542.97 L1130.46 1548.85 L1125.58 1548.85 L1125.58 1542.97 Z" fill="#000000" fill-rule="nonzero" fill-opacity="1" /><path clip-path="url(#clip190)" d="M1140.7 1514.29 L1159.05 1514.29 L1159.05 1518.22 L1144.98 1518.22 L1144.98 1526.7 Q1146 1526.35 1147.02 1526.19 Q1148.03 1526 1149.05 1526 Q1154.84 1526 1158.22 1529.17 Q1161.6 1532.34 1161.6 1537.76 Q1161.6 1543.34 1158.13 1546.44 Q1154.65 1549.52 1148.34 1549.52 Q1146.16 1549.52 1143.89 1549.15 Q1141.65 1548.78 1139.24 1548.04 L1139.24 1543.34 Q1141.32 1544.47 1143.54 1545.03 Q1145.77 1545.58 1148.24 1545.58 Q1152.25 1545.58 1154.59 1543.48 Q1156.92 1541.37 1156.92 1537.76 Q1156.92 1534.15 1154.59 1532.04 Q1152.25 1529.94 1148.24 1529.94 Q1146.37 1529.94 1144.49 1530.35 Q1142.64 1530.77 1140.7 1531.65 L1140.7 1514.29 Z" fill="#000000" fill-rule="nonzero" fill-opacity="1" /><path clip-path="url(#clip190)" d="M1454.3 1517.37 Q1450.68 1517.37 1448.86 1520.93 Q1447.05 1524.47 1447.05 1531.6 Q1447.05 1538.71 1448.86 1542.27 Q1450.68 1545.82 1454.3 1545.82 Q1457.93 1545.82 1459.74 1542.27 Q1461.56 1538.71 1461.56 1531.6 Q1461.56 1524.47 1459.74 1520.93 Q1457.93 1517.37 1454.3 1517.37 M1454.3 1513.66 Q1460.11 1513.66 1463.16 1518.27 Q1466.24 1522.85 1466.24 1531.6 Q1466.24 1540.33 1463.16 1544.94 Q1460.11 1549.52 1454.3 1549.52 Q1448.49 1549.52 1445.41 1544.94 Q1442.35 1540.33 1442.35 1531.6 Q1442.35 1522.85 1445.41 1518.27 Q1448.49 1513.66 1454.3 1513.66 Z" fill="#000000" fill-rule="nonzero" fill-opacity="1" /><path clip-path="url(#clip190)" d="M1474.46 1542.97 L1479.34 1542.97 L1479.34 1548.85 L1474.46 1548.85 L1474.46 1542.97 Z" fill="#000000" fill-rule="nonzero" fill-opacity="1" /><path clip-path="url(#clip190)" d="M1499.53 1517.37 Q1495.92 1517.37 1494.09 1520.93 Q1492.28 1524.47 1492.28 1531.6 Q1492.28 1538.71 1494.09 1542.27 Q1495.92 1545.82 1499.53 1545.82 Q1503.16 1545.82 1504.97 1542.27 Q1506.8 1538.71 1506.8 1531.6 Q1506.8 1524.47 1504.97 1520.93 Q1503.16 1517.37 1499.53 1517.37 M1499.53 1513.66 Q1505.34 1513.66 1508.39 1518.27 Q1511.47 1522.85 1511.47 1531.6 Q1511.47 1540.33 1508.39 1544.94 Q1505.34 1549.52 1499.53 1549.52 Q1493.72 1549.52 1490.64 1544.94 Q1487.58 1540.33 1487.58 1531.6 Q1487.58 1522.85 1490.64 1518.27 Q1493.72 1513.66 1499.53 1513.66 Z" fill="#000000" fill-rule="nonzero" fill-opacity="1" /><path clip-path="url(#clip190)" d="M1823.08 1517.37 Q1819.47 1517.37 1817.64 1520.93 Q1815.83 1524.47 1815.83 1531.6 Q1815.83 1538.71 1817.64 1542.27 Q1819.47 1545.82 1823.08 1545.82 Q1826.71 1545.82 1828.52 1542.27 Q1830.35 1538.71 1830.35 1531.6 Q1830.35 1524.47 1828.52 1520.93 Q1826.71 1517.37 1823.08 1517.37 M1823.08 1513.66 Q1828.89 1513.66 1831.95 1518.27 Q1835.02 1522.85 1835.02 1531.6 Q1835.02 1540.33 1831.95 1544.94 Q1828.89 1549.52 1823.08 1549.52 Q1817.27 1549.52 1814.19 1544.94 Q1811.14 1540.33 1811.14 1531.6 Q1811.14 1522.85 1814.19 1518.27 Q1817.27 1513.66 1823.08 1513.66 Z" fill="#000000" fill-rule="nonzero" fill-opacity="1" /><path clip-path="url(#clip190)" d="M1843.24 1542.97 L1848.13 1542.97 L1848.13 1548.85 L1843.24 1548.85 L1843.24 1542.97 Z" fill="#000000" fill-rule="nonzero" fill-opacity="1" /><path clip-path="url(#clip190)" d="M1858.36 1514.29 L1876.71 1514.29 L1876.71 1518.22 L1862.64 1518.22 L1862.64 1526.7 Q1863.66 1526.35 1864.68 1526.19 Q1865.7 1526 1866.71 1526 Q1872.5 1526 1875.88 1529.17 Q1879.26 1532.34 1879.26 1537.76 Q1879.26 1543.34 1875.79 1546.44 Q1872.32 1549.52 1866 1549.52 Q1863.82 1549.52 1861.55 1549.15 Q1859.31 1548.78 1856.9 1548.04 L1856.9 1543.34 Q1858.98 1544.47 1861.2 1545.03 Q1863.43 1545.58 1865.9 1545.58 Q1869.91 1545.58 1872.25 1543.48 Q1874.58 1541.37 1874.58 1537.76 Q1874.58 1534.15 1872.25 1532.04 Q1869.91 1529.94 1865.9 1529.94 Q1864.03 1529.94 1862.15 1530.35 Q1860.3 1530.77 1858.36 1531.65 L1858.36 1514.29 Z" fill="#000000" fill-rule="nonzero" fill-opacity="1" /><path clip-path="url(#clip190)" d="M2180.64 1544.91 L2188.28 1544.91 L2188.28 1518.55 L2179.97 1520.21 L2179.97 1515.95 L2188.23 1514.29 L2192.91 1514.29 L2192.91 1544.91 L2200.55 1544.91 L2200.55 1548.85 L2180.64 1548.85 L2180.64 1544.91 Z" fill="#000000" fill-rule="nonzero" fill-opacity="1" /><path clip-path="url(#clip190)" d="M2209.99 1542.97 L2214.87 1542.97 L2214.87 1548.85 L2209.99 1548.85 L2209.99 1542.97 Z" fill="#000000" fill-rule="nonzero" fill-opacity="1" /><path clip-path="url(#clip190)" d="M2235.06 1517.37 Q2231.45 1517.37 2229.62 1520.93 Q2227.81 1524.47 2227.81 1531.6 Q2227.81 1538.71 2229.62 1542.27 Q2231.45 1545.82 2235.06 1545.82 Q2238.69 1545.82 2240.5 1542.27 Q2242.33 1538.71 2242.33 1531.6 Q2242.33 1524.47 2240.5 1520.93 Q2238.69 1517.37 2235.06 1517.37 M2235.06 1513.66 Q2240.87 1513.66 2243.92 1518.27 Q2247 1522.85 2247 1531.6 Q2247 1540.33 2243.92 1544.94 Q2240.87 1549.52 2235.06 1549.52 Q2229.25 1549.52 2226.17 1544.94 Q2223.11 1540.33 2223.11 1531.6 Q2223.11 1522.85 2226.17 1518.27 Q2229.25 1513.66 2235.06 1513.66 Z" fill="#000000" fill-rule="nonzero" fill-opacity="1" /><polyline clip-path="url(#clip192)" style="stroke:#000000; stroke-linecap:round; stroke-linejoin:round; stroke-width:2; stroke-opacity:0.1; fill:none" points="800.666,1420.13 2352.76,1420.13 "/>
<polyline clip-path="url(#clip192)" style="stroke:#000000; stroke-linecap:round; stroke-linejoin:round; stroke-width:2; stroke-opacity:0.1; fill:none" points="800.666,1112.54 2352.76,1112.54 "/>
<polyline clip-path="url(#clip192)" style="stroke:#000000; stroke-linecap:round; stroke-linejoin:round; stroke-width:2; stroke-opacity:0.1; fill:none" points="800.666,804.96 2352.76,804.96 "/>
<polyline clip-path="url(#clip192)" style="stroke:#000000; stroke-linecap:round; stroke-linejoin:round; stroke-width:2; stroke-opacity:0.1; fill:none" points="800.666,497.376 2352.76,497.376 "/>
<polyline clip-path="url(#clip192)" style="stroke:#000000; stroke-linecap:round; stroke-linejoin:round; stroke-width:2; stroke-opacity:0.1; fill:none" points="800.666,189.792 2352.76,189.792 "/>
<polyline clip-path="url(#clip190)" style="stroke:#000000; stroke-linecap:round; stroke-linejoin:round; stroke-width:4; stroke-opacity:1; fill:none" points="800.666,1486.45 800.666,123.472 "/>
<polyline clip-path="url(#clip190)" style="stroke:#000000; stroke-linecap:round; stroke-linejoin:round; stroke-width:4; stroke-opacity:1; fill:none" points="800.666,1420.13 814.252,1420.13 "/>
<polyline clip-path="url(#clip190)" style="stroke:#000000; stroke-linecap:round; stroke-linejoin:round; stroke-width:4; stroke-opacity:1; fill:none" points="800.666,1112.54 814.252,1112.54 "/>
<polyline clip-path="url(#clip190)" style="stroke:#000000; stroke-linecap:round; stroke-linejoin:round; stroke-width:4; stroke-opacity:1; fill:none" points="800.666,804.96 814.252,804.96 "/>
<polyline clip-path="url(#clip190)" style="stroke:#000000; stroke-linecap:round; stroke-linejoin:round; stroke-width:4; stroke-opacity:1; fill:none" points="800.666,497.376 814.252,497.376 "/>
<polyline clip-path="url(#clip190)" style="stroke:#000000; stroke-linecap:round; stroke-linejoin:round; stroke-width:4; stroke-opacity:1; fill:none" points="800.666,189.792 814.252,189.792 "/>
<path clip-path="url(#clip190)" d="M657.722 1420.58 L687.398 1420.58 L687.398 1424.51 L657.722 1424.51 L657.722 1420.58 Z" fill="#000000" fill-rule="nonzero" fill-opacity="1" /><path clip-path="url(#clip190)" d="M698.3 1433.47 L705.939 1433.47 L705.939 1407.11 L697.629 1408.77 L697.629 1404.51 L705.893 1402.85 L710.569 1402.85 L710.569 1433.47 L718.208 1433.47 L718.208 1437.41 L698.3 1437.41 L698.3 1433.47 Z" fill="#000000" fill-rule="nonzero" fill-opacity="1" /><path clip-path="url(#clip190)" d="M727.652 1431.53 L732.536 1431.53 L732.536 1437.41 L727.652 1437.41 L727.652 1431.53 Z" fill="#000000" fill-rule="nonzero" fill-opacity="1" /><path clip-path="url(#clip190)" d="M752.721 1405.93 Q749.11 1405.93 747.282 1409.49 Q745.476 1413.03 745.476 1420.16 Q745.476 1427.27 747.282 1430.83 Q749.11 1434.38 752.721 1434.38 Q756.356 1434.38 758.161 1430.83 Q759.99 1427.27 759.99 1420.16 Q759.99 1413.03 758.161 1409.49 Q756.356 1405.93 752.721 1405.93 M752.721 1402.22 Q758.532 1402.22 761.587 1406.83 Q764.666 1411.41 764.666 1420.16 Q764.666 1428.89 761.587 1433.5 Q758.532 1438.08 752.721 1438.08 Q746.911 1438.08 743.833 1433.5 Q740.777 1428.89 740.777 1420.16 Q740.777 1411.41 743.833 1406.83 Q746.911 1402.22 752.721 1402.22 Z" fill="#000000" fill-rule="nonzero" fill-opacity="1" /><path clip-path="url(#clip190)" d="M658.717 1113 L688.393 1113 L688.393 1116.93 L658.717 1116.93 L658.717 1113 Z" fill="#000000" fill-rule="nonzero" fill-opacity="1" /><path clip-path="url(#clip190)" d="M708.486 1098.34 Q704.874 1098.34 703.046 1101.91 Q701.24 1105.45 701.24 1112.58 Q701.24 1119.69 703.046 1123.25 Q704.874 1126.79 708.486 1126.79 Q712.12 1126.79 713.925 1123.25 Q715.754 1119.69 715.754 1112.58 Q715.754 1105.45 713.925 1101.91 Q712.12 1098.34 708.486 1098.34 M708.486 1094.64 Q714.296 1094.64 717.351 1099.25 Q720.43 1103.83 720.43 1112.58 Q720.43 1121.31 717.351 1125.91 Q714.296 1130.5 708.486 1130.5 Q702.675 1130.5 699.597 1125.91 Q696.541 1121.31 696.541 1112.58 Q696.541 1103.83 699.597 1099.25 Q702.675 1094.64 708.486 1094.64 Z" fill="#000000" fill-rule="nonzero" fill-opacity="1" /><path clip-path="url(#clip190)" d="M728.648 1123.94 L733.532 1123.94 L733.532 1129.82 L728.648 1129.82 L728.648 1123.94 Z" fill="#000000" fill-rule="nonzero" fill-opacity="1" /><path clip-path="url(#clip190)" d="M743.763 1095.26 L762.12 1095.26 L762.12 1099.2 L748.046 1099.2 L748.046 1107.67 Q749.064 1107.32 750.083 1107.16 Q751.101 1106.98 752.12 1106.98 Q757.907 1106.98 761.286 1110.15 Q764.666 1113.32 764.666 1118.74 Q764.666 1124.31 761.194 1127.42 Q757.721 1130.5 751.402 1130.5 Q749.226 1130.5 746.958 1130.12 Q744.712 1129.75 742.305 1129.01 L742.305 1124.31 Q744.388 1125.45 746.61 1126 Q748.833 1126.56 751.309 1126.56 Q755.314 1126.56 757.652 1124.45 Q759.99 1122.35 759.99 1118.74 Q759.99 1115.12 757.652 1113.02 Q755.314 1110.91 751.309 1110.91 Q749.434 1110.91 747.559 1111.33 Q745.708 1111.75 743.763 1112.62 L743.763 1095.26 Z" fill="#000000" fill-rule="nonzero" fill-opacity="1" /><path clip-path="url(#clip190)" d="M707.49 790.759 Q703.879 790.759 702.05 794.323 Q700.245 797.865 700.245 804.995 Q700.245 812.101 702.05 815.666 Q703.879 819.208 707.49 819.208 Q711.124 819.208 712.93 815.666 Q714.759 812.101 714.759 804.995 Q714.759 797.865 712.93 794.323 Q711.124 790.759 707.49 790.759 M707.49 787.055 Q713.3 787.055 716.356 791.661 Q719.435 796.245 719.435 804.995 Q719.435 813.722 716.356 818.328 Q713.3 822.911 707.49 822.911 Q701.68 822.911 698.601 818.328 Q695.546 813.722 695.546 804.995 Q695.546 796.245 698.601 791.661 Q701.68 787.055 707.49 787.055 Z" fill="#000000" fill-rule="nonzero" fill-opacity="1" /><path clip-path="url(#clip190)" d="M727.652 816.36 L732.536 816.36 L732.536 822.24 L727.652 822.24 L727.652 816.36 Z" fill="#000000" fill-rule="nonzero" fill-opacity="1" /><path clip-path="url(#clip190)" d="M752.721 790.759 Q749.11 790.759 747.282 794.323 Q745.476 797.865 745.476 804.995 Q745.476 812.101 747.282 815.666 Q749.11 819.208 752.721 819.208 Q756.356 819.208 758.161 815.666 Q759.99 812.101 759.99 804.995 Q759.99 797.865 758.161 794.323 Q756.356 790.759 752.721 790.759 M752.721 787.055 Q758.532 787.055 761.587 791.661 Q764.666 796.245 764.666 804.995 Q764.666 813.722 761.587 818.328 Q758.532 822.911 752.721 822.911 Q746.911 822.911 743.833 818.328 Q740.777 813.722 740.777 804.995 Q740.777 796.245 743.833 791.661 Q746.911 787.055 752.721 787.055 Z" fill="#000000" fill-rule="nonzero" fill-opacity="1" /><path clip-path="url(#clip190)" d="M708.486 483.175 Q704.874 483.175 703.046 486.74 Q701.24 490.281 701.24 497.411 Q701.24 504.517 703.046 508.082 Q704.874 511.624 708.486 511.624 Q712.12 511.624 713.925 508.082 Q715.754 504.517 715.754 497.411 Q715.754 490.281 713.925 486.74 Q712.12 483.175 708.486 483.175 M708.486 479.471 Q714.296 479.471 717.351 484.078 Q720.43 488.661 720.43 497.411 Q720.43 506.138 717.351 510.744 Q714.296 515.327 708.486 515.327 Q702.675 515.327 699.597 510.744 Q696.541 506.138 696.541 497.411 Q696.541 488.661 699.597 484.078 Q702.675 479.471 708.486 479.471 Z" fill="#000000" fill-rule="nonzero" fill-opacity="1" /><path clip-path="url(#clip190)" d="M728.648 508.777 L733.532 508.777 L733.532 514.656 L728.648 514.656 L728.648 508.777 Z" fill="#000000" fill-rule="nonzero" fill-opacity="1" /><path clip-path="url(#clip190)" d="M743.763 480.096 L762.12 480.096 L762.12 484.031 L748.046 484.031 L748.046 492.503 Q749.064 492.156 750.083 491.994 Q751.101 491.809 752.12 491.809 Q757.907 491.809 761.286 494.98 Q764.666 498.152 764.666 503.568 Q764.666 509.147 761.194 512.249 Q757.721 515.327 751.402 515.327 Q749.226 515.327 746.958 514.957 Q744.712 514.587 742.305 513.846 L742.305 509.147 Q744.388 510.281 746.61 510.837 Q748.833 511.392 751.309 511.392 Q755.314 511.392 757.652 509.286 Q759.99 507.179 759.99 503.568 Q759.99 499.957 757.652 497.851 Q755.314 495.744 751.309 495.744 Q749.434 495.744 747.559 496.161 Q745.708 496.578 743.763 497.457 L743.763 480.096 Z" fill="#000000" fill-rule="nonzero" fill-opacity="1" /><path clip-path="url(#clip190)" d="M698.3 203.137 L705.939 203.137 L705.939 176.772 L697.629 178.438 L697.629 174.179 L705.893 172.512 L710.569 172.512 L710.569 203.137 L718.208 203.137 L718.208 207.072 L698.3 207.072 L698.3 203.137 Z" fill="#000000" fill-rule="nonzero" fill-opacity="1" /><path clip-path="url(#clip190)" d="M727.652 201.193 L732.536 201.193 L732.536 207.072 L727.652 207.072 L727.652 201.193 Z" fill="#000000" fill-rule="nonzero" fill-opacity="1" /><path clip-path="url(#clip190)" d="M752.721 175.591 Q749.11 175.591 747.282 179.156 Q745.476 182.697 745.476 189.827 Q745.476 196.933 747.282 200.498 Q749.11 204.04 752.721 204.04 Q756.356 204.04 758.161 200.498 Q759.99 196.933 759.99 189.827 Q759.99 182.697 758.161 179.156 Q756.356 175.591 752.721 175.591 M752.721 171.887 Q758.532 171.887 761.587 176.494 Q764.666 181.077 764.666 189.827 Q764.666 198.554 761.587 203.16 Q758.532 207.744 752.721 207.744 Q746.911 207.744 743.833 203.16 Q740.777 198.554 740.777 189.827 Q740.777 181.077 743.833 176.494 Q746.911 171.887 752.721 171.887 Z" fill="#000000" fill-rule="nonzero" fill-opacity="1" /><path clip-path="url(#clip190)" d="M1036.3 12.096 L1087.46 12.096 L1087.46 18.9825 L1065.99 18.9825 L1065.99 72.576 L1057.77 72.576 L1057.77 18.9825 L1036.3 18.9825 L1036.3 12.096 Z" fill="#000000" fill-rule="nonzero" fill-opacity="1" /><path clip-path="url(#clip190)" d="M1109.14 34.1734 Q1107.88 33.4443 1106.38 33.1202 Q1104.92 32.7556 1103.14 32.7556 Q1096.82 32.7556 1093.42 36.8875 Q1090.06 40.9789 1090.06 48.6757 L1090.06 72.576 L1082.56 72.576 L1082.56 27.2059 L1090.06 27.2059 L1090.06 34.2544 Q1092.41 30.1225 1096.17 28.1376 Q1099.94 26.1121 1105.33 26.1121 Q1106.1 26.1121 1107.03 26.2337 Q1107.96 26.3147 1109.09 26.5172 L1109.14 34.1734 Z" fill="#000000" fill-rule="nonzero" fill-opacity="1" /><path clip-path="url(#clip190)" d="M1137.57 49.7694 Q1128.54 49.7694 1125.06 51.8354 Q1121.57 53.9013 1121.57 58.8839 Q1121.57 62.8538 1124.16 65.2034 Q1126.8 67.5124 1131.29 67.5124 Q1137.49 67.5124 1141.22 63.1374 Q1144.99 58.7219 1144.99 51.4303 L1144.99 49.7694 L1137.57 49.7694 M1152.44 46.6907 L1152.44 72.576 L1144.99 72.576 L1144.99 65.6895 Q1142.43 69.8214 1138.63 71.8063 Q1134.82 73.7508 1129.31 73.7508 Q1122.34 73.7508 1118.21 69.8619 Q1114.12 65.9325 1114.12 59.3701 Q1114.12 51.7138 1119.22 47.825 Q1124.37 43.9361 1134.53 43.9361 L1144.99 43.9361 L1144.99 43.2069 Q1144.99 38.0623 1141.58 35.2672 Q1138.22 32.4315 1132.1 32.4315 Q1128.22 32.4315 1124.53 33.3632 Q1120.84 34.295 1117.44 36.1584 L1117.44 29.2718 Q1121.53 27.692 1125.38 26.9223 Q1129.23 26.1121 1132.87 26.1121 Q1142.72 26.1121 1147.58 31.2163 Q1152.44 36.3204 1152.44 46.6907 Z" fill="#000000" fill-rule="nonzero" fill-opacity="1" /><path clip-path="url(#clip190)" d="M1190.76 9.54393 L1190.76 15.7418 L1183.63 15.7418 Q1179.62 15.7418 1178.04 17.3622 Q1176.5 18.9825 1176.5 23.1955 L1176.5 27.2059 L1188.78 27.2059 L1188.78 32.9987 L1176.5 32.9987 L1176.5 72.576 L1169.01 72.576 L1169.01 32.9987 L1161.88 32.9987 L1161.88 27.2059 L1169.01 27.2059 L1169.01 24.0462 Q1169.01 16.471 1172.53 13.0277 Q1176.06 9.54393 1183.71 9.54393 L1190.76 9.54393 Z" fill="#000000" fill-rule="nonzero" fill-opacity="1" /><path clip-path="url(#clip190)" d="M1219.97 9.54393 L1219.97 15.7418 L1212.84 15.7418 Q1208.83 15.7418 1207.25 17.3622 Q1205.71 18.9825 1205.71 23.1955 L1205.71 27.2059 L1217.98 27.2059 L1217.98 32.9987 L1205.71 32.9987 L1205.71 72.576 L1198.21 72.576 L1198.21 32.9987 L1191.09 32.9987 L1191.09 27.2059 L1198.21 27.2059 L1198.21 24.0462 Q1198.21 16.471 1201.74 13.0277 Q1205.26 9.54393 1212.92 9.54393 L1219.97 9.54393 Z" fill="#000000" fill-rule="nonzero" fill-opacity="1" /><path clip-path="url(#clip190)" d="M1226.21 27.2059 L1233.66 27.2059 L1233.66 72.576 L1226.21 72.576 L1226.21 27.2059 M1226.21 9.54393 L1233.66 9.54393 L1233.66 18.9825 L1226.21 18.9825 L1226.21 9.54393 Z" fill="#000000" fill-rule="nonzero" fill-opacity="1" /><path clip-path="url(#clip190)" d="M1281.91 28.9478 L1281.91 35.9153 Q1278.75 34.1734 1275.55 33.3227 Q1272.39 32.4315 1269.15 32.4315 Q1261.89 32.4315 1257.88 37.0496 Q1253.87 41.6271 1253.87 49.9314 Q1253.87 58.2358 1257.88 62.8538 Q1261.89 67.4314 1269.15 67.4314 Q1272.39 67.4314 1275.55 66.5807 Q1278.75 65.6895 1281.91 63.9476 L1281.91 70.8341 Q1278.79 72.2924 1275.42 73.0216 Q1272.1 73.7508 1268.34 73.7508 Q1258.09 73.7508 1252.05 67.3098 Q1246.02 60.8689 1246.02 49.9314 Q1246.02 38.832 1252.09 32.472 Q1258.21 26.1121 1268.82 26.1121 Q1272.27 26.1121 1275.55 26.8413 Q1278.83 27.5299 1281.91 28.9478 Z" fill="#000000" fill-rule="nonzero" fill-opacity="1" /><path clip-path="url(#clip190)" d="M1321.56 12.096 L1332.58 12.096 L1359.4 62.6918 L1359.4 12.096 L1367.34 12.096 L1367.34 72.576 L1356.32 72.576 L1329.5 21.9802 L1329.5 72.576 L1321.56 72.576 L1321.56 12.096 Z" fill="#000000" fill-rule="nonzero" fill-opacity="1" /><path clip-path="url(#clip190)" d="M1422.11 48.0275 L1422.11 51.6733 L1387.84 51.6733 Q1388.32 59.3701 1392.46 63.421 Q1396.63 67.4314 1404.04 67.4314 Q1408.34 67.4314 1412.35 66.3781 Q1416.4 65.3249 1420.37 63.2184 L1420.37 70.267 Q1416.36 71.9684 1412.14 72.8596 Q1407.93 73.7508 1403.6 73.7508 Q1392.74 73.7508 1386.38 67.4314 Q1380.06 61.1119 1380.06 50.3365 Q1380.06 39.1965 1386.06 32.6746 Q1392.09 26.1121 1402.3 26.1121 Q1411.45 26.1121 1416.76 32.0264 Q1422.11 37.9003 1422.11 48.0275 M1414.65 45.84 Q1414.57 39.7232 1411.21 36.0774 Q1407.89 32.4315 1402.38 32.4315 Q1396.14 32.4315 1392.37 35.9558 Q1388.65 39.4801 1388.08 45.8805 L1414.65 45.84 Z" fill="#000000" fill-rule="nonzero" fill-opacity="1" /><path clip-path="url(#clip190)" d="M1441.71 14.324 L1441.71 27.2059 L1457.07 27.2059 L1457.07 32.9987 L1441.71 32.9987 L1441.71 57.6282 Q1441.71 63.1779 1443.21 64.7578 Q1444.75 66.3376 1449.41 66.3376 L1457.07 66.3376 L1457.07 72.576 L1449.41 72.576 Q1440.78 72.576 1437.5 69.3758 Q1434.22 66.1351 1434.22 57.6282 L1434.22 32.9987 L1428.75 32.9987 L1428.75 27.2059 L1434.22 27.2059 L1434.22 14.324 L1441.71 14.324 Z" fill="#000000" fill-rule="nonzero" fill-opacity="1" /><path clip-path="url(#clip190)" d="M1462.54 27.2059 L1469.99 27.2059 L1479.31 62.6108 L1488.58 27.2059 L1497.37 27.2059 L1506.69 62.6108 L1515.97 27.2059 L1523.42 27.2059 L1511.55 72.576 L1502.76 72.576 L1493 35.3887 L1483.2 72.576 L1474.41 72.576 L1462.54 27.2059 Z" fill="#000000" fill-rule="nonzero" fill-opacity="1" /><path clip-path="url(#clip190)" d="M1552.3 32.4315 Q1546.31 32.4315 1542.83 37.1306 Q1539.34 41.7891 1539.34 49.9314 Q1539.34 58.0738 1542.78 62.7728 Q1546.27 67.4314 1552.3 67.4314 Q1558.26 67.4314 1561.74 62.7323 Q1565.23 58.0333 1565.23 49.9314 Q1565.23 41.8701 1561.74 37.1711 Q1558.26 32.4315 1552.3 32.4315 M1552.3 26.1121 Q1562.03 26.1121 1567.58 32.4315 Q1573.13 38.7509 1573.13 49.9314 Q1573.13 61.0714 1567.58 67.4314 Q1562.03 73.7508 1552.3 73.7508 Q1542.54 73.7508 1536.99 67.4314 Q1531.48 61.0714 1531.48 49.9314 Q1531.48 38.7509 1536.99 32.4315 Q1542.54 26.1121 1552.3 26.1121 Z" fill="#000000" fill-rule="nonzero" fill-opacity="1" /><path clip-path="url(#clip190)" d="M1611.77 34.1734 Q1610.52 33.4443 1609.02 33.1202 Q1607.56 32.7556 1605.78 32.7556 Q1599.46 32.7556 1596.05 36.8875 Q1592.69 40.9789 1592.69 48.6757 L1592.69 72.576 L1585.2 72.576 L1585.2 27.2059 L1592.69 27.2059 L1592.69 34.2544 Q1595.04 30.1225 1598.81 28.1376 Q1602.58 26.1121 1607.96 26.1121 Q1608.73 26.1121 1609.66 26.2337 Q1610.6 26.3147 1611.73 26.5172 L1611.77 34.1734 Z" fill="#000000" fill-rule="nonzero" fill-opacity="1" /><path clip-path="url(#clip190)" d="M1619.31 9.54393 L1626.8 9.54393 L1626.8 46.7717 L1649.04 27.2059 L1658.56 27.2059 L1634.5 48.4326 L1659.57 72.576 L1649.85 72.576 L1626.8 50.4176 L1626.8 72.576 L1619.31 72.576 L1619.31 9.54393 Z" fill="#000000" fill-rule="nonzero" fill-opacity="1" /><path clip-path="url(#clip190)" d="M1689.67 27.2059 L1697.12 27.2059 L1706.44 62.6108 L1715.72 27.2059 L1724.51 27.2059 L1733.83 62.6108 L1743.1 27.2059 L1750.56 27.2059 L1738.69 72.576 L1729.9 72.576 L1720.13 35.3887 L1710.33 72.576 L1701.54 72.576 L1689.67 27.2059 Z" fill="#000000" fill-rule="nonzero" fill-opacity="1" /><path clip-path="url(#clip190)" d="M1761.86 27.2059 L1769.31 27.2059 L1769.31 72.576 L1761.86 72.576 L1761.86 27.2059 M1761.86 9.54393 L1769.31 9.54393 L1769.31 18.9825 L1761.86 18.9825 L1761.86 9.54393 Z" fill="#000000" fill-rule="nonzero" fill-opacity="1" /><path clip-path="url(#clip190)" d="M1792.28 14.324 L1792.28 27.2059 L1807.63 27.2059 L1807.63 32.9987 L1792.28 32.9987 L1792.28 57.6282 Q1792.28 63.1779 1793.78 64.7578 Q1795.32 66.3376 1799.98 66.3376 L1807.63 66.3376 L1807.63 72.576 L1799.98 72.576 Q1791.35 72.576 1788.07 69.3758 Q1784.79 66.1351 1784.79 57.6282 L1784.79 32.9987 L1779.32 32.9987 L1779.32 27.2059 L1784.79 27.2059 L1784.79 14.324 L1792.28 14.324 Z" fill="#000000" fill-rule="nonzero" fill-opacity="1" /><path clip-path="url(#clip190)" d="M1855.15 45.1919 L1855.15 72.576 L1847.7 72.576 L1847.7 45.4349 Q1847.7 38.994 1845.18 35.7938 Q1842.67 32.5936 1837.65 32.5936 Q1831.61 32.5936 1828.13 36.4419 Q1824.65 40.2903 1824.65 46.9338 L1824.65 72.576 L1817.15 72.576 L1817.15 9.54393 L1824.65 9.54393 L1824.65 34.2544 Q1827.32 30.163 1830.93 28.1376 Q1834.57 26.1121 1839.31 26.1121 Q1847.13 26.1121 1851.14 30.9732 Q1855.15 35.7938 1855.15 45.1919 Z" fill="#000000" fill-rule="nonzero" fill-opacity="1" /><path clip-path="url(#clip190)" d="M1896.71 12.096 L1931.47 12.096 L1931.47 18.9825 L1904.89 18.9825 L1904.89 36.8065 L1928.88 36.8065 L1928.88 43.6931 L1904.89 43.6931 L1904.89 72.576 L1896.71 72.576 L1896.71 12.096 Z" fill="#000000" fill-rule="nonzero" fill-opacity="1" /><path clip-path="url(#clip190)" d="M1944.11 9.54393 L1951.56 9.54393 L1951.56 72.576 L1944.11 72.576 L1944.11 9.54393 Z" fill="#000000" fill-rule="nonzero" fill-opacity="1" /><path clip-path="url(#clip190)" d="M1984.74 32.4315 Q1978.74 32.4315 1975.26 37.1306 Q1971.78 41.7891 1971.78 49.9314 Q1971.78 58.0738 1975.22 62.7728 Q1978.7 67.4314 1984.74 67.4314 Q1990.69 67.4314 1994.18 62.7323 Q1997.66 58.0333 1997.66 49.9314 Q1997.66 41.8701 1994.18 37.1711 Q1990.69 32.4315 1984.74 32.4315 M1984.74 26.1121 Q1994.46 26.1121 2000.01 32.4315 Q2005.56 38.7509 2005.56 49.9314 Q2005.56 61.0714 2000.01 67.4314 Q1994.46 73.7508 1984.74 73.7508 Q1974.98 73.7508 1969.43 67.4314 Q1963.92 61.0714 1963.92 49.9314 Q1963.92 38.7509 1969.43 32.4315 Q1974.98 26.1121 1984.74 26.1121 Z" fill="#000000" fill-rule="nonzero" fill-opacity="1" /><path clip-path="url(#clip190)" d="M2013.58 27.2059 L2021.03 27.2059 L2030.35 62.6108 L2039.63 27.2059 L2048.42 27.2059 L2057.74 62.6108 L2067.01 27.2059 L2074.47 27.2059 L2062.6 72.576 L2053.81 72.576 L2044.04 35.3887 L2034.24 72.576 L2025.45 72.576 L2013.58 27.2059 Z" fill="#000000" fill-rule="nonzero" fill-opacity="1" /><path clip-path="url(#clip190)" d="M2114.69 28.5427 L2114.69 35.5912 Q2111.53 33.9709 2108.13 33.1607 Q2104.73 32.3505 2101.08 32.3505 Q2095.53 32.3505 2092.74 34.0519 Q2089.98 35.7533 2089.98 39.156 Q2089.98 41.7486 2091.97 43.2475 Q2093.95 44.7058 2099.95 46.0426 L2102.5 46.6097 Q2110.44 48.3111 2113.76 51.4303 Q2117.12 54.509 2117.12 60.0587 Q2117.12 66.3781 2112.1 70.0644 Q2107.12 73.7508 2098.37 73.7508 Q2094.72 73.7508 2090.75 73.0216 Q2086.82 72.3329 2082.45 70.9151 L2082.45 63.2184 Q2086.58 65.3654 2090.59 66.4591 Q2094.6 67.5124 2098.53 67.5124 Q2103.79 67.5124 2106.63 65.73 Q2109.47 63.9071 2109.47 60.6258 Q2109.47 57.5877 2107.4 55.9673 Q2105.37 54.3469 2098.45 52.8481 L2095.85 52.2405 Q2088.93 50.7821 2085.85 47.7845 Q2082.77 44.7463 2082.77 39.4801 Q2082.77 33.0797 2087.31 29.5959 Q2091.84 26.1121 2100.19 26.1121 Q2104.32 26.1121 2107.97 26.7198 Q2111.61 27.3274 2114.69 28.5427 Z" fill="#000000" fill-rule="nonzero" fill-opacity="1" /><polyline clip-path="url(#clip192)" style="stroke:#8675d9; stroke-linecap:round; stroke-linejoin:round; stroke-width:8; stroke-opacity:0.6; fill:none" points="2204.38,828.362 871.907,466.776 "/>
<polyline clip-path="url(#clip192)" style="stroke:#8675d9; stroke-linecap:round; stroke-linejoin:round; stroke-width:8; stroke-opacity:0.6; fill:none" points="901.936,493.576 871.907,466.776 911.364,458.832 "/>
<polyline clip-path="url(#clip192)" style="stroke:#8675d9; stroke-linecap:round; stroke-linejoin:round; stroke-width:8; stroke-opacity:0.6; fill:none" points="871.907,466.776 2204.38,828.362 "/>
<polyline clip-path="url(#clip192)" style="stroke:#2c4bfe; stroke-linecap:round; stroke-linejoin:round; stroke-width:8; stroke-opacity:0.6; fill:none" points="2195.28,851.765 862.802,490.178 "/>
<polyline clip-path="url(#clip192)" style="stroke:#2c4bfe; stroke-linecap:round; stroke-linejoin:round; stroke-width:8; stroke-opacity:0.6; fill:none" points="892.831,516.978 862.802,490.178 902.26,482.235 "/>
<polyline clip-path="url(#clip192)" style="stroke:#2c4bfe; stroke-linecap:round; stroke-linejoin:round; stroke-width:8; stroke-opacity:0.6; fill:none" points="862.802,490.178 2195.28,851.765 "/>
<polyline clip-path="url(#clip192)" style="stroke:#5abac1; stroke-linecap:round; stroke-linejoin:round; stroke-width:8; stroke-opacity:0.6; fill:none" points="2186.17,875.167 853.697,513.581 "/>
<polyline clip-path="url(#clip192)" style="stroke:#5abac1; stroke-linecap:round; stroke-linejoin:round; stroke-width:8; stroke-opacity:0.6; fill:none" points="883.727,540.381 853.697,513.581 893.155,505.637 "/>
<polyline clip-path="url(#clip192)" style="stroke:#5abac1; stroke-linecap:round; stroke-linejoin:round; stroke-width:8; stroke-opacity:0.6; fill:none" points="853.697,513.581 2186.17,875.167 "/>
<polyline clip-path="url(#clip192)" style="stroke:#9d4751; stroke-linecap:round; stroke-linejoin:round; stroke-width:8; stroke-opacity:0.6; fill:none" points="2177.07,898.569 844.593,536.983 "/>
<polyline clip-path="url(#clip192)" style="stroke:#9d4751; stroke-linecap:round; stroke-linejoin:round; stroke-width:8; stroke-opacity:0.6; fill:none" points="874.622,563.783 844.593,536.983 884.05,529.039 "/>
<polyline clip-path="url(#clip192)" style="stroke:#9d4751; stroke-linecap:round; stroke-linejoin:round; stroke-width:8; stroke-opacity:0.6; fill:none" points="844.593,536.983 2177.07,898.569 "/>
<polyline clip-path="url(#clip192)" style="stroke:#8675d9; stroke-linecap:round; stroke-linejoin:round; stroke-width:8; stroke-opacity:0.6; fill:none" points="2222.59,828.362 890.116,1189.95 "/>
<polyline clip-path="url(#clip192)" style="stroke:#8675d9; stroke-linecap:round; stroke-linejoin:round; stroke-width:8; stroke-opacity:0.6; fill:none" points="929.573,1197.89 890.116,1189.95 920.145,1163.15 "/>
<polyline clip-path="url(#clip192)" style="stroke:#8675d9; stroke-linecap:round; stroke-linejoin:round; stroke-width:8; stroke-opacity:0.6; fill:none" points="890.116,1189.95 2222.59,828.362 "/>
<polyline clip-path="url(#clip192)" style="stroke:#5abac1; stroke-linecap:round; stroke-linejoin:round; stroke-width:8; stroke-opacity:0.6; fill:none" points="2240.8,875.167 908.325,1236.75 "/>
<polyline clip-path="url(#clip192)" style="stroke:#5abac1; stroke-linecap:round; stroke-linejoin:round; stroke-width:8; stroke-opacity:0.6; fill:none" points="947.782,1244.7 908.325,1236.75 938.354,1209.95 "/>
<polyline clip-path="url(#clip192)" style="stroke:#5abac1; stroke-linecap:round; stroke-linejoin:round; stroke-width:8; stroke-opacity:0.6; fill:none" points="908.325,1236.75 2240.8,875.167 "/>
<polyline clip-path="url(#clip192)" style="stroke:#9d4751; stroke-linecap:round; stroke-linejoin:round; stroke-width:8; stroke-opacity:0.6; fill:none" points="2308.83,862.814 1799.87,1447.87 "/>
<polyline clip-path="url(#clip192)" style="stroke:#9d4751; stroke-linecap:round; stroke-linejoin:round; stroke-width:8; stroke-opacity:0.6; fill:none" points="1837.08,1432.53 1799.87,1447.87 1809.92,1408.9 "/>
<polyline clip-path="url(#clip192)" style="stroke:#9d4751; stroke-linecap:round; stroke-linejoin:round; stroke-width:8; stroke-opacity:0.6; fill:none" points="1799.87,1447.87 2308.83,862.814 "/>
<polyline clip-path="url(#clip192)" style="stroke:#2c4bfe; stroke-linecap:round; stroke-linejoin:round; stroke-width:8; stroke-opacity:0.6; fill:none" points="1752.2,190.974 2261.16,776.033 "/>
<polyline clip-path="url(#clip192)" style="stroke:#2c4bfe; stroke-linecap:round; stroke-linejoin:round; stroke-width:8; stroke-opacity:0.6; fill:none" points="2251.11,737.058 2261.16,776.033 2223.95,760.686 "/>
<polyline clip-path="url(#clip192)" style="stroke:#2c4bfe; stroke-linecap:round; stroke-linejoin:round; stroke-width:8; stroke-opacity:0.6; fill:none" points="2261.16,776.033 1752.2,190.974 "/>
<polyline clip-path="url(#clip192)" style="stroke:#5abac1; stroke-linecap:round; stroke-linejoin:round; stroke-width:8; stroke-opacity:0.6; fill:none" points="1776.03,176.51 2284.99,761.57 "/>
<polyline clip-path="url(#clip192)" style="stroke:#5abac1; stroke-linecap:round; stroke-linejoin:round; stroke-width:8; stroke-opacity:0.6; fill:none" points="2274.95,722.595 2284.99,761.57 2247.78,746.223 "/>
<polyline clip-path="url(#clip192)" style="stroke:#5abac1; stroke-linecap:round; stroke-linejoin:round; stroke-width:8; stroke-opacity:0.6; fill:none" points="2284.99,761.57 1776.03,176.51 "/>
<polyline clip-path="url(#clip192)" style="stroke:#9d4751; stroke-linecap:round; stroke-linejoin:round; stroke-width:8; stroke-opacity:0.6; fill:none" points="1799.87,162.047 2308.83,747.106 "/>
<polyline clip-path="url(#clip192)" style="stroke:#9d4751; stroke-linecap:round; stroke-linejoin:round; stroke-width:8; stroke-opacity:0.6; fill:none" points="2298.78,708.131 2308.83,747.106 2271.62,731.759 "/>
<polyline clip-path="url(#clip192)" style="stroke:#9d4751; stroke-linecap:round; stroke-linejoin:round; stroke-width:8; stroke-opacity:0.6; fill:none" points="2308.83,747.106 1799.87,162.047 "/>
<polyline clip-path="url(#clip192)" style="stroke:#2c4bfe; stroke-linecap:round; stroke-linejoin:round; stroke-width:8; stroke-opacity:0.6; fill:none" points="1722.73,266.705 899.22,490.178 "/>
<polyline clip-path="url(#clip192)" style="stroke:#2c4bfe; stroke-linecap:round; stroke-linejoin:round; stroke-width:8; stroke-opacity:0.6; fill:none" points="938.678,498.122 899.22,490.178 929.25,463.378 "/>
<polyline clip-path="url(#clip192)" style="stroke:#2c4bfe; stroke-linecap:round; stroke-linejoin:round; stroke-width:8; stroke-opacity:0.6; fill:none" points="899.22,490.178 1722.73,266.705 "/>
<polyline clip-path="url(#clip192)" style="stroke:#5abac1; stroke-linecap:round; stroke-linejoin:round; stroke-width:8; stroke-opacity:0.6; fill:none" points="1731.84,290.108 908.325,513.581 "/>
<polyline clip-path="url(#clip192)" style="stroke:#5abac1; stroke-linecap:round; stroke-linejoin:round; stroke-width:8; stroke-opacity:0.6; fill:none" points="947.782,521.524 908.325,513.581 938.354,486.781 "/>
<polyline clip-path="url(#clip192)" style="stroke:#5abac1; stroke-linecap:round; stroke-linejoin:round; stroke-width:8; stroke-opacity:0.6; fill:none" points="908.325,513.581 1731.84,290.108 "/>
<polyline clip-path="url(#clip192)" style="stroke:#9d4751; stroke-linecap:round; stroke-linejoin:round; stroke-width:8; stroke-opacity:0.6; fill:none" points="1740.94,313.51 917.429,536.983 "/>
<polyline clip-path="url(#clip192)" style="stroke:#9d4751; stroke-linecap:round; stroke-linejoin:round; stroke-width:8; stroke-opacity:0.6; fill:none" points="956.887,544.927 917.429,536.983 947.459,510.183 "/>
<polyline clip-path="url(#clip192)" style="stroke:#9d4751; stroke-linecap:round; stroke-linejoin:round; stroke-width:8; stroke-opacity:0.6; fill:none" points="917.429,536.983 1740.94,313.51 "/>
<polyline clip-path="url(#clip192)" style="stroke:#5abac1; stroke-linecap:round; stroke-linejoin:round; stroke-width:8; stroke-opacity:0.6; fill:none" points="1776.03,263.291 952.519,1209.94 "/>
<polyline clip-path="url(#clip192)" style="stroke:#5abac1; stroke-linecap:round; stroke-linejoin:round; stroke-width:8; stroke-opacity:0.6; fill:none" points="989.728,1194.59 952.519,1209.94 962.567,1170.96 "/>
<polyline clip-path="url(#clip192)" style="stroke:#5abac1; stroke-linecap:round; stroke-linejoin:round; stroke-width:8; stroke-opacity:0.6; fill:none" points="952.519,1209.94 1776.03,263.291 "/>
<polyline clip-path="url(#clip192)" style="stroke:#9d4751; stroke-linecap:round; stroke-linejoin:round; stroke-width:8; stroke-opacity:0.6; fill:none" points="1822.38,219.901 1822.38,1390.02 "/>
<polyline clip-path="url(#clip192)" style="stroke:#9d4751; stroke-linecap:round; stroke-linejoin:round; stroke-width:8; stroke-opacity:0.6; fill:none" points="1840.38,1354.02 1822.38,1390.02 1804.38,1354.02 "/>
<polyline clip-path="url(#clip192)" style="stroke:#9d4751; stroke-linecap:round; stroke-linejoin:round; stroke-width:8; stroke-opacity:0.6; fill:none" points="1822.38,1390.02 1822.38,219.901 "/>
<polyline clip-path="url(#clip192)" style="stroke:#8675d9; stroke-linecap:round; stroke-linejoin:round; stroke-width:8; stroke-opacity:0.6; fill:none" points="910.474,443.373 910.474,1166.55 "/>
<polyline clip-path="url(#clip192)" style="stroke:#8675d9; stroke-linecap:round; stroke-linejoin:round; stroke-width:8; stroke-opacity:0.6; fill:none" points="928.474,1130.55 910.474,1166.55 892.474,1130.55 "/>
<polyline clip-path="url(#clip192)" style="stroke:#8675d9; stroke-linecap:round; stroke-linejoin:round; stroke-width:8; stroke-opacity:0.6; fill:none" points="910.474,1166.55 910.474,443.373 "/>
<polyline clip-path="url(#clip192)" style="stroke:#5abac1; stroke-linecap:round; stroke-linejoin:round; stroke-width:8; stroke-opacity:0.6; fill:none" points="969.4,443.373 969.4,1166.55 "/>
<polyline clip-path="url(#clip192)" style="stroke:#5abac1; stroke-linecap:round; stroke-linejoin:round; stroke-width:8; stroke-opacity:0.6; fill:none" points="987.4,1130.55 969.4,1166.55 951.4,1130.55 "/>
<polyline clip-path="url(#clip192)" style="stroke:#5abac1; stroke-linecap:round; stroke-linejoin:round; stroke-width:8; stroke-opacity:0.6; fill:none" points="969.4,1166.55 969.4,443.373 "/>
<polyline clip-path="url(#clip192)" style="stroke:#9d4751; stroke-linecap:round; stroke-linejoin:round; stroke-width:8; stroke-opacity:0.6; fill:none" points="976.355,385.52 1799.87,1332.17 "/>
<polyline clip-path="url(#clip192)" style="stroke:#9d4751; stroke-linecap:round; stroke-linejoin:round; stroke-width:8; stroke-opacity:0.6; fill:none" points="1789.82,1293.19 1799.87,1332.17 1762.66,1316.82 "/>
<polyline clip-path="url(#clip192)" style="stroke:#9d4751; stroke-linecap:round; stroke-linejoin:round; stroke-width:8; stroke-opacity:0.6; fill:none" points="1799.87,1332.17 976.355,385.52 "/>
<circle clip-path="url(#clip192)" cx="2213.48" cy="804.96" r="14.4" fill="#3da44d" fill-rule="evenodd" fill-opacity="1" stroke="#000000" stroke-opacity="1" stroke-width="3.2"/>
<circle clip-path="url(#clip192)" cx="1704.53" cy="219.901" r="14.4" fill="#3da44d" fill-rule="evenodd" fill-opacity="1" stroke="#000000" stroke-opacity="1" stroke-width="3.2"/>
<circle clip-path="url(#clip192)" cx="881.011" cy="443.373" r="14.4" fill="#3da44d" fill-rule="evenodd" fill-opacity="1" stroke="#000000" stroke-opacity="1" stroke-width="3.2"/>
<circle clip-path="url(#clip192)" cx="881.011" cy="1166.55" r="14.4" fill="#3da44d" fill-rule="evenodd" fill-opacity="1" stroke="#000000" stroke-opacity="1" stroke-width="3.2"/>
<circle clip-path="url(#clip192)" cx="1704.53" cy="1390.02" r="14.4" fill="#3da44d" fill-rule="evenodd" fill-opacity="1" stroke="#000000" stroke-opacity="1" stroke-width="3.2"/>
<path clip-path="url(#clip190)" d="M193.936 479.945 L621.761 479.945 L621.761 168.905 L193.936 168.905  Z" fill="#ffffff" fill-rule="evenodd" fill-opacity="1"/>
<polyline clip-path="url(#clip190)" style="stroke:#000000; stroke-linecap:round; stroke-linejoin:round; stroke-width:4; stroke-opacity:1; fill:none" points="193.936,479.945 621.761,479.945 621.761,168.905 193.936,168.905 193.936,479.945 "/>
<circle clip-path="url(#clip190)" cx="289.884" cy="220.745" r="20.48" fill="#3da44d" fill-rule="evenodd" fill-opacity="1" stroke="#000000" stroke-opacity="1" stroke-width="4.55111"/>
<path clip-path="url(#clip190)" d="M385.831 203.465 L392.127 203.465 L407.451 232.377 L407.451 203.465 L411.988 203.465 L411.988 238.025 L405.692 238.025 L390.368 209.113 L390.368 238.025 L385.831 238.025 L385.831 203.465 Z" fill="#000000" fill-rule="nonzero" fill-opacity="1" /><path clip-path="url(#clip190)" d="M431.155 215.085 Q427.729 215.085 425.738 217.77 Q423.748 220.432 423.748 225.085 Q423.748 229.738 425.715 232.423 Q427.706 235.085 431.155 235.085 Q434.558 235.085 436.548 232.4 Q438.539 229.715 438.539 225.085 Q438.539 220.478 436.548 217.793 Q434.558 215.085 431.155 215.085 M431.155 211.474 Q436.71 211.474 439.882 215.085 Q443.053 218.696 443.053 225.085 Q443.053 231.451 439.882 235.085 Q436.71 238.696 431.155 238.696 Q425.576 238.696 422.405 235.085 Q419.257 231.451 419.257 225.085 Q419.257 218.696 422.405 215.085 Q425.576 211.474 431.155 211.474 Z" fill="#000000" fill-rule="nonzero" fill-opacity="1" /><path clip-path="url(#clip190)" d="M467.173 216.034 L467.173 202.006 L471.432 202.006 L471.432 238.025 L467.173 238.025 L467.173 234.136 Q465.831 236.451 463.77 237.585 Q461.733 238.696 458.863 238.696 Q454.164 238.696 451.201 234.946 Q448.261 231.196 448.261 225.085 Q448.261 218.974 451.201 215.224 Q454.164 211.474 458.863 211.474 Q461.733 211.474 463.77 212.608 Q465.831 213.719 467.173 216.034 M452.659 225.085 Q452.659 229.784 454.581 232.469 Q456.525 235.131 459.905 235.131 Q463.284 235.131 465.229 232.469 Q467.173 229.784 467.173 225.085 Q467.173 220.386 465.229 217.724 Q463.284 215.039 459.905 215.039 Q456.525 215.039 454.581 217.724 Q452.659 220.386 452.659 225.085 Z" fill="#000000" fill-rule="nonzero" fill-opacity="1" /><path clip-path="url(#clip190)" d="M502.381 223.997 L502.381 226.08 L482.798 226.08 Q483.076 230.478 485.437 232.793 Q487.821 235.085 492.057 235.085 Q494.511 235.085 496.803 234.483 Q499.118 233.881 501.386 232.677 L501.386 236.705 Q499.094 237.677 496.687 238.187 Q494.28 238.696 491.803 238.696 Q485.599 238.696 481.965 235.085 Q478.354 231.474 478.354 225.316 Q478.354 218.951 481.78 215.224 Q485.229 211.474 491.062 211.474 Q496.293 211.474 499.326 214.853 Q502.381 218.21 502.381 223.997 M498.122 222.747 Q498.076 219.252 496.155 217.168 Q494.256 215.085 491.108 215.085 Q487.544 215.085 485.391 217.099 Q483.261 219.113 482.937 222.77 L498.122 222.747 Z" fill="#000000" fill-rule="nonzero" fill-opacity="1" /><path clip-path="url(#clip190)" d="M525.9 212.863 L525.9 216.891 Q524.094 215.965 522.15 215.502 Q520.205 215.039 518.122 215.039 Q514.951 215.039 513.354 216.011 Q511.779 216.983 511.779 218.928 Q511.779 220.409 512.914 221.265 Q514.048 222.099 517.474 222.863 L518.932 223.187 Q523.469 224.159 525.367 225.941 Q527.289 227.701 527.289 230.872 Q527.289 234.483 524.418 236.589 Q521.571 238.696 516.571 238.696 Q514.488 238.696 512.219 238.279 Q509.974 237.886 507.474 237.076 L507.474 232.677 Q509.835 233.904 512.127 234.529 Q514.418 235.131 516.664 235.131 Q519.673 235.131 521.293 234.113 Q522.914 233.071 522.914 231.196 Q522.914 229.46 521.733 228.534 Q520.576 227.608 516.617 226.752 L515.136 226.404 Q511.178 225.571 509.418 223.858 Q507.659 222.122 507.659 219.113 Q507.659 215.455 510.252 213.465 Q512.844 211.474 517.613 211.474 Q519.974 211.474 522.057 211.821 Q524.141 212.168 525.9 212.863 Z" fill="#000000" fill-rule="nonzero" fill-opacity="1" /><polyline clip-path="url(#clip190)" style="stroke:#8675d9; stroke-linecap:round; stroke-linejoin:round; stroke-width:4; stroke-opacity:1; fill:none" points="217.923,272.585 361.844,272.585 "/>
<path clip-path="url(#clip190)" d="M390.507 259.147 L390.507 272.133 L396.387 272.133 Q399.65 272.133 401.433 270.443 Q403.215 268.754 403.215 265.629 Q403.215 262.527 401.433 260.837 Q399.65 259.147 396.387 259.147 L390.507 259.147 M385.831 255.305 L396.387 255.305 Q402.197 255.305 405.16 257.944 Q408.146 260.559 408.146 265.629 Q408.146 270.744 405.16 273.36 Q402.197 275.976 396.387 275.976 L390.507 275.976 L390.507 289.865 L385.831 289.865 L385.831 255.305 Z" fill="#000000" fill-rule="nonzero" fill-opacity="1" /><path clip-path="url(#clip190)" d="M423.886 276.832 Q418.724 276.832 416.734 278.013 Q414.743 279.193 414.743 282.041 Q414.743 284.309 416.224 285.652 Q417.729 286.971 420.299 286.971 Q423.84 286.971 425.97 284.471 Q428.123 281.948 428.123 277.781 L428.123 276.832 L423.886 276.832 M432.382 275.073 L432.382 289.865 L428.123 289.865 L428.123 285.929 Q426.664 288.291 424.488 289.425 Q422.312 290.536 419.164 290.536 Q415.183 290.536 412.822 288.314 Q410.484 286.068 410.484 282.318 Q410.484 277.943 413.4 275.721 Q416.34 273.499 422.15 273.499 L428.123 273.499 L428.123 273.082 Q428.123 270.143 426.178 268.545 Q424.257 266.925 420.761 266.925 Q418.539 266.925 416.433 267.457 Q414.326 267.99 412.382 269.055 L412.382 265.119 Q414.72 264.217 416.919 263.777 Q419.118 263.314 421.201 263.314 Q426.826 263.314 429.604 266.231 Q432.382 269.147 432.382 275.073 Z" fill="#000000" fill-rule="nonzero" fill-opacity="1" /><path clip-path="url(#clip190)" d="M445.368 256.578 L445.368 263.939 L454.141 263.939 L454.141 267.249 L445.368 267.249 L445.368 281.323 Q445.368 284.494 446.224 285.397 Q447.104 286.3 449.766 286.3 L454.141 286.3 L454.141 289.865 L449.766 289.865 Q444.835 289.865 442.96 288.036 Q441.085 286.184 441.085 281.323 L441.085 267.249 L437.96 267.249 L437.96 263.939 L441.085 263.939 L441.085 256.578 L445.368 256.578 Z" fill="#000000" fill-rule="nonzero" fill-opacity="1" /><path clip-path="url(#clip190)" d="M481.294 274.217 L481.294 289.865 L477.034 289.865 L477.034 274.355 Q477.034 270.675 475.599 268.846 Q474.164 267.018 471.294 267.018 Q467.845 267.018 465.854 269.217 Q463.863 271.416 463.863 275.212 L463.863 289.865 L459.581 289.865 L459.581 253.846 L463.863 253.846 L463.863 267.967 Q465.391 265.629 467.451 264.471 Q469.534 263.314 472.243 263.314 Q476.71 263.314 479.002 266.092 Q481.294 268.846 481.294 274.217 Z" fill="#000000" fill-rule="nonzero" fill-opacity="1" /><path clip-path="url(#clip190)" d="M506.27 285.929 L513.909 285.929 L513.909 259.564 L505.599 261.231 L505.599 256.971 L513.863 255.305 L518.539 255.305 L518.539 285.929 L526.178 285.929 L526.178 289.865 L506.27 289.865 L506.27 285.929 Z" fill="#000000" fill-rule="nonzero" fill-opacity="1" /><path clip-path="url(#clip190)" d="M567.96 273.962 L567.96 276.045 L558.863 285.142 L556.085 282.365 L561.478 276.971 L533.261 276.971 L533.261 273.036 L561.478 273.036 L556.085 267.643 L558.863 264.865 L567.96 273.962 Z" fill="#000000" fill-rule="nonzero" fill-opacity="1" /><path clip-path="url(#clip190)" d="M588.191 259.379 L576.386 277.828 L588.191 277.828 L588.191 259.379 M586.964 255.305 L592.844 255.305 L592.844 277.828 L597.774 277.828 L597.774 281.717 L592.844 281.717 L592.844 289.865 L588.191 289.865 L588.191 281.717 L572.589 281.717 L572.589 277.203 L586.964 255.305 Z" fill="#000000" fill-rule="nonzero" fill-opacity="1" /><polyline clip-path="url(#clip190)" style="stroke:#2c4bfe; stroke-linecap:round; stroke-linejoin:round; stroke-width:4; stroke-opacity:1; fill:none" points="217.923,324.425 361.844,324.425 "/>
<path clip-path="url(#clip190)" d="M390.507 310.987 L390.507 323.973 L396.387 323.973 Q399.65 323.973 401.433 322.283 Q403.215 320.594 403.215 317.469 Q403.215 314.367 401.433 312.677 Q399.65 310.987 396.387 310.987 L390.507 310.987 M385.831 307.145 L396.387 307.145 Q402.197 307.145 405.16 309.784 Q408.146 312.399 408.146 317.469 Q408.146 322.584 405.16 325.2 Q402.197 327.816 396.387 327.816 L390.507 327.816 L390.507 341.705 L385.831 341.705 L385.831 307.145 Z" fill="#000000" fill-rule="nonzero" fill-opacity="1" /><path clip-path="url(#clip190)" d="M423.886 328.672 Q418.724 328.672 416.734 329.853 Q414.743 331.033 414.743 333.881 Q414.743 336.149 416.224 337.492 Q417.729 338.811 420.299 338.811 Q423.84 338.811 425.97 336.311 Q428.123 333.788 428.123 329.621 L428.123 328.672 L423.886 328.672 M432.382 326.913 L432.382 341.705 L428.123 341.705 L428.123 337.769 Q426.664 340.131 424.488 341.265 Q422.312 342.376 419.164 342.376 Q415.183 342.376 412.822 340.154 Q410.484 337.908 410.484 334.158 Q410.484 329.783 413.4 327.561 Q416.34 325.339 422.15 325.339 L428.123 325.339 L428.123 324.922 Q428.123 321.983 426.178 320.385 Q424.257 318.765 420.761 318.765 Q418.539 318.765 416.433 319.297 Q414.326 319.83 412.382 320.895 L412.382 316.959 Q414.72 316.057 416.919 315.617 Q419.118 315.154 421.201 315.154 Q426.826 315.154 429.604 318.071 Q432.382 320.987 432.382 326.913 Z" fill="#000000" fill-rule="nonzero" fill-opacity="1" /><path clip-path="url(#clip190)" d="M445.368 308.418 L445.368 315.779 L454.141 315.779 L454.141 319.089 L445.368 319.089 L445.368 333.163 Q445.368 336.334 446.224 337.237 Q447.104 338.14 449.766 338.14 L454.141 338.14 L454.141 341.705 L449.766 341.705 Q444.835 341.705 442.96 339.876 Q441.085 338.024 441.085 333.163 L441.085 319.089 L437.96 319.089 L437.96 315.779 L441.085 315.779 L441.085 308.418 L445.368 308.418 Z" fill="#000000" fill-rule="nonzero" fill-opacity="1" /><path clip-path="url(#clip190)" d="M481.294 326.057 L481.294 341.705 L477.034 341.705 L477.034 326.195 Q477.034 322.515 475.599 320.686 Q474.164 318.858 471.294 318.858 Q467.845 318.858 465.854 321.057 Q463.863 323.256 463.863 327.052 L463.863 341.705 L459.581 341.705 L459.581 305.686 L463.863 305.686 L463.863 319.807 Q465.391 317.469 467.451 316.311 Q469.534 315.154 472.243 315.154 Q476.71 315.154 479.002 317.932 Q481.294 320.686 481.294 326.057 Z" fill="#000000" fill-rule="nonzero" fill-opacity="1" /><path clip-path="url(#clip190)" d="M509.488 337.769 L525.807 337.769 L525.807 341.705 L503.863 341.705 L503.863 337.769 Q506.525 335.015 511.108 330.385 Q515.715 325.733 516.895 324.39 Q519.141 321.867 520.02 320.131 Q520.923 318.371 520.923 316.682 Q520.923 313.927 518.979 312.191 Q517.057 310.455 513.955 310.455 Q511.756 310.455 509.303 311.219 Q506.872 311.983 504.094 313.534 L504.094 308.811 Q506.918 307.677 509.372 307.098 Q511.826 306.52 513.863 306.52 Q519.233 306.52 522.428 309.205 Q525.622 311.89 525.622 316.381 Q525.622 318.51 524.812 320.432 Q524.025 322.33 521.918 324.922 Q521.34 325.594 518.238 328.811 Q515.136 332.006 509.488 337.769 Z" fill="#000000" fill-rule="nonzero" fill-opacity="1" /><path clip-path="url(#clip190)" d="M567.96 325.802 L567.96 327.885 L558.863 336.982 L556.085 334.205 L561.478 328.811 L533.261 328.811 L533.261 324.876 L561.478 324.876 L556.085 319.483 L558.863 316.705 L567.96 325.802 Z" fill="#000000" fill-rule="nonzero" fill-opacity="1" /><path clip-path="url(#clip190)" d="M589.511 323.07 Q592.867 323.788 594.742 326.057 Q596.64 328.325 596.64 331.658 Q596.64 336.774 593.122 339.575 Q589.603 342.376 583.122 342.376 Q580.946 342.376 578.631 341.936 Q576.339 341.519 573.886 340.663 L573.886 336.149 Q575.83 337.283 578.145 337.862 Q580.46 338.441 582.983 338.441 Q587.381 338.441 589.673 336.705 Q591.987 334.969 591.987 331.658 Q591.987 328.603 589.835 326.89 Q587.705 325.154 583.886 325.154 L579.858 325.154 L579.858 321.311 L584.071 321.311 Q587.52 321.311 589.349 319.946 Q591.177 318.557 591.177 315.964 Q591.177 313.302 589.279 311.89 Q587.404 310.455 583.886 310.455 Q581.964 310.455 579.765 310.871 Q577.566 311.288 574.927 312.168 L574.927 308.001 Q577.589 307.26 579.904 306.89 Q582.242 306.52 584.302 306.52 Q589.626 306.52 592.728 308.95 Q595.83 311.358 595.83 315.478 Q595.83 318.348 594.186 320.339 Q592.543 322.307 589.511 323.07 Z" fill="#000000" fill-rule="nonzero" fill-opacity="1" /><polyline clip-path="url(#clip190)" style="stroke:#5abac1; stroke-linecap:round; stroke-linejoin:round; stroke-width:4; stroke-opacity:1; fill:none" points="217.923,376.265 361.844,376.265 "/>
<path clip-path="url(#clip190)" d="M390.507 362.827 L390.507 375.813 L396.387 375.813 Q399.65 375.813 401.433 374.123 Q403.215 372.434 403.215 369.309 Q403.215 366.207 401.433 364.517 Q399.65 362.827 396.387 362.827 L390.507 362.827 M385.831 358.985 L396.387 358.985 Q402.197 358.985 405.16 361.624 Q408.146 364.239 408.146 369.309 Q408.146 374.424 405.16 377.04 Q402.197 379.656 396.387 379.656 L390.507 379.656 L390.507 393.545 L385.831 393.545 L385.831 358.985 Z" fill="#000000" fill-rule="nonzero" fill-opacity="1" /><path clip-path="url(#clip190)" d="M423.886 380.512 Q418.724 380.512 416.734 381.693 Q414.743 382.873 414.743 385.721 Q414.743 387.989 416.224 389.332 Q417.729 390.651 420.299 390.651 Q423.84 390.651 425.97 388.151 Q428.123 385.628 428.123 381.461 L428.123 380.512 L423.886 380.512 M432.382 378.753 L432.382 393.545 L428.123 393.545 L428.123 389.609 Q426.664 391.971 424.488 393.105 Q422.312 394.216 419.164 394.216 Q415.183 394.216 412.822 391.994 Q410.484 389.748 410.484 385.998 Q410.484 381.623 413.4 379.401 Q416.34 377.179 422.15 377.179 L428.123 377.179 L428.123 376.762 Q428.123 373.823 426.178 372.225 Q424.257 370.605 420.761 370.605 Q418.539 370.605 416.433 371.137 Q414.326 371.67 412.382 372.735 L412.382 368.799 Q414.72 367.897 416.919 367.457 Q419.118 366.994 421.201 366.994 Q426.826 366.994 429.604 369.911 Q432.382 372.827 432.382 378.753 Z" fill="#000000" fill-rule="nonzero" fill-opacity="1" /><path clip-path="url(#clip190)" d="M445.368 360.258 L445.368 367.619 L454.141 367.619 L454.141 370.929 L445.368 370.929 L445.368 385.003 Q445.368 388.174 446.224 389.077 Q447.104 389.98 449.766 389.98 L454.141 389.98 L454.141 393.545 L449.766 393.545 Q444.835 393.545 442.96 391.716 Q441.085 389.864 441.085 385.003 L441.085 370.929 L437.96 370.929 L437.96 367.619 L441.085 367.619 L441.085 360.258 L445.368 360.258 Z" fill="#000000" fill-rule="nonzero" fill-opacity="1" /><path clip-path="url(#clip190)" d="M481.294 377.897 L481.294 393.545 L477.034 393.545 L477.034 378.035 Q477.034 374.355 475.599 372.526 Q474.164 370.698 471.294 370.698 Q467.845 370.698 465.854 372.897 Q463.863 375.096 463.863 378.892 L463.863 393.545 L459.581 393.545 L459.581 357.526 L463.863 357.526 L463.863 371.647 Q465.391 369.309 467.451 368.151 Q469.534 366.994 472.243 366.994 Q476.71 366.994 479.002 369.772 Q481.294 372.526 481.294 377.897 Z" fill="#000000" fill-rule="nonzero" fill-opacity="1" /><path clip-path="url(#clip190)" d="M509.488 389.609 L525.807 389.609 L525.807 393.545 L503.863 393.545 L503.863 389.609 Q506.525 386.855 511.108 382.225 Q515.715 377.573 516.895 376.23 Q519.141 373.707 520.02 371.971 Q520.923 370.211 520.923 368.522 Q520.923 365.767 518.979 364.031 Q517.057 362.295 513.955 362.295 Q511.756 362.295 509.303 363.059 Q506.872 363.823 504.094 365.374 L504.094 360.651 Q506.918 359.517 509.372 358.938 Q511.826 358.36 513.863 358.36 Q519.233 358.36 522.428 361.045 Q525.622 363.73 525.622 368.221 Q525.622 370.35 524.812 372.272 Q524.025 374.17 521.918 376.762 Q521.34 377.434 518.238 380.651 Q515.136 383.846 509.488 389.609 Z" fill="#000000" fill-rule="nonzero" fill-opacity="1" /><path clip-path="url(#clip190)" d="M567.96 377.642 L567.96 379.725 L558.863 388.822 L556.085 386.045 L561.478 380.651 L533.261 380.651 L533.261 376.716 L561.478 376.716 L556.085 371.323 L558.863 368.545 L567.96 377.642 Z" fill="#000000" fill-rule="nonzero" fill-opacity="1" /><path clip-path="url(#clip190)" d="M588.191 363.059 L576.386 381.508 L588.191 381.508 L588.191 363.059 M586.964 358.985 L592.844 358.985 L592.844 381.508 L597.774 381.508 L597.774 385.397 L592.844 385.397 L592.844 393.545 L588.191 393.545 L588.191 385.397 L572.589 385.397 L572.589 380.883 L586.964 358.985 Z" fill="#000000" fill-rule="nonzero" fill-opacity="1" /><polyline clip-path="url(#clip190)" style="stroke:#9d4751; stroke-linecap:round; stroke-linejoin:round; stroke-width:4; stroke-opacity:1; fill:none" points="217.923,428.105 361.844,428.105 "/>
<path clip-path="url(#clip190)" d="M390.507 414.667 L390.507 427.653 L396.387 427.653 Q399.65 427.653 401.433 425.963 Q403.215 424.274 403.215 421.149 Q403.215 418.047 401.433 416.357 Q399.65 414.667 396.387 414.667 L390.507 414.667 M385.831 410.825 L396.387 410.825 Q402.197 410.825 405.16 413.464 Q408.146 416.079 408.146 421.149 Q408.146 426.264 405.16 428.88 Q402.197 431.496 396.387 431.496 L390.507 431.496 L390.507 445.385 L385.831 445.385 L385.831 410.825 Z" fill="#000000" fill-rule="nonzero" fill-opacity="1" /><path clip-path="url(#clip190)" d="M423.886 432.352 Q418.724 432.352 416.734 433.533 Q414.743 434.713 414.743 437.561 Q414.743 439.829 416.224 441.172 Q417.729 442.491 420.299 442.491 Q423.84 442.491 425.97 439.991 Q428.123 437.468 428.123 433.301 L428.123 432.352 L423.886 432.352 M432.382 430.593 L432.382 445.385 L428.123 445.385 L428.123 441.449 Q426.664 443.811 424.488 444.945 Q422.312 446.056 419.164 446.056 Q415.183 446.056 412.822 443.834 Q410.484 441.588 410.484 437.838 Q410.484 433.463 413.4 431.241 Q416.34 429.019 422.15 429.019 L428.123 429.019 L428.123 428.602 Q428.123 425.663 426.178 424.065 Q424.257 422.445 420.761 422.445 Q418.539 422.445 416.433 422.977 Q414.326 423.51 412.382 424.575 L412.382 420.639 Q414.72 419.737 416.919 419.297 Q419.118 418.834 421.201 418.834 Q426.826 418.834 429.604 421.751 Q432.382 424.667 432.382 430.593 Z" fill="#000000" fill-rule="nonzero" fill-opacity="1" /><path clip-path="url(#clip190)" d="M445.368 412.098 L445.368 419.459 L454.141 419.459 L454.141 422.769 L445.368 422.769 L445.368 436.843 Q445.368 440.014 446.224 440.917 Q447.104 441.82 449.766 441.82 L454.141 441.82 L454.141 445.385 L449.766 445.385 Q444.835 445.385 442.96 443.556 Q441.085 441.704 441.085 436.843 L441.085 422.769 L437.96 422.769 L437.96 419.459 L441.085 419.459 L441.085 412.098 L445.368 412.098 Z" fill="#000000" fill-rule="nonzero" fill-opacity="1" /><path clip-path="url(#clip190)" d="M481.294 429.737 L481.294 445.385 L477.034 445.385 L477.034 429.875 Q477.034 426.195 475.599 424.366 Q474.164 422.538 471.294 422.538 Q467.845 422.538 465.854 424.737 Q463.863 426.936 463.863 430.732 L463.863 445.385 L459.581 445.385 L459.581 409.366 L463.863 409.366 L463.863 423.487 Q465.391 421.149 467.451 419.991 Q469.534 418.834 472.243 418.834 Q476.71 418.834 479.002 421.612 Q481.294 424.366 481.294 429.737 Z" fill="#000000" fill-rule="nonzero" fill-opacity="1" /><path clip-path="url(#clip190)" d="M509.488 441.449 L525.807 441.449 L525.807 445.385 L503.863 445.385 L503.863 441.449 Q506.525 438.695 511.108 434.065 Q515.715 429.413 516.895 428.07 Q519.141 425.547 520.02 423.811 Q520.923 422.051 520.923 420.362 Q520.923 417.607 518.979 415.871 Q517.057 414.135 513.955 414.135 Q511.756 414.135 509.303 414.899 Q506.872 415.663 504.094 417.214 L504.094 412.491 Q506.918 411.357 509.372 410.778 Q511.826 410.2 513.863 410.2 Q519.233 410.2 522.428 412.885 Q525.622 415.57 525.622 420.061 Q525.622 422.19 524.812 424.112 Q524.025 426.01 521.918 428.602 Q521.34 429.274 518.238 432.491 Q515.136 435.686 509.488 441.449 Z" fill="#000000" fill-rule="nonzero" fill-opacity="1" /><path clip-path="url(#clip190)" d="M567.96 429.482 L567.96 431.565 L558.863 440.662 L556.085 437.885 L561.478 432.491 L533.261 432.491 L533.261 428.556 L561.478 428.556 L556.085 423.163 L558.863 420.385 L567.96 429.482 Z" fill="#000000" fill-rule="nonzero" fill-opacity="1" /><path clip-path="url(#clip190)" d="M575.39 410.825 L593.747 410.825 L593.747 414.76 L579.673 414.76 L579.673 423.232 Q580.691 422.885 581.71 422.723 Q582.728 422.538 583.747 422.538 Q589.534 422.538 592.913 425.709 Q596.293 428.88 596.293 434.297 Q596.293 439.875 592.821 442.977 Q589.349 446.056 583.029 446.056 Q580.853 446.056 578.585 445.686 Q576.339 445.315 573.932 444.574 L573.932 439.875 Q576.015 441.01 578.237 441.565 Q580.46 442.121 582.937 442.121 Q586.941 442.121 589.279 440.014 Q591.617 437.908 591.617 434.297 Q591.617 430.686 589.279 428.579 Q586.941 426.473 582.937 426.473 Q581.062 426.473 579.187 426.889 Q577.335 427.306 575.39 428.186 L575.39 410.825 Z" fill="#000000" fill-rule="nonzero" fill-opacity="1" /><path clip-path="url(#clip190)" d="M1514.07 664.132 L1514.07 659.872 Q1515.83 660.706 1517.63 661.145 Q1519.44 661.585 1521.18 661.585 Q1525.81 661.585 1528.24 658.483 Q1530.69 655.358 1531.04 649.016 Q1529.69 651.007 1527.63 652.071 Q1525.57 653.136 1523.07 653.136 Q1517.89 653.136 1514.86 650.011 Q1511.85 646.863 1511.85 641.423 Q1511.85 636.099 1515 632.882 Q1518.14 629.664 1523.37 629.664 Q1529.37 629.664 1532.52 634.271 Q1535.69 638.854 1535.69 647.604 Q1535.69 655.775 1531.8 660.659 Q1527.94 665.52 1521.38 665.52 Q1519.62 665.52 1517.82 665.173 Q1516.01 664.826 1514.07 664.132 M1523.37 649.479 Q1526.52 649.479 1528.35 647.326 Q1530.2 645.173 1530.2 641.423 Q1530.2 637.696 1528.35 635.544 Q1526.52 633.368 1523.37 633.368 Q1520.23 633.368 1518.37 635.544 Q1516.55 637.696 1516.55 641.423 Q1516.55 645.173 1518.37 647.326 Q1520.23 649.479 1523.37 649.479 Z" fill="#8675d9" fill-rule="nonzero" fill-opacity="1" /><path clip-path="url(#clip190)" d="M1548.12 660.914 L1564.44 660.914 L1564.44 664.849 L1542.5 664.849 L1542.5 660.914 Q1545.16 658.159 1549.74 653.53 Q1554.35 648.877 1555.53 647.534 Q1557.77 645.011 1558.65 643.275 Q1559.56 641.516 1559.56 639.826 Q1559.56 637.071 1557.61 635.335 Q1555.69 633.599 1552.59 633.599 Q1550.39 633.599 1547.94 634.363 Q1545.5 635.127 1542.73 636.678 L1542.73 631.956 Q1545.55 630.822 1548 630.243 Q1550.46 629.664 1552.5 629.664 Q1557.87 629.664 1561.06 632.349 Q1564.25 635.034 1564.25 639.525 Q1564.25 641.655 1563.44 643.576 Q1562.66 645.474 1560.55 648.067 Q1559.97 648.738 1556.87 651.956 Q1553.77 655.15 1548.12 660.914 Z" fill="#8675d9" fill-rule="nonzero" fill-opacity="1" /><path clip-path="url(#clip190)" d="M1519.32 653.691 L1537.67 653.691 L1537.67 657.627 L1523.6 657.627 L1523.6 666.099 Q1524.62 665.752 1525.64 665.59 Q1526.65 665.404 1527.67 665.404 Q1533.46 665.404 1536.84 668.576 Q1540.22 671.747 1540.22 677.164 Q1540.22 682.742 1536.75 685.844 Q1533.27 688.923 1526.96 688.923 Q1524.78 688.923 1522.51 688.552 Q1520.27 688.182 1517.86 687.441 L1517.86 682.742 Q1519.94 683.877 1522.16 684.432 Q1524.39 684.988 1526.86 684.988 Q1530.87 684.988 1533.21 682.881 Q1535.54 680.775 1535.54 677.164 Q1535.54 673.552 1533.21 671.446 Q1530.87 669.34 1526.86 669.34 Q1524.99 669.34 1523.11 669.756 Q1521.26 670.173 1519.32 671.053 L1519.32 653.691 Z" fill="#2c4bfe" fill-rule="nonzero" fill-opacity="1" /><path clip-path="url(#clip190)" d="M1522.94 681.168 L1511.14 699.617 L1522.94 699.617 L1522.94 681.168 M1521.72 677.094 L1527.6 677.094 L1527.6 699.617 L1532.53 699.617 L1532.53 703.506 L1527.6 703.506 L1527.6 711.654 L1522.94 711.654 L1522.94 703.506 L1507.34 703.506 L1507.34 698.992 L1521.72 677.094 Z" fill="#5abac1" fill-rule="nonzero" fill-opacity="1" /><path clip-path="url(#clip190)" d="M1505.48 731.121 L1521.8 731.121 L1521.8 735.056 L1499.86 735.056 L1499.86 731.121 Q1502.52 728.366 1507.1 723.737 Q1511.71 719.084 1512.89 717.742 Q1515.14 715.218 1516.01 713.482 Q1516.92 711.723 1516.92 710.033 Q1516.92 707.279 1514.97 705.542 Q1513.05 703.806 1509.95 703.806 Q1507.75 703.806 1505.3 704.57 Q1502.87 705.334 1500.09 706.885 L1500.09 702.163 Q1502.91 701.029 1505.37 700.45 Q1507.82 699.871 1509.86 699.871 Q1515.23 699.871 1518.42 702.556 Q1521.62 705.242 1521.62 709.732 Q1521.62 711.862 1520.81 713.783 Q1520.02 715.681 1517.91 718.274 Q1517.33 718.945 1514.23 722.163 Q1511.13 725.357 1505.48 731.121 Z" fill="#9d4751" fill-rule="nonzero" fill-opacity="1" /><path clip-path="url(#clip190)" d="M1556.35 1010.02 Q1553.02 1010.02 1551.1 1011.81 Q1549.2 1013.59 1549.2 1016.71 Q1549.2 1019.84 1551.1 1021.62 Q1553.02 1023.4 1556.35 1023.4 Q1559.69 1023.4 1561.61 1021.62 Q1563.53 1019.82 1563.53 1016.71 Q1563.53 1013.59 1561.61 1011.81 Q1559.71 1010.02 1556.35 1010.02 M1551.68 1008.03 Q1548.67 1007.29 1546.98 1005.23 Q1545.31 1003.17 1545.31 1000.21 Q1545.31 996.065 1548.25 993.658 Q1551.21 991.251 1556.35 991.251 Q1561.51 991.251 1564.45 993.658 Q1567.39 996.065 1567.39 1000.21 Q1567.39 1003.17 1565.7 1005.23 Q1564.04 1007.29 1561.05 1008.03 Q1564.43 1008.82 1566.31 1011.11 Q1568.2 1013.4 1568.2 1016.71 Q1568.2 1021.74 1565.13 1024.42 Q1562.07 1027.11 1556.35 1027.11 Q1550.63 1027.11 1547.56 1024.42 Q1544.5 1021.74 1544.5 1016.71 Q1544.5 1013.4 1546.4 1011.11 Q1548.3 1008.82 1551.68 1008.03 M1549.96 1000.65 Q1549.96 1003.33 1551.63 1004.84 Q1553.32 1006.34 1556.35 1006.34 Q1559.36 1006.34 1561.05 1004.84 Q1562.76 1003.33 1562.76 1000.65 Q1562.76 997.964 1561.05 996.459 Q1559.36 994.954 1556.35 994.954 Q1553.32 994.954 1551.63 996.459 Q1549.96 997.964 1549.96 1000.65 Z" fill="#8675d9" fill-rule="nonzero" fill-opacity="1" /><path clip-path="url(#clip190)" d="M1564.94 1069.31 L1572.58 1069.31 L1572.58 1042.94 L1564.27 1044.61 L1564.27 1040.35 L1572.54 1038.68 L1577.21 1038.68 L1577.21 1069.31 L1584.85 1069.31 L1584.85 1073.24 L1564.94 1073.24 L1564.94 1069.31 Z" fill="#5abac1" fill-rule="nonzero" fill-opacity="1" /><path clip-path="url(#clip190)" d="M2054.35 1156.21 Q2051.02 1156.21 2049.09 1157.99 Q2047.2 1159.78 2047.2 1162.9 Q2047.2 1166.03 2049.09 1167.81 Q2051.02 1169.59 2054.35 1169.59 Q2057.68 1169.59 2059.6 1167.81 Q2061.52 1166 2061.52 1162.9 Q2061.52 1159.78 2059.6 1157.99 Q2057.71 1156.21 2054.35 1156.21 M2049.67 1154.22 Q2046.66 1153.48 2044.97 1151.42 Q2043.31 1149.36 2043.31 1146.4 Q2043.31 1142.25 2046.25 1139.85 Q2049.21 1137.44 2054.35 1137.44 Q2059.51 1137.44 2062.45 1139.85 Q2065.39 1142.25 2065.39 1146.4 Q2065.39 1149.36 2063.7 1151.42 Q2062.03 1153.48 2059.05 1154.22 Q2062.43 1155.01 2064.3 1157.3 Q2066.2 1159.59 2066.2 1162.9 Q2066.2 1167.92 2063.12 1170.61 Q2060.07 1173.29 2054.35 1173.29 Q2048.63 1173.29 2045.55 1170.61 Q2042.5 1167.92 2042.5 1162.9 Q2042.5 1159.59 2044.4 1157.3 Q2046.29 1155.01 2049.67 1154.22 M2047.96 1146.84 Q2047.96 1149.52 2049.63 1151.03 Q2051.32 1152.53 2054.35 1152.53 Q2057.36 1152.53 2059.05 1151.03 Q2060.76 1149.52 2060.76 1146.84 Q2060.76 1144.15 2059.05 1142.65 Q2057.36 1141.14 2054.35 1141.14 Q2051.32 1141.14 2049.63 1142.65 Q2047.96 1144.15 2047.96 1146.84 Z" fill="#9d4751" fill-rule="nonzero" fill-opacity="1" /><path clip-path="url(#clip190)" d="M1996.95 466.223 L2015.31 466.223 L2015.31 470.159 L2001.24 470.159 L2001.24 478.631 Q2002.26 478.284 2003.27 478.122 Q2004.29 477.936 2005.31 477.936 Q2011.1 477.936 2014.48 481.108 Q2017.86 484.279 2017.86 489.696 Q2017.86 495.274 2014.39 498.376 Q2010.91 501.455 2004.59 501.455 Q2002.42 501.455 2000.15 501.084 Q1997.9 500.714 1995.5 499.973 L1995.5 495.274 Q1997.58 496.408 1999.8 496.964 Q2002.02 497.52 2004.5 497.52 Q2008.51 497.52 2010.84 495.413 Q2013.18 493.307 2013.18 489.696 Q2013.18 486.084 2010.84 483.978 Q2008.51 481.872 2004.5 481.872 Q2002.63 481.872 2000.75 482.288 Q1998.9 482.705 1996.95 483.584 L1996.95 466.223 Z" fill="#2c4bfe" fill-rule="nonzero" fill-opacity="1" /><path clip-path="url(#clip190)" d="M2020.79 451.76 L2039.15 451.76 L2039.15 455.695 L2025.07 455.695 L2025.07 464.167 Q2026.09 463.82 2027.11 463.658 Q2028.13 463.473 2029.15 463.473 Q2034.93 463.473 2038.31 466.644 Q2041.69 469.815 2041.69 475.232 Q2041.69 480.811 2038.22 483.913 Q2034.75 486.991 2028.43 486.991 Q2026.25 486.991 2023.99 486.621 Q2021.74 486.251 2019.33 485.51 L2019.33 480.811 Q2021.42 481.945 2023.64 482.501 Q2025.86 483.056 2028.34 483.056 Q2032.34 483.056 2034.68 480.95 Q2037.02 478.843 2037.02 475.232 Q2037.02 471.621 2034.68 469.515 Q2032.34 467.408 2028.34 467.408 Q2026.46 467.408 2024.59 467.825 Q2022.74 468.241 2020.79 469.121 L2020.79 451.76 Z" fill="#5abac1" fill-rule="nonzero" fill-opacity="1" /><path clip-path="url(#clip190)" d="M2029.04 467.921 L2036.68 467.921 L2036.68 441.556 L2028.37 443.222 L2028.37 438.963 L2036.63 437.297 L2041.31 437.297 L2041.31 467.921 L2048.94 467.921 L2048.94 471.857 L2029.04 471.857 L2029.04 467.921 Z" fill="#9d4751" fill-rule="nonzero" fill-opacity="1" /><path clip-path="url(#clip190)" d="M2068.39 440.375 Q2064.78 440.375 2062.95 443.94 Q2061.14 447.482 2061.14 454.611 Q2061.14 461.718 2062.95 465.282 Q2064.78 468.824 2068.39 468.824 Q2072.02 468.824 2073.83 465.282 Q2075.66 461.718 2075.66 454.611 Q2075.66 447.482 2073.83 443.94 Q2072.02 440.375 2068.39 440.375 M2068.39 436.672 Q2074.2 436.672 2077.25 441.278 Q2080.33 445.861 2080.33 454.611 Q2080.33 463.338 2077.25 467.945 Q2074.2 472.528 2068.39 472.528 Q2062.58 472.528 2059.5 467.945 Q2056.44 463.338 2056.44 454.611 Q2056.44 445.861 2059.5 441.278 Q2062.58 436.672 2068.39 436.672 Z" fill="#9d4751" fill-rule="nonzero" fill-opacity="1" /><path clip-path="url(#clip190)" d="M1286.6 395.004 L1286.6 390.745 Q1288.36 391.578 1290.17 392.018 Q1291.97 392.458 1293.71 392.458 Q1298.34 392.458 1300.77 389.356 Q1303.22 386.231 1303.57 379.889 Q1302.23 381.879 1300.17 382.944 Q1298.11 384.009 1295.61 384.009 Q1290.42 384.009 1287.39 380.884 Q1284.38 377.736 1284.38 372.296 Q1284.38 366.972 1287.53 363.754 Q1290.68 360.537 1295.91 360.537 Q1301.9 360.537 1305.05 365.143 Q1308.22 369.727 1308.22 378.477 Q1308.22 386.648 1304.33 391.532 Q1300.47 396.393 1293.92 396.393 Q1292.16 396.393 1290.35 396.046 Q1288.55 395.699 1286.6 395.004 M1295.91 380.352 Q1299.06 380.352 1300.88 378.199 Q1302.74 376.046 1302.74 372.296 Q1302.74 368.569 1300.88 366.416 Q1299.06 364.241 1295.91 364.241 Q1292.76 364.241 1290.91 366.416 Q1289.08 368.569 1289.08 372.296 Q1289.08 376.046 1290.91 378.199 Q1292.76 380.352 1295.91 380.352 Z" fill="#2c4bfe" fill-rule="nonzero" fill-opacity="1" /><path clip-path="url(#clip190)" d="M1316.67 361.162 L1335.03 361.162 L1335.03 365.097 L1320.95 365.097 L1320.95 373.569 Q1321.97 373.222 1322.99 373.06 Q1324.01 372.875 1325.03 372.875 Q1330.82 372.875 1334.19 376.046 Q1337.57 379.217 1337.57 384.634 Q1337.57 390.213 1334.1 393.314 Q1330.63 396.393 1324.31 396.393 Q1322.13 396.393 1319.87 396.023 Q1317.62 395.652 1315.21 394.912 L1315.21 390.213 Q1317.3 391.347 1319.52 391.902 Q1321.74 392.458 1324.22 392.458 Q1328.22 392.458 1330.56 390.352 Q1332.9 388.245 1332.9 384.634 Q1332.9 381.023 1330.56 378.916 Q1328.22 376.81 1324.22 376.81 Q1322.34 376.81 1320.47 377.227 Q1318.62 377.643 1316.67 378.523 L1316.67 361.162 Z" fill="#2c4bfe" fill-rule="nonzero" fill-opacity="1" /><path clip-path="url(#clip190)" d="M1310.36 384.564 L1328.72 384.564 L1328.72 388.499 L1314.64 388.499 L1314.64 396.972 Q1315.66 396.624 1316.68 396.462 Q1317.7 396.277 1318.72 396.277 Q1324.5 396.277 1327.88 399.448 Q1331.26 402.62 1331.26 408.036 Q1331.26 413.615 1327.79 416.717 Q1324.32 419.796 1318 419.796 Q1315.82 419.796 1313.55 419.425 Q1311.31 419.055 1308.9 418.314 L1308.9 413.615 Q1310.98 414.749 1313.21 415.305 Q1315.43 415.86 1317.91 415.86 Q1321.91 415.86 1324.25 413.754 Q1326.59 411.647 1326.59 408.036 Q1326.59 404.425 1324.25 402.319 Q1321.91 400.212 1317.91 400.212 Q1316.03 400.212 1314.16 400.629 Q1312.3 401.046 1310.36 401.925 L1310.36 384.564 Z" fill="#5abac1" fill-rule="nonzero" fill-opacity="1" /><path clip-path="url(#clip190)" d="M1318.08 407.967 L1340.3 407.967 L1340.3 409.957 L1327.75 442.527 L1322.87 442.527 L1334.67 411.902 L1318.08 411.902 L1318.08 407.967 Z" fill="#9d4751" fill-rule="nonzero" fill-opacity="1" /><path clip-path="url(#clip190)" d="M1339.4 753.176 L1339.4 748.917 Q1341.16 749.751 1342.97 750.19 Q1344.77 750.63 1346.51 750.63 Q1351.14 750.63 1353.57 747.528 Q1356.02 744.403 1356.37 738.061 Q1355.03 740.051 1352.97 741.116 Q1350.91 742.181 1348.41 742.181 Q1343.22 742.181 1340.19 739.056 Q1337.18 735.908 1337.18 730.468 Q1337.18 725.144 1340.33 721.927 Q1343.48 718.709 1348.71 718.709 Q1354.7 718.709 1357.85 723.315 Q1361.02 727.899 1361.02 736.649 Q1361.02 744.82 1357.13 749.704 Q1353.27 754.565 1346.72 754.565 Q1344.96 754.565 1343.15 754.218 Q1341.35 753.871 1339.4 753.176 M1348.71 738.524 Q1351.86 738.524 1353.69 736.371 Q1355.54 734.218 1355.54 730.468 Q1355.54 726.741 1353.69 724.589 Q1351.86 722.413 1348.71 722.413 Q1345.56 722.413 1343.71 724.589 Q1341.88 726.741 1341.88 730.468 Q1341.88 734.218 1343.71 736.371 Q1345.56 738.524 1348.71 738.524 Z" fill="#5abac1" fill-rule="nonzero" fill-opacity="1" /><path clip-path="url(#clip190)" d="M1379.43 722.413 Q1375.82 722.413 1373.99 725.977 Q1372.18 729.519 1372.18 736.649 Q1372.18 743.755 1373.99 747.32 Q1375.82 750.862 1379.43 750.862 Q1383.06 750.862 1384.87 747.32 Q1386.7 743.755 1386.7 736.649 Q1386.7 729.519 1384.87 725.977 Q1383.06 722.413 1379.43 722.413 M1379.43 718.709 Q1385.24 718.709 1388.29 723.315 Q1391.37 727.899 1391.37 736.649 Q1391.37 745.376 1388.29 749.982 Q1385.24 754.565 1379.43 754.565 Q1373.62 754.565 1370.54 749.982 Q1367.48 745.376 1367.48 736.649 Q1367.48 727.899 1370.54 723.315 Q1373.62 718.709 1379.43 718.709 Z" fill="#5abac1" fill-rule="nonzero" fill-opacity="1" /><path clip-path="url(#clip190)" d="M1807.57 805.828 Q1804.24 805.828 1802.32 807.61 Q1800.42 809.393 1800.42 812.518 Q1800.42 815.643 1802.32 817.425 Q1804.24 819.208 1807.57 819.208 Q1810.91 819.208 1812.83 817.425 Q1814.75 815.62 1814.75 812.518 Q1814.75 809.393 1812.83 807.61 Q1810.93 805.828 1807.57 805.828 M1802.9 803.837 Q1799.89 803.097 1798.2 801.036 Q1796.53 798.976 1796.53 796.013 Q1796.53 791.87 1799.47 789.462 Q1802.43 787.055 1807.57 787.055 Q1812.74 787.055 1815.68 789.462 Q1818.62 791.87 1818.62 796.013 Q1818.62 798.976 1816.93 801.036 Q1815.26 803.097 1812.27 803.837 Q1815.65 804.624 1817.53 806.916 Q1819.43 809.208 1819.43 812.518 Q1819.43 817.541 1816.35 820.226 Q1813.29 822.911 1807.57 822.911 Q1801.86 822.911 1798.78 820.226 Q1795.72 817.541 1795.72 812.518 Q1795.72 809.208 1797.62 806.916 Q1799.52 804.624 1802.9 803.837 M1801.18 796.453 Q1801.18 799.138 1802.85 800.643 Q1804.54 802.148 1807.57 802.148 Q1810.58 802.148 1812.27 800.643 Q1813.99 799.138 1813.99 796.453 Q1813.99 793.768 1812.27 792.263 Q1810.58 790.759 1807.57 790.759 Q1804.54 790.759 1802.85 792.263 Q1801.18 793.768 1801.18 796.453 Z" fill="#9d4751" fill-rule="nonzero" fill-opacity="1" /><path clip-path="url(#clip190)" d="M1841.9 803.606 Q1845.26 804.323 1847.13 806.592 Q1849.03 808.86 1849.03 812.194 Q1849.03 817.309 1845.51 820.11 Q1841.99 822.911 1835.51 822.911 Q1833.34 822.911 1831.02 822.471 Q1828.73 822.055 1826.28 821.198 L1826.28 816.684 Q1828.22 817.819 1830.54 818.397 Q1832.85 818.976 1835.37 818.976 Q1839.77 818.976 1842.06 817.24 Q1844.38 815.504 1844.38 812.194 Q1844.38 809.138 1842.23 807.425 Q1840.1 805.689 1836.28 805.689 L1832.25 805.689 L1832.25 801.847 L1836.46 801.847 Q1839.91 801.847 1841.74 800.481 Q1843.57 799.092 1843.57 796.499 Q1843.57 793.837 1841.67 792.425 Q1839.8 790.99 1836.28 790.99 Q1834.36 790.99 1832.16 791.407 Q1829.96 791.823 1827.32 792.703 L1827.32 788.536 Q1829.98 787.796 1832.3 787.425 Q1834.63 787.055 1836.69 787.055 Q1842.02 787.055 1845.12 789.486 Q1848.22 791.893 1848.22 796.013 Q1848.22 798.884 1846.58 800.874 Q1844.93 802.842 1841.9 803.606 Z" fill="#9d4751" fill-rule="nonzero" fill-opacity="1" /><path clip-path="url(#clip190)" d="M886.4 821.522 L886.4 817.263 Q888.159 818.097 889.965 818.536 Q891.77 818.976 893.507 818.976 Q898.136 818.976 900.567 815.874 Q903.02 812.749 903.368 806.407 Q902.025 808.397 899.965 809.462 Q897.905 810.527 895.405 810.527 Q890.22 810.527 887.187 807.402 Q884.178 804.254 884.178 798.814 Q884.178 793.49 887.326 790.273 Q890.474 787.055 895.706 787.055 Q901.701 787.055 904.849 791.661 Q908.02 796.245 908.02 804.995 Q908.02 813.166 904.131 818.05 Q900.266 822.911 893.715 822.911 Q891.956 822.911 890.15 822.564 Q888.345 822.217 886.4 821.522 M895.706 806.87 Q898.854 806.87 900.682 804.717 Q902.534 802.564 902.534 798.814 Q902.534 795.087 900.682 792.935 Q898.854 790.759 895.706 790.759 Q892.557 790.759 890.706 792.935 Q888.877 795.087 888.877 798.814 Q888.877 802.564 890.706 804.717 Q892.557 806.87 895.706 806.87 Z" fill="#8675d9" fill-rule="nonzero" fill-opacity="1" /><path clip-path="url(#clip190)" d="M920.451 818.305 L936.77 818.305 L936.77 822.24 L914.826 822.24 L914.826 818.305 Q917.488 815.55 922.071 810.921 Q926.678 806.268 927.858 804.925 Q930.104 802.402 930.983 800.666 Q931.886 798.907 931.886 797.217 Q931.886 794.462 929.942 792.726 Q928.02 790.99 924.918 790.99 Q922.719 790.99 920.266 791.754 Q917.835 792.518 915.057 794.069 L915.057 789.347 Q917.881 788.212 920.335 787.634 Q922.789 787.055 924.826 787.055 Q930.196 787.055 933.391 789.74 Q936.585 792.425 936.585 796.916 Q936.585 799.046 935.775 800.967 Q934.988 802.865 932.881 805.458 Q932.303 806.129 929.201 809.347 Q926.099 812.541 920.451 818.305 Z" fill="#8675d9" fill-rule="nonzero" fill-opacity="1" /><path clip-path="url(#clip190)" d="M959.701 821.522 L959.701 817.263 Q961.46 818.097 963.266 818.536 Q965.071 818.976 966.807 818.976 Q971.437 818.976 973.867 815.874 Q976.321 812.749 976.668 806.407 Q975.326 808.397 973.266 809.462 Q971.205 810.527 968.705 810.527 Q963.52 810.527 960.488 807.402 Q957.479 804.254 957.479 798.814 Q957.479 793.49 960.627 790.273 Q963.775 787.055 969.006 787.055 Q975.002 787.055 978.15 791.661 Q981.321 796.245 981.321 804.995 Q981.321 813.166 977.432 818.05 Q973.567 822.911 967.016 822.911 Q965.256 822.911 963.451 822.564 Q961.645 822.217 959.701 821.522 M969.006 806.87 Q972.155 806.87 973.983 804.717 Q975.835 802.564 975.835 798.814 Q975.835 795.087 973.983 792.935 Q972.155 790.759 969.006 790.759 Q965.858 790.759 964.006 792.935 Q962.178 795.087 962.178 798.814 Q962.178 802.564 964.006 804.717 Q965.858 806.87 969.006 806.87 Z" fill="#5abac1" fill-rule="nonzero" fill-opacity="1" /><path clip-path="url(#clip190)" d="M1378.41 875.405 L1378.41 871.146 Q1380.17 871.979 1381.98 872.419 Q1383.78 872.859 1385.52 872.859 Q1390.15 872.859 1392.58 869.757 Q1395.03 866.632 1395.38 860.289 Q1394.04 862.28 1391.98 863.345 Q1389.92 864.41 1387.42 864.41 Q1382.23 864.41 1379.2 861.285 Q1376.19 858.137 1376.19 852.697 Q1376.19 847.373 1379.34 844.155 Q1382.49 840.938 1387.72 840.938 Q1393.71 840.938 1396.86 845.544 Q1400.03 850.127 1400.03 858.877 Q1400.03 867.049 1396.14 871.933 Q1392.28 876.794 1385.73 876.794 Q1383.97 876.794 1382.16 876.447 Q1380.36 876.099 1378.41 875.405 M1387.72 860.752 Q1390.87 860.752 1392.7 858.599 Q1394.55 856.447 1394.55 852.697 Q1394.55 848.97 1392.7 846.817 Q1390.87 844.641 1387.72 844.641 Q1384.57 844.641 1382.72 846.817 Q1380.89 848.97 1380.89 852.697 Q1380.89 856.447 1382.72 858.599 Q1384.57 860.752 1387.72 860.752 Z" fill="#9d4751" fill-rule="nonzero" fill-opacity="1" /><path clip-path="url(#clip190)" d="M2196.65 828.313 L2210.02 828.313 L2210.02 782.174 L2195.48 785.09 L2195.48 777.637 L2209.94 774.72 L2218.12 774.72 L2218.12 828.313 L2231.49 828.313 L2231.49 835.2 L2196.65 835.2 L2196.65 828.313 Z" fill="#000000" fill-rule="nonzero" fill-opacity="1" /><path clip-path="url(#clip190)" d="M1695.17 243.254 L1723.73 243.254 L1723.73 250.141 L1685.32 250.141 L1685.32 243.254 Q1689.98 238.434 1698 230.332 Q1706.06 222.19 1708.13 219.84 Q1712.06 215.425 1713.6 212.386 Q1715.18 209.308 1715.18 206.35 Q1715.18 201.53 1711.78 198.492 Q1708.41 195.454 1702.99 195.454 Q1699.14 195.454 1694.84 196.79 Q1690.59 198.127 1685.73 200.841 L1685.73 192.577 Q1690.67 190.592 1694.96 189.58 Q1699.26 188.567 1702.82 188.567 Q1712.22 188.567 1717.81 193.266 Q1723.4 197.965 1723.4 205.824 Q1723.4 209.551 1721.98 212.913 Q1720.61 216.235 1716.92 220.772 Q1715.91 221.946 1710.48 227.577 Q1705.05 233.167 1695.17 243.254 Z" fill="#000000" fill-rule="nonzero" fill-opacity="1" /><path clip-path="url(#clip190)" d="M888.445 441.004 Q894.318 442.26 897.6 446.229 Q900.921 450.199 900.921 456.033 Q900.921 464.985 894.764 469.887 Q888.607 474.788 877.264 474.788 Q873.456 474.788 869.405 474.019 Q865.395 473.289 861.101 471.791 L861.101 463.891 Q864.504 465.876 868.555 466.889 Q872.605 467.902 877.021 467.902 Q884.718 467.902 888.728 464.864 Q892.779 461.825 892.779 456.033 Q892.779 450.685 889.012 447.688 Q885.285 444.65 878.601 444.65 L871.552 444.65 L871.552 437.925 L878.925 437.925 Q884.961 437.925 888.161 435.535 Q891.361 433.104 891.361 428.567 Q891.361 423.909 888.039 421.438 Q884.758 418.926 878.601 418.926 Q875.239 418.926 871.39 419.655 Q867.542 420.385 862.924 421.924 L862.924 414.632 Q867.582 413.336 871.633 412.688 Q875.725 412.04 879.33 412.04 Q888.647 412.04 894.075 416.293 Q899.503 420.506 899.503 427.717 Q899.503 432.74 896.627 436.224 Q893.751 439.667 888.445 441.004 Z" fill="#000000" fill-rule="nonzero" fill-opacity="1" /><path clip-path="url(#clip190)" d="M886.277 1143.44 L865.618 1175.72 L886.277 1175.72 L886.277 1143.44 M884.13 1136.31 L894.42 1136.31 L894.42 1175.72 L903.048 1175.72 L903.048 1182.53 L894.42 1182.53 L894.42 1196.79 L886.277 1196.79 L886.277 1182.53 L858.974 1182.53 L858.974 1174.63 L884.13 1136.31 Z" fill="#000000" fill-rule="nonzero" fill-opacity="1" /><path clip-path="url(#clip190)" d="M1687.51 1359.78 L1719.63 1359.78 L1719.63 1366.67 L1695.01 1366.67 L1695.01 1381.49 Q1696.79 1380.88 1698.57 1380.6 Q1700.35 1380.28 1702.14 1380.28 Q1712.26 1380.28 1718.18 1385.83 Q1724.09 1391.38 1724.09 1400.86 Q1724.09 1410.62 1718.01 1416.05 Q1711.94 1421.43 1700.88 1421.43 Q1697.07 1421.43 1693.1 1420.79 Q1689.17 1420.14 1684.96 1418.84 L1684.96 1410.62 Q1688.61 1412.6 1692.49 1413.58 Q1696.38 1414.55 1700.72 1414.55 Q1707.73 1414.55 1711.82 1410.86 Q1715.91 1407.17 1715.91 1400.86 Q1715.91 1394.54 1711.82 1390.85 Q1707.73 1387.16 1700.72 1387.16 Q1697.44 1387.16 1694.15 1387.89 Q1690.91 1388.62 1687.51 1390.16 L1687.51 1359.78 Z" fill="#000000" fill-rule="nonzero" fill-opacity="1" /></svg>
