<?xml version="1.0" encoding="utf-8"?>
<svg xmlns="http://www.w3.org/2000/svg" xmlns:xlink="http://www.w3.org/1999/xlink" width="600" height="400" viewBox="0 0 2400 1600">
<defs>
  <clipPath id="clip070">
    <rect x="0" y="0" width="2400" height="1600"/>
  </clipPath>
</defs>
<path clip-path="url(#clip070)" d="M0 1600 L2400 1600 L2400 0 L0 0  Z" fill="#ffffff" fill-rule="evenodd" fill-opacity="1"/>
<defs>
  <clipPath id="clip071">
    <rect x="480" y="0" width="1681" height="1600"/>
  </clipPath>
</defs>
<path clip-path="url(#clip070)" d="M447.244 1552.76 L1952.76 1552.76 L1952.76 47.2441 L447.244 47.2441  Z" fill="#ffffff" fill-rule="evenodd" fill-opacity="1"/>
<defs>
  <clipPath id="clip072">
    <rect x="447" y="47" width="1507" height="1507"/>
  </clipPath>
</defs>
<polyline clip-path="url(#clip072)" style="stroke:#000000; stroke-linecap:round; stroke-linejoin:round; stroke-width:4; stroke-opacity:1; fill:none" points="1717.84,812.805 1731.39,815.067 1744.88,817.292 1758.24,819.442 1771.41,821.481 1784.32,823.371 1796.92,825.075 1809.15,826.556 1820.93,827.776 1832.21,828.699 1842.92,829.287 1853,829.504 1862.38,829.311 1871.02,828.677 1878.88,827.615 1885.99,826.163 1892.35,824.357 1897.97,822.236 1902.86,819.835 1907.02,817.193 1910.47,814.346 1913.21,811.331 1915.26,808.187 1916.61,804.949 1917.29,801.656 1917.29,798.344 1916.61,795.051 1915.26,791.813 1913.21,788.669 1910.47,785.654 1907.02,782.807 1902.86,780.165 1897.97,777.764 1892.35,775.643 1885.99,773.837 1878.88,772.385 1871.02,771.323 1862.38,770.689 1853,770.496 1842.92,770.713 1832.21,771.301 1820.93,772.224 1809.15,773.444 1796.92,774.925 1784.32,776.629 1771.41,778.519 1758.24,780.558 1744.88,782.708 1731.39,784.933 1717.84,787.195 "/>
<polyline clip-path="url(#clip072)" style="stroke:#000000; stroke-linecap:round; stroke-linejoin:round; stroke-width:4; stroke-opacity:1; fill:none" points="1756.32,799.021 1717.84,787.195 1750.39,763.512 "/>
<polyline clip-path="url(#clip072)" style="stroke:#000000; stroke-linecap:round; stroke-linejoin:round; stroke-width:4; stroke-opacity:1; fill:none" points="1717.84,787.195 1731.39,784.933 "/>
<polyline clip-path="url(#clip072)" style="stroke:#000000; stroke-linecap:round; stroke-linejoin:round; stroke-width:4; stroke-opacity:1; fill:none" points="746.533,346.533 770.468,346.343 794.382,346.182 818.254,346.077 842.062,346.057 865.786,346.15 889.403,346.384 912.894,346.788 936.236,347.39 959.409,348.217 982.391,349.299 1005.16,350.664 1027.7,352.339 1049.98,354.354 1071.99,356.735 1093.7,359.513 1115.09,362.714 1136.15,366.367 1156.84,370.501 1177.16,375.143 1197.07,380.322 1216.56,386.066 1235.6,392.404 1254.17,399.363 1272.26,406.972 1289.85,415.258 1306.92,424.221 1323.51,433.834 1339.63,444.068 1355.3,454.896 1370.56,466.289 1385.41,478.219 1399.88,490.657 1413.99,503.576 1427.76,516.947 1441.21,530.742 1454.36,544.932 1467.24,559.49 1479.87,574.387 1492.26,589.594 1504.45,605.084 1516.44,620.829 1528.26,636.799 1539.93,652.967 1551.48,669.305 1562.92,685.784 1574.27,702.376 1585.57,719.053 1596.81,735.786 1608.04,752.548 "/>
<polyline clip-path="url(#clip072)" style="stroke:#000000; stroke-linecap:round; stroke-linejoin:round; stroke-width:4; stroke-opacity:1; fill:none" points="1602.96,712.621 1608.04,752.548 1573.05,732.657 "/>
<polyline clip-path="url(#clip072)" style="stroke:#000000; stroke-linecap:round; stroke-linejoin:round; stroke-width:4; stroke-opacity:1; fill:none" points="1608.04,752.548 1596.81,735.786 "/>
<polyline clip-path="url(#clip072)" style="stroke:#000000; stroke-linecap:round; stroke-linejoin:round; stroke-width:4; stroke-opacity:1; fill:none" points="746.533,346.533 757.383,365.663 768.199,384.787 778.946,403.898 789.59,422.991 800.095,442.059 810.428,461.096 820.554,480.096 830.438,499.052 840.047,517.958 849.344,536.808 858.296,555.596 866.869,574.316 875.028,592.961 882.738,611.525 889.964,630.002 896.673,648.385 902.83,666.67 908.4,684.848 913.349,702.914 917.642,720.863 921.244,738.686 924.122,756.379 926.241,773.936 927.566,791.349 928.064,808.613 927.735,825.728 926.612,842.7 924.73,859.535 922.123,876.24 918.825,892.82 914.872,909.282 910.298,925.632 905.137,941.876 899.424,958.021 893.193,974.072 886.479,990.036 879.316,1005.92 871.739,1021.73 863.783,1037.47 855.481,1053.15 846.869,1068.77 837.98,1084.34 828.85,1099.87 819.513,1115.36 810.003,1130.82 800.355,1146.26 790.604,1161.67 780.784,1177.08 770.929,1192.48 "/>
<polyline clip-path="url(#clip072)" style="stroke:#000000; stroke-linecap:round; stroke-linejoin:round; stroke-width:4; stroke-opacity:1; fill:none" points="805.496,1171.86 770.929,1192.48 775.174,1152.45 "/>
<polyline clip-path="url(#clip072)" style="stroke:#000000; stroke-linecap:round; stroke-linejoin:round; stroke-width:4; stroke-opacity:1; fill:none" points="770.929,1192.48 780.784,1177.08 "/>
<polyline clip-path="url(#clip072)" style="stroke:#000000; stroke-linecap:round; stroke-linejoin:round; stroke-width:4; stroke-opacity:1; fill:none" points="746.533,1253.47 735.682,1234.34 724.866,1215.21 714.119,1196.1 703.475,1177.01 692.97,1157.94 682.637,1138.9 672.511,1119.9 662.627,1100.95 653.019,1082.04 643.721,1063.19 634.769,1044.4 626.196,1025.68 618.037,1007.04 610.328,988.475 603.101,969.998 596.392,951.615 590.235,933.33 584.665,915.152 579.717,897.086 575.424,879.137 571.821,861.314 568.943,843.621 566.824,826.064 565.5,808.651 565.002,791.387 565.331,774.272 566.454,757.3 568.336,740.465 570.943,723.76 574.24,707.18 578.193,690.718 582.767,674.368 587.928,658.124 593.641,641.979 599.872,625.928 606.586,609.964 613.749,594.08 621.326,578.271 629.282,562.531 637.584,546.853 646.197,531.231 655.085,515.659 664.215,500.13 673.552,484.638 683.062,469.178 692.71,453.743 702.461,438.326 712.281,422.922 722.136,407.523 "/>
<polyline clip-path="url(#clip072)" style="stroke:#000000; stroke-linecap:round; stroke-linejoin:round; stroke-width:4; stroke-opacity:1; fill:none" points="687.569,428.142 722.136,407.523 717.891,447.548 "/>
<polyline clip-path="url(#clip072)" style="stroke:#000000; stroke-linecap:round; stroke-linejoin:round; stroke-width:4; stroke-opacity:1; fill:none" points="722.136,407.523 712.281,422.922 "/>
<polyline clip-path="url(#clip072)" style="stroke:#000000; stroke-linecap:round; stroke-linejoin:round; stroke-width:4; stroke-opacity:1; fill:none" points="791.274,1205.43 777.668,1220.66 764.163,1235.82 750.861,1250.83 737.863,1265.62 725.27,1280.12 713.183,1294.25 701.704,1307.94 690.935,1321.12 680.976,1333.72 671.928,1345.65 663.894,1356.85 656.974,1367.24 651.258,1376.76 646.727,1385.4 643.311,1393.2 640.936,1400.17 639.53,1406.34 639.019,1411.74 639.332,1416.4 640.396,1420.34 642.139,1423.59 644.486,1426.18 647.367,1428.13 650.708,1429.48 654.437,1430.24 658.485,1430.44 662.79,1430.09 667.287,1429.2 671.912,1427.79 676.602,1425.86 681.293,1423.44 685.922,1420.52 690.424,1417.13 694.737,1413.28 698.796,1408.98 702.538,1404.24 705.9,1399.07 708.848,1393.5 711.412,1387.55 713.625,1381.26 715.524,1374.67 717.143,1367.8 718.517,1360.69 719.681,1353.39 720.67,1345.91 721.519,1338.29 722.263,1330.58 722.937,1322.79 723.576,1314.97 "/>
<polyline clip-path="url(#clip072)" style="stroke:#000000; stroke-linecap:round; stroke-linejoin:round; stroke-width:4; stroke-opacity:1; fill:none" points="702.703,1349.39 723.576,1314.97 738.583,1352.32 "/>
<polyline clip-path="url(#clip072)" style="stroke:#000000; stroke-linecap:round; stroke-linejoin:round; stroke-width:4; stroke-opacity:1; fill:none" points="723.576,1314.97 722.937,1322.79 "/>
<path clip-path="url(#clip072)" d="M1884.29 819.069 L1950.28 819.069 L1950.28 784.243 L1884.29 784.243 L1884.29 819.069 L1884.29 819.069  Z" fill="#ffffff" fill-rule="evenodd" fill-opacity="1"/>
<polyline clip-path="url(#clip072)" style="stroke:#000000; stroke-linecap:round; stroke-linejoin:round; stroke-width:0; stroke-opacity:0; fill:none" points="1884.29,819.069 1950.28,819.069 1950.28,784.243 1884.29,784.243 1884.29,819.069 "/>
<path clip-path="url(#clip072)" d="M1248.13 428.442 L1314.11 428.442 L1314.11 393.616 L1248.13 393.616 L1248.13 428.442 L1248.13 428.442  Z" fill="#ffffff" fill-rule="evenodd" fill-opacity="1"/>
<polyline clip-path="url(#clip072)" style="stroke:#000000; stroke-linecap:round; stroke-linejoin:round; stroke-width:0; stroke-opacity:0; fill:none" points="1248.13,428.442 1314.11,428.442 1314.11,393.616 1248.13,393.616 1248.13,428.442 "/>
<path clip-path="url(#clip072)" d="M894.928 817.413 L960.911 817.413 L960.911 782.587 L894.928 782.587 L894.928 817.413 L894.928 817.413  Z" fill="#ffffff" fill-rule="evenodd" fill-opacity="1"/>
<polyline clip-path="url(#clip072)" style="stroke:#000000; stroke-linecap:round; stroke-linejoin:round; stroke-width:0; stroke-opacity:0; fill:none" points="894.928,817.413 960.911,817.413 960.911,782.587 894.928,782.587 894.928,817.413 "/>
<path clip-path="url(#clip072)" d="M532.154 817.413 L598.137 817.413 L598.137 782.587 L532.154 782.587 L532.154 817.413 L532.154 817.413  Z" fill="#ffffff" fill-rule="evenodd" fill-opacity="1"/>
<polyline clip-path="url(#clip072)" style="stroke:#000000; stroke-linecap:round; stroke-linejoin:round; stroke-width:0; stroke-opacity:0; fill:none" points="532.154,817.413 598.137,817.413 598.137,782.587 532.154,782.587 532.154,817.413 "/>
<path clip-path="url(#clip072)" d="M617.716 1446.89 L683.7 1446.89 L683.7 1412.06 L617.716 1412.06 L617.716 1446.89 L617.716 1446.89  Z" fill="#ffffff" fill-rule="evenodd" fill-opacity="1"/>
<polyline clip-path="url(#clip072)" style="stroke:#000000; stroke-linecap:round; stroke-linejoin:round; stroke-width:0; stroke-opacity:0; fill:none" points="617.716,1446.89 683.7,1446.89 683.7,1412.06 617.716,1412.06 617.716,1446.89 "/>
<path clip-path="url(#clip072)" d="M1719.16 800 L1718.95 794.781 L1718.33 789.595 L1717.3 784.475 L1715.86 779.453 L1714.03 774.56 L1711.82 769.829 L1709.24 765.289 L1706.3 760.967 L1703.03 756.893 L1699.45 753.091 L1695.58 749.586 L1691.44 746.4 L1687.06 743.552 L1682.47 741.061 L1677.7 738.943 L1672.77 737.211 L1667.72 735.876 L1662.58 734.946 L1657.38 734.428 L1652.16 734.324 L1646.95 734.635 L1641.77 735.36 L1636.68 736.493 L1631.68 738.028 L1626.83 739.955 L1622.14 742.261 L1617.65 744.932 L1613.39 747.952 L1609.38 751.3 L1605.65 754.957 L1602.23 758.898 L1599.12 763.099 L1596.36 767.533 L1593.96 772.173 L1591.94 776.988 L1590.31 781.949 L1589.07 787.025 L1588.25 792.182 L1587.83 797.388 L1587.83 802.612 L1588.25 807.818 L1589.07 812.975 L1590.31 818.051 L1591.94 823.012 L1593.96 827.827 L1596.36 832.467 L1599.12 836.901 L1602.23 841.102 L1605.65 845.043 L1609.38 848.7 L1613.39 852.048 L1617.65 855.068 L1622.14 857.739 L1626.83 860.045 L1631.68 861.972 L1636.68 863.507 L1641.77 864.64 L1646.95 865.365 L1652.16 865.676 L1657.38 865.572 L1662.58 865.054 L1667.72 864.124 L1672.77 862.789 L1677.7 861.057 L1682.47 858.939 L1687.06 856.448 L1691.44 853.6 L1695.58 850.414 L1699.45 846.909 L1703.03 843.107 L1706.3 839.033 L1709.24 834.711 L1711.82 830.171 L1714.03 825.44 L1715.86 820.547 L1717.3 815.525 L1718.33 810.405 L1718.95 805.219 L1719.16 800 L1719.16 800  Z" fill="#009af9" fill-rule="evenodd" fill-opacity="1"/>
<polyline clip-path="url(#clip072)" style="stroke:#000000; stroke-linecap:round; stroke-linejoin:round; stroke-width:4; stroke-opacity:1; fill:none" points="1719.16,800 1718.95,794.781 1718.33,789.595 1717.3,784.475 1715.86,779.453 1714.03,774.56 1711.82,769.829 1709.24,765.289 1706.3,760.967 1703.03,756.893 1699.45,753.091 1695.58,749.586 1691.44,746.4 1687.06,743.552 1682.47,741.061 1677.7,738.943 1672.77,737.211 1667.72,735.876 1662.58,734.946 1657.38,734.428 1652.16,734.324 1646.95,734.635 1641.77,735.36 1636.68,736.493 1631.68,738.028 1626.83,739.955 1622.14,742.261 1617.65,744.932 1613.39,747.952 1609.38,751.3 1605.65,754.957 1602.23,758.898 1599.12,763.099 1596.36,767.533 1593.96,772.173 1591.94,776.988 1590.31,781.949 1589.07,787.025 1588.25,792.182 1587.83,797.388 1587.83,802.612 1588.25,807.818 1589.07,812.975 1590.31,818.051 1591.94,823.012 1593.96,827.827 1596.36,832.467 1599.12,836.901 1602.23,841.102 1605.65,845.043 1609.38,848.7 1613.39,852.048 1617.65,855.068 1622.14,857.739 1626.83,860.045 1631.68,861.972 1636.68,863.507 1641.77,864.64 1646.95,865.365 1652.16,865.676 1657.38,865.572 1662.58,865.054 1667.72,864.124 1672.77,862.789 1677.7,861.057 1682.47,858.939 1687.06,856.448 1691.44,853.6 1695.58,850.414 1699.45,846.909 1703.03,843.107 1706.3,839.033 1709.24,834.711 1711.82,830.171 1714.03,825.44 1715.86,820.547 1717.3,815.525 1718.33,810.405 1718.95,805.219 1719.16,800 "/>
<path clip-path="url(#clip072)" d="M812.222 346.533 L812.014 341.314 L811.392 336.128 L810.361 331.007 L808.925 325.985 L807.096 321.093 L804.883 316.362 L802.302 311.821 L799.367 307.5 L796.099 303.426 L792.518 299.624 L788.645 296.119 L784.507 292.932 L780.128 290.085 L775.537 287.594 L770.763 285.476 L765.835 283.744 L760.786 282.408 L755.646 281.479 L750.449 280.96 L745.227 280.856 L740.013 281.168 L734.84 281.892 L729.741 283.026 L724.749 284.561 L719.894 286.487 L715.208 288.793 L710.719 291.465 L706.457 294.484 L702.449 297.833 L698.719 301.489 L695.291 305.43 L692.188 309.631 L689.428 314.066 L687.029 318.705 L685.006 323.521 L683.372 328.482 L682.138 333.557 L681.31 338.714 L680.895 343.921 L680.895 349.144 L681.31 354.351 L682.138 359.508 L683.372 364.583 L685.006 369.544 L687.029 374.36 L689.428 378.999 L692.188 383.434 L695.291 387.635 L698.719 391.576 L702.449 395.232 L706.457 398.581 L710.719 401.6 L715.208 404.272 L719.894 406.578 L724.749 408.505 L729.741 410.039 L734.84 411.173 L740.013 411.897 L745.227 412.209 L750.449 412.105 L755.646 411.586 L760.786 410.657 L765.835 409.322 L770.763 407.59 L775.537 405.471 L780.128 402.981 L784.507 400.133 L788.645 396.947 L792.518 393.441 L796.099 389.639 L799.367 385.565 L802.302 381.244 L804.883 376.703 L807.096 371.972 L808.925 367.08 L810.361 362.058 L811.392 356.938 L812.014 351.752 L812.222 346.533 L812.222 346.533  Z" fill="#009af9" fill-rule="evenodd" fill-opacity="1"/>
<polyline clip-path="url(#clip072)" style="stroke:#000000; stroke-linecap:round; stroke-linejoin:round; stroke-width:4; stroke-opacity:1; fill:none" points="812.222,346.533 812.014,341.314 811.392,336.128 810.361,331.007 808.925,325.985 807.096,321.093 804.883,316.362 802.302,311.821 799.367,307.5 796.099,303.426 792.518,299.624 788.645,296.119 784.507,292.932 780.128,290.085 775.537,287.594 770.763,285.476 765.835,283.744 760.786,282.408 755.646,281.479 750.449,280.96 745.227,280.856 740.013,281.168 734.84,281.892 729.741,283.026 724.749,284.561 719.894,286.487 715.208,288.793 710.719,291.465 706.457,294.484 702.449,297.833 698.719,301.489 695.291,305.43 692.188,309.631 689.428,314.066 687.029,318.705 685.006,323.521 683.372,328.482 682.138,333.557 681.31,338.714 680.895,343.921 680.895,349.144 681.31,354.351 682.138,359.508 683.372,364.583 685.006,369.544 687.029,374.36 689.428,378.999 692.188,383.434 695.291,387.635 698.719,391.576 702.449,395.232 706.457,398.581 710.719,401.6 715.208,404.272 719.894,406.578 724.749,408.505 729.741,410.039 734.84,411.173 740.013,411.897 745.227,412.209 750.449,412.105 755.646,411.586 760.786,410.657 765.835,409.322 770.763,407.59 775.537,405.471 780.128,402.981 784.507,400.133 788.645,396.947 792.518,393.441 796.099,389.639 799.367,385.565 802.302,381.244 804.883,376.703 807.096,371.972 808.925,367.08 810.361,362.058 811.392,356.938 812.014,351.752 812.222,346.533 "/>
<path clip-path="url(#clip072)" d="M812.222 1253.47 L812.014 1248.25 L811.392 1243.06 L810.361 1237.94 L808.925 1232.92 L807.096 1228.03 L804.883 1223.3 L802.302 1218.76 L799.367 1214.43 L796.099 1210.36 L792.518 1206.56 L788.645 1203.05 L784.507 1199.87 L780.128 1197.02 L775.537 1194.53 L770.763 1192.41 L765.835 1190.68 L760.786 1189.34 L755.646 1188.41 L750.449 1187.9 L745.227 1187.79 L740.013 1188.1 L734.84 1188.83 L729.741 1189.96 L724.749 1191.5 L719.894 1193.42 L715.208 1195.73 L710.719 1198.4 L706.457 1201.42 L702.449 1204.77 L698.719 1208.42 L695.291 1212.37 L692.188 1216.57 L689.428 1221 L687.029 1225.64 L685.006 1230.46 L683.372 1235.42 L682.138 1240.49 L681.31 1245.65 L680.895 1250.86 L680.895 1256.08 L681.31 1261.29 L682.138 1266.44 L683.372 1271.52 L685.006 1276.48 L687.029 1281.29 L689.428 1285.93 L692.188 1290.37 L695.291 1294.57 L698.719 1298.51 L702.449 1302.17 L706.457 1305.52 L710.719 1308.54 L715.208 1311.21 L719.894 1313.51 L724.749 1315.44 L729.741 1316.97 L734.84 1318.11 L740.013 1318.83 L745.227 1319.14 L750.449 1319.04 L755.646 1318.52 L760.786 1317.59 L765.835 1316.26 L770.763 1314.52 L775.537 1312.41 L780.128 1309.92 L784.507 1307.07 L788.645 1303.88 L792.518 1300.38 L796.099 1296.57 L799.367 1292.5 L802.302 1288.18 L804.883 1283.64 L807.096 1278.91 L808.925 1274.01 L810.361 1268.99 L811.392 1263.87 L812.014 1258.69 L812.222 1253.47 L812.222 1253.47  Z" fill="#009af9" fill-rule="evenodd" fill-opacity="1"/>
<polyline clip-path="url(#clip072)" style="stroke:#000000; stroke-linecap:round; stroke-linejoin:round; stroke-width:4; stroke-opacity:1; fill:none" points="812.222,1253.47 812.014,1248.25 811.392,1243.06 810.361,1237.94 808.925,1232.92 807.096,1228.03 804.883,1223.3 802.302,1218.76 799.367,1214.43 796.099,1210.36 792.518,1206.56 788.645,1203.05 784.507,1199.87 780.128,1197.02 775.537,1194.53 770.763,1192.41 765.835,1190.68 760.786,1189.34 755.646,1188.41 750.449,1187.9 745.227,1187.79 740.013,1188.1 734.84,1188.83 729.741,1189.96 724.749,1191.5 719.894,1193.42 715.208,1195.73 710.719,1198.4 706.457,1201.42 702.449,1204.77 698.719,1208.42 695.291,1212.37 692.188,1216.57 689.428,1221 687.029,1225.64 685.006,1230.46 683.372,1235.42 682.138,1240.49 681.31,1245.65 680.895,1250.86 680.895,1256.08 681.31,1261.29 682.138,1266.44 683.372,1271.52 685.006,1276.48 687.029,1281.29 689.428,1285.93 692.188,1290.37 695.291,1294.57 698.719,1298.51 702.449,1302.17 706.457,1305.52 710.719,1308.54 715.208,1311.21 719.894,1313.51 724.749,1315.44 729.741,1316.97 734.84,1318.11 740.013,1318.83 745.227,1319.14 750.449,1319.04 755.646,1318.52 760.786,1317.59 765.835,1316.26 770.763,1314.52 775.537,1312.41 780.128,1309.92 784.507,1307.07 788.645,1303.88 792.518,1300.38 796.099,1296.57 799.367,1292.5 802.302,1288.18 804.883,1283.64 807.096,1278.91 808.925,1274.01 810.361,1268.99 811.392,1263.87 812.014,1258.69 812.222,1253.47 "/>
<circle clip-path="url(#clip072)" style="fill:#009af9; stroke:none; fill-opacity:0" cx="1653.47" cy="800" r="2"/>
<circle clip-path="url(#clip072)" style="fill:#009af9; stroke:none; fill-opacity:0" cx="746.533" cy="346.533" r="2"/>
<circle clip-path="url(#clip072)" style="fill:#009af9; stroke:none; fill-opacity:0" cx="746.533" cy="1253.47" r="2"/>
<path clip-path="url(#clip070)" d="M1896.95 808.328 L1900.77 808.328 L1900.77 795.146 L1896.61 795.979 L1896.61 793.849 L1900.75 793.016 L1903.08 793.016 L1903.08 808.328 L1906.9 808.328 L1906.9 810.296 L1896.95 810.296 L1896.95 808.328 Z" fill="#000000" fill-rule="nonzero" fill-opacity="1" /><path clip-path="url(#clip070)" d="M1915.11 793.016 L1917.08 793.016 L1911.06 812.495 L1909.09 812.495 L1915.11 793.016 Z" fill="#000000" fill-rule="nonzero" fill-opacity="1" /><path clip-path="url(#clip070)" d="M1923.1 793.016 L1925.06 793.016 L1919.04 812.495 L1917.08 812.495 L1923.1 793.016 Z" fill="#000000" fill-rule="nonzero" fill-opacity="1" /><path clip-path="url(#clip070)" d="M1928 808.328 L1931.82 808.328 L1931.82 795.146 L1927.67 795.979 L1927.67 793.849 L1931.8 793.016 L1934.14 793.016 L1934.14 808.328 L1937.96 808.328 L1937.96 810.296 L1928 810.296 L1928 808.328 Z" fill="#000000" fill-rule="nonzero" fill-opacity="1" /><path clip-path="url(#clip070)" d="M1260.73 417.701 L1264.54 417.701 L1264.54 404.518 L1260.39 405.352 L1260.39 403.222 L1264.52 402.389 L1266.86 402.389 L1266.86 417.701 L1270.68 417.701 L1270.68 419.669 L1260.73 419.669 L1260.73 417.701 Z" fill="#000000" fill-rule="nonzero" fill-opacity="1" /><path clip-path="url(#clip070)" d="M1278.88 402.389 L1280.85 402.389 L1274.83 421.868 L1272.87 421.868 L1278.88 402.389 Z" fill="#000000" fill-rule="nonzero" fill-opacity="1" /><path clip-path="url(#clip070)" d="M1286.87 402.389 L1288.84 402.389 L1282.82 421.868 L1280.85 421.868 L1286.87 402.389 Z" fill="#000000" fill-rule="nonzero" fill-opacity="1" /><path clip-path="url(#clip070)" d="M1291.4 402.389 L1300.57 402.389 L1300.57 404.356 L1293.54 404.356 L1293.54 408.593 Q1294.05 408.419 1294.56 408.338 Q1295.07 408.245 1295.57 408.245 Q1298.47 408.245 1300.16 409.831 Q1301.85 411.417 1301.85 414.125 Q1301.85 416.914 1300.11 418.465 Q1298.38 420.005 1295.22 420.005 Q1294.13 420.005 1292.99 419.819 Q1291.87 419.634 1290.67 419.264 L1290.67 416.914 Q1291.71 417.481 1292.82 417.759 Q1293.93 418.037 1295.17 418.037 Q1297.17 418.037 1298.34 416.984 Q1299.51 415.93 1299.51 414.125 Q1299.51 412.319 1298.34 411.266 Q1297.17 410.213 1295.17 410.213 Q1294.23 410.213 1293.29 410.421 Q1292.37 410.63 1291.4 411.069 L1291.4 402.389 Z" fill="#000000" fill-rule="nonzero" fill-opacity="1" /><path clip-path="url(#clip070)" d="M914.268 793.397 L908.365 802.622 L914.268 802.622 L914.268 793.397 M913.655 791.36 L916.594 791.36 L916.594 802.622 L919.06 802.622 L919.06 804.566 L916.594 804.566 L916.594 808.64 L914.268 808.64 L914.268 804.566 L906.467 804.566 L906.467 802.309 L913.655 791.36 Z" fill="#000000" fill-rule="nonzero" fill-opacity="1" /><path clip-path="url(#clip070)" d="M926.409 791.36 L928.377 791.36 L922.358 810.839 L920.391 810.839 L926.409 791.36 Z" fill="#000000" fill-rule="nonzero" fill-opacity="1" /><path clip-path="url(#clip070)" d="M934.395 791.36 L936.363 791.36 L930.344 810.839 L928.377 810.839 L934.395 791.36 Z" fill="#000000" fill-rule="nonzero" fill-opacity="1" /><path clip-path="url(#clip070)" d="M938.921 791.36 L948.099 791.36 L948.099 793.328 L941.062 793.328 L941.062 797.564 Q941.571 797.39 942.08 797.309 Q942.59 797.216 943.099 797.216 Q945.992 797.216 947.682 798.802 Q949.372 800.388 949.372 803.096 Q949.372 805.885 947.636 807.436 Q945.9 808.976 942.74 808.976 Q941.652 808.976 940.518 808.79 Q939.395 808.605 938.191 808.235 L938.191 805.885 Q939.233 806.453 940.344 806.73 Q941.455 807.008 942.694 807.008 Q944.696 807.008 945.865 805.955 Q947.034 804.902 947.034 803.096 Q947.034 801.291 945.865 800.237 Q944.696 799.184 942.694 799.184 Q941.756 799.184 940.819 799.392 Q939.893 799.601 938.921 800.041 L938.921 791.36 Z" fill="#000000" fill-rule="nonzero" fill-opacity="1" /><path clip-path="url(#clip070)" d="M546.795 806.672 L554.955 806.672 L554.955 808.64 L543.983 808.64 L543.983 806.672 Q545.314 805.295 547.605 802.98 Q549.908 800.654 550.499 799.983 Q551.621 798.721 552.061 797.853 Q552.513 796.973 552.513 796.128 Q552.513 794.751 551.54 793.883 Q550.58 793.015 549.029 793.015 Q547.929 793.015 546.702 793.397 Q545.487 793.779 544.098 794.554 L544.098 792.193 Q545.51 791.626 546.737 791.337 Q547.964 791.048 548.983 791.048 Q551.668 791.048 553.265 792.39 Q554.862 793.733 554.862 795.978 Q554.862 797.043 554.457 798.003 Q554.064 798.953 553.01 800.249 Q552.721 800.584 551.17 802.193 Q549.619 803.79 546.795 806.672 Z" fill="#000000" fill-rule="nonzero" fill-opacity="1" /><path clip-path="url(#clip070)" d="M563.346 791.36 L565.313 791.36 L559.295 810.839 L557.327 810.839 L563.346 791.36 Z" fill="#000000" fill-rule="nonzero" fill-opacity="1" /><path clip-path="url(#clip070)" d="M571.332 791.36 L573.3 791.36 L567.281 810.839 L565.313 810.839 L571.332 791.36 Z" fill="#000000" fill-rule="nonzero" fill-opacity="1" /><path clip-path="url(#clip070)" d="M575.857 791.36 L585.036 791.36 L585.036 793.328 L577.999 793.328 L577.999 797.564 Q578.508 797.39 579.017 797.309 Q579.526 797.216 580.036 797.216 Q582.929 797.216 584.619 798.802 Q586.309 800.388 586.309 803.096 Q586.309 805.885 584.573 807.436 Q582.836 808.976 579.677 808.976 Q578.589 808.976 577.455 808.79 Q576.332 808.605 575.128 808.235 L575.128 805.885 Q576.17 806.453 577.281 806.73 Q578.392 807.008 579.63 807.008 Q581.633 807.008 582.802 805.955 Q583.971 804.902 583.971 803.096 Q583.971 801.291 582.802 800.237 Q581.633 799.184 579.63 799.184 Q578.693 799.184 577.756 799.392 Q576.83 799.601 575.857 800.041 L575.857 791.36 Z" fill="#000000" fill-rule="nonzero" fill-opacity="1" /><path clip-path="url(#clip070)" d="M637.392 1428.8 Q639.07 1429.16 640.008 1430.29 Q640.957 1431.43 640.957 1433.09 Q640.957 1435.65 639.198 1437.05 Q637.438 1438.45 634.198 1438.45 Q633.11 1438.45 631.952 1438.23 Q630.806 1438.03 629.58 1437.6 L629.58 1435.34 Q630.552 1435.91 631.709 1436.2 Q632.867 1436.49 634.128 1436.49 Q636.327 1436.49 637.473 1435.62 Q638.63 1434.75 638.63 1433.09 Q638.63 1431.57 637.554 1430.71 Q636.489 1429.84 634.58 1429.84 L632.566 1429.84 L632.566 1427.92 L634.672 1427.92 Q636.397 1427.92 637.311 1427.24 Q638.225 1426.54 638.225 1425.25 Q638.225 1423.92 637.276 1423.21 Q636.339 1422.49 634.58 1422.49 Q633.619 1422.49 632.519 1422.7 Q631.42 1422.91 630.1 1423.35 L630.1 1421.27 Q631.431 1420.9 632.589 1420.71 Q633.758 1420.53 634.788 1420.53 Q637.45 1420.53 639.001 1421.74 Q640.552 1422.94 640.552 1425 Q640.552 1426.44 639.73 1427.43 Q638.908 1428.42 637.392 1428.8 Z" fill="#000000" fill-rule="nonzero" fill-opacity="1" /><path clip-path="url(#clip070)" d="M648.873 1420.84 L650.841 1420.84 L644.823 1440.32 L642.855 1440.32 L648.873 1420.84 Z" fill="#000000" fill-rule="nonzero" fill-opacity="1" /><path clip-path="url(#clip070)" d="M656.859 1420.84 L658.827 1420.84 L652.809 1440.32 L650.841 1440.32 L656.859 1420.84 Z" fill="#000000" fill-rule="nonzero" fill-opacity="1" /><path clip-path="url(#clip070)" d="M661.385 1420.84 L670.563 1420.84 L670.563 1422.81 L663.526 1422.81 L663.526 1427.04 Q664.035 1426.87 664.545 1426.79 Q665.054 1426.69 665.563 1426.69 Q668.457 1426.69 670.146 1428.28 Q671.836 1429.87 671.836 1432.57 Q671.836 1435.36 670.1 1436.91 Q668.364 1438.45 665.204 1438.45 Q664.116 1438.45 662.982 1438.27 Q661.859 1438.08 660.656 1437.71 L660.656 1435.36 Q661.697 1435.93 662.809 1436.21 Q663.92 1436.49 665.158 1436.49 Q667.16 1436.49 668.329 1435.43 Q669.498 1434.38 669.498 1432.57 Q669.498 1430.77 668.329 1429.72 Q667.16 1428.66 665.158 1428.66 Q664.221 1428.66 663.283 1428.87 Q662.357 1429.08 661.385 1429.52 L661.385 1420.84 Z" fill="#000000" fill-rule="nonzero" fill-opacity="1" /><path clip-path="url(#clip070)" d="M1646.18 792.899 Q1644.37 792.899 1643.46 794.682 Q1642.55 796.453 1642.55 800.017 Q1642.55 803.571 1643.46 805.353 Q1644.37 807.124 1646.18 807.124 Q1647.99 807.124 1648.9 805.353 Q1649.81 803.571 1649.81 800.017 Q1649.81 796.453 1648.9 794.682 Q1647.99 792.899 1646.18 792.899 M1646.18 791.048 Q1649.08 791.048 1650.61 793.351 Q1652.15 795.642 1652.15 800.017 Q1652.15 804.381 1650.61 806.684 Q1649.08 808.976 1646.18 808.976 Q1643.27 808.976 1641.73 806.684 Q1640.2 804.381 1640.2 800.017 Q1640.2 795.642 1641.73 793.351 Q1643.27 791.048 1646.18 791.048 Z" fill="#000000" fill-rule="nonzero" fill-opacity="1" /><path clip-path="url(#clip070)" d="M1656.28 791.36 L1665.46 791.36 L1665.46 793.328 L1658.42 793.328 L1658.42 797.564 Q1658.93 797.39 1659.44 797.309 Q1659.95 797.216 1660.46 797.216 Q1663.35 797.216 1665.04 798.802 Q1666.73 800.388 1666.73 803.096 Q1666.73 805.885 1665 807.436 Q1663.26 808.976 1660.1 808.976 Q1659.01 808.976 1657.88 808.79 Q1656.75 808.605 1655.55 808.235 L1655.55 805.885 Q1656.59 806.453 1657.7 806.73 Q1658.81 807.008 1660.05 807.008 Q1662.06 807.008 1663.22 805.955 Q1664.39 804.902 1664.39 803.096 Q1664.39 801.291 1663.22 800.237 Q1662.06 799.184 1660.05 799.184 Q1659.12 799.184 1658.18 799.392 Q1657.25 799.601 1656.28 800.041 L1656.28 791.36 Z" fill="#000000" fill-rule="nonzero" fill-opacity="1" /><path clip-path="url(#clip070)" d="M733.755 353.205 L737.574 353.205 L737.574 340.022 L733.419 340.856 L733.419 338.726 L737.551 337.893 L739.889 337.893 L739.889 353.205 L743.709 353.205 L743.709 355.173 L733.755 355.173 L733.755 353.205 Z" fill="#000000" fill-rule="nonzero" fill-opacity="1" /><path clip-path="url(#clip070)" d="M754.854 339.93 L748.952 349.154 L754.854 349.154 L754.854 339.93 M754.241 337.893 L757.181 337.893 L757.181 349.154 L759.646 349.154 L759.646 351.099 L757.181 351.099 L757.181 355.173 L754.854 355.173 L754.854 351.099 L747.053 351.099 L747.053 348.842 L754.241 337.893 Z" fill="#000000" fill-rule="nonzero" fill-opacity="1" /><path clip-path="url(#clip070)" d="M736.081 1260.14 L744.241 1260.14 L744.241 1262.11 L733.269 1262.11 L733.269 1260.14 Q734.6 1258.76 736.891 1256.45 Q739.195 1254.12 739.785 1253.45 Q740.908 1252.19 741.347 1251.32 Q741.799 1250.44 741.799 1249.6 Q741.799 1248.22 740.827 1247.35 Q739.866 1246.48 738.315 1246.48 Q737.216 1246.48 735.989 1246.86 Q734.773 1247.25 733.385 1248.02 L733.385 1245.66 Q734.797 1245.09 736.023 1244.8 Q737.25 1244.51 738.269 1244.51 Q740.954 1244.51 742.551 1245.86 Q744.148 1247.2 744.148 1249.45 Q744.148 1250.51 743.743 1251.47 Q743.35 1252.42 742.296 1253.72 Q742.007 1254.05 740.456 1255.66 Q738.905 1257.26 736.081 1260.14 Z" fill="#000000" fill-rule="nonzero" fill-opacity="1" /><path clip-path="url(#clip070)" d="M756.232 1252.79 Q757.91 1253.15 758.847 1254.28 Q759.796 1255.42 759.796 1257.08 Q759.796 1259.64 758.037 1261.04 Q756.278 1262.44 753.037 1262.44 Q751.949 1262.44 750.792 1262.22 Q749.646 1262.01 748.419 1261.59 L748.419 1259.33 Q749.391 1259.9 750.549 1260.19 Q751.706 1260.48 752.968 1260.48 Q755.167 1260.48 756.313 1259.61 Q757.47 1258.74 757.47 1257.08 Q757.47 1255.56 756.394 1254.7 Q755.329 1253.83 753.419 1253.83 L751.405 1253.83 L751.405 1251.91 L753.512 1251.91 Q755.236 1251.91 756.151 1251.23 Q757.065 1250.53 757.065 1249.24 Q757.065 1247.91 756.116 1247.2 Q755.178 1246.48 753.419 1246.48 Q752.458 1246.48 751.359 1246.69 Q750.259 1246.9 748.94 1247.34 L748.94 1245.26 Q750.271 1244.89 751.428 1244.7 Q752.597 1244.51 753.627 1244.51 Q756.289 1244.51 757.84 1245.73 Q759.391 1246.93 759.391 1248.99 Q759.391 1250.43 758.57 1251.42 Q757.748 1252.41 756.232 1252.79 Z" fill="#000000" fill-rule="nonzero" fill-opacity="1" /></svg>
