<?xml version="1.0" encoding="utf-8"?>
<svg xmlns="http://www.w3.org/2000/svg" xmlns:xlink="http://www.w3.org/1999/xlink" width="600" height="400" viewBox="0 0 2400 1600">
<defs>
  <clipPath id="clip040">
    <rect x="0" y="0" width="2400" height="1600"/>
  </clipPath>
</defs>
<path clip-path="url(#clip040)" d="M0 1600 L2400 1600 L2400 0 L0 0  Z" fill="#ffffff" fill-rule="evenodd" fill-opacity="1"/>
<defs>
  <clipPath id="clip041">
    <rect x="480" y="0" width="1681" height="1600"/>
  </clipPath>
</defs>
<path clip-path="url(#clip040)" d="M447.244 1552.76 L1952.76 1552.76 L1952.76 47.2441 L447.244 47.2441  Z" fill="#ffffff" fill-rule="evenodd" fill-opacity="1"/>
<defs>
  <clipPath id="clip042">
    <rect x="447" y="47" width="1507" height="1507"/>
  </clipPath>
</defs>
<polyline clip-path="url(#clip042)" style="stroke:#000000; stroke-linecap:round; stroke-linejoin:round; stroke-width:4; stroke-opacity:1; fill:none" points="1717.84,812.805 1731.39,815.067 1744.88,817.292 1758.24,819.442 1771.41,821.481 1784.32,823.371 1796.92,825.075 1809.15,826.556 1820.93,827.776 1832.21,828.699 1842.92,829.287 1853,829.504 1862.38,829.311 1871.02,828.677 1878.88,827.615 1885.99,826.163 1892.35,824.357 1897.97,822.236 1902.86,819.835 1907.02,817.193 1910.47,814.346 1913.21,811.331 1915.26,808.187 1916.61,804.949 1917.29,801.656 1917.29,798.344 1916.61,795.051 1915.26,791.813 1913.21,788.669 1910.47,785.654 1907.02,782.807 1902.86,780.165 1897.97,777.764 1892.35,775.643 1885.99,773.837 1878.88,772.385 1871.02,771.323 1862.38,770.689 1853,770.496 1842.92,770.713 1832.21,771.301 1820.93,772.224 1809.15,773.444 1796.92,774.925 1784.32,776.629 1771.41,778.519 1758.24,780.558 1744.88,782.708 1731.39,784.933 1717.84,787.195 "/>
<polyline clip-path="url(#clip042)" style="stroke:#000000; stroke-linecap:round; stroke-linejoin:round; stroke-width:4; stroke-opacity:1; fill:none" points="1756.32,799.021 1717.84,787.195 1750.39,763.512 "/>
<polyline clip-path="url(#clip042)" style="stroke:#000000; stroke-linecap:round; stroke-linejoin:round; stroke-width:4; stroke-opacity:1; fill:none" points="1717.84,787.195 1731.39,784.933 "/>
<polyline clip-path="url(#clip042)" style="stroke:#000000; stroke-linecap:round; stroke-linejoin:round; stroke-width:4; stroke-opacity:1; fill:none" points="746.533,346.533 770.468,346.343 794.382,346.182 818.254,346.077 842.062,346.057 865.786,346.15 889.403,346.384 912.894,346.788 936.236,347.39 959.409,348.217 982.391,349.299 1005.16,350.664 1027.7,352.339 1049.98,354.354 1071.99,356.735 1093.7,359.513 1115.09,362.714 1136.15,366.367 1156.84,370.501 1177.16,375.143 1197.07,380.322 1216.56,386.066 1235.6,392.404 1254.17,399.363 1272.26,406.972 1289.85,415.258 1306.92,424.221 1323.51,433.834 1339.63,444.068 1355.3,454.896 1370.56,466.289 1385.41,478.219 1399.88,490.657 1413.99,503.576 1427.76,516.947 1441.21,530.742 1454.36,544.932 1467.24,559.49 1479.87,574.387 1492.26,589.594 1504.45,605.084 1516.44,620.829 1528.26,636.799 1539.93,652.967 1551.48,669.305 1562.92,685.784 1574.27,702.376 1585.57,719.053 1596.81,735.786 1608.04,752.548 "/>
<polyline clip-path="url(#clip042)" style="stroke:#000000; stroke-linecap:round; stroke-linejoin:round; stroke-width:4; stroke-opacity:1; fill:none" points="1602.96,712.621 1608.04,752.548 1573.05,732.657 "/>
<polyline clip-path="url(#clip042)" style="stroke:#000000; stroke-linecap:round; stroke-linejoin:round; stroke-width:4; stroke-opacity:1; fill:none" points="1608.04,752.548 1596.81,735.786 "/>
<polyline clip-path="url(#clip042)" style="stroke:#000000; stroke-linecap:round; stroke-linejoin:round; stroke-width:4; stroke-opacity:1; fill:none" points="746.533,346.533 757.383,365.663 768.199,384.787 778.946,403.898 789.59,422.991 800.095,442.059 810.428,461.096 820.554,480.096 830.438,499.052 840.047,517.958 849.344,536.808 858.296,555.596 866.869,574.316 875.028,592.961 882.738,611.525 889.964,630.002 896.673,648.385 902.83,666.67 908.4,684.848 913.349,702.914 917.642,720.863 921.244,738.686 924.122,756.379 926.241,773.936 927.566,791.349 928.064,808.613 927.735,825.728 926.612,842.7 924.73,859.535 922.123,876.24 918.825,892.82 914.872,909.282 910.298,925.632 905.137,941.876 899.424,958.021 893.193,974.072 886.479,990.036 879.316,1005.92 871.739,1021.73 863.783,1037.47 855.481,1053.15 846.869,1068.77 837.98,1084.34 828.85,1099.87 819.513,1115.36 810.003,1130.82 800.355,1146.26 790.604,1161.67 780.784,1177.08 770.929,1192.48 "/>
<polyline clip-path="url(#clip042)" style="stroke:#000000; stroke-linecap:round; stroke-linejoin:round; stroke-width:4; stroke-opacity:1; fill:none" points="805.496,1171.86 770.929,1192.48 775.174,1152.45 "/>
<polyline clip-path="url(#clip042)" style="stroke:#000000; stroke-linecap:round; stroke-linejoin:round; stroke-width:4; stroke-opacity:1; fill:none" points="770.929,1192.48 780.784,1177.08 "/>
<polyline clip-path="url(#clip042)" style="stroke:#000000; stroke-linecap:round; stroke-linejoin:round; stroke-width:4; stroke-opacity:1; fill:none" points="746.533,1253.47 735.682,1234.34 724.866,1215.21 714.119,1196.1 703.475,1177.01 692.97,1157.94 682.637,1138.9 672.511,1119.9 662.627,1100.95 653.019,1082.04 643.721,1063.19 634.769,1044.4 626.196,1025.68 618.037,1007.04 610.328,988.475 603.101,969.998 596.392,951.615 590.235,933.33 584.665,915.152 579.717,897.086 575.424,879.137 571.821,861.314 568.943,843.621 566.824,826.064 565.5,808.651 565.002,791.387 565.331,774.272 566.454,757.3 568.336,740.465 570.943,723.76 574.24,707.18 578.193,690.718 582.767,674.368 587.928,658.124 593.641,641.979 599.872,625.928 606.586,609.964 613.749,594.08 621.326,578.271 629.282,562.531 637.584,546.853 646.197,531.231 655.085,515.659 664.215,500.13 673.552,484.638 683.062,469.178 692.71,453.743 702.461,438.326 712.281,422.922 722.136,407.523 "/>
<polyline clip-path="url(#clip042)" style="stroke:#000000; stroke-linecap:round; stroke-linejoin:round; stroke-width:4; stroke-opacity:1; fill:none" points="687.569,428.142 722.136,407.523 717.891,447.548 "/>
<polyline clip-path="url(#clip042)" style="stroke:#000000; stroke-linecap:round; stroke-linejoin:round; stroke-width:4; stroke-opacity:1; fill:none" points="722.136,407.523 712.281,422.922 "/>
<path clip-path="url(#clip042)" d="M1884.29 819.069 L1950.28 819.069 L1950.28 784.243 L1884.29 784.243 L1884.29 819.069 L1884.29 819.069  Z" fill="#ffffff" fill-rule="evenodd" fill-opacity="1"/>
<polyline clip-path="url(#clip042)" style="stroke:#000000; stroke-linecap:round; stroke-linejoin:round; stroke-width:0; stroke-opacity:0; fill:none" points="1884.29,819.069 1950.28,819.069 1950.28,784.243 1884.29,784.243 1884.29,819.069 "/>
<path clip-path="url(#clip042)" d="M1248.13 428.442 L1314.11 428.442 L1314.11 393.616 L1248.13 393.616 L1248.13 428.442 L1248.13 428.442  Z" fill="#ffffff" fill-rule="evenodd" fill-opacity="1"/>
<polyline clip-path="url(#clip042)" style="stroke:#000000; stroke-linecap:round; stroke-linejoin:round; stroke-width:0; stroke-opacity:0; fill:none" points="1248.13,428.442 1314.11,428.442 1314.11,393.616 1248.13,393.616 1248.13,428.442 "/>
<path clip-path="url(#clip042)" d="M894.928 817.413 L960.911 817.413 L960.911 782.587 L894.928 782.587 L894.928 817.413 L894.928 817.413  Z" fill="#ffffff" fill-rule="evenodd" fill-opacity="1"/>
<polyline clip-path="url(#clip042)" style="stroke:#000000; stroke-linecap:round; stroke-linejoin:round; stroke-width:0; stroke-opacity:0; fill:none" points="894.928,817.413 960.911,817.413 960.911,782.587 894.928,782.587 894.928,817.413 "/>
<path clip-path="url(#clip042)" d="M532.154 817.413 L598.137 817.413 L598.137 782.587 L532.154 782.587 L532.154 817.413 L532.154 817.413  Z" fill="#ffffff" fill-rule="evenodd" fill-opacity="1"/>
<polyline clip-path="url(#clip042)" style="stroke:#000000; stroke-linecap:round; stroke-linejoin:round; stroke-width:0; stroke-opacity:0; fill:none" points="532.154,817.413 598.137,817.413 598.137,782.587 532.154,782.587 532.154,817.413 "/>
<path clip-path="url(#clip042)" d="M1719.16 800 L1718.95 794.781 L1718.33 789.595 L1717.3 784.475 L1715.86 779.453 L1714.03 774.56 L1711.82 769.829 L1709.24 765.289 L1706.3 760.967 L1703.03 756.893 L1699.45 753.091 L1695.58 749.586 L1691.44 746.4 L1687.06 743.552 L1682.47 741.061 L1677.7 738.943 L1672.77 737.211 L1667.72 735.876 L1662.58 734.946 L1657.38 734.428 L1652.16 734.324 L1646.95 734.635 L1641.77 735.36 L1636.68 736.493 L1631.68 738.028 L1626.83 739.955 L1622.14 742.261 L1617.65 744.932 L1613.39 747.952 L1609.38 751.3 L1605.65 754.957 L1602.23 758.898 L1599.12 763.099 L1596.36 767.533 L1593.96 772.173 L1591.94 776.988 L1590.31 781.949 L1589.07 787.025 L1588.25 792.182 L1587.83 797.388 L1587.83 802.612 L1588.25 807.818 L1589.07 812.975 L1590.31 818.051 L1591.94 823.012 L1593.96 827.827 L1596.36 832.467 L1599.12 836.901 L1602.23 841.102 L1605.65 845.043 L1609.38 848.7 L1613.39 852.048 L1617.65 855.068 L1622.14 857.739 L1626.83 860.045 L1631.68 861.972 L1636.68 863.507 L1641.77 864.64 L1646.95 865.365 L1652.16 865.676 L1657.38 865.572 L1662.58 865.054 L1667.72 864.124 L1672.77 862.789 L1677.7 861.057 L1682.47 858.939 L1687.06 856.448 L1691.44 853.6 L1695.58 850.414 L1699.45 846.909 L1703.03 843.107 L1706.3 839.033 L1709.24 834.711 L1711.82 830.171 L1714.03 825.44 L1715.86 820.547 L1717.3 815.525 L1718.33 810.405 L1718.95 805.219 L1719.16 800 L1719.16 800  Z" fill="#009af9" fill-rule="evenodd" fill-opacity="1"/>
<polyline clip-path="url(#clip042)" style="stroke:#000000; stroke-linecap:round; stroke-linejoin:round; stroke-width:4; stroke-opacity:1; fill:none" points="1719.16,800 1718.95,794.781 1718.33,789.595 1717.3,784.475 1715.86,779.453 1714.03,774.56 1711.82,769.829 1709.24,765.289 1706.3,760.967 1703.03,756.893 1699.45,753.091 1695.58,749.586 1691.44,746.4 1687.06,743.552 1682.47,741.061 1677.7,738.943 1672.77,737.211 1667.72,735.876 1662.58,734.946 1657.38,734.428 1652.16,734.324 1646.95,734.635 1641.77,735.36 1636.68,736.493 1631.68,738.028 1626.83,739.955 1622.14,742.261 1617.65,744.932 1613.39,747.952 1609.38,751.3 1605.65,754.957 1602.23,758.898 1599.12,763.099 1596.36,767.533 1593.96,772.173 1591.94,776.988 1590.31,781.949 1589.07,787.025 1588.25,792.182 1587.83,797.388 1587.83,802.612 1588.25,807.818 1589.07,812.975 1590.31,818.051 1591.94,823.012 1593.96,827.827 1596.36,832.467 1599.12,836.901 1602.23,841.102 1605.65,845.043 1609.38,848.7 1613.39,852.048 1617.65,855.068 1622.14,857.739 1626.83,860.045 1631.68,861.972 1636.68,863.507 1641.77,864.64 1646.95,865.365 1652.16,865.676 1657.38,865.572 1662.58,865.054 1667.72,864.124 1672.77,862.789 1677.7,861.057 1682.47,858.939 1687.06,856.448 1691.44,853.6 1695.58,850.414 1699.45,846.909 1703.03,843.107 1706.3,839.033 1709.24,834.711 1711.82,830.171 1714.03,825.44 1715.86,820.547 1717.3,815.525 1718.33,810.405 1718.95,805.219 1719.16,800 "/>
<path clip-path="url(#clip042)" d="M812.222 346.533 L812.014 341.314 L811.392 336.128 L810.361 331.007 L808.925 325.985 L807.096 321.093 L804.883 316.362 L802.302 311.821 L799.367 307.5 L796.099 303.426 L792.518 299.624 L788.645 296.119 L784.507 292.932 L780.128 290.085 L775.537 287.594 L770.763 285.476 L765.835 283.744 L760.786 282.408 L755.646 281.479 L750.449 280.96 L745.227 280.856 L740.013 281.168 L734.84 281.892 L729.741 283.026 L724.749 284.561 L719.894 286.487 L715.208 288.793 L710.719 291.465 L706.457 294.484 L702.449 297.833 L698.719 301.489 L695.291 305.43 L692.188 309.631 L689.428 314.066 L687.029 318.705 L685.006 323.521 L683.372 328.482 L682.138 333.557 L681.31 338.714 L680.895 343.921 L680.895 349.144 L681.31 354.351 L682.138 359.508 L683.372 364.583 L685.006 369.544 L687.029 374.36 L689.428 378.999 L692.188 383.434 L695.291 387.635 L698.719 391.576 L702.449 395.232 L706.457 398.581 L710.719 401.6 L715.208 404.272 L719.894 406.578 L724.749 408.505 L729.741 410.039 L734.84 411.173 L740.013 411.897 L745.227 412.209 L750.449 412.105 L755.646 411.586 L760.786 410.657 L765.835 409.322 L770.763 407.59 L775.537 405.471 L780.128 402.981 L784.507 400.133 L788.645 396.947 L792.518 393.441 L796.099 389.639 L799.367 385.565 L802.302 381.244 L804.883 376.703 L807.096 371.972 L808.925 367.08 L810.361 362.058 L811.392 356.938 L812.014 351.752 L812.222 346.533 L812.222 346.533  Z" fill="#009af9" fill-rule="evenodd" fill-opacity="1"/>
<polyline clip-path="url(#clip042)" style="stroke:#000000; stroke-linecap:round; stroke-linejoin:round; stroke-width:4; stroke-opacity:1; fill:none" points="812.222,346.533 812.014,341.314 811.392,336.128 810.361,331.007 808.925,325.985 807.096,321.093 804.883,316.362 802.302,311.821 799.367,307.5 796.099,303.426 792.518,299.624 788.645,296.119 784.507,292.932 780.128,290.085 775.537,287.594 770.763,285.476 765.835,283.744 760.786,282.408 755.646,281.479 750.449,280.96 745.227,280.856 740.013,281.168 734.84,281.892 729.741,283.026 724.749,284.561 719.894,286.487 715.208,288.793 710.719,291.465 706.457,294.484 702.449,297.833 698.719,301.489 695.291,305.43 692.188,309.631 689.428,314.066 687.029,318.705 685.006,323.521 683.372,328.482 682.138,333.557 681.31,338.714 680.895,343.921 680.895,349.144 681.31,354.351 682.138,359.508 683.372,364.583 685.006,369.544 687.029,374.36 689.428,378.999 692.188,383.434 695.291,387.635 698.719,391.576 702.449,395.232 706.457,398.581 710.719,401.6 715.208,404.272 719.894,406.578 724.749,408.505 729.741,410.039 734.84,411.173 740.013,411.897 745.227,412.209 750.449,412.105 755.646,411.586 760.786,410.657 765.835,409.322 770.763,407.59 775.537,405.471 780.128,402.981 784.507,400.133 788.645,396.947 792.518,393.441 796.099,389.639 799.367,385.565 802.302,381.244 804.883,376.703 807.096,371.972 808.925,367.08 810.361,362.058 811.392,356.938 812.014,351.752 812.222,346.533 "/>
<path clip-path="url(#clip042)" d="M812.222 1253.47 L812.014 1248.25 L811.392 1243.06 L810.361 1237.94 L808.925 1232.92 L807.096 1228.03 L804.883 1223.3 L802.302 1218.76 L799.367 1214.43 L796.099 1210.36 L792.518 1206.56 L788.645 1203.05 L784.507 1199.87 L780.128 1197.02 L775.537 1194.53 L770.763 1192.41 L765.835 1190.68 L760.786 1189.34 L755.646 1188.41 L750.449 1187.9 L745.227 1187.79 L740.013 1188.1 L734.84 1188.83 L729.741 1189.96 L724.749 1191.5 L719.894 1193.42 L715.208 1195.73 L710.719 1198.4 L706.457 1201.42 L702.449 1204.77 L698.719 1208.42 L695.291 1212.37 L692.188 1216.57 L689.428 1221 L687.029 1225.64 L685.006 1230.46 L683.372 1235.42 L682.138 1240.49 L681.31 1245.65 L680.895 1250.86 L680.895 1256.08 L681.31 1261.29 L682.138 1266.44 L683.372 1271.52 L685.006 1276.48 L687.029 1281.29 L689.428 1285.93 L692.188 1290.37 L695.291 1294.57 L698.719 1298.51 L702.449 1302.17 L706.457 1305.52 L710.719 1308.54 L715.208 1311.21 L719.894 1313.51 L724.749 1315.44 L729.741 1316.97 L734.84 1318.11 L740.013 1318.83 L745.227 1319.14 L750.449 1319.04 L755.646 1318.52 L760.786 1317.59 L765.835 1316.26 L770.763 1314.52 L775.537 1312.41 L780.128 1309.92 L784.507 1307.07 L788.645 1303.88 L792.518 1300.38 L796.099 1296.57 L799.367 1292.5 L802.302 1288.18 L804.883 1283.64 L807.096 1278.91 L808.925 1274.01 L810.361 1268.99 L811.392 1263.87 L812.014 1258.69 L812.222 1253.47 L812.222 1253.47  Z" fill="#009af9" fill-rule="evenodd" fill-opacity="1"/>
<polyline clip-path="url(#clip042)" style="stroke:#000000; stroke-linecap:round; stroke-linejoin:round; stroke-width:4; stroke-opacity:1; fill:none" points="812.222,1253.47 812.014,1248.25 811.392,1243.06 810.361,1237.94 808.925,1232.92 807.096,1228.03 804.883,1223.3 802.302,1218.76 799.367,1214.43 796.099,1210.36 792.518,1206.56 788.645,1203.05 784.507,1199.87 780.128,1197.02 775.537,1194.53 770.763,1192.41 765.835,1190.68 760.786,1189.34 755.646,1188.41 750.449,1187.9 745.227,1187.79 740.013,1188.1 734.84,1188.83 729.741,1189.96 724.749,1191.5 719.894,1193.42 715.208,1195.73 710.719,1198.4 706.457,1201.42 702.449,1204.77 698.719,1208.42 695.291,1212.37 692.188,1216.57 689.428,1221 687.029,1225.64 685.006,1230.46 683.372,1235.42 682.138,1240.49 681.31,1245.65 680.895,1250.86 680.895,1256.08 681.31,1261.29 682.138,1266.44 683.372,1271.52 685.006,1276.48 687.029,1281.29 689.428,1285.93 692.188,1290.37 695.291,1294.57 698.719,1298.51 702.449,1302.17 706.457,1305.52 710.719,1308.54 715.208,1311.21 719.894,1313.51 724.749,1315.44 729.741,1316.97 734.84,1318.11 740.013,1318.83 745.227,1319.14 750.449,1319.04 755.646,1318.52 760.786,1317.59 765.835,1316.26 770.763,1314.52 775.537,1312.41 780.128,1309.92 784.507,1307.07 788.645,1303.88 792.518,1300.38 796.099,1296.57 799.367,1292.5 802.302,1288.18 804.883,1283.64 807.096,1278.91 808.925,1274.01 810.361,1268.99 811.392,1263.87 812.014,1258.69 812.222,1253.47 "/>
<circle clip-path="url(#clip042)" style="fill:#009af9; stroke:none; fill-opacity:0" cx="1653.47" cy="800" r="2"/>
<circle clip-path="url(#clip042)" style="fill:#009af9; stroke:none; fill-opacity:0" cx="746.533" cy="346.533" r="2"/>
<circle clip-path="url(#clip042)" style="fill:#009af9; stroke:none; fill-opacity:0" cx="746.533" cy="1253.47" r="2"/>
<path clip-path="url(#clip040)" d="M1896.95 808.328 L1900.77 808.328 L1900.77 795.146 L1896.61 795.979 L1896.61 793.849 L1900.75 793.016 L1903.08 793.016 L1903.08 808.328 L1906.9 808.328 L1906.9 810.296 L1896.95 810.296 L1896.95 808.328 Z" fill="#000000" fill-rule="nonzero" fill-opacity="1" /><path clip-path="url(#clip040)" d="M1915.11 793.016 L1917.08 793.016 L1911.06 812.495 L1909.09 812.495 L1915.11 793.016 Z" fill="#000000" fill-rule="nonzero" fill-opacity="1" /><path clip-path="url(#clip040)" d="M1923.1 793.016 L1925.06 793.016 L1919.04 812.495 L1917.08 812.495 L1923.1 793.016 Z" fill="#000000" fill-rule="nonzero" fill-opacity="1" /><path clip-path="url(#clip040)" d="M1928 808.328 L1931.82 808.328 L1931.82 795.146 L1927.67 795.979 L1927.67 793.849 L1931.8 793.016 L1934.14 793.016 L1934.14 808.328 L1937.96 808.328 L1937.96 810.296 L1928 810.296 L1928 808.328 Z" fill="#000000" fill-rule="nonzero" fill-opacity="1" /><path clip-path="url(#clip040)" d="M1260.35 417.701 L1264.17 417.701 L1264.17 404.518 L1260.02 405.352 L1260.02 403.222 L1264.15 402.389 L1266.49 402.389 L1266.49 417.701 L1270.31 417.701 L1270.31 419.669 L1260.35 419.669 L1260.35 417.701 Z" fill="#000000" fill-rule="nonzero" fill-opacity="1" /><path clip-path="url(#clip040)" d="M1278.51 402.389 L1280.48 402.389 L1274.46 421.868 L1272.5 421.868 L1278.51 402.389 Z" fill="#000000" fill-rule="nonzero" fill-opacity="1" /><path clip-path="url(#clip040)" d="M1286.5 402.389 L1288.47 402.389 L1282.45 421.868 L1280.48 421.868 L1286.5 402.389 Z" fill="#000000" fill-rule="nonzero" fill-opacity="1" /><path clip-path="url(#clip040)" d="M1297.43 404.426 L1291.52 413.65 L1297.43 413.65 L1297.43 404.426 M1296.81 402.389 L1299.75 402.389 L1299.75 413.65 L1302.22 413.65 L1302.22 415.595 L1299.75 415.595 L1299.75 419.669 L1297.43 419.669 L1297.43 415.595 L1289.63 415.595 L1289.63 413.338 L1296.81 402.389 Z" fill="#000000" fill-rule="nonzero" fill-opacity="1" /><path clip-path="url(#clip040)" d="M914.233 799.323 Q915.912 799.682 916.849 800.816 Q917.798 801.95 917.798 803.617 Q917.798 806.175 916.039 807.575 Q914.28 808.976 911.039 808.976 Q909.951 808.976 908.793 808.756 Q907.648 808.547 906.421 808.119 L906.421 805.862 Q907.393 806.429 908.55 806.719 Q909.708 807.008 910.969 807.008 Q913.168 807.008 914.314 806.14 Q915.472 805.272 915.472 803.617 Q915.472 802.089 914.395 801.233 Q913.331 800.365 911.421 800.365 L909.407 800.365 L909.407 798.443 L911.513 798.443 Q913.238 798.443 914.152 797.76 Q915.067 797.066 915.067 795.77 Q915.067 794.439 914.118 793.733 Q913.18 793.015 911.421 793.015 Q910.46 793.015 909.361 793.223 Q908.261 793.432 906.942 793.872 L906.942 791.788 Q908.273 791.418 909.43 791.233 Q910.599 791.048 911.629 791.048 Q914.291 791.048 915.842 792.263 Q917.393 793.466 917.393 795.527 Q917.393 796.962 916.571 797.957 Q915.749 798.941 914.233 799.323 Z" fill="#000000" fill-rule="nonzero" fill-opacity="1" /><path clip-path="url(#clip040)" d="M925.715 791.36 L927.682 791.36 L921.664 810.839 L919.696 810.839 L925.715 791.36 Z" fill="#000000" fill-rule="nonzero" fill-opacity="1" /><path clip-path="url(#clip040)" d="M933.701 791.36 L935.668 791.36 L929.65 810.839 L927.682 810.839 L933.701 791.36 Z" fill="#000000" fill-rule="nonzero" fill-opacity="1" /><path clip-path="url(#clip040)" d="M944.627 793.397 L938.724 802.622 L944.627 802.622 L944.627 793.397 M944.013 791.36 L946.953 791.36 L946.953 802.622 L949.418 802.622 L949.418 804.566 L946.953 804.566 L946.953 808.64 L944.627 808.64 L944.627 804.566 L936.826 804.566 L936.826 802.309 L944.013 791.36 Z" fill="#000000" fill-rule="nonzero" fill-opacity="1" /><path clip-path="url(#clip040)" d="M544.81 806.672 L548.63 806.672 L548.63 793.49 L544.474 794.323 L544.474 792.193 L548.606 791.36 L550.944 791.36 L550.944 806.672 L554.764 806.672 L554.764 808.64 L544.81 808.64 L544.81 806.672 Z" fill="#000000" fill-rule="nonzero" fill-opacity="1" /><path clip-path="url(#clip040)" d="M562.97 791.36 L564.937 791.36 L558.919 810.839 L556.951 810.839 L562.97 791.36 Z" fill="#000000" fill-rule="nonzero" fill-opacity="1" /><path clip-path="url(#clip040)" d="M570.956 791.36 L572.923 791.36 L566.905 810.839 L564.937 810.839 L570.956 791.36 Z" fill="#000000" fill-rule="nonzero" fill-opacity="1" /><path clip-path="url(#clip040)" d="M575.863 806.672 L579.683 806.672 L579.683 793.49 L575.528 794.323 L575.528 792.193 L579.659 791.36 L581.997 791.36 L581.997 806.672 L585.817 806.672 L585.817 808.64 L575.863 808.64 L575.863 806.672 Z" fill="#000000" fill-rule="nonzero" fill-opacity="1" /><path clip-path="url(#clip040)" d="M1645.81 792.899 Q1644 792.899 1643.09 794.682 Q1642.18 796.453 1642.18 800.017 Q1642.18 803.571 1643.09 805.353 Q1644 807.124 1645.81 807.124 Q1647.62 807.124 1648.53 805.353 Q1649.44 803.571 1649.44 800.017 Q1649.44 796.453 1648.53 794.682 Q1647.62 792.899 1645.81 792.899 M1645.81 791.048 Q1648.71 791.048 1650.24 793.351 Q1651.78 795.642 1651.78 800.017 Q1651.78 804.381 1650.24 806.684 Q1648.71 808.976 1645.81 808.976 Q1642.9 808.976 1641.36 806.684 Q1639.83 804.381 1639.83 800.017 Q1639.83 795.642 1641.36 793.351 Q1642.9 791.048 1645.81 791.048 Z" fill="#000000" fill-rule="nonzero" fill-opacity="1" /><path clip-path="url(#clip040)" d="M1662.31 793.397 L1656.41 802.622 L1662.31 802.622 L1662.31 793.397 M1661.7 791.36 L1664.64 791.36 L1664.64 802.622 L1667.1 802.622 L1667.1 804.566 L1664.64 804.566 L1664.64 808.64 L1662.31 808.64 L1662.31 804.566 L1654.51 804.566 L1654.51 802.309 L1661.7 791.36 Z" fill="#000000" fill-rule="nonzero" fill-opacity="1" /><path clip-path="url(#clip040)" d="M734.038 353.205 L737.858 353.205 L737.858 340.022 L733.703 340.856 L733.703 338.726 L737.835 337.893 L740.173 337.893 L740.173 353.205 L743.992 353.205 L743.992 355.173 L734.038 355.173 L734.038 353.205 Z" fill="#000000" fill-rule="nonzero" fill-opacity="1" /><path clip-path="url(#clip040)" d="M755.798 345.856 Q757.476 346.214 758.413 347.349 Q759.362 348.483 759.362 350.149 Q759.362 352.707 757.603 354.108 Q755.844 355.508 752.603 355.508 Q751.515 355.508 750.358 355.288 Q749.212 355.08 747.985 354.652 L747.985 352.395 Q748.957 352.962 750.115 353.251 Q751.272 353.541 752.534 353.541 Q754.733 353.541 755.879 352.673 Q757.036 351.805 757.036 350.149 Q757.036 348.622 755.96 347.765 Q754.895 346.897 752.985 346.897 L750.971 346.897 L750.971 344.976 L753.078 344.976 Q754.802 344.976 755.717 344.293 Q756.631 343.599 756.631 342.302 Q756.631 340.971 755.682 340.265 Q754.744 339.548 752.985 339.548 Q752.024 339.548 750.925 339.756 Q749.825 339.964 748.506 340.404 L748.506 338.321 Q749.837 337.95 750.994 337.765 Q752.163 337.58 753.193 337.58 Q755.855 337.58 757.406 338.795 Q758.957 339.999 758.957 342.059 Q758.957 343.494 758.136 344.49 Q757.314 345.474 755.798 345.856 Z" fill="#000000" fill-rule="nonzero" fill-opacity="1" /><path clip-path="url(#clip040)" d="M736.319 1260.14 L744.478 1260.14 L744.478 1262.11 L733.506 1262.11 L733.506 1260.14 Q734.837 1258.76 737.129 1256.45 Q739.432 1254.12 740.022 1253.45 Q741.145 1252.19 741.585 1251.32 Q742.036 1250.44 742.036 1249.6 Q742.036 1248.22 741.064 1247.35 Q740.103 1246.48 738.552 1246.48 Q737.453 1246.48 736.226 1246.86 Q735.011 1247.25 733.622 1248.02 L733.622 1245.66 Q735.034 1245.09 736.261 1244.8 Q737.487 1244.51 738.506 1244.51 Q741.191 1244.51 742.788 1245.86 Q744.386 1247.2 744.386 1249.45 Q744.386 1250.51 743.981 1251.47 Q743.587 1252.42 742.534 1253.72 Q742.244 1254.05 740.693 1255.66 Q739.143 1257.26 736.319 1260.14 Z" fill="#000000" fill-rule="nonzero" fill-opacity="1" /><path clip-path="url(#clip040)" d="M751.399 1260.14 L759.559 1260.14 L759.559 1262.11 L748.587 1262.11 L748.587 1260.14 Q749.918 1258.76 752.21 1256.45 Q754.513 1254.12 755.103 1253.45 Q756.226 1252.19 756.666 1251.32 Q757.117 1250.44 757.117 1249.6 Q757.117 1248.22 756.145 1247.35 Q755.184 1246.48 753.633 1246.48 Q752.534 1246.48 751.307 1246.86 Q750.092 1247.25 748.703 1248.02 L748.703 1245.66 Q750.115 1245.09 751.342 1244.8 Q752.568 1244.51 753.587 1244.51 Q756.272 1244.51 757.869 1245.86 Q759.467 1247.2 759.467 1249.45 Q759.467 1250.51 759.061 1251.47 Q758.668 1252.42 757.615 1253.72 Q757.325 1254.05 755.774 1255.66 Q754.224 1257.26 751.399 1260.14 Z" fill="#000000" fill-rule="nonzero" fill-opacity="1" /></svg>
