<?xml version="1.0" encoding="utf-8"?>
<svg xmlns="http://www.w3.org/2000/svg" xmlns:xlink="http://www.w3.org/1999/xlink" width="600" height="400" viewBox="0 0 2400 1600">
<defs>
  <clipPath id="clip160">
    <rect x="0" y="0" width="2400" height="1600"/>
  </clipPath>
</defs>
<path clip-path="url(#clip160)" d="M0 1600 L2400 1600 L2400 0 L0 0  Z" fill="#ffffff" fill-rule="evenodd" fill-opacity="1"/>
<defs>
  <clipPath id="clip161">
    <rect x="480" y="0" width="1681" height="1600"/>
  </clipPath>
</defs>
<path clip-path="url(#clip160)" d="M447.244 1552.76 L1952.76 1552.76 L1952.76 47.2441 L447.244 47.2441  Z" fill="#ffffff" fill-rule="evenodd" fill-opacity="1"/>
<defs>
  <clipPath id="clip162">
    <rect x="447" y="47" width="1507" height="1507"/>
  </clipPath>
</defs>
<polyline clip-path="url(#clip162)" style="stroke:#000000; stroke-linecap:round; stroke-linejoin:round; stroke-width:4; stroke-opacity:1; fill:none" points="1725.39,814.306 1738.93,816.415 1752.42,818.488 1765.78,820.489 1778.95,822.382 1791.87,824.131 1804.47,825.701 1816.69,827.055 1828.47,828.156 1839.75,828.97 1850.46,829.461 1860.54,829.591 1869.92,829.326 1878.56,828.635 1886.43,827.53 1893.54,826.047 1899.9,824.222 1905.52,822.092 1910.4,819.692 1914.57,817.058 1918.02,814.226 1920.76,811.233 1922.8,808.113 1924.16,804.904 1924.83,801.641 1924.83,798.359 1924.16,795.096 1922.8,791.887 1920.76,788.767 1918.02,785.774 1914.57,782.942 1910.4,780.308 1905.52,777.908 1899.9,775.778 1893.54,773.953 1886.43,772.47 1878.56,771.365 1869.92,770.674 1860.54,770.409 1850.46,770.539 1839.75,771.03 1828.47,771.844 1816.69,772.945 1804.47,774.299 1791.87,775.869 1778.95,777.618 1765.78,779.511 1752.42,781.512 1738.93,783.585 1725.39,785.694 "/>
<polyline clip-path="url(#clip162)" style="stroke:#000000; stroke-linecap:round; stroke-linejoin:round; stroke-width:4; stroke-opacity:1; fill:none" points="1763.73,797.943 1725.39,785.694 1758.19,762.371 "/>
<polyline clip-path="url(#clip162)" style="stroke:#000000; stroke-linecap:round; stroke-linejoin:round; stroke-width:4; stroke-opacity:1; fill:none" points="1725.39,785.694 1738.93,783.585 "/>
<polyline clip-path="url(#clip162)" style="stroke:#000000; stroke-linecap:round; stroke-linejoin:round; stroke-width:4; stroke-opacity:1; fill:none" points="1200,346.533 1217.3,348.659 1234.58,350.805 1251.8,352.988 1268.93,355.228 1285.95,357.544 1302.83,359.955 1319.54,362.48 1336.05,365.137 1352.34,367.946 1368.38,370.925 1384.13,374.094 1399.58,377.471 1414.68,381.076 1429.42,384.927 1443.77,389.044 1457.69,393.444 1471.16,398.148 1484.15,403.174 1496.64,408.542 1508.59,414.269 1519.98,420.375 1530.78,426.88 1540.95,433.801 1550.48,441.158 1559.34,448.97 1567.51,457.235 1575.05,465.936 1581.96,475.054 1588.28,484.57 1594.04,494.466 1599.26,504.721 1603.97,515.317 1608.21,526.236 1611.99,537.458 1615.36,548.964 1618.33,560.735 1620.93,572.753 1623.19,584.998 1625.15,597.452 1626.82,610.095 1628.24,622.908 1629.43,635.874 1630.43,648.972 1631.26,662.184 1631.95,675.49 1632.52,688.872 1633.01,702.311 1633.45,715.788 1633.85,729.284 "/>
<polyline clip-path="url(#clip162)" style="stroke:#000000; stroke-linecap:round; stroke-linejoin:round; stroke-width:4; stroke-opacity:1; fill:none" points="1650.76,692.76 1633.85,729.284 1614.78,693.841 "/>
<polyline clip-path="url(#clip162)" style="stroke:#000000; stroke-linecap:round; stroke-linejoin:round; stroke-width:4; stroke-opacity:1; fill:none" points="1633.85,729.284 1633.45,715.788 "/>
<polyline clip-path="url(#clip162)" style="stroke:#000000; stroke-linecap:round; stroke-linejoin:round; stroke-width:4; stroke-opacity:1; fill:none" points="1214.31,274.603 1216.42,261.054 1218.49,247.569 1220.49,234.21 1222.38,221.04 1224.13,208.122 1225.7,195.52 1227.05,183.296 1228.16,171.514 1228.97,160.236 1229.46,149.526 1229.59,139.446 1229.33,130.061 1228.63,121.427 1227.53,113.56 1226.05,106.45 1224.22,100.09 1222.09,94.4698 1219.69,89.5823 1217.06,85.4185 1214.23,81.9699 1211.23,79.228 1208.11,77.1843 1204.9,75.8302 1201.64,75.1573 1198.36,75.1574 1195.1,75.8304 1191.89,77.1846 1188.77,79.2285 1185.77,81.9705 1182.94,85.4192 1180.31,89.583 1177.91,94.4705 1175.78,100.09 1173.95,106.451 1172.47,113.56 1171.36,121.428 1170.67,130.061 1170.41,139.446 1170.54,149.525 1171.03,160.235 1171.84,171.512 1172.94,183.294 1174.3,195.517 1175.87,208.119 1177.62,221.036 1179.51,234.205 1181.51,247.563 1183.58,261.048 1185.69,274.596 "/>
<polyline clip-path="url(#clip162)" style="stroke:#000000; stroke-linecap:round; stroke-linejoin:round; stroke-width:4; stroke-opacity:1; fill:none" points="1197.94,236.256 1185.69,274.596 1162.37,241.792 "/>
<polyline clip-path="url(#clip162)" style="stroke:#000000; stroke-linecap:round; stroke-linejoin:round; stroke-width:4; stroke-opacity:1; fill:none" points="1185.69,274.596 1183.58,261.048 "/>
<polyline clip-path="url(#clip162)" style="stroke:#000000; stroke-linecap:round; stroke-linejoin:round; stroke-width:4; stroke-opacity:1; fill:none" points="1200,346.533 1197.87,363.835 1195.73,381.11 1193.54,398.328 1191.3,415.461 1188.99,432.482 1186.58,449.362 1184.05,466.073 1181.4,482.587 1178.59,498.876 1175.61,514.911 1172.44,530.664 1169.06,546.108 1165.46,561.214 1161.61,575.953 1157.49,590.298 1153.09,604.221 1148.38,617.693 1143.36,630.686 1137.99,643.173 1132.26,655.124 1126.16,666.512 1119.65,677.308 1112.73,687.485 1105.37,697.014 1097.56,705.868 1089.3,714.047 1080.6,721.578 1071.48,728.49 1061.96,734.811 1052.07,740.568 1041.81,745.79 1031.22,750.505 1020.3,754.741 1009.08,758.526 997.569,761.889 985.798,764.858 973.78,767.461 961.535,769.725 949.081,771.68 936.438,773.353 923.624,774.773 910.659,775.967 897.561,776.964 884.349,777.792 871.043,778.48 857.66,779.054 844.221,779.544 830.744,779.978 817.248,780.384 "/>
<polyline clip-path="url(#clip162)" style="stroke:#000000; stroke-linecap:round; stroke-linejoin:round; stroke-width:4; stroke-opacity:1; fill:none" points="853.773,797.294 817.248,780.384 852.691,761.31 "/>
<polyline clip-path="url(#clip162)" style="stroke:#000000; stroke-linecap:round; stroke-linejoin:round; stroke-width:4; stroke-opacity:1; fill:none" points="817.248,780.384 830.744,779.978 "/>
<polyline clip-path="url(#clip162)" style="stroke:#000000; stroke-linecap:round; stroke-linejoin:round; stroke-width:4; stroke-opacity:1; fill:none" points="1200,346.533 1210.82,365.736 1221.61,384.932 1232.33,404.114 1242.94,423.275 1253.42,442.409 1263.73,461.507 1273.83,480.564 1283.7,499.573 1293.29,518.526 1302.57,537.416 1311.51,556.237 1320.07,574.981 1328.22,593.642 1335.93,612.212 1343.16,630.686 1349.87,649.055 1356.04,667.312 1361.63,685.452 1366.6,703.467 1370.91,721.349 1374.55,739.093 1377.47,756.69 1379.63,774.135 1381,791.42 1381.56,808.538 1381.3,825.49 1380.25,842.282 1378.44,858.921 1375.92,875.414 1372.71,891.768 1368.86,907.99 1364.38,924.087 1359.33,940.066 1353.73,955.934 1347.61,971.697 1341.02,987.363 1333.98,1002.94 1326.53,1018.43 1318.7,1033.85 1310.53,1049.19 1302.05,1064.48 1293.3,1079.71 1284.31,1094.89 1275.12,1110.02 1265.75,1125.13 1256.25,1140.2 1246.64,1155.26 1236.96,1170.3 1227.25,1185.33 "/>
<polyline clip-path="url(#clip162)" style="stroke:#000000; stroke-linecap:round; stroke-linejoin:round; stroke-width:4; stroke-opacity:1; fill:none" points="1261.91,1164.85 1227.25,1185.33 1231.66,1145.32 "/>
<polyline clip-path="url(#clip162)" style="stroke:#000000; stroke-linecap:round; stroke-linejoin:round; stroke-width:4; stroke-opacity:1; fill:none" points="1227.25,1185.33 1236.96,1170.3 "/>
<polyline clip-path="url(#clip162)" style="stroke:#000000; stroke-linecap:round; stroke-linejoin:round; stroke-width:4; stroke-opacity:1; fill:none" points="746.533,800 748.659,782.697 750.805,765.423 752.988,748.205 755.228,731.071 757.544,714.051 759.955,697.17 762.48,680.459 765.137,663.945 767.946,647.657 770.925,631.622 774.094,615.868 777.471,600.425 781.076,585.319 784.927,570.579 789.044,556.234 793.444,542.312 798.148,528.839 803.174,515.846 808.542,503.36 814.269,491.409 820.375,480.021 826.88,469.225 833.801,459.048 841.158,449.519 848.97,440.665 857.235,432.486 865.936,424.954 875.054,418.042 884.57,411.722 894.466,405.965 904.721,400.743 915.317,396.028 926.236,391.792 937.458,388.006 948.964,384.643 960.735,381.675 972.753,379.072 984.998,376.807 997.452,374.853 1010.09,373.18 1022.91,371.76 1035.87,370.566 1048.97,369.569 1062.18,368.74 1075.49,368.053 1088.87,367.478 1102.31,366.988 1115.79,366.554 1129.28,366.149 "/>
<polyline clip-path="url(#clip162)" style="stroke:#000000; stroke-linecap:round; stroke-linejoin:round; stroke-width:4; stroke-opacity:1; fill:none" points="1092.76,349.238 1129.28,366.149 1093.84,385.222 "/>
<polyline clip-path="url(#clip162)" style="stroke:#000000; stroke-linecap:round; stroke-linejoin:round; stroke-width:4; stroke-opacity:1; fill:none" points="1129.28,366.149 1115.79,366.554 "/>
<polyline clip-path="url(#clip162)" style="stroke:#000000; stroke-linecap:round; stroke-linejoin:round; stroke-width:4; stroke-opacity:1; fill:none" points="746.533,800 748.659,817.303 750.805,834.577 752.988,851.795 755.228,868.929 757.544,885.949 759.955,902.83 762.48,919.541 765.137,936.055 767.946,952.343 770.925,968.378 774.094,984.132 777.471,999.575 781.076,1014.68 784.927,1029.42 789.044,1043.77 793.444,1057.69 798.148,1071.16 803.174,1084.15 808.542,1096.64 814.269,1108.59 820.375,1119.98 826.88,1130.78 833.801,1140.95 841.158,1150.48 848.97,1159.34 857.235,1167.51 865.936,1175.05 875.054,1181.96 884.57,1188.28 894.466,1194.04 904.721,1199.26 915.317,1203.97 926.236,1208.21 937.458,1211.99 948.964,1215.36 960.735,1218.33 972.753,1220.93 984.998,1223.19 997.452,1225.15 1010.09,1226.82 1022.91,1228.24 1035.87,1229.43 1048.97,1230.43 1062.18,1231.26 1075.49,1231.95 1088.87,1232.52 1102.31,1233.01 1115.79,1233.45 1129.28,1233.85 "/>
<polyline clip-path="url(#clip162)" style="stroke:#000000; stroke-linecap:round; stroke-linejoin:round; stroke-width:4; stroke-opacity:1; fill:none" points="1093.84,1214.78 1129.28,1233.85 1092.76,1250.76 "/>
<polyline clip-path="url(#clip162)" style="stroke:#000000; stroke-linecap:round; stroke-linejoin:round; stroke-width:4; stroke-opacity:1; fill:none" points="1129.28,1233.85 1115.79,1233.45 "/>
<polyline clip-path="url(#clip162)" style="stroke:#000000; stroke-linecap:round; stroke-linejoin:round; stroke-width:4; stroke-opacity:1; fill:none" points="1200,1253.47 1189.18,1234.26 1178.39,1215.07 1167.67,1195.89 1157.06,1176.72 1146.58,1157.59 1136.27,1138.49 1126.17,1119.44 1116.3,1100.43 1106.71,1081.47 1097.43,1062.58 1088.49,1043.76 1079.93,1025.02 1071.78,1006.36 1064.07,987.788 1056.84,969.314 1050.13,950.945 1043.96,932.688 1038.37,914.548 1033.4,896.533 1029.09,878.651 1025.45,860.907 1022.53,843.31 1020.37,825.865 1019,808.58 1018.44,791.462 1018.7,774.51 1019.75,757.718 1021.56,741.079 1024.08,724.586 1027.29,708.232 1031.14,692.01 1035.62,675.913 1040.67,659.934 1046.27,644.066 1052.39,628.303 1058.98,612.637 1066.02,597.061 1073.47,581.569 1081.3,566.153 1089.47,550.806 1097.95,535.523 1106.7,520.294 1115.69,505.115 1124.88,489.977 1134.25,474.874 1143.75,459.798 1153.36,444.744 1163.04,429.703 1172.75,414.67 "/>
<polyline clip-path="url(#clip162)" style="stroke:#000000; stroke-linecap:round; stroke-linejoin:round; stroke-width:4; stroke-opacity:1; fill:none" points="1138.09,435.146 1172.75,414.67 1168.34,454.677 "/>
<polyline clip-path="url(#clip162)" style="stroke:#000000; stroke-linecap:round; stroke-linejoin:round; stroke-width:4; stroke-opacity:1; fill:none" points="1172.75,414.67 1163.04,429.703 "/>
<polyline clip-path="url(#clip162)" style="stroke:#000000; stroke-linecap:round; stroke-linejoin:round; stroke-width:4; stroke-opacity:1; fill:none" points="1200,1253.47 1197.87,1236.16 1195.73,1218.89 1193.54,1201.67 1191.3,1184.54 1188.99,1167.52 1186.58,1150.64 1184.05,1133.93 1181.4,1117.41 1178.59,1101.12 1175.61,1085.09 1172.44,1069.34 1169.06,1053.89 1165.46,1038.79 1161.61,1024.05 1157.49,1009.7 1153.09,995.779 1148.38,982.307 1143.36,969.314 1137.99,956.827 1132.26,944.876 1126.16,933.488 1119.65,922.692 1112.73,912.515 1105.37,902.986 1097.56,894.132 1089.3,885.953 1080.6,878.422 1071.48,871.51 1061.96,865.189 1052.07,859.432 1041.81,854.21 1031.22,849.495 1020.3,845.259 1009.08,841.474 997.569,838.111 985.798,835.142 973.78,832.539 961.535,830.275 949.081,828.32 936.438,826.647 923.624,825.227 910.659,824.033 897.561,823.036 884.349,822.208 871.043,821.52 857.66,820.946 844.221,820.456 830.744,820.022 817.248,819.616 "/>
<polyline clip-path="url(#clip162)" style="stroke:#000000; stroke-linecap:round; stroke-linejoin:round; stroke-width:4; stroke-opacity:1; fill:none" points="852.691,838.69 817.248,819.616 853.773,802.706 "/>
<polyline clip-path="url(#clip162)" style="stroke:#000000; stroke-linecap:round; stroke-linejoin:round; stroke-width:4; stroke-opacity:1; fill:none" points="817.248,819.616 830.744,820.022 "/>
<polyline clip-path="url(#clip162)" style="stroke:#000000; stroke-linecap:round; stroke-linejoin:round; stroke-width:4; stroke-opacity:1; fill:none" points="1214.31,1181.54 1210.74,1202.42 1207.22,1223.17 1203.8,1243.68 1200.52,1263.83 1197.43,1283.49 1194.57,1302.54 1192.01,1320.87 1189.77,1338.33 1187.92,1354.83 1186.5,1370.23 1185.55,1384.41 1185.13,1397.25 1185.27,1408.64 1185.96,1418.6 1187.16,1427.17 1188.8,1434.45 1190.85,1440.48 1193.25,1445.34 1195.97,1449.09 1198.94,1451.81 1202.14,1453.56 1205.49,1454.4 1208.97,1454.41 1212.52,1453.64 1216.09,1452.18 1219.64,1450.07 1223.12,1447.37 1226.48,1444.12 1229.67,1440.38 1232.65,1436.2 1235.36,1431.63 1237.77,1426.71 1239.82,1421.51 1241.46,1416.06 1242.65,1410.42 1243.34,1404.64 1243.48,1398.76 1243.06,1392.83 1242.11,1386.86 1240.69,1380.83 1238.84,1374.77 1236.61,1368.68 1234.04,1362.55 1231.19,1356.4 1228.1,1350.23 1224.82,1344.03 1221.39,1337.83 1217.87,1331.62 1214.31,1325.4 "/>
<polyline clip-path="url(#clip162)" style="stroke:#000000; stroke-linecap:round; stroke-linejoin:round; stroke-width:4; stroke-opacity:1; fill:none" points="1216.61,1365.58 1214.31,1325.4 1247.83,1347.67 "/>
<polyline clip-path="url(#clip162)" style="stroke:#000000; stroke-linecap:round; stroke-linejoin:round; stroke-width:4; stroke-opacity:1; fill:none" points="1214.31,1325.4 1217.87,1331.62 "/>
<path clip-path="url(#clip162)" d="M1891.84 819.054 L1957.82 819.054 L1957.82 784.228 L1891.84 784.228 L1891.84 819.054 L1891.84 819.054  Z" fill="#ffffff" fill-rule="evenodd" fill-opacity="1"/>
<polyline clip-path="url(#clip162)" style="stroke:#000000; stroke-linecap:round; stroke-linejoin:round; stroke-width:0; stroke-opacity:0; fill:none" points="1891.84,819.054 1957.82,819.054 1957.82,784.228 1891.84,784.228 1891.84,819.054 "/>
<path clip-path="url(#clip162)" d="M1522 462.419 L1587.99 462.419 L1587.99 427.593 L1522 427.593 L1522 462.419 L1522 462.419  Z" fill="#ffffff" fill-rule="evenodd" fill-opacity="1"/>
<polyline clip-path="url(#clip162)" style="stroke:#000000; stroke-linecap:round; stroke-linejoin:round; stroke-width:0; stroke-opacity:0; fill:none" points="1522,462.419 1587.99,462.419 1587.99,427.593 1522,427.593 1522,462.419 "/>
<path clip-path="url(#clip162)" d="M1168.65 92.5705 L1234.63 92.5705 L1234.63 57.7442 L1168.65 57.7442 L1168.65 92.5705 L1168.65 92.5705  Z" fill="#ffffff" fill-rule="evenodd" fill-opacity="1"/>
<polyline clip-path="url(#clip162)" style="stroke:#000000; stroke-linecap:round; stroke-linejoin:round; stroke-width:0; stroke-opacity:0; fill:none" points="1168.65,92.5705 1234.63,92.5705 1234.63,57.7442 1168.65,57.7442 1168.65,92.5705 "/>
<path clip-path="url(#clip162)" d="M1068.53 718.939 L1134.52 718.939 L1134.52 684.113 L1068.53 684.113 L1068.53 718.939 L1068.53 718.939  Z" fill="#ffffff" fill-rule="evenodd" fill-opacity="1"/>
<polyline clip-path="url(#clip162)" style="stroke:#000000; stroke-linecap:round; stroke-linejoin:round; stroke-width:0; stroke-opacity:0; fill:none" points="1068.53,718.939 1134.52,718.939 1134.52,684.113 1068.53,684.113 1068.53,718.939 "/>
<path clip-path="url(#clip162)" d="M1348.4 817.413 L1414.38 817.413 L1414.38 782.587 L1348.4 782.587 L1348.4 817.413 L1348.4 817.413  Z" fill="#ffffff" fill-rule="evenodd" fill-opacity="1"/>
<polyline clip-path="url(#clip162)" style="stroke:#000000; stroke-linecap:round; stroke-linejoin:round; stroke-width:0; stroke-opacity:0; fill:none" points="1348.4,817.413 1414.38,817.413 1414.38,782.587 1348.4,782.587 1348.4,817.413 "/>
<path clip-path="url(#clip162)" d="M812.015 462.419 L877.998 462.419 L877.998 427.593 L812.015 427.593 L812.015 462.419 L812.015 462.419  Z" fill="#ffffff" fill-rule="evenodd" fill-opacity="1"/>
<polyline clip-path="url(#clip162)" style="stroke:#000000; stroke-linecap:round; stroke-linejoin:round; stroke-width:0; stroke-opacity:0; fill:none" points="812.015,462.419 877.998,462.419 877.998,427.593 812.015,427.593 812.015,462.419 "/>
<path clip-path="url(#clip162)" d="M812.015 1172.41 L877.998 1172.41 L877.998 1137.58 L812.015 1137.58 L812.015 1172.41 L812.015 1172.41  Z" fill="#ffffff" fill-rule="evenodd" fill-opacity="1"/>
<polyline clip-path="url(#clip162)" style="stroke:#000000; stroke-linecap:round; stroke-linejoin:round; stroke-width:0; stroke-opacity:0; fill:none" points="812.015,1172.41 877.998,1172.41 877.998,1137.58 812.015,1137.58 812.015,1172.41 "/>
<path clip-path="url(#clip162)" d="M985.621 817.413 L1051.6 817.413 L1051.6 782.587 L985.621 782.587 L985.621 817.413 L985.621 817.413  Z" fill="#ffffff" fill-rule="evenodd" fill-opacity="1"/>
<polyline clip-path="url(#clip162)" style="stroke:#000000; stroke-linecap:round; stroke-linejoin:round; stroke-width:0; stroke-opacity:0; fill:none" points="985.621,817.413 1051.6,817.413 1051.6,782.587 985.621,782.587 985.621,817.413 "/>
<path clip-path="url(#clip162)" d="M1068.53 915.887 L1134.52 915.887 L1134.52 881.061 L1068.53 881.061 L1068.53 915.887 L1068.53 915.887  Z" fill="#ffffff" fill-rule="evenodd" fill-opacity="1"/>
<polyline clip-path="url(#clip162)" style="stroke:#000000; stroke-linecap:round; stroke-linejoin:round; stroke-width:0; stroke-opacity:0; fill:none" points="1068.53,915.887 1134.52,915.887 1134.52,881.061 1068.53,881.061 1068.53,915.887 "/>
<path clip-path="url(#clip162)" d="M1179.53 1471.06 L1245.51 1471.06 L1245.51 1436.23 L1179.53 1436.23 L1179.53 1471.06 L1179.53 1471.06  Z" fill="#ffffff" fill-rule="evenodd" fill-opacity="1"/>
<polyline clip-path="url(#clip162)" style="stroke:#000000; stroke-linecap:round; stroke-linejoin:round; stroke-width:0; stroke-opacity:0; fill:none" points="1179.53,1471.06 1245.51,1471.06 1245.51,1436.23 1179.53,1436.23 1179.53,1471.06 "/>
<path clip-path="url(#clip162)" d="M1726.85 800 L1726.62 794.169 L1725.93 788.376 L1724.77 782.656 L1723.17 777.045 L1721.13 771.58 L1718.65 766.294 L1715.77 761.221 L1712.49 756.394 L1708.84 751.842 L1704.84 747.595 L1700.51 743.679 L1695.89 740.119 L1691 736.938 L1685.87 734.155 L1680.54 731.789 L1675.03 729.854 L1669.39 728.362 L1663.65 727.324 L1657.84 726.745 L1652.01 726.629 L1646.18 726.977 L1640.4 727.786 L1634.71 729.052 L1629.13 730.767 L1623.71 732.919 L1618.47 735.496 L1613.46 738.48 L1608.7 741.853 L1604.22 745.594 L1600.05 749.679 L1596.22 754.082 L1592.75 758.775 L1589.67 763.729 L1586.99 768.912 L1584.73 774.292 L1582.91 779.834 L1581.53 785.504 L1580.6 791.266 L1580.14 797.082 L1580.14 802.918 L1580.6 808.734 L1581.53 814.496 L1582.91 820.166 L1584.73 825.708 L1586.99 831.088 L1589.67 836.271 L1592.75 841.225 L1596.22 845.918 L1600.05 850.321 L1604.22 854.406 L1608.7 858.147 L1613.46 861.52 L1618.47 864.504 L1623.71 867.081 L1629.13 869.233 L1634.71 870.948 L1640.4 872.214 L1646.18 873.023 L1652.01 873.371 L1657.84 873.255 L1663.65 872.676 L1669.39 871.638 L1675.03 870.146 L1680.54 868.211 L1685.87 865.845 L1691 863.062 L1695.89 859.881 L1700.51 856.321 L1704.84 852.405 L1708.84 848.158 L1712.49 843.606 L1715.77 838.779 L1718.65 833.706 L1721.13 828.42 L1723.17 822.955 L1724.77 817.344 L1725.93 811.624 L1726.62 805.831 L1726.85 800 L1726.85 800  Z" fill="#009af9" fill-rule="evenodd" fill-opacity="1"/>
<polyline clip-path="url(#clip162)" style="stroke:#000000; stroke-linecap:round; stroke-linejoin:round; stroke-width:4; stroke-opacity:1; fill:none" points="1726.85,800 1726.62,794.169 1725.93,788.376 1724.77,782.656 1723.17,777.045 1721.13,771.58 1718.65,766.294 1715.77,761.221 1712.49,756.394 1708.84,751.842 1704.84,747.595 1700.51,743.679 1695.89,740.119 1691,736.938 1685.87,734.155 1680.54,731.789 1675.03,729.854 1669.39,728.362 1663.65,727.324 1657.84,726.745 1652.01,726.629 1646.18,726.977 1640.4,727.786 1634.71,729.052 1629.13,730.767 1623.71,732.919 1618.47,735.496 1613.46,738.48 1608.7,741.853 1604.22,745.594 1600.05,749.679 1596.22,754.082 1592.75,758.775 1589.67,763.729 1586.99,768.912 1584.73,774.292 1582.91,779.834 1581.53,785.504 1580.6,791.266 1580.14,797.082 1580.14,802.918 1580.6,808.734 1581.53,814.496 1582.91,820.166 1584.73,825.708 1586.99,831.088 1589.67,836.271 1592.75,841.225 1596.22,845.918 1600.05,850.321 1604.22,854.406 1608.7,858.147 1613.46,861.52 1618.47,864.504 1623.71,867.081 1629.13,869.233 1634.71,870.948 1640.4,872.214 1646.18,873.023 1652.01,873.371 1657.84,873.255 1663.65,872.676 1669.39,871.638 1675.03,870.146 1680.54,868.211 1685.87,865.845 1691,863.062 1695.89,859.881 1700.51,856.321 1704.84,852.405 1708.84,848.158 1712.49,843.606 1715.77,838.779 1718.65,833.706 1721.13,828.42 1723.17,822.955 1724.77,817.344 1725.93,811.624 1726.62,805.831 1726.85,800 "/>
<path clip-path="url(#clip162)" d="M1273.39 346.533 L1273.15 340.702 L1272.46 334.908 L1271.31 329.188 L1269.7 323.578 L1267.66 318.112 L1265.19 312.827 L1262.3 307.754 L1259.03 302.927 L1255.37 298.375 L1251.37 294.128 L1247.05 290.212 L1242.42 286.652 L1237.53 283.471 L1232.4 280.688 L1227.07 278.322 L1221.56 276.387 L1215.92 274.895 L1210.18 273.856 L1204.37 273.277 L1198.54 273.161 L1192.72 273.509 L1186.94 274.319 L1181.24 275.585 L1175.66 277.299 L1170.24 279.452 L1165 282.028 L1159.99 285.013 L1155.23 288.386 L1150.75 292.127 L1146.58 296.211 L1142.75 300.614 L1139.29 305.308 L1136.2 310.262 L1133.52 315.445 L1131.26 320.825 L1129.44 326.367 L1128.06 332.037 L1127.14 337.798 L1126.67 343.615 L1126.67 349.45 L1127.14 355.267 L1128.06 361.028 L1129.44 366.698 L1131.26 372.24 L1133.52 377.62 L1136.2 382.803 L1139.29 387.757 L1142.75 392.451 L1146.58 396.854 L1150.75 400.939 L1155.23 404.679 L1159.99 408.053 L1165 411.037 L1170.24 413.613 L1175.66 415.766 L1181.24 417.48 L1186.94 418.747 L1192.72 419.556 L1198.54 419.904 L1204.37 419.788 L1210.18 419.209 L1215.92 418.17 L1221.56 416.679 L1227.07 414.744 L1232.4 412.377 L1237.53 409.595 L1242.42 406.413 L1247.05 402.853 L1251.37 398.938 L1255.37 394.69 L1259.03 390.139 L1262.3 385.311 L1265.19 380.239 L1267.66 374.953 L1269.7 369.487 L1271.31 363.877 L1272.46 358.157 L1273.15 352.363 L1273.39 346.533 L1273.39 346.533  Z" fill="#009af9" fill-rule="evenodd" fill-opacity="1"/>
<polyline clip-path="url(#clip162)" style="stroke:#000000; stroke-linecap:round; stroke-linejoin:round; stroke-width:4; stroke-opacity:1; fill:none" points="1273.39,346.533 1273.15,340.702 1272.46,334.908 1271.31,329.188 1269.7,323.578 1267.66,318.112 1265.19,312.827 1262.3,307.754 1259.03,302.927 1255.37,298.375 1251.37,294.128 1247.05,290.212 1242.42,286.652 1237.53,283.471 1232.4,280.688 1227.07,278.322 1221.56,276.387 1215.92,274.895 1210.18,273.856 1204.37,273.277 1198.54,273.161 1192.72,273.509 1186.94,274.319 1181.24,275.585 1175.66,277.299 1170.24,279.452 1165,282.028 1159.99,285.013 1155.23,288.386 1150.75,292.127 1146.58,296.211 1142.75,300.614 1139.29,305.308 1136.2,310.262 1133.52,315.445 1131.26,320.825 1129.44,326.367 1128.06,332.037 1127.14,337.798 1126.67,343.615 1126.67,349.45 1127.14,355.267 1128.06,361.028 1129.44,366.698 1131.26,372.24 1133.52,377.62 1136.2,382.803 1139.29,387.757 1142.75,392.451 1146.58,396.854 1150.75,400.939 1155.23,404.679 1159.99,408.053 1165,411.037 1170.24,413.613 1175.66,415.766 1181.24,417.48 1186.94,418.747 1192.72,419.556 1198.54,419.904 1204.37,419.788 1210.18,419.209 1215.92,418.17 1221.56,416.679 1227.07,414.744 1232.4,412.377 1237.53,409.595 1242.42,406.413 1247.05,402.853 1251.37,398.938 1255.37,394.69 1259.03,390.139 1262.3,385.311 1265.19,380.239 1267.66,374.953 1269.7,369.487 1271.31,363.877 1272.46,358.157 1273.15,352.363 1273.39,346.533 "/>
<path clip-path="url(#clip162)" d="M819.918 800 L819.686 794.169 L818.992 788.376 L817.839 782.656 L816.236 777.045 L814.192 771.58 L811.72 766.294 L808.836 761.221 L805.558 756.394 L801.907 751.842 L797.906 747.595 L793.58 743.679 L788.956 740.119 L784.065 736.938 L778.936 734.155 L773.602 731.789 L768.097 729.854 L762.456 728.362 L756.714 727.324 L750.907 726.745 L745.074 726.629 L739.249 726.977 L733.47 727.786 L727.774 729.052 L722.196 730.767 L716.773 732.919 L711.537 735.496 L706.523 738.48 L701.762 741.853 L697.283 745.594 L693.117 749.679 L689.287 754.082 L685.82 758.775 L682.737 763.729 L680.057 768.912 L677.797 774.292 L675.972 779.834 L674.593 785.504 L673.668 791.266 L673.205 797.082 L673.205 802.918 L673.668 808.734 L674.593 814.496 L675.972 820.166 L677.797 825.708 L680.057 831.088 L682.737 836.271 L685.82 841.225 L689.287 845.918 L693.117 850.321 L697.283 854.406 L701.762 858.147 L706.523 861.52 L711.537 864.504 L716.773 867.081 L722.196 869.233 L727.774 870.948 L733.47 872.214 L739.249 873.023 L745.074 873.371 L750.907 873.255 L756.714 872.676 L762.456 871.638 L768.097 870.146 L773.602 868.211 L778.936 865.845 L784.065 863.062 L788.956 859.881 L793.58 856.321 L797.906 852.405 L801.907 848.158 L805.558 843.606 L808.836 838.779 L811.72 833.706 L814.192 828.42 L816.236 822.955 L817.839 817.344 L818.992 811.624 L819.686 805.831 L819.918 800 L819.918 800  Z" fill="#009af9" fill-rule="evenodd" fill-opacity="1"/>
<polyline clip-path="url(#clip162)" style="stroke:#000000; stroke-linecap:round; stroke-linejoin:round; stroke-width:4; stroke-opacity:1; fill:none" points="819.918,800 819.686,794.169 818.992,788.376 817.839,782.656 816.236,777.045 814.192,771.58 811.72,766.294 808.836,761.221 805.558,756.394 801.907,751.842 797.906,747.595 793.58,743.679 788.956,740.119 784.065,736.938 778.936,734.155 773.602,731.789 768.097,729.854 762.456,728.362 756.714,727.324 750.907,726.745 745.074,726.629 739.249,726.977 733.47,727.786 727.774,729.052 722.196,730.767 716.773,732.919 711.537,735.496 706.523,738.48 701.762,741.853 697.283,745.594 693.117,749.679 689.287,754.082 685.82,758.775 682.737,763.729 680.057,768.912 677.797,774.292 675.972,779.834 674.593,785.504 673.668,791.266 673.205,797.082 673.205,802.918 673.668,808.734 674.593,814.496 675.972,820.166 677.797,825.708 680.057,831.088 682.737,836.271 685.82,841.225 689.287,845.918 693.117,850.321 697.283,854.406 701.762,858.147 706.523,861.52 711.537,864.504 716.773,867.081 722.196,869.233 727.774,870.948 733.47,872.214 739.249,873.023 745.074,873.371 750.907,873.255 756.714,872.676 762.456,871.638 768.097,870.146 773.602,868.211 778.936,865.845 784.065,863.062 788.956,859.881 793.58,856.321 797.906,852.405 801.907,848.158 805.558,843.606 808.836,838.779 811.72,833.706 814.192,828.42 816.236,822.955 817.839,817.344 818.992,811.624 819.686,805.831 819.918,800 "/>
<path clip-path="url(#clip162)" d="M1273.39 1253.47 L1273.15 1247.64 L1272.46 1241.84 L1271.31 1236.12 L1269.7 1230.51 L1267.66 1225.05 L1265.19 1219.76 L1262.3 1214.69 L1259.03 1209.86 L1255.37 1205.31 L1251.37 1201.06 L1247.05 1197.15 L1242.42 1193.59 L1237.53 1190.41 L1232.4 1187.62 L1227.07 1185.26 L1221.56 1183.32 L1215.92 1181.83 L1210.18 1180.79 L1204.37 1180.21 L1198.54 1180.1 L1192.72 1180.44 L1186.94 1181.25 L1181.24 1182.52 L1175.66 1184.23 L1170.24 1186.39 L1165 1188.96 L1159.99 1191.95 L1155.23 1195.32 L1150.75 1199.06 L1146.58 1203.15 L1142.75 1207.55 L1139.29 1212.24 L1136.2 1217.2 L1133.52 1222.38 L1131.26 1227.76 L1129.44 1233.3 L1128.06 1238.97 L1127.14 1244.73 L1126.67 1250.55 L1126.67 1256.38 L1127.14 1262.2 L1128.06 1267.96 L1129.44 1273.63 L1131.26 1279.18 L1133.52 1284.56 L1136.2 1289.74 L1139.29 1294.69 L1142.75 1299.39 L1146.58 1303.79 L1150.75 1307.87 L1155.23 1311.61 L1159.99 1314.99 L1165 1317.97 L1170.24 1320.55 L1175.66 1322.7 L1181.24 1324.42 L1186.94 1325.68 L1192.72 1326.49 L1198.54 1326.84 L1204.37 1326.72 L1210.18 1326.14 L1215.92 1325.1 L1221.56 1323.61 L1227.07 1321.68 L1232.4 1319.31 L1237.53 1316.53 L1242.42 1313.35 L1247.05 1309.79 L1251.37 1305.87 L1255.37 1301.63 L1259.03 1297.07 L1262.3 1292.25 L1265.19 1287.17 L1267.66 1281.89 L1269.7 1276.42 L1271.31 1270.81 L1272.46 1265.09 L1273.15 1259.3 L1273.39 1253.47 L1273.39 1253.47  Z" fill="#009af9" fill-rule="evenodd" fill-opacity="1"/>
<polyline clip-path="url(#clip162)" style="stroke:#000000; stroke-linecap:round; stroke-linejoin:round; stroke-width:4; stroke-opacity:1; fill:none" points="1273.39,1253.47 1273.15,1247.64 1272.46,1241.84 1271.31,1236.12 1269.7,1230.51 1267.66,1225.05 1265.19,1219.76 1262.3,1214.69 1259.03,1209.86 1255.37,1205.31 1251.37,1201.06 1247.05,1197.15 1242.42,1193.59 1237.53,1190.41 1232.4,1187.62 1227.07,1185.26 1221.56,1183.32 1215.92,1181.83 1210.18,1180.79 1204.37,1180.21 1198.54,1180.1 1192.72,1180.44 1186.94,1181.25 1181.24,1182.52 1175.66,1184.23 1170.24,1186.39 1165,1188.96 1159.99,1191.95 1155.23,1195.32 1150.75,1199.06 1146.58,1203.15 1142.75,1207.55 1139.29,1212.24 1136.2,1217.2 1133.52,1222.38 1131.26,1227.76 1129.44,1233.3 1128.06,1238.97 1127.14,1244.73 1126.67,1250.55 1126.67,1256.38 1127.14,1262.2 1128.06,1267.96 1129.44,1273.63 1131.26,1279.18 1133.52,1284.56 1136.2,1289.74 1139.29,1294.69 1142.75,1299.39 1146.58,1303.79 1150.75,1307.87 1155.23,1311.61 1159.99,1314.99 1165,1317.97 1170.24,1320.55 1175.66,1322.7 1181.24,1324.42 1186.94,1325.68 1192.72,1326.49 1198.54,1326.84 1204.37,1326.72 1210.18,1326.14 1215.92,1325.1 1221.56,1323.61 1227.07,1321.68 1232.4,1319.31 1237.53,1316.53 1242.42,1313.35 1247.05,1309.79 1251.37,1305.87 1255.37,1301.63 1259.03,1297.07 1262.3,1292.25 1265.19,1287.17 1267.66,1281.89 1269.7,1276.42 1271.31,1270.81 1272.46,1265.09 1273.15,1259.3 1273.39,1253.47 "/>
<circle clip-path="url(#clip162)" style="fill:#009af9; stroke:none; fill-opacity:0" cx="1653.47" cy="800" r="2"/>
<circle clip-path="url(#clip162)" style="fill:#009af9; stroke:none; fill-opacity:0" cx="1200" cy="346.533" r="2"/>
<circle clip-path="url(#clip162)" style="fill:#009af9; stroke:none; fill-opacity:0" cx="746.533" cy="800" r="2"/>
<circle clip-path="url(#clip162)" style="fill:#009af9; stroke:none; fill-opacity:0" cx="1200" cy="1253.47" r="2"/>
<path clip-path="url(#clip160)" d="M1904.49 808.313 L1908.31 808.313 L1908.31 795.13 L1904.16 795.964 L1904.16 793.834 L1908.29 793.001 L1910.63 793.001 L1910.63 808.313 L1914.45 808.313 L1914.45 810.281 L1904.49 810.281 L1904.49 808.313 Z" fill="#000000" fill-rule="nonzero" fill-opacity="1" /><path clip-path="url(#clip160)" d="M1922.65 793.001 L1924.62 793.001 L1918.6 812.48 L1916.63 812.48 L1922.65 793.001 Z" fill="#000000" fill-rule="nonzero" fill-opacity="1" /><path clip-path="url(#clip160)" d="M1930.64 793.001 L1932.61 793.001 L1926.59 812.48 L1924.62 812.48 L1930.64 793.001 Z" fill="#000000" fill-rule="nonzero" fill-opacity="1" /><path clip-path="url(#clip160)" d="M1935.55 808.313 L1939.37 808.313 L1939.37 795.13 L1935.21 795.964 L1935.21 793.834 L1939.34 793.001 L1941.68 793.001 L1941.68 808.313 L1945.5 808.313 L1945.5 810.281 L1935.55 810.281 L1935.55 808.313 Z" fill="#000000" fill-rule="nonzero" fill-opacity="1" /><path clip-path="url(#clip160)" d="M1534.37 451.679 L1538.19 451.679 L1538.19 438.496 L1534.04 439.329 L1534.04 437.2 L1538.17 436.366 L1540.51 436.366 L1540.51 451.679 L1544.33 451.679 L1544.33 453.646 L1534.37 453.646 L1534.37 451.679 Z" fill="#000000" fill-rule="nonzero" fill-opacity="1" /><path clip-path="url(#clip160)" d="M1552.53 436.366 L1554.5 436.366 L1548.48 455.845 L1546.52 455.845 L1552.53 436.366 Z" fill="#000000" fill-rule="nonzero" fill-opacity="1" /><path clip-path="url(#clip160)" d="M1560.52 436.366 L1562.49 436.366 L1556.47 455.845 L1554.5 455.845 L1560.52 436.366 Z" fill="#000000" fill-rule="nonzero" fill-opacity="1" /><path clip-path="url(#clip160)" d="M1570.02 445.44 Q1568.36 445.44 1567.4 446.332 Q1566.45 447.223 1566.45 448.785 Q1566.45 450.348 1567.4 451.239 Q1568.36 452.13 1570.02 452.13 Q1571.69 452.13 1572.65 451.239 Q1573.61 450.336 1573.61 448.785 Q1573.61 447.223 1572.65 446.332 Q1571.7 445.44 1570.02 445.44 M1567.68 444.445 Q1566.18 444.075 1565.34 443.045 Q1564.5 442.014 1564.5 440.533 Q1564.5 438.461 1565.97 437.258 Q1567.45 436.054 1570.02 436.054 Q1572.6 436.054 1574.07 437.258 Q1575.54 438.461 1575.54 440.533 Q1575.54 442.014 1574.7 443.045 Q1573.87 444.075 1572.37 444.445 Q1574.06 444.839 1575 445.984 Q1575.95 447.13 1575.95 448.785 Q1575.95 451.297 1574.41 452.639 Q1572.88 453.982 1570.02 453.982 Q1567.16 453.982 1565.62 452.639 Q1564.1 451.297 1564.1 448.785 Q1564.1 447.13 1565.05 445.984 Q1565.99 444.839 1567.68 444.445 M1566.83 440.753 Q1566.83 442.095 1567.66 442.848 Q1568.51 443.6 1570.02 443.6 Q1571.53 443.6 1572.37 442.848 Q1573.23 442.095 1573.23 440.753 Q1573.23 439.41 1572.37 438.658 Q1571.53 437.906 1570.02 437.906 Q1568.51 437.906 1567.66 438.658 Q1566.83 439.41 1566.83 440.753 Z" fill="#000000" fill-rule="nonzero" fill-opacity="1" /><path clip-path="url(#clip160)" d="M1181.02 81.8297 L1184.84 81.8297 L1184.84 68.6469 L1180.69 69.4803 L1180.69 67.3506 L1184.82 66.5173 L1187.16 66.5173 L1187.16 81.8297 L1190.97 81.8297 L1190.97 83.7973 L1181.02 83.7973 L1181.02 81.8297 Z" fill="#000000" fill-rule="nonzero" fill-opacity="1" /><path clip-path="url(#clip160)" d="M1199.18 66.5173 L1201.15 66.5173 L1195.13 85.9964 L1193.16 85.9964 L1199.18 66.5173 Z" fill="#000000" fill-rule="nonzero" fill-opacity="1" /><path clip-path="url(#clip160)" d="M1207.17 66.5173 L1209.13 66.5173 L1203.12 85.9964 L1201.15 85.9964 L1207.17 66.5173 Z" fill="#000000" fill-rule="nonzero" fill-opacity="1" /><path clip-path="url(#clip160)" d="M1216.67 75.5913 Q1215 75.5913 1214.04 76.4825 Q1213.09 77.3737 1213.09 78.9362 Q1213.09 80.4987 1214.04 81.3899 Q1215 82.2811 1216.67 82.2811 Q1218.34 82.2811 1219.3 81.3899 Q1220.26 80.4871 1220.26 78.9362 Q1220.26 77.3737 1219.3 76.4825 Q1218.35 75.5913 1216.67 75.5913 M1214.33 74.596 Q1212.83 74.2256 1211.98 73.1955 Q1211.15 72.1654 1211.15 70.684 Q1211.15 68.6122 1212.62 67.4085 Q1214.1 66.2048 1216.67 66.2048 Q1219.25 66.2048 1220.72 67.4085 Q1222.19 68.6122 1222.19 70.684 Q1222.19 72.1654 1221.34 73.1955 Q1220.51 74.2256 1219.02 74.596 Q1220.71 74.9895 1221.65 76.1353 Q1222.59 77.2811 1222.59 78.9362 Q1222.59 81.4478 1221.06 82.7904 Q1219.53 84.133 1216.67 84.133 Q1213.81 84.133 1212.27 82.7904 Q1210.74 81.4478 1210.74 78.9362 Q1210.74 77.2811 1211.69 76.1353 Q1212.64 74.9895 1214.33 74.596 M1213.47 70.9039 Q1213.47 72.2464 1214.31 72.9988 Q1215.15 73.7511 1216.67 73.7511 Q1218.17 73.7511 1219.02 72.9988 Q1219.87 72.2464 1219.87 70.9039 Q1219.87 69.5613 1219.02 68.809 Q1218.17 68.0567 1216.67 68.0567 Q1215.15 68.0567 1214.31 68.809 Q1213.47 69.5613 1213.47 70.9039 Z" fill="#000000" fill-rule="nonzero" fill-opacity="1" /><path clip-path="url(#clip160)" d="M1087.98 700.849 Q1089.66 701.208 1090.6 702.342 Q1091.55 703.476 1091.55 705.143 Q1091.55 707.701 1089.79 709.101 Q1088.03 710.502 1084.79 710.502 Q1083.7 710.502 1082.54 710.282 Q1081.4 710.074 1080.17 709.645 L1080.17 707.388 Q1081.14 707.956 1082.3 708.245 Q1083.46 708.534 1084.72 708.534 Q1086.92 708.534 1088.07 707.666 Q1089.22 706.798 1089.22 705.143 Q1089.22 703.615 1088.15 702.759 Q1087.08 701.891 1085.17 701.891 L1083.16 701.891 L1083.16 699.97 L1085.26 699.97 Q1086.99 699.97 1087.9 699.287 Q1088.82 698.592 1088.82 697.296 Q1088.82 695.965 1087.87 695.259 Q1086.93 694.541 1085.17 694.541 Q1084.21 694.541 1083.11 694.75 Q1082.01 694.958 1080.69 695.398 L1080.69 693.314 Q1082.02 692.944 1083.18 692.759 Q1084.35 692.574 1085.38 692.574 Q1088.04 692.574 1089.59 693.789 Q1091.14 694.993 1091.14 697.053 Q1091.14 698.488 1090.32 699.483 Q1089.5 700.467 1087.98 700.849 Z" fill="#000000" fill-rule="nonzero" fill-opacity="1" /><path clip-path="url(#clip160)" d="M1099.47 692.886 L1101.43 692.886 L1095.42 712.365 L1093.45 712.365 L1099.47 692.886 Z" fill="#000000" fill-rule="nonzero" fill-opacity="1" /><path clip-path="url(#clip160)" d="M1107.45 692.886 L1109.42 692.886 L1103.4 712.365 L1101.43 712.365 L1107.45 692.886 Z" fill="#000000" fill-rule="nonzero" fill-opacity="1" /><path clip-path="url(#clip160)" d="M1116.95 701.96 Q1115.29 701.96 1114.33 702.851 Q1113.38 703.743 1113.38 705.305 Q1113.38 706.868 1114.33 707.759 Q1115.29 708.65 1116.95 708.65 Q1118.62 708.65 1119.58 707.759 Q1120.54 706.856 1120.54 705.305 Q1120.54 703.743 1119.58 702.851 Q1118.63 701.96 1116.95 701.96 M1114.62 700.965 Q1113.11 700.595 1112.27 699.564 Q1111.43 698.534 1111.43 697.053 Q1111.43 694.981 1112.9 693.777 Q1114.38 692.574 1116.95 692.574 Q1119.54 692.574 1121.01 693.777 Q1122.48 694.981 1122.48 697.053 Q1122.48 698.534 1121.63 699.564 Q1120.8 700.595 1119.3 700.965 Q1120.99 701.358 1121.93 702.504 Q1122.88 703.65 1122.88 705.305 Q1122.88 707.817 1121.34 709.159 Q1119.81 710.502 1116.95 710.502 Q1114.1 710.502 1112.56 709.159 Q1111.03 707.817 1111.03 705.305 Q1111.03 703.65 1111.98 702.504 Q1112.93 701.358 1114.62 700.965 M1113.76 697.273 Q1113.76 698.615 1114.59 699.368 Q1115.44 700.12 1116.95 700.12 Q1118.46 700.12 1119.3 699.368 Q1120.16 698.615 1120.16 697.273 Q1120.16 695.93 1119.3 695.178 Q1118.46 694.426 1116.95 694.426 Q1115.44 694.426 1114.59 695.178 Q1113.76 695.93 1113.76 697.273 Z" fill="#000000" fill-rule="nonzero" fill-opacity="1" /><path clip-path="url(#clip160)" d="M1367.85 799.323 Q1369.52 799.682 1370.46 800.816 Q1371.41 801.95 1371.41 803.617 Q1371.41 806.175 1369.65 807.575 Q1367.89 808.976 1364.65 808.976 Q1363.56 808.976 1362.41 808.756 Q1361.26 808.547 1360.03 808.119 L1360.03 805.862 Q1361.01 806.429 1362.16 806.719 Q1363.32 807.008 1364.58 807.008 Q1366.78 807.008 1367.93 806.14 Q1369.08 805.272 1369.08 803.617 Q1369.08 802.089 1368.01 801.233 Q1366.94 800.365 1365.03 800.365 L1363.02 800.365 L1363.02 798.443 L1365.13 798.443 Q1366.85 798.443 1367.76 797.76 Q1368.68 797.066 1368.68 795.77 Q1368.68 794.439 1367.73 793.733 Q1366.79 793.015 1365.03 793.015 Q1364.07 793.015 1362.97 793.223 Q1361.87 793.432 1360.55 793.872 L1360.55 791.788 Q1361.88 791.418 1363.04 791.233 Q1364.21 791.048 1365.24 791.048 Q1367.9 791.048 1369.45 792.263 Q1371.01 793.466 1371.01 795.527 Q1371.01 796.962 1370.18 797.957 Q1369.36 798.941 1367.85 799.323 Z" fill="#000000" fill-rule="nonzero" fill-opacity="1" /><path clip-path="url(#clip160)" d="M1379.33 791.36 L1381.29 791.36 L1375.28 810.839 L1373.31 810.839 L1379.33 791.36 Z" fill="#000000" fill-rule="nonzero" fill-opacity="1" /><path clip-path="url(#clip160)" d="M1387.31 791.36 L1389.28 791.36 L1383.26 810.839 L1381.29 810.839 L1387.31 791.36 Z" fill="#000000" fill-rule="nonzero" fill-opacity="1" /><path clip-path="url(#clip160)" d="M1396.82 800.434 Q1395.15 800.434 1394.19 801.325 Q1393.24 802.216 1393.24 803.779 Q1393.24 805.341 1394.19 806.233 Q1395.15 807.124 1396.82 807.124 Q1398.48 807.124 1399.44 806.233 Q1400.4 805.33 1400.4 803.779 Q1400.4 802.216 1399.44 801.325 Q1398.49 800.434 1396.82 800.434 M1394.48 799.439 Q1392.97 799.068 1392.13 798.038 Q1391.29 797.008 1391.29 795.527 Q1391.29 793.455 1392.76 792.251 Q1394.25 791.048 1396.82 791.048 Q1399.4 791.048 1400.87 792.251 Q1402.34 793.455 1402.34 795.527 Q1402.34 797.008 1401.49 798.038 Q1400.66 799.068 1399.16 799.439 Q1400.85 799.832 1401.79 800.978 Q1402.74 802.124 1402.74 803.779 Q1402.74 806.29 1401.2 807.633 Q1399.67 808.976 1396.82 808.976 Q1393.96 808.976 1392.42 807.633 Q1390.89 806.29 1390.89 803.779 Q1390.89 802.124 1391.84 800.978 Q1392.79 799.832 1394.48 799.439 M1393.62 795.747 Q1393.62 797.089 1394.45 797.841 Q1395.3 798.594 1396.82 798.594 Q1398.32 798.594 1399.16 797.841 Q1400.02 797.089 1400.02 795.747 Q1400.02 794.404 1399.16 793.652 Q1398.32 792.899 1396.82 792.899 Q1395.3 792.899 1394.45 793.652 Q1393.62 794.404 1393.62 795.747 Z" fill="#000000" fill-rule="nonzero" fill-opacity="1" /><path clip-path="url(#clip160)" d="M824.763 451.679 L828.583 451.679 L828.583 438.496 L824.428 439.329 L824.428 437.2 L828.56 436.366 L830.898 436.366 L830.898 451.679 L834.717 451.679 L834.717 453.646 L824.763 453.646 L824.763 451.679 Z" fill="#000000" fill-rule="nonzero" fill-opacity="1" /><path clip-path="url(#clip160)" d="M842.923 436.366 L844.891 436.366 L838.872 455.845 L836.905 455.845 L842.923 436.366 Z" fill="#000000" fill-rule="nonzero" fill-opacity="1" /><path clip-path="url(#clip160)" d="M850.909 436.366 L852.877 436.366 L846.858 455.845 L844.891 455.845 L850.909 436.366 Z" fill="#000000" fill-rule="nonzero" fill-opacity="1" /><path clip-path="url(#clip160)" d="M857.425 451.679 L865.585 451.679 L865.585 453.646 L854.613 453.646 L854.613 451.679 Q855.944 450.301 858.235 447.987 Q860.539 445.66 861.129 444.989 Q862.252 443.727 862.691 442.859 Q863.143 441.98 863.143 441.135 Q863.143 439.758 862.171 438.889 Q861.21 438.021 859.659 438.021 Q858.56 438.021 857.333 438.403 Q856.117 438.785 854.729 439.561 L854.729 437.2 Q856.141 436.633 857.367 436.343 Q858.594 436.054 859.613 436.054 Q862.298 436.054 863.895 437.396 Q865.492 438.739 865.492 440.984 Q865.492 442.049 865.087 443.01 Q864.694 443.959 863.64 445.255 Q863.351 445.591 861.8 447.2 Q860.249 448.797 857.425 451.679 Z" fill="#000000" fill-rule="nonzero" fill-opacity="1" /><path clip-path="url(#clip160)" d="M824.763 1161.67 L828.583 1161.67 L828.583 1148.48 L824.428 1149.32 L824.428 1147.19 L828.56 1146.35 L830.898 1146.35 L830.898 1161.67 L834.717 1161.67 L834.717 1163.63 L824.763 1163.63 L824.763 1161.67 Z" fill="#000000" fill-rule="nonzero" fill-opacity="1" /><path clip-path="url(#clip160)" d="M842.923 1146.35 L844.891 1146.35 L838.872 1165.83 L836.905 1165.83 L842.923 1146.35 Z" fill="#000000" fill-rule="nonzero" fill-opacity="1" /><path clip-path="url(#clip160)" d="M850.909 1146.35 L852.877 1146.35 L846.858 1165.83 L844.891 1165.83 L850.909 1146.35 Z" fill="#000000" fill-rule="nonzero" fill-opacity="1" /><path clip-path="url(#clip160)" d="M857.425 1161.67 L865.585 1161.67 L865.585 1163.63 L854.613 1163.63 L854.613 1161.67 Q855.944 1160.29 858.235 1157.97 Q860.539 1155.65 861.129 1154.98 Q862.252 1153.71 862.691 1152.85 Q863.143 1151.97 863.143 1151.12 Q863.143 1149.74 862.171 1148.88 Q861.21 1148.01 859.659 1148.01 Q858.56 1148.01 857.333 1148.39 Q856.117 1148.77 854.729 1149.55 L854.729 1147.19 Q856.141 1146.62 857.367 1146.33 Q858.594 1146.04 859.613 1146.04 Q862.298 1146.04 863.895 1147.38 Q865.492 1148.73 865.492 1150.97 Q865.492 1152.04 865.087 1153 Q864.694 1153.95 863.64 1155.24 Q863.351 1155.58 861.8 1157.19 Q860.249 1158.78 857.425 1161.67 Z" fill="#000000" fill-rule="nonzero" fill-opacity="1" /><path clip-path="url(#clip160)" d="M997.849 806.672 L1001.67 806.672 L1001.67 793.49 L997.514 794.323 L997.514 792.193 L1001.65 791.36 L1003.98 791.36 L1003.98 806.672 L1007.8 806.672 L1007.8 808.64 L997.849 808.64 L997.849 806.672 Z" fill="#000000" fill-rule="nonzero" fill-opacity="1" /><path clip-path="url(#clip160)" d="M1016.01 791.36 L1017.98 791.36 L1011.96 810.839 L1009.99 810.839 L1016.01 791.36 Z" fill="#000000" fill-rule="nonzero" fill-opacity="1" /><path clip-path="url(#clip160)" d="M1023.99 791.36 L1025.96 791.36 L1019.94 810.839 L1017.98 810.839 L1023.99 791.36 Z" fill="#000000" fill-rule="nonzero" fill-opacity="1" /><path clip-path="url(#clip160)" d="M1034.92 793.397 L1029.02 802.622 L1034.92 802.622 L1034.92 793.397 M1034.31 791.36 L1037.25 791.36 L1037.25 802.622 L1039.71 802.622 L1039.71 804.566 L1037.25 804.566 L1037.25 808.64 L1034.92 808.64 L1034.92 804.566 L1027.12 804.566 L1027.12 802.309 L1034.31 791.36 Z" fill="#000000" fill-rule="nonzero" fill-opacity="1" /><path clip-path="url(#clip160)" d="M1080.76 905.146 L1084.58 905.146 L1084.58 891.963 L1080.43 892.797 L1080.43 890.667 L1084.56 889.834 L1086.9 889.834 L1086.9 905.146 L1090.72 905.146 L1090.72 907.114 L1080.76 907.114 L1080.76 905.146 Z" fill="#000000" fill-rule="nonzero" fill-opacity="1" /><path clip-path="url(#clip160)" d="M1098.92 889.834 L1100.89 889.834 L1094.87 909.313 L1092.9 909.313 L1098.92 889.834 Z" fill="#000000" fill-rule="nonzero" fill-opacity="1" /><path clip-path="url(#clip160)" d="M1106.91 889.834 L1108.88 889.834 L1102.86 909.313 L1100.89 909.313 L1106.91 889.834 Z" fill="#000000" fill-rule="nonzero" fill-opacity="1" /><path clip-path="url(#clip160)" d="M1117.83 891.871 L1111.93 901.095 L1117.83 901.095 L1117.83 891.871 M1117.22 889.834 L1120.16 889.834 L1120.16 901.095 L1122.63 901.095 L1122.63 903.04 L1120.16 903.04 L1120.16 907.114 L1117.83 907.114 L1117.83 903.04 L1110.03 903.04 L1110.03 900.783 L1117.22 889.834 Z" fill="#000000" fill-rule="nonzero" fill-opacity="1" /><path clip-path="url(#clip160)" d="M1192.28 1460.31 L1196.1 1460.31 L1196.1 1447.13 L1191.94 1447.97 L1191.94 1445.84 L1196.07 1445 L1198.41 1445 L1198.41 1460.31 L1202.23 1460.31 L1202.23 1462.28 L1192.28 1462.28 L1192.28 1460.31 Z" fill="#000000" fill-rule="nonzero" fill-opacity="1" /><path clip-path="url(#clip160)" d="M1210.44 1445 L1212.41 1445 L1206.39 1464.48 L1204.42 1464.48 L1210.44 1445 Z" fill="#000000" fill-rule="nonzero" fill-opacity="1" /><path clip-path="url(#clip160)" d="M1218.42 1445 L1220.39 1445 L1214.37 1464.48 L1212.41 1464.48 L1218.42 1445 Z" fill="#000000" fill-rule="nonzero" fill-opacity="1" /><path clip-path="url(#clip160)" d="M1224.94 1460.31 L1233.1 1460.31 L1233.1 1462.28 L1222.13 1462.28 L1222.13 1460.31 Q1223.46 1458.94 1225.75 1456.62 Q1228.05 1454.3 1228.64 1453.62 Q1229.77 1452.36 1230.21 1451.5 Q1230.66 1450.62 1230.66 1449.77 Q1230.66 1448.39 1229.69 1447.53 Q1228.72 1446.66 1227.17 1446.66 Q1226.07 1446.66 1224.85 1447.04 Q1223.63 1447.42 1222.24 1448.2 L1222.24 1445.84 Q1223.66 1445.27 1224.88 1444.98 Q1226.11 1444.69 1227.13 1444.69 Q1229.81 1444.69 1231.41 1446.03 Q1233.01 1447.37 1233.01 1449.62 Q1233.01 1450.68 1232.6 1451.65 Q1232.21 1452.59 1231.16 1453.89 Q1230.87 1454.23 1229.32 1455.84 Q1227.76 1457.43 1224.94 1460.31 Z" fill="#000000" fill-rule="nonzero" fill-opacity="1" /><path clip-path="url(#clip160)" d="M1638.26 792.899 Q1636.46 792.899 1635.55 794.682 Q1634.64 796.453 1634.64 800.017 Q1634.64 803.571 1635.55 805.353 Q1636.46 807.124 1638.26 807.124 Q1640.08 807.124 1640.98 805.353 Q1641.9 803.571 1641.9 800.017 Q1641.9 796.453 1640.98 794.682 Q1640.08 792.899 1638.26 792.899 M1638.26 791.048 Q1641.17 791.048 1642.7 793.351 Q1644.24 795.642 1644.24 800.017 Q1644.24 804.381 1642.7 806.684 Q1641.17 808.976 1638.26 808.976 Q1635.36 808.976 1633.82 806.684 Q1632.29 804.381 1632.29 800.017 Q1632.29 795.642 1633.82 793.351 Q1635.36 791.048 1638.26 791.048 Z" fill="#000000" fill-rule="nonzero" fill-opacity="1" /><path clip-path="url(#clip160)" d="M1653.35 792.899 Q1651.54 792.899 1650.63 794.682 Q1649.72 796.453 1649.72 800.017 Q1649.72 803.571 1650.63 805.353 Q1651.54 807.124 1653.35 807.124 Q1655.16 807.124 1656.07 805.353 Q1656.98 803.571 1656.98 800.017 Q1656.98 796.453 1656.07 794.682 Q1655.16 792.899 1653.35 792.899 M1653.35 791.048 Q1656.25 791.048 1657.78 793.351 Q1659.32 795.642 1659.32 800.017 Q1659.32 804.381 1657.78 806.684 Q1656.25 808.976 1653.35 808.976 Q1650.44 808.976 1648.9 806.684 Q1647.37 804.381 1647.37 800.017 Q1647.37 795.642 1648.9 793.351 Q1650.44 791.048 1653.35 791.048 Z" fill="#000000" fill-rule="nonzero" fill-opacity="1" /><path clip-path="url(#clip160)" d="M1669.85 793.397 L1663.95 802.622 L1669.85 802.622 L1669.85 793.397 M1669.24 791.36 L1672.18 791.36 L1672.18 802.622 L1674.64 802.622 L1674.64 804.566 L1672.18 804.566 L1672.18 808.64 L1669.85 808.64 L1669.85 804.566 L1662.05 804.566 L1662.05 802.309 L1669.24 791.36 Z" fill="#000000" fill-rule="nonzero" fill-opacity="1" /><path clip-path="url(#clip160)" d="M1185.08 339.432 Q1183.28 339.432 1182.36 341.214 Q1181.46 342.985 1181.46 346.55 Q1181.46 350.103 1182.36 351.886 Q1183.28 353.656 1185.08 353.656 Q1186.9 353.656 1187.8 351.886 Q1188.72 350.103 1188.72 346.55 Q1188.72 342.985 1187.8 341.214 Q1186.9 339.432 1185.08 339.432 M1185.08 337.58 Q1187.99 337.58 1189.51 339.883 Q1191.05 342.175 1191.05 346.55 Q1191.05 350.913 1189.51 353.217 Q1187.99 355.508 1185.08 355.508 Q1182.18 355.508 1180.64 353.217 Q1179.11 350.913 1179.11 346.55 Q1179.11 342.175 1180.64 339.883 Q1182.18 337.58 1185.08 337.58 Z" fill="#000000" fill-rule="nonzero" fill-opacity="1" /><path clip-path="url(#clip160)" d="M1195.57 353.205 L1199.39 353.205 L1199.39 340.022 L1195.23 340.856 L1195.23 338.726 L1199.36 337.893 L1201.7 337.893 L1201.7 353.205 L1205.52 353.205 L1205.52 355.173 L1195.57 355.173 L1195.57 353.205 Z" fill="#000000" fill-rule="nonzero" fill-opacity="1" /><path clip-path="url(#clip160)" d="M1217.33 345.856 Q1219 346.214 1219.94 347.349 Q1220.89 348.483 1220.89 350.149 Q1220.89 352.707 1219.13 354.108 Q1217.37 355.508 1214.13 355.508 Q1213.04 355.508 1211.89 355.288 Q1210.74 355.08 1209.51 354.652 L1209.51 352.395 Q1210.49 352.962 1211.64 353.251 Q1212.8 353.541 1214.06 353.541 Q1216.26 353.541 1217.41 352.673 Q1218.56 351.805 1218.56 350.149 Q1218.56 348.622 1217.49 347.765 Q1216.42 346.897 1214.51 346.897 L1212.5 346.897 L1212.5 344.976 L1214.61 344.976 Q1216.33 344.976 1217.25 344.293 Q1218.16 343.599 1218.16 342.302 Q1218.16 340.971 1217.21 340.265 Q1216.27 339.548 1214.51 339.548 Q1213.55 339.548 1212.45 339.756 Q1211.35 339.964 1210.03 340.404 L1210.03 338.321 Q1211.37 337.95 1212.52 337.765 Q1213.69 337.58 1214.72 337.58 Q1217.38 337.58 1218.94 338.795 Q1220.49 339.999 1220.49 342.059 Q1220.49 343.494 1219.66 344.49 Q1218.84 345.474 1217.33 345.856 Z" fill="#000000" fill-rule="nonzero" fill-opacity="1" /><path clip-path="url(#clip160)" d="M731.851 792.899 Q730.045 792.899 729.131 794.682 Q728.228 796.453 728.228 800.017 Q728.228 803.571 729.131 805.353 Q730.045 807.124 731.851 807.124 Q733.668 807.124 734.571 805.353 Q735.485 803.571 735.485 800.017 Q735.485 796.453 734.571 794.682 Q733.668 792.899 731.851 792.899 M731.851 791.048 Q734.756 791.048 736.284 793.351 Q737.823 795.642 737.823 800.017 Q737.823 804.381 736.284 806.684 Q734.756 808.976 731.851 808.976 Q728.946 808.976 727.407 806.684 Q725.879 804.381 725.879 800.017 Q725.879 795.642 727.407 793.351 Q728.946 791.048 731.851 791.048 Z" fill="#000000" fill-rule="nonzero" fill-opacity="1" /><path clip-path="url(#clip160)" d="M743.946 806.672 L752.105 806.672 L752.105 808.64 L741.133 808.64 L741.133 806.672 Q742.464 805.295 744.756 802.98 Q747.059 800.654 747.649 799.983 Q748.772 798.721 749.212 797.853 Q749.663 796.973 749.663 796.128 Q749.663 794.751 748.691 793.883 Q747.73 793.015 746.18 793.015 Q745.08 793.015 743.853 793.397 Q742.638 793.779 741.249 794.554 L741.249 792.193 Q742.661 791.626 743.888 791.337 Q745.115 791.048 746.133 791.048 Q748.818 791.048 750.416 792.39 Q752.013 793.733 752.013 795.978 Q752.013 797.043 751.608 798.003 Q751.214 798.953 750.161 800.249 Q749.872 800.584 748.321 802.193 Q746.77 803.79 743.946 806.672 Z" fill="#000000" fill-rule="nonzero" fill-opacity="1" /><path clip-path="url(#clip160)" d="M759.027 806.672 L767.186 806.672 L767.186 808.64 L756.214 808.64 L756.214 806.672 Q757.545 805.295 759.837 802.98 Q762.14 800.654 762.73 799.983 Q763.853 798.721 764.293 797.853 Q764.744 796.973 764.744 796.128 Q764.744 794.751 763.772 793.883 Q762.811 793.015 761.261 793.015 Q760.161 793.015 758.934 793.397 Q757.719 793.779 756.33 794.554 L756.33 792.193 Q757.742 791.626 758.969 791.337 Q760.196 791.048 761.214 791.048 Q763.899 791.048 765.497 792.39 Q767.094 793.733 767.094 795.978 Q767.094 797.043 766.689 798.003 Q766.295 798.953 765.242 800.249 Q764.953 800.584 763.402 802.193 Q761.851 803.79 759.027 806.672 Z" fill="#000000" fill-rule="nonzero" fill-opacity="1" /><path clip-path="url(#clip160)" d="M1180.2 1260.14 L1184.02 1260.14 L1184.02 1246.96 L1179.87 1247.79 L1179.87 1245.66 L1184 1244.83 L1186.34 1244.83 L1186.34 1260.14 L1190.16 1260.14 L1190.16 1262.11 L1180.2 1262.11 L1180.2 1260.14 Z" fill="#000000" fill-rule="nonzero" fill-opacity="1" /><path clip-path="url(#clip160)" d="M1195.28 1260.14 L1199.1 1260.14 L1199.1 1246.96 L1194.95 1247.79 L1194.95 1245.66 L1199.08 1244.83 L1201.42 1244.83 L1201.42 1260.14 L1205.24 1260.14 L1205.24 1262.11 L1195.28 1262.11 L1195.28 1260.14 Z" fill="#000000" fill-rule="nonzero" fill-opacity="1" /><path clip-path="url(#clip160)" d="M1211.97 1260.14 L1220.13 1260.14 L1220.13 1262.11 L1209.16 1262.11 L1209.16 1260.14 Q1210.49 1258.76 1212.78 1256.45 Q1215.09 1254.12 1215.68 1253.45 Q1216.8 1252.19 1217.24 1251.32 Q1217.69 1250.44 1217.69 1249.6 Q1217.69 1248.22 1216.72 1247.35 Q1215.76 1246.48 1214.21 1246.48 Q1213.11 1246.48 1211.88 1246.86 Q1210.67 1247.25 1209.28 1248.02 L1209.28 1245.66 Q1210.69 1245.09 1211.92 1244.8 Q1213.14 1244.51 1214.16 1244.51 Q1216.85 1244.51 1218.44 1245.86 Q1220.04 1247.2 1220.04 1249.45 Q1220.04 1250.51 1219.64 1251.47 Q1219.24 1252.42 1218.19 1253.72 Q1217.9 1254.05 1216.35 1255.66 Q1214.8 1257.26 1211.97 1260.14 Z" fill="#000000" fill-rule="nonzero" fill-opacity="1" /></svg>
