<?xml version="1.0" encoding="utf-8"?>
<svg xmlns="http://www.w3.org/2000/svg" xmlns:xlink="http://www.w3.org/1999/xlink" width="600" height="400" viewBox="0 0 2400 1600">
<defs>
  <clipPath id="clip130">
    <rect x="0" y="0" width="2400" height="1600"/>
  </clipPath>
</defs>
<path clip-path="url(#clip130)" d="M0 1600 L2400 1600 L2400 0 L0 0  Z" fill="#ffffff" fill-rule="evenodd" fill-opacity="1"/>
<defs>
  <clipPath id="clip131">
    <rect x="480" y="0" width="1681" height="1600"/>
  </clipPath>
</defs>
<path clip-path="url(#clip130)" d="M447.244 1552.76 L1952.76 1552.76 L1952.76 47.2441 L447.244 47.2441  Z" fill="#ffffff" fill-rule="evenodd" fill-opacity="1"/>
<defs>
  <clipPath id="clip132">
    <rect x="447" y="47" width="1507" height="1507"/>
  </clipPath>
</defs>
<polyline clip-path="url(#clip132)" style="stroke:#000000; stroke-linecap:round; stroke-linejoin:round; stroke-width:4; stroke-opacity:1; fill:none" points="1742.51,817.712 1756.06,819.474 1769.54,821.202 1782.9,822.865 1796.07,824.428 1808.99,825.858 1821.59,827.122 1833.81,828.187 1845.6,829.019 1856.87,829.586 1867.58,829.855 1877.66,829.791 1887.05,829.362 1895.68,828.54 1903.55,827.336 1910.66,825.784 1917.02,823.916 1922.64,821.766 1927.53,819.367 1931.69,816.753 1935.14,813.956 1937.88,811.009 1939.92,807.947 1941.28,804.801 1941.95,801.606 1941.95,798.394 1941.28,795.199 1939.92,792.053 1937.88,788.991 1935.14,786.044 1931.69,783.247 1927.53,780.633 1922.64,778.234 1917.02,776.084 1910.66,774.216 1903.55,772.664 1895.68,771.46 1887.05,770.638 1877.66,770.209 1867.58,770.145 1856.87,770.414 1845.6,770.981 1833.81,771.813 1821.59,772.878 1808.99,774.142 1796.07,775.572 1782.9,777.135 1769.54,778.798 1756.06,780.526 1742.51,782.288 "/>
<polyline clip-path="url(#clip132)" style="stroke:#000000; stroke-linecap:round; stroke-linejoin:round; stroke-width:4; stroke-opacity:1; fill:none" points="1780.53,795.495 1742.51,782.288 1775.89,759.796 "/>
<polyline clip-path="url(#clip132)" style="stroke:#000000; stroke-linecap:round; stroke-linejoin:round; stroke-width:4; stroke-opacity:1; fill:none" points="1742.51,782.288 1756.06,780.526 "/>
<polyline clip-path="url(#clip132)" style="stroke:#000000; stroke-linecap:round; stroke-linejoin:round; stroke-width:4; stroke-opacity:1; fill:none" points="746.533,346.533 770.645,346.528 794.735,346.55 818.779,346.625 842.753,346.779 866.637,347.039 890.405,347.431 914.035,347.981 937.505,348.716 960.791,349.662 983.871,350.845 1006.72,352.293 1029.32,354.031 1051.64,356.086 1073.66,358.485 1095.37,361.252 1116.72,364.416 1137.71,368.002 1158.31,372.037 1178.5,376.548 1198.25,381.56 1217.54,387.1 1236.35,393.194 1254.66,399.869 1272.44,407.152 1289.66,415.067 1306.34,423.614 1322.49,432.769 1338.13,442.504 1353.29,452.794 1368,463.612 1382.26,474.932 1396.11,486.727 1409.58,498.971 1422.67,511.637 1435.42,524.699 1447.85,538.131 1459.98,551.906 1471.84,565.997 1483.44,580.38 1494.82,595.026 1505.98,609.91 1516.97,625.005 1527.79,640.285 1538.48,655.723 1549.05,671.293 1559.52,686.969 1569.93,702.724 1580.3,718.532 1590.64,734.366 "/>
<polyline clip-path="url(#clip132)" style="stroke:#000000; stroke-linecap:round; stroke-linejoin:round; stroke-width:4; stroke-opacity:1; fill:none" points="1586.02,694.382 1590.64,734.366 1555.88,714.066 "/>
<polyline clip-path="url(#clip132)" style="stroke:#000000; stroke-linecap:round; stroke-linejoin:round; stroke-width:4; stroke-opacity:1; fill:none" points="1590.64,734.366 1580.3,718.532 "/>
<polyline clip-path="url(#clip132)" style="stroke:#000000; stroke-linecap:round; stroke-linejoin:round; stroke-width:4; stroke-opacity:1; fill:none" points="778.284,431.604 769.424,410.483 760.595,389.503 751.827,368.804 743.152,348.527 734.6,328.812 726.202,309.799 717.99,291.63 709.993,274.444 702.243,258.382 694.771,243.585 687.606,230.193 680.782,218.347 674.325,208.171 668.244,199.645 662.537,192.676 657.201,187.169 652.236,183.031 647.638,180.167 643.406,178.483 639.536,177.885 636.028,178.28 632.879,179.572 630.087,181.669 627.649,184.475 625.564,187.897 623.833,191.848 622.465,196.248 621.464,201.017 620.839,206.077 620.596,211.346 620.742,216.747 621.283,222.198 622.227,227.62 623.579,232.935 625.348,238.061 627.539,242.92 630.16,247.432 633.203,251.553 636.637,255.309 640.425,258.732 644.533,261.857 648.925,264.716 653.565,267.342 658.418,269.77 663.448,272.031 668.62,274.159 673.899,276.187 679.249,278.15 684.634,280.078 "/>
<polyline clip-path="url(#clip132)" style="stroke:#000000; stroke-linecap:round; stroke-linejoin:round; stroke-width:4; stroke-opacity:1; fill:none" points="656.812,250.993 684.634,280.078 644.672,284.884 "/>
<polyline clip-path="url(#clip132)" style="stroke:#000000; stroke-linecap:round; stroke-linejoin:round; stroke-width:4; stroke-opacity:1; fill:none" points="684.634,280.078 679.249,278.15 "/>
<polyline clip-path="url(#clip132)" style="stroke:#000000; stroke-linecap:round; stroke-linejoin:round; stroke-width:4; stroke-opacity:1; fill:none" points="746.533,346.533 757.288,365.901 768.01,385.26 778.665,404.603 789.219,423.92 799.638,443.202 809.89,462.441 819.941,481.629 829.757,500.756 839.304,519.814 848.549,538.795 857.459,557.69 865.999,576.491 874.137,595.188 881.838,613.773 889.07,632.238 895.798,650.574 901.989,668.772 907.61,686.823 912.626,704.72 917.005,722.454 920.713,740.015 923.716,757.396 925.98,774.587 927.473,791.58 928.162,808.367 928.046,824.949 927.159,841.332 925.533,857.526 923.203,873.539 920.201,889.38 916.562,905.057 912.319,920.58 907.505,935.957 902.154,951.195 896.3,966.305 889.976,981.294 883.215,996.172 876.052,1010.95 868.52,1025.63 860.652,1040.22 852.482,1054.73 844.044,1069.18 835.371,1083.57 826.496,1097.9 817.453,1112.2 808.277,1126.45 798.999,1140.69 789.655,1154.9 780.277,1169.11 "/>
<polyline clip-path="url(#clip132)" style="stroke:#000000; stroke-linecap:round; stroke-linejoin:round; stroke-width:4; stroke-opacity:1; fill:none" points="815.132,1148.98 780.277,1169.11 785.088,1129.15 "/>
<polyline clip-path="url(#clip132)" style="stroke:#000000; stroke-linecap:round; stroke-linejoin:round; stroke-width:4; stroke-opacity:1; fill:none" points="780.277,1169.11 789.655,1154.9 "/>
<polyline clip-path="url(#clip132)" style="stroke:#000000; stroke-linecap:round; stroke-linejoin:round; stroke-width:4; stroke-opacity:1; fill:none" points="746.533,1253.47 735.777,1234.1 725.055,1214.74 714.401,1195.4 703.847,1176.08 693.427,1156.8 683.175,1137.56 673.124,1118.37 663.308,1099.24 653.761,1080.19 644.516,1061.2 635.606,1042.31 627.066,1023.51 618.928,1004.81 611.227,986.227 603.995,967.762 597.267,949.426 591.076,931.228 585.455,913.177 580.439,895.28 576.06,877.546 572.352,859.985 569.349,842.604 567.085,825.413 565.592,808.42 564.903,791.633 565.019,775.051 565.906,758.668 567.532,742.474 569.862,726.461 572.864,710.62 576.503,694.943 580.746,679.42 585.56,664.043 590.911,648.805 596.765,633.695 603.089,618.706 609.85,603.828 617.013,589.054 624.545,574.375 632.413,559.781 640.583,545.265 649.021,530.818 657.695,516.431 666.569,502.096 675.612,487.804 684.788,473.546 694.066,459.314 703.41,445.099 712.789,430.893 "/>
<polyline clip-path="url(#clip132)" style="stroke:#000000; stroke-linecap:round; stroke-linejoin:round; stroke-width:4; stroke-opacity:1; fill:none" points="677.933,451.02 712.789,430.893 707.977,470.853 "/>
<polyline clip-path="url(#clip132)" style="stroke:#000000; stroke-linecap:round; stroke-linejoin:round; stroke-width:4; stroke-opacity:1; fill:none" points="712.789,430.893 703.41,445.099 "/>
<path clip-path="url(#clip132)" d="M1908.96 819.019 L1974.94 819.019 L1974.94 784.193 L1908.96 784.193 L1908.96 819.019 L1908.96 819.019  Z" fill="#ffffff" fill-rule="evenodd" fill-opacity="1"/>
<polyline clip-path="url(#clip132)" style="stroke:#000000; stroke-linecap:round; stroke-linejoin:round; stroke-width:0; stroke-opacity:0; fill:none" points="1908.96,819.019 1974.94,819.019 1974.94,784.193 1908.96,784.193 1908.96,819.019 "/>
<path clip-path="url(#clip132)" d="M1248.13 428.442 L1314.11 428.442 L1314.11 393.616 L1248.13 393.616 L1248.13 428.442 L1248.13 428.442  Z" fill="#ffffff" fill-rule="evenodd" fill-opacity="1"/>
<polyline clip-path="url(#clip132)" style="stroke:#000000; stroke-linecap:round; stroke-linejoin:round; stroke-width:0; stroke-opacity:0; fill:none" points="1248.13,428.442 1314.11,428.442 1314.11,393.616 1248.13,393.616 1248.13,428.442 "/>
<path clip-path="url(#clip132)" d="M594.657 201.888 L660.641 201.888 L660.641 167.062 L594.657 167.062 L594.657 201.888 L594.657 201.888  Z" fill="#ffffff" fill-rule="evenodd" fill-opacity="1"/>
<polyline clip-path="url(#clip132)" style="stroke:#000000; stroke-linecap:round; stroke-linejoin:round; stroke-width:0; stroke-opacity:0; fill:none" points="594.657,201.888 660.641,201.888 660.641,167.062 594.657,167.062 594.657,201.888 "/>
<path clip-path="url(#clip132)" d="M894.928 817.413 L960.911 817.413 L960.911 782.587 L894.928 782.587 L894.928 817.413 L894.928 817.413  Z" fill="#ffffff" fill-rule="evenodd" fill-opacity="1"/>
<polyline clip-path="url(#clip132)" style="stroke:#000000; stroke-linecap:round; stroke-linejoin:round; stroke-width:0; stroke-opacity:0; fill:none" points="894.928,817.413 960.911,817.413 960.911,782.587 894.928,782.587 894.928,817.413 "/>
<path clip-path="url(#clip132)" d="M532.154 817.413 L598.137 817.413 L598.137 782.587 L532.154 782.587 L532.154 817.413 L532.154 817.413  Z" fill="#ffffff" fill-rule="evenodd" fill-opacity="1"/>
<polyline clip-path="url(#clip132)" style="stroke:#000000; stroke-linecap:round; stroke-linejoin:round; stroke-width:0; stroke-opacity:0; fill:none" points="532.154,817.413 598.137,817.413 598.137,782.587 532.154,782.587 532.154,817.413 "/>
<path clip-path="url(#clip132)" d="M1744.33 800 L1744.04 792.781 L1743.18 785.608 L1741.75 778.526 L1739.77 771.58 L1737.24 764.813 L1734.18 758.269 L1730.6 751.988 L1726.55 746.012 L1722.03 740.376 L1717.07 735.118 L1711.72 730.269 L1705.99 725.862 L1699.94 721.923 L1693.59 718.478 L1686.98 715.548 L1680.17 713.153 L1673.18 711.306 L1666.07 710.02 L1658.88 709.303 L1651.66 709.159 L1644.45 709.59 L1637.29 710.592 L1630.24 712.16 L1623.34 714.283 L1616.62 716.948 L1610.14 720.137 L1603.93 723.832 L1598.04 728.009 L1592.49 732.64 L1587.33 737.698 L1582.59 743.149 L1578.3 748.96 L1574.48 755.093 L1571.16 761.511 L1568.37 768.171 L1566.11 775.033 L1564.4 782.053 L1563.25 789.186 L1562.68 796.388 L1562.68 803.612 L1563.25 810.814 L1564.4 817.947 L1566.11 824.967 L1568.37 831.829 L1571.16 838.489 L1574.48 844.907 L1578.3 851.04 L1582.59 856.851 L1587.33 862.302 L1592.49 867.36 L1598.04 871.991 L1603.93 876.168 L1610.14 879.863 L1616.62 883.052 L1623.34 885.717 L1630.24 887.84 L1637.29 889.408 L1644.45 890.41 L1651.66 890.841 L1658.88 890.697 L1666.07 889.98 L1673.18 888.694 L1680.17 886.847 L1686.98 884.452 L1693.59 881.522 L1699.94 878.077 L1705.99 874.138 L1711.72 869.731 L1717.07 864.882 L1722.03 859.624 L1726.55 853.988 L1730.6 848.012 L1734.18 841.731 L1737.24 835.187 L1739.77 828.42 L1741.75 821.474 L1743.18 814.392 L1744.04 807.219 L1744.33 800 L1744.33 800  Z" fill="#009af9" fill-rule="evenodd" fill-opacity="1"/>
<polyline clip-path="url(#clip132)" style="stroke:#000000; stroke-linecap:round; stroke-linejoin:round; stroke-width:4; stroke-opacity:1; fill:none" points="1744.33,800 1744.04,792.781 1743.18,785.608 1741.75,778.526 1739.77,771.58 1737.24,764.813 1734.18,758.269 1730.6,751.988 1726.55,746.012 1722.03,740.376 1717.07,735.118 1711.72,730.269 1705.99,725.862 1699.94,721.923 1693.59,718.478 1686.98,715.548 1680.17,713.153 1673.18,711.306 1666.07,710.02 1658.88,709.303 1651.66,709.159 1644.45,709.59 1637.29,710.592 1630.24,712.16 1623.34,714.283 1616.62,716.948 1610.14,720.137 1603.93,723.832 1598.04,728.009 1592.49,732.64 1587.33,737.698 1582.59,743.149 1578.3,748.96 1574.48,755.093 1571.16,761.511 1568.37,768.171 1566.11,775.033 1564.4,782.053 1563.25,789.186 1562.68,796.388 1562.68,803.612 1563.25,810.814 1564.4,817.947 1566.11,824.967 1568.37,831.829 1571.16,838.489 1574.48,844.907 1578.3,851.04 1582.59,856.851 1587.33,862.302 1592.49,867.36 1598.04,871.991 1603.93,876.168 1610.14,879.863 1616.62,883.052 1623.34,885.717 1630.24,887.84 1637.29,889.408 1644.45,890.41 1651.66,890.841 1658.88,890.697 1666.07,889.98 1673.18,888.694 1680.17,886.847 1686.98,884.452 1693.59,881.522 1699.94,878.077 1705.99,874.138 1711.72,869.731 1717.07,864.882 1722.03,859.624 1726.55,853.988 1730.6,848.012 1734.18,841.731 1737.24,835.187 1739.77,828.42 1741.75,821.474 1743.18,814.392 1744.04,807.219 1744.33,800 "/>
<path clip-path="url(#clip132)" d="M837.391 346.533 L837.104 339.314 L836.244 332.141 L834.817 325.059 L832.832 318.112 L830.301 311.346 L827.241 304.801 L823.67 298.521 L819.612 292.544 L815.091 286.909 L810.137 281.65 L804.782 276.802 L799.057 272.394 L793.001 268.456 L786.651 265.011 L780.047 262.081 L773.231 259.685 L766.247 257.838 L759.138 256.553 L751.949 255.836 L744.726 255.692 L737.515 256.123 L730.36 257.125 L723.308 258.692 L716.402 260.815 L709.687 263.48 L703.205 266.67 L696.997 270.365 L691.102 274.541 L685.557 279.173 L680.398 284.23 L675.658 289.682 L671.365 295.492 L667.547 301.626 L664.229 308.043 L661.431 314.704 L659.172 321.566 L657.464 328.586 L656.32 335.719 L655.746 342.92 L655.746 350.145 L656.32 357.346 L657.464 364.48 L659.172 371.499 L661.431 378.361 L664.229 385.022 L667.547 391.439 L671.365 397.573 L675.658 403.384 L680.398 408.835 L685.557 413.892 L691.102 418.524 L696.997 422.7 L703.205 426.395 L709.687 429.585 L716.402 432.25 L723.308 434.373 L730.36 435.94 L737.515 436.943 L744.726 437.373 L751.949 437.23 L759.138 436.513 L766.247 435.227 L773.231 433.38 L780.047 430.984 L786.651 428.055 L793.001 424.609 L799.057 420.671 L804.782 416.263 L810.137 411.415 L815.091 406.156 L819.612 400.521 L823.67 394.544 L827.241 388.264 L830.301 381.72 L832.832 374.953 L834.817 368.007 L836.244 360.924 L837.104 353.751 L837.391 346.533 L837.391 346.533  Z" fill="#009af9" fill-rule="evenodd" fill-opacity="1"/>
<polyline clip-path="url(#clip132)" style="stroke:#000000; stroke-linecap:round; stroke-linejoin:round; stroke-width:4; stroke-opacity:1; fill:none" points="837.391,346.533 837.104,339.314 836.244,332.141 834.817,325.059 832.832,318.112 830.301,311.346 827.241,304.801 823.67,298.521 819.612,292.544 815.091,286.909 810.137,281.65 804.782,276.802 799.057,272.394 793.001,268.456 786.651,265.011 780.047,262.081 773.231,259.685 766.247,257.838 759.138,256.553 751.949,255.836 744.726,255.692 737.515,256.123 730.36,257.125 723.308,258.692 716.402,260.815 709.687,263.48 703.205,266.67 696.997,270.365 691.102,274.541 685.557,279.173 680.398,284.23 675.658,289.682 671.365,295.492 667.547,301.626 664.229,308.043 661.431,314.704 659.172,321.566 657.464,328.586 656.32,335.719 655.746,342.92 655.746,350.145 656.32,357.346 657.464,364.48 659.172,371.499 661.431,378.361 664.229,385.022 667.547,391.439 671.365,397.573 675.658,403.384 680.398,408.835 685.557,413.892 691.102,418.524 696.997,422.7 703.205,426.395 709.687,429.585 716.402,432.25 723.308,434.373 730.36,435.94 737.515,436.943 744.726,437.373 751.949,437.23 759.138,436.513 766.247,435.227 773.231,433.38 780.047,430.984 786.651,428.055 793.001,424.609 799.057,420.671 804.782,416.263 810.137,411.415 815.091,406.156 819.612,400.521 823.67,394.544 827.241,388.264 830.301,381.72 832.832,374.953 834.817,368.007 836.244,360.924 837.104,353.751 837.391,346.533 "/>
<path clip-path="url(#clip132)" d="M837.391 1253.47 L837.104 1246.25 L836.244 1239.08 L834.817 1231.99 L832.832 1225.05 L830.301 1218.28 L827.241 1211.74 L823.67 1205.46 L819.612 1199.48 L815.091 1193.84 L810.137 1188.59 L804.782 1183.74 L799.057 1179.33 L793.001 1175.39 L786.651 1171.95 L780.047 1169.02 L773.231 1166.62 L766.247 1164.77 L759.138 1163.49 L751.949 1162.77 L744.726 1162.63 L737.515 1163.06 L730.36 1164.06 L723.308 1165.63 L716.402 1167.75 L709.687 1170.41 L703.205 1173.6 L696.997 1177.3 L691.102 1181.48 L685.557 1186.11 L680.398 1191.17 L675.658 1196.62 L671.365 1202.43 L667.547 1208.56 L664.229 1214.98 L661.431 1221.64 L659.172 1228.5 L657.464 1235.52 L656.32 1242.65 L655.746 1249.86 L655.746 1257.08 L656.32 1264.28 L657.464 1271.41 L659.172 1278.43 L661.431 1285.3 L664.229 1291.96 L667.547 1298.37 L671.365 1304.51 L675.658 1310.32 L680.398 1315.77 L685.557 1320.83 L691.102 1325.46 L696.997 1329.64 L703.205 1333.33 L709.687 1336.52 L716.402 1339.18 L723.308 1341.31 L730.36 1342.88 L737.515 1343.88 L744.726 1344.31 L751.949 1344.16 L759.138 1343.45 L766.247 1342.16 L773.231 1340.31 L780.047 1337.92 L786.651 1334.99 L793.001 1331.54 L799.057 1327.61 L804.782 1323.2 L810.137 1318.35 L815.091 1313.09 L819.612 1307.46 L823.67 1301.48 L827.241 1295.2 L830.301 1288.65 L832.832 1281.89 L834.817 1274.94 L836.244 1267.86 L837.104 1260.69 L837.391 1253.47 L837.391 1253.47  Z" fill="#009af9" fill-rule="evenodd" fill-opacity="1"/>
<polyline clip-path="url(#clip132)" style="stroke:#000000; stroke-linecap:round; stroke-linejoin:round; stroke-width:4; stroke-opacity:1; fill:none" points="837.391,1253.47 837.104,1246.25 836.244,1239.08 834.817,1231.99 832.832,1225.05 830.301,1218.28 827.241,1211.74 823.67,1205.46 819.612,1199.48 815.091,1193.84 810.137,1188.59 804.782,1183.74 799.057,1179.33 793.001,1175.39 786.651,1171.95 780.047,1169.02 773.231,1166.62 766.247,1164.77 759.138,1163.49 751.949,1162.77 744.726,1162.63 737.515,1163.06 730.36,1164.06 723.308,1165.63 716.402,1167.75 709.687,1170.41 703.205,1173.6 696.997,1177.3 691.102,1181.48 685.557,1186.11 680.398,1191.17 675.658,1196.62 671.365,1202.43 667.547,1208.56 664.229,1214.98 661.431,1221.64 659.172,1228.5 657.464,1235.52 656.32,1242.65 655.746,1249.86 655.746,1257.08 656.32,1264.28 657.464,1271.41 659.172,1278.43 661.431,1285.3 664.229,1291.96 667.547,1298.37 671.365,1304.51 675.658,1310.32 680.398,1315.77 685.557,1320.83 691.102,1325.46 696.997,1329.64 703.205,1333.33 709.687,1336.52 716.402,1339.18 723.308,1341.31 730.36,1342.88 737.515,1343.88 744.726,1344.31 751.949,1344.16 759.138,1343.45 766.247,1342.16 773.231,1340.31 780.047,1337.92 786.651,1334.99 793.001,1331.54 799.057,1327.61 804.782,1323.2 810.137,1318.35 815.091,1313.09 819.612,1307.46 823.67,1301.48 827.241,1295.2 830.301,1288.65 832.832,1281.89 834.817,1274.94 836.244,1267.86 837.104,1260.69 837.391,1253.47 "/>
<circle clip-path="url(#clip132)" style="fill:#009af9; stroke:none; fill-opacity:0" cx="1653.47" cy="800" r="2"/>
<circle clip-path="url(#clip132)" style="fill:#009af9; stroke:none; fill-opacity:0" cx="746.533" cy="346.533" r="2"/>
<circle clip-path="url(#clip132)" style="fill:#009af9; stroke:none; fill-opacity:0" cx="746.533" cy="1253.47" r="2"/>
<path clip-path="url(#clip130)" d="M1921.62 808.278 L1925.44 808.278 L1925.44 795.096 L1921.28 795.929 L1921.28 793.799 L1925.41 792.966 L1927.75 792.966 L1927.75 808.278 L1931.57 808.278 L1931.57 810.246 L1921.62 810.246 L1921.62 808.278 Z" fill="#000000" fill-rule="nonzero" fill-opacity="1" /><path clip-path="url(#clip130)" d="M1939.78 792.966 L1941.74 792.966 L1935.73 812.445 L1933.76 812.445 L1939.78 792.966 Z" fill="#000000" fill-rule="nonzero" fill-opacity="1" /><path clip-path="url(#clip130)" d="M1947.76 792.966 L1949.73 792.966 L1943.71 812.445 L1941.74 812.445 L1947.76 792.966 Z" fill="#000000" fill-rule="nonzero" fill-opacity="1" /><path clip-path="url(#clip130)" d="M1952.67 808.278 L1956.49 808.278 L1956.49 795.096 L1952.33 795.929 L1952.33 793.799 L1956.47 792.966 L1958.8 792.966 L1958.8 808.278 L1962.62 808.278 L1962.62 810.246 L1952.67 810.246 L1952.67 808.278 Z" fill="#000000" fill-rule="nonzero" fill-opacity="1" /><path clip-path="url(#clip130)" d="M1260.44 417.701 L1264.26 417.701 L1264.26 404.518 L1260.1 405.352 L1260.1 403.222 L1264.23 402.389 L1266.57 402.389 L1266.57 417.701 L1270.39 417.701 L1270.39 419.669 L1260.44 419.669 L1260.44 417.701 Z" fill="#000000" fill-rule="nonzero" fill-opacity="1" /><path clip-path="url(#clip130)" d="M1278.6 402.389 L1280.56 402.389 L1274.54 421.868 L1272.58 421.868 L1278.6 402.389 Z" fill="#000000" fill-rule="nonzero" fill-opacity="1" /><path clip-path="url(#clip130)" d="M1286.58 402.389 L1288.55 402.389 L1282.53 421.868 L1280.56 421.868 L1286.58 402.389 Z" fill="#000000" fill-rule="nonzero" fill-opacity="1" /><path clip-path="url(#clip130)" d="M1296.37 410.097 Q1294.8 410.097 1293.87 411.174 Q1292.96 412.25 1292.96 414.125 Q1292.96 415.988 1293.87 417.076 Q1294.8 418.153 1296.37 418.153 Q1297.95 418.153 1298.86 417.076 Q1299.79 415.988 1299.79 414.125 Q1299.79 412.25 1298.86 411.174 Q1297.95 410.097 1296.37 410.097 M1301.01 402.771 L1301.01 404.9 Q1300.13 404.484 1299.23 404.264 Q1298.34 404.044 1297.46 404.044 Q1295.15 404.044 1293.92 405.606 Q1292.7 407.169 1292.53 410.329 Q1293.21 409.322 1294.24 408.789 Q1295.27 408.245 1296.51 408.245 Q1299.12 408.245 1300.62 409.831 Q1302.14 411.405 1302.14 414.125 Q1302.14 416.787 1300.56 418.396 Q1298.99 420.005 1296.37 420.005 Q1293.38 420.005 1291.79 417.713 Q1290.2 415.41 1290.2 411.046 Q1290.2 406.949 1292.15 404.518 Q1294.09 402.076 1297.37 402.076 Q1298.25 402.076 1299.14 402.25 Q1300.04 402.424 1301.01 402.771 Z" fill="#000000" fill-rule="nonzero" fill-opacity="1" /><path clip-path="url(#clip130)" d="M607.406 191.147 L611.225 191.147 L611.225 177.964 L607.07 178.798 L607.07 176.668 L611.202 175.835 L613.54 175.835 L613.54 191.147 L617.359 191.147 L617.359 193.115 L607.406 193.115 L607.406 191.147 Z" fill="#000000" fill-rule="nonzero" fill-opacity="1" /><path clip-path="url(#clip130)" d="M625.565 175.835 L627.533 175.835 L621.515 195.314 L619.547 195.314 L625.565 175.835 Z" fill="#000000" fill-rule="nonzero" fill-opacity="1" /><path clip-path="url(#clip130)" d="M633.552 175.835 L635.519 175.835 L629.501 195.314 L627.533 195.314 L633.552 175.835 Z" fill="#000000" fill-rule="nonzero" fill-opacity="1" /><path clip-path="url(#clip130)" d="M640.068 191.147 L648.227 191.147 L648.227 193.115 L637.255 193.115 L637.255 191.147 Q638.586 189.77 640.878 187.455 Q643.181 185.129 643.771 184.457 Q644.894 183.196 645.334 182.328 Q645.785 181.448 645.785 180.603 Q645.785 179.226 644.813 178.358 Q643.852 177.49 642.301 177.49 Q641.202 177.49 639.975 177.872 Q638.76 178.254 637.371 179.029 L637.371 176.668 Q638.783 176.101 640.01 175.812 Q641.237 175.522 642.255 175.522 Q644.94 175.522 646.538 176.865 Q648.135 178.207 648.135 180.453 Q648.135 181.518 647.73 182.478 Q647.336 183.427 646.283 184.724 Q645.994 185.059 644.443 186.668 Q642.892 188.265 640.068 191.147 Z" fill="#000000" fill-rule="nonzero" fill-opacity="1" /><path clip-path="url(#clip130)" d="M907.439 806.672 L911.259 806.672 L911.259 793.49 L907.104 794.323 L907.104 792.193 L911.236 791.36 L913.574 791.36 L913.574 806.672 L917.393 806.672 L917.393 808.64 L907.439 808.64 L907.439 806.672 Z" fill="#000000" fill-rule="nonzero" fill-opacity="1" /><path clip-path="url(#clip130)" d="M925.599 791.36 L927.567 791.36 L921.548 810.839 L919.58 810.839 L925.599 791.36 Z" fill="#000000" fill-rule="nonzero" fill-opacity="1" /><path clip-path="url(#clip130)" d="M933.585 791.36 L935.553 791.36 L929.534 810.839 L927.567 810.839 L933.585 791.36 Z" fill="#000000" fill-rule="nonzero" fill-opacity="1" /><path clip-path="url(#clip130)" d="M945.171 799.323 Q946.849 799.682 947.786 800.816 Q948.735 801.95 948.735 803.617 Q948.735 806.175 946.976 807.575 Q945.217 808.976 941.976 808.976 Q940.888 808.976 939.731 808.756 Q938.585 808.547 937.358 808.119 L937.358 805.862 Q938.33 806.429 939.488 806.719 Q940.645 807.008 941.907 807.008 Q944.106 807.008 945.252 806.14 Q946.409 805.272 946.409 803.617 Q946.409 802.089 945.333 801.233 Q944.268 800.365 942.358 800.365 L940.344 800.365 L940.344 798.443 L942.451 798.443 Q944.175 798.443 945.09 797.76 Q946.004 797.066 946.004 795.77 Q946.004 794.439 945.055 793.733 Q944.117 793.015 942.358 793.015 Q941.397 793.015 940.298 793.223 Q939.198 793.432 937.879 793.872 L937.879 791.788 Q939.21 791.418 940.367 791.233 Q941.536 791.048 942.566 791.048 Q945.228 791.048 946.779 792.263 Q948.33 793.466 948.33 795.527 Q948.33 796.962 947.509 797.957 Q946.687 798.941 945.171 799.323 Z" fill="#000000" fill-rule="nonzero" fill-opacity="1" /><path clip-path="url(#clip130)" d="M544.81 806.672 L548.63 806.672 L548.63 793.49 L544.474 794.323 L544.474 792.193 L548.606 791.36 L550.944 791.36 L550.944 806.672 L554.764 806.672 L554.764 808.64 L544.81 808.64 L544.81 806.672 Z" fill="#000000" fill-rule="nonzero" fill-opacity="1" /><path clip-path="url(#clip130)" d="M562.97 791.36 L564.937 791.36 L558.919 810.839 L556.951 810.839 L562.97 791.36 Z" fill="#000000" fill-rule="nonzero" fill-opacity="1" /><path clip-path="url(#clip130)" d="M570.956 791.36 L572.923 791.36 L566.905 810.839 L564.937 810.839 L570.956 791.36 Z" fill="#000000" fill-rule="nonzero" fill-opacity="1" /><path clip-path="url(#clip130)" d="M575.863 806.672 L579.683 806.672 L579.683 793.49 L575.528 794.323 L575.528 792.193 L579.659 791.36 L581.997 791.36 L581.997 806.672 L585.817 806.672 L585.817 808.64 L575.863 808.64 L575.863 806.672 Z" fill="#000000" fill-rule="nonzero" fill-opacity="1" /><path clip-path="url(#clip130)" d="M1638.55 792.899 Q1636.74 792.899 1635.83 794.682 Q1634.93 796.453 1634.93 800.017 Q1634.93 803.571 1635.83 805.353 Q1636.74 807.124 1638.55 807.124 Q1640.37 807.124 1641.27 805.353 Q1642.18 803.571 1642.18 800.017 Q1642.18 796.453 1641.27 794.682 Q1640.37 792.899 1638.55 792.899 M1638.55 791.048 Q1641.45 791.048 1642.98 793.351 Q1644.52 795.642 1644.52 800.017 Q1644.52 804.381 1642.98 806.684 Q1641.45 808.976 1638.55 808.976 Q1635.64 808.976 1634.1 806.684 Q1632.58 804.381 1632.58 800.017 Q1632.58 795.642 1634.1 793.351 Q1635.64 791.048 1638.55 791.048 Z" fill="#000000" fill-rule="nonzero" fill-opacity="1" /><path clip-path="url(#clip130)" d="M1653.63 792.899 Q1651.82 792.899 1650.91 794.682 Q1650.01 796.453 1650.01 800.017 Q1650.01 803.571 1650.91 805.353 Q1651.82 807.124 1653.63 807.124 Q1655.45 807.124 1656.35 805.353 Q1657.26 803.571 1657.26 800.017 Q1657.26 796.453 1656.35 794.682 Q1655.45 792.899 1653.63 792.899 M1653.63 791.048 Q1656.53 791.048 1658.06 793.351 Q1659.6 795.642 1659.6 800.017 Q1659.6 804.381 1658.06 806.684 Q1656.53 808.976 1653.63 808.976 Q1650.72 808.976 1649.19 806.684 Q1647.66 804.381 1647.66 800.017 Q1647.66 795.642 1649.19 793.351 Q1650.72 791.048 1653.63 791.048 Z" fill="#000000" fill-rule="nonzero" fill-opacity="1" /><path clip-path="url(#clip130)" d="M1670.79 799.323 Q1672.47 799.682 1673.41 800.816 Q1674.36 801.95 1674.36 803.617 Q1674.36 806.175 1672.6 807.575 Q1670.84 808.976 1667.6 808.976 Q1666.51 808.976 1665.35 808.756 Q1664.21 808.547 1662.98 808.119 L1662.98 805.862 Q1663.95 806.429 1665.11 806.719 Q1666.27 807.008 1667.53 807.008 Q1669.73 807.008 1670.87 806.14 Q1672.03 805.272 1672.03 803.617 Q1672.03 802.089 1670.96 801.233 Q1669.89 800.365 1667.98 800.365 L1665.97 800.365 L1665.97 798.443 L1668.07 798.443 Q1669.8 798.443 1670.71 797.76 Q1671.63 797.066 1671.63 795.77 Q1671.63 794.439 1670.68 793.733 Q1669.74 793.015 1667.98 793.015 Q1667.02 793.015 1665.92 793.223 Q1664.82 793.432 1663.5 793.872 L1663.5 791.788 Q1664.83 791.418 1665.99 791.233 Q1667.16 791.048 1668.19 791.048 Q1670.85 791.048 1672.4 792.263 Q1673.95 793.466 1673.95 795.527 Q1673.95 796.962 1673.13 797.957 Q1672.31 798.941 1670.79 799.323 Z" fill="#000000" fill-rule="nonzero" fill-opacity="1" /><path clip-path="url(#clip130)" d="M731.851 339.432 Q730.045 339.432 729.131 341.214 Q728.228 342.985 728.228 346.55 Q728.228 350.103 729.131 351.886 Q730.045 353.656 731.851 353.656 Q733.668 353.656 734.571 351.886 Q735.485 350.103 735.485 346.55 Q735.485 342.985 734.571 341.214 Q733.668 339.432 731.851 339.432 M731.851 337.58 Q734.756 337.58 736.284 339.883 Q737.823 342.175 737.823 346.55 Q737.823 350.913 736.284 353.217 Q734.756 355.508 731.851 355.508 Q728.946 355.508 727.407 353.217 Q725.879 350.913 725.879 346.55 Q725.879 342.175 727.407 339.883 Q728.946 337.58 731.851 337.58 Z" fill="#000000" fill-rule="nonzero" fill-opacity="1" /><path clip-path="url(#clip130)" d="M742.337 353.205 L746.156 353.205 L746.156 340.022 L742.001 340.856 L742.001 338.726 L746.133 337.893 L748.471 337.893 L748.471 353.205 L752.291 353.205 L752.291 355.173 L742.337 355.173 L742.337 353.205 Z" fill="#000000" fill-rule="nonzero" fill-opacity="1" /><path clip-path="url(#clip130)" d="M759.027 353.205 L767.186 353.205 L767.186 355.173 L756.214 355.173 L756.214 353.205 Q757.545 351.828 759.837 349.513 Q762.14 347.187 762.73 346.515 Q763.853 345.254 764.293 344.386 Q764.744 343.506 764.744 342.661 Q764.744 341.284 763.772 340.416 Q762.811 339.548 761.261 339.548 Q760.161 339.548 758.934 339.93 Q757.719 340.312 756.33 341.087 L756.33 338.726 Q757.742 338.159 758.969 337.869 Q760.196 337.58 761.214 337.58 Q763.899 337.58 765.497 338.923 Q767.094 340.265 767.094 342.511 Q767.094 343.575 766.689 344.536 Q766.295 345.485 765.242 346.781 Q764.953 347.117 763.402 348.726 Q761.851 350.323 759.027 353.205 Z" fill="#000000" fill-rule="nonzero" fill-opacity="1" /><path clip-path="url(#clip130)" d="M726.643 1260.14 L730.462 1260.14 L730.462 1246.96 L726.307 1247.79 L726.307 1245.66 L730.439 1244.83 L732.777 1244.83 L732.777 1260.14 L736.596 1260.14 L736.596 1262.11 L726.643 1262.11 L726.643 1260.14 Z" fill="#000000" fill-rule="nonzero" fill-opacity="1" /><path clip-path="url(#clip130)" d="M741.724 1260.14 L745.543 1260.14 L745.543 1246.96 L741.388 1247.79 L741.388 1245.66 L745.52 1244.83 L747.858 1244.83 L747.858 1260.14 L751.677 1260.14 L751.677 1262.11 L741.724 1262.11 L741.724 1260.14 Z" fill="#000000" fill-rule="nonzero" fill-opacity="1" /><path clip-path="url(#clip130)" d="M756.805 1260.14 L760.624 1260.14 L760.624 1246.96 L756.469 1247.79 L756.469 1245.66 L760.601 1244.83 L762.939 1244.83 L762.939 1260.14 L766.758 1260.14 L766.758 1262.11 L756.805 1262.11 L756.805 1260.14 Z" fill="#000000" fill-rule="nonzero" fill-opacity="1" /></svg>
