<?xml version="1.0" encoding="utf-8"?>
<svg xmlns="http://www.w3.org/2000/svg" xmlns:xlink="http://www.w3.org/1999/xlink" width="600" height="400" viewBox="0 0 2400 1600">
<defs>
  <clipPath id="clip100">
    <rect x="0" y="0" width="2400" height="1600"/>
  </clipPath>
</defs>
<path clip-path="url(#clip100)" d="M0 1600 L2400 1600 L2400 0 L0 0  Z" fill="#ffffff" fill-rule="evenodd" fill-opacity="1"/>
<defs>
  <clipPath id="clip101">
    <rect x="480" y="0" width="1681" height="1600"/>
  </clipPath>
</defs>
<path clip-path="url(#clip100)" d="M447.244 1552.76 L1952.76 1552.76 L1952.76 47.2441 L447.244 47.2441  Z" fill="#ffffff" fill-rule="evenodd" fill-opacity="1"/>
<defs>
  <clipPath id="clip102">
    <rect x="447" y="47" width="1507" height="1507"/>
  </clipPath>
</defs>
<polyline clip-path="url(#clip102)" style="stroke:#000000; stroke-linecap:round; stroke-linejoin:round; stroke-width:4; stroke-opacity:1; fill:none" points="1723.31,1358 1732.14,1368.33 1740.94,1378.6 1749.68,1388.74 1758.36,1398.69 1766.93,1408.39 1775.38,1417.76 1783.68,1426.75 1791.8,1435.29 1799.73,1443.31 1807.42,1450.76 1814.87,1457.57 1822.04,1463.67 1828.91,1469.01 1835.47,1473.58 1841.69,1477.41 1847.57,1480.53 1853.09,1482.95 1858.24,1484.71 1863.01,1485.84 1867.37,1486.35 1871.33,1486.27 1874.86,1485.63 1877.95,1484.45 1880.59,1482.76 1882.76,1480.59 1884.45,1477.95 1885.63,1474.86 1886.27,1471.33 1886.35,1467.38 1885.84,1463.01 1884.71,1458.24 1882.95,1453.09 1880.53,1447.57 1877.41,1441.69 1873.58,1435.47 1869.01,1428.91 1863.67,1422.04 1857.57,1414.87 1850.76,1407.42 1843.31,1399.73 1835.28,1391.8 1826.74,1383.68 1817.76,1375.38 1808.38,1366.93 1798.69,1358.36 1788.74,1349.68 1778.6,1340.93 1768.33,1332.13 1757.99,1323.31 "/>
<polyline clip-path="url(#clip102)" style="stroke:#000000; stroke-linecap:round; stroke-linejoin:round; stroke-width:4; stroke-opacity:1; fill:none" points="1773.68,1360.37 1757.99,1323.31 1797.06,1333 "/>
<polyline clip-path="url(#clip102)" style="stroke:#000000; stroke-linecap:round; stroke-linejoin:round; stroke-width:4; stroke-opacity:1; fill:none" points="1757.99,1323.31 1768.33,1332.13 "/>
<polyline clip-path="url(#clip102)" style="stroke:#000000; stroke-linecap:round; stroke-linejoin:round; stroke-width:4; stroke-opacity:1; fill:none" points="746.533,346.533 773.515,358.312 800.465,370.106 827.35,381.93 854.138,393.799 880.797,405.728 907.293,417.732 933.594,429.825 959.669,442.023 985.484,454.341 1011.01,466.794 1036.21,479.396 1061.05,492.163 1085.5,505.11 1109.53,518.25 1133.11,531.601 1156.2,545.176 1178.78,558.99 1200.8,573.059 1222.23,587.397 1243.06,602.019 1263.23,616.941 1282.72,632.177 1301.5,647.742 1319.53,663.652 1336.79,679.919 1353.27,696.546 1369,713.516 1384.02,730.816 1398.36,748.43 1412.05,766.343 1425.13,784.541 1437.62,803.008 1449.56,821.729 1460.98,840.69 1471.91,859.875 1482.39,879.27 1492.45,898.859 1502.12,918.628 1511.43,938.562 1520.42,958.645 1529.12,978.863 1537.56,999.2 1545.77,1019.64 1553.78,1040.17 1561.64,1060.78 1569.36,1081.45 1576.99,1102.16 1584.55,1122.9 1592.08,1143.66 "/>
<polyline clip-path="url(#clip102)" style="stroke:#000000; stroke-linecap:round; stroke-linejoin:round; stroke-width:4; stroke-opacity:1; fill:none" points="1596.72,1103.68 1592.08,1143.66 1562.88,1115.95 "/>
<polyline clip-path="url(#clip102)" style="stroke:#000000; stroke-linecap:round; stroke-linejoin:round; stroke-width:4; stroke-opacity:1; fill:none" points="1592.08,1143.66 1584.55,1122.9 "/>
<polyline clip-path="url(#clip102)" style="stroke:#000000; stroke-linecap:round; stroke-linejoin:round; stroke-width:4; stroke-opacity:1; fill:none" points="816.376,451.06 800.431,430.072 784.568,409.233 768.87,388.693 753.417,368.602 738.293,349.108 723.58,330.361 709.358,312.511 695.711,295.707 682.721,280.099 670.47,265.836 659.039,253.067 648.511,241.942 638.958,232.592 630.379,224.988 622.728,219.022 615.964,214.581 610.041,211.555 604.918,209.834 600.549,209.305 596.893,209.859 593.905,211.385 591.541,213.771 589.759,216.906 588.515,220.681 587.766,224.984 587.473,229.711 587.606,234.761 588.133,240.038 589.023,245.441 590.243,250.872 591.764,256.232 593.552,261.422 595.577,266.344 597.807,270.898 600.212,274.986 602.758,278.509 605.415,281.369 608.16,283.517 610.983,285.002 613.878,285.885 616.836,286.225 619.852,286.083 622.917,285.52 626.025,284.595 629.169,283.369 632.341,281.903 635.535,280.255 638.743,278.487 641.958,276.658 "/>
<polyline clip-path="url(#clip102)" style="stroke:#000000; stroke-linecap:round; stroke-linejoin:round; stroke-width:4; stroke-opacity:1; fill:none" points="601.766,278.808 641.958,276.658 619.563,310.102 "/>
<polyline clip-path="url(#clip102)" style="stroke:#000000; stroke-linecap:round; stroke-linejoin:round; stroke-width:4; stroke-opacity:1; fill:none" points="641.958,276.658 638.743,278.487 "/>
<path clip-path="url(#clip102)" d="M1847.6 1500.18 L1913.58 1500.18 L1913.58 1465.35 L1847.6 1465.35 L1847.6 1500.18 L1847.6 1500.18  Z" fill="#ffffff" fill-rule="evenodd" fill-opacity="1"/>
<polyline clip-path="url(#clip102)" style="stroke:#000000; stroke-linecap:round; stroke-linejoin:round; stroke-width:0; stroke-opacity:0; fill:none" points="1847.6,1500.18 1913.58,1500.18 1913.58,1465.35 1847.6,1465.35 1847.6,1500.18 "/>
<path clip-path="url(#clip102)" d="M1295.27 689.153 L1361.25 689.153 L1361.25 654.327 L1295.27 654.327 L1295.27 689.153 L1295.27 689.153  Z" fill="#ffffff" fill-rule="evenodd" fill-opacity="1"/>
<polyline clip-path="url(#clip102)" style="stroke:#000000; stroke-linecap:round; stroke-linejoin:round; stroke-width:0; stroke-opacity:0; fill:none" points="1295.27,689.153 1361.25,689.153 1361.25,654.327 1295.27,654.327 1295.27,689.153 "/>
<path clip-path="url(#clip102)" d="M555.523 238.094 L621.507 238.094 L621.507 203.268 L555.523 203.268 L555.523 238.094 L555.523 238.094  Z" fill="#ffffff" fill-rule="evenodd" fill-opacity="1"/>
<polyline clip-path="url(#clip102)" style="stroke:#000000; stroke-linecap:round; stroke-linejoin:round; stroke-width:0; stroke-opacity:0; fill:none" points="555.523,238.094 621.507,238.094 621.507,203.268 555.523,203.268 555.523,238.094 "/>
<path clip-path="url(#clip102)" d="M1779.27 1253.47 L1778.87 1243.47 L1777.68 1233.54 L1775.71 1223.73 L1772.96 1214.12 L1769.45 1204.75 L1765.22 1195.69 L1760.27 1186.99 L1754.65 1178.71 L1748.39 1170.91 L1741.54 1163.63 L1734.12 1156.92 L1726.19 1150.81 L1717.81 1145.36 L1709.02 1140.59 L1699.87 1136.53 L1690.44 1133.22 L1680.76 1130.66 L1670.92 1128.88 L1660.97 1127.89 L1650.97 1127.69 L1640.98 1128.28 L1631.07 1129.67 L1621.31 1131.84 L1611.75 1134.78 L1602.45 1138.47 L1593.48 1142.89 L1584.88 1148 L1576.72 1153.79 L1569.04 1160.2 L1561.9 1167.2 L1555.33 1174.75 L1549.39 1182.8 L1544.1 1191.29 L1539.51 1200.17 L1535.63 1209.4 L1532.51 1218.9 L1530.14 1228.62 L1528.56 1238.49 L1527.76 1248.47 L1527.76 1258.47 L1528.56 1268.44 L1530.14 1278.32 L1532.51 1288.04 L1535.63 1297.54 L1539.51 1306.76 L1544.1 1315.65 L1549.39 1324.14 L1555.33 1332.18 L1561.9 1339.73 L1569.04 1346.73 L1576.72 1353.15 L1584.88 1358.93 L1593.48 1364.05 L1602.45 1368.46 L1611.75 1372.15 L1621.31 1375.09 L1631.07 1377.26 L1640.98 1378.65 L1650.97 1379.25 L1660.97 1379.05 L1670.92 1378.06 L1680.76 1376.27 L1690.44 1373.72 L1699.87 1370.4 L1709.02 1366.34 L1717.81 1361.57 L1726.19 1356.12 L1734.12 1350.02 L1741.54 1343.3 L1748.39 1336.02 L1754.65 1328.22 L1760.27 1319.94 L1765.22 1311.25 L1769.45 1302.19 L1772.96 1292.82 L1775.71 1283.2 L1777.68 1273.39 L1778.87 1263.46 L1779.27 1253.47 L1779.27 1253.47  Z" fill="#009af9" fill-rule="evenodd" fill-opacity="1"/>
<polyline clip-path="url(#clip102)" style="stroke:#000000; stroke-linecap:round; stroke-linejoin:round; stroke-width:4; stroke-opacity:1; fill:none" points="1779.27,1253.47 1778.87,1243.47 1777.68,1233.54 1775.71,1223.73 1772.96,1214.12 1769.45,1204.75 1765.22,1195.69 1760.27,1186.99 1754.65,1178.71 1748.39,1170.91 1741.54,1163.63 1734.12,1156.92 1726.19,1150.81 1717.81,1145.36 1709.02,1140.59 1699.87,1136.53 1690.44,1133.22 1680.76,1130.66 1670.92,1128.88 1660.97,1127.89 1650.97,1127.69 1640.98,1128.28 1631.07,1129.67 1621.31,1131.84 1611.75,1134.78 1602.45,1138.47 1593.48,1142.89 1584.88,1148 1576.72,1153.79 1569.04,1160.2 1561.9,1167.2 1555.33,1174.75 1549.39,1182.8 1544.1,1191.29 1539.51,1200.17 1535.63,1209.4 1532.51,1218.9 1530.14,1228.62 1528.56,1238.49 1527.76,1248.47 1527.76,1258.47 1528.56,1268.44 1530.14,1278.32 1532.51,1288.04 1535.63,1297.54 1539.51,1306.76 1544.1,1315.65 1549.39,1324.14 1555.33,1332.18 1561.9,1339.73 1569.04,1346.73 1576.72,1353.15 1584.88,1358.93 1593.48,1364.05 1602.45,1368.46 1611.75,1372.15 1621.31,1375.09 1631.07,1377.26 1640.98,1378.65 1650.97,1379.25 1660.97,1379.05 1670.92,1378.06 1680.76,1376.27 1690.44,1373.72 1699.87,1370.4 1709.02,1366.34 1717.81,1361.57 1726.19,1356.12 1734.12,1350.02 1741.54,1343.3 1748.39,1336.02 1754.65,1328.22 1760.27,1319.94 1765.22,1311.25 1769.45,1302.19 1772.96,1292.82 1775.71,1283.2 1777.68,1273.39 1778.87,1263.46 1779.27,1253.47 "/>
<path clip-path="url(#clip102)" d="M872.337 346.533 L871.939 336.537 L870.749 326.605 L868.773 316.799 L866.024 307.181 L862.52 297.812 L858.282 288.751 L853.338 280.055 L847.719 271.78 L841.46 263.977 L834.601 256.696 L827.185 249.982 L819.259 243.88 L810.873 238.426 L802.081 233.656 L792.937 229.6 L783.5 226.282 L773.829 223.725 L763.986 221.945 L754.032 220.952 L744.031 220.753 L734.046 221.349 L724.14 222.737 L714.375 224.908 L704.813 227.847 L695.516 231.537 L686.541 235.954 L677.945 241.07 L669.782 246.852 L662.106 253.265 L654.962 260.268 L648.398 267.816 L642.454 275.861 L637.168 284.354 L632.574 293.239 L628.7 302.462 L625.571 311.963 L623.207 321.683 L621.622 331.56 L620.828 341.531 L620.828 351.534 L621.622 361.506 L623.207 371.382 L625.571 381.102 L628.7 390.603 L632.574 399.826 L637.168 408.711 L642.454 417.204 L648.398 425.249 L654.962 432.797 L662.106 439.8 L669.782 446.213 L677.945 451.996 L686.541 457.111 L695.516 461.528 L704.813 465.218 L714.375 468.157 L724.14 470.328 L734.046 471.716 L744.031 472.312 L754.032 472.113 L763.986 471.12 L773.829 469.34 L783.5 466.783 L792.937 463.466 L802.081 459.409 L810.873 454.639 L819.259 449.185 L827.185 443.083 L834.601 436.37 L841.46 429.089 L847.719 421.286 L853.338 413.01 L858.282 404.314 L862.52 395.253 L866.024 385.884 L868.773 376.266 L870.749 366.46 L871.939 356.528 L872.337 346.533 L872.337 346.533  Z" fill="#009af9" fill-rule="evenodd" fill-opacity="1"/>
<polyline clip-path="url(#clip102)" style="stroke:#000000; stroke-linecap:round; stroke-linejoin:round; stroke-width:4; stroke-opacity:1; fill:none" points="872.337,346.533 871.939,336.537 870.749,326.605 868.773,316.799 866.024,307.181 862.52,297.812 858.282,288.751 853.338,280.055 847.719,271.78 841.46,263.977 834.601,256.696 827.185,249.982 819.259,243.88 810.873,238.426 802.081,233.656 792.937,229.6 783.5,226.282 773.829,223.725 763.986,221.945 754.032,220.952 744.031,220.753 734.046,221.349 724.14,222.737 714.375,224.908 704.813,227.847 695.516,231.537 686.541,235.954 677.945,241.07 669.782,246.852 662.106,253.265 654.962,260.268 648.398,267.816 642.454,275.861 637.168,284.354 632.574,293.239 628.7,302.462 625.571,311.963 623.207,321.683 621.622,331.56 620.828,341.531 620.828,351.534 621.622,361.506 623.207,371.382 625.571,381.102 628.7,390.603 632.574,399.826 637.168,408.711 642.454,417.204 648.398,425.249 654.962,432.797 662.106,439.8 669.782,446.213 677.945,451.996 686.541,457.111 695.516,461.528 704.813,465.218 714.375,468.157 724.14,470.328 734.046,471.716 744.031,472.312 754.032,472.113 763.986,471.12 773.829,469.34 783.5,466.783 792.937,463.466 802.081,459.409 810.873,454.639 819.259,449.185 827.185,443.083 834.601,436.37 841.46,429.089 847.719,421.286 853.338,413.01 858.282,404.314 862.52,395.253 866.024,385.884 868.773,376.266 870.749,366.46 871.939,356.528 872.337,346.533 872.337,346.533 "/>
<circle clip-path="url(#clip102)" style="fill:#009af9; stroke:none; fill-opacity:0" cx="1653.47" cy="1253.47" r="2"/>
<circle clip-path="url(#clip102)" style="fill:#009af9; stroke:none; fill-opacity:0" cx="746.533" cy="346.533" r="2"/>
<path clip-path="url(#clip100)" d="M1860.26 1489.44 L1864.07 1489.44 L1864.07 1476.25 L1859.92 1477.09 L1859.92 1474.96 L1864.05 1474.12 L1866.39 1474.12 L1866.39 1489.44 L1870.21 1489.44 L1870.21 1491.4 L1860.26 1491.4 L1860.26 1489.44 Z" fill="#000000" fill-rule="nonzero" fill-opacity="1" /><path clip-path="url(#clip100)" d="M1878.41 1474.12 L1880.38 1474.12 L1874.36 1493.6 L1872.4 1493.6 L1878.41 1474.12 Z" fill="#000000" fill-rule="nonzero" fill-opacity="1" /><path clip-path="url(#clip100)" d="M1886.4 1474.12 L1888.37 1474.12 L1882.35 1493.6 L1880.38 1493.6 L1886.4 1474.12 Z" fill="#000000" fill-rule="nonzero" fill-opacity="1" /><path clip-path="url(#clip100)" d="M1891.31 1489.44 L1895.13 1489.44 L1895.13 1476.25 L1890.97 1477.09 L1890.97 1474.96 L1895.1 1474.12 L1897.44 1474.12 L1897.44 1489.44 L1901.26 1489.44 L1901.26 1491.4 L1891.31 1491.4 L1891.31 1489.44 Z" fill="#000000" fill-rule="nonzero" fill-opacity="1" /><path clip-path="url(#clip100)" d="M1308.02 678.412 L1311.84 678.412 L1311.84 665.23 L1307.68 666.063 L1307.68 663.933 L1311.81 663.1 L1314.15 663.1 L1314.15 678.412 L1317.97 678.412 L1317.97 680.38 L1308.02 680.38 L1308.02 678.412 Z" fill="#000000" fill-rule="nonzero" fill-opacity="1" /><path clip-path="url(#clip100)" d="M1326.18 663.1 L1328.14 663.1 L1322.13 682.579 L1320.16 682.579 L1326.18 663.1 Z" fill="#000000" fill-rule="nonzero" fill-opacity="1" /><path clip-path="url(#clip100)" d="M1334.16 663.1 L1336.13 663.1 L1330.11 682.579 L1328.14 682.579 L1334.16 663.1 Z" fill="#000000" fill-rule="nonzero" fill-opacity="1" /><path clip-path="url(#clip100)" d="M1340.68 678.412 L1348.84 678.412 L1348.84 680.38 L1337.87 680.38 L1337.87 678.412 Q1339.2 677.035 1341.49 674.72 Q1343.79 672.394 1344.38 671.723 Q1345.51 670.461 1345.95 669.593 Q1346.4 668.713 1346.4 667.869 Q1346.4 666.491 1345.42 665.623 Q1344.46 664.755 1342.91 664.755 Q1341.81 664.755 1340.59 665.137 Q1339.37 665.519 1337.98 666.294 L1337.98 663.933 Q1339.39 663.366 1340.62 663.077 Q1341.85 662.788 1342.87 662.788 Q1345.55 662.788 1347.15 664.13 Q1348.75 665.473 1348.75 667.718 Q1348.75 668.783 1348.34 669.744 Q1347.95 670.693 1346.89 671.989 Q1346.6 672.325 1345.05 673.933 Q1343.5 675.531 1340.68 678.412 Z" fill="#000000" fill-rule="nonzero" fill-opacity="1" /><path clip-path="url(#clip100)" d="M568.272 227.354 L572.092 227.354 L572.092 214.171 L567.936 215.004 L567.936 212.874 L572.068 212.041 L574.406 212.041 L574.406 227.354 L578.226 227.354 L578.226 229.321 L568.272 229.321 L568.272 227.354 Z" fill="#000000" fill-rule="nonzero" fill-opacity="1" /><path clip-path="url(#clip100)" d="M586.432 212.041 L588.399 212.041 L582.381 231.52 L580.413 231.52 L586.432 212.041 Z" fill="#000000" fill-rule="nonzero" fill-opacity="1" /><path clip-path="url(#clip100)" d="M594.418 212.041 L596.385 212.041 L590.367 231.52 L588.399 231.52 L594.418 212.041 Z" fill="#000000" fill-rule="nonzero" fill-opacity="1" /><path clip-path="url(#clip100)" d="M600.934 227.354 L609.094 227.354 L609.094 229.321 L598.122 229.321 L598.122 227.354 Q599.453 225.976 601.744 223.661 Q604.047 221.335 604.638 220.664 Q605.76 219.402 606.2 218.534 Q606.652 217.654 606.652 216.81 Q606.652 215.432 605.679 214.564 Q604.719 213.696 603.168 213.696 Q602.068 213.696 600.841 214.078 Q599.626 214.46 598.237 215.236 L598.237 212.874 Q599.649 212.307 600.876 212.018 Q602.103 211.729 603.121 211.729 Q605.807 211.729 607.404 213.071 Q609.001 214.414 609.001 216.659 Q609.001 217.724 608.596 218.685 Q608.202 219.634 607.149 220.93 Q606.86 221.266 605.309 222.874 Q603.758 224.472 600.934 227.354 Z" fill="#000000" fill-rule="nonzero" fill-opacity="1" /><path clip-path="url(#clip100)" d="M1638.79 1246.37 Q1636.98 1246.37 1636.07 1248.15 Q1635.16 1249.92 1635.16 1253.48 Q1635.16 1257.04 1636.07 1258.82 Q1636.98 1260.59 1638.79 1260.59 Q1640.6 1260.59 1641.51 1258.82 Q1642.42 1257.04 1642.42 1253.48 Q1642.42 1249.92 1641.51 1248.15 Q1640.6 1246.37 1638.79 1246.37 M1638.79 1244.51 Q1641.69 1244.51 1643.22 1246.82 Q1644.76 1249.11 1644.76 1253.48 Q1644.76 1257.85 1643.22 1260.15 Q1641.69 1262.44 1638.79 1262.44 Q1635.88 1262.44 1634.34 1260.15 Q1632.81 1257.85 1632.81 1253.48 Q1632.81 1249.11 1634.34 1246.82 Q1635.88 1244.51 1638.79 1244.51 Z" fill="#000000" fill-rule="nonzero" fill-opacity="1" /><path clip-path="url(#clip100)" d="M1653.87 1246.37 Q1652.06 1246.37 1651.15 1248.15 Q1650.24 1249.92 1650.24 1253.48 Q1650.24 1257.04 1651.15 1258.82 Q1652.06 1260.59 1653.87 1260.59 Q1655.68 1260.59 1656.59 1258.82 Q1657.5 1257.04 1657.5 1253.48 Q1657.5 1249.92 1656.59 1248.15 Q1655.68 1246.37 1653.87 1246.37 M1653.87 1244.51 Q1656.77 1244.51 1658.3 1246.82 Q1659.84 1249.11 1659.84 1253.48 Q1659.84 1257.85 1658.3 1260.15 Q1656.77 1262.44 1653.87 1262.44 Q1650.96 1262.44 1649.42 1260.15 Q1647.89 1257.85 1647.89 1253.48 Q1647.89 1249.11 1649.42 1246.82 Q1650.96 1244.51 1653.87 1244.51 Z" fill="#000000" fill-rule="nonzero" fill-opacity="1" /><path clip-path="url(#clip100)" d="M1665.96 1260.14 L1674.12 1260.14 L1674.12 1262.11 L1663.15 1262.11 L1663.15 1260.14 Q1664.48 1258.76 1666.77 1256.45 Q1669.07 1254.12 1669.67 1253.45 Q1670.79 1252.19 1671.23 1251.32 Q1671.68 1250.44 1671.68 1249.6 Q1671.68 1248.22 1670.71 1247.35 Q1669.75 1246.48 1668.2 1246.48 Q1667.1 1246.48 1665.87 1246.86 Q1664.65 1247.25 1663.26 1248.02 L1663.26 1245.66 Q1664.68 1245.09 1665.9 1244.8 Q1667.13 1244.51 1668.15 1244.51 Q1670.83 1244.51 1672.43 1245.86 Q1674.03 1247.2 1674.03 1249.45 Q1674.03 1250.51 1673.62 1251.47 Q1673.23 1252.42 1672.18 1253.72 Q1671.89 1254.05 1670.34 1255.66 Q1668.79 1257.26 1665.96 1260.14 Z" fill="#000000" fill-rule="nonzero" fill-opacity="1" /><path clip-path="url(#clip100)" d="M731.758 339.432 Q729.953 339.432 729.038 341.214 Q728.136 342.985 728.136 346.55 Q728.136 350.103 729.038 351.886 Q729.953 353.656 731.758 353.656 Q733.575 353.656 734.478 351.886 Q735.393 350.103 735.393 346.55 Q735.393 342.985 734.478 341.214 Q733.575 339.432 731.758 339.432 M731.758 337.58 Q734.663 337.58 736.191 339.883 Q737.731 342.175 737.731 346.55 Q737.731 350.913 736.191 353.217 Q734.663 355.508 731.758 355.508 Q728.853 355.508 727.314 353.217 Q725.786 350.913 725.786 346.55 Q725.786 342.175 727.314 339.883 Q728.853 337.58 731.758 337.58 Z" fill="#000000" fill-rule="nonzero" fill-opacity="1" /><path clip-path="url(#clip100)" d="M742.244 353.205 L746.064 353.205 L746.064 340.022 L741.909 340.856 L741.909 338.726 L746.041 337.893 L748.379 337.893 L748.379 353.205 L752.198 353.205 L752.198 355.173 L742.244 355.173 L742.244 353.205 Z" fill="#000000" fill-rule="nonzero" fill-opacity="1" /><path clip-path="url(#clip100)" d="M757.325 353.205 L761.145 353.205 L761.145 340.022 L756.99 340.856 L756.99 338.726 L761.122 337.893 L763.46 337.893 L763.46 353.205 L767.279 353.205 L767.279 355.173 L757.325 355.173 L757.325 353.205 Z" fill="#000000" fill-rule="nonzero" fill-opacity="1" /></svg>
