<?xml version="1.0" encoding="utf-8"?>
<svg xmlns="http://www.w3.org/2000/svg" xmlns:xlink="http://www.w3.org/1999/xlink" width="600" height="400" viewBox="0 0 2400 1600">
<defs>
  <clipPath id="clip250">
    <rect x="0" y="0" width="2400" height="1600"/>
  </clipPath>
</defs>
<path clip-path="url(#clip250)" d="M0 1600 L2400 1600 L2400 0 L0 0  Z" fill="#ffffff" fill-rule="evenodd" fill-opacity="1"/>
<defs>
  <clipPath id="clip251">
    <rect x="480" y="0" width="1681" height="1600"/>
  </clipPath>
</defs>
<path clip-path="url(#clip250)" d="M447.244 1552.76 L1952.76 1552.76 L1952.76 47.2441 L447.244 47.2441  Z" fill="#ffffff" fill-rule="evenodd" fill-opacity="1"/>
<defs>
  <clipPath id="clip252">
    <rect x="447" y="47" width="1507" height="1507"/>
  </clipPath>
</defs>
<polyline clip-path="url(#clip252)" style="stroke:#000000; stroke-linecap:round; stroke-linejoin:round; stroke-width:4; stroke-opacity:1; fill:none" points="1744,818.008 1757.55,819.739 1771.03,821.438 1784.39,823.071 1797.56,824.605 1810.48,826.008 1823.08,827.245 1835.3,828.285 1847.08,829.094 1858.36,829.64 1869.07,829.889 1879.15,829.808 1888.54,829.365 1897.17,828.532 1905.04,827.319 1912.15,825.761 1918.51,823.889 1924.13,821.738 1929.01,819.339 1933.18,816.726 1936.63,813.932 1939.37,810.99 1941.41,807.932 1942.77,804.792 1943.44,801.603 1943.44,798.397 1942.77,795.208 1941.41,792.068 1939.37,789.01 1936.63,786.068 1933.18,783.274 1929.01,780.661 1924.13,778.262 1918.51,776.111 1912.15,774.239 1905.04,772.681 1897.17,771.468 1888.54,770.635 1879.15,770.192 1869.07,770.111 1858.36,770.36 1847.08,770.906 1835.3,771.715 1823.08,772.755 1810.48,773.992 1797.56,775.395 1784.39,776.929 1771.03,778.562 1757.55,780.261 1744,781.992 "/>
<polyline clip-path="url(#clip252)" style="stroke:#000000; stroke-linecap:round; stroke-linejoin:round; stroke-width:4; stroke-opacity:1; fill:none" points="1781.99,795.283 1744,781.992 1777.43,759.573 "/>
<polyline clip-path="url(#clip252)" style="stroke:#000000; stroke-linecap:round; stroke-linejoin:round; stroke-width:4; stroke-opacity:1; fill:none" points="1744,781.992 1757.55,780.261 "/>
<polyline clip-path="url(#clip252)" style="stroke:#000000; stroke-linecap:round; stroke-linejoin:round; stroke-width:4; stroke-opacity:1; fill:none" points="1200,346.533 1217.35,348.846 1234.68,351.176 1251.95,353.54 1269.13,355.955 1286.2,358.439 1303.12,361.008 1319.87,363.68 1336.42,366.471 1352.75,369.399 1368.81,372.481 1384.59,375.734 1400.05,379.174 1415.16,382.82 1429.91,386.688 1444.25,390.795 1458.16,395.158 1471.62,399.794 1484.58,404.721 1497.03,409.956 1508.94,415.515 1520.27,421.416 1531,427.675 1541.09,434.311 1550.53,441.339 1559.28,448.777 1567.34,456.624 1574.75,464.864 1581.52,473.48 1587.69,482.455 1593.29,491.772 1598.34,501.413 1602.87,511.361 1606.92,521.6 1610.51,532.113 1613.67,542.881 1616.43,553.889 1618.81,565.119 1620.85,576.554 1622.57,588.177 1624.01,599.971 1625.19,611.919 1626.14,624.003 1626.89,636.207 1627.47,648.513 1627.9,660.905 1628.22,673.365 1628.45,685.876 1628.63,698.422 1628.77,710.984 "/>
<polyline clip-path="url(#clip252)" style="stroke:#000000; stroke-linecap:round; stroke-linejoin:round; stroke-width:4; stroke-opacity:1; fill:none" points="1646.35,674.777 1628.77,710.984 1610.36,675.197 "/>
<polyline clip-path="url(#clip252)" style="stroke:#000000; stroke-linecap:round; stroke-linejoin:round; stroke-width:4; stroke-opacity:1; fill:none" points="1628.77,710.984 1628.63,698.422 "/>
<polyline clip-path="url(#clip252)" style="stroke:#000000; stroke-linecap:round; stroke-linejoin:round; stroke-width:4; stroke-opacity:1; fill:none" points="1218.01,255.989 1219.74,242.44 1221.44,228.955 1223.07,215.595 1224.61,202.425 1226.01,189.507 1227.25,176.905 1228.29,164.681 1229.09,152.899 1229.64,141.621 1229.89,130.911 1229.81,120.831 1229.36,111.446 1228.53,102.812 1227.32,94.9446 1225.76,87.8349 1223.89,81.4744 1221.74,75.8546 1219.34,70.9671 1216.73,66.8033 1213.93,63.3547 1210.99,60.6128 1207.93,58.5691 1204.79,57.2151 1201.6,56.5422 1198.4,56.5423 1195.21,57.2153 1192.07,58.5695 1189.01,60.6134 1186.07,63.3554 1183.27,66.8041 1180.66,70.968 1178.26,75.8555 1176.11,81.4752 1174.24,87.8356 1172.68,94.9452 1171.47,102.812 1170.63,111.446 1170.19,120.831 1170.11,130.91 1170.36,141.619 1170.9,152.896 1171.71,164.678 1172.75,176.901 1173.99,189.503 1175.39,202.42 1176.93,215.589 1178.56,228.947 1180.26,242.432 1181.99,255.98 "/>
<polyline clip-path="url(#clip252)" style="stroke:#000000; stroke-linecap:round; stroke-linejoin:round; stroke-width:4; stroke-opacity:1; fill:none" points="1195.28,217.988 1181.99,255.98 1159.57,222.552 "/>
<polyline clip-path="url(#clip252)" style="stroke:#000000; stroke-linecap:round; stroke-linejoin:round; stroke-width:4; stroke-opacity:1; fill:none" points="1181.99,255.98 1180.26,242.432 "/>
<polyline clip-path="url(#clip252)" style="stroke:#000000; stroke-linecap:round; stroke-linejoin:round; stroke-width:4; stroke-opacity:1; fill:none" points="1200,346.533 1197.69,363.887 1195.36,381.212 1192.99,398.481 1190.58,415.663 1188.09,432.73 1185.52,449.654 1182.85,466.406 1180.06,482.957 1177.13,499.279 1174.05,515.343 1170.8,531.119 1167.36,546.58 1163.71,561.697 1159.84,576.442 1155.74,590.784 1151.37,604.696 1146.74,618.15 1141.81,631.115 1136.58,643.565 1131.02,655.469 1125.12,666.8 1118.86,677.529 1112.22,687.626 1105.19,697.064 1097.76,705.814 1089.91,713.878 1081.67,721.281 1073.05,728.054 1064.08,734.224 1054.76,739.82 1045.12,744.872 1035.17,749.407 1024.93,753.455 1014.42,757.044 1003.65,760.202 992.643,762.959 981.413,765.343 969.978,767.383 958.355,769.107 946.562,770.545 934.614,771.724 922.53,772.674 910.326,773.423 898.02,774 885.628,774.434 873.168,774.752 860.656,774.985 848.111,775.161 835.548,775.307 "/>
<polyline clip-path="url(#clip252)" style="stroke:#000000; stroke-linecap:round; stroke-linejoin:round; stroke-width:4; stroke-opacity:1; fill:none" points="871.756,792.886 835.548,775.307 871.335,756.888 "/>
<polyline clip-path="url(#clip252)" style="stroke:#000000; stroke-linecap:round; stroke-linejoin:round; stroke-width:4; stroke-opacity:1; fill:none" points="835.548,775.307 848.111,775.161 "/>
<polyline clip-path="url(#clip252)" style="stroke:#000000; stroke-linecap:round; stroke-linejoin:round; stroke-width:4; stroke-opacity:1; fill:none" points="1200,346.533 1210.75,365.915 1221.47,385.289 1232.11,404.645 1242.66,423.976 1253.08,443.271 1263.33,462.522 1273.37,481.721 1283.18,500.859 1292.73,519.926 1301.97,538.915 1310.88,557.817 1319.41,576.622 1327.55,595.322 1335.25,613.909 1342.48,632.373 1349.21,650.706 1355.41,668.898 1361.03,686.943 1366.05,704.829 1370.43,722.55 1374.15,740.095 1377.16,757.457 1379.43,774.626 1380.93,791.594 1381.64,808.353 1381.53,824.901 1380.66,841.249 1379.05,857.404 1376.74,873.376 1373.75,889.172 1370.13,904.803 1365.91,920.275 1361.12,935.6 1355.79,950.784 1349.95,965.837 1343.65,980.767 1336.92,995.584 1329.78,1010.3 1322.27,1024.91 1314.43,1039.44 1306.29,1053.89 1297.88,1068.27 1289.23,1082.59 1280.38,1096.85 1271.37,1111.07 1262.22,1125.26 1252.97,1139.42 1243.66,1153.56 1234.31,1167.7 "/>
<polyline clip-path="url(#clip252)" style="stroke:#000000; stroke-linecap:round; stroke-linejoin:round; stroke-width:4; stroke-opacity:1; fill:none" points="1269.18,1147.6 1234.31,1167.7 1239.16,1127.74 "/>
<polyline clip-path="url(#clip252)" style="stroke:#000000; stroke-linecap:round; stroke-linejoin:round; stroke-width:4; stroke-opacity:1; fill:none" points="1234.31,1167.7 1243.66,1153.56 "/>
<polyline clip-path="url(#clip252)" style="stroke:#000000; stroke-linecap:round; stroke-linejoin:round; stroke-width:4; stroke-opacity:1; fill:none" points="746.533,800 748.846,782.646 751.176,765.32 753.54,748.052 755.955,730.87 758.439,713.802 761.008,696.878 763.68,680.126 766.471,663.575 769.399,647.254 772.481,631.19 775.734,615.413 779.174,599.952 782.82,584.835 786.688,570.091 790.795,555.749 795.158,541.836 799.794,528.383 804.721,515.417 809.956,502.968 815.515,491.063 821.416,479.732 827.675,469.004 834.311,458.907 841.339,449.469 848.777,440.718 856.624,432.655 864.864,425.251 873.48,418.479 882.455,412.309 891.772,406.712 901.413,401.661 911.361,397.125 921.6,393.078 932.113,389.489 942.881,386.33 953.889,383.573 965.119,381.189 976.554,379.15 988.177,377.425 999.971,375.988 1011.92,374.808 1024,373.859 1036.21,373.11 1048.51,372.533 1060.9,372.099 1073.36,371.78 1085.88,371.547 1098.42,371.372 1110.98,371.225 "/>
<polyline clip-path="url(#clip252)" style="stroke:#000000; stroke-linecap:round; stroke-linejoin:round; stroke-width:4; stroke-opacity:1; fill:none" points="1074.78,353.647 1110.98,371.225 1075.2,389.644 "/>
<polyline clip-path="url(#clip252)" style="stroke:#000000; stroke-linecap:round; stroke-linejoin:round; stroke-width:4; stroke-opacity:1; fill:none" points="1110.98,371.225 1098.42,371.372 "/>
<polyline clip-path="url(#clip252)" style="stroke:#000000; stroke-linecap:round; stroke-linejoin:round; stroke-width:4; stroke-opacity:1; fill:none" points="746.533,800 748.846,817.354 751.176,834.68 753.54,851.948 755.955,869.13 758.439,886.198 761.008,903.122 763.68,919.874 766.471,936.425 769.399,952.746 772.481,968.81 775.734,984.587 779.174,1000.05 782.82,1015.16 786.688,1029.91 790.795,1044.25 795.158,1058.16 799.794,1071.62 804.721,1084.58 809.956,1097.03 815.515,1108.94 821.416,1120.27 827.675,1131 834.311,1141.09 841.339,1150.53 848.777,1159.28 856.624,1167.34 864.864,1174.75 873.48,1181.52 882.455,1187.69 891.772,1193.29 901.413,1198.34 911.361,1202.87 921.6,1206.92 932.113,1210.51 942.881,1213.67 953.889,1216.43 965.119,1218.81 976.554,1220.85 988.177,1222.57 999.971,1224.01 1011.92,1225.19 1024,1226.14 1036.21,1226.89 1048.51,1227.47 1060.9,1227.9 1073.36,1228.22 1085.88,1228.45 1098.42,1228.63 1110.98,1228.77 "/>
<polyline clip-path="url(#clip252)" style="stroke:#000000; stroke-linecap:round; stroke-linejoin:round; stroke-width:4; stroke-opacity:1; fill:none" points="1075.2,1210.36 1110.98,1228.77 1074.78,1246.35 "/>
<polyline clip-path="url(#clip252)" style="stroke:#000000; stroke-linecap:round; stroke-linejoin:round; stroke-width:4; stroke-opacity:1; fill:none" points="1110.98,1228.77 1098.42,1228.63 "/>
<polyline clip-path="url(#clip252)" style="stroke:#000000; stroke-linecap:round; stroke-linejoin:round; stroke-width:4; stroke-opacity:1; fill:none" points="1200,1253.47 1189.25,1234.08 1178.53,1214.71 1167.89,1195.35 1157.34,1176.02 1146.92,1156.73 1136.67,1137.48 1126.63,1118.28 1116.82,1099.14 1107.27,1080.07 1098.03,1061.08 1089.12,1042.18 1080.59,1023.38 1072.45,1004.68 1064.75,986.091 1057.52,967.627 1050.79,949.294 1044.59,931.102 1038.97,913.057 1033.95,895.171 1029.57,877.45 1025.85,859.905 1022.84,842.543 1020.57,825.374 1019.07,808.406 1018.36,791.647 1018.47,775.099 1019.34,758.751 1020.95,742.596 1023.26,726.624 1026.25,710.828 1029.87,695.197 1034.09,679.725 1038.88,664.4 1044.21,649.216 1050.05,634.163 1056.35,619.233 1063.08,604.416 1070.22,589.705 1077.73,575.089 1085.57,560.561 1093.71,546.112 1102.12,531.733 1110.77,517.415 1119.62,503.149 1128.63,488.927 1137.78,474.74 1147.03,460.58 1156.34,446.437 1165.69,432.302 "/>
<polyline clip-path="url(#clip252)" style="stroke:#000000; stroke-linecap:round; stroke-linejoin:round; stroke-width:4; stroke-opacity:1; fill:none" points="1130.82,452.398 1165.69,432.302 1160.84,472.259 "/>
<polyline clip-path="url(#clip252)" style="stroke:#000000; stroke-linecap:round; stroke-linejoin:round; stroke-width:4; stroke-opacity:1; fill:none" points="1165.69,432.302 1156.34,446.437 "/>
<polyline clip-path="url(#clip252)" style="stroke:#000000; stroke-linecap:round; stroke-linejoin:round; stroke-width:4; stroke-opacity:1; fill:none" points="1200,1253.47 1197.69,1236.11 1195.36,1218.79 1192.99,1201.52 1190.58,1184.34 1188.09,1167.27 1185.52,1150.35 1182.85,1133.59 1180.06,1117.04 1177.13,1100.72 1174.05,1084.66 1170.8,1068.88 1167.36,1053.42 1163.71,1038.3 1159.84,1023.56 1155.74,1009.22 1151.37,995.304 1146.74,981.85 1141.81,968.885 1136.58,956.435 1131.02,944.531 1125.12,933.2 1118.86,922.471 1112.22,912.374 1105.19,902.936 1097.76,894.186 1089.91,886.122 1081.67,878.719 1073.05,871.946 1064.08,865.776 1054.76,860.18 1045.12,855.128 1035.17,850.593 1024.93,846.545 1014.42,842.956 1003.65,839.798 992.643,837.041 981.413,834.657 969.978,832.617 958.355,830.893 946.562,829.455 934.614,828.276 922.53,827.326 910.326,826.577 898.02,826 885.628,825.566 873.168,825.248 860.656,825.015 848.111,824.839 835.548,824.693 "/>
<polyline clip-path="url(#clip252)" style="stroke:#000000; stroke-linecap:round; stroke-linejoin:round; stroke-width:4; stroke-opacity:1; fill:none" points="871.335,843.112 835.548,824.693 871.756,807.114 "/>
<polyline clip-path="url(#clip252)" style="stroke:#000000; stroke-linecap:round; stroke-linejoin:round; stroke-width:4; stroke-opacity:1; fill:none" points="835.548,824.693 848.111,824.839 "/>
<polyline clip-path="url(#clip252)" style="stroke:#000000; stroke-linecap:round; stroke-linejoin:round; stroke-width:4; stroke-opacity:1; fill:none" points="1218.01,1162.92 1214.44,1185.7 1210.92,1208.34 1207.5,1230.7 1204.22,1252.65 1201.13,1274.06 1198.28,1294.78 1195.71,1314.68 1193.48,1333.62 1191.63,1351.46 1190.2,1368.08 1189.26,1383.32 1188.83,1397.05 1188.98,1409.16 1189.67,1419.65 1190.86,1428.61 1192.5,1436.12 1194.55,1442.26 1196.95,1447.11 1199.67,1450.76 1202.65,1453.29 1205.84,1454.78 1209.2,1455.31 1212.67,1454.97 1216.22,1453.83 1219.8,1451.99 1223.35,1449.51 1226.82,1446.46 1230.18,1442.9 1233.37,1438.9 1236.35,1434.53 1239.07,1429.85 1241.47,1424.93 1243.52,1419.83 1245.16,1414.62 1246.35,1409.36 1247.04,1404.12 1247.19,1398.96 1246.76,1393.92 1245.82,1389.01 1244.39,1384.2 1242.54,1379.49 1240.31,1374.87 1237.74,1370.32 1234.89,1365.83 1231.8,1361.4 1228.52,1357.02 1225.1,1352.66 1221.58,1348.33 1218.01,1344.01 "/>
<polyline clip-path="url(#clip252)" style="stroke:#000000; stroke-linecap:round; stroke-linejoin:round; stroke-width:4; stroke-opacity:1; fill:none" points="1227.05,1383.23 1218.01,1344.01 1254.81,1360.32 "/>
<polyline clip-path="url(#clip252)" style="stroke:#000000; stroke-linecap:round; stroke-linejoin:round; stroke-width:4; stroke-opacity:1; fill:none" points="1218.01,1344.01 1221.58,1348.33 "/>
<path clip-path="url(#clip252)" d="M1910.45 819.016 L1976.43 819.016 L1976.43 784.19 L1910.45 784.19 L1910.45 819.016 L1910.45 819.016  Z" fill="#ffffff" fill-rule="evenodd" fill-opacity="1"/>
<polyline clip-path="url(#clip252)" style="stroke:#000000; stroke-linecap:round; stroke-linejoin:round; stroke-width:0; stroke-opacity:0; fill:none" points="1910.45,819.016 1976.43,819.016 1976.43,784.19 1910.45,784.19 1910.45,819.016 "/>
<path clip-path="url(#clip252)" d="M1522 462.419 L1587.99 462.419 L1587.99 427.593 L1522 427.593 L1522 462.419 L1522 462.419  Z" fill="#ffffff" fill-rule="evenodd" fill-opacity="1"/>
<polyline clip-path="url(#clip252)" style="stroke:#000000; stroke-linecap:round; stroke-linejoin:round; stroke-width:0; stroke-opacity:0; fill:none" points="1522,462.419 1587.99,462.419 1587.99,427.593 1522,427.593 1522,462.419 "/>
<path clip-path="url(#clip252)" d="M1168.61 73.9553 L1234.59 73.9553 L1234.59 39.129 L1168.61 39.129 L1168.61 73.9553 L1168.61 73.9553  Z" fill="#ffffff" fill-rule="evenodd" fill-opacity="1"/>
<polyline clip-path="url(#clip252)" style="stroke:#000000; stroke-linecap:round; stroke-linejoin:round; stroke-width:0; stroke-opacity:0; fill:none" points="1168.61,73.9553 1234.59,73.9553 1234.59,39.129 1168.61,39.129 1168.61,73.9553 "/>
<path clip-path="url(#clip252)" d="M1068.53 718.939 L1134.52 718.939 L1134.52 684.113 L1068.53 684.113 L1068.53 718.939 L1068.53 718.939  Z" fill="#ffffff" fill-rule="evenodd" fill-opacity="1"/>
<polyline clip-path="url(#clip252)" style="stroke:#000000; stroke-linecap:round; stroke-linejoin:round; stroke-width:0; stroke-opacity:0; fill:none" points="1068.53,718.939 1134.52,718.939 1134.52,684.113 1068.53,684.113 1068.53,718.939 "/>
<path clip-path="url(#clip252)" d="M1348.4 817.413 L1414.38 817.413 L1414.38 782.587 L1348.4 782.587 L1348.4 817.413 L1348.4 817.413  Z" fill="#ffffff" fill-rule="evenodd" fill-opacity="1"/>
<polyline clip-path="url(#clip252)" style="stroke:#000000; stroke-linecap:round; stroke-linejoin:round; stroke-width:0; stroke-opacity:0; fill:none" points="1348.4,817.413 1414.38,817.413 1414.38,782.587 1348.4,782.587 1348.4,817.413 "/>
<path clip-path="url(#clip252)" d="M812.015 462.419 L877.998 462.419 L877.998 427.593 L812.015 427.593 L812.015 462.419 L812.015 462.419  Z" fill="#ffffff" fill-rule="evenodd" fill-opacity="1"/>
<polyline clip-path="url(#clip252)" style="stroke:#000000; stroke-linecap:round; stroke-linejoin:round; stroke-width:0; stroke-opacity:0; fill:none" points="812.015,462.419 877.998,462.419 877.998,427.593 812.015,427.593 812.015,462.419 "/>
<path clip-path="url(#clip252)" d="M812.015 1172.41 L877.998 1172.41 L877.998 1137.58 L812.015 1137.58 L812.015 1172.41 L812.015 1172.41  Z" fill="#ffffff" fill-rule="evenodd" fill-opacity="1"/>
<polyline clip-path="url(#clip252)" style="stroke:#000000; stroke-linecap:round; stroke-linejoin:round; stroke-width:0; stroke-opacity:0; fill:none" points="812.015,1172.41 877.998,1172.41 877.998,1137.58 812.015,1137.58 812.015,1172.41 "/>
<path clip-path="url(#clip252)" d="M985.621 817.413 L1051.6 817.413 L1051.6 782.587 L985.621 782.587 L985.621 817.413 L985.621 817.413  Z" fill="#ffffff" fill-rule="evenodd" fill-opacity="1"/>
<polyline clip-path="url(#clip252)" style="stroke:#000000; stroke-linecap:round; stroke-linejoin:round; stroke-width:0; stroke-opacity:0; fill:none" points="985.621,817.413 1051.6,817.413 1051.6,782.587 985.621,782.587 985.621,817.413 "/>
<path clip-path="url(#clip252)" d="M1068.53 915.887 L1134.52 915.887 L1134.52 881.061 L1068.53 881.061 L1068.53 915.887 L1068.53 915.887  Z" fill="#ffffff" fill-rule="evenodd" fill-opacity="1"/>
<polyline clip-path="url(#clip252)" style="stroke:#000000; stroke-linecap:round; stroke-linejoin:round; stroke-width:0; stroke-opacity:0; fill:none" points="1068.53,915.887 1134.52,915.887 1134.52,881.061 1068.53,881.061 1068.53,915.887 "/>
<path clip-path="url(#clip252)" d="M1183.23 1471.24 L1249.22 1471.24 L1249.22 1436.42 L1183.23 1436.42 L1183.23 1471.24 L1183.23 1471.24  Z" fill="#ffffff" fill-rule="evenodd" fill-opacity="1"/>
<polyline clip-path="url(#clip252)" style="stroke:#000000; stroke-linecap:round; stroke-linejoin:round; stroke-width:0; stroke-opacity:0; fill:none" points="1183.23,1471.24 1249.22,1471.24 1249.22,1436.42 1183.23,1436.42 1183.23,1471.24 "/>
<path clip-path="url(#clip252)" d="M1745.84 800 L1745.55 792.661 L1744.68 785.368 L1743.23 778.167 L1741.21 771.105 L1738.64 764.225 L1735.52 757.572 L1731.89 751.186 L1727.77 745.11 L1723.17 739.38 L1718.14 734.034 L1712.69 729.104 L1706.87 724.623 L1700.71 720.619 L1694.26 717.116 L1687.54 714.137 L1680.61 711.701 L1673.51 709.824 L1666.28 708.516 L1658.97 707.787 L1651.63 707.641 L1644.3 708.079 L1637.02 709.098 L1629.85 710.692 L1622.83 712.85 L1616.01 715.56 L1609.42 718.803 L1603.1 722.56 L1597.11 726.806 L1591.47 731.515 L1586.23 736.657 L1581.41 742.199 L1577.04 748.107 L1573.16 754.343 L1569.79 760.867 L1566.94 767.639 L1564.65 774.616 L1562.91 781.753 L1561.75 789.005 L1561.16 796.327 L1561.16 803.673 L1561.75 810.995 L1562.91 818.247 L1564.65 825.384 L1566.94 832.361 L1569.79 839.133 L1573.16 845.657 L1577.04 851.893 L1581.41 857.801 L1586.23 863.343 L1591.47 868.485 L1597.11 873.194 L1603.1 877.44 L1609.42 881.197 L1616.01 884.44 L1622.83 887.15 L1629.85 889.308 L1637.02 890.902 L1644.3 891.921 L1651.63 892.359 L1658.97 892.213 L1666.28 891.484 L1673.51 890.176 L1680.61 888.299 L1687.54 885.863 L1694.26 882.884 L1700.71 879.381 L1706.87 875.377 L1712.69 870.896 L1718.14 865.966 L1723.17 860.62 L1727.77 854.89 L1731.89 848.814 L1735.52 842.428 L1738.64 835.775 L1741.21 828.895 L1743.23 821.833 L1744.68 814.632 L1745.55 807.339 L1745.84 800 L1745.84 800  Z" fill="#009af9" fill-rule="evenodd" fill-opacity="1"/>
<polyline clip-path="url(#clip252)" style="stroke:#000000; stroke-linecap:round; stroke-linejoin:round; stroke-width:4; stroke-opacity:1; fill:none" points="1745.84,800 1745.55,792.661 1744.68,785.368 1743.23,778.167 1741.21,771.105 1738.64,764.225 1735.52,757.572 1731.89,751.186 1727.77,745.11 1723.17,739.38 1718.14,734.034 1712.69,729.104 1706.87,724.623 1700.71,720.619 1694.26,717.116 1687.54,714.137 1680.61,711.701 1673.51,709.824 1666.28,708.516 1658.97,707.787 1651.63,707.641 1644.3,708.079 1637.02,709.098 1629.85,710.692 1622.83,712.85 1616.01,715.56 1609.42,718.803 1603.1,722.56 1597.11,726.806 1591.47,731.515 1586.23,736.657 1581.41,742.199 1577.04,748.107 1573.16,754.343 1569.79,760.867 1566.94,767.639 1564.65,774.616 1562.91,781.753 1561.75,789.005 1561.16,796.327 1561.16,803.673 1561.75,810.995 1562.91,818.247 1564.65,825.384 1566.94,832.361 1569.79,839.133 1573.16,845.657 1577.04,851.893 1581.41,857.801 1586.23,863.343 1591.47,868.485 1597.11,873.194 1603.1,877.44 1609.42,881.197 1616.01,884.44 1622.83,887.15 1629.85,889.308 1637.02,890.902 1644.3,891.921 1651.63,892.359 1658.97,892.213 1666.28,891.484 1673.51,890.176 1680.61,888.299 1687.54,885.863 1694.26,882.884 1700.71,879.381 1706.87,875.377 1712.69,870.896 1718.14,865.966 1723.17,860.62 1727.77,854.89 1731.89,848.814 1735.52,842.428 1738.64,835.775 1741.21,828.895 1743.23,821.833 1744.68,814.632 1745.55,807.339 1745.84,800 "/>
<path clip-path="url(#clip252)" d="M1292.38 346.533 L1292.08 339.193 L1291.21 331.9 L1289.76 324.7 L1287.74 317.637 L1285.17 310.758 L1282.06 304.104 L1278.43 297.719 L1274.3 291.642 L1269.7 285.912 L1264.67 280.566 L1259.22 275.637 L1253.4 271.156 L1247.24 267.151 L1240.79 263.648 L1234.07 260.67 L1227.14 258.234 L1220.04 256.356 L1212.82 255.049 L1205.51 254.32 L1198.16 254.174 L1190.83 254.612 L1183.56 255.631 L1176.39 257.225 L1169.37 259.383 L1162.54 262.092 L1155.95 265.336 L1149.64 269.092 L1143.64 273.338 L1138.01 278.047 L1132.76 283.189 L1127.94 288.732 L1123.58 294.639 L1119.69 300.875 L1116.32 307.4 L1113.48 314.172 L1111.18 321.149 L1109.44 328.286 L1108.28 335.538 L1107.7 342.86 L1107.7 350.205 L1108.28 357.527 L1109.44 364.78 L1111.18 371.917 L1113.48 378.893 L1116.32 385.665 L1119.69 392.19 L1123.58 398.426 L1127.94 404.334 L1132.76 409.876 L1138.01 415.018 L1143.64 419.727 L1149.64 423.973 L1155.95 427.73 L1162.54 430.973 L1169.37 433.682 L1176.39 435.841 L1183.56 437.434 L1190.83 438.453 L1198.16 438.891 L1205.51 438.745 L1212.82 438.016 L1220.04 436.709 L1227.14 434.831 L1234.07 432.395 L1240.79 429.417 L1247.24 425.914 L1253.4 421.91 L1259.22 417.428 L1264.67 412.499 L1269.7 407.153 L1274.3 401.423 L1278.43 395.346 L1282.06 388.961 L1285.17 382.307 L1287.74 375.428 L1289.76 368.365 L1291.21 361.165 L1292.08 353.872 L1292.38 346.533 L1292.38 346.533  Z" fill="#009af9" fill-rule="evenodd" fill-opacity="1"/>
<polyline clip-path="url(#clip252)" style="stroke:#000000; stroke-linecap:round; stroke-linejoin:round; stroke-width:4; stroke-opacity:1; fill:none" points="1292.38,346.533 1292.08,339.193 1291.21,331.9 1289.76,324.7 1287.74,317.637 1285.17,310.758 1282.06,304.104 1278.43,297.719 1274.3,291.642 1269.7,285.912 1264.67,280.566 1259.22,275.637 1253.4,271.156 1247.24,267.151 1240.79,263.648 1234.07,260.67 1227.14,258.234 1220.04,256.356 1212.82,255.049 1205.51,254.32 1198.16,254.174 1190.83,254.612 1183.56,255.631 1176.39,257.225 1169.37,259.383 1162.54,262.092 1155.95,265.336 1149.64,269.092 1143.64,273.338 1138.01,278.047 1132.76,283.189 1127.94,288.732 1123.58,294.639 1119.69,300.875 1116.32,307.4 1113.48,314.172 1111.18,321.149 1109.44,328.286 1108.28,335.538 1107.7,342.86 1107.7,350.205 1108.28,357.527 1109.44,364.78 1111.18,371.917 1113.48,378.893 1116.32,385.665 1119.69,392.19 1123.58,398.426 1127.94,404.334 1132.76,409.876 1138.01,415.018 1143.64,419.727 1149.64,423.973 1155.95,427.73 1162.54,430.973 1169.37,433.682 1176.39,435.841 1183.56,437.434 1190.83,438.453 1198.16,438.891 1205.51,438.745 1212.82,438.016 1220.04,436.709 1227.14,434.831 1234.07,432.395 1240.79,429.417 1247.24,425.914 1253.4,421.91 1259.22,417.428 1264.67,412.499 1269.7,407.153 1274.3,401.423 1278.43,395.346 1282.06,388.961 1285.17,382.307 1287.74,375.428 1289.76,368.365 1291.21,361.165 1292.08,353.872 1292.38,346.533 "/>
<path clip-path="url(#clip252)" d="M838.909 800 L838.617 792.661 L837.743 785.368 L836.292 778.167 L834.274 771.105 L831.701 764.225 L828.589 757.572 L824.959 751.186 L820.833 745.11 L816.237 739.38 L811.2 734.034 L805.755 729.104 L799.935 724.623 L793.777 720.619 L787.321 717.116 L780.607 714.137 L773.678 711.701 L766.576 709.824 L759.349 708.516 L752.04 707.787 L744.696 707.641 L737.364 708.079 L730.09 709.098 L722.92 710.692 L715.899 712.85 L709.071 715.56 L702.481 718.803 L696.169 722.56 L690.176 726.806 L684.539 731.515 L679.293 736.657 L674.473 742.199 L670.109 748.107 L666.227 754.343 L662.854 760.867 L660.009 767.639 L657.712 774.616 L655.976 781.753 L654.812 789.005 L654.229 796.327 L654.229 803.673 L654.812 810.995 L655.976 818.247 L657.712 825.384 L660.009 832.361 L662.854 839.133 L666.227 845.657 L670.109 851.893 L674.473 857.801 L679.293 863.343 L684.539 868.485 L690.176 873.194 L696.169 877.44 L702.481 881.197 L709.071 884.44 L715.899 887.15 L722.92 889.308 L730.09 890.902 L737.364 891.921 L744.696 892.359 L752.04 892.213 L759.349 891.484 L766.576 890.176 L773.678 888.299 L780.607 885.863 L787.321 882.884 L793.777 879.381 L799.935 875.377 L805.755 870.896 L811.2 865.966 L816.237 860.62 L820.833 854.89 L824.959 848.814 L828.589 842.428 L831.701 835.775 L834.274 828.895 L836.292 821.833 L837.743 814.632 L838.617 807.339 L838.909 800 L838.909 800  Z" fill="#009af9" fill-rule="evenodd" fill-opacity="1"/>
<polyline clip-path="url(#clip252)" style="stroke:#000000; stroke-linecap:round; stroke-linejoin:round; stroke-width:4; stroke-opacity:1; fill:none" points="838.909,800 838.617,792.661 837.743,785.368 836.292,778.167 834.274,771.105 831.701,764.225 828.589,757.572 824.959,751.186 820.833,745.11 816.237,739.38 811.2,734.034 805.755,729.104 799.935,724.623 793.777,720.619 787.321,717.116 780.607,714.137 773.678,711.701 766.576,709.824 759.349,708.516 752.04,707.787 744.696,707.641 737.364,708.079 730.09,709.098 722.92,710.692 715.899,712.85 709.071,715.56 702.481,718.803 696.169,722.56 690.176,726.806 684.539,731.515 679.293,736.657 674.473,742.199 670.109,748.107 666.227,754.343 662.854,760.867 660.009,767.639 657.712,774.616 655.976,781.753 654.812,789.005 654.229,796.327 654.229,803.673 654.812,810.995 655.976,818.247 657.712,825.384 660.009,832.361 662.854,839.133 666.227,845.657 670.109,851.893 674.473,857.801 679.293,863.343 684.539,868.485 690.176,873.194 696.169,877.44 702.481,881.197 709.071,884.44 715.899,887.15 722.92,889.308 730.09,890.902 737.364,891.921 744.696,892.359 752.04,892.213 759.349,891.484 766.576,890.176 773.678,888.299 780.607,885.863 787.321,882.884 793.777,879.381 799.935,875.377 805.755,870.896 811.2,865.966 816.237,860.62 820.833,854.89 824.959,848.814 828.589,842.428 831.701,835.775 834.274,828.895 836.292,821.833 837.743,814.632 838.617,807.339 838.909,800 "/>
<path clip-path="url(#clip252)" d="M1292.38 1253.47 L1292.08 1246.13 L1291.21 1238.84 L1289.76 1231.63 L1287.74 1224.57 L1285.17 1217.69 L1282.06 1211.04 L1278.43 1204.65 L1274.3 1198.58 L1269.7 1192.85 L1264.67 1187.5 L1259.22 1182.57 L1253.4 1178.09 L1247.24 1174.09 L1240.79 1170.58 L1234.07 1167.6 L1227.14 1165.17 L1220.04 1163.29 L1212.82 1161.98 L1205.51 1161.25 L1198.16 1161.11 L1190.83 1161.55 L1183.56 1162.57 L1176.39 1164.16 L1169.37 1166.32 L1162.54 1169.03 L1155.95 1172.27 L1149.64 1176.03 L1143.64 1180.27 L1138.01 1184.98 L1132.76 1190.12 L1127.94 1195.67 L1123.58 1201.57 L1119.69 1207.81 L1116.32 1214.33 L1113.48 1221.11 L1111.18 1228.08 L1109.44 1235.22 L1108.28 1242.47 L1107.7 1249.79 L1107.7 1257.14 L1108.28 1264.46 L1109.44 1271.71 L1111.18 1278.85 L1113.48 1285.83 L1116.32 1292.6 L1119.69 1299.12 L1123.58 1305.36 L1127.94 1311.27 L1132.76 1316.81 L1138.01 1321.95 L1143.64 1326.66 L1149.64 1330.91 L1155.95 1334.66 L1162.54 1337.91 L1169.37 1340.62 L1176.39 1342.78 L1183.56 1344.37 L1190.83 1345.39 L1198.16 1345.83 L1205.51 1345.68 L1212.82 1344.95 L1220.04 1343.64 L1227.14 1341.77 L1234.07 1339.33 L1240.79 1336.35 L1247.24 1332.85 L1253.4 1328.84 L1259.22 1324.36 L1264.67 1319.43 L1269.7 1314.09 L1274.3 1308.36 L1278.43 1302.28 L1282.06 1295.9 L1285.17 1289.24 L1287.74 1282.36 L1289.76 1275.3 L1291.21 1268.1 L1292.08 1260.81 L1292.38 1253.47 L1292.38 1253.47  Z" fill="#009af9" fill-rule="evenodd" fill-opacity="1"/>
<polyline clip-path="url(#clip252)" style="stroke:#000000; stroke-linecap:round; stroke-linejoin:round; stroke-width:4; stroke-opacity:1; fill:none" points="1292.38,1253.47 1292.08,1246.13 1291.21,1238.84 1289.76,1231.63 1287.74,1224.57 1285.17,1217.69 1282.06,1211.04 1278.43,1204.65 1274.3,1198.58 1269.7,1192.85 1264.67,1187.5 1259.22,1182.57 1253.4,1178.09 1247.24,1174.09 1240.79,1170.58 1234.07,1167.6 1227.14,1165.17 1220.04,1163.29 1212.82,1161.98 1205.51,1161.25 1198.16,1161.11 1190.83,1161.55 1183.56,1162.57 1176.39,1164.16 1169.37,1166.32 1162.54,1169.03 1155.95,1172.27 1149.64,1176.03 1143.64,1180.27 1138.01,1184.98 1132.76,1190.12 1127.94,1195.67 1123.58,1201.57 1119.69,1207.81 1116.32,1214.33 1113.48,1221.11 1111.18,1228.08 1109.44,1235.22 1108.28,1242.47 1107.7,1249.79 1107.7,1257.14 1108.28,1264.46 1109.44,1271.71 1111.18,1278.85 1113.48,1285.83 1116.32,1292.6 1119.69,1299.12 1123.58,1305.36 1127.94,1311.27 1132.76,1316.81 1138.01,1321.95 1143.64,1326.66 1149.64,1330.91 1155.95,1334.66 1162.54,1337.91 1169.37,1340.62 1176.39,1342.78 1183.56,1344.37 1190.83,1345.39 1198.16,1345.83 1205.51,1345.68 1212.82,1344.95 1220.04,1343.64 1227.14,1341.77 1234.07,1339.33 1240.79,1336.35 1247.24,1332.85 1253.4,1328.84 1259.22,1324.36 1264.67,1319.43 1269.7,1314.09 1274.3,1308.36 1278.43,1302.28 1282.06,1295.9 1285.17,1289.24 1287.74,1282.36 1289.76,1275.3 1291.21,1268.1 1292.08,1260.81 1292.38,1253.47 "/>
<circle clip-path="url(#clip252)" style="fill:#009af9; stroke:none; fill-opacity:0" cx="1653.47" cy="800" r="2"/>
<circle clip-path="url(#clip252)" style="fill:#009af9; stroke:none; fill-opacity:0" cx="1200" cy="346.533" r="2"/>
<circle clip-path="url(#clip252)" style="fill:#009af9; stroke:none; fill-opacity:0" cx="746.533" cy="800" r="2"/>
<circle clip-path="url(#clip252)" style="fill:#009af9; stroke:none; fill-opacity:0" cx="1200" cy="1253.47" r="2"/>
<path clip-path="url(#clip250)" d="M1923.1 808.275 L1926.92 808.275 L1926.92 795.093 L1922.77 795.926 L1922.77 793.796 L1926.9 792.963 L1929.24 792.963 L1929.24 808.275 L1933.06 808.275 L1933.06 810.243 L1923.1 810.243 L1923.1 808.275 Z" fill="#000000" fill-rule="nonzero" fill-opacity="1" /><path clip-path="url(#clip250)" d="M1941.26 792.963 L1943.23 792.963 L1937.21 812.442 L1935.25 812.442 L1941.26 792.963 Z" fill="#000000" fill-rule="nonzero" fill-opacity="1" /><path clip-path="url(#clip250)" d="M1949.25 792.963 L1951.22 792.963 L1945.2 812.442 L1943.23 812.442 L1949.25 792.963 Z" fill="#000000" fill-rule="nonzero" fill-opacity="1" /><path clip-path="url(#clip250)" d="M1954.16 808.275 L1957.98 808.275 L1957.98 795.093 L1953.82 795.926 L1953.82 793.796 L1957.95 792.963 L1960.29 792.963 L1960.29 808.275 L1964.11 808.275 L1964.11 810.243 L1954.16 810.243 L1954.16 808.275 Z" fill="#000000" fill-rule="nonzero" fill-opacity="1" /><path clip-path="url(#clip250)" d="M1534.31 451.679 L1538.13 451.679 L1538.13 438.496 L1533.98 439.329 L1533.98 437.2 L1538.11 436.366 L1540.45 436.366 L1540.45 451.679 L1544.26 451.679 L1544.26 453.646 L1534.31 453.646 L1534.31 451.679 Z" fill="#000000" fill-rule="nonzero" fill-opacity="1" /><path clip-path="url(#clip250)" d="M1552.47 436.366 L1554.44 436.366 L1548.42 455.845 L1546.45 455.845 L1552.47 436.366 Z" fill="#000000" fill-rule="nonzero" fill-opacity="1" /><path clip-path="url(#clip250)" d="M1560.46 436.366 L1562.42 436.366 L1556.41 455.845 L1554.44 455.845 L1560.46 436.366 Z" fill="#000000" fill-rule="nonzero" fill-opacity="1" /><path clip-path="url(#clip250)" d="M1570.25 444.075 Q1568.67 444.075 1567.75 445.151 Q1566.83 446.227 1566.83 448.102 Q1566.83 449.966 1567.75 451.054 Q1568.67 452.13 1570.25 452.13 Q1571.82 452.13 1572.74 451.054 Q1573.66 449.966 1573.66 448.102 Q1573.66 446.227 1572.74 445.151 Q1571.82 444.075 1570.25 444.075 M1574.89 436.748 L1574.89 438.878 Q1574.01 438.461 1573.11 438.241 Q1572.22 438.021 1571.34 438.021 Q1569.02 438.021 1567.79 439.584 Q1566.58 441.146 1566.41 444.306 Q1567.09 443.299 1568.12 442.767 Q1569.15 442.223 1570.39 442.223 Q1572.99 442.223 1574.5 443.808 Q1576.01 445.382 1576.01 448.102 Q1576.01 450.764 1574.44 452.373 Q1572.86 453.982 1570.25 453.982 Q1567.25 453.982 1565.66 451.69 Q1564.08 449.387 1564.08 445.024 Q1564.08 440.927 1566.02 438.496 Q1567.97 436.054 1571.24 436.054 Q1572.12 436.054 1573.01 436.227 Q1573.92 436.401 1574.89 436.748 Z" fill="#000000" fill-rule="nonzero" fill-opacity="1" /><path clip-path="url(#clip250)" d="M1181.12 63.2146 L1184.94 63.2146 L1184.94 50.0318 L1180.79 50.8651 L1180.79 48.7355 L1184.92 47.9022 L1187.26 47.9022 L1187.26 63.2146 L1191.08 63.2146 L1191.08 65.1822 L1181.12 65.1822 L1181.12 63.2146 Z" fill="#000000" fill-rule="nonzero" fill-opacity="1" /><path clip-path="url(#clip250)" d="M1199.28 47.9022 L1201.25 47.9022 L1195.23 67.3812 L1193.26 67.3812 L1199.28 47.9022 Z" fill="#000000" fill-rule="nonzero" fill-opacity="1" /><path clip-path="url(#clip250)" d="M1207.27 47.9022 L1209.24 47.9022 L1203.22 67.3812 L1201.25 67.3812 L1207.27 47.9022 Z" fill="#000000" fill-rule="nonzero" fill-opacity="1" /><path clip-path="url(#clip250)" d="M1218.85 55.8651 Q1220.53 56.2239 1221.47 57.3581 Q1222.42 58.4924 1222.42 60.159 Q1222.42 62.7169 1220.66 64.1174 Q1218.9 65.5178 1215.66 65.5178 Q1214.57 65.5178 1213.41 65.2979 Q1212.27 65.0896 1211.04 64.6613 L1211.04 62.4044 Q1212.01 62.9715 1213.17 63.2609 Q1214.33 63.5502 1215.59 63.5502 Q1217.79 63.5502 1218.93 62.6822 Q1220.09 61.8141 1220.09 60.159 Q1220.09 58.6313 1219.02 57.7748 Q1217.95 56.9067 1216.04 56.9067 L1214.03 56.9067 L1214.03 54.9855 L1216.13 54.9855 Q1217.86 54.9855 1218.77 54.3026 Q1219.69 53.6081 1219.69 52.3119 Q1219.69 50.9808 1218.74 50.2748 Q1217.8 49.5572 1216.04 49.5572 Q1215.08 49.5572 1213.98 49.7656 Q1212.88 49.9739 1211.56 50.4137 L1211.56 48.3304 Q1212.89 47.96 1214.05 47.7748 Q1215.22 47.5897 1216.25 47.5897 Q1218.91 47.5897 1220.46 48.8049 Q1222.01 50.0086 1222.01 52.0688 Q1222.01 53.504 1221.19 54.4993 Q1220.37 55.4831 1218.85 55.8651 Z" fill="#000000" fill-rule="nonzero" fill-opacity="1" /><path clip-path="url(#clip250)" d="M1080.84 708.199 L1084.66 708.199 L1084.66 695.016 L1080.51 695.849 L1080.51 693.72 L1084.64 692.886 L1086.98 692.886 L1086.98 708.199 L1090.8 708.199 L1090.8 710.166 L1080.84 710.166 L1080.84 708.199 Z" fill="#000000" fill-rule="nonzero" fill-opacity="1" /><path clip-path="url(#clip250)" d="M1099 692.886 L1100.97 692.886 L1094.95 712.365 L1092.98 712.365 L1099 692.886 Z" fill="#000000" fill-rule="nonzero" fill-opacity="1" /><path clip-path="url(#clip250)" d="M1106.99 692.886 L1108.96 692.886 L1102.94 712.365 L1100.97 712.365 L1106.99 692.886 Z" fill="#000000" fill-rule="nonzero" fill-opacity="1" /><path clip-path="url(#clip250)" d="M1116.78 700.595 Q1115.21 700.595 1114.28 701.671 Q1113.37 702.747 1113.37 704.622 Q1113.37 706.486 1114.28 707.574 Q1115.21 708.65 1116.78 708.65 Q1118.35 708.65 1119.27 707.574 Q1120.2 706.486 1120.2 704.622 Q1120.2 702.747 1119.27 701.671 Q1118.35 700.595 1116.78 700.595 M1121.42 693.268 L1121.42 695.398 Q1120.54 694.981 1119.64 694.761 Q1118.75 694.541 1117.87 694.541 Q1115.55 694.541 1114.33 696.104 Q1113.11 697.666 1112.94 700.826 Q1113.62 699.819 1114.65 699.287 Q1115.68 698.743 1116.92 698.743 Q1119.52 698.743 1121.03 700.328 Q1122.54 701.902 1122.54 704.622 Q1122.54 707.284 1120.97 708.893 Q1119.4 710.502 1116.78 710.502 Q1113.78 710.502 1112.2 708.21 Q1110.61 705.907 1110.61 701.544 Q1110.61 697.446 1112.56 695.016 Q1114.5 692.574 1117.78 692.574 Q1118.66 692.574 1119.55 692.747 Q1120.45 692.921 1121.42 693.268 Z" fill="#000000" fill-rule="nonzero" fill-opacity="1" /><path clip-path="url(#clip250)" d="M1360.91 806.672 L1364.73 806.672 L1364.73 793.49 L1360.57 794.323 L1360.57 792.193 L1364.7 791.36 L1367.04 791.36 L1367.04 806.672 L1370.86 806.672 L1370.86 808.64 L1360.91 808.64 L1360.91 806.672 Z" fill="#000000" fill-rule="nonzero" fill-opacity="1" /><path clip-path="url(#clip250)" d="M1379.07 791.36 L1381.03 791.36 L1375.02 810.839 L1373.05 810.839 L1379.07 791.36 Z" fill="#000000" fill-rule="nonzero" fill-opacity="1" /><path clip-path="url(#clip250)" d="M1387.05 791.36 L1389.02 791.36 L1383 810.839 L1381.03 810.839 L1387.05 791.36 Z" fill="#000000" fill-rule="nonzero" fill-opacity="1" /><path clip-path="url(#clip250)" d="M1398.64 799.323 Q1400.32 799.682 1401.25 800.816 Q1402.2 801.95 1402.2 803.617 Q1402.2 806.175 1400.44 807.575 Q1398.68 808.976 1395.44 808.976 Q1394.36 808.976 1393.2 808.756 Q1392.05 808.547 1390.83 808.119 L1390.83 805.862 Q1391.8 806.429 1392.96 806.719 Q1394.11 807.008 1395.37 807.008 Q1397.57 807.008 1398.72 806.14 Q1399.88 805.272 1399.88 803.617 Q1399.88 802.089 1398.8 801.233 Q1397.74 800.365 1395.83 800.365 L1393.81 800.365 L1393.81 798.443 L1395.92 798.443 Q1397.64 798.443 1398.56 797.76 Q1399.47 797.066 1399.47 795.77 Q1399.47 794.439 1398.52 793.733 Q1397.58 793.015 1395.83 793.015 Q1394.86 793.015 1393.77 793.223 Q1392.67 793.432 1391.35 793.872 L1391.35 791.788 Q1392.68 791.418 1393.83 791.233 Q1395 791.048 1396.03 791.048 Q1398.7 791.048 1400.25 792.263 Q1401.8 793.466 1401.8 795.527 Q1401.8 796.962 1400.98 797.957 Q1400.15 798.941 1398.64 799.323 Z" fill="#000000" fill-rule="nonzero" fill-opacity="1" /><path clip-path="url(#clip250)" d="M824.526 451.679 L828.346 451.679 L828.346 438.496 L824.19 439.329 L824.19 437.2 L828.322 436.366 L830.66 436.366 L830.66 451.679 L834.48 451.679 L834.48 453.646 L824.526 453.646 L824.526 451.679 Z" fill="#000000" fill-rule="nonzero" fill-opacity="1" /><path clip-path="url(#clip250)" d="M842.686 436.366 L844.653 436.366 L838.635 455.845 L836.667 455.845 L842.686 436.366 Z" fill="#000000" fill-rule="nonzero" fill-opacity="1" /><path clip-path="url(#clip250)" d="M850.672 436.366 L852.639 436.366 L846.621 455.845 L844.653 455.845 L850.672 436.366 Z" fill="#000000" fill-rule="nonzero" fill-opacity="1" /><path clip-path="url(#clip250)" d="M862.257 444.329 Q863.936 444.688 864.873 445.822 Q865.822 446.957 865.822 448.623 Q865.822 451.181 864.063 452.582 Q862.304 453.982 859.063 453.982 Q857.975 453.982 856.818 453.762 Q855.672 453.554 854.445 453.126 L854.445 450.869 Q855.417 451.436 856.575 451.725 Q857.732 452.014 858.994 452.014 Q861.193 452.014 862.338 451.146 Q863.496 450.278 863.496 448.623 Q863.496 447.095 862.419 446.239 Q861.355 445.371 859.445 445.371 L857.431 445.371 L857.431 443.45 L859.538 443.45 Q861.262 443.45 862.176 442.767 Q863.091 442.072 863.091 440.776 Q863.091 439.445 862.142 438.739 Q861.204 438.021 859.445 438.021 Q858.484 438.021 857.385 438.23 Q856.285 438.438 854.966 438.878 L854.966 436.795 Q856.297 436.424 857.454 436.239 Q858.623 436.054 859.653 436.054 Q862.315 436.054 863.866 437.269 Q865.417 438.473 865.417 440.533 Q865.417 441.968 864.595 442.964 Q863.774 443.947 862.257 444.329 Z" fill="#000000" fill-rule="nonzero" fill-opacity="1" /><path clip-path="url(#clip250)" d="M826.569 1161.67 L834.729 1161.67 L834.729 1163.63 L823.756 1163.63 L823.756 1161.67 Q825.087 1160.29 827.379 1157.97 Q829.682 1155.65 830.273 1154.98 Q831.395 1153.71 831.835 1152.85 Q832.287 1151.97 832.287 1151.12 Q832.287 1149.74 831.314 1148.88 Q830.354 1148.01 828.803 1148.01 Q827.703 1148.01 826.476 1148.39 Q825.261 1148.77 823.872 1149.55 L823.872 1147.19 Q825.284 1146.62 826.511 1146.33 Q827.738 1146.04 828.756 1146.04 Q831.442 1146.04 833.039 1147.38 Q834.636 1148.73 834.636 1150.97 Q834.636 1152.04 834.231 1153 Q833.837 1153.95 832.784 1155.24 Q832.495 1155.58 830.944 1157.19 Q829.393 1158.78 826.569 1161.67 Z" fill="#000000" fill-rule="nonzero" fill-opacity="1" /><path clip-path="url(#clip250)" d="M843.12 1146.35 L845.087 1146.35 L839.069 1165.83 L837.101 1165.83 L843.12 1146.35 Z" fill="#000000" fill-rule="nonzero" fill-opacity="1" /><path clip-path="url(#clip250)" d="M851.106 1146.35 L853.073 1146.35 L847.055 1165.83 L845.087 1165.83 L851.106 1146.35 Z" fill="#000000" fill-rule="nonzero" fill-opacity="1" /><path clip-path="url(#clip250)" d="M862.691 1154.32 Q864.37 1154.68 865.307 1155.81 Q866.256 1156.94 866.256 1158.61 Q866.256 1161.17 864.497 1162.57 Q862.738 1163.97 859.497 1163.97 Q858.409 1163.97 857.252 1163.75 Q856.106 1163.54 854.879 1163.11 L854.879 1160.86 Q855.851 1161.42 857.009 1161.71 Q858.166 1162 859.428 1162 Q861.627 1162 862.772 1161.13 Q863.93 1160.27 863.93 1158.61 Q863.93 1157.08 862.853 1156.23 Q861.789 1155.36 859.879 1155.36 L857.865 1155.36 L857.865 1153.44 L859.972 1153.44 Q861.696 1153.44 862.61 1152.75 Q863.525 1152.06 863.525 1150.76 Q863.525 1149.43 862.576 1148.73 Q861.638 1148.01 859.879 1148.01 Q858.918 1148.01 857.819 1148.22 Q856.719 1148.43 855.4 1148.87 L855.4 1146.78 Q856.731 1146.41 857.888 1146.23 Q859.057 1146.04 860.087 1146.04 Q862.749 1146.04 864.3 1147.26 Q865.851 1148.46 865.851 1150.52 Q865.851 1151.96 865.029 1152.95 Q864.208 1153.93 862.691 1154.32 Z" fill="#000000" fill-rule="nonzero" fill-opacity="1" /><path clip-path="url(#clip250)" d="M998.133 806.672 L1001.95 806.672 L1001.95 793.49 L997.797 794.323 L997.797 792.193 L1001.93 791.36 L1004.27 791.36 L1004.27 806.672 L1008.09 806.672 L1008.09 808.64 L998.133 808.64 L998.133 806.672 Z" fill="#000000" fill-rule="nonzero" fill-opacity="1" /><path clip-path="url(#clip250)" d="M1016.29 791.36 L1018.26 791.36 L1012.24 810.839 L1010.27 810.839 L1016.29 791.36 Z" fill="#000000" fill-rule="nonzero" fill-opacity="1" /><path clip-path="url(#clip250)" d="M1024.28 791.36 L1026.25 791.36 L1020.23 810.839 L1018.26 810.839 L1024.28 791.36 Z" fill="#000000" fill-rule="nonzero" fill-opacity="1" /><path clip-path="url(#clip250)" d="M1035.86 799.323 Q1037.54 799.682 1038.48 800.816 Q1039.43 801.95 1039.43 803.617 Q1039.43 806.175 1037.67 807.575 Q1035.91 808.976 1032.67 808.976 Q1031.58 808.976 1030.42 808.756 Q1029.28 808.547 1028.05 808.119 L1028.05 805.862 Q1029.02 806.429 1030.18 806.719 Q1031.34 807.008 1032.6 807.008 Q1034.8 807.008 1035.95 806.14 Q1037.1 805.272 1037.1 803.617 Q1037.1 802.089 1036.03 801.233 Q1034.96 800.365 1033.05 800.365 L1031.04 800.365 L1031.04 798.443 L1033.14 798.443 Q1034.87 798.443 1035.78 797.76 Q1036.7 797.066 1036.7 795.77 Q1036.7 794.439 1035.75 793.733 Q1034.81 793.015 1033.05 793.015 Q1032.09 793.015 1030.99 793.223 Q1029.89 793.432 1028.57 793.872 L1028.57 791.788 Q1029.9 791.418 1031.06 791.233 Q1032.23 791.048 1033.26 791.048 Q1035.92 791.048 1037.47 792.263 Q1039.02 793.466 1039.02 795.527 Q1039.02 796.962 1038.2 797.957 Q1037.38 798.941 1035.86 799.323 Z" fill="#000000" fill-rule="nonzero" fill-opacity="1" /><path clip-path="url(#clip250)" d="M1081.05 905.146 L1084.87 905.146 L1084.87 891.963 L1080.71 892.797 L1080.71 890.667 L1084.84 889.834 L1087.18 889.834 L1087.18 905.146 L1091 905.146 L1091 907.114 L1081.05 907.114 L1081.05 905.146 Z" fill="#000000" fill-rule="nonzero" fill-opacity="1" /><path clip-path="url(#clip250)" d="M1099.21 889.834 L1101.17 889.834 L1095.15 909.313 L1093.19 909.313 L1099.21 889.834 Z" fill="#000000" fill-rule="nonzero" fill-opacity="1" /><path clip-path="url(#clip250)" d="M1107.19 889.834 L1109.16 889.834 L1103.14 909.313 L1101.17 909.313 L1107.19 889.834 Z" fill="#000000" fill-rule="nonzero" fill-opacity="1" /><path clip-path="url(#clip250)" d="M1118.78 897.797 Q1120.46 898.155 1121.39 899.29 Q1122.34 900.424 1122.34 902.091 Q1122.34 904.648 1120.58 906.049 Q1118.82 907.449 1115.58 907.449 Q1114.49 907.449 1113.34 907.229 Q1112.19 907.021 1110.96 906.593 L1110.96 904.336 Q1111.94 904.903 1113.09 905.192 Q1114.25 905.482 1115.51 905.482 Q1117.71 905.482 1118.86 904.614 Q1120.02 903.746 1120.02 902.091 Q1120.02 900.563 1118.94 899.706 Q1117.87 898.838 1115.96 898.838 L1113.95 898.838 L1113.95 896.917 L1116.06 896.917 Q1117.78 896.917 1118.7 896.234 Q1119.61 895.54 1119.61 894.243 Q1119.61 892.912 1118.66 892.206 Q1117.72 891.489 1115.96 891.489 Q1115 891.489 1113.9 891.697 Q1112.81 891.906 1111.49 892.345 L1111.49 890.262 Q1112.82 889.892 1113.97 889.706 Q1115.14 889.521 1116.17 889.521 Q1118.84 889.521 1120.39 890.737 Q1121.94 891.94 1121.94 894 Q1121.94 895.436 1121.12 896.431 Q1120.29 897.415 1118.78 897.797 Z" fill="#000000" fill-rule="nonzero" fill-opacity="1" /><path clip-path="url(#clip250)" d="M1195.74 1460.5 L1199.56 1460.5 L1199.56 1447.32 L1195.41 1448.15 L1195.41 1446.03 L1199.54 1445.19 L1201.88 1445.19 L1201.88 1460.5 L1205.7 1460.5 L1205.7 1462.47 L1195.74 1462.47 L1195.74 1460.5 Z" fill="#000000" fill-rule="nonzero" fill-opacity="1" /><path clip-path="url(#clip250)" d="M1213.9 1445.19 L1215.87 1445.19 L1209.85 1464.67 L1207.88 1464.67 L1213.9 1445.19 Z" fill="#000000" fill-rule="nonzero" fill-opacity="1" /><path clip-path="url(#clip250)" d="M1221.89 1445.19 L1223.86 1445.19 L1217.84 1464.67 L1215.87 1464.67 L1221.89 1445.19 Z" fill="#000000" fill-rule="nonzero" fill-opacity="1" /><path clip-path="url(#clip250)" d="M1233.47 1453.15 Q1235.15 1453.51 1236.09 1454.65 Q1237.04 1455.78 1237.04 1457.45 Q1237.04 1460.01 1235.28 1461.41 Q1233.52 1462.81 1230.28 1462.81 Q1229.19 1462.81 1228.04 1462.59 Q1226.89 1462.38 1225.66 1461.95 L1225.66 1459.69 Q1226.63 1460.26 1227.79 1460.55 Q1228.95 1460.84 1230.21 1460.84 Q1232.41 1460.84 1233.56 1459.97 Q1234.71 1459.1 1234.71 1457.45 Q1234.71 1455.92 1233.64 1455.06 Q1232.57 1454.2 1230.66 1454.2 L1228.65 1454.2 L1228.65 1452.28 L1230.76 1452.28 Q1232.48 1452.28 1233.39 1451.59 Q1234.31 1450.9 1234.31 1449.6 Q1234.31 1448.27 1233.36 1447.56 Q1232.42 1446.85 1230.66 1446.85 Q1229.7 1446.85 1228.6 1447.06 Q1227.5 1447.26 1226.18 1447.7 L1226.18 1445.62 Q1227.51 1445.25 1228.67 1445.06 Q1229.84 1444.88 1230.87 1444.88 Q1233.53 1444.88 1235.08 1446.09 Q1236.63 1447.3 1236.63 1449.36 Q1236.63 1450.79 1235.81 1451.79 Q1234.99 1452.77 1233.47 1453.15 Z" fill="#000000" fill-rule="nonzero" fill-opacity="1" /><path clip-path="url(#clip250)" d="M1631.01 792.899 Q1629.2 792.899 1628.29 794.682 Q1627.39 796.453 1627.39 800.017 Q1627.39 803.571 1628.29 805.353 Q1629.2 807.124 1631.01 807.124 Q1632.83 807.124 1633.73 805.353 Q1634.64 803.571 1634.64 800.017 Q1634.64 796.453 1633.73 794.682 Q1632.83 792.899 1631.01 792.899 M1631.01 791.048 Q1633.91 791.048 1635.44 793.351 Q1636.98 795.642 1636.98 800.017 Q1636.98 804.381 1635.44 806.684 Q1633.91 808.976 1631.01 808.976 Q1628.1 808.976 1626.56 806.684 Q1625.04 804.381 1625.04 800.017 Q1625.04 795.642 1626.56 793.351 Q1628.1 791.048 1631.01 791.048 Z" fill="#000000" fill-rule="nonzero" fill-opacity="1" /><path clip-path="url(#clip250)" d="M1646.09 792.899 Q1644.28 792.899 1643.37 794.682 Q1642.47 796.453 1642.47 800.017 Q1642.47 803.571 1643.37 805.353 Q1644.28 807.124 1646.09 807.124 Q1647.91 807.124 1648.81 805.353 Q1649.72 803.571 1649.72 800.017 Q1649.72 796.453 1648.81 794.682 Q1647.91 792.899 1646.09 792.899 M1646.09 791.048 Q1648.99 791.048 1650.52 793.351 Q1652.06 795.642 1652.06 800.017 Q1652.06 804.381 1650.52 806.684 Q1648.99 808.976 1646.09 808.976 Q1643.18 808.976 1641.64 806.684 Q1640.12 804.381 1640.12 800.017 Q1640.12 795.642 1641.64 793.351 Q1643.18 791.048 1646.09 791.048 Z" fill="#000000" fill-rule="nonzero" fill-opacity="1" /><path clip-path="url(#clip250)" d="M1661.17 792.899 Q1659.36 792.899 1658.45 794.682 Q1657.55 796.453 1657.55 800.017 Q1657.55 803.571 1658.45 805.353 Q1659.36 807.124 1661.17 807.124 Q1662.99 807.124 1663.89 805.353 Q1664.8 803.571 1664.8 800.017 Q1664.8 796.453 1663.89 794.682 Q1662.99 792.899 1661.17 792.899 M1661.17 791.048 Q1664.07 791.048 1665.6 793.351 Q1667.14 795.642 1667.14 800.017 Q1667.14 804.381 1665.6 806.684 Q1664.07 808.976 1661.17 808.976 Q1658.26 808.976 1656.73 806.684 Q1655.2 804.381 1655.2 800.017 Q1655.2 795.642 1656.73 793.351 Q1658.26 791.048 1661.17 791.048 Z" fill="#000000" fill-rule="nonzero" fill-opacity="1" /><path clip-path="url(#clip250)" d="M1678.33 799.323 Q1680.01 799.682 1680.95 800.816 Q1681.9 801.95 1681.9 803.617 Q1681.9 806.175 1680.14 807.575 Q1678.38 808.976 1675.14 808.976 Q1674.05 808.976 1672.89 808.756 Q1671.75 808.547 1670.52 808.119 L1670.52 805.862 Q1671.49 806.429 1672.65 806.719 Q1673.81 807.008 1675.07 807.008 Q1677.27 807.008 1678.42 806.14 Q1679.57 805.272 1679.57 803.617 Q1679.57 802.089 1678.5 801.233 Q1677.43 800.365 1675.52 800.365 L1673.51 800.365 L1673.51 798.443 L1675.61 798.443 Q1677.34 798.443 1678.25 797.76 Q1679.17 797.066 1679.17 795.77 Q1679.17 794.439 1678.22 793.733 Q1677.28 793.015 1675.52 793.015 Q1674.56 793.015 1673.46 793.223 Q1672.36 793.432 1671.04 793.872 L1671.04 791.788 Q1672.37 791.418 1673.53 791.233 Q1674.7 791.048 1675.73 791.048 Q1678.39 791.048 1679.94 792.263 Q1681.49 793.466 1681.49 795.527 Q1681.49 796.962 1680.67 797.957 Q1679.85 798.941 1678.33 799.323 Z" fill="#000000" fill-rule="nonzero" fill-opacity="1" /><path clip-path="url(#clip250)" d="M1177.78 339.432 Q1175.97 339.432 1175.06 341.214 Q1174.16 342.985 1174.16 346.55 Q1174.16 350.103 1175.06 351.886 Q1175.97 353.656 1177.78 353.656 Q1179.6 353.656 1180.5 351.886 Q1181.41 350.103 1181.41 346.55 Q1181.41 342.985 1180.5 341.214 Q1179.6 339.432 1177.78 339.432 M1177.78 337.58 Q1180.68 337.58 1182.21 339.883 Q1183.75 342.175 1183.75 346.55 Q1183.75 350.913 1182.21 353.217 Q1180.68 355.508 1177.78 355.508 Q1174.87 355.508 1173.33 353.217 Q1171.81 350.913 1171.81 346.55 Q1171.81 342.175 1173.33 339.883 Q1174.87 337.58 1177.78 337.58 Z" fill="#000000" fill-rule="nonzero" fill-opacity="1" /><path clip-path="url(#clip250)" d="M1192.86 339.432 Q1191.05 339.432 1190.14 341.214 Q1189.24 342.985 1189.24 346.55 Q1189.24 350.103 1190.14 351.886 Q1191.05 353.656 1192.86 353.656 Q1194.68 353.656 1195.58 351.886 Q1196.49 350.103 1196.49 346.55 Q1196.49 342.985 1195.58 341.214 Q1194.68 339.432 1192.86 339.432 M1192.86 337.58 Q1195.76 337.58 1197.29 339.883 Q1198.83 342.175 1198.83 346.55 Q1198.83 350.913 1197.29 353.217 Q1195.76 355.508 1192.86 355.508 Q1189.95 355.508 1188.41 353.217 Q1186.89 350.913 1186.89 346.55 Q1186.89 342.175 1188.41 339.883 Q1189.95 337.58 1192.86 337.58 Z" fill="#000000" fill-rule="nonzero" fill-opacity="1" /><path clip-path="url(#clip250)" d="M1203.34 353.205 L1207.16 353.205 L1207.16 340.022 L1203.01 340.856 L1203.01 338.726 L1207.14 337.893 L1209.48 337.893 L1209.48 353.205 L1213.3 353.205 L1213.3 355.173 L1203.34 355.173 L1203.34 353.205 Z" fill="#000000" fill-rule="nonzero" fill-opacity="1" /><path clip-path="url(#clip250)" d="M1220.03 353.205 L1228.19 353.205 L1228.19 355.173 L1217.22 355.173 L1217.22 353.205 Q1218.55 351.828 1220.84 349.513 Q1223.15 347.187 1223.74 346.515 Q1224.86 345.254 1225.3 344.386 Q1225.75 343.506 1225.75 342.661 Q1225.75 341.284 1224.78 340.416 Q1223.82 339.548 1222.27 339.548 Q1221.17 339.548 1219.94 339.93 Q1218.73 340.312 1217.34 341.087 L1217.34 338.726 Q1218.75 338.159 1219.98 337.869 Q1221.2 337.58 1222.22 337.58 Q1224.91 337.58 1226.5 338.923 Q1228.1 340.265 1228.1 342.511 Q1228.1 343.575 1227.7 344.536 Q1227.3 345.485 1226.25 346.781 Q1225.96 347.117 1224.41 348.726 Q1222.86 350.323 1220.03 353.205 Z" fill="#000000" fill-rule="nonzero" fill-opacity="1" /><path clip-path="url(#clip250)" d="M724.31 792.899 Q722.505 792.899 721.591 794.682 Q720.688 796.453 720.688 800.017 Q720.688 803.571 721.591 805.353 Q722.505 807.124 724.31 807.124 Q726.128 807.124 727.03 805.353 Q727.945 803.571 727.945 800.017 Q727.945 796.453 727.03 794.682 Q726.128 792.899 724.31 792.899 M724.31 791.048 Q727.216 791.048 728.743 793.351 Q730.283 795.642 730.283 800.017 Q730.283 804.381 728.743 806.684 Q727.216 808.976 724.31 808.976 Q721.405 808.976 719.866 806.684 Q718.338 804.381 718.338 800.017 Q718.338 795.642 719.866 793.351 Q721.405 791.048 724.31 791.048 Z" fill="#000000" fill-rule="nonzero" fill-opacity="1" /><path clip-path="url(#clip250)" d="M734.797 806.672 L738.616 806.672 L738.616 793.49 L734.461 794.323 L734.461 792.193 L738.593 791.36 L740.931 791.36 L740.931 806.672 L744.75 806.672 L744.75 808.64 L734.797 808.64 L734.797 806.672 Z" fill="#000000" fill-rule="nonzero" fill-opacity="1" /><path clip-path="url(#clip250)" d="M754.472 792.899 Q752.667 792.899 751.752 794.682 Q750.85 796.453 750.85 800.017 Q750.85 803.571 751.752 805.353 Q752.667 807.124 754.472 807.124 Q756.289 807.124 757.192 805.353 Q758.107 803.571 758.107 800.017 Q758.107 796.453 757.192 794.682 Q756.289 792.899 754.472 792.899 M754.472 791.048 Q757.377 791.048 758.905 793.351 Q760.445 795.642 760.445 800.017 Q760.445 804.381 758.905 806.684 Q757.377 808.976 754.472 808.976 Q751.567 808.976 750.028 806.684 Q748.5 804.381 748.5 800.017 Q748.5 795.642 750.028 793.351 Q751.567 791.048 754.472 791.048 Z" fill="#000000" fill-rule="nonzero" fill-opacity="1" /><path clip-path="url(#clip250)" d="M766.567 806.672 L774.727 806.672 L774.727 808.64 L763.755 808.64 L763.755 806.672 Q765.086 805.295 767.377 802.98 Q769.681 800.654 770.271 799.983 Q771.394 798.721 771.833 797.853 Q772.285 796.973 772.285 796.128 Q772.285 794.751 771.313 793.883 Q770.352 793.015 768.801 793.015 Q767.701 793.015 766.475 793.397 Q765.259 793.779 763.87 794.554 L763.87 792.193 Q765.282 791.626 766.509 791.337 Q767.736 791.048 768.755 791.048 Q771.44 791.048 773.037 792.39 Q774.634 793.733 774.634 795.978 Q774.634 797.043 774.229 798.003 Q773.836 798.953 772.782 800.249 Q772.493 800.584 770.942 802.193 Q769.391 803.79 766.567 806.672 Z" fill="#000000" fill-rule="nonzero" fill-opacity="1" /><path clip-path="url(#clip250)" d="M1177.69 1246.37 Q1175.88 1246.37 1174.97 1248.15 Q1174.06 1249.92 1174.06 1253.48 Q1174.06 1257.04 1174.97 1258.82 Q1175.88 1260.59 1177.69 1260.59 Q1179.5 1260.59 1180.41 1258.82 Q1181.32 1257.04 1181.32 1253.48 Q1181.32 1249.92 1180.41 1248.15 Q1179.5 1246.37 1177.69 1246.37 M1177.69 1244.51 Q1180.59 1244.51 1182.12 1246.82 Q1183.66 1249.11 1183.66 1253.48 Q1183.66 1257.85 1182.12 1260.15 Q1180.59 1262.44 1177.69 1262.44 Q1174.78 1262.44 1173.24 1260.15 Q1171.71 1257.85 1171.71 1253.48 Q1171.71 1249.11 1173.24 1246.82 Q1174.78 1244.51 1177.69 1244.51 Z" fill="#000000" fill-rule="nonzero" fill-opacity="1" /><path clip-path="url(#clip250)" d="M1188.17 1260.14 L1191.99 1260.14 L1191.99 1246.96 L1187.84 1247.79 L1187.84 1245.66 L1191.97 1244.83 L1194.31 1244.83 L1194.31 1260.14 L1198.13 1260.14 L1198.13 1262.11 L1188.17 1262.11 L1188.17 1260.14 Z" fill="#000000" fill-rule="nonzero" fill-opacity="1" /><path clip-path="url(#clip250)" d="M1203.25 1260.14 L1207.07 1260.14 L1207.07 1246.96 L1202.92 1247.79 L1202.92 1245.66 L1207.05 1244.83 L1209.39 1244.83 L1209.39 1260.14 L1213.21 1260.14 L1213.21 1262.11 L1203.25 1262.11 L1203.25 1260.14 Z" fill="#000000" fill-rule="nonzero" fill-opacity="1" /><path clip-path="url(#clip250)" d="M1218.33 1260.14 L1222.15 1260.14 L1222.15 1246.96 L1218 1247.79 L1218 1245.66 L1222.13 1244.83 L1224.47 1244.83 L1224.47 1260.14 L1228.29 1260.14 L1228.29 1262.11 L1218.33 1262.11 L1218.33 1260.14 Z" fill="#000000" fill-rule="nonzero" fill-opacity="1" /></svg>
