<?xml version="1.0" encoding="utf-8"?>
<svg xmlns="http://www.w3.org/2000/svg" xmlns:xlink="http://www.w3.org/1999/xlink" width="600" height="400" viewBox="0 0 2400 1600">
<defs>
  <clipPath id="clip220">
    <rect x="0" y="0" width="2400" height="1600"/>
  </clipPath>
</defs>
<path clip-path="url(#clip220)" d="M0 1600 L2400 1600 L2400 0 L0 0  Z" fill="#ffffff" fill-rule="evenodd" fill-opacity="1"/>
<defs>
  <clipPath id="clip221">
    <rect x="480" y="0" width="1681" height="1600"/>
  </clipPath>
</defs>
<path clip-path="url(#clip220)" d="M447.244 1552.76 L1952.76 1552.76 L1952.76 47.2441 L447.244 47.2441  Z" fill="#ffffff" fill-rule="evenodd" fill-opacity="1"/>
<defs>
  <clipPath id="clip222">
    <rect x="447" y="47" width="1507" height="1507"/>
  </clipPath>
</defs>
<polyline clip-path="url(#clip222)" style="stroke:#000000; stroke-linecap:round; stroke-linejoin:round; stroke-width:4; stroke-opacity:1; fill:none" points="1765.55,822.295 1779.1,823.59 1792.59,824.855 1805.94,826.062 1819.11,827.18 1832.03,828.18 1844.63,829.034 1856.86,829.71 1868.64,830.18 1879.92,830.415 1890.63,830.384 1900.71,830.059 1910.09,829.41 1918.72,828.412 1926.59,827.075 1933.7,825.43 1940.06,823.504 1945.68,821.328 1950.57,818.931 1954.73,816.342 1958.18,813.592 1960.92,810.709 1962.97,807.723 1964.32,804.663 1964.99,801.559 1964.99,798.441 1964.32,795.337 1962.97,792.277 1960.92,789.291 1958.18,786.408 1954.73,783.658 1950.57,781.069 1945.68,778.672 1940.06,776.496 1933.7,774.57 1926.59,772.925 1918.72,771.588 1910.09,770.59 1900.71,769.941 1890.63,769.616 1879.92,769.585 1868.64,769.82 1856.86,770.29 1844.63,770.966 1832.03,771.82 1819.11,772.82 1805.94,773.938 1792.59,775.145 1779.1,776.41 1765.55,777.705 "/>
<polyline clip-path="url(#clip222)" style="stroke:#000000; stroke-linecap:round; stroke-linejoin:round; stroke-width:4; stroke-opacity:1; fill:none" points="1803.1,792.198 1765.55,777.705 1799.68,756.361 "/>
<polyline clip-path="url(#clip222)" style="stroke:#000000; stroke-linecap:round; stroke-linejoin:round; stroke-width:4; stroke-opacity:1; fill:none" points="1765.55,777.705 1779.1,776.41 "/>
<polyline clip-path="url(#clip222)" style="stroke:#000000; stroke-linecap:round; stroke-linejoin:round; stroke-width:4; stroke-opacity:1; fill:none" points="746.533,346.533 770.811,346.701 795.064,346.895 819.269,347.137 843.399,347.454 867.432,347.869 891.341,348.408 915.102,349.095 938.691,349.954 962.083,351.011 985.254,352.29 1008.18,353.815 1030.83,355.612 1053.19,357.705 1075.23,360.119 1096.92,362.878 1118.25,366.007 1139.18,369.53 1159.69,373.473 1179.76,377.86 1199.36,382.716 1218.47,388.065 1237.06,393.932 1255.11,400.342 1272.6,407.32 1289.49,414.888 1305.8,423.047 1321.54,431.774 1336.73,441.044 1351.41,450.831 1365.6,461.112 1379.32,471.862 1392.6,483.055 1405.46,494.668 1417.92,506.676 1430.02,519.054 1441.77,531.777 1453.2,544.821 1464.34,558.161 1475.2,571.772 1485.82,585.63 1496.22,599.709 1506.42,613.987 1516.45,628.437 1526.33,643.035 1536.09,657.756 1545.75,672.576 1555.33,687.47 1564.87,702.413 1574.38,717.381 "/>
<polyline clip-path="url(#clip222)" style="stroke:#000000; stroke-linecap:round; stroke-linejoin:round; stroke-width:4; stroke-opacity:1; fill:none" points="1570.26,677.343 1574.38,717.381 1539.88,696.651 "/>
<polyline clip-path="url(#clip222)" style="stroke:#000000; stroke-linecap:round; stroke-linejoin:round; stroke-width:4; stroke-opacity:1; fill:none" points="1574.38,717.381 1564.87,702.413 "/>
<polyline clip-path="url(#clip222)" style="stroke:#000000; stroke-linecap:round; stroke-linejoin:round; stroke-width:4; stroke-opacity:1; fill:none" points="746.533,346.533 757.199,366.123 767.833,385.703 778.401,405.261 788.872,424.787 799.211,444.269 809.388,463.697 819.368,483.061 829.12,502.348 838.61,521.549 847.807,540.652 856.676,559.647 865.186,578.523 873.305,597.268 880.998,615.873 888.234,634.327 894.98,652.618 901.204,670.735 906.872,688.669 911.951,706.407 916.411,723.94 920.216,741.256 923.336,758.345 925.737,775.195 927.387,791.796 928.254,808.138 928.338,824.22 927.671,840.053 926.285,855.648 924.212,871.015 921.487,886.166 918.141,901.111 914.207,915.861 909.717,930.427 904.705,944.819 899.202,959.049 893.243,973.128 886.858,987.065 880.082,1000.87 872.946,1014.56 865.483,1028.14 857.726,1041.62 849.709,1055.02 841.462,1068.34 833.019,1081.6 824.413,1094.8 815.677,1107.95 806.842,1121.08 797.942,1134.18 789.009,1147.28 "/>
<polyline clip-path="url(#clip222)" style="stroke:#000000; stroke-linecap:round; stroke-linejoin:round; stroke-width:4; stroke-opacity:1; fill:none" points="824.167,1127.68 789.009,1147.28 794.429,1107.39 "/>
<polyline clip-path="url(#clip222)" style="stroke:#000000; stroke-linecap:round; stroke-linejoin:round; stroke-width:4; stroke-opacity:1; fill:none" points="789.009,1147.28 797.942,1134.18 "/>
<polyline clip-path="url(#clip222)" style="stroke:#000000; stroke-linecap:round; stroke-linejoin:round; stroke-width:4; stroke-opacity:1; fill:none" points="746.533,1253.47 735.866,1233.88 725.232,1214.3 714.664,1194.74 704.194,1175.21 693.854,1155.73 683.677,1136.3 673.697,1116.94 663.945,1097.65 654.455,1078.45 645.259,1059.35 636.389,1040.35 627.879,1021.48 619.761,1002.73 612.067,984.127 604.831,965.673 598.085,947.382 591.862,929.265 586.194,911.331 581.114,893.593 576.655,876.06 572.849,858.744 569.729,841.655 567.328,824.805 565.678,808.204 564.812,791.862 564.727,775.78 565.395,759.947 566.781,744.352 568.853,728.985 571.578,713.834 574.924,698.889 578.859,684.139 583.348,669.573 588.361,655.181 593.863,640.951 599.823,626.872 606.207,612.935 612.984,599.127 620.12,585.439 627.582,571.858 635.339,558.376 643.357,544.98 651.603,531.659 660.046,518.404 668.652,505.203 677.389,492.045 686.223,478.92 695.123,465.817 704.056,452.724 "/>
<polyline clip-path="url(#clip222)" style="stroke:#000000; stroke-linecap:round; stroke-linejoin:round; stroke-width:4; stroke-opacity:1; fill:none" points="668.898,472.317 704.056,452.724 698.636,492.606 "/>
<polyline clip-path="url(#clip222)" style="stroke:#000000; stroke-linecap:round; stroke-linejoin:round; stroke-width:4; stroke-opacity:1; fill:none" points="704.056,452.724 695.123,465.817 "/>
<path clip-path="url(#clip222)" d="M1932 818.972 L1997.99 818.972 L1997.99 784.146 L1932 784.146 L1932 818.972 L1932 818.972  Z" fill="#ffffff" fill-rule="evenodd" fill-opacity="1"/>
<polyline clip-path="url(#clip222)" style="stroke:#000000; stroke-linecap:round; stroke-linejoin:round; stroke-width:0; stroke-opacity:0; fill:none" points="1932,818.972 1997.99,818.972 1997.99,784.146 1932,784.146 1932,818.972 "/>
<path clip-path="url(#clip222)" d="M1248.13 428.442 L1314.11 428.442 L1314.11 393.616 L1248.13 393.616 L1248.13 428.442 L1248.13 428.442  Z" fill="#ffffff" fill-rule="evenodd" fill-opacity="1"/>
<polyline clip-path="url(#clip222)" style="stroke:#000000; stroke-linecap:round; stroke-linejoin:round; stroke-width:0; stroke-opacity:0; fill:none" points="1248.13,428.442 1314.11,428.442 1314.11,393.616 1248.13,393.616 1248.13,428.442 "/>
<path clip-path="url(#clip222)" d="M894.928 817.413 L960.911 817.413 L960.911 782.587 L894.928 782.587 L894.928 817.413 L894.928 817.413  Z" fill="#ffffff" fill-rule="evenodd" fill-opacity="1"/>
<polyline clip-path="url(#clip222)" style="stroke:#000000; stroke-linecap:round; stroke-linejoin:round; stroke-width:0; stroke-opacity:0; fill:none" points="894.928,817.413 960.911,817.413 960.911,782.587 894.928,782.587 894.928,817.413 "/>
<path clip-path="url(#clip222)" d="M532.154 817.413 L598.137 817.413 L598.137 782.587 L532.154 782.587 L532.154 817.413 L532.154 817.413  Z" fill="#ffffff" fill-rule="evenodd" fill-opacity="1"/>
<polyline clip-path="url(#clip222)" style="stroke:#000000; stroke-linecap:round; stroke-linejoin:round; stroke-width:0; stroke-opacity:0; fill:none" points="532.154,817.413 598.137,817.413 598.137,782.587 532.154,782.587 532.154,817.413 "/>
<path clip-path="url(#clip222)" d="M1767.84 800 L1767.48 790.913 L1766.39 781.884 L1764.6 772.969 L1762.1 764.225 L1758.91 755.707 L1755.06 747.47 L1750.57 739.564 L1745.46 732.04 L1739.77 724.947 L1733.53 718.327 L1726.79 712.224 L1719.58 706.676 L1711.96 701.718 L1703.97 697.382 L1695.65 693.694 L1687.08 690.678 L1678.28 688.353 L1669.33 686.735 L1660.29 685.832 L1651.19 685.651 L1642.12 686.193 L1633.11 687.455 L1624.23 689.428 L1615.54 692.101 L1607.09 695.455 L1598.93 699.47 L1591.11 704.121 L1583.69 709.379 L1576.71 715.209 L1570.22 721.575 L1564.25 728.437 L1558.85 735.751 L1554.04 743.472 L1549.87 751.55 L1546.34 759.934 L1543.5 768.572 L1541.35 777.409 L1539.91 786.388 L1539.19 795.453 L1539.19 804.547 L1539.91 813.612 L1541.35 822.591 L1543.5 831.428 L1546.34 840.066 L1549.87 848.45 L1554.04 856.528 L1558.85 864.249 L1564.25 871.563 L1570.22 878.425 L1576.71 884.791 L1583.69 890.621 L1591.11 895.879 L1598.93 900.53 L1607.09 904.545 L1615.54 907.899 L1624.23 910.572 L1633.11 912.545 L1642.12 913.807 L1651.19 914.349 L1660.29 914.168 L1669.33 913.265 L1678.28 911.647 L1687.08 909.322 L1695.65 906.306 L1703.97 902.618 L1711.96 898.282 L1719.58 893.324 L1726.79 887.776 L1733.53 881.673 L1739.77 875.053 L1745.46 867.96 L1750.57 860.436 L1755.06 852.53 L1758.91 844.293 L1762.1 835.775 L1764.6 827.031 L1766.39 818.116 L1767.48 809.087 L1767.84 800 L1767.84 800  Z" fill="#009af9" fill-rule="evenodd" fill-opacity="1"/>
<polyline clip-path="url(#clip222)" style="stroke:#000000; stroke-linecap:round; stroke-linejoin:round; stroke-width:4; stroke-opacity:1; fill:none" points="1767.84,800 1767.48,790.913 1766.39,781.884 1764.6,772.969 1762.1,764.225 1758.91,755.707 1755.06,747.47 1750.57,739.564 1745.46,732.04 1739.77,724.947 1733.53,718.327 1726.79,712.224 1719.58,706.676 1711.96,701.718 1703.97,697.382 1695.65,693.694 1687.08,690.678 1678.28,688.353 1669.33,686.735 1660.29,685.832 1651.19,685.651 1642.12,686.193 1633.11,687.455 1624.23,689.428 1615.54,692.101 1607.09,695.455 1598.93,699.47 1591.11,704.121 1583.69,709.379 1576.71,715.209 1570.22,721.575 1564.25,728.437 1558.85,735.751 1554.04,743.472 1549.87,751.55 1546.34,759.934 1543.5,768.572 1541.35,777.409 1539.91,786.388 1539.19,795.453 1539.19,804.547 1539.91,813.612 1541.35,822.591 1543.5,831.428 1546.34,840.066 1549.87,848.45 1554.04,856.528 1558.85,864.249 1564.25,871.563 1570.22,878.425 1576.71,884.791 1583.69,890.621 1591.11,895.879 1598.93,900.53 1607.09,904.545 1615.54,907.899 1624.23,910.572 1633.11,912.545 1642.12,913.807 1651.19,914.349 1660.29,914.168 1669.33,913.265 1678.28,911.647 1687.08,909.322 1695.65,906.306 1703.97,902.618 1711.96,898.282 1719.58,893.324 1726.79,887.776 1733.53,881.673 1739.77,875.053 1745.46,867.96 1750.57,860.436 1755.06,852.53 1758.91,844.293 1762.1,835.775 1764.6,827.031 1766.39,818.116 1767.48,809.087 1767.84,800 1767.84,800 "/>
<path clip-path="url(#clip222)" d="M860.904 346.533 L860.542 337.446 L859.46 328.416 L857.664 319.502 L855.165 310.758 L851.979 302.24 L848.127 294.002 L843.632 286.097 L838.523 278.573 L832.833 271.479 L826.597 264.86 L819.855 258.757 L812.65 253.209 L805.026 248.251 L797.033 243.914 L788.72 240.226 L780.141 237.211 L771.349 234.886 L762.4 233.267 L753.351 232.365 L744.259 232.184 L735.181 232.726 L726.175 233.988 L717.297 235.961 L708.605 238.633 L700.152 241.988 L691.993 246.003 L684.178 250.654 L676.757 255.911 L669.778 261.741 L663.284 268.107 L657.316 274.969 L651.913 282.284 L647.107 290.005 L642.93 298.083 L639.409 306.467 L636.564 315.105 L634.415 323.941 L632.974 332.92 L632.252 341.986 L632.252 351.08 L632.974 360.145 L634.415 369.124 L636.564 377.96 L639.409 386.598 L642.93 394.982 L647.107 403.061 L651.913 410.781 L657.316 418.096 L663.284 424.958 L669.778 431.324 L676.757 437.154 L684.178 442.411 L691.993 447.062 L700.152 451.078 L708.605 454.432 L717.297 457.104 L726.175 459.078 L735.181 460.339 L744.259 460.881 L753.351 460.701 L762.4 459.798 L771.349 458.179 L780.141 455.855 L788.72 452.839 L797.033 449.151 L805.026 444.814 L812.65 439.856 L819.855 434.308 L826.597 428.205 L832.833 421.586 L838.523 414.492 L843.632 406.969 L848.127 399.063 L851.979 390.825 L855.165 382.308 L857.664 373.564 L859.46 364.649 L860.542 355.619 L860.904 346.533 L860.904 346.533  Z" fill="#009af9" fill-rule="evenodd" fill-opacity="1"/>
<polyline clip-path="url(#clip222)" style="stroke:#000000; stroke-linecap:round; stroke-linejoin:round; stroke-width:4; stroke-opacity:1; fill:none" points="860.904,346.533 860.542,337.446 859.46,328.416 857.664,319.502 855.165,310.758 851.979,302.24 848.127,294.002 843.632,286.097 838.523,278.573 832.833,271.479 826.597,264.86 819.855,258.757 812.65,253.209 805.026,248.251 797.033,243.914 788.72,240.226 780.141,237.211 771.349,234.886 762.4,233.267 753.351,232.365 744.259,232.184 735.181,232.726 726.175,233.988 717.297,235.961 708.605,238.633 700.152,241.988 691.993,246.003 684.178,250.654 676.757,255.911 669.778,261.741 663.284,268.107 657.316,274.969 651.913,282.284 647.107,290.005 642.93,298.083 639.409,306.467 636.564,315.105 634.415,323.941 632.974,332.92 632.252,341.986 632.252,351.08 632.974,360.145 634.415,369.124 636.564,377.96 639.409,386.598 642.93,394.982 647.107,403.061 651.913,410.781 657.316,418.096 663.284,424.958 669.778,431.324 676.757,437.154 684.178,442.411 691.993,447.062 700.152,451.078 708.605,454.432 717.297,457.104 726.175,459.078 735.181,460.339 744.259,460.881 753.351,460.701 762.4,459.798 771.349,458.179 780.141,455.855 788.72,452.839 797.033,449.151 805.026,444.814 812.65,439.856 819.855,434.308 826.597,428.205 832.833,421.586 838.523,414.492 843.632,406.969 848.127,399.063 851.979,390.825 855.165,382.308 857.664,373.564 859.46,364.649 860.542,355.619 860.904,346.533 860.904,346.533 "/>
<path clip-path="url(#clip222)" d="M860.904 1253.47 L860.542 1244.38 L859.46 1235.35 L857.664 1226.44 L855.165 1217.69 L851.979 1209.17 L848.127 1200.94 L843.632 1193.03 L838.523 1185.51 L832.833 1178.41 L826.597 1171.79 L819.855 1165.69 L812.65 1160.14 L805.026 1155.19 L797.033 1150.85 L788.72 1147.16 L780.141 1144.15 L771.349 1141.82 L762.4 1140.2 L753.351 1139.3 L744.259 1139.12 L735.181 1139.66 L726.175 1140.92 L717.297 1142.9 L708.605 1145.57 L700.152 1148.92 L691.993 1152.94 L684.178 1157.59 L676.757 1162.85 L669.778 1168.68 L663.284 1175.04 L657.316 1181.9 L651.913 1189.22 L647.107 1196.94 L642.93 1205.02 L639.409 1213.4 L636.564 1222.04 L634.415 1230.88 L632.974 1239.86 L632.252 1248.92 L632.252 1258.01 L632.974 1267.08 L634.415 1276.06 L636.564 1284.9 L639.409 1293.53 L642.93 1301.92 L647.107 1310 L651.913 1317.72 L657.316 1325.03 L663.284 1331.89 L669.778 1338.26 L676.757 1344.09 L684.178 1349.35 L691.993 1354 L700.152 1358.01 L708.605 1361.37 L717.297 1364.04 L726.175 1366.01 L735.181 1367.27 L744.259 1367.82 L753.351 1367.64 L762.4 1366.73 L771.349 1365.11 L780.141 1362.79 L788.72 1359.77 L797.033 1356.09 L805.026 1351.75 L812.65 1346.79 L819.855 1341.24 L826.597 1335.14 L832.833 1328.52 L838.523 1321.43 L843.632 1313.9 L848.127 1306 L851.979 1297.76 L855.165 1289.24 L857.664 1280.5 L859.46 1271.58 L860.542 1262.55 L860.904 1253.47 L860.904 1253.47  Z" fill="#009af9" fill-rule="evenodd" fill-opacity="1"/>
<polyline clip-path="url(#clip222)" style="stroke:#000000; stroke-linecap:round; stroke-linejoin:round; stroke-width:4; stroke-opacity:1; fill:none" points="860.904,1253.47 860.542,1244.38 859.46,1235.35 857.664,1226.44 855.165,1217.69 851.979,1209.17 848.127,1200.94 843.632,1193.03 838.523,1185.51 832.833,1178.41 826.597,1171.79 819.855,1165.69 812.65,1160.14 805.026,1155.19 797.033,1150.85 788.72,1147.16 780.141,1144.15 771.349,1141.82 762.4,1140.2 753.351,1139.3 744.259,1139.12 735.181,1139.66 726.175,1140.92 717.297,1142.9 708.605,1145.57 700.152,1148.92 691.993,1152.94 684.178,1157.59 676.757,1162.85 669.778,1168.68 663.284,1175.04 657.316,1181.9 651.913,1189.22 647.107,1196.94 642.93,1205.02 639.409,1213.4 636.564,1222.04 634.415,1230.88 632.974,1239.86 632.252,1248.92 632.252,1258.01 632.974,1267.08 634.415,1276.06 636.564,1284.9 639.409,1293.53 642.93,1301.92 647.107,1310 651.913,1317.72 657.316,1325.03 663.284,1331.89 669.778,1338.26 676.757,1344.09 684.178,1349.35 691.993,1354 700.152,1358.01 708.605,1361.37 717.297,1364.04 726.175,1366.01 735.181,1367.27 744.259,1367.82 753.351,1367.64 762.4,1366.73 771.349,1365.11 780.141,1362.79 788.72,1359.77 797.033,1356.09 805.026,1351.75 812.65,1346.79 819.855,1341.24 826.597,1335.14 832.833,1328.52 838.523,1321.43 843.632,1313.9 848.127,1306 851.979,1297.76 855.165,1289.24 857.664,1280.5 859.46,1271.58 860.542,1262.55 860.904,1253.47 "/>
<circle clip-path="url(#clip222)" style="fill:#009af9; stroke:none; fill-opacity:0" cx="1653.47" cy="800" r="2"/>
<circle clip-path="url(#clip222)" style="fill:#009af9; stroke:none; fill-opacity:0" cx="746.533" cy="346.533" r="2"/>
<circle clip-path="url(#clip222)" style="fill:#009af9; stroke:none; fill-opacity:0" cx="746.533" cy="1253.47" r="2"/>
<path clip-path="url(#clip220)" d="M1944.66 808.232 L1948.48 808.232 L1948.48 795.049 L1944.32 795.882 L1944.32 793.753 L1948.46 792.919 L1950.79 792.919 L1950.79 808.232 L1954.61 808.232 L1954.61 810.199 L1944.66 810.199 L1944.66 808.232 Z" fill="#000000" fill-rule="nonzero" fill-opacity="1" /><path clip-path="url(#clip220)" d="M1962.82 792.919 L1964.79 792.919 L1958.77 812.398 L1956.8 812.398 L1962.82 792.919 Z" fill="#000000" fill-rule="nonzero" fill-opacity="1" /><path clip-path="url(#clip220)" d="M1970.8 792.919 L1972.77 792.919 L1966.75 812.398 L1964.79 812.398 L1970.8 792.919 Z" fill="#000000" fill-rule="nonzero" fill-opacity="1" /><path clip-path="url(#clip220)" d="M1975.71 808.232 L1979.53 808.232 L1979.53 795.049 L1975.38 795.882 L1975.38 793.753 L1979.51 792.919 L1981.85 792.919 L1981.85 808.232 L1985.67 808.232 L1985.67 810.199 L1975.71 810.199 L1975.71 808.232 Z" fill="#000000" fill-rule="nonzero" fill-opacity="1" /><path clip-path="url(#clip220)" d="M1260.88 417.701 L1264.7 417.701 L1264.7 404.518 L1260.54 405.352 L1260.54 403.222 L1264.67 402.389 L1267.01 402.389 L1267.01 417.701 L1270.83 417.701 L1270.83 419.669 L1260.88 419.669 L1260.88 417.701 Z" fill="#000000" fill-rule="nonzero" fill-opacity="1" /><path clip-path="url(#clip220)" d="M1279.04 402.389 L1281 402.389 L1274.98 421.868 L1273.02 421.868 L1279.04 402.389 Z" fill="#000000" fill-rule="nonzero" fill-opacity="1" /><path clip-path="url(#clip220)" d="M1287.02 402.389 L1288.99 402.389 L1282.97 421.868 L1281 421.868 L1287.02 402.389 Z" fill="#000000" fill-rule="nonzero" fill-opacity="1" /><path clip-path="url(#clip220)" d="M1293.54 417.701 L1301.7 417.701 L1301.7 419.669 L1290.73 419.669 L1290.73 417.701 Q1292.06 416.324 1294.35 414.009 Q1296.65 411.683 1297.24 411.011 Q1298.36 409.75 1298.8 408.882 Q1299.26 408.002 1299.26 407.157 Q1299.26 405.78 1298.28 404.912 Q1297.32 404.044 1295.77 404.044 Q1294.67 404.044 1293.45 404.426 Q1292.23 404.808 1290.84 405.583 L1290.84 403.222 Q1292.25 402.655 1293.48 402.366 Q1294.71 402.076 1295.73 402.076 Q1298.41 402.076 1300.01 403.419 Q1301.6 404.762 1301.6 407.007 Q1301.6 408.072 1301.2 409.032 Q1300.81 409.981 1299.75 411.278 Q1299.46 411.613 1297.91 413.222 Q1296.36 414.819 1293.54 417.701 Z" fill="#000000" fill-rule="nonzero" fill-opacity="1" /><path clip-path="url(#clip220)" d="M907.677 806.672 L911.496 806.672 L911.496 793.49 L907.341 794.323 L907.341 792.193 L911.473 791.36 L913.811 791.36 L913.811 806.672 L917.63 806.672 L917.63 808.64 L907.677 808.64 L907.677 806.672 Z" fill="#000000" fill-rule="nonzero" fill-opacity="1" /><path clip-path="url(#clip220)" d="M925.836 791.36 L927.804 791.36 L921.785 810.839 L919.818 810.839 L925.836 791.36 Z" fill="#000000" fill-rule="nonzero" fill-opacity="1" /><path clip-path="url(#clip220)" d="M933.822 791.36 L935.79 791.36 L929.771 810.839 L927.804 810.839 L933.822 791.36 Z" fill="#000000" fill-rule="nonzero" fill-opacity="1" /><path clip-path="url(#clip220)" d="M940.338 806.672 L948.498 806.672 L948.498 808.64 L937.526 808.64 L937.526 806.672 Q938.857 805.295 941.149 802.98 Q943.452 800.654 944.042 799.983 Q945.165 798.721 945.605 797.853 Q946.056 796.973 946.056 796.128 Q946.056 794.751 945.084 793.883 Q944.123 793.015 942.572 793.015 Q941.473 793.015 940.246 793.397 Q939.031 793.779 937.642 794.554 L937.642 792.193 Q939.054 791.626 940.281 791.337 Q941.507 791.048 942.526 791.048 Q945.211 791.048 946.808 792.39 Q948.406 793.733 948.406 795.978 Q948.406 797.043 948 798.003 Q947.607 798.953 946.554 800.249 Q946.264 800.584 944.713 802.193 Q943.163 803.79 940.338 806.672 Z" fill="#000000" fill-rule="nonzero" fill-opacity="1" /><path clip-path="url(#clip220)" d="M544.81 806.672 L548.63 806.672 L548.63 793.49 L544.474 794.323 L544.474 792.193 L548.606 791.36 L550.944 791.36 L550.944 806.672 L554.764 806.672 L554.764 808.64 L544.81 808.64 L544.81 806.672 Z" fill="#000000" fill-rule="nonzero" fill-opacity="1" /><path clip-path="url(#clip220)" d="M562.97 791.36 L564.937 791.36 L558.919 810.839 L556.951 810.839 L562.97 791.36 Z" fill="#000000" fill-rule="nonzero" fill-opacity="1" /><path clip-path="url(#clip220)" d="M570.956 791.36 L572.923 791.36 L566.905 810.839 L564.937 810.839 L570.956 791.36 Z" fill="#000000" fill-rule="nonzero" fill-opacity="1" /><path clip-path="url(#clip220)" d="M575.863 806.672 L579.683 806.672 L579.683 793.49 L575.528 794.323 L575.528 792.193 L579.659 791.36 L581.997 791.36 L581.997 806.672 L585.817 806.672 L585.817 808.64 L575.863 808.64 L575.863 806.672 Z" fill="#000000" fill-rule="nonzero" fill-opacity="1" /><path clip-path="url(#clip220)" d="M1631.25 792.899 Q1629.44 792.899 1628.53 794.682 Q1627.62 796.453 1627.62 800.017 Q1627.62 803.571 1628.53 805.353 Q1629.44 807.124 1631.25 807.124 Q1633.06 807.124 1633.97 805.353 Q1634.88 803.571 1634.88 800.017 Q1634.88 796.453 1633.97 794.682 Q1633.06 792.899 1631.25 792.899 M1631.25 791.048 Q1634.15 791.048 1635.68 793.351 Q1637.22 795.642 1637.22 800.017 Q1637.22 804.381 1635.68 806.684 Q1634.15 808.976 1631.25 808.976 Q1628.34 808.976 1626.8 806.684 Q1625.27 804.381 1625.27 800.017 Q1625.27 795.642 1626.8 793.351 Q1628.34 791.048 1631.25 791.048 Z" fill="#000000" fill-rule="nonzero" fill-opacity="1" /><path clip-path="url(#clip220)" d="M1646.33 792.899 Q1644.52 792.899 1643.61 794.682 Q1642.7 796.453 1642.7 800.017 Q1642.7 803.571 1643.61 805.353 Q1644.52 807.124 1646.33 807.124 Q1648.14 807.124 1649.05 805.353 Q1649.96 803.571 1649.96 800.017 Q1649.96 796.453 1649.05 794.682 Q1648.14 792.899 1646.33 792.899 M1646.33 791.048 Q1649.23 791.048 1650.76 793.351 Q1652.3 795.642 1652.3 800.017 Q1652.3 804.381 1650.76 806.684 Q1649.23 808.976 1646.33 808.976 Q1643.42 808.976 1641.88 806.684 Q1640.35 804.381 1640.35 800.017 Q1640.35 795.642 1641.88 793.351 Q1643.42 791.048 1646.33 791.048 Z" fill="#000000" fill-rule="nonzero" fill-opacity="1" /><path clip-path="url(#clip220)" d="M1661.41 792.899 Q1659.6 792.899 1658.69 794.682 Q1657.78 796.453 1657.78 800.017 Q1657.78 803.571 1658.69 805.353 Q1659.6 807.124 1661.41 807.124 Q1663.22 807.124 1664.13 805.353 Q1665.04 803.571 1665.04 800.017 Q1665.04 796.453 1664.13 794.682 Q1663.22 792.899 1661.41 792.899 M1661.41 791.048 Q1664.31 791.048 1665.84 793.351 Q1667.38 795.642 1667.38 800.017 Q1667.38 804.381 1665.84 806.684 Q1664.31 808.976 1661.41 808.976 Q1658.5 808.976 1656.96 806.684 Q1655.43 804.381 1655.43 800.017 Q1655.43 795.642 1656.96 793.351 Q1658.5 791.048 1661.41 791.048 Z" fill="#000000" fill-rule="nonzero" fill-opacity="1" /><path clip-path="url(#clip220)" d="M1673.5 806.672 L1681.66 806.672 L1681.66 808.64 L1670.69 808.64 L1670.69 806.672 Q1672.02 805.295 1674.31 802.98 Q1676.62 800.654 1677.21 799.983 Q1678.33 798.721 1678.77 797.853 Q1679.22 796.973 1679.22 796.128 Q1679.22 794.751 1678.25 793.883 Q1677.29 793.015 1675.74 793.015 Q1674.64 793.015 1673.41 793.397 Q1672.19 793.779 1670.81 794.554 L1670.81 792.193 Q1672.22 791.626 1673.44 791.337 Q1674.67 791.048 1675.69 791.048 Q1678.37 791.048 1679.97 792.39 Q1681.57 793.733 1681.57 795.978 Q1681.57 797.043 1681.16 798.003 Q1680.77 798.953 1679.72 800.249 Q1679.43 800.584 1677.88 802.193 Q1676.33 803.79 1673.5 806.672 Z" fill="#000000" fill-rule="nonzero" fill-opacity="1" /><path clip-path="url(#clip220)" d="M724.218 339.432 Q722.412 339.432 721.498 341.214 Q720.595 342.985 720.595 346.55 Q720.595 350.103 721.498 351.886 Q722.412 353.656 724.218 353.656 Q726.035 353.656 726.938 351.886 Q727.852 350.103 727.852 346.55 Q727.852 342.985 726.938 341.214 Q726.035 339.432 724.218 339.432 M724.218 337.58 Q727.123 337.58 728.651 339.883 Q730.19 342.175 730.19 346.55 Q730.19 350.913 728.651 353.217 Q727.123 355.508 724.218 355.508 Q721.313 355.508 719.773 353.217 Q718.246 350.913 718.246 346.55 Q718.246 342.175 719.773 339.883 Q721.313 337.58 724.218 337.58 Z" fill="#000000" fill-rule="nonzero" fill-opacity="1" /><path clip-path="url(#clip220)" d="M739.299 339.432 Q737.493 339.432 736.579 341.214 Q735.676 342.985 735.676 346.55 Q735.676 350.103 736.579 351.886 Q737.493 353.656 739.299 353.656 Q741.116 353.656 742.019 351.886 Q742.933 350.103 742.933 346.55 Q742.933 342.985 742.019 341.214 Q741.116 339.432 739.299 339.432 M739.299 337.58 Q742.204 337.58 743.732 339.883 Q745.271 342.175 745.271 346.55 Q745.271 350.913 743.732 353.217 Q742.204 355.508 739.299 355.508 Q736.394 355.508 734.854 353.217 Q733.327 350.913 733.327 346.55 Q733.327 342.175 734.854 339.883 Q736.394 337.58 739.299 337.58 Z" fill="#000000" fill-rule="nonzero" fill-opacity="1" /><path clip-path="url(#clip220)" d="M749.785 353.205 L753.604 353.205 L753.604 340.022 L749.449 340.856 L749.449 338.726 L753.581 337.893 L755.919 337.893 L755.919 353.205 L759.739 353.205 L759.739 355.173 L749.785 355.173 L749.785 353.205 Z" fill="#000000" fill-rule="nonzero" fill-opacity="1" /><path clip-path="url(#clip220)" d="M764.866 353.205 L768.685 353.205 L768.685 340.022 L764.53 340.856 L764.53 338.726 L768.662 337.893 L771 337.893 L771 353.205 L774.819 353.205 L774.819 355.173 L764.866 355.173 L764.866 353.205 Z" fill="#000000" fill-rule="nonzero" fill-opacity="1" /><path clip-path="url(#clip220)" d="M724.218 1246.37 Q722.412 1246.37 721.498 1248.15 Q720.595 1249.92 720.595 1253.48 Q720.595 1257.04 721.498 1258.82 Q722.412 1260.59 724.218 1260.59 Q726.035 1260.59 726.938 1258.82 Q727.852 1257.04 727.852 1253.48 Q727.852 1249.92 726.938 1248.15 Q726.035 1246.37 724.218 1246.37 M724.218 1244.51 Q727.123 1244.51 728.651 1246.82 Q730.19 1249.11 730.19 1253.48 Q730.19 1257.85 728.651 1260.15 Q727.123 1262.44 724.218 1262.44 Q721.313 1262.44 719.773 1260.15 Q718.246 1257.85 718.246 1253.48 Q718.246 1249.11 719.773 1246.82 Q721.313 1244.51 724.218 1244.51 Z" fill="#000000" fill-rule="nonzero" fill-opacity="1" /><path clip-path="url(#clip220)" d="M734.704 1260.14 L738.523 1260.14 L738.523 1246.96 L734.368 1247.79 L734.368 1245.66 L738.5 1244.83 L740.838 1244.83 L740.838 1260.14 L744.658 1260.14 L744.658 1262.11 L734.704 1262.11 L734.704 1260.14 Z" fill="#000000" fill-rule="nonzero" fill-opacity="1" /><path clip-path="url(#clip220)" d="M754.38 1246.37 Q752.574 1246.37 751.66 1248.15 Q750.757 1249.92 750.757 1253.48 Q750.757 1257.04 751.66 1258.82 Q752.574 1260.59 754.38 1260.59 Q756.197 1260.59 757.1 1258.82 Q758.014 1257.04 758.014 1253.48 Q758.014 1249.92 757.1 1248.15 Q756.197 1246.37 754.38 1246.37 M754.38 1244.51 Q757.285 1244.51 758.813 1246.82 Q760.352 1249.11 760.352 1253.48 Q760.352 1257.85 758.813 1260.15 Q757.285 1262.44 754.38 1262.44 Q751.475 1262.44 749.935 1260.15 Q748.408 1257.85 748.408 1253.48 Q748.408 1249.11 749.935 1246.82 Q751.475 1244.51 754.38 1244.51 Z" fill="#000000" fill-rule="nonzero" fill-opacity="1" /><path clip-path="url(#clip220)" d="M764.866 1260.14 L768.685 1260.14 L768.685 1246.96 L764.53 1247.79 L764.53 1245.66 L768.662 1244.83 L771 1244.83 L771 1260.14 L774.819 1260.14 L774.819 1262.11 L764.866 1262.11 L764.866 1260.14 Z" fill="#000000" fill-rule="nonzero" fill-opacity="1" /></svg>
