<?xml version="1.0" encoding="utf-8"?>
<svg xmlns="http://www.w3.org/2000/svg" xmlns:xlink="http://www.w3.org/1999/xlink" width="600" height="400" viewBox="0 0 2400 1600">
<defs>
  <clipPath id="clip960">
    <rect x="0" y="0" width="2400" height="1600"/>
  </clipPath>
</defs>
<path clip-path="url(#clip960)" d="M0 1600 L2400 1600 L2400 0 L0 0  Z" fill="#ffffff" fill-rule="evenodd" fill-opacity="1"/>
<defs>
  <clipPath id="clip961">
    <rect x="480" y="0" width="1681" height="1600"/>
  </clipPath>
</defs>
<path clip-path="url(#clip960)" d="M800.666 1486.45 L2352.76 1486.45 L2352.76 123.472 L800.666 123.472  Z" fill="#ffffff" fill-rule="evenodd" fill-opacity="1"/>
<defs>
  <clipPath id="clip962">
    <rect x="800" y="123" width="1553" height="1364"/>
  </clipPath>
</defs>
<polyline clip-path="url(#clip962)" style="stroke:#000000; stroke-linecap:round; stroke-linejoin:round; stroke-width:2; stroke-opacity:0.1; fill:none" points="1102,1486.45 1102,123.472 "/>
<polyline clip-path="url(#clip962)" style="stroke:#000000; stroke-linecap:round; stroke-linejoin:round; stroke-width:2; stroke-opacity:0.1; fill:none" points="1487.64,1486.45 1487.64,123.472 "/>
<polyline clip-path="url(#clip962)" style="stroke:#000000; stroke-linecap:round; stroke-linejoin:round; stroke-width:2; stroke-opacity:0.1; fill:none" points="1873.27,1486.45 1873.27,123.472 "/>
<polyline clip-path="url(#clip962)" style="stroke:#000000; stroke-linecap:round; stroke-linejoin:round; stroke-width:2; stroke-opacity:0.1; fill:none" points="2258.91,1486.45 2258.91,123.472 "/>
<polyline clip-path="url(#clip960)" style="stroke:#000000; stroke-linecap:round; stroke-linejoin:round; stroke-width:4; stroke-opacity:1; fill:none" points="800.666,1486.45 2352.76,1486.45 "/>
<polyline clip-path="url(#clip960)" style="stroke:#000000; stroke-linecap:round; stroke-linejoin:round; stroke-width:4; stroke-opacity:1; fill:none" points="1102,1486.45 1102,1467.55 "/>
<polyline clip-path="url(#clip960)" style="stroke:#000000; stroke-linecap:round; stroke-linejoin:round; stroke-width:4; stroke-opacity:1; fill:none" points="1487.64,1486.45 1487.64,1467.55 "/>
<polyline clip-path="url(#clip960)" style="stroke:#000000; stroke-linecap:round; stroke-linejoin:round; stroke-width:4; stroke-opacity:1; fill:none" points="1873.27,1486.45 1873.27,1467.55 "/>
<polyline clip-path="url(#clip960)" style="stroke:#000000; stroke-linecap:round; stroke-linejoin:round; stroke-width:4; stroke-opacity:1; fill:none" points="2258.91,1486.45 2258.91,1467.55 "/>
<path clip-path="url(#clip960)" d="M1049.02 1532.02 L1078.7 1532.02 L1078.7 1535.95 L1049.02 1535.95 L1049.02 1532.02 Z" fill="#000000" fill-rule="nonzero" fill-opacity="1" /><path clip-path="url(#clip960)" d="M1098.79 1517.37 Q1095.18 1517.37 1093.35 1520.93 Q1091.55 1524.47 1091.55 1531.6 Q1091.55 1538.71 1093.35 1542.27 Q1095.18 1545.82 1098.79 1545.82 Q1102.43 1545.82 1104.23 1542.27 Q1106.06 1538.71 1106.06 1531.6 Q1106.06 1524.47 1104.23 1520.93 Q1102.43 1517.37 1098.79 1517.37 M1098.79 1513.66 Q1104.6 1513.66 1107.66 1518.27 Q1110.74 1522.85 1110.74 1531.6 Q1110.74 1540.33 1107.66 1544.94 Q1104.6 1549.52 1098.79 1549.52 Q1092.98 1549.52 1089.9 1544.94 Q1086.85 1540.33 1086.85 1531.6 Q1086.85 1522.85 1089.9 1518.27 Q1092.98 1513.66 1098.79 1513.66 Z" fill="#000000" fill-rule="nonzero" fill-opacity="1" /><path clip-path="url(#clip960)" d="M1118.95 1542.97 L1123.84 1542.97 L1123.84 1548.85 L1118.95 1548.85 L1118.95 1542.97 Z" fill="#000000" fill-rule="nonzero" fill-opacity="1" /><path clip-path="url(#clip960)" d="M1134.07 1514.29 L1152.43 1514.29 L1152.43 1518.22 L1138.35 1518.22 L1138.35 1526.7 Q1139.37 1526.35 1140.39 1526.19 Q1141.41 1526 1142.43 1526 Q1148.21 1526 1151.59 1529.17 Q1154.97 1532.34 1154.97 1537.76 Q1154.97 1543.34 1151.5 1546.44 Q1148.03 1549.52 1141.71 1549.52 Q1139.53 1549.52 1137.26 1549.15 Q1135.02 1548.78 1132.61 1548.04 L1132.61 1543.34 Q1134.69 1544.47 1136.92 1545.03 Q1139.14 1545.58 1141.62 1545.58 Q1145.62 1545.58 1147.96 1543.48 Q1150.3 1541.37 1150.3 1537.76 Q1150.3 1534.15 1147.96 1532.04 Q1145.62 1529.94 1141.62 1529.94 Q1139.74 1529.94 1137.87 1530.35 Q1136.01 1530.77 1134.07 1531.65 L1134.07 1514.29 Z" fill="#000000" fill-rule="nonzero" fill-opacity="1" /><path clip-path="url(#clip960)" d="M1465.02 1517.37 Q1461.41 1517.37 1459.58 1520.93 Q1457.77 1524.47 1457.77 1531.6 Q1457.77 1538.71 1459.58 1542.27 Q1461.41 1545.82 1465.02 1545.82 Q1468.65 1545.82 1470.46 1542.27 Q1472.29 1538.71 1472.29 1531.6 Q1472.29 1524.47 1470.46 1520.93 Q1468.65 1517.37 1465.02 1517.37 M1465.02 1513.66 Q1470.83 1513.66 1473.89 1518.27 Q1476.96 1522.85 1476.96 1531.6 Q1476.96 1540.33 1473.89 1544.94 Q1470.83 1549.52 1465.02 1549.52 Q1459.21 1549.52 1456.13 1544.94 Q1453.08 1540.33 1453.08 1531.6 Q1453.08 1522.85 1456.13 1518.27 Q1459.21 1513.66 1465.02 1513.66 Z" fill="#000000" fill-rule="nonzero" fill-opacity="1" /><path clip-path="url(#clip960)" d="M1485.18 1542.97 L1490.07 1542.97 L1490.07 1548.85 L1485.18 1548.85 L1485.18 1542.97 Z" fill="#000000" fill-rule="nonzero" fill-opacity="1" /><path clip-path="url(#clip960)" d="M1510.25 1517.37 Q1506.64 1517.37 1504.81 1520.93 Q1503.01 1524.47 1503.01 1531.6 Q1503.01 1538.71 1504.81 1542.27 Q1506.64 1545.82 1510.25 1545.82 Q1513.88 1545.82 1515.69 1542.27 Q1517.52 1538.71 1517.52 1531.6 Q1517.52 1524.47 1515.69 1520.93 Q1513.88 1517.37 1510.25 1517.37 M1510.25 1513.66 Q1516.06 1513.66 1519.12 1518.27 Q1522.2 1522.85 1522.2 1531.6 Q1522.2 1540.33 1519.12 1544.94 Q1516.06 1549.52 1510.25 1549.52 Q1504.44 1549.52 1501.36 1544.94 Q1498.31 1540.33 1498.31 1531.6 Q1498.31 1522.85 1501.36 1518.27 Q1504.44 1513.66 1510.25 1513.66 Z" fill="#000000" fill-rule="nonzero" fill-opacity="1" /><path clip-path="url(#clip960)" d="M1851.16 1517.37 Q1847.54 1517.37 1845.72 1520.93 Q1843.91 1524.47 1843.91 1531.6 Q1843.91 1538.71 1845.72 1542.27 Q1847.54 1545.82 1851.16 1545.82 Q1854.79 1545.82 1856.59 1542.27 Q1858.42 1538.71 1858.42 1531.6 Q1858.42 1524.47 1856.59 1520.93 Q1854.79 1517.37 1851.16 1517.37 M1851.16 1513.66 Q1856.97 1513.66 1860.02 1518.27 Q1863.1 1522.85 1863.1 1531.6 Q1863.1 1540.33 1860.02 1544.94 Q1856.97 1549.52 1851.16 1549.52 Q1845.34 1549.52 1842.27 1544.94 Q1839.21 1540.33 1839.21 1531.6 Q1839.21 1522.85 1842.27 1518.27 Q1845.34 1513.66 1851.16 1513.66 Z" fill="#000000" fill-rule="nonzero" fill-opacity="1" /><path clip-path="url(#clip960)" d="M1871.32 1542.97 L1876.2 1542.97 L1876.2 1548.85 L1871.32 1548.85 L1871.32 1542.97 Z" fill="#000000" fill-rule="nonzero" fill-opacity="1" /><path clip-path="url(#clip960)" d="M1886.43 1514.29 L1904.79 1514.29 L1904.79 1518.22 L1890.71 1518.22 L1890.71 1526.7 Q1891.73 1526.35 1892.75 1526.19 Q1893.77 1526 1894.79 1526 Q1900.58 1526 1903.96 1529.17 Q1907.34 1532.34 1907.34 1537.76 Q1907.34 1543.34 1903.86 1546.44 Q1900.39 1549.52 1894.07 1549.52 Q1891.9 1549.52 1889.63 1549.15 Q1887.38 1548.78 1884.97 1548.04 L1884.97 1543.34 Q1887.06 1544.47 1889.28 1545.03 Q1891.5 1545.58 1893.98 1545.58 Q1897.98 1545.58 1900.32 1543.48 Q1902.66 1541.37 1902.66 1537.76 Q1902.66 1534.15 1900.32 1532.04 Q1897.98 1529.94 1893.98 1529.94 Q1892.1 1529.94 1890.23 1530.35 Q1888.38 1530.77 1886.43 1531.65 L1886.43 1514.29 Z" fill="#000000" fill-rule="nonzero" fill-opacity="1" /><path clip-path="url(#clip960)" d="M2226.06 1544.91 L2233.7 1544.91 L2233.7 1518.55 L2225.39 1520.21 L2225.39 1515.95 L2233.66 1514.29 L2238.33 1514.29 L2238.33 1544.91 L2245.97 1544.91 L2245.97 1548.85 L2226.06 1548.85 L2226.06 1544.91 Z" fill="#000000" fill-rule="nonzero" fill-opacity="1" /><path clip-path="url(#clip960)" d="M2255.42 1542.97 L2260.3 1542.97 L2260.3 1548.85 L2255.42 1548.85 L2255.42 1542.97 Z" fill="#000000" fill-rule="nonzero" fill-opacity="1" /><path clip-path="url(#clip960)" d="M2280.48 1517.37 Q2276.87 1517.37 2275.04 1520.93 Q2273.24 1524.47 2273.24 1531.6 Q2273.24 1538.71 2275.04 1542.27 Q2276.87 1545.82 2280.48 1545.82 Q2284.12 1545.82 2285.92 1542.27 Q2287.75 1538.71 2287.75 1531.6 Q2287.75 1524.47 2285.92 1520.93 Q2284.12 1517.37 2280.48 1517.37 M2280.48 1513.66 Q2286.29 1513.66 2289.35 1518.27 Q2292.43 1522.85 2292.43 1531.6 Q2292.43 1540.33 2289.35 1544.94 Q2286.29 1549.52 2280.48 1549.52 Q2274.67 1549.52 2271.6 1544.94 Q2268.54 1540.33 2268.54 1531.6 Q2268.54 1522.85 2271.6 1518.27 Q2274.67 1513.66 2280.48 1513.66 Z" fill="#000000" fill-rule="nonzero" fill-opacity="1" /><polyline clip-path="url(#clip962)" style="stroke:#000000; stroke-linecap:round; stroke-linejoin:round; stroke-width:2; stroke-opacity:0.1; fill:none" points="800.666,1449.11 2352.76,1449.11 "/>
<polyline clip-path="url(#clip962)" style="stroke:#000000; stroke-linecap:round; stroke-linejoin:round; stroke-width:2; stroke-opacity:0.1; fill:none" points="800.666,1127.04 2352.76,1127.04 "/>
<polyline clip-path="url(#clip962)" style="stroke:#000000; stroke-linecap:round; stroke-linejoin:round; stroke-width:2; stroke-opacity:0.1; fill:none" points="800.666,804.96 2352.76,804.96 "/>
<polyline clip-path="url(#clip962)" style="stroke:#000000; stroke-linecap:round; stroke-linejoin:round; stroke-width:2; stroke-opacity:0.1; fill:none" points="800.666,482.885 2352.76,482.885 "/>
<polyline clip-path="url(#clip962)" style="stroke:#000000; stroke-linecap:round; stroke-linejoin:round; stroke-width:2; stroke-opacity:0.1; fill:none" points="800.666,160.81 2352.76,160.81 "/>
<polyline clip-path="url(#clip960)" style="stroke:#000000; stroke-linecap:round; stroke-linejoin:round; stroke-width:4; stroke-opacity:1; fill:none" points="800.666,1486.45 800.666,123.472 "/>
<polyline clip-path="url(#clip960)" style="stroke:#000000; stroke-linecap:round; stroke-linejoin:round; stroke-width:4; stroke-opacity:1; fill:none" points="800.666,1449.11 814.252,1449.11 "/>
<polyline clip-path="url(#clip960)" style="stroke:#000000; stroke-linecap:round; stroke-linejoin:round; stroke-width:4; stroke-opacity:1; fill:none" points="800.666,1127.04 814.252,1127.04 "/>
<polyline clip-path="url(#clip960)" style="stroke:#000000; stroke-linecap:round; stroke-linejoin:round; stroke-width:4; stroke-opacity:1; fill:none" points="800.666,804.96 814.252,804.96 "/>
<polyline clip-path="url(#clip960)" style="stroke:#000000; stroke-linecap:round; stroke-linejoin:round; stroke-width:4; stroke-opacity:1; fill:none" points="800.666,482.885 814.252,482.885 "/>
<polyline clip-path="url(#clip960)" style="stroke:#000000; stroke-linecap:round; stroke-linejoin:round; stroke-width:4; stroke-opacity:1; fill:none" points="800.666,160.81 814.252,160.81 "/>
<path clip-path="url(#clip960)" d="M657.722 1449.56 L687.398 1449.56 L687.398 1453.5 L657.722 1453.5 L657.722 1449.56 Z" fill="#000000" fill-rule="nonzero" fill-opacity="1" /><path clip-path="url(#clip960)" d="M698.3 1462.46 L705.939 1462.46 L705.939 1436.09 L697.629 1437.76 L697.629 1433.5 L705.893 1431.83 L710.569 1431.83 L710.569 1462.46 L718.208 1462.46 L718.208 1466.39 L698.3 1466.39 L698.3 1462.46 Z" fill="#000000" fill-rule="nonzero" fill-opacity="1" /><path clip-path="url(#clip960)" d="M727.652 1460.51 L732.536 1460.51 L732.536 1466.39 L727.652 1466.39 L727.652 1460.51 Z" fill="#000000" fill-rule="nonzero" fill-opacity="1" /><path clip-path="url(#clip960)" d="M752.721 1434.91 Q749.11 1434.91 747.282 1438.47 Q745.476 1442.02 745.476 1449.15 Q745.476 1456.25 747.282 1459.82 Q749.11 1463.36 752.721 1463.36 Q756.356 1463.36 758.161 1459.82 Q759.99 1456.25 759.99 1449.15 Q759.99 1442.02 758.161 1438.47 Q756.356 1434.91 752.721 1434.91 M752.721 1431.21 Q758.532 1431.21 761.587 1435.81 Q764.666 1440.4 764.666 1449.15 Q764.666 1457.87 761.587 1462.48 Q758.532 1467.06 752.721 1467.06 Q746.911 1467.06 743.833 1462.48 Q740.777 1457.87 740.777 1449.15 Q740.777 1440.4 743.833 1435.81 Q746.911 1431.21 752.721 1431.21 Z" fill="#000000" fill-rule="nonzero" fill-opacity="1" /><path clip-path="url(#clip960)" d="M658.717 1127.49 L688.393 1127.49 L688.393 1131.42 L658.717 1131.42 L658.717 1127.49 Z" fill="#000000" fill-rule="nonzero" fill-opacity="1" /><path clip-path="url(#clip960)" d="M708.486 1112.83 Q704.874 1112.83 703.046 1116.4 Q701.24 1119.94 701.24 1127.07 Q701.24 1134.18 703.046 1137.74 Q704.874 1141.28 708.486 1141.28 Q712.12 1141.28 713.925 1137.74 Q715.754 1134.18 715.754 1127.07 Q715.754 1119.94 713.925 1116.4 Q712.12 1112.83 708.486 1112.83 M708.486 1109.13 Q714.296 1109.13 717.351 1113.74 Q720.43 1118.32 720.43 1127.07 Q720.43 1135.8 717.351 1140.4 Q714.296 1144.99 708.486 1144.99 Q702.675 1144.99 699.597 1140.4 Q696.541 1135.8 696.541 1127.07 Q696.541 1118.32 699.597 1113.74 Q702.675 1109.13 708.486 1109.13 Z" fill="#000000" fill-rule="nonzero" fill-opacity="1" /><path clip-path="url(#clip960)" d="M728.648 1138.44 L733.532 1138.44 L733.532 1144.32 L728.648 1144.32 L728.648 1138.44 Z" fill="#000000" fill-rule="nonzero" fill-opacity="1" /><path clip-path="url(#clip960)" d="M743.763 1109.76 L762.12 1109.76 L762.12 1113.69 L748.046 1113.69 L748.046 1122.16 Q749.064 1121.82 750.083 1121.65 Q751.101 1121.47 752.12 1121.47 Q757.907 1121.47 761.286 1124.64 Q764.666 1127.81 764.666 1133.23 Q764.666 1138.81 761.194 1141.91 Q757.721 1144.99 751.402 1144.99 Q749.226 1144.99 746.958 1144.62 Q744.712 1144.25 742.305 1143.5 L742.305 1138.81 Q744.388 1139.94 746.61 1140.5 Q748.833 1141.05 751.309 1141.05 Q755.314 1141.05 757.652 1138.94 Q759.99 1136.84 759.99 1133.23 Q759.99 1129.62 757.652 1127.51 Q755.314 1125.4 751.309 1125.4 Q749.434 1125.4 747.559 1125.82 Q745.708 1126.24 743.763 1127.12 L743.763 1109.76 Z" fill="#000000" fill-rule="nonzero" fill-opacity="1" /><path clip-path="url(#clip960)" d="M707.49 790.759 Q703.879 790.759 702.05 794.323 Q700.245 797.865 700.245 804.995 Q700.245 812.101 702.05 815.666 Q703.879 819.208 707.49 819.208 Q711.124 819.208 712.93 815.666 Q714.759 812.101 714.759 804.995 Q714.759 797.865 712.93 794.323 Q711.124 790.759 707.49 790.759 M707.49 787.055 Q713.3 787.055 716.356 791.661 Q719.435 796.245 719.435 804.995 Q719.435 813.722 716.356 818.328 Q713.3 822.911 707.49 822.911 Q701.68 822.911 698.601 818.328 Q695.546 813.722 695.546 804.995 Q695.546 796.245 698.601 791.661 Q701.68 787.055 707.49 787.055 Z" fill="#000000" fill-rule="nonzero" fill-opacity="1" /><path clip-path="url(#clip960)" d="M727.652 816.36 L732.536 816.36 L732.536 822.24 L727.652 822.24 L727.652 816.36 Z" fill="#000000" fill-rule="nonzero" fill-opacity="1" /><path clip-path="url(#clip960)" d="M752.721 790.759 Q749.11 790.759 747.282 794.323 Q745.476 797.865 745.476 804.995 Q745.476 812.101 747.282 815.666 Q749.11 819.208 752.721 819.208 Q756.356 819.208 758.161 815.666 Q759.99 812.101 759.99 804.995 Q759.99 797.865 758.161 794.323 Q756.356 790.759 752.721 790.759 M752.721 787.055 Q758.532 787.055 761.587 791.661 Q764.666 796.245 764.666 804.995 Q764.666 813.722 761.587 818.328 Q758.532 822.911 752.721 822.911 Q746.911 822.911 743.833 818.328 Q740.777 813.722 740.777 804.995 Q740.777 796.245 743.833 791.661 Q746.911 787.055 752.721 787.055 Z" fill="#000000" fill-rule="nonzero" fill-opacity="1" /><path clip-path="url(#clip960)" d="M708.486 468.684 Q704.874 468.684 703.046 472.248 Q701.24 475.79 701.24 482.92 Q701.24 490.026 703.046 493.591 Q704.874 497.132 708.486 497.132 Q712.12 497.132 713.925 493.591 Q715.754 490.026 715.754 482.92 Q715.754 475.79 713.925 472.248 Q712.12 468.684 708.486 468.684 M708.486 464.98 Q714.296 464.98 717.351 469.586 Q720.43 474.17 720.43 482.92 Q720.43 491.646 717.351 496.253 Q714.296 500.836 708.486 500.836 Q702.675 500.836 699.597 496.253 Q696.541 491.646 696.541 482.92 Q696.541 474.17 699.597 469.586 Q702.675 464.98 708.486 464.98 Z" fill="#000000" fill-rule="nonzero" fill-opacity="1" /><path clip-path="url(#clip960)" d="M728.648 494.285 L733.532 494.285 L733.532 500.165 L728.648 500.165 L728.648 494.285 Z" fill="#000000" fill-rule="nonzero" fill-opacity="1" /><path clip-path="url(#clip960)" d="M743.763 465.605 L762.12 465.605 L762.12 469.54 L748.046 469.54 L748.046 478.012 Q749.064 477.665 750.083 477.503 Q751.101 477.318 752.12 477.318 Q757.907 477.318 761.286 480.489 Q764.666 483.66 764.666 489.077 Q764.666 494.656 761.194 497.757 Q757.721 500.836 751.402 500.836 Q749.226 500.836 746.958 500.466 Q744.712 500.095 742.305 499.355 L742.305 494.656 Q744.388 495.79 746.61 496.345 Q748.833 496.901 751.309 496.901 Q755.314 496.901 757.652 494.795 Q759.99 492.688 759.99 489.077 Q759.99 485.466 757.652 483.359 Q755.314 481.253 751.309 481.253 Q749.434 481.253 747.559 481.67 Q745.708 482.086 743.763 482.966 L743.763 465.605 Z" fill="#000000" fill-rule="nonzero" fill-opacity="1" /><path clip-path="url(#clip960)" d="M698.3 174.155 L705.939 174.155 L705.939 147.789 L697.629 149.456 L697.629 145.196 L705.893 143.53 L710.569 143.53 L710.569 174.155 L718.208 174.155 L718.208 178.09 L698.3 178.09 L698.3 174.155 Z" fill="#000000" fill-rule="nonzero" fill-opacity="1" /><path clip-path="url(#clip960)" d="M727.652 172.21 L732.536 172.21 L732.536 178.09 L727.652 178.09 L727.652 172.21 Z" fill="#000000" fill-rule="nonzero" fill-opacity="1" /><path clip-path="url(#clip960)" d="M752.721 146.608 Q749.11 146.608 747.282 150.173 Q745.476 153.715 745.476 160.844 Q745.476 167.951 747.282 171.516 Q749.11 175.057 752.721 175.057 Q756.356 175.057 758.161 171.516 Q759.99 167.951 759.99 160.844 Q759.99 153.715 758.161 150.173 Q756.356 146.608 752.721 146.608 M752.721 142.905 Q758.532 142.905 761.587 147.511 Q764.666 152.094 764.666 160.844 Q764.666 169.571 761.587 174.178 Q758.532 178.761 752.721 178.761 Q746.911 178.761 743.833 174.178 Q740.777 169.571 740.777 160.844 Q740.777 152.094 743.833 147.511 Q746.911 142.905 752.721 142.905 Z" fill="#000000" fill-rule="nonzero" fill-opacity="1" /><path clip-path="url(#clip960)" d="M1036.3 12.096 L1087.46 12.096 L1087.46 18.9825 L1065.99 18.9825 L1065.99 72.576 L1057.77 72.576 L1057.77 18.9825 L1036.3 18.9825 L1036.3 12.096 Z" fill="#000000" fill-rule="nonzero" fill-opacity="1" /><path clip-path="url(#clip960)" d="M1109.14 34.1734 Q1107.88 33.4443 1106.38 33.1202 Q1104.92 32.7556 1103.14 32.7556 Q1096.82 32.7556 1093.42 36.8875 Q1090.06 40.9789 1090.06 48.6757 L1090.06 72.576 L1082.56 72.576 L1082.56 27.2059 L1090.06 27.2059 L1090.06 34.2544 Q1092.41 30.1225 1096.17 28.1376 Q1099.94 26.1121 1105.33 26.1121 Q1106.1 26.1121 1107.03 26.2337 Q1107.96 26.3147 1109.09 26.5172 L1109.14 34.1734 Z" fill="#000000" fill-rule="nonzero" fill-opacity="1" /><path clip-path="url(#clip960)" d="M1137.57 49.7694 Q1128.54 49.7694 1125.06 51.8354 Q1121.57 53.9013 1121.57 58.8839 Q1121.57 62.8538 1124.16 65.2034 Q1126.8 67.5124 1131.29 67.5124 Q1137.49 67.5124 1141.22 63.1374 Q1144.99 58.7219 1144.99 51.4303 L1144.99 49.7694 L1137.57 49.7694 M1152.44 46.6907 L1152.44 72.576 L1144.99 72.576 L1144.99 65.6895 Q1142.43 69.8214 1138.63 71.8063 Q1134.82 73.7508 1129.31 73.7508 Q1122.34 73.7508 1118.21 69.8619 Q1114.12 65.9325 1114.12 59.3701 Q1114.12 51.7138 1119.22 47.825 Q1124.37 43.9361 1134.53 43.9361 L1144.99 43.9361 L1144.99 43.2069 Q1144.99 38.0623 1141.58 35.2672 Q1138.22 32.4315 1132.1 32.4315 Q1128.22 32.4315 1124.53 33.3632 Q1120.84 34.295 1117.44 36.1584 L1117.44 29.2718 Q1121.53 27.692 1125.38 26.9223 Q1129.23 26.1121 1132.87 26.1121 Q1142.72 26.1121 1147.58 31.2163 Q1152.44 36.3204 1152.44 46.6907 Z" fill="#000000" fill-rule="nonzero" fill-opacity="1" /><path clip-path="url(#clip960)" d="M1190.76 9.54393 L1190.76 15.7418 L1183.63 15.7418 Q1179.62 15.7418 1178.04 17.3622 Q1176.5 18.9825 1176.5 23.1955 L1176.5 27.2059 L1188.78 27.2059 L1188.78 32.9987 L1176.5 32.9987 L1176.5 72.576 L1169.01 72.576 L1169.01 32.9987 L1161.88 32.9987 L1161.88 27.2059 L1169.01 27.2059 L1169.01 24.0462 Q1169.01 16.471 1172.53 13.0277 Q1176.06 9.54393 1183.71 9.54393 L1190.76 9.54393 Z" fill="#000000" fill-rule="nonzero" fill-opacity="1" /><path clip-path="url(#clip960)" d="M1219.97 9.54393 L1219.97 15.7418 L1212.84 15.7418 Q1208.83 15.7418 1207.25 17.3622 Q1205.71 18.9825 1205.71 23.1955 L1205.71 27.2059 L1217.98 27.2059 L1217.98 32.9987 L1205.71 32.9987 L1205.71 72.576 L1198.21 72.576 L1198.21 32.9987 L1191.09 32.9987 L1191.09 27.2059 L1198.21 27.2059 L1198.21 24.0462 Q1198.21 16.471 1201.74 13.0277 Q1205.26 9.54393 1212.92 9.54393 L1219.97 9.54393 Z" fill="#000000" fill-rule="nonzero" fill-opacity="1" /><path clip-path="url(#clip960)" d="M1226.21 27.2059 L1233.66 27.2059 L1233.66 72.576 L1226.21 72.576 L1226.21 27.2059 M1226.21 9.54393 L1233.66 9.54393 L1233.66 18.9825 L1226.21 18.9825 L1226.21 9.54393 Z" fill="#000000" fill-rule="nonzero" fill-opacity="1" /><path clip-path="url(#clip960)" d="M1281.91 28.9478 L1281.91 35.9153 Q1278.75 34.1734 1275.55 33.3227 Q1272.39 32.4315 1269.15 32.4315 Q1261.89 32.4315 1257.88 37.0496 Q1253.87 41.6271 1253.87 49.9314 Q1253.87 58.2358 1257.88 62.8538 Q1261.89 67.4314 1269.15 67.4314 Q1272.39 67.4314 1275.55 66.5807 Q1278.75 65.6895 1281.91 63.9476 L1281.91 70.8341 Q1278.79 72.2924 1275.42 73.0216 Q1272.1 73.7508 1268.34 73.7508 Q1258.09 73.7508 1252.05 67.3098 Q1246.02 60.8689 1246.02 49.9314 Q1246.02 38.832 1252.09 32.472 Q1258.21 26.1121 1268.82 26.1121 Q1272.27 26.1121 1275.55 26.8413 Q1278.83 27.5299 1281.91 28.9478 Z" fill="#000000" fill-rule="nonzero" fill-opacity="1" /><path clip-path="url(#clip960)" d="M1321.56 12.096 L1332.58 12.096 L1359.4 62.6918 L1359.4 12.096 L1367.34 12.096 L1367.34 72.576 L1356.32 72.576 L1329.5 21.9802 L1329.5 72.576 L1321.56 72.576 L1321.56 12.096 Z" fill="#000000" fill-rule="nonzero" fill-opacity="1" /><path clip-path="url(#clip960)" d="M1422.11 48.0275 L1422.11 51.6733 L1387.84 51.6733 Q1388.32 59.3701 1392.46 63.421 Q1396.63 67.4314 1404.04 67.4314 Q1408.34 67.4314 1412.35 66.3781 Q1416.4 65.3249 1420.37 63.2184 L1420.37 70.267 Q1416.36 71.9684 1412.14 72.8596 Q1407.93 73.7508 1403.6 73.7508 Q1392.74 73.7508 1386.38 67.4314 Q1380.06 61.1119 1380.06 50.3365 Q1380.06 39.1965 1386.06 32.6746 Q1392.09 26.1121 1402.3 26.1121 Q1411.45 26.1121 1416.76 32.0264 Q1422.11 37.9003 1422.11 48.0275 M1414.65 45.84 Q1414.57 39.7232 1411.21 36.0774 Q1407.89 32.4315 1402.38 32.4315 Q1396.14 32.4315 1392.37 35.9558 Q1388.65 39.4801 1388.08 45.8805 L1414.65 45.84 Z" fill="#000000" fill-rule="nonzero" fill-opacity="1" /><path clip-path="url(#clip960)" d="M1441.71 14.324 L1441.71 27.2059 L1457.07 27.2059 L1457.07 32.9987 L1441.71 32.9987 L1441.71 57.6282 Q1441.71 63.1779 1443.21 64.7578 Q1444.75 66.3376 1449.41 66.3376 L1457.07 66.3376 L1457.07 72.576 L1449.41 72.576 Q1440.78 72.576 1437.5 69.3758 Q1434.22 66.1351 1434.22 57.6282 L1434.22 32.9987 L1428.75 32.9987 L1428.75 27.2059 L1434.22 27.2059 L1434.22 14.324 L1441.71 14.324 Z" fill="#000000" fill-rule="nonzero" fill-opacity="1" /><path clip-path="url(#clip960)" d="M1462.54 27.2059 L1469.99 27.2059 L1479.31 62.6108 L1488.58 27.2059 L1497.37 27.2059 L1506.69 62.6108 L1515.97 27.2059 L1523.42 27.2059 L1511.55 72.576 L1502.76 72.576 L1493 35.3887 L1483.2 72.576 L1474.41 72.576 L1462.54 27.2059 Z" fill="#000000" fill-rule="nonzero" fill-opacity="1" /><path clip-path="url(#clip960)" d="M1552.3 32.4315 Q1546.31 32.4315 1542.83 37.1306 Q1539.34 41.7891 1539.34 49.9314 Q1539.34 58.0738 1542.78 62.7728 Q1546.27 67.4314 1552.3 67.4314 Q1558.26 67.4314 1561.74 62.7323 Q1565.23 58.0333 1565.23 49.9314 Q1565.23 41.8701 1561.74 37.1711 Q1558.26 32.4315 1552.3 32.4315 M1552.3 26.1121 Q1562.03 26.1121 1567.58 32.4315 Q1573.13 38.7509 1573.13 49.9314 Q1573.13 61.0714 1567.58 67.4314 Q1562.03 73.7508 1552.3 73.7508 Q1542.54 73.7508 1536.99 67.4314 Q1531.48 61.0714 1531.48 49.9314 Q1531.48 38.7509 1536.99 32.4315 Q1542.54 26.1121 1552.3 26.1121 Z" fill="#000000" fill-rule="nonzero" fill-opacity="1" /><path clip-path="url(#clip960)" d="M1611.77 34.1734 Q1610.52 33.4443 1609.02 33.1202 Q1607.56 32.7556 1605.78 32.7556 Q1599.46 32.7556 1596.05 36.8875 Q1592.69 40.9789 1592.69 48.6757 L1592.69 72.576 L1585.2 72.576 L1585.2 27.2059 L1592.69 27.2059 L1592.69 34.2544 Q1595.04 30.1225 1598.81 28.1376 Q1602.58 26.1121 1607.96 26.1121 Q1608.73 26.1121 1609.66 26.2337 Q1610.6 26.3147 1611.73 26.5172 L1611.77 34.1734 Z" fill="#000000" fill-rule="nonzero" fill-opacity="1" /><path clip-path="url(#clip960)" d="M1619.31 9.54393 L1626.8 9.54393 L1626.8 46.7717 L1649.04 27.2059 L1658.56 27.2059 L1634.5 48.4326 L1659.57 72.576 L1649.85 72.576 L1626.8 50.4176 L1626.8 72.576 L1619.31 72.576 L1619.31 9.54393 Z" fill="#000000" fill-rule="nonzero" fill-opacity="1" /><path clip-path="url(#clip960)" d="M1689.67 27.2059 L1697.12 27.2059 L1706.44 62.6108 L1715.72 27.2059 L1724.51 27.2059 L1733.83 62.6108 L1743.1 27.2059 L1750.56 27.2059 L1738.69 72.576 L1729.9 72.576 L1720.13 35.3887 L1710.33 72.576 L1701.54 72.576 L1689.67 27.2059 Z" fill="#000000" fill-rule="nonzero" fill-opacity="1" /><path clip-path="url(#clip960)" d="M1761.86 27.2059 L1769.31 27.2059 L1769.31 72.576 L1761.86 72.576 L1761.86 27.2059 M1761.86 9.54393 L1769.31 9.54393 L1769.31 18.9825 L1761.86 18.9825 L1761.86 9.54393 Z" fill="#000000" fill-rule="nonzero" fill-opacity="1" /><path clip-path="url(#clip960)" d="M1792.28 14.324 L1792.28 27.2059 L1807.63 27.2059 L1807.63 32.9987 L1792.28 32.9987 L1792.28 57.6282 Q1792.28 63.1779 1793.78 64.7578 Q1795.32 66.3376 1799.98 66.3376 L1807.63 66.3376 L1807.63 72.576 L1799.98 72.576 Q1791.35 72.576 1788.07 69.3758 Q1784.79 66.1351 1784.79 57.6282 L1784.79 32.9987 L1779.32 32.9987 L1779.32 27.2059 L1784.79 27.2059 L1784.79 14.324 L1792.28 14.324 Z" fill="#000000" fill-rule="nonzero" fill-opacity="1" /><path clip-path="url(#clip960)" d="M1855.15 45.1919 L1855.15 72.576 L1847.7 72.576 L1847.7 45.4349 Q1847.7 38.994 1845.18 35.7938 Q1842.67 32.5936 1837.65 32.5936 Q1831.61 32.5936 1828.13 36.4419 Q1824.65 40.2903 1824.65 46.9338 L1824.65 72.576 L1817.15 72.576 L1817.15 9.54393 L1824.65 9.54393 L1824.65 34.2544 Q1827.32 30.163 1830.93 28.1376 Q1834.57 26.1121 1839.31 26.1121 Q1847.13 26.1121 1851.14 30.9732 Q1855.15 35.7938 1855.15 45.1919 Z" fill="#000000" fill-rule="nonzero" fill-opacity="1" /><path clip-path="url(#clip960)" d="M1896.71 12.096 L1931.47 12.096 L1931.47 18.9825 L1904.89 18.9825 L1904.89 36.8065 L1928.88 36.8065 L1928.88 43.6931 L1904.89 43.6931 L1904.89 72.576 L1896.71 72.576 L1896.71 12.096 Z" fill="#000000" fill-rule="nonzero" fill-opacity="1" /><path clip-path="url(#clip960)" d="M1944.11 9.54393 L1951.56 9.54393 L1951.56 72.576 L1944.11 72.576 L1944.11 9.54393 Z" fill="#000000" fill-rule="nonzero" fill-opacity="1" /><path clip-path="url(#clip960)" d="M1984.74 32.4315 Q1978.74 32.4315 1975.26 37.1306 Q1971.78 41.7891 1971.78 49.9314 Q1971.78 58.0738 1975.22 62.7728 Q1978.7 67.4314 1984.74 67.4314 Q1990.69 67.4314 1994.18 62.7323 Q1997.66 58.0333 1997.66 49.9314 Q1997.66 41.8701 1994.18 37.1711 Q1990.69 32.4315 1984.74 32.4315 M1984.74 26.1121 Q1994.46 26.1121 2000.01 32.4315 Q2005.56 38.7509 2005.56 49.9314 Q2005.56 61.0714 2000.01 67.4314 Q1994.46 73.7508 1984.74 73.7508 Q1974.98 73.7508 1969.43 67.4314 Q1963.92 61.0714 1963.92 49.9314 Q1963.92 38.7509 1969.43 32.4315 Q1974.98 26.1121 1984.74 26.1121 Z" fill="#000000" fill-rule="nonzero" fill-opacity="1" /><path clip-path="url(#clip960)" d="M2013.58 27.2059 L2021.03 27.2059 L2030.35 62.6108 L2039.63 27.2059 L2048.42 27.2059 L2057.74 62.6108 L2067.01 27.2059 L2074.47 27.2059 L2062.6 72.576 L2053.81 72.576 L2044.04 35.3887 L2034.24 72.576 L2025.45 72.576 L2013.58 27.2059 Z" fill="#000000" fill-rule="nonzero" fill-opacity="1" /><path clip-path="url(#clip960)" d="M2114.69 28.5427 L2114.69 35.5912 Q2111.53 33.9709 2108.13 33.1607 Q2104.73 32.3505 2101.08 32.3505 Q2095.53 32.3505 2092.74 34.0519 Q2089.98 35.7533 2089.98 39.156 Q2089.98 41.7486 2091.97 43.2475 Q2093.95 44.7058 2099.95 46.0426 L2102.5 46.6097 Q2110.44 48.3111 2113.76 51.4303 Q2117.12 54.509 2117.12 60.0587 Q2117.12 66.3781 2112.1 70.0644 Q2107.12 73.7508 2098.37 73.7508 Q2094.72 73.7508 2090.75 73.0216 Q2086.82 72.3329 2082.45 70.9151 L2082.45 63.2184 Q2086.58 65.3654 2090.59 66.4591 Q2094.6 67.5124 2098.53 67.5124 Q2103.79 67.5124 2106.63 65.73 Q2109.47 63.9071 2109.47 60.6258 Q2109.47 57.5877 2107.4 55.9673 Q2105.37 54.3469 2098.45 52.8481 L2095.85 52.2405 Q2088.93 50.7821 2085.85 47.7845 Q2082.77 44.7463 2082.77 39.4801 Q2082.77 33.0797 2087.31 29.5959 Q2091.84 26.1121 2100.19 26.1121 Q2104.32 26.1121 2107.97 26.7198 Q2111.61 27.3274 2114.69 28.5427 Z" fill="#000000" fill-rule="nonzero" fill-opacity="1" /><polyline clip-path="url(#clip962)" style="stroke:#8675d9; stroke-linecap:round; stroke-linejoin:round; stroke-width:15.3981; stroke-opacity:0.6; fill:none" points="2254.14,817.212 858.893,438.59 "/>
<polyline clip-path="url(#clip962)" style="stroke:#8675d9; stroke-linecap:round; stroke-linejoin:round; stroke-width:15.3981; stroke-opacity:0.6; fill:none" points="888.923,465.39 858.893,438.59 898.351,430.647 "/>
<polyline clip-path="url(#clip962)" style="stroke:#8675d9; stroke-linecap:round; stroke-linejoin:round; stroke-width:15.3981; stroke-opacity:0.6; fill:none" points="858.893,438.59 2254.14,817.212 "/>
<polyline clip-path="url(#clip962)" style="stroke:#2c4bfe; stroke-linecap:round; stroke-linejoin:round; stroke-width:8.43021; stroke-opacity:0.6; fill:none" points="2249.38,829.465 854.126,450.843 "/>
<polyline clip-path="url(#clip962)" style="stroke:#2c4bfe; stroke-linecap:round; stroke-linejoin:round; stroke-width:8.43021; stroke-opacity:0.6; fill:none" points="884.156,477.643 854.126,450.843 893.584,442.899 "/>
<polyline clip-path="url(#clip962)" style="stroke:#2c4bfe; stroke-linecap:round; stroke-linejoin:round; stroke-width:8.43021; stroke-opacity:0.6; fill:none" points="854.126,450.843 2249.38,829.465 "/>
<polyline clip-path="url(#clip962)" style="stroke:#5abac1; stroke-linecap:round; stroke-linejoin:round; stroke-width:8.29178; stroke-opacity:0.6; fill:none" points="2244.61,841.717 849.36,463.095 "/>
<polyline clip-path="url(#clip962)" style="stroke:#5abac1; stroke-linecap:round; stroke-linejoin:round; stroke-width:8.29178; stroke-opacity:0.6; fill:none" points="879.389,489.895 849.36,463.095 888.817,455.152 "/>
<polyline clip-path="url(#clip962)" style="stroke:#5abac1; stroke-linecap:round; stroke-linejoin:round; stroke-width:8.29178; stroke-opacity:0.6; fill:none" points="849.36,463.095 2244.61,841.717 "/>
<polyline clip-path="url(#clip962)" style="stroke:#9d4751; stroke-linecap:round; stroke-linejoin:round; stroke-width:8.17933; stroke-opacity:0.6; fill:none" points="2239.84,853.97 844.593,475.348 "/>
<polyline clip-path="url(#clip962)" style="stroke:#9d4751; stroke-linecap:round; stroke-linejoin:round; stroke-width:8.17933; stroke-opacity:0.6; fill:none" points="874.622,502.148 844.593,475.348 884.05,467.404 "/>
<polyline clip-path="url(#clip962)" style="stroke:#9d4751; stroke-linecap:round; stroke-linejoin:round; stroke-width:8.17933; stroke-opacity:0.6; fill:none" points="844.593,475.348 2239.84,853.97 "/>
<polyline clip-path="url(#clip962)" style="stroke:#8675d9; stroke-linecap:round; stroke-linejoin:round; stroke-width:8.60188; stroke-opacity:0.6; fill:none" points="2263.68,817.212 868.427,1195.83 "/>
<polyline clip-path="url(#clip962)" style="stroke:#8675d9; stroke-linecap:round; stroke-linejoin:round; stroke-width:8.60188; stroke-opacity:0.6; fill:none" points="907.884,1203.78 868.427,1195.83 898.456,1169.03 "/>
<polyline clip-path="url(#clip962)" style="stroke:#8675d9; stroke-linecap:round; stroke-linejoin:round; stroke-width:8.60188; stroke-opacity:0.6; fill:none" points="868.427,1195.83 2263.68,817.212 "/>
<polyline clip-path="url(#clip962)" style="stroke:#5abac1; stroke-linecap:round; stroke-linejoin:round; stroke-width:8.11811; stroke-opacity:0.6; fill:none" points="2273.21,841.717 877.96,1220.34 "/>
<polyline clip-path="url(#clip962)" style="stroke:#5abac1; stroke-linecap:round; stroke-linejoin:round; stroke-width:8.11811; stroke-opacity:0.6; fill:none" points="917.418,1228.28 877.96,1220.34 907.99,1193.54 "/>
<polyline clip-path="url(#clip962)" style="stroke:#5abac1; stroke-linecap:round; stroke-linejoin:round; stroke-width:8.11811; stroke-opacity:0.6; fill:none" points="877.96,1220.34 2273.21,841.717 "/>
<polyline clip-path="url(#clip962)" style="stroke:#9d4751; stroke-linecap:round; stroke-linejoin:round; stroke-width:8.66056; stroke-opacity:0.6; fill:none" points="2308.83,835.25 1775.89,1447.87 "/>
<polyline clip-path="url(#clip962)" style="stroke:#9d4751; stroke-linecap:round; stroke-linejoin:round; stroke-width:8.66056; stroke-opacity:0.6; fill:none" points="1813.1,1432.53 1775.89,1447.87 1785.94,1408.9 "/>
<polyline clip-path="url(#clip962)" style="stroke:#9d4751; stroke-linecap:round; stroke-linejoin:round; stroke-width:8.66056; stroke-opacity:0.6; fill:none" points="1775.89,1447.87 2308.83,835.25 "/>
<polyline clip-path="url(#clip962)" style="stroke:#2c4bfe; stroke-linecap:round; stroke-linejoin:round; stroke-width:8.43021; stroke-opacity:0.6; fill:none" points="1750.93,177.192 2283.87,789.815 "/>
<polyline clip-path="url(#clip962)" style="stroke:#2c4bfe; stroke-linecap:round; stroke-linejoin:round; stroke-width:8.43021; stroke-opacity:0.6; fill:none" points="2273.82,750.84 2283.87,789.815 2246.66,774.468 "/>
<polyline clip-path="url(#clip962)" style="stroke:#2c4bfe; stroke-linecap:round; stroke-linejoin:round; stroke-width:8.43021; stroke-opacity:0.6; fill:none" points="2283.87,789.815 1750.93,177.192 "/>
<polyline clip-path="url(#clip962)" style="stroke:#5abac1; stroke-linecap:round; stroke-linejoin:round; stroke-width:8.4099; stroke-opacity:0.6; fill:none" points="1763.41,169.619 2296.35,782.243 "/>
<polyline clip-path="url(#clip962)" style="stroke:#5abac1; stroke-linecap:round; stroke-linejoin:round; stroke-width:8.4099; stroke-opacity:0.6; fill:none" points="2286.3,743.268 2296.35,782.243 2259.14,766.896 "/>
<polyline clip-path="url(#clip962)" style="stroke:#5abac1; stroke-linecap:round; stroke-linejoin:round; stroke-width:8.4099; stroke-opacity:0.6; fill:none" points="2296.35,782.243 1763.41,169.619 "/>
<polyline clip-path="url(#clip962)" style="stroke:#9d4751; stroke-linecap:round; stroke-linejoin:round; stroke-width:8.83989; stroke-opacity:0.6; fill:none" points="1775.89,162.047 2308.83,774.67 "/>
<polyline clip-path="url(#clip962)" style="stroke:#9d4751; stroke-linecap:round; stroke-linejoin:round; stroke-width:8.83989; stroke-opacity:0.6; fill:none" points="2298.78,735.695 2308.83,774.67 2271.62,759.323 "/>
<polyline clip-path="url(#clip962)" style="stroke:#9d4751; stroke-linecap:round; stroke-linejoin:round; stroke-width:8.83989; stroke-opacity:0.6; fill:none" points="2308.83,774.67 1775.89,162.047 "/>
<polyline clip-path="url(#clip962)" style="stroke:#2c4bfe; stroke-linecap:round; stroke-linejoin:round; stroke-width:15.5698; stroke-opacity:0.6; fill:none" points="1735.51,216.842 873.193,450.843 "/>
<polyline clip-path="url(#clip962)" style="stroke:#2c4bfe; stroke-linecap:round; stroke-linejoin:round; stroke-width:15.5698; stroke-opacity:0.6; fill:none" points="912.651,458.786 873.193,450.843 903.223,424.043 "/>
<polyline clip-path="url(#clip962)" style="stroke:#2c4bfe; stroke-linecap:round; stroke-linejoin:round; stroke-width:15.5698; stroke-opacity:0.6; fill:none" points="873.193,450.843 1735.51,216.842 "/>
<polyline clip-path="url(#clip962)" style="stroke:#5abac1; stroke-linecap:round; stroke-linejoin:round; stroke-width:8.3901; stroke-opacity:0.6; fill:none" points="1740.27,229.094 877.96,463.095 "/>
<polyline clip-path="url(#clip962)" style="stroke:#5abac1; stroke-linecap:round; stroke-linejoin:round; stroke-width:8.3901; stroke-opacity:0.6; fill:none" points="917.418,471.039 877.96,463.095 907.99,436.295 "/>
<polyline clip-path="url(#clip962)" style="stroke:#5abac1; stroke-linecap:round; stroke-linejoin:round; stroke-width:8.3901; stroke-opacity:0.6; fill:none" points="877.96,463.095 1740.27,229.094 "/>
<polyline clip-path="url(#clip962)" style="stroke:#9d4751; stroke-linecap:round; stroke-linejoin:round; stroke-width:8.52011; stroke-opacity:0.6; fill:none" points="1745.04,241.347 882.727,475.348 "/>
<polyline clip-path="url(#clip962)" style="stroke:#9d4751; stroke-linecap:round; stroke-linejoin:round; stroke-width:8.52011; stroke-opacity:0.6; fill:none" points="922.184,483.291 882.727,475.348 912.756,448.548 "/>
<polyline clip-path="url(#clip962)" style="stroke:#9d4751; stroke-linecap:round; stroke-linejoin:round; stroke-width:8.52011; stroke-opacity:0.6; fill:none" points="882.727,475.348 1745.04,241.347 "/>
<polyline clip-path="url(#clip962)" style="stroke:#5abac1; stroke-linecap:round; stroke-linejoin:round; stroke-width:15.2; stroke-opacity:0.6; fill:none" points="1763.41,215.054 901.098,1206.3 "/>
<polyline clip-path="url(#clip962)" style="stroke:#5abac1; stroke-linecap:round; stroke-linejoin:round; stroke-width:15.2; stroke-opacity:0.6; fill:none" points="938.307,1190.95 901.098,1206.3 911.146,1167.32 "/>
<polyline clip-path="url(#clip962)" style="stroke:#5abac1; stroke-linecap:round; stroke-linejoin:round; stroke-width:15.2; stroke-opacity:0.6; fill:none" points="901.098,1206.3 1763.41,215.054 "/>
<polyline clip-path="url(#clip962)" style="stroke:#9d4751; stroke-linecap:round; stroke-linejoin:round; stroke-width:14.64; stroke-opacity:0.6; fill:none" points="1787.67,192.337 1787.67,1417.58 "/>
<polyline clip-path="url(#clip962)" style="stroke:#9d4751; stroke-linecap:round; stroke-linejoin:round; stroke-width:14.64; stroke-opacity:0.6; fill:none" points="1805.67,1381.58 1787.67,1417.58 1769.67,1381.58 "/>
<polyline clip-path="url(#clip962)" style="stroke:#9d4751; stroke-linecap:round; stroke-linejoin:round; stroke-width:14.64; stroke-opacity:0.6; fill:none" points="1787.67,1417.58 1787.67,192.337 "/>
<polyline clip-path="url(#clip962)" style="stroke:#8675d9; stroke-linecap:round; stroke-linejoin:round; stroke-width:15.3981; stroke-opacity:0.6; fill:none" points="879.085,426.338 879.085,1183.58 "/>
<polyline clip-path="url(#clip962)" style="stroke:#8675d9; stroke-linecap:round; stroke-linejoin:round; stroke-width:15.3981; stroke-opacity:0.6; fill:none" points="897.085,1147.58 879.085,1183.58 861.085,1147.58 "/>
<polyline clip-path="url(#clip962)" style="stroke:#8675d9; stroke-linecap:round; stroke-linejoin:round; stroke-width:15.3981; stroke-opacity:0.6; fill:none" points="879.085,1183.58 879.085,426.338 "/>
<polyline clip-path="url(#clip962)" style="stroke:#5abac1; stroke-linecap:round; stroke-linejoin:round; stroke-width:8.68189; stroke-opacity:0.6; fill:none" points="909.936,426.338 909.936,1183.58 "/>
<polyline clip-path="url(#clip962)" style="stroke:#5abac1; stroke-linecap:round; stroke-linejoin:round; stroke-width:8.68189; stroke-opacity:0.6; fill:none" points="927.936,1147.58 909.936,1183.58 891.936,1147.58 "/>
<polyline clip-path="url(#clip962)" style="stroke:#5abac1; stroke-linecap:round; stroke-linejoin:round; stroke-width:8.68189; stroke-opacity:0.6; fill:none" points="909.936,1183.58 909.936,426.338 "/>
<polyline clip-path="url(#clip962)" style="stroke:#9d4751; stroke-linecap:round; stroke-linejoin:round; stroke-width:8.69944; stroke-opacity:0.6; fill:none" points="913.578,396.048 1775.89,1387.29 "/>
<polyline clip-path="url(#clip962)" style="stroke:#9d4751; stroke-linecap:round; stroke-linejoin:round; stroke-width:8.69944; stroke-opacity:0.6; fill:none" points="1765.84,1348.32 1775.89,1387.29 1738.68,1371.95 "/>
<polyline clip-path="url(#clip962)" style="stroke:#9d4751; stroke-linecap:round; stroke-linejoin:round; stroke-width:8.69944; stroke-opacity:0.6; fill:none" points="1775.89,1387.29 913.578,396.048 "/>
<circle clip-path="url(#clip962)" cx="2258.91" cy="804.96" r="14.4" fill="#3da44d" fill-rule="evenodd" fill-opacity="1" stroke="#000000" stroke-opacity="1" stroke-width="3.2"/>
<circle clip-path="url(#clip962)" cx="1725.97" cy="192.337" r="14.4" fill="#3da44d" fill-rule="evenodd" fill-opacity="1" stroke="#000000" stroke-opacity="1" stroke-width="3.2"/>
<circle clip-path="url(#clip962)" cx="863.66" cy="426.338" r="14.4" fill="#3da44d" fill-rule="evenodd" fill-opacity="1" stroke="#000000" stroke-opacity="1" stroke-width="3.2"/>
<circle clip-path="url(#clip962)" cx="863.66" cy="1183.58" r="14.4" fill="#3da44d" fill-rule="evenodd" fill-opacity="1" stroke="#000000" stroke-opacity="1" stroke-width="3.2"/>
<circle clip-path="url(#clip962)" cx="1725.97" cy="1417.58" r="14.4" fill="#3da44d" fill-rule="evenodd" fill-opacity="1" stroke="#000000" stroke-opacity="1" stroke-width="3.2"/>
<path clip-path="url(#clip960)" d="M193.936 479.945 L621.761 479.945 L621.761 168.905 L193.936 168.905  Z" fill="#ffffff" fill-rule="evenodd" fill-opacity="1"/>
<polyline clip-path="url(#clip960)" style="stroke:#000000; stroke-linecap:round; stroke-linejoin:round; stroke-width:4; stroke-opacity:1; fill:none" points="193.936,479.945 621.761,479.945 621.761,168.905 193.936,168.905 193.936,479.945 "/>
<circle clip-path="url(#clip960)" cx="289.884" cy="220.745" r="20.48" fill="#3da44d" fill-rule="evenodd" fill-opacity="1" stroke="#000000" stroke-opacity="1" stroke-width="4.55111"/>
<path clip-path="url(#clip960)" d="M385.831 203.465 L392.127 203.465 L407.451 232.377 L407.451 203.465 L411.988 203.465 L411.988 238.025 L405.692 238.025 L390.368 209.113 L390.368 238.025 L385.831 238.025 L385.831 203.465 Z" fill="#000000" fill-rule="nonzero" fill-opacity="1" /><path clip-path="url(#clip960)" d="M431.155 215.085 Q427.729 215.085 425.738 217.77 Q423.748 220.432 423.748 225.085 Q423.748 229.738 425.715 232.423 Q427.706 235.085 431.155 235.085 Q434.558 235.085 436.548 232.4 Q438.539 229.715 438.539 225.085 Q438.539 220.478 436.548 217.793 Q434.558 215.085 431.155 215.085 M431.155 211.474 Q436.71 211.474 439.882 215.085 Q443.053 218.696 443.053 225.085 Q443.053 231.451 439.882 235.085 Q436.71 238.696 431.155 238.696 Q425.576 238.696 422.405 235.085 Q419.257 231.451 419.257 225.085 Q419.257 218.696 422.405 215.085 Q425.576 211.474 431.155 211.474 Z" fill="#000000" fill-rule="nonzero" fill-opacity="1" /><path clip-path="url(#clip960)" d="M467.173 216.034 L467.173 202.006 L471.432 202.006 L471.432 238.025 L467.173 238.025 L467.173 234.136 Q465.831 236.451 463.77 237.585 Q461.733 238.696 458.863 238.696 Q454.164 238.696 451.201 234.946 Q448.261 231.196 448.261 225.085 Q448.261 218.974 451.201 215.224 Q454.164 211.474 458.863 211.474 Q461.733 211.474 463.77 212.608 Q465.831 213.719 467.173 216.034 M452.659 225.085 Q452.659 229.784 454.581 232.469 Q456.525 235.131 459.905 235.131 Q463.284 235.131 465.229 232.469 Q467.173 229.784 467.173 225.085 Q467.173 220.386 465.229 217.724 Q463.284 215.039 459.905 215.039 Q456.525 215.039 454.581 217.724 Q452.659 220.386 452.659 225.085 Z" fill="#000000" fill-rule="nonzero" fill-opacity="1" /><path clip-path="url(#clip960)" d="M502.381 223.997 L502.381 226.08 L482.798 226.08 Q483.076 230.478 485.437 232.793 Q487.821 235.085 492.057 235.085 Q494.511 235.085 496.803 234.483 Q499.118 233.881 501.386 232.677 L501.386 236.705 Q499.094 237.677 496.687 238.187 Q494.28 238.696 491.803 238.696 Q485.599 238.696 481.965 235.085 Q478.354 231.474 478.354 225.316 Q478.354 218.951 481.78 215.224 Q485.229 211.474 491.062 211.474 Q496.293 211.474 499.326 214.853 Q502.381 218.21 502.381 223.997 M498.122 222.747 Q498.076 219.252 496.155 217.168 Q494.256 215.085 491.108 215.085 Q487.544 215.085 485.391 217.099 Q483.261 219.113 482.937 222.77 L498.122 222.747 Z" fill="#000000" fill-rule="nonzero" fill-opacity="1" /><path clip-path="url(#clip960)" d="M525.9 212.863 L525.9 216.891 Q524.094 215.965 522.15 215.502 Q520.205 215.039 518.122 215.039 Q514.951 215.039 513.354 216.011 Q511.779 216.983 511.779 218.928 Q511.779 220.409 512.914 221.265 Q514.048 222.099 517.474 222.863 L518.932 223.187 Q523.469 224.159 525.367 225.941 Q527.289 227.701 527.289 230.872 Q527.289 234.483 524.418 236.589 Q521.571 238.696 516.571 238.696 Q514.488 238.696 512.219 238.279 Q509.974 237.886 507.474 237.076 L507.474 232.677 Q509.835 233.904 512.127 234.529 Q514.418 235.131 516.664 235.131 Q519.673 235.131 521.293 234.113 Q522.914 233.071 522.914 231.196 Q522.914 229.46 521.733 228.534 Q520.576 227.608 516.617 226.752 L515.136 226.404 Q511.178 225.571 509.418 223.858 Q507.659 222.122 507.659 219.113 Q507.659 215.455 510.252 213.465 Q512.844 211.474 517.613 211.474 Q519.974 211.474 522.057 211.821 Q524.141 212.168 525.9 212.863 Z" fill="#000000" fill-rule="nonzero" fill-opacity="1" /><polyline clip-path="url(#clip960)" style="stroke:#8675d9; stroke-linecap:round; stroke-linejoin:round; stroke-width:4; stroke-opacity:1; fill:none" points="217.923,272.585 361.844,272.585 "/>
<path clip-path="url(#clip960)" d="M390.507 259.147 L390.507 272.133 L396.387 272.133 Q399.65 272.133 401.433 270.443 Q403.215 268.754 403.215 265.629 Q403.215 262.527 401.433 260.837 Q399.65 259.147 396.387 259.147 L390.507 259.147 M385.831 255.305 L396.387 255.305 Q402.197 255.305 405.16 257.944 Q408.146 260.559 408.146 265.629 Q408.146 270.744 405.16 273.36 Q402.197 275.976 396.387 275.976 L390.507 275.976 L390.507 289.865 L385.831 289.865 L385.831 255.305 Z" fill="#000000" fill-rule="nonzero" fill-opacity="1" /><path clip-path="url(#clip960)" d="M423.886 276.832 Q418.724 276.832 416.734 278.013 Q414.743 279.193 414.743 282.041 Q414.743 284.309 416.224 285.652 Q417.729 286.971 420.299 286.971 Q423.84 286.971 425.97 284.471 Q428.123 281.948 428.123 277.781 L428.123 276.832 L423.886 276.832 M432.382 275.073 L432.382 289.865 L428.123 289.865 L428.123 285.929 Q426.664 288.291 424.488 289.425 Q422.312 290.536 419.164 290.536 Q415.183 290.536 412.822 288.314 Q410.484 286.068 410.484 282.318 Q410.484 277.943 413.4 275.721 Q416.34 273.499 422.15 273.499 L428.123 273.499 L428.123 273.082 Q428.123 270.143 426.178 268.545 Q424.257 266.925 420.761 266.925 Q418.539 266.925 416.433 267.457 Q414.326 267.99 412.382 269.055 L412.382 265.119 Q414.72 264.217 416.919 263.777 Q419.118 263.314 421.201 263.314 Q426.826 263.314 429.604 266.231 Q432.382 269.147 432.382 275.073 Z" fill="#000000" fill-rule="nonzero" fill-opacity="1" /><path clip-path="url(#clip960)" d="M445.368 256.578 L445.368 263.939 L454.141 263.939 L454.141 267.249 L445.368 267.249 L445.368 281.323 Q445.368 284.494 446.224 285.397 Q447.104 286.3 449.766 286.3 L454.141 286.3 L454.141 289.865 L449.766 289.865 Q444.835 289.865 442.96 288.036 Q441.085 286.184 441.085 281.323 L441.085 267.249 L437.96 267.249 L437.96 263.939 L441.085 263.939 L441.085 256.578 L445.368 256.578 Z" fill="#000000" fill-rule="nonzero" fill-opacity="1" /><path clip-path="url(#clip960)" d="M481.294 274.217 L481.294 289.865 L477.034 289.865 L477.034 274.355 Q477.034 270.675 475.599 268.846 Q474.164 267.018 471.294 267.018 Q467.845 267.018 465.854 269.217 Q463.863 271.416 463.863 275.212 L463.863 289.865 L459.581 289.865 L459.581 253.846 L463.863 253.846 L463.863 267.967 Q465.391 265.629 467.451 264.471 Q469.534 263.314 472.243 263.314 Q476.71 263.314 479.002 266.092 Q481.294 268.846 481.294 274.217 Z" fill="#000000" fill-rule="nonzero" fill-opacity="1" /><path clip-path="url(#clip960)" d="M506.27 285.929 L513.909 285.929 L513.909 259.564 L505.599 261.231 L505.599 256.971 L513.863 255.305 L518.539 255.305 L518.539 285.929 L526.178 285.929 L526.178 289.865 L506.27 289.865 L506.27 285.929 Z" fill="#000000" fill-rule="nonzero" fill-opacity="1" /><path clip-path="url(#clip960)" d="M567.96 273.962 L567.96 276.045 L558.863 285.142 L556.085 282.365 L561.478 276.971 L533.261 276.971 L533.261 273.036 L561.478 273.036 L556.085 267.643 L558.863 264.865 L567.96 273.962 Z" fill="#000000" fill-rule="nonzero" fill-opacity="1" /><path clip-path="url(#clip960)" d="M588.191 259.379 L576.386 277.828 L588.191 277.828 L588.191 259.379 M586.964 255.305 L592.844 255.305 L592.844 277.828 L597.774 277.828 L597.774 281.717 L592.844 281.717 L592.844 289.865 L588.191 289.865 L588.191 281.717 L572.589 281.717 L572.589 277.203 L586.964 255.305 Z" fill="#000000" fill-rule="nonzero" fill-opacity="1" /><polyline clip-path="url(#clip960)" style="stroke:#2c4bfe; stroke-linecap:round; stroke-linejoin:round; stroke-width:4; stroke-opacity:1; fill:none" points="217.923,324.425 361.844,324.425 "/>
<path clip-path="url(#clip960)" d="M390.507 310.987 L390.507 323.973 L396.387 323.973 Q399.65 323.973 401.433 322.283 Q403.215 320.594 403.215 317.469 Q403.215 314.367 401.433 312.677 Q399.65 310.987 396.387 310.987 L390.507 310.987 M385.831 307.145 L396.387 307.145 Q402.197 307.145 405.16 309.784 Q408.146 312.399 408.146 317.469 Q408.146 322.584 405.16 325.2 Q402.197 327.816 396.387 327.816 L390.507 327.816 L390.507 341.705 L385.831 341.705 L385.831 307.145 Z" fill="#000000" fill-rule="nonzero" fill-opacity="1" /><path clip-path="url(#clip960)" d="M423.886 328.672 Q418.724 328.672 416.734 329.853 Q414.743 331.033 414.743 333.881 Q414.743 336.149 416.224 337.492 Q417.729 338.811 420.299 338.811 Q423.84 338.811 425.97 336.311 Q428.123 333.788 428.123 329.621 L428.123 328.672 L423.886 328.672 M432.382 326.913 L432.382 341.705 L428.123 341.705 L428.123 337.769 Q426.664 340.131 424.488 341.265 Q422.312 342.376 419.164 342.376 Q415.183 342.376 412.822 340.154 Q410.484 337.908 410.484 334.158 Q410.484 329.783 413.4 327.561 Q416.34 325.339 422.15 325.339 L428.123 325.339 L428.123 324.922 Q428.123 321.983 426.178 320.385 Q424.257 318.765 420.761 318.765 Q418.539 318.765 416.433 319.297 Q414.326 319.83 412.382 320.895 L412.382 316.959 Q414.72 316.057 416.919 315.617 Q419.118 315.154 421.201 315.154 Q426.826 315.154 429.604 318.071 Q432.382 320.987 432.382 326.913 Z" fill="#000000" fill-rule="nonzero" fill-opacity="1" /><path clip-path="url(#clip960)" d="M445.368 308.418 L445.368 315.779 L454.141 315.779 L454.141 319.089 L445.368 319.089 L445.368 333.163 Q445.368 336.334 446.224 337.237 Q447.104 338.14 449.766 338.14 L454.141 338.14 L454.141 341.705 L449.766 341.705 Q444.835 341.705 442.96 339.876 Q441.085 338.024 441.085 333.163 L441.085 319.089 L437.96 319.089 L437.96 315.779 L441.085 315.779 L441.085 308.418 L445.368 308.418 Z" fill="#000000" fill-rule="nonzero" fill-opacity="1" /><path clip-path="url(#clip960)" d="M481.294 326.057 L481.294 341.705 L477.034 341.705 L477.034 326.195 Q477.034 322.515 475.599 320.686 Q474.164 318.858 471.294 318.858 Q467.845 318.858 465.854 321.057 Q463.863 323.256 463.863 327.052 L463.863 341.705 L459.581 341.705 L459.581 305.686 L463.863 305.686 L463.863 319.807 Q465.391 317.469 467.451 316.311 Q469.534 315.154 472.243 315.154 Q476.71 315.154 479.002 317.932 Q481.294 320.686 481.294 326.057 Z" fill="#000000" fill-rule="nonzero" fill-opacity="1" /><path clip-path="url(#clip960)" d="M509.488 337.769 L525.807 337.769 L525.807 341.705 L503.863 341.705 L503.863 337.769 Q506.525 335.015 511.108 330.385 Q515.715 325.733 516.895 324.39 Q519.141 321.867 520.02 320.131 Q520.923 318.371 520.923 316.682 Q520.923 313.927 518.979 312.191 Q517.057 310.455 513.955 310.455 Q511.756 310.455 509.303 311.219 Q506.872 311.983 504.094 313.534 L504.094 308.811 Q506.918 307.677 509.372 307.098 Q511.826 306.52 513.863 306.52 Q519.233 306.52 522.428 309.205 Q525.622 311.89 525.622 316.381 Q525.622 318.51 524.812 320.432 Q524.025 322.33 521.918 324.922 Q521.34 325.594 518.238 328.811 Q515.136 332.006 509.488 337.769 Z" fill="#000000" fill-rule="nonzero" fill-opacity="1" /><path clip-path="url(#clip960)" d="M567.96 325.802 L567.96 327.885 L558.863 336.982 L556.085 334.205 L561.478 328.811 L533.261 328.811 L533.261 324.876 L561.478 324.876 L556.085 319.483 L558.863 316.705 L567.96 325.802 Z" fill="#000000" fill-rule="nonzero" fill-opacity="1" /><path clip-path="url(#clip960)" d="M589.511 323.07 Q592.867 323.788 594.742 326.057 Q596.64 328.325 596.64 331.658 Q596.64 336.774 593.122 339.575 Q589.603 342.376 583.122 342.376 Q580.946 342.376 578.631 341.936 Q576.339 341.519 573.886 340.663 L573.886 336.149 Q575.83 337.283 578.145 337.862 Q580.46 338.441 582.983 338.441 Q587.381 338.441 589.673 336.705 Q591.987 334.969 591.987 331.658 Q591.987 328.603 589.835 326.89 Q587.705 325.154 583.886 325.154 L579.858 325.154 L579.858 321.311 L584.071 321.311 Q587.52 321.311 589.349 319.946 Q591.177 318.557 591.177 315.964 Q591.177 313.302 589.279 311.89 Q587.404 310.455 583.886 310.455 Q581.964 310.455 579.765 310.871 Q577.566 311.288 574.927 312.168 L574.927 308.001 Q577.589 307.26 579.904 306.89 Q582.242 306.52 584.302 306.52 Q589.626 306.52 592.728 308.95 Q595.83 311.358 595.83 315.478 Q595.83 318.348 594.186 320.339 Q592.543 322.307 589.511 323.07 Z" fill="#000000" fill-rule="nonzero" fill-opacity="1" /><polyline clip-path="url(#clip960)" style="stroke:#5abac1; stroke-linecap:round; stroke-linejoin:round; stroke-width:4; stroke-opacity:1; fill:none" points="217.923,376.265 361.844,376.265 "/>
<path clip-path="url(#clip960)" d="M390.507 362.827 L390.507 375.813 L396.387 375.813 Q399.65 375.813 401.433 374.123 Q403.215 372.434 403.215 369.309 Q403.215 366.207 401.433 364.517 Q399.65 362.827 396.387 362.827 L390.507 362.827 M385.831 358.985 L396.387 358.985 Q402.197 358.985 405.16 361.624 Q408.146 364.239 408.146 369.309 Q408.146 374.424 405.16 377.04 Q402.197 379.656 396.387 379.656 L390.507 379.656 L390.507 393.545 L385.831 393.545 L385.831 358.985 Z" fill="#000000" fill-rule="nonzero" fill-opacity="1" /><path clip-path="url(#clip960)" d="M423.886 380.512 Q418.724 380.512 416.734 381.693 Q414.743 382.873 414.743 385.721 Q414.743 387.989 416.224 389.332 Q417.729 390.651 420.299 390.651 Q423.84 390.651 425.97 388.151 Q428.123 385.628 428.123 381.461 L428.123 380.512 L423.886 380.512 M432.382 378.753 L432.382 393.545 L428.123 393.545 L428.123 389.609 Q426.664 391.971 424.488 393.105 Q422.312 394.216 419.164 394.216 Q415.183 394.216 412.822 391.994 Q410.484 389.748 410.484 385.998 Q410.484 381.623 413.4 379.401 Q416.34 377.179 422.15 377.179 L428.123 377.179 L428.123 376.762 Q428.123 373.823 426.178 372.225 Q424.257 370.605 420.761 370.605 Q418.539 370.605 416.433 371.137 Q414.326 371.67 412.382 372.735 L412.382 368.799 Q414.72 367.897 416.919 367.457 Q419.118 366.994 421.201 366.994 Q426.826 366.994 429.604 369.911 Q432.382 372.827 432.382 378.753 Z" fill="#000000" fill-rule="nonzero" fill-opacity="1" /><path clip-path="url(#clip960)" d="M445.368 360.258 L445.368 367.619 L454.141 367.619 L454.141 370.929 L445.368 370.929 L445.368 385.003 Q445.368 388.174 446.224 389.077 Q447.104 389.98 449.766 389.98 L454.141 389.98 L454.141 393.545 L449.766 393.545 Q444.835 393.545 442.96 391.716 Q441.085 389.864 441.085 385.003 L441.085 370.929 L437.96 370.929 L437.96 367.619 L441.085 367.619 L441.085 360.258 L445.368 360.258 Z" fill="#000000" fill-rule="nonzero" fill-opacity="1" /><path clip-path="url(#clip960)" d="M481.294 377.897 L481.294 393.545 L477.034 393.545 L477.034 378.035 Q477.034 374.355 475.599 372.526 Q474.164 370.698 471.294 370.698 Q467.845 370.698 465.854 372.897 Q463.863 375.096 463.863 378.892 L463.863 393.545 L459.581 393.545 L459.581 357.526 L463.863 357.526 L463.863 371.647 Q465.391 369.309 467.451 368.151 Q469.534 366.994 472.243 366.994 Q476.71 366.994 479.002 369.772 Q481.294 372.526 481.294 377.897 Z" fill="#000000" fill-rule="nonzero" fill-opacity="1" /><path clip-path="url(#clip960)" d="M509.488 389.609 L525.807 389.609 L525.807 393.545 L503.863 393.545 L503.863 389.609 Q506.525 386.855 511.108 382.225 Q515.715 377.573 516.895 376.23 Q519.141 373.707 520.02 371.971 Q520.923 370.211 520.923 368.522 Q520.923 365.767 518.979 364.031 Q517.057 362.295 513.955 362.295 Q511.756 362.295 509.303 363.059 Q506.872 363.823 504.094 365.374 L504.094 360.651 Q506.918 359.517 509.372 358.938 Q511.826 358.36 513.863 358.36 Q519.233 358.36 522.428 361.045 Q525.622 363.73 525.622 368.221 Q525.622 370.35 524.812 372.272 Q524.025 374.17 521.918 376.762 Q521.34 377.434 518.238 380.651 Q515.136 383.846 509.488 389.609 Z" fill="#000000" fill-rule="nonzero" fill-opacity="1" /><path clip-path="url(#clip960)" d="M567.96 377.642 L567.96 379.725 L558.863 388.822 L556.085 386.045 L561.478 380.651 L533.261 380.651 L533.261 376.716 L561.478 376.716 L556.085 371.323 L558.863 368.545 L567.96 377.642 Z" fill="#000000" fill-rule="nonzero" fill-opacity="1" /><path clip-path="url(#clip960)" d="M588.191 363.059 L576.386 381.508 L588.191 381.508 L588.191 363.059 M586.964 358.985 L592.844 358.985 L592.844 381.508 L597.774 381.508 L597.774 385.397 L592.844 385.397 L592.844 393.545 L588.191 393.545 L588.191 385.397 L572.589 385.397 L572.589 380.883 L586.964 358.985 Z" fill="#000000" fill-rule="nonzero" fill-opacity="1" /><polyline clip-path="url(#clip960)" style="stroke:#9d4751; stroke-linecap:round; stroke-linejoin:round; stroke-width:4; stroke-opacity:1; fill:none" points="217.923,428.105 361.844,428.105 "/>
<path clip-path="url(#clip960)" d="M390.507 414.667 L390.507 427.653 L396.387 427.653 Q399.65 427.653 401.433 425.963 Q403.215 424.274 403.215 421.149 Q403.215 418.047 401.433 416.357 Q399.65 414.667 396.387 414.667 L390.507 414.667 M385.831 410.825 L396.387 410.825 Q402.197 410.825 405.16 413.464 Q408.146 416.079 408.146 421.149 Q408.146 426.264 405.16 428.88 Q402.197 431.496 396.387 431.496 L390.507 431.496 L390.507 445.385 L385.831 445.385 L385.831 410.825 Z" fill="#000000" fill-rule="nonzero" fill-opacity="1" /><path clip-path="url(#clip960)" d="M423.886 432.352 Q418.724 432.352 416.734 433.533 Q414.743 434.713 414.743 437.561 Q414.743 439.829 416.224 441.172 Q417.729 442.491 420.299 442.491 Q423.84 442.491 425.97 439.991 Q428.123 437.468 428.123 433.301 L428.123 432.352 L423.886 432.352 M432.382 430.593 L432.382 445.385 L428.123 445.385 L428.123 441.449 Q426.664 443.811 424.488 444.945 Q422.312 446.056 419.164 446.056 Q415.183 446.056 412.822 443.834 Q410.484 441.588 410.484 437.838 Q410.484 433.463 413.4 431.241 Q416.34 429.019 422.15 429.019 L428.123 429.019 L428.123 428.602 Q428.123 425.663 426.178 424.065 Q424.257 422.445 420.761 422.445 Q418.539 422.445 416.433 422.977 Q414.326 423.51 412.382 424.575 L412.382 420.639 Q414.72 419.737 416.919 419.297 Q419.118 418.834 421.201 418.834 Q426.826 418.834 429.604 421.751 Q432.382 424.667 432.382 430.593 Z" fill="#000000" fill-rule="nonzero" fill-opacity="1" /><path clip-path="url(#clip960)" d="M445.368 412.098 L445.368 419.459 L454.141 419.459 L454.141 422.769 L445.368 422.769 L445.368 436.843 Q445.368 440.014 446.224 440.917 Q447.104 441.82 449.766 441.82 L454.141 441.82 L454.141 445.385 L449.766 445.385 Q444.835 445.385 442.96 443.556 Q441.085 441.704 441.085 436.843 L441.085 422.769 L437.96 422.769 L437.96 419.459 L441.085 419.459 L441.085 412.098 L445.368 412.098 Z" fill="#000000" fill-rule="nonzero" fill-opacity="1" /><path clip-path="url(#clip960)" d="M481.294 429.737 L481.294 445.385 L477.034 445.385 L477.034 429.875 Q477.034 426.195 475.599 424.366 Q474.164 422.538 471.294 422.538 Q467.845 422.538 465.854 424.737 Q463.863 426.936 463.863 430.732 L463.863 445.385 L459.581 445.385 L459.581 409.366 L463.863 409.366 L463.863 423.487 Q465.391 421.149 467.451 419.991 Q469.534 418.834 472.243 418.834 Q476.71 418.834 479.002 421.612 Q481.294 424.366 481.294 429.737 Z" fill="#000000" fill-rule="nonzero" fill-opacity="1" /><path clip-path="url(#clip960)" d="M509.488 441.449 L525.807 441.449 L525.807 445.385 L503.863 445.385 L503.863 441.449 Q506.525 438.695 511.108 434.065 Q515.715 429.413 516.895 428.07 Q519.141 425.547 520.02 423.811 Q520.923 422.051 520.923 420.362 Q520.923 417.607 518.979 415.871 Q517.057 414.135 513.955 414.135 Q511.756 414.135 509.303 414.899 Q506.872 415.663 504.094 417.214 L504.094 412.491 Q506.918 411.357 509.372 410.778 Q511.826 410.2 513.863 410.2 Q519.233 410.2 522.428 412.885 Q525.622 415.57 525.622 420.061 Q525.622 422.19 524.812 424.112 Q524.025 426.01 521.918 428.602 Q521.34 429.274 518.238 432.491 Q515.136 435.686 509.488 441.449 Z" fill="#000000" fill-rule="nonzero" fill-opacity="1" /><path clip-path="url(#clip960)" d="M567.96 429.482 L567.96 431.565 L558.863 440.662 L556.085 437.885 L561.478 432.491 L533.261 432.491 L533.261 428.556 L561.478 428.556 L556.085 423.163 L558.863 420.385 L567.96 429.482 Z" fill="#000000" fill-rule="nonzero" fill-opacity="1" /><path clip-path="url(#clip960)" d="M575.39 410.825 L593.747 410.825 L593.747 414.76 L579.673 414.76 L579.673 423.232 Q580.691 422.885 581.71 422.723 Q582.728 422.538 583.747 422.538 Q589.534 422.538 592.913 425.709 Q596.293 428.88 596.293 434.297 Q596.293 439.875 592.821 442.977 Q589.349 446.056 583.029 446.056 Q580.853 446.056 578.585 445.686 Q576.339 445.315 573.932 444.574 L573.932 439.875 Q576.015 441.01 578.237 441.565 Q580.46 442.121 582.937 442.121 Q586.941 442.121 589.279 440.014 Q591.617 437.908 591.617 434.297 Q591.617 430.686 589.279 428.579 Q586.941 426.473 582.937 426.473 Q581.062 426.473 579.187 426.889 Q577.335 427.306 575.39 428.186 L575.39 410.825 Z" fill="#000000" fill-rule="nonzero" fill-opacity="1" /><path clip-path="url(#clip960)" d="M1532.44 644.464 L1532.44 640.205 Q1534.2 641.038 1536.01 641.478 Q1537.82 641.918 1539.55 641.918 Q1544.18 641.918 1546.61 638.816 Q1549.06 635.691 1549.41 629.348 Q1548.07 631.339 1546.01 632.404 Q1543.95 633.469 1541.45 633.469 Q1536.26 633.469 1533.23 630.344 Q1530.22 627.195 1530.22 621.756 Q1530.22 616.432 1533.37 613.214 Q1536.52 609.996 1541.75 609.996 Q1547.75 609.996 1550.89 614.603 Q1554.06 619.186 1554.06 627.936 Q1554.06 636.107 1550.18 640.992 Q1546.31 645.853 1539.76 645.853 Q1538 645.853 1536.19 645.506 Q1534.39 645.158 1532.44 644.464 M1541.75 629.811 Q1544.9 629.811 1546.73 627.658 Q1548.58 625.506 1548.58 621.756 Q1548.58 618.029 1546.73 615.876 Q1544.9 613.7 1541.75 613.7 Q1538.6 613.7 1536.75 615.876 Q1534.92 618.029 1534.92 621.756 Q1534.92 625.506 1536.75 627.658 Q1538.6 629.811 1541.75 629.811 Z" fill="#8675d9" fill-rule="nonzero" fill-opacity="1" /><path clip-path="url(#clip960)" d="M1566.5 641.246 L1582.81 641.246 L1582.81 645.181 L1560.87 645.181 L1560.87 641.246 Q1563.53 638.492 1568.12 633.862 Q1572.72 629.209 1573.9 627.867 Q1576.15 625.344 1577.03 623.607 Q1577.93 621.848 1577.93 620.158 Q1577.93 617.404 1575.99 615.668 Q1574.06 613.932 1570.96 613.932 Q1568.76 613.932 1566.31 614.695 Q1563.88 615.459 1561.1 617.01 L1561.1 612.288 Q1563.93 611.154 1566.38 610.575 Q1568.83 609.996 1570.87 609.996 Q1576.24 609.996 1579.44 612.682 Q1582.63 615.367 1582.63 619.858 Q1582.63 621.987 1581.82 623.908 Q1581.03 625.807 1578.93 628.399 Q1578.35 629.07 1575.25 632.288 Q1572.14 635.482 1566.5 641.246 Z" fill="#8675d9" fill-rule="nonzero" fill-opacity="1" /><path clip-path="url(#clip960)" d="M1580.59 590.666 L1598.95 590.666 L1598.95 594.602 L1584.88 594.602 L1584.88 603.074 Q1585.89 602.727 1586.91 602.564 Q1587.93 602.379 1588.95 602.379 Q1594.74 602.379 1598.12 605.551 Q1601.5 608.722 1601.5 614.138 Q1601.5 619.717 1598.02 622.819 Q1594.55 625.898 1588.23 625.898 Q1586.06 625.898 1583.79 625.527 Q1581.54 625.157 1579.14 624.416 L1579.14 619.717 Q1581.22 620.851 1583.44 621.407 Q1585.66 621.963 1588.14 621.963 Q1592.14 621.963 1594.48 619.856 Q1596.82 617.75 1596.82 614.138 Q1596.82 610.527 1594.48 608.421 Q1592.14 606.314 1588.14 606.314 Q1586.26 606.314 1584.39 606.731 Q1582.54 607.148 1580.59 608.027 L1580.59 590.666 Z" fill="#2c4bfe" fill-rule="nonzero" fill-opacity="1" /><path clip-path="url(#clip960)" d="M1627.12 574.785 L1615.32 593.234 L1627.12 593.234 L1627.12 574.785 M1625.9 570.711 L1631.77 570.711 L1631.77 593.234 L1636.71 593.234 L1636.71 597.123 L1631.77 597.123 L1631.77 605.271 L1627.12 605.271 L1627.12 597.123 L1611.52 597.123 L1611.52 592.609 L1625.9 570.711 Z" fill="#5abac1" fill-rule="nonzero" fill-opacity="1" /><path clip-path="url(#clip960)" d="M1652.56 581.381 L1668.88 581.381 L1668.88 585.316 L1646.94 585.316 L1646.94 581.381 Q1649.6 578.627 1654.18 573.997 Q1658.79 569.344 1659.97 568.002 Q1662.22 565.478 1663.09 563.742 Q1664 561.983 1664 560.293 Q1664 557.539 1662.05 555.803 Q1660.13 554.066 1657.03 554.066 Q1654.83 554.066 1652.38 554.83 Q1649.95 555.594 1647.17 557.145 L1647.17 552.423 Q1649.99 551.289 1652.45 550.71 Q1654.9 550.131 1656.94 550.131 Q1662.31 550.131 1665.5 552.816 Q1668.7 555.502 1668.7 559.992 Q1668.7 562.122 1667.89 564.043 Q1667.1 565.941 1664.99 568.534 Q1664.41 569.205 1661.31 572.423 Q1658.21 575.617 1652.56 581.381 Z" fill="#9d4751" fill-rule="nonzero" fill-opacity="1" /><path clip-path="url(#clip960)" d="M1566.05 1007.39 Q1562.72 1007.39 1560.8 1009.17 Q1558.9 1010.96 1558.9 1014.08 Q1558.9 1017.21 1560.8 1018.99 Q1562.72 1020.77 1566.05 1020.77 Q1569.39 1020.77 1571.31 1018.99 Q1573.23 1017.18 1573.23 1014.08 Q1573.23 1010.96 1571.31 1009.17 Q1569.41 1007.39 1566.05 1007.39 M1561.38 1005.4 Q1558.37 1004.66 1556.68 1002.6 Q1555.01 1000.54 1555.01 997.577 Q1555.01 993.433 1557.95 991.026 Q1560.91 988.618 1566.05 988.618 Q1571.21 988.618 1574.15 991.026 Q1577.09 993.433 1577.09 997.577 Q1577.09 1000.54 1575.4 1002.6 Q1573.74 1004.66 1570.75 1005.4 Q1574.13 1006.19 1576.01 1008.48 Q1577.9 1010.77 1577.9 1014.08 Q1577.9 1019.1 1574.83 1021.79 Q1571.77 1024.47 1566.05 1024.47 Q1560.33 1024.47 1557.26 1021.79 Q1554.2 1019.1 1554.2 1014.08 Q1554.2 1010.77 1556.1 1008.48 Q1558 1006.19 1561.38 1005.4 M1559.66 998.017 Q1559.66 1000.7 1561.33 1002.21 Q1563.02 1003.71 1566.05 1003.71 Q1569.06 1003.71 1570.75 1002.21 Q1572.46 1000.7 1572.46 998.017 Q1572.46 995.331 1570.75 993.827 Q1569.06 992.322 1566.05 992.322 Q1563.02 992.322 1561.33 993.827 Q1559.66 995.331 1559.66 998.017 Z" fill="#8675d9" fill-rule="nonzero" fill-opacity="1" /><path clip-path="url(#clip960)" d="M1643.1 979.958 L1650.73 979.958 L1650.73 953.593 L1642.42 955.259 L1642.42 951 L1650.69 949.333 L1655.36 949.333 L1655.36 979.958 L1663 979.958 L1663 983.893 L1643.1 983.893 L1643.1 979.958 Z" fill="#5abac1" fill-rule="nonzero" fill-opacity="1" /><path clip-path="url(#clip960)" d="M2158.05 1045.81 Q2154.72 1045.81 2152.8 1047.59 Q2150.9 1049.37 2150.9 1052.5 Q2150.9 1055.62 2152.8 1057.4 Q2154.72 1059.19 2158.05 1059.19 Q2161.38 1059.19 2163.31 1057.4 Q2165.23 1055.6 2165.23 1052.5 Q2165.23 1049.37 2163.31 1047.59 Q2161.41 1045.81 2158.05 1045.81 M2153.38 1043.82 Q2150.37 1043.08 2148.68 1041.02 Q2147.01 1038.96 2147.01 1035.99 Q2147.01 1031.85 2149.95 1029.44 Q2152.91 1027.03 2158.05 1027.03 Q2163.21 1027.03 2166.15 1029.44 Q2169.09 1031.85 2169.09 1035.99 Q2169.09 1038.96 2167.4 1041.02 Q2165.74 1043.08 2162.75 1043.82 Q2166.13 1044.6 2168 1046.89 Q2169.9 1049.19 2169.9 1052.5 Q2169.9 1057.52 2166.82 1060.21 Q2163.77 1062.89 2158.05 1062.89 Q2152.33 1062.89 2149.25 1060.21 Q2146.2 1057.52 2146.2 1052.5 Q2146.2 1049.19 2148.1 1046.89 Q2150 1044.6 2153.38 1043.82 M2151.66 1036.43 Q2151.66 1039.12 2153.33 1040.62 Q2155.02 1042.13 2158.05 1042.13 Q2161.06 1042.13 2162.75 1040.62 Q2164.46 1039.12 2164.46 1036.43 Q2164.46 1033.75 2162.75 1032.24 Q2161.06 1030.74 2158.05 1030.74 Q2155.02 1030.74 2153.33 1032.24 Q2151.66 1033.75 2151.66 1036.43 Z" fill="#9d4751" fill-rule="nonzero" fill-opacity="1" /><path clip-path="url(#clip960)" d="M2046.24 434.016 L2064.6 434.016 L2064.6 437.951 L2050.52 437.951 L2050.52 446.423 Q2051.54 446.076 2052.56 445.914 Q2053.58 445.729 2054.6 445.729 Q2060.39 445.729 2063.77 448.9 Q2067.14 452.071 2067.14 457.488 Q2067.14 463.067 2063.67 466.169 Q2060.2 469.247 2053.88 469.247 Q2051.71 469.247 2049.44 468.877 Q2047.19 468.506 2044.78 467.766 L2044.78 463.067 Q2046.87 464.201 2049.09 464.757 Q2051.31 465.312 2053.79 465.312 Q2057.79 465.312 2060.13 463.206 Q2062.47 461.099 2062.47 457.488 Q2062.47 453.877 2060.13 451.77 Q2057.79 449.664 2053.79 449.664 Q2051.91 449.664 2050.04 450.081 Q2048.19 450.497 2046.24 451.377 L2046.24 434.016 Z" fill="#2c4bfe" fill-rule="nonzero" fill-opacity="1" /><path clip-path="url(#clip960)" d="M2097.29 394.236 L2115.64 394.236 L2115.64 398.171 L2101.57 398.171 L2101.57 406.643 Q2102.59 406.296 2103.6 406.134 Q2104.62 405.949 2105.64 405.949 Q2111.43 405.949 2114.81 409.12 Q2118.19 412.291 2118.19 417.708 Q2118.19 423.287 2114.72 426.389 Q2111.24 429.467 2104.92 429.467 Q2102.75 429.467 2100.48 429.097 Q2098.23 428.727 2095.83 427.986 L2095.83 423.287 Q2097.91 424.421 2100.13 424.977 Q2102.35 425.532 2104.83 425.532 Q2108.84 425.532 2111.17 423.426 Q2113.51 421.319 2113.51 417.708 Q2113.51 414.097 2111.17 411.991 Q2108.84 409.884 2104.83 409.884 Q2102.96 409.884 2101.08 410.301 Q2099.23 410.717 2097.29 411.597 L2097.29 394.236 Z" fill="#5abac1" fill-rule="nonzero" fill-opacity="1" /><path clip-path="url(#clip960)" d="M2132.74 385.081 L2140.38 385.081 L2140.38 358.715 L2132.07 360.382 L2132.07 356.123 L2140.33 354.456 L2145.01 354.456 L2145.01 385.081 L2152.65 385.081 L2152.65 389.016 L2132.74 389.016 L2132.74 385.081 Z" fill="#9d4751" fill-rule="nonzero" fill-opacity="1" /><path clip-path="url(#clip960)" d="M2172.09 357.535 Q2168.48 357.535 2166.65 361.1 Q2164.84 364.641 2164.84 371.771 Q2164.84 378.877 2166.65 382.442 Q2168.48 385.984 2172.09 385.984 Q2175.72 385.984 2177.53 382.442 Q2179.36 378.877 2179.36 371.771 Q2179.36 364.641 2177.53 361.1 Q2175.72 357.535 2172.09 357.535 M2172.09 353.831 Q2177.9 353.831 2180.96 358.437 Q2184.03 363.021 2184.03 371.771 Q2184.03 380.498 2180.96 385.104 Q2177.9 389.687 2172.09 389.687 Q2166.28 389.687 2163.2 385.104 Q2160.15 380.498 2160.15 371.771 Q2160.15 363.021 2163.2 358.437 Q2166.28 353.831 2172.09 353.831 Z" fill="#9d4751" fill-rule="nonzero" fill-opacity="1" /><path clip-path="url(#clip960)" d="M1318.54 318.197 L1318.54 313.938 Q1320.3 314.771 1322.1 315.211 Q1323.91 315.651 1325.64 315.651 Q1330.27 315.651 1332.71 312.549 Q1335.16 309.424 1335.51 303.081 Q1334.16 305.072 1332.1 306.137 Q1330.04 307.202 1327.54 307.202 Q1322.36 307.202 1319.33 304.077 Q1316.32 300.929 1316.32 295.489 Q1316.32 290.165 1319.46 286.947 Q1322.61 283.73 1327.84 283.73 Q1333.84 283.73 1336.99 288.336 Q1340.16 292.92 1340.16 301.669 Q1340.16 309.841 1336.27 314.725 Q1332.4 319.586 1325.85 319.586 Q1324.09 319.586 1322.29 319.239 Q1320.48 318.892 1318.54 318.197 M1327.84 303.544 Q1330.99 303.544 1332.82 301.392 Q1334.67 299.239 1334.67 295.489 Q1334.67 291.762 1332.82 289.609 Q1330.99 287.433 1327.84 287.433 Q1324.7 287.433 1322.84 289.609 Q1321.02 291.762 1321.02 295.489 Q1321.02 299.239 1322.84 301.392 Q1324.7 303.544 1327.84 303.544 Z" fill="#2c4bfe" fill-rule="nonzero" fill-opacity="1" /><path clip-path="url(#clip960)" d="M1348.61 284.355 L1366.96 284.355 L1366.96 288.29 L1352.89 288.29 L1352.89 296.762 Q1353.91 296.415 1354.93 296.253 Q1355.95 296.068 1356.96 296.068 Q1362.75 296.068 1366.13 299.239 Q1369.51 302.41 1369.51 307.827 Q1369.51 313.406 1366.04 316.507 Q1362.57 319.586 1356.25 319.586 Q1354.07 319.586 1351.8 319.216 Q1349.56 318.845 1347.15 318.105 L1347.15 313.406 Q1349.23 314.54 1351.46 315.095 Q1353.68 315.651 1356.15 315.651 Q1360.16 315.651 1362.5 313.544 Q1364.83 311.438 1364.83 307.827 Q1364.83 304.216 1362.5 302.109 Q1360.16 300.003 1356.15 300.003 Q1354.28 300.003 1352.4 300.419 Q1350.55 300.836 1348.61 301.716 L1348.61 284.355 Z" fill="#2c4bfe" fill-rule="nonzero" fill-opacity="1" /><path clip-path="url(#clip960)" d="M1376.52 264.4 L1394.88 264.4 L1394.88 268.335 L1380.8 268.335 L1380.8 276.807 Q1381.82 276.46 1382.84 276.298 Q1383.86 276.113 1384.88 276.113 Q1390.67 276.113 1394.04 279.284 Q1397.42 282.455 1397.42 287.872 Q1397.42 293.45 1393.95 296.552 Q1390.48 299.631 1384.16 299.631 Q1381.98 299.631 1379.72 299.261 Q1377.47 298.89 1375.06 298.15 L1375.06 293.45 Q1377.15 294.585 1379.37 295.14 Q1381.59 295.696 1384.07 295.696 Q1388.07 295.696 1390.41 293.589 Q1392.75 291.483 1392.75 287.872 Q1392.75 284.261 1390.41 282.154 Q1388.07 280.048 1384.07 280.048 Q1382.19 280.048 1380.32 280.464 Q1378.47 280.881 1376.52 281.761 L1376.52 264.4 Z" fill="#5abac1" fill-rule="nonzero" fill-opacity="1" /><path clip-path="url(#clip960)" d="M1418.46 244.445 L1440.69 244.445 L1440.69 246.435 L1428.14 279.005 L1423.26 279.005 L1435.06 248.38 L1418.46 248.38 L1418.46 244.445 Z" fill="#9d4751" fill-rule="nonzero" fill-opacity="1" /><path clip-path="url(#clip960)" d="M1384.51 662.824 L1384.51 658.565 Q1386.27 659.398 1388.07 659.838 Q1389.88 660.278 1391.62 660.278 Q1396.25 660.278 1398.68 657.176 Q1401.13 654.051 1401.48 647.708 Q1400.13 649.699 1398.07 650.764 Q1396.01 651.829 1393.51 651.829 Q1388.33 651.829 1385.3 648.704 Q1382.29 645.556 1382.29 640.116 Q1382.29 634.792 1385.44 631.574 Q1388.58 628.357 1393.82 628.357 Q1399.81 628.357 1402.96 632.963 Q1406.13 637.546 1406.13 646.296 Q1406.13 654.468 1402.24 659.352 Q1398.38 664.213 1391.82 664.213 Q1390.07 664.213 1388.26 663.866 Q1386.45 663.519 1384.51 662.824 M1393.82 648.171 Q1396.96 648.171 1398.79 646.019 Q1400.64 643.866 1400.64 640.116 Q1400.64 636.389 1398.79 634.236 Q1396.96 632.06 1393.82 632.06 Q1390.67 632.06 1388.82 634.236 Q1386.99 636.389 1386.99 640.116 Q1386.99 643.866 1388.82 646.019 Q1390.67 648.171 1393.82 648.171 Z" fill="#5abac1" fill-rule="nonzero" fill-opacity="1" /><path clip-path="url(#clip960)" d="M1424.53 632.06 Q1420.92 632.06 1419.09 635.625 Q1417.29 639.167 1417.29 646.296 Q1417.29 653.403 1419.09 656.968 Q1420.92 660.509 1424.53 660.509 Q1428.17 660.509 1429.97 656.968 Q1431.8 653.403 1431.8 646.296 Q1431.8 639.167 1429.97 635.625 Q1428.17 632.06 1424.53 632.06 M1424.53 628.357 Q1430.34 628.357 1433.4 632.963 Q1436.48 637.546 1436.48 646.296 Q1436.48 655.023 1433.4 659.63 Q1430.34 664.213 1424.53 664.213 Q1418.72 664.213 1415.64 659.63 Q1412.59 655.023 1412.59 646.296 Q1412.59 637.546 1415.64 632.963 Q1418.72 628.357 1424.53 628.357 Z" fill="#5abac1" fill-rule="nonzero" fill-opacity="1" /><path clip-path="url(#clip960)" d="M1888.56 709.206 Q1885.23 709.206 1883.31 710.988 Q1881.41 712.77 1881.41 715.895 Q1881.41 719.02 1883.31 720.803 Q1885.23 722.585 1888.56 722.585 Q1891.9 722.585 1893.82 720.803 Q1895.74 718.997 1895.74 715.895 Q1895.74 712.77 1893.82 710.988 Q1891.92 709.206 1888.56 709.206 M1883.89 707.215 Q1880.88 706.474 1879.19 704.414 Q1877.52 702.354 1877.52 699.391 Q1877.52 695.247 1880.46 692.84 Q1883.42 690.432 1888.56 690.432 Q1893.72 690.432 1896.66 692.84 Q1899.6 695.247 1899.6 699.391 Q1899.6 702.354 1897.91 704.414 Q1896.25 706.474 1893.26 707.215 Q1896.64 708.002 1898.52 710.293 Q1900.41 712.585 1900.41 715.895 Q1900.41 720.918 1897.34 723.604 Q1894.28 726.289 1888.56 726.289 Q1882.85 726.289 1879.77 723.604 Q1876.71 720.918 1876.71 715.895 Q1876.71 712.585 1878.61 710.293 Q1880.51 708.002 1883.89 707.215 M1882.17 699.831 Q1882.17 702.516 1883.84 704.02 Q1885.53 705.525 1888.56 705.525 Q1891.57 705.525 1893.26 704.02 Q1894.97 702.516 1894.97 699.831 Q1894.97 697.145 1893.26 695.641 Q1891.57 694.136 1888.56 694.136 Q1885.53 694.136 1883.84 695.641 Q1882.17 697.145 1882.17 699.831 Z" fill="#9d4751" fill-rule="nonzero" fill-opacity="1" /><path clip-path="url(#clip960)" d="M1922.89 706.983 Q1926.25 707.701 1928.12 709.969 Q1930.02 712.238 1930.02 715.571 Q1930.02 720.687 1926.5 723.488 Q1922.98 726.289 1916.5 726.289 Q1914.33 726.289 1912.01 725.849 Q1909.72 725.432 1907.27 724.576 L1907.27 720.062 Q1909.21 721.196 1911.53 721.775 Q1913.84 722.354 1916.36 722.354 Q1920.76 722.354 1923.05 720.617 Q1925.37 718.881 1925.37 715.571 Q1925.37 712.516 1923.22 710.803 Q1921.09 709.067 1917.27 709.067 L1913.24 709.067 L1913.24 705.224 L1917.45 705.224 Q1920.9 705.224 1922.73 703.858 Q1924.56 702.469 1924.56 699.877 Q1924.56 697.215 1922.66 695.803 Q1920.78 694.368 1917.27 694.368 Q1915.34 694.368 1913.15 694.784 Q1910.95 695.201 1908.31 696.081 L1908.31 691.914 Q1910.97 691.173 1913.28 690.803 Q1915.62 690.432 1917.68 690.432 Q1923.01 690.432 1926.11 692.863 Q1929.21 695.27 1929.21 699.391 Q1929.21 702.261 1927.57 704.252 Q1925.92 706.219 1922.89 706.983 Z" fill="#9d4751" fill-rule="nonzero" fill-opacity="1" /><path clip-path="url(#clip960)" d="M855.011 821.522 L855.011 817.263 Q856.771 818.097 858.576 818.536 Q860.382 818.976 862.118 818.976 Q866.748 818.976 869.178 815.874 Q871.632 812.749 871.979 806.407 Q870.636 808.397 868.576 809.462 Q866.516 810.527 864.016 810.527 Q858.831 810.527 855.798 807.402 Q852.789 804.254 852.789 798.814 Q852.789 793.49 855.937 790.273 Q859.086 787.055 864.317 787.055 Q870.312 787.055 873.46 791.661 Q876.632 796.245 876.632 804.995 Q876.632 813.166 872.743 818.05 Q868.877 822.911 862.326 822.911 Q860.567 822.911 858.761 822.564 Q856.956 822.217 855.011 821.522 M864.317 806.87 Q867.465 806.87 869.294 804.717 Q871.146 802.564 871.146 798.814 Q871.146 795.087 869.294 792.935 Q867.465 790.759 864.317 790.759 Q861.169 790.759 859.317 792.935 Q857.488 795.087 857.488 798.814 Q857.488 802.564 859.317 804.717 Q861.169 806.87 864.317 806.87 Z" fill="#8675d9" fill-rule="nonzero" fill-opacity="1" /><path clip-path="url(#clip960)" d="M889.062 818.305 L905.382 818.305 L905.382 822.24 L883.437 822.24 L883.437 818.305 Q886.099 815.55 890.683 810.921 Q895.289 806.268 896.47 804.925 Q898.715 802.402 899.595 800.666 Q900.497 798.907 900.497 797.217 Q900.497 794.462 898.553 792.726 Q896.632 790.99 893.53 790.99 Q891.331 790.99 888.877 791.754 Q886.446 792.518 883.669 794.069 L883.669 789.347 Q886.493 788.212 888.946 787.634 Q891.4 787.055 893.437 787.055 Q898.808 787.055 902.002 789.74 Q905.196 792.425 905.196 796.916 Q905.196 799.046 904.386 800.967 Q903.599 802.865 901.493 805.458 Q900.914 806.129 897.812 809.347 Q894.71 812.541 889.062 818.305 Z" fill="#8675d9" fill-rule="nonzero" fill-opacity="1" /><path clip-path="url(#clip960)" d="M977.365 757.107 L977.365 752.848 Q979.124 753.681 980.93 754.121 Q982.735 754.561 984.471 754.561 Q989.101 754.561 991.532 751.459 Q993.985 748.334 994.332 741.992 Q992.99 743.982 990.93 745.047 Q988.87 746.112 986.37 746.112 Q981.184 746.112 978.152 742.987 Q975.143 739.839 975.143 734.399 Q975.143 729.075 978.291 725.858 Q981.439 722.64 986.67 722.64 Q992.666 722.64 995.814 727.246 Q998.985 731.83 998.985 740.58 Q998.985 748.751 995.096 753.635 Q991.231 758.496 984.68 758.496 Q982.921 758.496 981.115 758.149 Q979.309 757.802 977.365 757.107 M986.67 742.455 Q989.819 742.455 991.647 740.302 Q993.499 738.149 993.499 734.399 Q993.499 730.672 991.647 728.52 Q989.819 726.344 986.67 726.344 Q983.522 726.344 981.671 728.52 Q979.842 730.672 979.842 734.399 Q979.842 738.149 981.671 740.302 Q983.522 742.455 986.67 742.455 Z" fill="#5abac1" fill-rule="nonzero" fill-opacity="1" /><path clip-path="url(#clip960)" d="M1450.73 811.611 L1450.73 807.352 Q1452.49 808.185 1454.29 808.625 Q1456.1 809.064 1457.83 809.064 Q1462.46 809.064 1464.89 805.963 Q1467.35 802.838 1467.69 796.495 Q1466.35 798.486 1464.29 799.551 Q1462.23 800.615 1459.73 800.615 Q1454.55 800.615 1451.51 797.49 Q1448.5 794.342 1448.5 788.903 Q1448.5 783.578 1451.65 780.361 Q1454.8 777.143 1460.03 777.143 Q1466.03 777.143 1469.18 781.75 Q1472.35 786.333 1472.35 795.083 Q1472.35 803.254 1468.46 808.139 Q1464.59 813 1458.04 813 Q1456.28 813 1454.48 812.652 Q1452.67 812.305 1450.73 811.611 M1460.03 796.958 Q1463.18 796.958 1465.01 794.805 Q1466.86 792.653 1466.86 788.903 Q1466.86 785.176 1465.01 783.023 Q1463.18 780.847 1460.03 780.847 Q1456.88 780.847 1455.03 783.023 Q1453.2 785.176 1453.2 788.903 Q1453.2 792.653 1455.03 794.805 Q1456.88 796.958 1460.03 796.958 Z" fill="#9d4751" fill-rule="nonzero" fill-opacity="1" /><path clip-path="url(#clip960)" d="M2242.08 828.313 L2255.45 828.313 L2255.45 782.174 L2240.9 785.09 L2240.9 777.637 L2255.37 774.72 L2263.55 774.72 L2263.55 828.313 L2276.92 828.313 L2276.92 835.2 L2242.08 835.2 L2242.08 828.313 Z" fill="#000000" fill-rule="nonzero" fill-opacity="1" /><path clip-path="url(#clip960)" d="M1716.61 215.69 L1745.17 215.69 L1745.17 222.577 L1706.77 222.577 L1706.77 215.69 Q1711.43 210.87 1719.45 202.768 Q1727.51 194.625 1729.58 192.276 Q1733.51 187.86 1735.05 184.822 Q1736.63 181.744 1736.63 178.786 Q1736.63 173.966 1733.22 170.928 Q1729.86 167.889 1724.43 167.889 Q1720.58 167.889 1716.29 169.226 Q1712.04 170.563 1707.18 173.277 L1707.18 165.013 Q1712.12 163.028 1716.41 162.016 Q1720.71 161.003 1724.27 161.003 Q1733.67 161.003 1739.26 165.702 Q1744.85 170.401 1744.85 178.26 Q1744.85 181.987 1743.43 185.349 Q1742.05 188.671 1738.37 193.208 Q1737.36 194.382 1731.93 200.013 Q1726.5 205.603 1716.61 215.69 Z" fill="#000000" fill-rule="nonzero" fill-opacity="1" /><path clip-path="url(#clip960)" d="M871.093 423.968 Q876.967 425.224 880.248 429.194 Q883.57 433.164 883.57 438.997 Q883.57 447.95 877.413 452.851 Q871.255 457.753 859.913 457.753 Q856.105 457.753 852.054 456.983 Q848.044 456.254 843.75 454.755 L843.75 446.856 Q847.152 448.841 851.203 449.853 Q855.254 450.866 859.67 450.866 Q867.366 450.866 871.377 447.828 Q875.428 444.79 875.428 438.997 Q875.428 433.65 871.66 430.652 Q867.934 427.614 861.25 427.614 L854.201 427.614 L854.201 420.889 L861.574 420.889 Q867.61 420.889 870.81 418.499 Q874.01 416.069 874.01 411.532 Q874.01 406.873 870.688 404.402 Q867.407 401.891 861.25 401.891 Q857.887 401.891 854.039 402.62 Q850.191 403.349 845.573 404.888 L845.573 397.597 Q850.231 396.301 854.282 395.652 Q858.373 395.004 861.979 395.004 Q871.296 395.004 876.724 399.258 Q882.152 403.471 882.152 410.681 Q882.152 415.704 879.276 419.188 Q876.4 422.631 871.093 423.968 Z" fill="#000000" fill-rule="nonzero" fill-opacity="1" /><path clip-path="url(#clip960)" d="M868.926 1160.47 L848.266 1192.76 L868.926 1192.76 L868.926 1160.47 M866.779 1153.34 L877.068 1153.34 L877.068 1192.76 L885.697 1192.76 L885.697 1199.56 L877.068 1199.56 L877.068 1213.82 L868.926 1213.82 L868.926 1199.56 L841.623 1199.56 L841.623 1191.66 L866.779 1153.34 Z" fill="#000000" fill-rule="nonzero" fill-opacity="1" /><path clip-path="url(#clip960)" d="M1708.96 1387.34 L1741.08 1387.34 L1741.08 1394.23 L1716.45 1394.23 L1716.45 1409.06 Q1718.24 1408.45 1720.02 1408.16 Q1721.8 1407.84 1723.58 1407.84 Q1733.71 1407.84 1739.62 1413.39 Q1745.54 1418.94 1745.54 1428.42 Q1745.54 1438.18 1739.46 1443.61 Q1733.39 1449 1722.33 1449 Q1718.52 1449 1714.55 1448.35 Q1710.62 1447.7 1706.41 1446.41 L1706.41 1438.18 Q1710.05 1440.17 1713.94 1441.14 Q1717.83 1442.11 1722.16 1442.11 Q1729.17 1442.11 1733.26 1438.43 Q1737.36 1434.74 1737.36 1428.42 Q1737.36 1422.1 1733.26 1418.41 Q1729.17 1414.73 1722.16 1414.73 Q1718.88 1414.73 1715.6 1415.46 Q1712.36 1416.19 1708.96 1417.73 L1708.96 1387.34 Z" fill="#000000" fill-rule="nonzero" fill-opacity="1" /></svg>
