<?xml version="1.0" encoding="utf-8"?>
<svg xmlns="http://www.w3.org/2000/svg" xmlns:xlink="http://www.w3.org/1999/xlink" width="600" height="400" viewBox="0 0 2400 1600">
<defs>
  <clipPath id="clip980">
    <rect x="0" y="0" width="2400" height="1600"/>
  </clipPath>
</defs>
<path clip-path="url(#clip980)" d="M0 1600 L2400 1600 L2400 0 L0 0  Z" fill="#ffffff" fill-rule="evenodd" fill-opacity="1"/>
<defs>
  <clipPath id="clip981">
    <rect x="480" y="0" width="1681" height="1600"/>
  </clipPath>
</defs>
<path clip-path="url(#clip980)" d="M447.244 1552.76 L1952.76 1552.76 L1952.76 47.2441 L447.244 47.2441  Z" fill="#ffffff" fill-rule="evenodd" fill-opacity="1"/>
<defs>
  <clipPath id="clip982">
    <rect x="447" y="47" width="1507" height="1507"/>
  </clipPath>
</defs>
<polyline clip-path="url(#clip982)" style="stroke:#000000; stroke-linecap:round; stroke-linejoin:round; stroke-width:4; stroke-opacity:1; fill:none" points="1703.96,1329.04 1712.3,1339.86 1720.61,1350.62 1728.88,1361.24 1737.09,1371.66 1745.22,1381.8 1753.23,1391.6 1761.13,1401 1768.87,1409.92 1776.44,1418.29 1783.83,1426.05 1791,1433.13 1797.94,1439.47 1804.63,1444.99 1811.04,1449.7 1817.17,1453.63 1822.99,1456.81 1828.48,1459.26 1833.63,1461.02 1838.42,1462.12 1842.84,1462.58 1846.86,1462.43 1850.47,1461.71 1853.66,1460.45 1856.39,1458.66 1858.66,1456.39 1860.44,1453.66 1861.71,1450.47 1862.43,1446.86 1862.58,1442.84 1862.11,1438.43 1861.02,1433.63 1859.26,1428.48 1856.81,1422.99 1853.63,1417.17 1849.7,1411.04 1844.99,1404.63 1839.47,1397.94 1833.13,1391 1826.05,1383.83 1818.29,1376.44 1809.92,1368.87 1801,1361.13 1791.6,1353.23 1781.8,1345.22 1771.65,1337.09 1761.24,1328.88 1750.62,1320.61 1739.86,1312.3 1729.04,1303.96 "/>
<polyline clip-path="url(#clip982)" style="stroke:#000000; stroke-linecap:round; stroke-linejoin:round; stroke-width:4; stroke-opacity:1; fill:none" points="1746.58,1340.19 1729.04,1303.96 1768.54,1311.66 "/>
<polyline clip-path="url(#clip982)" style="stroke:#000000; stroke-linecap:round; stroke-linejoin:round; stroke-width:4; stroke-opacity:1; fill:none" points="1729.04,1303.96 1739.86,1312.3 "/>
<polyline clip-path="url(#clip982)" style="stroke:#000000; stroke-linecap:round; stroke-linejoin:round; stroke-width:4; stroke-opacity:1; fill:none" points="746.533,346.533 773.342,358.002 800.12,369.489 826.838,381.013 853.463,392.591 879.965,404.241 906.314,415.981 932.479,427.83 958.429,439.805 984.133,451.925 1009.56,464.207 1034.68,476.67 1059.47,489.332 1083.88,502.21 1107.9,515.324 1131.48,528.69 1154.61,542.328 1177.25,556.254 1199.36,570.488 1220.92,585.046 1241.9,599.948 1262.26,615.212 1281.98,630.855 1301.03,646.895 1319.37,663.351 1336.97,680.239 1353.84,697.561 1370,715.298 1385.48,733.432 1400.33,751.946 1414.55,770.822 1428.2,790.04 1441.29,809.584 1453.86,829.435 1465.94,849.575 1477.56,869.986 1488.75,890.65 1499.54,911.548 1509.97,932.664 1520.05,953.978 1529.83,975.473 1539.33,997.131 1548.59,1018.93 1557.63,1040.86 1566.49,1062.9 1575.19,1085.03 1583.77,1107.23 1592.26,1129.48 1600.69,1151.77 1609.09,1174.08 "/>
<polyline clip-path="url(#clip982)" style="stroke:#000000; stroke-linecap:round; stroke-linejoin:round; stroke-width:4; stroke-opacity:1; fill:none" points="1613.25,1134.04 1609.09,1174.08 1579.56,1146.73 "/>
<polyline clip-path="url(#clip982)" style="stroke:#000000; stroke-linecap:round; stroke-linejoin:round; stroke-width:4; stroke-opacity:1; fill:none" points="1609.09,1174.08 1600.69,1151.77 "/>
<path clip-path="url(#clip982)" d="M1823.4 1476.08 L1889.38 1476.08 L1889.38 1441.25 L1823.4 1441.25 L1823.4 1476.08 L1823.4 1476.08  Z" fill="#ffffff" fill-rule="evenodd" fill-opacity="1"/>
<polyline clip-path="url(#clip982)" style="stroke:#000000; stroke-linecap:round; stroke-linejoin:round; stroke-width:0; stroke-opacity:0; fill:none" points="1823.4,1476.08 1889.38,1476.08 1889.38,1441.25 1823.4,1441.25 1823.4,1476.08 "/>
<path clip-path="url(#clip982)" d="M1295.27 689.153 L1361.25 689.153 L1361.25 654.327 L1295.27 654.327 L1295.27 689.153 L1295.27 689.153  Z" fill="#ffffff" fill-rule="evenodd" fill-opacity="1"/>
<polyline clip-path="url(#clip982)" style="stroke:#000000; stroke-linecap:round; stroke-linejoin:round; stroke-width:0; stroke-opacity:0; fill:none" points="1295.27,689.153 1361.25,689.153 1361.25,654.327 1295.27,654.327 1295.27,689.153 "/>
<path clip-path="url(#clip982)" d="M1744.42 1253.47 L1744.13 1246.24 L1743.27 1239.06 L1741.84 1231.97 L1739.86 1225.02 L1737.32 1218.24 L1734.26 1211.69 L1730.69 1205.41 L1726.62 1199.42 L1722.1 1193.78 L1717.14 1188.52 L1711.78 1183.66 L1706.05 1179.25 L1699.98 1175.31 L1693.63 1171.86 L1687.02 1168.93 L1680.19 1166.53 L1673.2 1164.68 L1666.09 1163.39 L1658.89 1162.68 L1651.66 1162.53 L1644.44 1162.96 L1637.28 1163.97 L1630.22 1165.53 L1623.31 1167.66 L1616.58 1170.33 L1610.09 1173.52 L1603.88 1177.22 L1597.98 1181.4 L1592.43 1186.04 L1587.26 1191.1 L1582.52 1196.56 L1578.22 1202.37 L1574.4 1208.51 L1571.08 1214.94 L1568.28 1221.61 L1566.01 1228.47 L1564.31 1235.5 L1563.16 1242.64 L1562.59 1249.85 L1562.59 1257.08 L1563.16 1264.29 L1564.31 1271.43 L1566.01 1278.46 L1568.28 1285.33 L1571.08 1292 L1574.4 1298.42 L1578.22 1304.56 L1582.52 1310.38 L1587.26 1315.84 L1592.43 1320.9 L1597.98 1325.53 L1603.88 1329.72 L1610.09 1333.41 L1616.58 1336.61 L1623.31 1339.27 L1630.22 1341.4 L1637.28 1342.97 L1644.44 1343.97 L1651.66 1344.4 L1658.89 1344.26 L1666.09 1343.54 L1673.2 1342.25 L1680.19 1340.41 L1687.02 1338.01 L1693.63 1335.08 L1699.98 1331.63 L1706.05 1327.68 L1711.78 1323.27 L1717.14 1318.42 L1722.1 1313.15 L1726.62 1307.51 L1730.69 1301.53 L1734.26 1295.24 L1737.32 1288.69 L1739.86 1281.92 L1741.84 1274.96 L1743.27 1267.87 L1744.13 1260.69 L1744.42 1253.47 L1744.42 1253.47  Z" fill="#009af9" fill-rule="evenodd" fill-opacity="1"/>
<polyline clip-path="url(#clip982)" style="stroke:#000000; stroke-linecap:round; stroke-linejoin:round; stroke-width:4; stroke-opacity:1; fill:none" points="1744.42,1253.47 1744.13,1246.24 1743.27,1239.06 1741.84,1231.97 1739.86,1225.02 1737.32,1218.24 1734.26,1211.69 1730.69,1205.41 1726.62,1199.42 1722.1,1193.78 1717.14,1188.52 1711.78,1183.66 1706.05,1179.25 1699.98,1175.31 1693.63,1171.86 1687.02,1168.93 1680.19,1166.53 1673.2,1164.68 1666.09,1163.39 1658.89,1162.68 1651.66,1162.53 1644.44,1162.96 1637.28,1163.97 1630.22,1165.53 1623.31,1167.66 1616.58,1170.33 1610.09,1173.52 1603.88,1177.22 1597.98,1181.4 1592.43,1186.04 1587.26,1191.1 1582.52,1196.56 1578.22,1202.37 1574.4,1208.51 1571.08,1214.94 1568.28,1221.61 1566.01,1228.47 1564.31,1235.5 1563.16,1242.64 1562.59,1249.85 1562.59,1257.08 1563.16,1264.29 1564.31,1271.43 1566.01,1278.46 1568.28,1285.33 1571.08,1292 1574.4,1298.42 1578.22,1304.56 1582.52,1310.38 1587.26,1315.84 1592.43,1320.9 1597.98,1325.53 1603.88,1329.72 1610.09,1333.41 1616.58,1336.61 1623.31,1339.27 1630.22,1341.4 1637.28,1342.97 1644.44,1343.97 1651.66,1344.4 1658.89,1344.26 1666.09,1343.54 1673.2,1342.25 1680.19,1340.41 1687.02,1338.01 1693.63,1335.08 1699.98,1331.63 1706.05,1327.68 1711.78,1323.27 1717.14,1318.42 1722.1,1313.15 1726.62,1307.51 1730.69,1301.53 1734.26,1295.24 1737.32,1288.69 1739.86,1281.92 1741.84,1274.96 1743.27,1267.87 1744.13,1260.69 1744.42,1253.47 "/>
<path clip-path="url(#clip982)" d="M837.487 346.533 L837.199 339.306 L836.338 332.126 L834.91 325.036 L832.923 318.082 L830.389 311.309 L827.326 304.758 L823.751 298.471 L819.689 292.488 L815.163 286.846 L810.204 281.582 L804.843 276.729 L799.112 272.317 L793.05 268.374 L786.693 264.925 L780.082 261.992 L773.259 259.594 L766.268 257.745 L759.151 256.458 L751.955 255.74 L744.724 255.596 L737.505 256.028 L730.343 257.031 L723.283 258.6 L716.37 260.725 L709.648 263.393 L703.16 266.586 L696.945 270.285 L691.044 274.466 L685.493 279.102 L680.329 284.165 L675.583 289.622 L671.286 295.439 L667.464 301.579 L664.143 308.003 L661.342 314.67 L659.08 321.539 L657.37 328.567 L656.225 335.707 L655.65 342.917 L655.65 350.149 L656.225 357.358 L657.37 364.499 L659.08 371.526 L661.342 378.395 L664.143 385.063 L667.464 391.487 L671.286 397.626 L675.583 403.443 L680.329 408.9 L685.493 413.963 L691.044 418.6 L696.945 422.78 L703.16 426.479 L709.648 429.672 L716.37 432.34 L723.283 434.465 L730.343 436.034 L737.505 437.038 L744.724 437.469 L751.955 437.325 L759.151 436.607 L766.268 435.32 L773.259 433.471 L780.082 431.073 L786.693 428.14 L793.05 424.691 L799.112 420.749 L804.843 416.337 L810.204 411.483 L815.163 406.219 L819.689 400.578 L823.751 394.595 L827.326 388.308 L830.389 381.757 L832.923 374.983 L834.91 368.029 L836.338 360.94 L837.199 353.759 L837.487 346.533 L837.487 346.533  Z" fill="#009af9" fill-rule="evenodd" fill-opacity="1"/>
<polyline clip-path="url(#clip982)" style="stroke:#000000; stroke-linecap:round; stroke-linejoin:round; stroke-width:4; stroke-opacity:1; fill:none" points="837.487,346.533 837.199,339.306 836.338,332.126 834.91,325.036 832.923,318.082 830.389,311.309 827.326,304.758 823.751,298.471 819.689,292.488 815.163,286.846 810.204,281.582 804.843,276.729 799.112,272.317 793.05,268.374 786.693,264.925 780.082,261.992 773.259,259.594 766.268,257.745 759.151,256.458 751.955,255.74 744.724,255.596 737.505,256.028 730.343,257.031 723.283,258.6 716.37,260.725 709.648,263.393 703.16,266.586 696.945,270.285 691.044,274.466 685.493,279.102 680.329,284.165 675.583,289.622 671.286,295.439 667.464,301.579 664.143,308.003 661.342,314.67 659.08,321.539 657.37,328.567 656.225,335.707 655.65,342.917 655.65,350.149 656.225,357.358 657.37,364.499 659.08,371.526 661.342,378.395 664.143,385.063 667.464,391.487 671.286,397.626 675.583,403.443 680.329,408.9 685.493,413.963 691.044,418.6 696.945,422.78 703.16,426.479 709.648,429.672 716.37,432.34 723.283,434.465 730.343,436.034 737.505,437.038 744.724,437.469 751.955,437.325 759.151,436.607 766.268,435.32 773.259,433.471 780.082,431.073 786.693,428.14 793.05,424.691 799.112,420.749 804.843,416.337 810.204,411.483 815.163,406.219 819.689,400.578 823.751,394.595 827.326,388.308 830.389,381.757 832.923,374.983 834.91,368.029 836.338,360.94 837.199,353.759 837.487,346.533 "/>
<circle clip-path="url(#clip982)" style="fill:#009af9; stroke:none; fill-opacity:0" cx="1653.47" cy="1253.47" r="2"/>
<circle clip-path="url(#clip982)" style="fill:#009af9; stroke:none; fill-opacity:0" cx="746.533" cy="346.533" r="2"/>
<path clip-path="url(#clip980)" d="M1836.05 1465.33 L1839.87 1465.33 L1839.87 1452.15 L1835.72 1452.98 L1835.72 1450.86 L1839.85 1450.02 L1842.19 1450.02 L1842.19 1465.33 L1846.01 1465.33 L1846.01 1467.3 L1836.05 1467.3 L1836.05 1465.33 Z" fill="#000000" fill-rule="nonzero" fill-opacity="1" /><path clip-path="url(#clip980)" d="M1854.21 1450.02 L1856.18 1450.02 L1850.16 1469.5 L1848.2 1469.5 L1854.21 1450.02 Z" fill="#000000" fill-rule="nonzero" fill-opacity="1" /><path clip-path="url(#clip980)" d="M1862.2 1450.02 L1864.17 1450.02 L1858.15 1469.5 L1856.18 1469.5 L1862.2 1450.02 Z" fill="#000000" fill-rule="nonzero" fill-opacity="1" /><path clip-path="url(#clip980)" d="M1867.11 1465.33 L1870.93 1465.33 L1870.93 1452.15 L1866.77 1452.98 L1866.77 1450.86 L1870.9 1450.02 L1873.24 1450.02 L1873.24 1465.33 L1877.06 1465.33 L1877.06 1467.3 L1867.11 1467.3 L1867.11 1465.33 Z" fill="#000000" fill-rule="nonzero" fill-opacity="1" /><path clip-path="url(#clip980)" d="M1307.92 678.412 L1311.74 678.412 L1311.74 665.23 L1307.59 666.063 L1307.59 663.933 L1311.72 663.1 L1314.06 663.1 L1314.06 678.412 L1317.88 678.412 L1317.88 680.38 L1307.92 680.38 L1307.92 678.412 Z" fill="#000000" fill-rule="nonzero" fill-opacity="1" /><path clip-path="url(#clip980)" d="M1326.08 663.1 L1328.05 663.1 L1322.03 682.579 L1320.07 682.579 L1326.08 663.1 Z" fill="#000000" fill-rule="nonzero" fill-opacity="1" /><path clip-path="url(#clip980)" d="M1334.07 663.1 L1336.04 663.1 L1330.02 682.579 L1328.05 682.579 L1334.07 663.1 Z" fill="#000000" fill-rule="nonzero" fill-opacity="1" /><path clip-path="url(#clip980)" d="M1338.98 678.412 L1342.8 678.412 L1342.8 665.23 L1338.64 666.063 L1338.64 663.933 L1342.77 663.1 L1345.11 663.1 L1345.11 678.412 L1348.93 678.412 L1348.93 680.38 L1338.98 680.38 L1338.98 678.412 Z" fill="#000000" fill-rule="nonzero" fill-opacity="1" /><path clip-path="url(#clip980)" d="M1646.33 1246.37 Q1644.52 1246.37 1643.61 1248.15 Q1642.7 1249.92 1642.7 1253.48 Q1642.7 1257.04 1643.61 1258.82 Q1644.52 1260.59 1646.33 1260.59 Q1648.14 1260.59 1649.05 1258.82 Q1649.96 1257.04 1649.96 1253.48 Q1649.96 1249.92 1649.05 1248.15 Q1648.14 1246.37 1646.33 1246.37 M1646.33 1244.51 Q1649.23 1244.51 1650.76 1246.82 Q1652.3 1249.11 1652.3 1253.48 Q1652.3 1257.85 1650.76 1260.15 Q1649.23 1262.44 1646.33 1262.44 Q1643.42 1262.44 1641.88 1260.15 Q1640.35 1257.85 1640.35 1253.48 Q1640.35 1249.11 1641.88 1246.82 Q1643.42 1244.51 1646.33 1244.51 Z" fill="#000000" fill-rule="nonzero" fill-opacity="1" /><path clip-path="url(#clip980)" d="M1658.42 1260.14 L1666.58 1260.14 L1666.58 1262.11 L1655.61 1262.11 L1655.61 1260.14 Q1656.94 1258.76 1659.23 1256.45 Q1661.53 1254.12 1662.12 1253.45 Q1663.25 1252.19 1663.69 1251.32 Q1664.14 1250.44 1664.14 1249.6 Q1664.14 1248.22 1663.17 1247.35 Q1662.21 1246.48 1660.65 1246.48 Q1659.56 1246.48 1658.33 1246.86 Q1657.11 1247.25 1655.72 1248.02 L1655.72 1245.66 Q1657.14 1245.09 1658.36 1244.8 Q1659.59 1244.51 1660.61 1244.51 Q1663.29 1244.51 1664.89 1245.86 Q1666.49 1247.2 1666.49 1249.45 Q1666.49 1250.51 1666.08 1251.47 Q1665.69 1252.42 1664.64 1253.72 Q1664.35 1254.05 1662.8 1255.66 Q1661.25 1257.26 1658.42 1260.14 Z" fill="#000000" fill-rule="nonzero" fill-opacity="1" /><path clip-path="url(#clip980)" d="M734.183 353.205 L738.003 353.205 L738.003 340.022 L733.847 340.856 L733.847 338.726 L737.979 337.893 L740.317 337.893 L740.317 353.205 L744.137 353.205 L744.137 355.173 L734.183 355.173 L734.183 353.205 Z" fill="#000000" fill-rule="nonzero" fill-opacity="1" /><path clip-path="url(#clip980)" d="M749.264 353.205 L753.083 353.205 L753.083 340.022 L748.928 340.856 L748.928 338.726 L753.06 337.893 L755.398 337.893 L755.398 353.205 L759.218 353.205 L759.218 355.173 L749.264 355.173 L749.264 353.205 Z" fill="#000000" fill-rule="nonzero" fill-opacity="1" /></svg>
