<?xml version="1.0" encoding="utf-8"?>
<svg xmlns="http://www.w3.org/2000/svg" xmlns:xlink="http://www.w3.org/1999/xlink" width="600" height="400" viewBox="0 0 2400 1600">
<defs>
  <clipPath id="clip190">
    <rect x="0" y="0" width="2400" height="1600"/>
  </clipPath>
</defs>
<path clip-path="url(#clip190)" d="M0 1600 L2400 1600 L2400 0 L0 0  Z" fill="#ffffff" fill-rule="evenodd" fill-opacity="1"/>
<defs>
  <clipPath id="clip191">
    <rect x="480" y="0" width="1681" height="1600"/>
  </clipPath>
</defs>
<path clip-path="url(#clip190)" d="M447.244 1552.76 L1952.76 1552.76 L1952.76 47.2441 L447.244 47.2441  Z" fill="#ffffff" fill-rule="evenodd" fill-opacity="1"/>
<defs>
  <clipPath id="clip192">
    <rect x="447" y="47" width="1507" height="1507"/>
  </clipPath>
</defs>
<polyline clip-path="url(#clip192)" style="stroke:#000000; stroke-linecap:round; stroke-linejoin:round; stroke-width:4; stroke-opacity:1; fill:none" points="1715.11,812.262 1728.66,814.579 1742.15,816.859 1755.5,819.063 1768.67,821.155 1781.59,823.096 1794.19,824.848 1806.42,826.375 1818.2,827.639 1829.48,828.601 1840.19,829.225 1850.27,829.472 1859.65,829.305 1868.28,828.692 1876.15,827.646 1883.26,826.205 1889.62,824.406 1895.24,822.288 1900.13,819.887 1904.29,817.241 1907.74,814.389 1910.48,811.367 1912.53,808.213 1913.88,804.966 1914.55,801.661 1914.55,798.339 1913.88,795.034 1912.53,791.787 1910.48,788.633 1907.74,785.611 1904.29,782.759 1900.13,780.113 1895.24,777.712 1889.62,775.594 1883.26,773.795 1876.15,772.354 1868.28,771.308 1859.65,770.695 1850.27,770.528 1840.19,770.775 1829.48,771.399 1818.2,772.361 1806.42,773.625 1794.19,775.152 1781.59,776.904 1768.67,778.845 1755.5,780.937 1742.15,783.141 1728.66,785.421 1715.11,787.738 "/>
<polyline clip-path="url(#clip192)" style="stroke:#000000; stroke-linecap:round; stroke-linejoin:round; stroke-width:4; stroke-opacity:1; fill:none" points="1753.63,799.411 1715.11,787.738 1747.56,763.926 "/>
<polyline clip-path="url(#clip192)" style="stroke:#000000; stroke-linecap:round; stroke-linejoin:round; stroke-width:4; stroke-opacity:1; fill:none" points="1715.11,787.738 1728.66,785.421 "/>
<polyline clip-path="url(#clip192)" style="stroke:#000000; stroke-linecap:round; stroke-linejoin:round; stroke-width:4; stroke-opacity:1; fill:none" points="1307.05,346.533 1322.99,349.688 1338.91,352.859 1354.76,356.062 1370.53,359.313 1386.17,362.629 1401.67,366.025 1416.99,369.517 1432.09,373.122 1446.96,376.856 1461.55,380.734 1475.85,384.773 1489.82,388.988 1503.43,393.397 1516.65,398.014 1529.45,402.857 1541.8,407.94 1553.67,413.281 1565.03,418.895 1575.85,424.798 1586.11,431.006 1595.76,437.536 1604.78,444.403 1613.15,451.624 1620.83,459.214 1627.79,467.19 1634.03,475.55 1639.58,484.28 1644.47,493.364 1648.74,502.785 1652.41,512.528 1655.5,522.576 1658.06,532.913 1660.11,543.523 1661.68,554.391 1662.79,565.499 1663.49,576.833 1663.8,588.375 1663.76,600.111 1663.38,612.023 1662.7,624.096 1661.75,636.313 1660.56,648.659 1659.17,661.117 1657.59,673.672 1655.86,686.308 1654.02,699.007 1652.08,711.755 1650.09,724.535 1648.06,737.331 "/>
<polyline clip-path="url(#clip192)" style="stroke:#000000; stroke-linecap:round; stroke-linejoin:round; stroke-width:4; stroke-opacity:1; fill:none" points="1671.47,704.589 1648.06,737.331 1635.91,698.959 "/>
<polyline clip-path="url(#clip192)" style="stroke:#000000; stroke-linecap:round; stroke-linejoin:round; stroke-width:4; stroke-opacity:1; fill:none" points="1648.06,737.331 1650.09,724.535 "/>
<polyline clip-path="url(#clip192)" style="stroke:#000000; stroke-linecap:round; stroke-linejoin:round; stroke-width:4; stroke-opacity:1; fill:none" points="1337.5,291.545 1343.83,279.346 1350.11,267.195 1356.27,255.141 1362.28,243.233 1368.06,231.52 1373.56,220.05 1378.74,208.871 1383.53,198.033 1387.88,187.584 1391.73,177.572 1395.04,168.046 1397.74,159.056 1399.78,150.645 1401.18,142.833 1401.97,135.622 1402.2,129.016 1401.89,123.018 1401.09,117.631 1399.84,112.86 1398.17,108.707 1396.13,105.175 1393.75,102.268 1391.06,99.9893 1388.12,98.3424 1384.96,97.3307 1381.6,96.9658 1378.1,97.2669 1374.47,98.2536 1370.76,99.9454 1366.99,102.362 1363.2,105.523 1359.43,109.447 1355.7,114.155 1352.05,119.666 1348.51,125.999 1345.12,133.175 1341.91,141.212 1338.89,150.101 1336.06,159.776 1333.39,170.167 1330.88,181.202 1328.49,192.81 1326.23,204.918 1324.06,217.455 1321.97,230.35 1319.96,243.531 1317.99,256.926 1316.06,270.465 1314.14,284.075 "/>
<polyline clip-path="url(#clip192)" style="stroke:#000000; stroke-linecap:round; stroke-linejoin:round; stroke-width:4; stroke-opacity:1; fill:none" points="1336.98,250.939 1314.14,284.075 1301.34,245.916 "/>
<polyline clip-path="url(#clip192)" style="stroke:#000000; stroke-linecap:round; stroke-linejoin:round; stroke-width:4; stroke-opacity:1; fill:none" points="1314.14,284.075 1316.06,270.465 "/>
<polyline clip-path="url(#clip192)" style="stroke:#000000; stroke-linecap:round; stroke-linejoin:round; stroke-width:4; stroke-opacity:1; fill:none" points="1307.05,346.533 1298.27,360.511 1289.48,374.455 1280.68,388.332 1271.87,402.108 1263.04,415.749 1254.19,429.221 1245.31,442.49 1236.39,455.524 1227.44,468.287 1218.45,480.747 1209.41,492.87 1200.31,504.621 1191.16,515.968 1181.95,526.875 1172.67,537.311 1163.32,547.24 1153.9,556.63 1144.4,565.446 1134.81,573.654 1125.13,581.222 1115.36,588.115 1105.49,594.299 1095.51,599.741 1085.43,604.407 1075.23,608.265 1064.92,611.314 1054.5,613.587 1043.98,615.118 1033.36,615.94 1022.65,616.088 1011.84,615.594 1000.95,614.494 989.982,612.819 978.937,610.605 967.821,607.885 956.64,604.692 945.397,601.061 934.097,597.024 922.745,592.617 911.347,587.872 899.906,582.824 888.427,577.506 876.915,571.951 865.375,566.194 853.811,560.269 842.229,554.208 830.632,548.046 819.026,541.817 807.415,535.554 "/>
<polyline clip-path="url(#clip192)" style="stroke:#000000; stroke-linecap:round; stroke-linejoin:round; stroke-width:4; stroke-opacity:1; fill:none" points="830.554,568.487 807.415,535.554 847.645,536.803 "/>
<polyline clip-path="url(#clip192)" style="stroke:#000000; stroke-linecap:round; stroke-linejoin:round; stroke-width:4; stroke-opacity:1; fill:none" points="807.415,535.554 819.026,541.817 "/>
<polyline clip-path="url(#clip192)" style="stroke:#000000; stroke-linecap:round; stroke-linejoin:round; stroke-width:4; stroke-opacity:1; fill:none" points="1307.05,346.533 1303.88,368.576 1300.69,390.594 1297.45,412.56 1294.14,434.449 1290.73,456.235 1287.21,477.891 1283.54,499.394 1279.7,520.715 1275.67,541.831 1271.43,562.714 1266.95,583.339 1262.2,603.681 1257.17,623.714 1251.82,643.411 1246.15,662.747 1240.11,681.697 1233.69,700.234 1226.86,718.332 1219.61,735.967 1211.9,753.111 1203.71,769.74 1195.01,785.828 1185.8,801.348 1176.03,816.275 1165.69,830.585 1154.77,844.277 1143.31,857.375 1131.32,869.907 1118.83,881.897 1105.86,893.371 1092.43,904.356 1078.58,914.876 1064.32,924.958 1049.67,934.628 1034.67,943.911 1019.33,952.832 1003.68,961.419 987.746,969.696 971.548,977.69 955.11,985.425 938.456,992.929 921.612,1000.23 904.6,1007.34 887.445,1014.31 870.17,1021.14 852.799,1027.87 835.357,1034.52 817.866,1041.12 800.352,1047.7 "/>
<polyline clip-path="url(#clip192)" style="stroke:#000000; stroke-linecap:round; stroke-linejoin:round; stroke-width:4; stroke-opacity:1; fill:none" points="840.382,1051.9 800.352,1047.7 827.729,1018.19 "/>
<polyline clip-path="url(#clip192)" style="stroke:#000000; stroke-linecap:round; stroke-linejoin:round; stroke-width:4; stroke-opacity:1; fill:none" points="800.352,1047.7 817.866,1041.12 "/>
<polyline clip-path="url(#clip192)" style="stroke:#000000; stroke-linecap:round; stroke-linejoin:round; stroke-width:4; stroke-opacity:1; fill:none" points="746.533,519.742 755.315,505.764 764.102,491.819 772.899,477.942 781.709,464.166 790.539,450.526 799.392,437.054 808.273,423.784 817.188,410.75 826.14,397.987 835.134,385.527 844.176,373.404 853.27,361.653 862.42,350.307 871.631,339.399 880.909,328.963 890.257,319.034 899.68,309.644 909.184,300.828 918.773,292.62 928.451,285.052 938.224,278.159 948.095,271.975 958.07,266.533 968.154,261.867 978.35,258.01 988.66,254.961 999.078,252.687 1009.6,251.156 1020.22,250.334 1030.94,250.186 1041.74,250.68 1052.63,251.781 1063.6,253.455 1074.64,255.669 1085.76,258.39 1096.94,261.582 1108.19,265.214 1119.48,269.25 1130.84,273.657 1142.24,278.402 1153.68,283.45 1165.15,288.769 1176.67,294.323 1188.21,300.08 1199.77,306.006 1211.35,312.066 1222.95,318.228 1234.56,324.457 1246.17,330.72 "/>
<polyline clip-path="url(#clip192)" style="stroke:#000000; stroke-linecap:round; stroke-linejoin:round; stroke-width:4; stroke-opacity:1; fill:none" points="1223.03,297.787 1246.17,330.72 1205.94,329.472 "/>
<polyline clip-path="url(#clip192)" style="stroke:#000000; stroke-linecap:round; stroke-linejoin:round; stroke-width:4; stroke-opacity:1; fill:none" points="1246.17,330.72 1234.56,324.457 "/>
<polyline clip-path="url(#clip192)" style="stroke:#000000; stroke-linecap:round; stroke-linejoin:round; stroke-width:4; stroke-opacity:1; fill:none" points="788.862,566.203 775.02,551.56 761.24,537.023 747.586,522.697 734.121,508.688 720.907,495.102 708.009,482.044 695.488,469.62 683.409,457.935 671.833,447.096 660.824,437.207 650.444,428.375 640.757,420.705 631.82,414.291 623.64,409.115 616.199,405.105 609.476,402.188 603.452,400.29 598.11,399.338 593.43,399.26 589.392,399.981 585.978,401.429 583.169,403.53 580.945,406.21 579.287,409.398 578.178,413.019 577.603,417.005 577.559,421.293 578.039,425.821 579.038,430.524 580.551,435.339 582.572,440.204 585.097,445.055 588.119,449.829 591.633,454.464 595.634,458.895 600.116,463.059 605.075,466.894 610.494,470.367 616.337,473.501 622.565,476.328 629.14,478.877 636.024,481.181 643.177,483.269 650.561,485.172 658.139,486.922 665.87,488.548 673.717,490.082 681.641,491.555 689.604,492.997 "/>
<polyline clip-path="url(#clip192)" style="stroke:#000000; stroke-linecap:round; stroke-linejoin:round; stroke-width:4; stroke-opacity:1; fill:none" points="657.388,468.87 689.604,492.997 650.973,504.294 "/>
<polyline clip-path="url(#clip192)" style="stroke:#000000; stroke-linecap:round; stroke-linejoin:round; stroke-width:4; stroke-opacity:1; fill:none" points="689.604,492.997 681.641,491.555 "/>
<polyline clip-path="url(#clip192)" style="stroke:#000000; stroke-linecap:round; stroke-linejoin:round; stroke-width:4; stroke-opacity:1; fill:none" points="746.533,519.742 757.284,531.719 768.001,543.69 778.651,555.651 789.201,567.596 799.617,579.519 809.865,591.416 819.913,603.28 829.725,615.106 839.27,626.889 848.512,638.624 857.42,650.304 865.959,661.926 874.096,673.483 881.797,684.97 889.028,696.381 895.757,707.712 901.95,718.957 907.573,730.11 912.593,741.166 916.976,752.119 920.688,762.965 923.697,773.698 925.968,784.312 927.469,794.803 928.166,805.164 928.061,815.397 927.184,825.505 925.571,835.495 923.253,845.372 920.265,855.141 916.641,864.808 912.413,874.378 907.615,883.856 902.281,893.248 896.444,902.56 890.138,911.796 883.396,920.961 876.252,930.063 868.74,939.105 860.892,948.093 852.743,957.033 844.325,965.929 835.673,974.788 826.82,983.615 817.799,992.414 808.644,1001.19 799.388,1009.95 790.066,1018.71 780.71,1027.45 "/>
<polyline clip-path="url(#clip192)" style="stroke:#000000; stroke-linecap:round; stroke-linejoin:round; stroke-width:4; stroke-opacity:1; fill:none" points="819.301,1016.02 780.71,1027.45 794.717,989.718 "/>
<polyline clip-path="url(#clip192)" style="stroke:#000000; stroke-linecap:round; stroke-linejoin:round; stroke-width:4; stroke-opacity:1; fill:none" points="780.71,1027.45 790.066,1018.71 "/>
<polyline clip-path="url(#clip192)" style="stroke:#000000; stroke-linecap:round; stroke-linejoin:round; stroke-width:4; stroke-opacity:1; fill:none" points="746.533,519.742 749.7,541.785 752.891,563.803 756.13,585.769 759.441,607.658 762.848,629.444 766.374,651.101 770.043,672.603 773.88,693.924 777.909,715.04 782.152,735.923 786.635,756.548 791.381,776.89 796.413,796.923 801.757,816.62 807.435,835.956 813.473,854.906 819.892,873.443 826.719,891.541 833.975,909.176 841.687,926.321 849.876,942.949 858.568,959.037 867.785,974.557 877.553,989.485 887.894,1003.79 898.808,1017.49 910.271,1030.58 922.261,1043.12 934.753,1055.11 947.724,1066.58 961.148,1077.56 975.004,1088.09 989.265,1098.17 1003.91,1107.84 1018.91,1117.12 1034.25,1126.04 1049.9,1134.63 1065.84,1142.91 1082.03,1150.9 1098.47,1158.63 1115.13,1166.14 1131.97,1173.44 1148.98,1180.55 1166.14,1187.51 1183.41,1194.35 1200.78,1201.08 1218.23,1207.73 1235.72,1214.33 1253.23,1220.91 "/>
<polyline clip-path="url(#clip192)" style="stroke:#000000; stroke-linecap:round; stroke-linejoin:round; stroke-width:4; stroke-opacity:1; fill:none" points="1225.85,1191.4 1253.23,1220.91 1213.2,1225.11 "/>
<polyline clip-path="url(#clip192)" style="stroke:#000000; stroke-linecap:round; stroke-linejoin:round; stroke-width:4; stroke-opacity:1; fill:none" points="1253.23,1220.91 1235.72,1214.33 "/>
<polyline clip-path="url(#clip192)" style="stroke:#000000; stroke-linecap:round; stroke-linejoin:round; stroke-width:4; stroke-opacity:1; fill:none" points="746.533,1080.26 749.7,1058.21 752.891,1036.2 756.13,1014.23 759.441,992.342 762.848,970.556 766.374,948.899 770.043,927.397 773.88,906.076 777.909,884.96 782.152,864.077 786.635,843.452 791.381,823.11 796.413,803.077 801.757,783.38 807.435,764.044 813.473,745.094 819.892,726.557 826.719,708.459 833.975,690.824 841.687,673.679 849.876,657.051 858.568,640.963 867.785,625.443 877.553,610.515 887.894,596.206 898.808,582.514 910.271,569.415 922.261,556.884 934.753,544.894 947.724,533.419 961.148,522.435 975.004,511.915 989.265,501.833 1003.91,492.163 1018.91,482.88 1034.25,473.958 1049.9,465.372 1065.84,457.095 1082.03,449.101 1098.47,441.365 1115.13,433.862 1131.97,426.564 1148.98,419.447 1166.14,412.485 1183.41,405.652 1200.78,398.922 1218.23,392.269 1235.72,385.668 1253.23,379.092 "/>
<polyline clip-path="url(#clip192)" style="stroke:#000000; stroke-linecap:round; stroke-linejoin:round; stroke-width:4; stroke-opacity:1; fill:none" points="1213.2,374.894 1253.23,379.092 1225.85,408.597 "/>
<polyline clip-path="url(#clip192)" style="stroke:#000000; stroke-linecap:round; stroke-linejoin:round; stroke-width:4; stroke-opacity:1; fill:none" points="1253.23,379.092 1235.72,385.668 "/>
<polyline clip-path="url(#clip192)" style="stroke:#000000; stroke-linecap:round; stroke-linejoin:round; stroke-width:4; stroke-opacity:1; fill:none" points="746.533,1080.26 735.782,1068.28 725.064,1056.31 714.414,1044.35 703.864,1032.4 693.448,1020.48 683.2,1008.58 673.153,996.72 663.34,984.894 653.796,973.111 644.553,961.376 635.645,949.696 627.106,938.074 618.97,926.517 611.269,915.03 604.037,903.619 597.308,892.288 591.115,881.043 585.492,869.89 580.472,858.834 576.089,847.881 572.377,837.035 569.368,826.302 567.097,815.688 565.596,805.197 564.899,794.836 565.004,784.603 565.881,774.495 567.494,764.505 569.812,754.628 572.8,744.859 576.425,735.192 580.653,725.622 585.45,716.144 590.784,706.752 596.621,697.44 602.927,688.204 609.669,679.039 616.813,669.937 624.325,660.895 632.173,651.907 640.323,642.967 648.74,634.071 657.392,625.212 666.246,616.385 675.266,607.586 684.421,598.808 693.677,590.046 702.999,581.295 712.355,572.549 "/>
<polyline clip-path="url(#clip192)" style="stroke:#000000; stroke-linecap:round; stroke-linejoin:round; stroke-width:4; stroke-opacity:1; fill:none" points="673.764,583.983 712.355,572.549 698.348,610.282 "/>
<polyline clip-path="url(#clip192)" style="stroke:#000000; stroke-linecap:round; stroke-linejoin:round; stroke-width:4; stroke-opacity:1; fill:none" points="712.355,572.549 702.999,581.295 "/>
<polyline clip-path="url(#clip192)" style="stroke:#000000; stroke-linecap:round; stroke-linejoin:round; stroke-width:4; stroke-opacity:1; fill:none" points="746.533,1080.26 755.315,1094.24 764.102,1108.18 772.899,1122.06 781.709,1135.83 790.539,1149.47 799.392,1162.95 808.273,1176.22 817.188,1189.25 826.14,1202.01 835.134,1214.47 844.176,1226.6 853.27,1238.35 862.42,1249.69 871.631,1260.6 880.909,1271.04 890.257,1280.97 899.68,1290.36 909.184,1299.17 918.773,1307.38 928.451,1314.95 938.224,1321.84 948.095,1328.02 958.07,1333.47 968.154,1338.13 978.35,1341.99 988.66,1345.04 999.078,1347.31 1009.6,1348.84 1020.22,1349.67 1030.94,1349.81 1041.74,1349.32 1052.63,1348.22 1063.6,1346.54 1074.64,1344.33 1085.76,1341.61 1096.94,1338.42 1108.19,1334.79 1119.48,1330.75 1130.84,1326.34 1142.24,1321.6 1153.68,1316.55 1165.15,1311.23 1176.67,1305.68 1188.21,1299.92 1199.77,1293.99 1211.35,1287.93 1222.95,1281.77 1234.56,1275.54 1246.17,1269.28 "/>
<polyline clip-path="url(#clip192)" style="stroke:#000000; stroke-linecap:round; stroke-linejoin:round; stroke-width:4; stroke-opacity:1; fill:none" points="1205.94,1270.53 1246.17,1269.28 1223.03,1302.21 "/>
<polyline clip-path="url(#clip192)" style="stroke:#000000; stroke-linecap:round; stroke-linejoin:round; stroke-width:4; stroke-opacity:1; fill:none" points="1246.17,1269.28 1234.56,1275.54 "/>
<polyline clip-path="url(#clip192)" style="stroke:#000000; stroke-linecap:round; stroke-linejoin:round; stroke-width:4; stroke-opacity:1; fill:none" points="1307.05,1253.47 1303.88,1231.42 1300.69,1209.41 1297.45,1187.44 1294.14,1165.55 1290.73,1143.77 1287.21,1122.11 1283.54,1100.61 1279.7,1079.28 1275.67,1058.17 1271.43,1037.29 1266.95,1016.66 1262.2,996.319 1257.17,976.286 1251.82,956.589 1246.15,937.253 1240.11,918.303 1233.69,899.766 1226.86,881.668 1219.61,864.033 1211.9,846.889 1203.71,830.26 1195.01,814.172 1185.8,798.652 1176.03,783.725 1165.69,769.415 1154.77,755.723 1143.31,742.625 1131.32,730.093 1118.83,718.103 1105.86,706.629 1092.43,695.644 1078.58,685.124 1064.32,675.042 1049.67,665.372 1034.67,656.089 1019.33,647.168 1003.68,638.581 987.746,630.304 971.548,622.31 955.11,614.575 938.456,607.071 921.612,599.773 904.6,592.656 887.445,585.694 870.17,578.861 852.799,572.131 835.357,565.478 817.866,558.877 800.352,552.301 "/>
<polyline clip-path="url(#clip192)" style="stroke:#000000; stroke-linecap:round; stroke-linejoin:round; stroke-width:4; stroke-opacity:1; fill:none" points="827.729,581.806 800.352,552.301 840.382,548.103 "/>
<polyline clip-path="url(#clip192)" style="stroke:#000000; stroke-linecap:round; stroke-linejoin:round; stroke-width:4; stroke-opacity:1; fill:none" points="800.352,552.301 817.866,558.877 "/>
<polyline clip-path="url(#clip192)" style="stroke:#000000; stroke-linecap:round; stroke-linejoin:round; stroke-width:4; stroke-opacity:1; fill:none" points="1307.05,1253.47 1298.27,1239.49 1289.48,1225.54 1280.68,1211.67 1271.87,1197.89 1263.04,1184.25 1254.19,1170.78 1245.31,1157.51 1236.39,1144.48 1227.44,1131.71 1218.45,1119.25 1209.41,1107.13 1200.31,1095.38 1191.16,1084.03 1181.95,1073.12 1172.67,1062.69 1163.32,1052.76 1153.9,1043.37 1144.4,1034.55 1134.81,1026.35 1125.13,1018.78 1115.36,1011.89 1105.49,1005.7 1095.51,1000.26 1085.43,995.593 1075.23,991.735 1064.92,988.686 1054.5,986.413 1043.98,984.882 1033.36,984.06 1022.65,983.912 1011.84,984.406 1000.95,985.506 989.982,987.181 978.937,989.395 967.821,992.115 956.64,995.308 945.397,998.939 934.097,1002.98 922.745,1007.38 911.347,1012.13 899.906,1017.18 888.427,1022.49 876.915,1028.05 865.375,1033.81 853.811,1039.73 842.229,1045.79 830.632,1051.95 819.026,1058.18 807.415,1064.45 "/>
<polyline clip-path="url(#clip192)" style="stroke:#000000; stroke-linecap:round; stroke-linejoin:round; stroke-width:4; stroke-opacity:1; fill:none" points="847.645,1063.2 807.415,1064.45 830.554,1031.51 "/>
<polyline clip-path="url(#clip192)" style="stroke:#000000; stroke-linecap:round; stroke-linejoin:round; stroke-width:4; stroke-opacity:1; fill:none" points="807.415,1064.45 819.026,1058.18 "/>
<polyline clip-path="url(#clip192)" style="stroke:#000000; stroke-linecap:round; stroke-linejoin:round; stroke-width:4; stroke-opacity:1; fill:none" points="1314.14,1315.92 1316.06,1329.53 1317.99,1343.07 1319.96,1356.47 1321.97,1369.65 1324.06,1382.55 1326.23,1395.08 1328.49,1407.19 1330.88,1418.8 1333.39,1429.83 1336.06,1440.22 1338.89,1449.9 1341.91,1458.79 1345.12,1466.83 1348.51,1474 1352.05,1480.33 1355.7,1485.84 1359.43,1490.55 1363.2,1494.48 1366.99,1497.64 1370.76,1500.05 1374.47,1501.75 1378.1,1502.73 1381.6,1503.03 1384.96,1502.67 1388.12,1501.66 1391.06,1500.01 1393.75,1497.73 1396.13,1494.83 1398.17,1491.29 1399.84,1487.14 1401.09,1482.37 1401.89,1476.98 1402.2,1470.98 1401.97,1464.38 1401.18,1457.17 1399.78,1449.35 1397.74,1440.94 1395.04,1431.95 1391.73,1422.43 1387.88,1412.42 1383.53,1401.97 1378.74,1391.13 1373.56,1379.95 1368.06,1368.48 1362.28,1356.77 1356.27,1344.86 1350.11,1332.81 1343.83,1320.65 1337.5,1308.45 "/>
<polyline clip-path="url(#clip192)" style="stroke:#000000; stroke-linecap:round; stroke-linejoin:round; stroke-width:4; stroke-opacity:1; fill:none" points="1338.11,1348.7 1337.5,1308.45 1370.06,1332.11 "/>
<polyline clip-path="url(#clip192)" style="stroke:#000000; stroke-linecap:round; stroke-linejoin:round; stroke-width:4; stroke-opacity:1; fill:none" points="1337.5,1308.45 1343.83,1320.65 "/>
<path clip-path="url(#clip192)" d="M1881.56 819.075 L1947.55 819.075 L1947.55 784.248 L1881.56 784.248 L1881.56 819.075 L1881.56 819.075  Z" fill="#ffffff" fill-rule="evenodd" fill-opacity="1"/>
<polyline clip-path="url(#clip192)" style="stroke:#000000; stroke-linecap:round; stroke-linejoin:round; stroke-width:0; stroke-opacity:0; fill:none" points="1881.56,819.075 1947.55,819.075 1947.55,784.248 1881.56,784.248 1881.56,819.075 "/>
<path clip-path="url(#clip192)" d="M1584.96 480.566 L1663.84 480.566 L1663.84 445.74 L1584.96 445.74 L1584.96 480.566 L1584.96 480.566  Z" fill="#ffffff" fill-rule="evenodd" fill-opacity="1"/>
<polyline clip-path="url(#clip192)" style="stroke:#000000; stroke-linecap:round; stroke-linejoin:round; stroke-width:0; stroke-opacity:0; fill:none" points="1584.96,480.566 1663.84,480.566 1663.84,445.74 1584.96,445.74 1584.96,480.566 "/>
<path clip-path="url(#clip192)" d="M1348.68 115.756 L1427.56 115.756 L1427.56 80.9292 L1348.68 80.9292 L1348.68 115.756 L1348.68 115.756  Z" fill="#ffffff" fill-rule="evenodd" fill-opacity="1"/>
<polyline clip-path="url(#clip192)" style="stroke:#000000; stroke-linecap:round; stroke-linejoin:round; stroke-width:0; stroke-opacity:0; fill:none" points="1348.68,115.756 1427.56,115.756 1427.56,80.9292 1348.68,80.9292 1348.68,115.756 "/>
<path clip-path="url(#clip192)" d="M1047.35 623.852 L1113.34 623.852 L1113.34 589.025 L1047.35 589.025 L1047.35 623.852 L1047.35 623.852  Z" fill="#ffffff" fill-rule="evenodd" fill-opacity="1"/>
<polyline clip-path="url(#clip192)" style="stroke:#000000; stroke-linecap:round; stroke-linejoin:round; stroke-width:0; stroke-opacity:0; fill:none" points="1047.35,623.852 1113.34,623.852 1113.34,589.025 1047.35,589.025 1047.35,623.852 "/>
<path clip-path="url(#clip192)" d="M1137.94 840.922 L1203.92 840.922 L1203.92 806.095 L1137.94 806.095 L1137.94 840.922 L1137.94 840.922  Z" fill="#ffffff" fill-rule="evenodd" fill-opacity="1"/>
<polyline clip-path="url(#clip192)" style="stroke:#000000; stroke-linecap:round; stroke-linejoin:round; stroke-width:0; stroke-opacity:0; fill:none" points="1137.94,840.922 1203.92,840.922 1203.92,806.095 1137.94,806.095 1137.94,840.922 "/>
<path clip-path="url(#clip192)" d="M940.246 277.249 L1006.23 277.249 L1006.23 242.423 L940.246 242.423 L940.246 277.249 L940.246 277.249  Z" fill="#ffffff" fill-rule="evenodd" fill-opacity="1"/>
<polyline clip-path="url(#clip192)" style="stroke:#000000; stroke-linecap:round; stroke-linejoin:round; stroke-width:0; stroke-opacity:0; fill:none" points="940.246,277.249 1006.23,277.249 1006.23,242.423 940.246,242.423 940.246,277.249 "/>
<path clip-path="url(#clip192)" d="M539.848 426.811 L618.727 426.811 L618.727 391.985 L539.848 391.985 L539.848 426.811 L539.848 426.811  Z" fill="#ffffff" fill-rule="evenodd" fill-opacity="1"/>
<polyline clip-path="url(#clip192)" style="stroke:#000000; stroke-linecap:round; stroke-linejoin:round; stroke-width:0; stroke-opacity:0; fill:none" points="539.848,426.811 618.727,426.811 618.727,391.985 539.848,391.985 539.848,426.811 "/>
<path clip-path="url(#clip192)" d="M894.928 817.413 L960.911 817.413 L960.911 782.587 L894.928 782.587 L894.928 817.413 L894.928 817.413  Z" fill="#ffffff" fill-rule="evenodd" fill-opacity="1"/>
<polyline clip-path="url(#clip192)" style="stroke:#000000; stroke-linecap:round; stroke-linejoin:round; stroke-width:0; stroke-opacity:0; fill:none" points="894.928,817.413 960.911,817.413 960.911,782.587 894.928,782.587 894.928,817.413 "/>
<path clip-path="url(#clip192)" d="M843.211 1014.13 L922.091 1014.13 L922.091 979.305 L843.211 979.305 L843.211 1014.13 L843.211 1014.13  Z" fill="#ffffff" fill-rule="evenodd" fill-opacity="1"/>
<polyline clip-path="url(#clip192)" style="stroke:#000000; stroke-linecap:round; stroke-linejoin:round; stroke-width:0; stroke-opacity:0; fill:none" points="843.211,1014.13 922.091,1014.13 922.091,979.305 843.211,979.305 843.211,1014.13 "/>
<path clip-path="url(#clip192)" d="M849.659 620.695 L915.643 620.695 L915.643 585.869 L849.659 585.869 L849.659 620.695 L849.659 620.695  Z" fill="#ffffff" fill-rule="evenodd" fill-opacity="1"/>
<polyline clip-path="url(#clip192)" style="stroke:#000000; stroke-linecap:round; stroke-linejoin:round; stroke-width:0; stroke-opacity:0; fill:none" points="849.659,620.695 915.643,620.695 915.643,585.869 849.659,585.869 849.659,620.695 "/>
<path clip-path="url(#clip192)" d="M532.154 817.413 L598.137 817.413 L598.137 782.587 L532.154 782.587 L532.154 817.413 L532.154 817.413  Z" fill="#ffffff" fill-rule="evenodd" fill-opacity="1"/>
<polyline clip-path="url(#clip192)" style="stroke:#000000; stroke-linecap:round; stroke-linejoin:round; stroke-width:0; stroke-opacity:0; fill:none" points="532.154,817.413 598.137,817.413 598.137,782.587 532.154,782.587 532.154,817.413 "/>
<path clip-path="url(#clip192)" d="M940.246 1357.58 L1006.23 1357.58 L1006.23 1322.75 L940.246 1322.75 L940.246 1357.58 L940.246 1357.58  Z" fill="#ffffff" fill-rule="evenodd" fill-opacity="1"/>
<polyline clip-path="url(#clip192)" style="stroke:#000000; stroke-linecap:round; stroke-linejoin:round; stroke-width:0; stroke-opacity:0; fill:none" points="940.246,1357.58 1006.23,1357.58 1006.23,1322.75 940.246,1322.75 940.246,1357.58 "/>
<path clip-path="url(#clip192)" d="M1137.94 793.905 L1203.92 793.905 L1203.92 759.078 L1137.94 759.078 L1137.94 793.905 L1137.94 793.905  Z" fill="#ffffff" fill-rule="evenodd" fill-opacity="1"/>
<polyline clip-path="url(#clip192)" style="stroke:#000000; stroke-linecap:round; stroke-linejoin:round; stroke-width:0; stroke-opacity:0; fill:none" points="1137.94,793.905 1203.92,793.905 1203.92,759.078 1137.94,759.078 1137.94,793.905 "/>
<path clip-path="url(#clip192)" d="M1047.35 1010.97 L1113.34 1010.97 L1113.34 976.148 L1047.35 976.148 L1047.35 1010.97 L1047.35 1010.97  Z" fill="#ffffff" fill-rule="evenodd" fill-opacity="1"/>
<polyline clip-path="url(#clip192)" style="stroke:#000000; stroke-linecap:round; stroke-linejoin:round; stroke-width:0; stroke-opacity:0; fill:none" points="1047.35,1010.97 1113.34,1010.97 1113.34,976.148 1047.35,976.148 1047.35,1010.97 "/>
<path clip-path="url(#clip192)" d="M1351.96 1520.08 L1417.95 1520.08 L1417.95 1485.26 L1351.96 1485.26 L1351.96 1520.08 L1351.96 1520.08  Z" fill="#ffffff" fill-rule="evenodd" fill-opacity="1"/>
<polyline clip-path="url(#clip192)" style="stroke:#000000; stroke-linecap:round; stroke-linejoin:round; stroke-width:0; stroke-opacity:0; fill:none" points="1351.96,1520.08 1417.95,1520.08 1417.95,1485.26 1351.96,1485.26 1351.96,1520.08 "/>
<path clip-path="url(#clip192)" d="M1716.37 800 L1716.17 795.002 L1715.58 790.036 L1714.59 785.133 L1713.21 780.324 L1711.46 775.64 L1709.34 771.109 L1706.87 766.761 L1704.06 762.623 L1700.93 758.722 L1697.5 755.081 L1693.79 751.725 L1689.83 748.674 L1685.64 745.947 L1681.24 743.562 L1676.67 741.533 L1671.95 739.875 L1667.12 738.596 L1662.19 737.706 L1657.22 737.21 L1652.22 737.11 L1647.22 737.408 L1642.27 738.102 L1637.39 739.188 L1632.61 740.657 L1627.96 742.502 L1623.47 744.711 L1619.17 747.269 L1615.09 750.16 L1611.25 753.366 L1607.68 756.868 L1604.4 760.642 L1601.43 764.664 L1598.79 768.911 L1596.49 773.353 L1594.55 777.965 L1592.99 782.715 L1591.8 787.575 L1591.01 792.513 L1590.61 797.499 L1590.61 802.501 L1591.01 807.487 L1591.8 812.425 L1592.99 817.285 L1594.55 822.035 L1596.49 826.647 L1598.79 831.089 L1601.43 835.336 L1604.4 839.358 L1607.68 843.132 L1611.25 846.634 L1615.09 849.84 L1619.17 852.731 L1623.47 855.289 L1627.96 857.498 L1632.61 859.343 L1637.39 860.812 L1642.27 861.898 L1647.22 862.592 L1652.22 862.89 L1657.22 862.79 L1662.19 862.294 L1667.12 861.404 L1671.95 860.125 L1676.67 858.467 L1681.24 856.438 L1685.64 854.053 L1689.83 851.326 L1693.79 848.275 L1697.5 844.919 L1700.93 841.278 L1704.06 837.377 L1706.87 833.239 L1709.34 828.891 L1711.46 824.36 L1713.21 819.676 L1714.59 814.867 L1715.58 809.964 L1716.17 804.998 L1716.37 800 L1716.37 800  Z" fill="#009af9" fill-rule="evenodd" fill-opacity="1"/>
<polyline clip-path="url(#clip192)" style="stroke:#000000; stroke-linecap:round; stroke-linejoin:round; stroke-width:4; stroke-opacity:1; fill:none" points="1716.37,800 1716.17,795.002 1715.58,790.036 1714.59,785.133 1713.21,780.324 1711.46,775.64 1709.34,771.109 1706.87,766.761 1704.06,762.623 1700.93,758.722 1697.5,755.081 1693.79,751.725 1689.83,748.674 1685.64,745.947 1681.24,743.562 1676.67,741.533 1671.95,739.875 1667.12,738.596 1662.19,737.706 1657.22,737.21 1652.22,737.11 1647.22,737.408 1642.27,738.102 1637.39,739.188 1632.61,740.657 1627.96,742.502 1623.47,744.711 1619.17,747.269 1615.09,750.16 1611.25,753.366 1607.68,756.868 1604.4,760.642 1601.43,764.664 1598.79,768.911 1596.49,773.353 1594.55,777.965 1592.99,782.715 1591.8,787.575 1591.01,792.513 1590.61,797.499 1590.61,802.501 1591.01,807.487 1591.8,812.425 1592.99,817.285 1594.55,822.035 1596.49,826.647 1598.79,831.089 1601.43,835.336 1604.4,839.358 1607.68,843.132 1611.25,846.634 1615.09,849.84 1619.17,852.731 1623.47,855.289 1627.96,857.498 1632.61,859.343 1637.39,860.812 1642.27,861.898 1647.22,862.592 1652.22,862.89 1657.22,862.79 1662.19,862.294 1667.12,861.404 1671.95,860.125 1676.67,858.467 1681.24,856.438 1685.64,854.053 1689.83,851.326 1693.79,848.275 1697.5,844.919 1700.93,841.278 1704.06,837.377 1706.87,833.239 1709.34,828.891 1711.46,824.36 1713.21,819.676 1714.59,814.867 1715.58,809.964 1716.17,804.998 1716.37,800 "/>
<path clip-path="url(#clip192)" d="M1369.95 346.533 L1369.75 341.535 L1369.16 336.569 L1368.17 331.666 L1366.79 326.857 L1365.04 322.172 L1362.92 317.642 L1360.45 313.294 L1357.64 309.156 L1354.51 305.255 L1351.08 301.614 L1347.38 298.258 L1343.41 295.206 L1339.22 292.479 L1334.82 290.094 L1330.25 288.066 L1325.53 286.407 L1320.7 285.129 L1315.78 284.239 L1310.8 283.742 L1305.8 283.643 L1300.81 283.941 L1295.85 284.635 L1290.97 285.72 L1286.19 287.19 L1281.54 289.035 L1277.05 291.243 L1272.76 293.801 L1268.67 296.692 L1264.84 299.899 L1261.26 303.4 L1257.98 307.174 L1255.01 311.197 L1252.37 315.443 L1250.07 319.886 L1248.13 324.497 L1246.57 329.248 L1245.39 334.108 L1244.59 339.046 L1244.2 344.032 L1244.2 349.033 L1244.59 354.019 L1245.39 358.957 L1246.57 363.817 L1248.13 368.568 L1250.07 373.179 L1252.37 377.622 L1255.01 381.868 L1257.98 385.891 L1261.26 389.665 L1264.84 393.166 L1268.67 396.373 L1272.76 399.264 L1277.05 401.822 L1281.54 404.03 L1286.19 405.875 L1290.97 407.345 L1295.85 408.43 L1300.81 409.124 L1305.8 409.422 L1310.8 409.323 L1315.78 408.826 L1320.7 407.936 L1325.53 406.658 L1330.25 404.999 L1334.82 402.971 L1339.22 400.586 L1343.41 397.859 L1347.38 394.808 L1351.08 391.451 L1354.51 387.811 L1357.64 383.909 L1360.45 379.771 L1362.92 375.423 L1365.04 370.893 L1366.79 366.208 L1368.17 361.399 L1369.16 356.496 L1369.75 351.53 L1369.95 346.533 L1369.95 346.533  Z" fill="#009af9" fill-rule="evenodd" fill-opacity="1"/>
<polyline clip-path="url(#clip192)" style="stroke:#000000; stroke-linecap:round; stroke-linejoin:round; stroke-width:4; stroke-opacity:1; fill:none" points="1369.95,346.533 1369.75,341.535 1369.16,336.569 1368.17,331.666 1366.79,326.857 1365.04,322.172 1362.92,317.642 1360.45,313.294 1357.64,309.156 1354.51,305.255 1351.08,301.614 1347.38,298.258 1343.41,295.206 1339.22,292.479 1334.82,290.094 1330.25,288.066 1325.53,286.407 1320.7,285.129 1315.78,284.239 1310.8,283.742 1305.8,283.643 1300.81,283.941 1295.85,284.635 1290.97,285.72 1286.19,287.19 1281.54,289.035 1277.05,291.243 1272.76,293.801 1268.67,296.692 1264.84,299.899 1261.26,303.4 1257.98,307.174 1255.01,311.197 1252.37,315.443 1250.07,319.886 1248.13,324.497 1246.57,329.248 1245.39,334.108 1244.59,339.046 1244.2,344.032 1244.2,349.033 1244.59,354.019 1245.39,358.957 1246.57,363.817 1248.13,368.568 1250.07,373.179 1252.37,377.622 1255.01,381.868 1257.98,385.891 1261.26,389.665 1264.84,393.166 1268.67,396.373 1272.76,399.264 1277.05,401.822 1281.54,404.03 1286.19,405.875 1290.97,407.345 1295.85,408.43 1300.81,409.124 1305.8,409.422 1310.8,409.323 1315.78,408.826 1320.7,407.936 1325.53,406.658 1330.25,404.999 1334.82,402.971 1339.22,400.586 1343.41,397.859 1347.38,394.808 1351.08,391.451 1354.51,387.811 1357.64,383.909 1360.45,379.771 1362.92,375.423 1365.04,370.893 1366.79,366.208 1368.17,361.399 1369.16,356.496 1369.75,351.53 1369.95,346.533 "/>
<path clip-path="url(#clip192)" d="M809.435 519.742 L809.236 514.744 L808.641 509.778 L807.653 504.875 L806.278 500.066 L804.526 495.382 L802.407 490.851 L799.935 486.503 L797.126 482.365 L793.996 478.464 L790.567 474.823 L786.859 471.467 L782.896 468.415 L778.703 465.689 L774.307 463.303 L769.735 461.275 L765.016 459.617 L760.181 458.338 L755.259 457.448 L750.283 456.951 L745.282 456.852 L740.289 457.15 L735.336 457.844 L730.454 458.929 L725.673 460.399 L721.024 462.244 L716.537 464.452 L712.239 467.01 L708.158 469.902 L704.319 473.108 L700.747 476.609 L697.465 480.383 L694.493 484.406 L691.85 488.652 L689.553 493.095 L687.616 497.706 L686.052 502.457 L684.87 507.317 L684.078 512.255 L683.68 517.241 L683.68 522.242 L684.078 527.228 L684.87 532.167 L686.052 537.026 L687.616 541.777 L689.553 546.388 L691.85 550.831 L694.493 555.077 L697.465 559.1 L700.747 562.874 L704.319 566.375 L708.158 569.582 L712.239 572.473 L716.537 575.031 L721.024 577.24 L725.673 579.084 L730.454 580.554 L735.336 581.639 L740.289 582.333 L745.282 582.631 L750.283 582.532 L755.259 582.036 L760.181 581.145 L765.016 579.867 L769.735 578.208 L774.307 576.18 L778.703 573.795 L782.896 571.068 L786.859 568.017 L790.567 564.66 L793.996 561.02 L797.126 557.118 L799.935 552.98 L802.407 548.633 L804.526 544.102 L806.278 539.417 L807.653 534.608 L808.641 529.705 L809.236 524.739 L809.435 519.742 L809.435 519.742  Z" fill="#009af9" fill-rule="evenodd" fill-opacity="1"/>
<polyline clip-path="url(#clip192)" style="stroke:#000000; stroke-linecap:round; stroke-linejoin:round; stroke-width:4; stroke-opacity:1; fill:none" points="809.435,519.742 809.236,514.744 808.641,509.778 807.653,504.875 806.278,500.066 804.526,495.382 802.407,490.851 799.935,486.503 797.126,482.365 793.996,478.464 790.567,474.823 786.859,471.467 782.896,468.415 778.703,465.689 774.307,463.303 769.735,461.275 765.016,459.617 760.181,458.338 755.259,457.448 750.283,456.951 745.282,456.852 740.289,457.15 735.336,457.844 730.454,458.929 725.673,460.399 721.024,462.244 716.537,464.452 712.239,467.01 708.158,469.902 704.319,473.108 700.747,476.609 697.465,480.383 694.493,484.406 691.85,488.652 689.553,493.095 687.616,497.706 686.052,502.457 684.87,507.317 684.078,512.255 683.68,517.241 683.68,522.242 684.078,527.228 684.87,532.167 686.052,537.026 687.616,541.777 689.553,546.388 691.85,550.831 694.493,555.077 697.465,559.1 700.747,562.874 704.319,566.375 708.158,569.582 712.239,572.473 716.537,575.031 721.024,577.24 725.673,579.084 730.454,580.554 735.336,581.639 740.289,582.333 745.282,582.631 750.283,582.532 755.259,582.036 760.181,581.145 765.016,579.867 769.735,578.208 774.307,576.18 778.703,573.795 782.896,571.068 786.859,568.017 790.567,564.66 793.996,561.02 797.126,557.118 799.935,552.98 802.407,548.633 804.526,544.102 806.278,539.417 807.653,534.608 808.641,529.705 809.236,524.739 809.435,519.742 "/>
<path clip-path="url(#clip192)" d="M809.435 1080.26 L809.236 1075.26 L808.641 1070.29 L807.653 1065.39 L806.278 1060.58 L804.526 1055.9 L802.407 1051.37 L799.935 1047.02 L797.126 1042.88 L793.996 1038.98 L790.567 1035.34 L786.859 1031.98 L782.896 1028.93 L778.703 1026.21 L774.307 1023.82 L769.735 1021.79 L765.016 1020.13 L760.181 1018.85 L755.259 1017.96 L750.283 1017.47 L745.282 1017.37 L740.289 1017.67 L735.336 1018.36 L730.454 1019.45 L725.673 1020.92 L721.024 1022.76 L716.537 1024.97 L712.239 1027.53 L708.158 1030.42 L704.319 1033.62 L700.747 1037.13 L697.465 1040.9 L694.493 1044.92 L691.85 1049.17 L689.553 1053.61 L687.616 1058.22 L686.052 1062.97 L684.87 1067.83 L684.078 1072.77 L683.68 1077.76 L683.68 1082.76 L684.078 1087.74 L684.87 1092.68 L686.052 1097.54 L687.616 1102.29 L689.553 1106.9 L691.85 1111.35 L694.493 1115.59 L697.465 1119.62 L700.747 1123.39 L704.319 1126.89 L708.158 1130.1 L712.239 1132.99 L716.537 1135.55 L721.024 1137.76 L725.673 1139.6 L730.454 1141.07 L735.336 1142.16 L740.289 1142.85 L745.282 1143.15 L750.283 1143.05 L755.259 1142.55 L760.181 1141.66 L765.016 1140.38 L769.735 1138.72 L774.307 1136.7 L778.703 1134.31 L782.896 1131.58 L786.859 1128.53 L790.567 1125.18 L793.996 1121.54 L797.126 1117.63 L799.935 1113.5 L802.407 1109.15 L804.526 1104.62 L806.278 1099.93 L807.653 1095.12 L808.641 1090.22 L809.236 1085.26 L809.435 1080.26 L809.435 1080.26  Z" fill="#009af9" fill-rule="evenodd" fill-opacity="1"/>
<polyline clip-path="url(#clip192)" style="stroke:#000000; stroke-linecap:round; stroke-linejoin:round; stroke-width:4; stroke-opacity:1; fill:none" points="809.435,1080.26 809.236,1075.26 808.641,1070.29 807.653,1065.39 806.278,1060.58 804.526,1055.9 802.407,1051.37 799.935,1047.02 797.126,1042.88 793.996,1038.98 790.567,1035.34 786.859,1031.98 782.896,1028.93 778.703,1026.21 774.307,1023.82 769.735,1021.79 765.016,1020.13 760.181,1018.85 755.259,1017.96 750.283,1017.47 745.282,1017.37 740.289,1017.67 735.336,1018.36 730.454,1019.45 725.673,1020.92 721.024,1022.76 716.537,1024.97 712.239,1027.53 708.158,1030.42 704.319,1033.62 700.747,1037.13 697.465,1040.9 694.493,1044.92 691.85,1049.17 689.553,1053.61 687.616,1058.22 686.052,1062.97 684.87,1067.83 684.078,1072.77 683.68,1077.76 683.68,1082.76 684.078,1087.74 684.87,1092.68 686.052,1097.54 687.616,1102.29 689.553,1106.9 691.85,1111.35 694.493,1115.59 697.465,1119.62 700.747,1123.39 704.319,1126.89 708.158,1130.1 712.239,1132.99 716.537,1135.55 721.024,1137.76 725.673,1139.6 730.454,1141.07 735.336,1142.16 740.289,1142.85 745.282,1143.15 750.283,1143.05 755.259,1142.55 760.181,1141.66 765.016,1140.38 769.735,1138.72 774.307,1136.7 778.703,1134.31 782.896,1131.58 786.859,1128.53 790.567,1125.18 793.996,1121.54 797.126,1117.63 799.935,1113.5 802.407,1109.15 804.526,1104.62 806.278,1099.93 807.653,1095.12 808.641,1090.22 809.236,1085.26 809.435,1080.26 "/>
<path clip-path="url(#clip192)" d="M1369.95 1253.47 L1369.75 1248.47 L1369.16 1243.5 L1368.17 1238.6 L1366.79 1233.79 L1365.04 1229.11 L1362.92 1224.58 L1360.45 1220.23 L1357.64 1216.09 L1354.51 1212.19 L1351.08 1208.55 L1347.38 1205.19 L1343.41 1202.14 L1339.22 1199.41 L1334.82 1197.03 L1330.25 1195 L1325.53 1193.34 L1320.7 1192.06 L1315.78 1191.17 L1310.8 1190.68 L1305.8 1190.58 L1300.81 1190.88 L1295.85 1191.57 L1290.97 1192.65 L1286.19 1194.12 L1281.54 1195.97 L1277.05 1198.18 L1272.76 1200.74 L1268.67 1203.63 L1264.84 1206.83 L1261.26 1210.34 L1257.98 1214.11 L1255.01 1218.13 L1252.37 1222.38 L1250.07 1226.82 L1248.13 1231.43 L1246.57 1236.18 L1245.39 1241.04 L1244.59 1245.98 L1244.2 1250.97 L1244.2 1255.97 L1244.59 1260.95 L1245.39 1265.89 L1246.57 1270.75 L1248.13 1275.5 L1250.07 1280.11 L1252.37 1284.56 L1255.01 1288.8 L1257.98 1292.83 L1261.26 1296.6 L1264.84 1300.1 L1268.67 1303.31 L1272.76 1306.2 L1277.05 1308.76 L1281.54 1310.97 L1286.19 1312.81 L1290.97 1314.28 L1295.85 1315.37 L1300.81 1316.06 L1305.8 1316.36 L1310.8 1316.26 L1315.78 1315.76 L1320.7 1314.87 L1325.53 1313.59 L1330.25 1311.93 L1334.82 1309.91 L1339.22 1307.52 L1343.41 1304.79 L1347.38 1301.74 L1351.08 1298.39 L1354.51 1294.75 L1357.64 1290.84 L1360.45 1286.71 L1362.92 1282.36 L1365.04 1277.83 L1366.79 1273.14 L1368.17 1268.33 L1369.16 1263.43 L1369.75 1258.47 L1369.95 1253.47 L1369.95 1253.47  Z" fill="#009af9" fill-rule="evenodd" fill-opacity="1"/>
<polyline clip-path="url(#clip192)" style="stroke:#000000; stroke-linecap:round; stroke-linejoin:round; stroke-width:4; stroke-opacity:1; fill:none" points="1369.95,1253.47 1369.75,1248.47 1369.16,1243.5 1368.17,1238.6 1366.79,1233.79 1365.04,1229.11 1362.92,1224.58 1360.45,1220.23 1357.64,1216.09 1354.51,1212.19 1351.08,1208.55 1347.38,1205.19 1343.41,1202.14 1339.22,1199.41 1334.82,1197.03 1330.25,1195 1325.53,1193.34 1320.7,1192.06 1315.78,1191.17 1310.8,1190.68 1305.8,1190.58 1300.81,1190.88 1295.85,1191.57 1290.97,1192.65 1286.19,1194.12 1281.54,1195.97 1277.05,1198.18 1272.76,1200.74 1268.67,1203.63 1264.84,1206.83 1261.26,1210.34 1257.98,1214.11 1255.01,1218.13 1252.37,1222.38 1250.07,1226.82 1248.13,1231.43 1246.57,1236.18 1245.39,1241.04 1244.59,1245.98 1244.2,1250.97 1244.2,1255.97 1244.59,1260.95 1245.39,1265.89 1246.57,1270.75 1248.13,1275.5 1250.07,1280.11 1252.37,1284.56 1255.01,1288.8 1257.98,1292.83 1261.26,1296.6 1264.84,1300.1 1268.67,1303.31 1272.76,1306.2 1277.05,1308.76 1281.54,1310.97 1286.19,1312.81 1290.97,1314.28 1295.85,1315.37 1300.81,1316.06 1305.8,1316.36 1310.8,1316.26 1315.78,1315.76 1320.7,1314.87 1325.53,1313.59 1330.25,1311.93 1334.82,1309.91 1339.22,1307.52 1343.41,1304.79 1347.38,1301.74 1351.08,1298.39 1354.51,1294.75 1357.64,1290.84 1360.45,1286.71 1362.92,1282.36 1365.04,1277.83 1366.79,1273.14 1368.17,1268.33 1369.16,1263.43 1369.75,1258.47 1369.95,1253.47 "/>
<circle clip-path="url(#clip192)" style="fill:#009af9; stroke:none; fill-opacity:0" cx="1653.47" cy="800" r="2"/>
<circle clip-path="url(#clip192)" style="fill:#009af9; stroke:none; fill-opacity:0" cx="1307.05" cy="346.533" r="2"/>
<circle clip-path="url(#clip192)" style="fill:#009af9; stroke:none; fill-opacity:0" cx="746.533" cy="519.742" r="2"/>
<circle clip-path="url(#clip192)" style="fill:#009af9; stroke:none; fill-opacity:0" cx="746.533" cy="1080.26" r="2"/>
<circle clip-path="url(#clip192)" style="fill:#009af9; stroke:none; fill-opacity:0" cx="1307.05" cy="1253.47" r="2"/>
<path clip-path="url(#clip190)" d="M1894.22 808.334 L1898.04 808.334 L1898.04 795.151 L1893.88 795.984 L1893.88 793.855 L1898.02 793.021 L1900.35 793.021 L1900.35 808.334 L1904.17 808.334 L1904.17 810.301 L1894.22 810.301 L1894.22 808.334 Z" fill="#000000" fill-rule="nonzero" fill-opacity="1" /><path clip-path="url(#clip190)" d="M1912.38 793.021 L1914.35 793.021 L1908.33 812.501 L1906.36 812.501 L1912.38 793.021 Z" fill="#000000" fill-rule="nonzero" fill-opacity="1" /><path clip-path="url(#clip190)" d="M1920.36 793.021 L1922.33 793.021 L1916.31 812.501 L1914.35 812.501 L1920.36 793.021 Z" fill="#000000" fill-rule="nonzero" fill-opacity="1" /><path clip-path="url(#clip190)" d="M1925.27 808.334 L1929.09 808.334 L1929.09 795.151 L1924.94 795.984 L1924.94 793.855 L1929.07 793.021 L1931.41 793.021 L1931.41 808.334 L1935.23 808.334 L1935.23 810.301 L1925.27 810.301 L1925.27 808.334 Z" fill="#000000" fill-rule="nonzero" fill-opacity="1" /><path clip-path="url(#clip190)" d="M1596.22 469.826 L1600.03 469.826 L1600.03 456.643 L1595.88 457.476 L1595.88 455.346 L1600.01 454.513 L1602.35 454.513 L1602.35 469.826 L1606.17 469.826 L1606.17 471.793 L1596.22 471.793 L1596.22 469.826 Z" fill="#000000" fill-rule="nonzero" fill-opacity="1" /><path clip-path="url(#clip190)" d="M1614.38 454.513 L1616.34 454.513 L1610.32 473.992 L1608.36 473.992 L1614.38 454.513 Z" fill="#000000" fill-rule="nonzero" fill-opacity="1" /><path clip-path="url(#clip190)" d="M1622.36 454.513 L1624.33 454.513 L1618.31 473.992 L1616.34 473.992 L1622.36 454.513 Z" fill="#000000" fill-rule="nonzero" fill-opacity="1" /><path clip-path="url(#clip190)" d="M1627.27 469.826 L1631.09 469.826 L1631.09 456.643 L1626.93 457.476 L1626.93 455.346 L1631.06 454.513 L1633.4 454.513 L1633.4 469.826 L1637.22 469.826 L1637.22 471.793 L1627.27 471.793 L1627.27 469.826 Z" fill="#000000" fill-rule="nonzero" fill-opacity="1" /><path clip-path="url(#clip190)" d="M1646.94 456.053 Q1645.14 456.053 1644.22 457.835 Q1643.32 459.606 1643.32 463.171 Q1643.32 466.724 1644.22 468.506 Q1645.14 470.277 1646.94 470.277 Q1648.76 470.277 1649.66 468.506 Q1650.58 466.724 1650.58 463.171 Q1650.58 459.606 1649.66 457.835 Q1648.76 456.053 1646.94 456.053 M1646.94 454.201 Q1649.85 454.201 1651.38 456.504 Q1652.92 458.796 1652.92 463.171 Q1652.92 467.534 1651.38 469.837 Q1649.85 472.129 1646.94 472.129 Q1644.04 472.129 1642.5 469.837 Q1640.97 467.534 1640.97 463.171 Q1640.97 458.796 1642.5 456.504 Q1644.04 454.201 1646.94 454.201 Z" fill="#000000" fill-rule="nonzero" fill-opacity="1" /><path clip-path="url(#clip190)" d="M1359.94 105.015 L1363.76 105.015 L1363.76 91.832 L1359.6 92.6653 L1359.6 90.5357 L1363.73 89.7024 L1366.07 89.7024 L1366.07 105.015 L1369.89 105.015 L1369.89 106.982 L1359.94 106.982 L1359.94 105.015 Z" fill="#000000" fill-rule="nonzero" fill-opacity="1" /><path clip-path="url(#clip190)" d="M1378.1 89.7024 L1380.07 89.7024 L1374.05 109.181 L1372.08 109.181 L1378.1 89.7024 Z" fill="#000000" fill-rule="nonzero" fill-opacity="1" /><path clip-path="url(#clip190)" d="M1386.08 89.7024 L1388.05 89.7024 L1382.03 109.181 L1380.07 109.181 L1386.08 89.7024 Z" fill="#000000" fill-rule="nonzero" fill-opacity="1" /><path clip-path="url(#clip190)" d="M1390.99 105.015 L1394.81 105.015 L1394.81 91.832 L1390.66 92.6653 L1390.66 90.5357 L1394.79 89.7024 L1397.13 89.7024 L1397.13 105.015 L1400.95 105.015 L1400.95 106.982 L1390.99 106.982 L1390.99 105.015 Z" fill="#000000" fill-rule="nonzero" fill-opacity="1" /><path clip-path="url(#clip190)" d="M1410.67 91.2417 Q1408.86 91.2417 1407.95 93.0241 Q1407.04 94.7949 1407.04 98.3597 Q1407.04 101.913 1407.95 103.695 Q1408.86 105.466 1410.67 105.466 Q1412.48 105.466 1413.39 103.695 Q1414.3 101.913 1414.3 98.3597 Q1414.3 94.7949 1413.39 93.0241 Q1412.48 91.2417 1410.67 91.2417 M1410.67 89.3899 Q1413.57 89.3899 1415.1 91.6931 Q1416.64 93.9847 1416.64 98.3597 Q1416.64 102.723 1415.1 105.026 Q1413.57 107.318 1410.67 107.318 Q1407.76 107.318 1406.22 105.026 Q1404.7 102.723 1404.7 98.3597 Q1404.7 93.9847 1406.22 91.6931 Q1407.76 89.3899 1410.67 89.3899 Z" fill="#000000" fill-rule="nonzero" fill-opacity="1" /><path clip-path="url(#clip190)" d="M1061.99 613.111 L1070.15 613.111 L1070.15 615.078 L1059.18 615.078 L1059.18 613.111 Q1060.51 611.733 1062.8 609.419 Q1065.11 607.092 1065.7 606.421 Q1066.82 605.159 1067.26 604.291 Q1067.71 603.412 1067.71 602.567 Q1067.71 601.19 1066.74 600.321 Q1065.78 599.453 1064.23 599.453 Q1063.13 599.453 1061.9 599.835 Q1060.69 600.217 1059.3 600.993 L1059.3 598.632 Q1060.71 598.065 1061.94 597.775 Q1063.16 597.486 1064.18 597.486 Q1066.87 597.486 1068.46 598.828 Q1070.06 600.171 1070.06 602.416 Q1070.06 603.481 1069.66 604.442 Q1069.26 605.391 1068.21 606.687 Q1067.92 607.023 1066.37 608.632 Q1064.82 610.229 1061.99 613.111 Z" fill="#000000" fill-rule="nonzero" fill-opacity="1" /><path clip-path="url(#clip190)" d="M1078.54 597.798 L1080.51 597.798 L1074.49 617.277 L1072.53 617.277 L1078.54 597.798 Z" fill="#000000" fill-rule="nonzero" fill-opacity="1" /><path clip-path="url(#clip190)" d="M1086.53 597.798 L1088.5 597.798 L1082.48 617.277 L1080.51 617.277 L1086.53 597.798 Z" fill="#000000" fill-rule="nonzero" fill-opacity="1" /><path clip-path="url(#clip190)" d="M1091.06 597.798 L1100.23 597.798 L1100.23 599.766 L1093.2 599.766 L1093.2 604.002 Q1093.71 603.828 1094.22 603.747 Q1094.72 603.655 1095.23 603.655 Q1098.13 603.655 1099.82 605.24 Q1101.51 606.826 1101.51 609.534 Q1101.51 612.324 1099.77 613.875 Q1098.03 615.414 1094.88 615.414 Q1093.79 615.414 1092.65 615.229 Q1091.53 615.044 1090.33 614.673 L1090.33 612.324 Q1091.37 612.891 1092.48 613.169 Q1093.59 613.446 1094.83 613.446 Q1096.83 613.446 1098 612.393 Q1099.17 611.34 1099.17 609.534 Q1099.17 607.729 1098 606.676 Q1096.83 605.622 1094.83 605.622 Q1093.89 605.622 1092.95 605.831 Q1092.03 606.039 1091.06 606.479 L1091.06 597.798 Z" fill="#000000" fill-rule="nonzero" fill-opacity="1" /><path clip-path="url(#clip190)" d="M1152.58 830.181 L1160.74 830.181 L1160.74 832.149 L1149.77 832.149 L1149.77 830.181 Q1151.1 828.804 1153.39 826.489 Q1155.69 824.162 1156.28 823.491 Q1157.41 822.23 1157.85 821.362 Q1158.3 820.482 1158.3 819.637 Q1158.3 818.26 1157.33 817.392 Q1156.36 816.524 1154.81 816.524 Q1153.71 816.524 1152.49 816.906 Q1151.27 817.288 1149.88 818.063 L1149.88 815.702 Q1151.3 815.135 1152.52 814.845 Q1153.75 814.556 1154.77 814.556 Q1157.45 814.556 1159.05 815.899 Q1160.65 817.241 1160.65 819.487 Q1160.65 820.551 1160.24 821.512 Q1159.85 822.461 1158.8 823.757 Q1158.51 824.093 1156.96 825.702 Q1155.4 827.299 1152.58 830.181 Z" fill="#000000" fill-rule="nonzero" fill-opacity="1" /><path clip-path="url(#clip190)" d="M1169.13 814.869 L1171.1 814.869 L1165.08 834.348 L1163.11 834.348 L1169.13 814.869 Z" fill="#000000" fill-rule="nonzero" fill-opacity="1" /><path clip-path="url(#clip190)" d="M1177.12 814.869 L1179.08 814.869 L1173.07 834.348 L1171.1 834.348 L1177.12 814.869 Z" fill="#000000" fill-rule="nonzero" fill-opacity="1" /><path clip-path="url(#clip190)" d="M1181.64 814.869 L1190.82 814.869 L1190.82 816.836 L1183.78 816.836 L1183.78 821.072 Q1184.29 820.899 1184.8 820.818 Q1185.31 820.725 1185.82 820.725 Q1188.71 820.725 1190.4 822.311 Q1192.09 823.896 1192.09 826.605 Q1192.09 829.394 1190.36 830.945 Q1188.62 832.484 1185.46 832.484 Q1184.37 832.484 1183.24 832.299 Q1182.12 832.114 1180.91 831.743 L1180.91 829.394 Q1181.96 829.961 1183.07 830.239 Q1184.18 830.517 1185.42 830.517 Q1187.42 830.517 1188.59 829.463 Q1189.76 828.41 1189.76 826.605 Q1189.76 824.799 1188.59 823.746 Q1187.42 822.693 1185.42 822.693 Q1184.48 822.693 1183.54 822.901 Q1182.61 823.109 1181.64 823.549 L1181.64 814.869 Z" fill="#000000" fill-rule="nonzero" fill-opacity="1" /><path clip-path="url(#clip190)" d="M952.844 266.508 L956.664 266.508 L956.664 253.326 L952.509 254.159 L952.509 252.029 L956.641 251.196 L958.979 251.196 L958.979 266.508 L962.798 266.508 L962.798 268.476 L952.844 268.476 L952.844 266.508 Z" fill="#000000" fill-rule="nonzero" fill-opacity="1" /><path clip-path="url(#clip190)" d="M971.004 251.196 L972.972 251.196 L966.953 270.675 L964.986 270.675 L971.004 251.196 Z" fill="#000000" fill-rule="nonzero" fill-opacity="1" /><path clip-path="url(#clip190)" d="M978.99 251.196 L980.958 251.196 L974.939 270.675 L972.972 270.675 L978.99 251.196 Z" fill="#000000" fill-rule="nonzero" fill-opacity="1" /><path clip-path="url(#clip190)" d="M983.516 251.196 L992.694 251.196 L992.694 253.164 L985.657 253.164 L985.657 257.4 Q986.166 257.226 986.675 257.145 Q987.185 257.052 987.694 257.052 Q990.587 257.052 992.277 258.638 Q993.967 260.224 993.967 262.932 Q993.967 265.721 992.231 267.272 Q990.495 268.812 987.335 268.812 Q986.247 268.812 985.113 268.626 Q983.99 268.441 982.786 268.071 L982.786 265.721 Q983.828 266.288 984.939 266.566 Q986.05 266.844 987.289 266.844 Q989.291 266.844 990.46 265.791 Q991.629 264.738 991.629 262.932 Q991.629 261.126 990.46 260.073 Q989.291 259.02 987.289 259.02 Q986.351 259.02 985.414 259.228 Q984.488 259.437 983.516 259.876 L983.516 251.196 Z" fill="#000000" fill-rule="nonzero" fill-opacity="1" /><path clip-path="url(#clip190)" d="M558.182 408.721 Q559.86 409.079 560.798 410.214 Q561.747 411.348 561.747 413.015 Q561.747 415.572 559.988 416.973 Q558.229 418.373 554.988 418.373 Q553.9 418.373 552.742 418.153 Q551.597 417.945 550.37 417.517 L550.37 415.26 Q551.342 415.827 552.499 416.116 Q553.657 416.406 554.918 416.406 Q557.117 416.406 558.263 415.538 Q559.421 414.67 559.421 413.015 Q559.421 411.487 558.344 410.63 Q557.279 409.762 555.37 409.762 L553.356 409.762 L553.356 407.841 L555.462 407.841 Q557.187 407.841 558.101 407.158 Q559.016 406.464 559.016 405.167 Q559.016 403.836 558.067 403.13 Q557.129 402.413 555.37 402.413 Q554.409 402.413 553.31 402.621 Q552.21 402.829 550.891 403.269 L550.891 401.186 Q552.222 400.816 553.379 400.63 Q554.548 400.445 555.578 400.445 Q558.24 400.445 559.791 401.66 Q561.342 402.864 561.342 404.924 Q561.342 406.359 560.52 407.355 Q559.698 408.339 558.182 408.721 Z" fill="#000000" fill-rule="nonzero" fill-opacity="1" /><path clip-path="url(#clip190)" d="M569.664 400.758 L571.631 400.758 L565.613 420.237 L563.645 420.237 L569.664 400.758 Z" fill="#000000" fill-rule="nonzero" fill-opacity="1" /><path clip-path="url(#clip190)" d="M577.65 400.758 L579.617 400.758 L573.599 420.237 L571.631 420.237 L577.65 400.758 Z" fill="#000000" fill-rule="nonzero" fill-opacity="1" /><path clip-path="url(#clip190)" d="M582.557 416.07 L586.377 416.07 L586.377 402.887 L582.221 403.721 L582.221 401.591 L586.353 400.758 L588.691 400.758 L588.691 416.07 L592.511 416.07 L592.511 418.038 L582.557 418.038 L582.557 416.07 Z" fill="#000000" fill-rule="nonzero" fill-opacity="1" /><path clip-path="url(#clip190)" d="M602.233 402.297 Q600.427 402.297 599.513 404.079 Q598.61 405.85 598.61 409.415 Q598.61 412.968 599.513 414.751 Q600.427 416.521 602.233 416.521 Q604.05 416.521 604.953 414.751 Q605.867 412.968 605.867 409.415 Q605.867 405.85 604.953 404.079 Q604.05 402.297 602.233 402.297 M602.233 400.445 Q605.138 400.445 606.666 402.748 Q608.205 405.04 608.205 409.415 Q608.205 413.778 606.666 416.082 Q605.138 418.373 602.233 418.373 Q599.328 418.373 597.789 416.082 Q596.261 413.778 596.261 409.415 Q596.261 405.04 597.789 402.748 Q599.328 400.445 602.233 400.445 Z" fill="#000000" fill-rule="nonzero" fill-opacity="1" /><path clip-path="url(#clip190)" d="M907.526 806.672 L911.346 806.672 L911.346 793.49 L907.19 794.323 L907.19 792.193 L911.322 791.36 L913.66 791.36 L913.66 806.672 L917.48 806.672 L917.48 808.64 L907.526 808.64 L907.526 806.672 Z" fill="#000000" fill-rule="nonzero" fill-opacity="1" /><path clip-path="url(#clip190)" d="M925.686 791.36 L927.653 791.36 L921.635 810.839 L919.667 810.839 L925.686 791.36 Z" fill="#000000" fill-rule="nonzero" fill-opacity="1" /><path clip-path="url(#clip190)" d="M933.672 791.36 L935.639 791.36 L929.621 810.839 L927.653 810.839 L933.672 791.36 Z" fill="#000000" fill-rule="nonzero" fill-opacity="1" /><path clip-path="url(#clip190)" d="M938.197 791.36 L947.375 791.36 L947.375 793.328 L940.338 793.328 L940.338 797.564 Q940.848 797.39 941.357 797.309 Q941.866 797.216 942.375 797.216 Q945.269 797.216 946.959 798.802 Q948.649 800.388 948.649 803.096 Q948.649 805.885 946.913 807.436 Q945.176 808.976 942.017 808.976 Q940.929 808.976 939.794 808.79 Q938.672 808.605 937.468 808.235 L937.468 805.885 Q938.51 806.453 939.621 806.73 Q940.732 807.008 941.97 807.008 Q943.973 807.008 945.142 805.955 Q946.311 804.902 946.311 803.096 Q946.311 801.291 945.142 800.237 Q943.973 799.184 941.97 799.184 Q941.033 799.184 940.095 799.392 Q939.169 799.601 938.197 800.041 L938.197 791.36 Z" fill="#000000" fill-rule="nonzero" fill-opacity="1" /><path clip-path="url(#clip190)" d="M861.546 996.041 Q863.224 996.399 864.161 997.534 Q865.11 998.668 865.11 1000.33 Q865.11 1002.89 863.351 1004.29 Q861.592 1005.69 858.351 1005.69 Q857.263 1005.69 856.106 1005.47 Q854.96 1005.27 853.733 1004.84 L853.733 1002.58 Q854.705 1003.15 855.863 1003.44 Q857.02 1003.73 858.282 1003.73 Q860.481 1003.73 861.627 1002.86 Q862.784 1001.99 862.784 1000.33 Q862.784 998.807 861.708 997.95 Q860.643 997.082 858.733 997.082 L856.719 997.082 L856.719 995.161 L858.826 995.161 Q860.55 995.161 861.465 994.478 Q862.379 993.784 862.379 992.487 Q862.379 991.156 861.43 990.45 Q860.492 989.733 858.733 989.733 Q857.773 989.733 856.673 989.941 Q855.573 990.149 854.254 990.589 L854.254 988.506 Q855.585 988.136 856.742 987.95 Q857.911 987.765 858.942 987.765 Q861.604 987.765 863.154 988.98 Q864.705 990.184 864.705 992.244 Q864.705 993.68 863.884 994.675 Q863.062 995.659 861.546 996.041 Z" fill="#000000" fill-rule="nonzero" fill-opacity="1" /><path clip-path="url(#clip190)" d="M873.027 988.078 L874.995 988.078 L868.976 1007.56 L867.009 1007.56 L873.027 988.078 Z" fill="#000000" fill-rule="nonzero" fill-opacity="1" /><path clip-path="url(#clip190)" d="M881.013 988.078 L882.981 988.078 L876.962 1007.56 L874.995 1007.56 L881.013 988.078 Z" fill="#000000" fill-rule="nonzero" fill-opacity="1" /><path clip-path="url(#clip190)" d="M885.921 1003.39 L889.74 1003.39 L889.74 990.207 L885.585 991.041 L885.585 988.911 L889.717 988.078 L892.055 988.078 L892.055 1003.39 L895.874 1003.39 L895.874 1005.36 L885.921 1005.36 L885.921 1003.39 Z" fill="#000000" fill-rule="nonzero" fill-opacity="1" /><path clip-path="url(#clip190)" d="M905.596 989.617 Q903.791 989.617 902.876 991.399 Q901.974 993.17 901.974 996.735 Q901.974 1000.29 902.876 1002.07 Q903.791 1003.84 905.596 1003.84 Q907.413 1003.84 908.316 1002.07 Q909.231 1000.29 909.231 996.735 Q909.231 993.17 908.316 991.399 Q907.413 989.617 905.596 989.617 M905.596 987.765 Q908.501 987.765 910.029 990.068 Q911.569 992.36 911.569 996.735 Q911.569 1001.1 910.029 1003.4 Q908.501 1005.69 905.596 1005.69 Q902.691 1005.69 901.152 1003.4 Q899.624 1001.1 899.624 996.735 Q899.624 992.36 901.152 990.068 Q902.691 987.765 905.596 987.765 Z" fill="#000000" fill-rule="nonzero" fill-opacity="1" /><path clip-path="url(#clip190)" d="M862.257 609.955 L866.077 609.955 L866.077 596.772 L861.922 597.605 L861.922 595.476 L866.054 594.642 L868.392 594.642 L868.392 609.955 L872.211 609.955 L872.211 611.922 L862.257 611.922 L862.257 609.955 Z" fill="#000000" fill-rule="nonzero" fill-opacity="1" /><path clip-path="url(#clip190)" d="M880.417 594.642 L882.385 594.642 L876.366 614.121 L874.399 614.121 L880.417 594.642 Z" fill="#000000" fill-rule="nonzero" fill-opacity="1" /><path clip-path="url(#clip190)" d="M888.403 594.642 L890.371 594.642 L884.352 614.121 L882.385 614.121 L888.403 594.642 Z" fill="#000000" fill-rule="nonzero" fill-opacity="1" /><path clip-path="url(#clip190)" d="M892.929 594.642 L902.107 594.642 L902.107 596.61 L895.07 596.61 L895.07 600.846 Q895.579 600.672 896.088 600.591 Q896.598 600.499 897.107 600.499 Q900 600.499 901.69 602.084 Q903.38 603.67 903.38 606.378 Q903.38 609.168 901.644 610.719 Q899.908 612.258 896.748 612.258 Q895.66 612.258 894.526 612.073 Q893.403 611.888 892.199 611.517 L892.199 609.168 Q893.241 609.735 894.352 610.013 Q895.463 610.29 896.702 610.29 Q898.704 610.29 899.873 609.237 Q901.042 608.184 901.042 606.378 Q901.042 604.573 899.873 603.52 Q898.704 602.466 896.702 602.466 Q895.764 602.466 894.827 602.675 Q893.901 602.883 892.929 603.323 L892.929 594.642 Z" fill="#000000" fill-rule="nonzero" fill-opacity="1" /><path clip-path="url(#clip190)" d="M544.752 806.672 L548.572 806.672 L548.572 793.49 L544.417 794.323 L544.417 792.193 L548.548 791.36 L550.886 791.36 L550.886 806.672 L554.706 806.672 L554.706 808.64 L544.752 808.64 L544.752 806.672 Z" fill="#000000" fill-rule="nonzero" fill-opacity="1" /><path clip-path="url(#clip190)" d="M562.912 791.36 L564.879 791.36 L558.861 810.839 L556.893 810.839 L562.912 791.36 Z" fill="#000000" fill-rule="nonzero" fill-opacity="1" /><path clip-path="url(#clip190)" d="M570.898 791.36 L572.865 791.36 L566.847 810.839 L564.879 810.839 L570.898 791.36 Z" fill="#000000" fill-rule="nonzero" fill-opacity="1" /><path clip-path="url(#clip190)" d="M575.423 791.36 L584.602 791.36 L584.602 793.328 L577.565 793.328 L577.565 797.564 Q578.074 797.39 578.583 797.309 Q579.092 797.216 579.602 797.216 Q582.495 797.216 584.185 798.802 Q585.875 800.388 585.875 803.096 Q585.875 805.885 584.139 807.436 Q582.402 808.976 579.243 808.976 Q578.155 808.976 577.021 808.79 Q575.898 808.605 574.694 808.235 L574.694 805.885 Q575.736 806.453 576.847 806.73 Q577.958 807.008 579.196 807.008 Q581.199 807.008 582.368 805.955 Q583.537 804.902 583.537 803.096 Q583.537 801.291 582.368 800.237 Q581.199 799.184 579.196 799.184 Q578.259 799.184 577.321 799.392 Q576.396 799.601 575.423 800.041 L575.423 791.36 Z" fill="#000000" fill-rule="nonzero" fill-opacity="1" /><path clip-path="url(#clip190)" d="M959.922 1339.49 Q961.6 1339.85 962.538 1340.98 Q963.487 1342.11 963.487 1343.78 Q963.487 1346.34 961.727 1347.74 Q959.968 1349.14 956.728 1349.14 Q955.64 1349.14 954.482 1348.92 Q953.336 1348.71 952.109 1348.28 L952.109 1346.03 Q953.082 1346.59 954.239 1346.88 Q955.397 1347.17 956.658 1347.17 Q958.857 1347.17 960.003 1346.3 Q961.16 1345.44 961.16 1343.78 Q961.16 1342.25 960.084 1341.4 Q959.019 1340.53 957.109 1340.53 L955.096 1340.53 L955.096 1338.61 L957.202 1338.61 Q958.927 1338.61 959.841 1337.92 Q960.755 1337.23 960.755 1335.93 Q960.755 1334.6 959.806 1333.9 Q958.869 1333.18 957.109 1333.18 Q956.149 1333.18 955.049 1333.39 Q953.95 1333.6 952.63 1334.04 L952.63 1331.95 Q953.961 1331.58 955.119 1331.4 Q956.288 1331.21 957.318 1331.21 Q959.98 1331.21 961.531 1332.43 Q963.082 1333.63 963.082 1335.69 Q963.082 1337.13 962.26 1338.12 Q961.438 1339.11 959.922 1339.49 Z" fill="#000000" fill-rule="nonzero" fill-opacity="1" /><path clip-path="url(#clip190)" d="M971.403 1331.52 L973.371 1331.52 L967.352 1351 L965.385 1351 L971.403 1331.52 Z" fill="#000000" fill-rule="nonzero" fill-opacity="1" /><path clip-path="url(#clip190)" d="M979.389 1331.52 L981.357 1331.52 L975.339 1351 L973.371 1351 L979.389 1331.52 Z" fill="#000000" fill-rule="nonzero" fill-opacity="1" /><path clip-path="url(#clip190)" d="M983.915 1331.52 L993.093 1331.52 L993.093 1333.49 L986.056 1333.49 L986.056 1337.73 Q986.565 1337.55 987.075 1337.47 Q987.584 1337.38 988.093 1337.38 Q990.987 1337.38 992.676 1338.97 Q994.366 1340.55 994.366 1343.26 Q994.366 1346.05 992.63 1347.6 Q990.894 1349.14 987.734 1349.14 Q986.646 1349.14 985.512 1348.95 Q984.389 1348.77 983.186 1348.4 L983.186 1346.05 Q984.227 1346.62 985.338 1346.89 Q986.45 1347.17 987.688 1347.17 Q989.69 1347.17 990.859 1346.12 Q992.028 1345.07 992.028 1343.26 Q992.028 1341.45 990.859 1340.4 Q989.69 1339.35 987.688 1339.35 Q986.751 1339.35 985.813 1339.56 Q984.887 1339.76 983.915 1340.2 L983.915 1331.52 Z" fill="#000000" fill-rule="nonzero" fill-opacity="1" /><path clip-path="url(#clip190)" d="M1150.54 783.164 L1154.36 783.164 L1154.36 769.981 L1150.2 770.814 L1150.2 768.685 L1154.33 767.851 L1156.67 767.851 L1156.67 783.164 L1160.49 783.164 L1160.49 785.131 L1150.54 785.131 L1150.54 783.164 Z" fill="#000000" fill-rule="nonzero" fill-opacity="1" /><path clip-path="url(#clip190)" d="M1168.7 767.851 L1170.66 767.851 L1164.65 787.33 L1162.68 787.33 L1168.7 767.851 Z" fill="#000000" fill-rule="nonzero" fill-opacity="1" /><path clip-path="url(#clip190)" d="M1176.68 767.851 L1178.65 767.851 L1172.63 787.33 L1170.66 787.33 L1176.68 767.851 Z" fill="#000000" fill-rule="nonzero" fill-opacity="1" /><path clip-path="url(#clip190)" d="M1181.21 767.851 L1190.39 767.851 L1190.39 769.819 L1183.35 769.819 L1183.35 774.055 Q1183.86 773.881 1184.37 773.8 Q1184.88 773.708 1185.39 773.708 Q1188.28 773.708 1189.97 775.294 Q1191.66 776.879 1191.66 779.587 Q1191.66 782.377 1189.92 783.928 Q1188.19 785.467 1185.03 785.467 Q1183.94 785.467 1182.81 785.282 Q1181.68 785.097 1180.48 784.726 L1180.48 782.377 Q1181.52 782.944 1182.63 783.222 Q1183.74 783.5 1184.98 783.5 Q1186.98 783.5 1188.15 782.446 Q1189.32 781.393 1189.32 779.587 Q1189.32 777.782 1188.15 776.729 Q1186.98 775.675 1184.98 775.675 Q1184.04 775.675 1183.11 775.884 Q1182.18 776.092 1181.21 776.532 L1181.21 767.851 Z" fill="#000000" fill-rule="nonzero" fill-opacity="1" /><path clip-path="url(#clip190)" d="M1061.99 1000.23 L1070.15 1000.23 L1070.15 1002.2 L1059.18 1002.2 L1059.18 1000.23 Q1060.51 998.857 1062.8 996.542 Q1065.11 994.216 1065.7 993.544 Q1066.82 992.283 1067.26 991.415 Q1067.71 990.535 1067.71 989.69 Q1067.71 988.313 1066.74 987.445 Q1065.78 986.577 1064.23 986.577 Q1063.13 986.577 1061.9 986.959 Q1060.69 987.341 1059.3 988.116 L1059.3 985.755 Q1060.71 985.188 1061.94 984.898 Q1063.16 984.609 1064.18 984.609 Q1066.87 984.609 1068.46 985.952 Q1070.06 987.294 1070.06 989.54 Q1070.06 990.604 1069.66 991.565 Q1069.26 992.514 1068.21 993.81 Q1067.92 994.146 1066.37 995.755 Q1064.82 997.352 1061.99 1000.23 Z" fill="#000000" fill-rule="nonzero" fill-opacity="1" /><path clip-path="url(#clip190)" d="M1078.54 984.922 L1080.51 984.922 L1074.49 1004.4 L1072.53 1004.4 L1078.54 984.922 Z" fill="#000000" fill-rule="nonzero" fill-opacity="1" /><path clip-path="url(#clip190)" d="M1086.53 984.922 L1088.5 984.922 L1082.48 1004.4 L1080.51 1004.4 L1086.53 984.922 Z" fill="#000000" fill-rule="nonzero" fill-opacity="1" /><path clip-path="url(#clip190)" d="M1091.06 984.922 L1100.23 984.922 L1100.23 986.889 L1093.2 986.889 L1093.2 991.125 Q1093.71 990.952 1094.22 990.871 Q1094.72 990.778 1095.23 990.778 Q1098.13 990.778 1099.82 992.364 Q1101.51 993.949 1101.51 996.658 Q1101.51 999.447 1099.77 1001 Q1098.03 1002.54 1094.88 1002.54 Q1093.79 1002.54 1092.65 1002.35 Q1091.53 1002.17 1090.33 1001.8 L1090.33 999.447 Q1091.37 1000.01 1092.48 1000.29 Q1093.59 1000.57 1094.83 1000.57 Q1096.83 1000.57 1098 999.516 Q1099.17 998.463 1099.17 996.658 Q1099.17 994.852 1098 993.799 Q1096.83 992.746 1094.83 992.746 Q1093.89 992.746 1092.95 992.954 Q1092.03 993.162 1091.06 993.602 L1091.06 984.922 Z" fill="#000000" fill-rule="nonzero" fill-opacity="1" /><path clip-path="url(#clip190)" d="M1366.61 1509.34 L1374.77 1509.34 L1374.77 1511.31 L1363.79 1511.31 L1363.79 1509.34 Q1365.12 1507.96 1367.42 1505.65 Q1369.72 1503.32 1370.31 1502.65 Q1371.43 1501.39 1371.87 1500.52 Q1372.32 1499.64 1372.32 1498.8 Q1372.32 1497.42 1371.35 1496.55 Q1370.39 1495.68 1368.84 1495.68 Q1367.74 1495.68 1366.51 1496.07 Q1365.3 1496.45 1363.91 1497.22 L1363.91 1494.86 Q1365.32 1494.3 1366.55 1494.01 Q1367.77 1493.72 1368.79 1493.72 Q1371.48 1493.72 1373.08 1495.06 Q1374.67 1496.4 1374.67 1498.65 Q1374.67 1499.71 1374.27 1500.67 Q1373.87 1501.62 1372.82 1502.92 Q1372.53 1503.25 1370.98 1504.86 Q1369.43 1506.46 1366.61 1509.34 Z" fill="#000000" fill-rule="nonzero" fill-opacity="1" /><path clip-path="url(#clip190)" d="M1383.16 1494.03 L1385.12 1494.03 L1379.11 1513.51 L1377.14 1513.51 L1383.16 1494.03 Z" fill="#000000" fill-rule="nonzero" fill-opacity="1" /><path clip-path="url(#clip190)" d="M1391.14 1494.03 L1393.11 1494.03 L1387.09 1513.51 L1385.12 1513.51 L1391.14 1494.03 Z" fill="#000000" fill-rule="nonzero" fill-opacity="1" /><path clip-path="url(#clip190)" d="M1395.67 1494.03 L1404.85 1494.03 L1404.85 1496 L1397.81 1496 L1397.81 1500.23 Q1398.32 1500.06 1398.83 1499.98 Q1399.34 1499.89 1399.85 1499.89 Q1402.74 1499.89 1404.43 1501.47 Q1406.12 1503.06 1406.12 1505.77 Q1406.12 1508.55 1404.38 1510.11 Q1402.65 1511.64 1399.49 1511.64 Q1398.4 1511.64 1397.27 1511.46 Q1396.14 1511.27 1394.94 1510.9 L1394.94 1508.55 Q1395.98 1509.12 1397.09 1509.4 Q1398.2 1509.68 1399.44 1509.68 Q1401.44 1509.68 1402.61 1508.62 Q1403.78 1507.57 1403.78 1505.77 Q1403.78 1503.96 1402.61 1502.91 Q1401.44 1501.85 1399.44 1501.85 Q1398.5 1501.85 1397.57 1502.06 Q1396.64 1502.27 1395.67 1502.71 L1395.67 1494.03 Z" fill="#000000" fill-rule="nonzero" fill-opacity="1" /><path clip-path="url(#clip190)" d="M1638.64 792.899 Q1636.83 792.899 1635.92 794.682 Q1635.01 796.453 1635.01 800.017 Q1635.01 803.571 1635.92 805.353 Q1636.83 807.124 1638.64 807.124 Q1640.45 807.124 1641.36 805.353 Q1642.27 803.571 1642.27 800.017 Q1642.27 796.453 1641.36 794.682 Q1640.45 792.899 1638.64 792.899 M1638.64 791.048 Q1641.54 791.048 1643.07 793.351 Q1644.61 795.642 1644.61 800.017 Q1644.61 804.381 1643.07 806.684 Q1641.54 808.976 1638.64 808.976 Q1635.73 808.976 1634.19 806.684 Q1632.66 804.381 1632.66 800.017 Q1632.66 795.642 1634.19 793.351 Q1635.73 791.048 1638.64 791.048 Z" fill="#000000" fill-rule="nonzero" fill-opacity="1" /><path clip-path="url(#clip190)" d="M1653.72 792.899 Q1651.91 792.899 1651 794.682 Q1650.09 796.453 1650.09 800.017 Q1650.09 803.571 1651 805.353 Q1651.91 807.124 1653.72 807.124 Q1655.53 807.124 1656.44 805.353 Q1657.35 803.571 1657.35 800.017 Q1657.35 796.453 1656.44 794.682 Q1655.53 792.899 1653.72 792.899 M1653.72 791.048 Q1656.62 791.048 1658.15 793.351 Q1659.69 795.642 1659.69 800.017 Q1659.69 804.381 1658.15 806.684 Q1656.62 808.976 1653.72 808.976 Q1650.81 808.976 1649.27 806.684 Q1647.74 804.381 1647.74 800.017 Q1647.74 795.642 1649.27 793.351 Q1650.81 791.048 1653.72 791.048 Z" fill="#000000" fill-rule="nonzero" fill-opacity="1" /><path clip-path="url(#clip190)" d="M1663.82 791.36 L1673 791.36 L1673 793.328 L1665.96 793.328 L1665.96 797.564 Q1666.47 797.39 1666.98 797.309 Q1667.49 797.216 1668 797.216 Q1670.89 797.216 1672.58 798.802 Q1674.27 800.388 1674.27 803.096 Q1674.27 805.885 1672.54 807.436 Q1670.8 808.976 1667.64 808.976 Q1666.55 808.976 1665.42 808.79 Q1664.29 808.605 1663.09 808.235 L1663.09 805.885 Q1664.13 806.453 1665.24 806.73 Q1666.36 807.008 1667.59 807.008 Q1669.6 807.008 1670.76 805.955 Q1671.93 804.902 1671.93 803.096 Q1671.93 801.291 1670.76 800.237 Q1669.6 799.184 1667.59 799.184 Q1666.66 799.184 1665.72 799.392 Q1664.79 799.601 1663.82 800.041 L1663.82 791.36 Z" fill="#000000" fill-rule="nonzero" fill-opacity="1" /><path clip-path="url(#clip190)" d="M1291.85 339.432 Q1290.04 339.432 1289.13 341.214 Q1288.22 342.985 1288.22 346.55 Q1288.22 350.103 1289.13 351.886 Q1290.04 353.656 1291.85 353.656 Q1293.66 353.656 1294.57 351.886 Q1295.48 350.103 1295.48 346.55 Q1295.48 342.985 1294.57 341.214 Q1293.66 339.432 1291.85 339.432 M1291.85 337.58 Q1294.75 337.58 1296.28 339.883 Q1297.82 342.175 1297.82 346.55 Q1297.82 350.913 1296.28 353.217 Q1294.75 355.508 1291.85 355.508 Q1288.94 355.508 1287.4 353.217 Q1285.87 350.913 1285.87 346.55 Q1285.87 342.175 1287.4 339.883 Q1288.94 337.58 1291.85 337.58 Z" fill="#000000" fill-rule="nonzero" fill-opacity="1" /><path clip-path="url(#clip190)" d="M1302.33 353.205 L1306.15 353.205 L1306.15 340.022 L1302 340.856 L1302 338.726 L1306.13 337.893 L1308.47 337.893 L1308.47 353.205 L1312.29 353.205 L1312.29 355.173 L1302.33 355.173 L1302.33 353.205 Z" fill="#000000" fill-rule="nonzero" fill-opacity="1" /><path clip-path="url(#clip190)" d="M1323.43 339.93 L1317.53 349.154 L1323.43 349.154 L1323.43 339.93 M1322.82 337.893 L1325.76 337.893 L1325.76 349.154 L1328.22 349.154 L1328.22 351.099 L1325.76 351.099 L1325.76 355.173 L1323.43 355.173 L1323.43 351.099 L1315.63 351.099 L1315.63 348.842 L1322.82 337.893 Z" fill="#000000" fill-rule="nonzero" fill-opacity="1" /><path clip-path="url(#clip190)" d="M731.614 512.641 Q729.808 512.641 728.894 514.423 Q727.991 516.194 727.991 519.759 Q727.991 523.312 728.894 525.095 Q729.808 526.866 731.614 526.866 Q733.431 526.866 734.334 525.095 Q735.248 523.312 735.248 519.759 Q735.248 516.194 734.334 514.423 Q733.431 512.641 731.614 512.641 M731.614 510.789 Q734.519 510.789 736.047 513.092 Q737.586 515.384 737.586 519.759 Q737.586 524.122 736.047 526.426 Q734.519 528.717 731.614 528.717 Q728.709 528.717 727.169 526.426 Q725.641 524.122 725.641 519.759 Q725.641 515.384 727.169 513.092 Q728.709 510.789 731.614 510.789 Z" fill="#000000" fill-rule="nonzero" fill-opacity="1" /><path clip-path="url(#clip190)" d="M743.709 526.414 L751.868 526.414 L751.868 528.382 L740.896 528.382 L740.896 526.414 Q742.227 525.037 744.519 522.722 Q746.822 520.396 747.412 519.724 Q748.535 518.463 748.975 517.595 Q749.426 516.715 749.426 515.87 Q749.426 514.493 748.454 513.625 Q747.493 512.757 745.942 512.757 Q744.843 512.757 743.616 513.139 Q742.401 513.521 741.012 514.296 L741.012 511.935 Q742.424 511.368 743.651 511.079 Q744.878 510.789 745.896 510.789 Q748.581 510.789 750.178 512.132 Q751.776 513.474 751.776 515.72 Q751.776 516.785 751.371 517.745 Q750.977 518.694 749.924 519.991 Q749.634 520.326 748.084 521.935 Q746.533 523.532 743.709 526.414 Z" fill="#000000" fill-rule="nonzero" fill-opacity="1" /><path clip-path="url(#clip190)" d="M763.859 519.065 Q765.537 519.423 766.475 520.558 Q767.424 521.692 767.424 523.359 Q767.424 525.916 765.664 527.317 Q763.905 528.717 760.664 528.717 Q759.576 528.717 758.419 528.497 Q757.273 528.289 756.046 527.861 L756.046 525.604 Q757.019 526.171 758.176 526.46 Q759.333 526.75 760.595 526.75 Q762.794 526.75 763.94 525.882 Q765.097 525.014 765.097 523.359 Q765.097 521.831 764.021 520.974 Q762.956 520.106 761.046 520.106 L759.033 520.106 L759.033 518.185 L761.139 518.185 Q762.864 518.185 763.778 517.502 Q764.692 516.808 764.692 515.511 Q764.692 514.18 763.743 513.474 Q762.806 512.757 761.046 512.757 Q760.086 512.757 758.986 512.965 Q757.887 513.173 756.567 513.613 L756.567 511.53 Q757.898 511.16 759.056 510.974 Q760.225 510.789 761.255 510.789 Q763.917 510.789 765.468 512.004 Q767.019 513.208 767.019 515.268 Q767.019 516.704 766.197 517.699 Q765.375 518.683 763.859 519.065 Z" fill="#000000" fill-rule="nonzero" fill-opacity="1" /><path clip-path="url(#clip190)" d="M726.498 1086.93 L730.317 1086.93 L730.317 1073.75 L726.162 1074.58 L726.162 1072.45 L730.294 1071.62 L732.632 1071.62 L732.632 1086.93 L736.452 1086.93 L736.452 1088.9 L726.498 1088.9 L726.498 1086.93 Z" fill="#000000" fill-rule="nonzero" fill-opacity="1" /><path clip-path="url(#clip190)" d="M741.579 1086.93 L745.398 1086.93 L745.398 1073.75 L741.243 1074.58 L741.243 1072.45 L745.375 1071.62 L747.713 1071.62 L747.713 1086.93 L751.533 1086.93 L751.533 1088.9 L741.579 1088.9 L741.579 1086.93 Z" fill="#000000" fill-rule="nonzero" fill-opacity="1" /><path clip-path="url(#clip190)" d="M763.338 1079.58 Q765.016 1079.94 765.954 1081.07 Q766.903 1082.21 766.903 1083.88 Q766.903 1086.43 765.144 1087.83 Q763.384 1089.23 760.144 1089.23 Q759.056 1089.23 757.898 1089.01 Q756.752 1088.81 755.526 1088.38 L755.526 1086.12 Q756.498 1086.69 757.655 1086.98 Q758.813 1087.27 760.074 1087.27 Q762.273 1087.27 763.419 1086.4 Q764.576 1085.53 764.576 1083.88 Q764.576 1082.35 763.5 1081.49 Q762.435 1080.62 760.526 1080.62 L758.512 1080.62 L758.512 1078.7 L760.618 1078.7 Q762.343 1078.7 763.257 1078.02 Q764.171 1077.32 764.171 1076.03 Q764.171 1074.7 763.222 1073.99 Q762.285 1073.27 760.526 1073.27 Q759.565 1073.27 758.465 1073.48 Q757.366 1073.69 756.046 1074.13 L756.046 1072.05 Q757.377 1071.68 758.535 1071.49 Q759.704 1071.31 760.734 1071.31 Q763.396 1071.31 764.947 1072.52 Q766.498 1073.72 766.498 1075.78 Q766.498 1077.22 765.676 1078.22 Q764.854 1079.2 763.338 1079.58 Z" fill="#000000" fill-rule="nonzero" fill-opacity="1" /><path clip-path="url(#clip190)" d="M1287.25 1260.14 L1291.07 1260.14 L1291.07 1246.96 L1286.92 1247.79 L1286.92 1245.66 L1291.05 1244.83 L1293.39 1244.83 L1293.39 1260.14 L1297.21 1260.14 L1297.21 1262.11 L1287.25 1262.11 L1287.25 1260.14 Z" fill="#000000" fill-rule="nonzero" fill-opacity="1" /><path clip-path="url(#clip190)" d="M1303.94 1260.14 L1312.1 1260.14 L1312.1 1262.11 L1301.13 1262.11 L1301.13 1260.14 Q1302.46 1258.76 1304.75 1256.45 Q1307.05 1254.12 1307.65 1253.45 Q1308.77 1252.19 1309.21 1251.32 Q1309.66 1250.44 1309.66 1249.6 Q1309.66 1248.22 1308.69 1247.35 Q1307.73 1246.48 1306.18 1246.48 Q1305.08 1246.48 1303.85 1246.86 Q1302.63 1247.25 1301.24 1248.02 L1301.24 1245.66 Q1302.66 1245.09 1303.88 1244.8 Q1305.11 1244.51 1306.13 1244.51 Q1308.81 1244.51 1310.41 1245.86 Q1312.01 1247.2 1312.01 1249.45 Q1312.01 1250.51 1311.6 1251.47 Q1311.21 1252.42 1310.16 1253.72 Q1309.87 1254.05 1308.32 1255.66 Q1306.77 1257.26 1303.94 1260.14 Z" fill="#000000" fill-rule="nonzero" fill-opacity="1" /><path clip-path="url(#clip190)" d="M1319.02 1260.14 L1327.18 1260.14 L1327.18 1262.11 L1316.21 1262.11 L1316.21 1260.14 Q1317.54 1258.76 1319.83 1256.45 Q1322.14 1254.12 1322.73 1253.45 Q1323.85 1252.19 1324.29 1251.32 Q1324.74 1250.44 1324.74 1249.6 Q1324.74 1248.22 1323.77 1247.35 Q1322.81 1246.48 1321.26 1246.48 Q1320.16 1246.48 1318.93 1246.86 Q1317.71 1247.25 1316.33 1248.02 L1316.33 1245.66 Q1317.74 1245.09 1318.96 1244.8 Q1320.19 1244.51 1321.21 1244.51 Q1323.9 1244.51 1325.49 1245.86 Q1327.09 1247.2 1327.09 1249.45 Q1327.09 1250.51 1326.68 1251.47 Q1326.29 1252.42 1325.24 1253.72 Q1324.95 1254.05 1323.4 1255.66 Q1321.85 1257.26 1319.02 1260.14 Z" fill="#000000" fill-rule="nonzero" fill-opacity="1" /></svg>
