<svg class="main-svg" xmlns="http://www.w3.org/2000/svg" xmlns:xlink="http://www.w3.org/1999/xlink" width="700" height="500" style="" viewBox="0 0 700 500"><rect x="0" y="0" width="700" height="500" style="fill: rgb(255, 255, 255); fill-opacity: 1;"/><defs id="defs-dc7bf2"><g class="clips"><clipPath id="clipdc7bf2xyplot" class="plotclip"><rect width="457.48031496062987" height="450.9448818897638"/></clipPath><clipPath class="axesclip" id="clipdc7bf2x"><rect x="121.25984251968508" y="0" width="457.48031496062987" height="500"/></clipPath><clipPath class="axesclip" id="clipdc7bf2y"><rect x="0" y="24.527559055118104" width="700" height="450.9448818897638"/></clipPath><clipPath class="axesclip" id="clipdc7bf2xy"><rect x="121.25984251968508" y="24.527559055118104" width="457.48031496062987" height="450.9448818897638"/></clipPath></g><g class="gradients"/><g class="patterns"/></defs><g class="bglayer"/><g class="layer-below"><g class="imagelayer"/><g class="shapelayer"/></g><g class="cartesianlayer"><g class="subplot xy"><g class="layer-subplot"><g class="shapelayer"/><g class="imagelayer"/></g><g class="gridlayer"><g class="x"/><g class="y"/></g><g class="zerolinelayer"/><path class="xlines-below"/><path class="ylines-below"/><g class="overlines-below"/><g class="xaxislayer-below"/><g class="yaxislayer-below"/><g class="overaxes-below"/><g class="plot" transform="translate(121.25984251968508,24.527559055118104)" clip-path="url(#clipdc7bf2xyplot)"><g class="scatterlayer mlayer"><g class="trace scatter trace7a11aa" style="stroke-miterlimit: 2; opacity: 1;"><g class="fills"/><g class="errorbars"/><g class="lines"><path class="js-line" d="M410.77,229.13L433.24,231.24L435.35,231.28L443.81,230.45L445.06,230.09L448.62,228.16L449.16,227.59L449.96,225.16L449.83,224.55L448.62,222.79L447.94,222.25L443.81,220.49L442.41,220.19L435.35,219.66L433.24,219.7L418.7,220.89L416.08,221.19L410.77,221.82" style="vector-effect: non-scaling-stroke; fill: none; stroke: rgb(0, 0, 0); stroke-opacity: 1; stroke-width: 1px; opacity: 1;"/></g><g class="points"/><g class="text"/></g><g class="trace scatter tracee47889" style="stroke-miterlimit: 2; opacity: 1;"><g class="fills"/><g class="errorbars"/><g class="lines"><path class="js-line" d="M360.92,125.94L384.94,142.29L387.11,143.93L398.6,153.79L400.2,155.44L405.47,162.05L406.48,163.71L408.69,168.69L409.15,170.35L409.74,177.03L409.61,178.71L408.15,185.42L407.58,187.1L403.79,195.52L402.88,197.2L396.91,207.33" style="vector-effect: non-scaling-stroke; fill: none; stroke: rgb(0, 0, 0); stroke-opacity: 1; stroke-width: 1px; opacity: 1;"/></g><g class="points"/><g class="text"/></g><g class="trace scatter trace6cf6fd" style="stroke-miterlimit: 2; opacity: 1;"><g class="fills"/><g class="errorbars"/><g class="lines"><path class="js-line" d="M360.92,125.94L329.53,126.63L326.9,126.54L314.66,125.38L312.43,124.98L304.42,122.76L302.67,122.03L296.75,118.28L295.55,117.15L291.66,111.93L290.9,110.47L288.56,104.13L288.13,102.43L286.48,91.57L286.31,89.68L285.79,82.02" style="vector-effect: non-scaling-stroke; fill: none; stroke: rgb(0, 0, 0); stroke-opacity: 1; stroke-width: 1px; opacity: 1;"/></g><g class="points"/><g class="text"/></g><g class="trace scatter traceba8e16" style="stroke-miterlimit: 2; opacity: 1;"><g class="fills"/><g class="errorbars"/><g class="lines"><path class="js-line" d="M360.92,125.94L316.25,130.04L311.93,130.25L290.99,130.39L286.96,130.2L271.52,128.52L267.85,127.84L257.32,125.13L253.99,123.99L244.49,119.88L241.48,118.31L230.08,111.09L227.38,109.08L214.58,98.08L212.14,95.73L195.64,78.39L193.33,75.85" style="vector-effect: non-scaling-stroke; fill: none; stroke: rgb(0, 0, 0); stroke-opacity: 1; stroke-width: 1px; opacity: 1;"/></g><g class="points"/><g class="text"/></g><g class="trace scatter trace22caa2" style="stroke-miterlimit: 2; opacity: 1;"><g class="fills"/><g class="errorbars"/><g class="lines"><path class="js-line" d="M360.92,125.94L321.45,176.63L316.99,182.07L294.3,208.24L289.67,213.23L270.75,232.14L265.91,236.57L251.09,249.1L246.05,253L230.58,263.83L225.33,267.18L203.87,279.41L198.41,282.21L176.24,292.57L170.62,294.98L136.55,308.36L130.82,310.47L113.61,316.71" style="vector-effect: non-scaling-stroke; fill: none; stroke: rgb(0, 0, 0); stroke-opacity: 1; stroke-width: 1px; opacity: 1;"/></g><g class="points"/><g class="text"/></g><g class="trace scatter traced4d048" style="stroke-miterlimit: 2; opacity: 1;"><g class="fills"/><g class="errorbars"/><g class="lines"><path class="js-line" d="M279.23,64.42L310.62,63.73L313.25,63.82L325.49,64.98L327.72,65.37L335.73,67.6L337.49,68.33L343.4,72.08L344.61,73.21L348.49,78.43L349.25,79.88L351.59,86.23L352.02,87.93L353.67,98.79L353.84,100.68L354.36,108.34" style="vector-effect: non-scaling-stroke; fill: none; stroke: rgb(0, 0, 0); stroke-opacity: 1; stroke-width: 1px; opacity: 1;"/></g><g class="points"/><g class="text"/></g><g class="trace scatter tracea97b88" style="stroke-miterlimit: 2; opacity: 1;"><g class="fills"/><g class="errorbars"/><g class="lines"><path class="js-line" d="M269.74,80.66L286.75,47.04L288.08,44.03L291.47,34.46L291.82,32.73L291.86,28.94L291.58,28.11L290.08,26.71L289.41,26.58L286.22,27.32L285.36,27.78L281.42,31.2L280.79,32.05L279.23,35.64L279.11,36.56L279.52,40.25L279.79,41.18L281.69,45.84" style="vector-effect: non-scaling-stroke; fill: none; stroke: rgb(0, 0, 0); stroke-opacity: 1; stroke-width: 1px; opacity: 1;"/></g><g class="points"/><g class="text"/></g><g class="trace scatter trace9ff753" style="stroke-miterlimit: 2; opacity: 1;"><g class="fills"/><g class="errorbars"/><g class="lines"><path class="js-line" d="M279.23,64.42L246.44,94.6L243.15,97.38L226.68,110.13L223.37,112.4L210.12,120.38L206.79,122.06L196.79,126.27L193.44,127.37L183.38,129.85L180.02,130.42L166.52,131.59L163.14,131.63L146.19,130.65L142.79,130.26L118.98,126.5L115.58,125.89" style="vector-effect: non-scaling-stroke; fill: none; stroke: rgb(0, 0, 0); stroke-opacity: 1; stroke-width: 1px; opacity: 1;"/></g><g class="points"/><g class="text"/></g><g class="trace scatter trace486407" style="stroke-miterlimit: 2; opacity: 1;"><g class="fills"/><g class="errorbars"/><g class="lines"><path class="js-line" d="M279.23,64.42L249,108.07L245.57,112.73L228.03,135.01L224.43,139.22L209.64,155.05L205.84,158.72L194.13,168.96L190.12,172.09L177.77,180.65L173.56,183.25L156.27,192.48L151.85,194.54L133.86,201.92L129.3,203.58L106.17,211.13L101.51,212.53L82.77,217.93" style="vector-effect: non-scaling-stroke; fill: none; stroke: rgb(0, 0, 0); stroke-opacity: 1; stroke-width: 1px; opacity: 1;"/></g><g class="points"/><g class="text"/></g><g class="trace scatter trace18608a" style="stroke-miterlimit: 2; opacity: 1;"><g class="fills"/><g class="errorbars"/><g class="lines"><path class="js-line" d="M178.25,64.42L222.92,60.32L227.25,60.11L248.19,59.96L252.21,60.16L267.65,61.84L271.33,62.52L281.85,65.22L285.18,66.37L294.68,70.47L297.7,72.05L309.09,79.27L311.79,81.28L324.59,92.27L327.04,94.63L343.53,111.97L345.85,114.51" style="vector-effect: non-scaling-stroke; fill: none; stroke: rgb(0, 0, 0); stroke-opacity: 1; stroke-width: 1px; opacity: 1;"/></g><g class="points"/><g class="text"/></g><g class="trace scatter tracef6d1fb" style="stroke-miterlimit: 2; opacity: 1;"><g class="fills"/><g class="errorbars"/><g class="lines"><path class="js-line" d="M178.25,64.42L170.68,94.45L169.89,96.94L165.54,108.27L164.57,110.29L160.29,117.32L159.11,118.8L153.88,123.43L152.46,124.28L146.33,126.61L144.7,126.95L137.88,127.5L136.1,127.46L125.04,126.18L123.14,125.84L115.51,124.33" style="vector-effect: non-scaling-stroke; fill: none; stroke: rgb(0, 0, 0); stroke-opacity: 1; stroke-width: 1px; opacity: 1;"/></g><g class="points"/><g class="text"/></g><g class="trace scatter trace7bb448" style="stroke-miterlimit: 2; opacity: 1;"><g class="fills"/><g class="errorbars"/><g class="lines"><path class="js-line" d="M96.56,125.94L126.06,98.59L129.35,95.75L145.81,82.61L149.11,80.23L162.35,71.79L165.67,69.98L175.66,65.34L179,64.09L189.05,61.2L192.41,60.5L205.89,58.91L209.26,58.77L222.81,59.11L226.2,59.38L246.59,62.09L250,62.66L260.21,64.47" style="vector-effect: non-scaling-stroke; fill: none; stroke: rgb(0, 0, 0); stroke-opacity: 1; stroke-width: 1px; opacity: 1;"/></g><g class="points"/><g class="text"/></g><g class="trace scatter trace407dc3" style="stroke-miterlimit: 2; opacity: 1;"><g class="fills"/><g class="errorbars"/><g class="lines"><path class="js-line" d="M96.56,125.94L103.37,98.44L104.13,95.9L109.27,82.08L110.24,80.07L114.52,73.04L115.7,71.56L120.93,66.92L122.35,66.07L128.48,63.75L130.11,63.41L136.93,62.86L138.71,62.89L149.77,64.18L151.67,64.51L159.3,66.03" style="vector-effect: non-scaling-stroke; fill: none; stroke: rgb(0, 0, 0); stroke-opacity: 1; stroke-width: 1px; opacity: 1;"/></g><g class="points"/><g class="text"/></g><g class="trace scatter trace4d26e5" style="stroke-miterlimit: 2; opacity: 1;"><g class="fills"/><g class="errorbars"/><g class="lines"><path class="js-line" d="M96.56,125.94L107.02,152.8L107.88,155.36L111.26,167.58L111.72,169.89L112.68,178.53L112.67,180.53L111.53,187.8L110.95,189.43L107.62,195.28L106.56,196.59L101.51,201.31L100.08,202.38L92.13,207.22L90.41,208.11L79.69,213.15" style="vector-effect: non-scaling-stroke; fill: none; stroke: rgb(0, 0, 0); stroke-opacity: 1; stroke-width: 1px; opacity: 1;"/></g><g class="points"/><g class="text"/></g><g class="trace scatter tracec01cb0" style="stroke-miterlimit: 2; opacity: 1;"><g class="fills"/><g class="errorbars"/><g class="lines"><path class="js-line" d="M96.56,125.94L113.29,163.92L114.96,168.08L122.26,188.58L123.47,192.61L127.28,208.4L127.95,212.27L129.16,223.62L129.28,227.32L128.79,238.16L128.36,241.69L125.5,255.49L124.53,258.86L119.79,272.09L118.42,275.34L109.16,294.54L107.49,297.7L102.41,307.17" style="vector-effect: non-scaling-stroke; fill: none; stroke: rgb(0, 0, 0); stroke-opacity: 1; stroke-width: 1px; opacity: 1;"/></g><g class="points"/><g class="text"/></g><g class="trace scatter trace8555c0" style="stroke-miterlimit: 2; opacity: 1;"><g class="fills"/><g class="errorbars"/><g class="lines"><path class="js-line" d="M96.56,125.94L95.9,180.09L96,185.99L97.4,214.9L97.9,220.53L100.82,242.46L101.81,247.77L105.47,263.24L106.94,268.22L112.1,282.69L114.06,287.35L122.9,305.33L125.34,309.68L135.85,326.54L138.64,330.65L153.29,350.73L156.32,354.68L168.61,370.36" style="vector-effect: non-scaling-stroke; fill: none; stroke: rgb(0, 0, 0); stroke-opacity: 1; stroke-width: 1px; opacity: 1;"/></g><g class="points"/><g class="text"/></g><g class="trace scatter trace998a6c" style="stroke-miterlimit: 2; opacity: 1;"><g class="fills"/><g class="errorbars"/><g class="lines"><path class="js-line" d="M96.56,125.94L136.03,176.63L140.49,182.07L163.18,208.24L167.81,213.23L186.73,232.14L191.57,236.57L206.39,249.1L211.43,253L226.9,263.83L232.15,267.18L253.61,279.41L259.07,282.21L281.24,292.57L286.86,294.98L320.93,308.36L326.66,310.47L343.87,316.71" style="vector-effect: non-scaling-stroke; fill: none; stroke: rgb(0, 0, 0); stroke-opacity: 1; stroke-width: 1px; opacity: 1;"/></g><g class="points"/><g class="text"/></g><g class="trace scatter tracecb35b7" style="stroke-miterlimit: 2; opacity: 1;"><g class="fills"/><g class="errorbars"/><g class="lines"><path class="js-line" d="M65.35,225.47L95.58,181.82L99.01,177.16L116.55,154.88L120.15,150.67L134.94,134.84L138.75,131.17L150.46,120.94L154.47,117.8L166.81,109.24L171.03,106.65L188.31,97.41L192.73,95.36L210.72,87.98L215.29,86.31L243.08,77.37L247.76,76L261.82,71.96" style="vector-effect: non-scaling-stroke; fill: none; stroke: rgb(0, 0, 0); stroke-opacity: 1; stroke-width: 1px; opacity: 1;"/></g><g class="points"/><g class="text"/></g><g class="trace scatter traced7790e" style="stroke-miterlimit: 2; opacity: 1;"><g class="fills"/><g class="errorbars"/><g class="lines"><path class="js-line" d="M65.35,225.47L54.03,196.05L53.23,193.52L50.19,181.52L49.81,179.27L49.24,170.88L49.35,168.95L50.96,161.98L51.64,160.42L55.35,154.82L56.5,153.57L61.83,149.03L63.33,147.99L73.24,142.43L75.01,141.58L82.23,138.26" style="vector-effect: non-scaling-stroke; fill: none; stroke: rgb(0, 0, 0); stroke-opacity: 1; stroke-width: 1px; opacity: 1;"/></g><g class="points"/><g class="text"/></g><g class="trace scatter trace797601" style="stroke-miterlimit: 2; opacity: 1;"><g class="fills"/><g class="errorbars"/><g class="lines"><path class="js-line" d="M83.99,229.13L46.24,224.02L42.92,223.74L32.64,223.64L30.86,223.87L27.21,225.05L26.5,225.58L25.64,227.42L25.72,228.09L27.46,230.84L28.17,231.49L32.73,234.07L33.74,234.39L37.69,234.7L38.61,234.52L42.03,232.95L42.83,232.4L46.7,229.13" style="vector-effect: non-scaling-stroke; fill: none; stroke: rgb(0, 0, 0); stroke-opacity: 1; stroke-width: 1px; opacity: 1;"/></g><g class="points"/><g class="text"/></g><g class="trace scatter tracebcbfa6" style="stroke-miterlimit: 2; opacity: 1;"><g class="fills"/><g class="errorbars"/><g class="lines"><path class="js-line" d="M65.35,225.47L54.03,254.9L53.23,257.42L50.19,269.42L49.81,271.67L49.24,280.06L49.35,281.99L50.96,288.96L51.64,290.52L55.35,296.12L56.5,297.38L61.83,301.92L63.33,302.95L73.24,308.52L75.01,309.37L82.23,312.68" style="vector-effect: non-scaling-stroke; fill: none; stroke: rgb(0, 0, 0); stroke-opacity: 1; stroke-width: 1px; opacity: 1;"/></g><g class="points"/><g class="text"/></g><g class="trace scatter trace62fd50" style="stroke-miterlimit: 2; opacity: 1;"><g class="fills"/><g class="errorbars"/><g class="lines"><path class="js-line" d="M65.35,225.47L95.58,269.12L99.01,273.78L116.55,296.07L120.15,300.28L134.94,316.1L138.75,319.77L150.46,330.01L154.47,333.14L166.81,341.7L171.03,344.3L188.31,353.53L192.73,355.59L210.72,362.97L215.29,364.63L238.41,372.18L243.08,373.58L261.82,378.98" style="vector-effect: non-scaling-stroke; fill: none; stroke: rgb(0, 0, 0); stroke-opacity: 1; stroke-width: 1px; opacity: 1;"/></g><g class="points"/><g class="text"/></g><g class="trace scatter trace936306" style="stroke-miterlimit: 2; opacity: 1;"><g class="fills"/><g class="errorbars"/><g class="lines"><path class="js-line" d="M65.35,225.47L115.58,259.98L121.17,263.61L149.15,280.66L154.76,283.8L177.22,295.29L182.84,297.85L199.75,304.71L205.4,306.69L222.37,311.74L228.04,313.15L250.75,317.54L256.44,318.36L279.22,320.75L284.93,321.15L319.19,322.45L324.9,322.54L342.05,322.71" style="vector-effect: non-scaling-stroke; fill: none; stroke: rgb(0, 0, 0); stroke-opacity: 1; stroke-width: 1px; opacity: 1;"/></g><g class="points"/><g class="text"/></g><g class="trace scatter tracef868ae" style="stroke-miterlimit: 2; opacity: 1;"><g class="fills"/><g class="errorbars"/><g class="lines"><path class="js-line" d="M96.56,325.01L136.03,274.32L140.49,268.87L163.18,242.7L167.81,237.72L186.73,218.81L191.57,214.37L206.39,201.84L211.43,197.95L226.9,187.12L232.15,183.77L253.61,171.53L259.07,168.73L281.24,158.37L286.86,155.97L315.22,144.72L320.93,142.59L343.87,134.23" style="vector-effect: non-scaling-stroke; fill: none; stroke: rgb(0, 0, 0); stroke-opacity: 1; stroke-width: 1px; opacity: 1;"/></g><g class="points"/><g class="text"/></g><g class="trace scatter trace56d2e7" style="stroke-miterlimit: 2; opacity: 1;"><g class="fills"/><g class="errorbars"/><g class="lines"><path class="js-line" d="M96.56,325.01L79.83,287.03L78.16,282.86L70.86,262.36L69.65,258.34L65.83,242.54L65.17,238.68L63.96,227.33L63.84,223.63L64.33,212.79L64.76,209.25L67.62,195.46L68.59,192.09L73.33,178.86L74.7,175.6L83.96,156.4L85.62,153.24L90.7,143.77" style="vector-effect: non-scaling-stroke; fill: none; stroke: rgb(0, 0, 0); stroke-opacity: 1; stroke-width: 1px; opacity: 1;"/></g><g class="points"/><g class="text"/></g><g class="trace scatter trace2a20cc" style="stroke-miterlimit: 2; opacity: 1;"><g class="fills"/><g class="errorbars"/><g class="lines"><path class="js-line" d="M96.56,325.01L107.02,298.15L107.88,295.58L111.26,283.36L111.72,281.06L112.68,272.42L112.67,270.42L111.53,263.15L110.95,261.52L107.62,255.67L106.56,254.36L101.51,249.63L100.08,248.56L92.13,243.72L90.41,242.83L79.69,237.8" style="vector-effect: non-scaling-stroke; fill: none; stroke: rgb(0, 0, 0); stroke-opacity: 1; stroke-width: 1px; opacity: 1;"/></g><g class="points"/><g class="text"/></g><g class="trace scatter traced70762" style="stroke-miterlimit: 2; opacity: 1;"><g class="fills"/><g class="errorbars"/><g class="lines"><path class="js-line" d="M178.25,386.52L178.91,332.37L178.81,326.47L177.41,297.56L176.91,291.93L173.99,270L173,264.69L169.34,249.23L167.87,244.24L162.71,229.77L160.75,225.11L151.91,207.13L149.47,202.79L138.96,185.92L136.17,181.81L118.49,157.78L115.44,153.85L106.2,142.1" style="vector-effect: non-scaling-stroke; fill: none; stroke: rgb(0, 0, 0); stroke-opacity: 1; stroke-width: 1px; opacity: 1;"/></g><g class="points"/><g class="text"/></g><g class="trace scatter tracefe1079" style="stroke-miterlimit: 2; opacity: 1;"><g class="fills"/><g class="errorbars"/><g class="lines"><path class="js-line" d="M178.25,386.52L202.35,405.85L204.47,407.35L214.72,413.75L216.69,414.77L224.28,417.81L226.09,418.27L232.96,418.85L234.58,418.67L240.74,416.87L242.21,416.17L247.84,412.55L249.19,411.46L257,403.86L258.26,402.46L263.26,396.71" style="vector-effect: non-scaling-stroke; fill: none; stroke: rgb(0, 0, 0); stroke-opacity: 1; stroke-width: 1px; opacity: 1;"/></g><g class="points"/><g class="text"/></g><g class="trace scatter trace1957f4" style="stroke-miterlimit: 2; opacity: 1;"><g class="fills"/><g class="errorbars"/><g class="lines"><path class="js-line" d="M279.23,386.52L249,342.87L245.57,338.21L228.03,315.93L224.43,311.72L209.64,295.9L205.84,292.22L194.13,281.99L190.12,278.85L177.77,270.29L173.56,267.7L156.27,258.46L151.85,256.41L133.86,249.03L129.3,247.36L101.51,238.42L96.83,237.05L82.77,233.02" style="vector-effect: non-scaling-stroke; fill: none; stroke: rgb(0, 0, 0); stroke-opacity: 1; stroke-width: 1px; opacity: 1;"/></g><g class="points"/><g class="text"/></g><g class="trace scatter traced37fbd" style="stroke-miterlimit: 2; opacity: 1;"><g class="fills"/><g class="errorbars"/><g class="lines"><path class="js-line" d="M279.23,386.52L255.13,367.2L253.01,365.7L242.76,359.3L240.79,358.27L233.2,355.24L231.39,354.78L226.18,354.15L224.52,354.2L218.23,355.57L216.74,356.18L211.01,359.48L209.64,360.5L201.75,367.82L200.48,369.19L194.22,376.34" style="vector-effect: non-scaling-stroke; fill: none; stroke: rgb(0, 0, 0); stroke-opacity: 1; stroke-width: 1px; opacity: 1;"/></g><g class="points"/><g class="text"/></g><g class="trace scatter tracec964ea" style="stroke-miterlimit: 2; opacity: 1;"><g class="fills"/><g class="errorbars"/><g class="lines"><path class="js-line" d="M279.23,386.52L307.93,387.27L310.62,387.22L325.49,385.96L327.72,385.57L335.73,383.35L337.49,382.61L343.4,378.87L344.61,377.74L348.49,372.52L349.25,371.06L351.59,364.71L352.02,363.02L353.67,352.16L353.84,350.27L354.36,342.6" style="vector-effect: non-scaling-stroke; fill: none; stroke: rgb(0, 0, 0); stroke-opacity: 1; stroke-width: 1px; opacity: 1;"/></g><g class="points"/><g class="text"/></g><g class="trace scatter trace3ca823" style="stroke-miterlimit: 2; opacity: 1;"><g class="fills"/><g class="errorbars"/><g class="lines"><path class="js-line" d="M360.92,325.01L321.45,274.32L316.99,268.87L294.3,242.7L289.67,237.72L270.75,218.81L265.91,214.37L251.09,201.84L246.05,197.95L230.58,187.12L225.33,183.77L203.87,171.53L198.41,168.73L176.24,158.37L170.62,155.97L142.26,144.72L136.55,142.59L113.61,134.23" style="vector-effect: non-scaling-stroke; fill: none; stroke: rgb(0, 0, 0); stroke-opacity: 1; stroke-width: 1px; opacity: 1;"/></g><g class="points"/><g class="text"/></g><g class="trace scatter trace9ee9b9" style="stroke-miterlimit: 2; opacity: 1;"><g class="fills"/><g class="errorbars"/><g class="lines"><path class="js-line" d="M360.92,325.01L310.69,290.5L305.11,286.87L277.13,269.82L271.52,266.68L249.06,255.19L243.43,252.63L226.53,245.77L220.88,243.79L203.91,238.74L198.24,237.33L175.53,232.94L169.84,232.12L147.05,229.73L141.35,229.33L107.09,228.03L101.38,227.94L84.23,227.77" style="vector-effect: non-scaling-stroke; fill: none; stroke: rgb(0, 0, 0); stroke-opacity: 1; stroke-width: 1px; opacity: 1;"/></g><g class="points"/><g class="text"/></g><g class="trace scatter trace4c4078" style="stroke-miterlimit: 2; opacity: 1;"><g class="fills"/><g class="errorbars"/><g class="lines"><path class="js-line" d="M360.92,325.01L329.53,324.31L326.9,324.41L314.66,325.57L312.43,325.96L304.42,328.18L302.67,328.92L296.75,332.66L295.55,333.8L291.66,339.01L290.9,340.47L288.56,346.82L288.13,348.52L286.48,359.37L286.31,361.26L285.79,368.93" style="vector-effect: non-scaling-stroke; fill: none; stroke: rgb(0, 0, 0); stroke-opacity: 1; stroke-width: 1px; opacity: 1;"/></g><g class="points"/><g class="text"/></g><g class="trace scatter trace96a53f" style="stroke-miterlimit: 2; opacity: 1;"><g class="fills"/><g class="errorbars"/><g class="lines"><path class="js-line" d="M347.76,311.5L375.75,336.98L378.31,339.08L386.69,344.96L388.28,345.77L391.96,346.86L392.85,346.83L394.62,345.8L394.95,345.21L395.11,341.98L394.9,341.04L393.26,337.24L392.67,336.35L389.78,333.51L388.96,333.04L385.35,332.08L384.39,332.03L378.34,332.52" style="vector-effect: non-scaling-stroke; fill: none; stroke: rgb(0, 0, 0); stroke-opacity: 1; stroke-width: 1px; opacity: 1;"/></g><g class="points"/><g class="text"/></g><g class="trace scatter tracea0e2c2" style="stroke-miterlimit: 2;"><g class="fills"><g><path class="js-fill" d="M411.15,225.47L411.15,225.47L411.15,225.47L410.19,219.61L409.66,218.21L406.48,213.17L405.44,212.08L400.52,208.65L399.14,208.05L393.26,206.76L391.75,206.73L385.82,207.79L384.41,208.34L379.36,211.57L378.28,212.62L374.9,217.53L374.31,218.9L373.12,224.73L373.12,226.22L374.31,232.04L374.9,233.41L378.28,238.33L379.36,239.37L384.41,242.61L385.82,243.16L391.75,244.22L393.26,244.19L399.14,242.9L400.52,242.29L405.44,238.86L406.48,237.78L409.66,232.73L410.19,231.34L411.15,225.47L411.15,225.47" style="fill: rgb(0, 154, 250); fill-opacity: 1; stroke-width: 0;"/></g></g><g class="errorbars"/><g class="lines"><path class="js-line" d="M411.15,225.47L410.19,219.61L409.66,218.21L406.48,213.17L405.44,212.08L400.52,208.65L399.14,208.05L393.26,206.76L391.75,206.73L385.82,207.79L384.41,208.34L379.36,211.57L378.28,212.62L374.9,217.53L374.31,218.9L373.12,224.73L373.12,226.22L374.31,232.04L374.9,233.41L378.28,238.33L379.36,239.37L384.41,242.61L385.82,243.16L391.75,244.22L393.26,244.19L399.14,242.9L400.52,242.29L405.44,238.86L406.48,237.78L409.66,232.73L410.19,231.34L411.15,225.47L411.15,225.47" style="vector-effect: non-scaling-stroke; fill: none; stroke: rgb(0, 0, 0); stroke-opacity: 1; stroke-width: 1px; opacity: 1;"/></g><g class="points"/><g class="text"/></g><g class="trace scatter tracebc92dd" style="stroke-miterlimit: 2;"><g class="fills"><g><path class="js-fill" d="M379.94,225.47L379.94,225.47L379.94,125.94L378.99,120.07L378.46,118.68L375.27,113.63L374.24,112.55L369.32,109.12L367.94,108.51L362.06,107.22L360.54,107.19L354.61,108.25L353.21,108.8L348.16,112.04L347.08,113.08L343.69,118L343.11,119.37L341.92,125.19L341.92,126.68L343.11,132.5L343.69,133.88L347.08,138.79L348.16,139.84L353.21,143.07L354.61,143.62L360.54,144.68L362.06,144.65L367.94,143.36L369.32,142.76L374.24,139.32L375.27,138.24L378.46,133.2L378.99,131.8L379.94,125.94L379.94,125.94" style="fill: rgb(0, 154, 250); fill-opacity: 1; stroke-width: 0;"/></g></g><g class="errorbars"/><g class="lines"><path class="js-line" d="M379.94,125.94L378.99,120.07L378.46,118.68L375.27,113.63L374.24,112.55L369.32,109.12L367.94,108.51L362.06,107.22L360.54,107.19L354.61,108.25L353.21,108.8L348.16,112.04L347.08,113.08L343.69,118L343.11,119.37L341.92,125.19L341.92,126.68L343.11,132.5L343.69,133.88L347.08,138.79L348.16,139.84L353.21,143.07L354.61,143.62L360.54,144.68L362.06,144.65L367.94,143.36L369.32,142.76L374.24,139.32L375.27,138.24L378.46,133.2L378.99,131.8L379.94,125.94L379.94,125.94" style="vector-effect: non-scaling-stroke; fill: none; stroke: rgb(0, 0, 0); stroke-opacity: 1; stroke-width: 1px; opacity: 1;"/></g><g class="points"/><g class="text"/></g><g class="trace scatter trace5e1d25" style="stroke-miterlimit: 2;"><g class="fills"><g><path class="js-fill" d="M298.25,225.47L298.25,225.47L298.25,64.42L297.29,58.56L296.76,57.16L293.58,52.12L292.54,51.03L287.63,47.6L286.24,47L280.36,45.71L278.85,45.68L272.92,46.73L271.52,47.28L266.47,50.52L265.39,51.57L262,56.48L261.42,57.85L260.22,63.68L260.22,65.17L261.42,70.99L262,72.36L265.39,77.28L266.47,78.32L271.52,81.56L272.92,82.11L278.85,83.16L280.36,83.13L286.24,81.85L287.63,81.24L292.54,77.81L293.58,76.72L296.76,71.68L297.29,70.28L298.25,64.42L298.25,64.42" style="fill: rgb(0, 154, 250); fill-opacity: 1; stroke-width: 0;"/></g></g><g class="errorbars"/><g class="lines"><path class="js-line" d="M298.25,64.42L297.29,58.56L296.76,57.16L293.58,52.12L292.54,51.03L287.63,47.6L286.24,47L280.36,45.71L278.85,45.68L272.92,46.73L271.52,47.28L266.47,50.52L265.39,51.57L262,56.48L261.42,57.85L260.22,63.68L260.22,65.17L261.42,70.99L262,72.36L265.39,77.28L266.47,78.32L271.52,81.56L272.92,82.11L278.85,83.16L280.36,83.13L286.24,81.85L287.63,81.24L292.54,77.81L293.58,76.72L296.76,71.68L297.29,70.28L298.25,64.42L298.25,64.42" style="vector-effect: non-scaling-stroke; fill: none; stroke: rgb(0, 0, 0); stroke-opacity: 1; stroke-width: 1px; opacity: 1;"/></g><g class="points"/><g class="text"/></g><g class="trace scatter tracee991db" style="stroke-miterlimit: 2;"><g class="fills"><g><path class="js-fill" d="M197.27,225.47L197.27,225.47L197.27,64.42L196.32,58.56L195.79,57.16L192.6,52.12L191.57,51.03L186.65,47.6L185.27,47L179.38,45.71L177.87,45.68L171.94,46.73L170.54,47.28L165.49,50.52L164.41,51.57L161.02,56.48L160.44,57.85L159.25,63.68L159.25,65.17L160.44,70.99L161.02,72.36L164.41,77.28L165.49,78.32L170.54,81.56L171.94,82.11L177.87,83.16L179.38,83.13L185.27,81.85L186.65,81.24L191.57,77.81L192.6,76.72L195.79,71.68L196.32,70.28L197.27,64.42L197.27,64.42" style="fill: rgb(0, 154, 250); fill-opacity: 1; stroke-width: 0;"/></g></g><g class="errorbars"/><g class="lines"><path class="js-line" d="M197.27,64.42L196.32,58.56L195.79,57.16L192.6,52.12L191.57,51.03L186.65,47.6L185.27,47L179.38,45.71L177.87,45.68L171.94,46.73L170.54,47.28L165.49,50.52L164.41,51.57L161.02,56.48L160.44,57.85L159.25,63.68L159.25,65.17L160.44,70.99L161.02,72.36L164.41,77.28L165.49,78.32L170.54,81.56L171.94,82.11L177.87,83.16L179.38,83.13L185.27,81.85L186.65,81.24L191.57,77.81L192.6,76.72L195.79,71.68L196.32,70.28L197.27,64.42L197.27,64.42" style="vector-effect: non-scaling-stroke; fill: none; stroke: rgb(0, 0, 0); stroke-opacity: 1; stroke-width: 1px; opacity: 1;"/></g><g class="points"/><g class="text"/></g><g class="trace scatter traceea5b5f" style="stroke-miterlimit: 2;"><g class="fills"><g><path class="js-fill" d="M115.58,225.47L115.58,225.47L115.58,125.94L114.62,120.07L114.09,118.68L110.91,113.63L109.87,112.55L104.96,109.12L103.57,108.51L97.69,107.22L96.18,107.19L90.25,108.25L88.85,108.8L83.79,112.04L82.71,113.08L79.33,118L78.74,119.37L77.55,125.19L77.55,126.68L78.74,132.5L79.33,133.88L82.71,138.79L83.79,139.84L88.85,143.07L90.25,143.62L96.18,144.68L97.69,144.65L103.57,143.36L104.96,142.76L109.87,139.32L110.91,138.24L114.09,133.2L114.62,131.8L115.58,125.94L115.58,125.94" style="fill: rgb(0, 154, 250); fill-opacity: 1; stroke-width: 0;"/></g></g><g class="errorbars"/><g class="lines"><path class="js-line" d="M115.58,125.94L114.62,120.07L114.09,118.68L110.91,113.63L109.87,112.55L104.96,109.12L103.57,108.51L97.69,107.22L96.18,107.19L90.25,108.25L88.85,108.8L83.79,112.04L82.71,113.08L79.33,118L78.74,119.37L77.55,125.19L77.55,126.68L78.74,132.5L79.33,133.88L82.71,138.79L83.79,139.84L88.85,143.07L90.25,143.62L96.18,144.68L97.69,144.65L103.57,143.36L104.96,142.76L109.87,139.32L110.91,138.24L114.09,133.2L114.62,131.8L115.58,125.94L115.58,125.94" style="vector-effect: non-scaling-stroke; fill: none; stroke: rgb(0, 0, 0); stroke-opacity: 1; stroke-width: 1px; opacity: 1;"/></g><g class="points"/><g class="text"/></g><g class="trace scatter trace3c1d9b" style="stroke-miterlimit: 2;"><g class="fills"><g><path class="js-fill" d="M84.37,225.47L84.37,225.47L84.37,225.47L83.42,219.61L82.89,218.21L79.71,213.17L78.67,212.08L73.75,208.65L72.37,208.05L66.49,206.76L64.98,206.73L59.05,207.79L57.64,208.34L52.59,211.57L51.51,212.62L48.13,217.53L47.54,218.9L46.35,224.73L46.35,226.22L47.54,232.04L48.13,233.41L51.51,238.33L52.59,239.37L57.64,242.61L59.05,243.16L64.98,244.22L66.49,244.19L72.37,242.9L73.75,242.29L78.67,238.86L79.71,237.78L82.89,232.73L83.42,231.34L84.37,225.47L84.37,225.47" style="fill: rgb(0, 154, 250); fill-opacity: 1; stroke-width: 0;"/></g></g><g class="errorbars"/><g class="lines"><path class="js-line" d="M84.37,225.47L83.42,219.61L82.89,218.21L79.71,213.17L78.67,212.08L73.75,208.65L72.37,208.05L66.49,206.76L64.98,206.73L59.05,207.79L57.64,208.34L52.59,211.57L51.51,212.62L48.13,217.53L47.54,218.9L46.35,224.73L46.35,226.22L47.54,232.04L48.13,233.41L51.51,238.33L52.59,239.37L57.64,242.61L59.05,243.16L64.98,244.22L66.49,244.19L72.37,242.9L73.75,242.29L78.67,238.86L79.71,237.78L82.89,232.73L83.42,231.34L84.37,225.47L84.37,225.47" style="vector-effect: non-scaling-stroke; fill: none; stroke: rgb(0, 0, 0); stroke-opacity: 1; stroke-width: 1px; opacity: 1;"/></g><g class="points"/><g class="text"/></g><g class="trace scatter tracedddf01" style="stroke-miterlimit: 2;"><g class="fills"><g><path class="js-fill" d="M115.58,225.47L115.58,225.47L115.58,325.01L114.62,319.14L114.09,317.75L110.91,312.71L109.87,311.62L104.96,308.19L103.57,307.58L97.69,306.29L96.18,306.26L90.25,307.32L88.85,307.87L83.79,311.11L82.71,312.15L79.33,317.07L78.74,318.44L77.55,324.26L77.55,325.75L78.74,331.58L79.33,332.95L82.71,337.86L83.79,338.91L88.85,342.14L90.25,342.69L96.18,343.75L97.69,343.72L103.57,342.43L104.96,341.83L109.87,338.4L110.91,337.31L114.09,332.27L114.62,330.87L115.58,325.01L115.58,325.01" style="fill: rgb(0, 154, 250); fill-opacity: 1; stroke-width: 0;"/></g></g><g class="errorbars"/><g class="lines"><path class="js-line" d="M115.58,325.01L114.62,319.14L114.09,317.75L110.91,312.71L109.87,311.62L104.96,308.19L103.57,307.58L97.69,306.29L96.18,306.26L90.25,307.32L88.85,307.87L83.79,311.11L82.71,312.15L79.33,317.07L78.74,318.44L77.55,324.26L77.55,325.75L78.74,331.58L79.33,332.95L82.71,337.86L83.79,338.91L88.85,342.14L90.25,342.69L96.18,343.75L97.69,343.72L103.57,342.43L104.96,341.83L109.87,338.4L110.91,337.31L114.09,332.27L114.62,330.87L115.58,325.01L115.58,325.01" style="vector-effect: non-scaling-stroke; fill: none; stroke: rgb(0, 0, 0); stroke-opacity: 1; stroke-width: 1px; opacity: 1;"/></g><g class="points"/><g class="text"/></g><g class="trace scatter trace8d04ca" style="stroke-miterlimit: 2;"><g class="fills"><g><path class="js-fill" d="M197.27,225.47L197.27,225.47L197.27,386.52L196.32,380.66L195.79,379.26L192.6,374.22L191.57,373.14L186.65,369.7L185.27,369.1L179.38,367.81L177.87,367.78L171.94,368.84L170.54,369.39L165.49,372.63L164.41,373.67L161.02,378.58L160.44,379.96L159.25,385.78L159.25,387.27L160.44,393.09L161.02,394.47L164.41,399.38L165.49,400.42L170.54,403.66L171.94,404.21L177.87,405.27L179.38,405.24L185.27,403.95L186.65,403.35L191.57,399.91L192.6,398.83L195.79,393.78L196.32,392.39L197.27,386.52L197.27,386.52" style="fill: rgb(0, 154, 250); fill-opacity: 1; stroke-width: 0;"/></g></g><g class="errorbars"/><g class="lines"><path class="js-line" d="M197.27,386.52L196.32,380.66L195.79,379.26L192.6,374.22L191.57,373.14L186.65,369.7L185.27,369.1L179.38,367.81L177.87,367.78L171.94,368.84L170.54,369.39L165.49,372.63L164.41,373.67L161.02,378.58L160.44,379.96L159.25,385.78L159.25,387.27L160.44,393.09L161.02,394.47L164.41,399.38L165.49,400.42L170.54,403.66L171.94,404.21L177.87,405.27L179.38,405.24L185.27,403.95L186.65,403.35L191.57,399.91L192.6,398.83L195.79,393.78L196.32,392.39L197.27,386.52L197.27,386.52" style="vector-effect: non-scaling-stroke; fill: none; stroke: rgb(0, 0, 0); stroke-opacity: 1; stroke-width: 1px; opacity: 1;"/></g><g class="points"/><g class="text"/></g><g class="trace scatter trace76c68d" style="stroke-miterlimit: 2;"><g class="fills"><g><path class="js-fill" d="M298.25,225.47L298.25,225.47L298.25,386.52L297.29,380.66L296.76,379.26L293.58,374.22L292.54,373.14L287.63,369.7L286.24,369.1L280.36,367.81L278.85,367.78L272.92,368.84L271.52,369.39L266.47,372.63L265.39,373.67L262,378.58L261.42,379.96L260.22,385.78L260.22,387.27L261.42,393.09L262,394.47L265.39,399.38L266.47,400.42L271.52,403.66L272.92,404.21L278.85,405.27L280.36,405.24L286.24,403.95L287.63,403.35L292.54,399.91L293.58,398.83L296.76,393.78L297.29,392.39L298.25,386.52L298.25,386.52" style="fill: rgb(0, 154, 250); fill-opacity: 1; stroke-width: 0;"/></g></g><g class="errorbars"/><g class="lines"><path class="js-line" d="M298.25,386.52L297.29,380.66L296.76,379.26L293.58,374.22L292.54,373.14L287.63,369.7L286.24,369.1L280.36,367.81L278.85,367.78L272.92,368.84L271.52,369.39L266.47,372.63L265.39,373.67L262,378.58L261.42,379.96L260.22,385.78L260.22,387.27L261.42,393.09L262,394.47L265.39,399.38L266.47,400.42L271.52,403.66L272.92,404.21L278.85,405.27L280.36,405.24L286.24,403.95L287.63,403.35L292.54,399.91L293.58,398.83L296.76,393.78L297.29,392.39L298.25,386.52L298.25,386.52" style="vector-effect: non-scaling-stroke; fill: none; stroke: rgb(0, 0, 0); stroke-opacity: 1; stroke-width: 1px; opacity: 1;"/></g><g class="points"/><g class="text"/></g><g class="trace scatter tracebc98ba" style="stroke-miterlimit: 2;"><g class="fills"><g><path class="js-fill" d="M379.94,225.47L379.94,225.47L379.94,325.01L378.99,319.14L378.46,317.75L375.27,312.71L374.24,311.62L369.32,308.19L367.94,307.58L362.06,306.29L360.54,306.26L354.61,307.32L353.21,307.87L348.16,311.11L347.08,312.15L343.69,317.07L343.11,318.44L341.92,324.26L341.92,325.75L343.11,331.58L343.69,332.95L347.08,337.86L348.16,338.91L353.21,342.14L354.61,342.69L360.54,343.75L362.06,343.72L367.94,342.43L369.32,341.83L374.24,338.4L375.27,337.31L378.46,332.27L378.99,330.87L379.94,325.01L379.94,325.01" style="fill: rgb(0, 154, 250); fill-opacity: 1; stroke-width: 0;"/></g></g><g class="errorbars"/><g class="lines"><path class="js-line" d="M379.94,325.01L378.99,319.14L378.46,317.75L375.27,312.71L374.24,311.62L369.32,308.19L367.94,307.58L362.06,306.29L360.54,306.26L354.61,307.32L353.21,307.87L348.16,311.11L347.08,312.15L343.69,317.07L343.11,318.44L341.92,324.26L341.92,325.75L343.11,331.58L343.69,332.95L347.08,337.86L348.16,338.91L353.21,342.14L354.61,342.69L360.54,343.75L362.06,343.72L367.94,342.43L369.32,341.83L374.24,338.4L375.27,337.31L378.46,332.27L378.99,330.87L379.94,325.01L379.94,325.01" style="vector-effect: non-scaling-stroke; fill: none; stroke: rgb(0, 0, 0); stroke-opacity: 1; stroke-width: 1px; opacity: 1;"/></g><g class="points"/><g class="text"/></g><g class="trace scatter trace9e36d3" style="stroke-miterlimit: 2; opacity: 1;"><g class="fills"/><g class="errorbars"/><g class="lines"/><g class="points"><path class="point" transform="translate(392.13,225.47)" d="M3,0A3,3 0 1,1 0,-3A3,3 0 0,1 3,0Z" style="opacity: 1; stroke-width: 1px; fill: rgb(0, 154, 250); fill-opacity: 0; stroke: rgb(0, 0, 0); stroke-opacity: 1;"/><path class="point" transform="translate(360.92,125.94)" d="M3,0A3,3 0 1,1 0,-3A3,3 0 0,1 3,0Z" style="opacity: 1; stroke-width: 1px; fill: rgb(0, 154, 250); fill-opacity: 0; stroke: rgb(0, 0, 0); stroke-opacity: 1;"/><path class="point" transform="translate(279.23,64.42)" d="M3,0A3,3 0 1,1 0,-3A3,3 0 0,1 3,0Z" style="opacity: 1; stroke-width: 1px; fill: rgb(0, 154, 250); fill-opacity: 0; stroke: rgb(0, 0, 0); stroke-opacity: 1;"/><path class="point" transform="translate(178.25,64.42)" d="M3,0A3,3 0 1,1 0,-3A3,3 0 0,1 3,0Z" style="opacity: 1; stroke-width: 1px; fill: rgb(0, 154, 250); fill-opacity: 0; stroke: rgb(0, 0, 0); stroke-opacity: 1;"/><path class="point" transform="translate(96.56,125.94)" d="M3,0A3,3 0 1,1 0,-3A3,3 0 0,1 3,0Z" style="opacity: 1; stroke-width: 1px; fill: rgb(0, 154, 250); fill-opacity: 0; stroke: rgb(0, 0, 0); stroke-opacity: 1;"/><path class="point" transform="translate(65.35,225.47)" d="M3,0A3,3 0 1,1 0,-3A3,3 0 0,1 3,0Z" style="opacity: 1; stroke-width: 1px; fill: rgb(0, 154, 250); fill-opacity: 0; stroke: rgb(0, 0, 0); stroke-opacity: 1;"/><path class="point" transform="translate(96.56,325.01)" d="M3,0A3,3 0 1,1 0,-3A3,3 0 0,1 3,0Z" style="opacity: 1; stroke-width: 1px; fill: rgb(0, 154, 250); fill-opacity: 0; stroke: rgb(0, 0, 0); stroke-opacity: 1;"/><path class="point" transform="translate(178.25,386.52)" d="M3,0A3,3 0 1,1 0,-3A3,3 0 0,1 3,0Z" style="opacity: 1; stroke-width: 1px; fill: rgb(0, 154, 250); fill-opacity: 0; stroke: rgb(0, 0, 0); stroke-opacity: 1;"/><path class="point" transform="translate(279.23,386.52)" d="M3,0A3,3 0 1,1 0,-3A3,3 0 0,1 3,0Z" style="opacity: 1; stroke-width: 1px; fill: rgb(0, 154, 250); fill-opacity: 0; stroke: rgb(0, 0, 0); stroke-opacity: 1;"/><path class="point" transform="translate(360.92,325.01)" d="M3,0A3,3 0 1,1 0,-3A3,3 0 0,1 3,0Z" style="opacity: 1; stroke-width: 1px; fill: rgb(0, 154, 250); fill-opacity: 0; stroke: rgb(0, 0, 0); stroke-opacity: 1;"/></g><g class="text"/></g></g></g><g class="overplot"/><path class="xlines-above crisp" d="M0,0" style="fill: none;"/><path class="ylines-above crisp" d="M0,0" style="fill: none;"/><g class="overlines-above"/><g class="xaxislayer-above"/><g class="yaxislayer-above"/><g class="overaxes-above"/></g></g><g class="polarlayer"/><g class="ternarylayer"/><g class="geolayer"/><g class="funnelarealayer"/><g class="pielayer"/><g class="iciclelayer"/><g class="treemaplayer"/><g class="sunburstlayer"/><g class="glimages"/><defs id="topdefs-dc7bf2"><g class="clips"/></defs><g class="layer-above"><g class="imagelayer"/><g class="shapelayer"/></g><g class="infolayer"><g class="g-gtitle"/><g class="annotation" data-index="0" style="opacity: 1;"><g class="annotation-text-g" transform="rotate(0,513.3898425196851,249.9975590551181)"><g class="cursor-pointer" transform="translate(504,245)"><rect class="bg" x="0.5" y="0.5" width="17" height="9" style="stroke-width: 1px; stroke: rgb(0, 0, 0); stroke-opacity: 0; fill: rgb(0, 0, 0); fill-opacity: 0;"/><text class="annotation-text" text-anchor="middle" x="8.6875" y="7" style="font-family: sans-serif; font-size: 6px; fill: rgb(0, 0, 0); fill-opacity: 1; white-space: pre;">0005</text></g></g></g><g class="annotation" data-index="1" style="opacity: 1;"><g class="annotation-text-g" transform="rotate(0,482.1798425196851,150.4675590551181)"><g class="cursor-pointer" transform="translate(473,145)"><rect class="bg" x="0.5" y="0.5" width="17" height="9" style="stroke-width: 1px; stroke: rgb(0, 0, 0); stroke-opacity: 0; fill: rgb(0, 0, 0); fill-opacity: 0;"/><text class="annotation-text" text-anchor="middle" x="8.6875" y="7" style="font-family: sans-serif; font-size: 6px; fill: rgb(0, 0, 0); fill-opacity: 1; white-space: pre;">0014</text></g></g></g><g class="annotation" data-index="2" style="opacity: 1;"><g class="annotation-text-g" transform="rotate(0,400.4898425196851,88.9475590551181)"><g class="cursor-pointer" transform="translate(391,84)"><rect class="bg" x="0.5" y="0.5" width="17" height="9" style="stroke-width: 1px; stroke: rgb(0, 0, 0); stroke-opacity: 0; fill: rgb(0, 0, 0); fill-opacity: 0;"/><text class="annotation-text" text-anchor="middle" x="8.6875" y="7" style="font-family: sans-serif; font-size: 6px; fill: rgb(0, 0, 0); fill-opacity: 1; white-space: pre;">0023</text></g></g></g><g class="annotation" data-index="3" style="opacity: 1;"><g class="annotation-text-g" transform="rotate(0,299.5098425196851,88.9475590551181)"><g class="cursor-pointer" transform="translate(291,84)"><rect class="bg" x="0.5" y="0.5" width="17" height="9" style="stroke-width: 1px; stroke: rgb(0, 0, 0); stroke-opacity: 0; fill: rgb(0, 0, 0); fill-opacity: 0;"/><text class="annotation-text" text-anchor="middle" x="8.6875" y="7" style="font-family: sans-serif; font-size: 6px; fill: rgb(0, 0, 0); fill-opacity: 1; white-space: pre;">0104</text></g></g></g><g class="annotation" data-index="4" style="opacity: 1;"><g class="annotation-text-g" transform="rotate(0,217.8198425196851,150.4675590551181)"><g class="cursor-pointer" transform="translate(209,145)"><rect class="bg" x="0.5" y="0.5" width="17" height="9" style="stroke-width: 1px; stroke: rgb(0, 0, 0); stroke-opacity: 0; fill: rgb(0, 0, 0); fill-opacity: 0;"/><text class="annotation-text" text-anchor="middle" x="8.6875" y="7" style="font-family: sans-serif; font-size: 6px; fill: rgb(0, 0, 0); fill-opacity: 1; white-space: pre;">0113</text></g></g></g><g class="annotation" data-index="5" style="opacity: 1;"><g class="annotation-text-g" transform="rotate(0,186.60984251968506,249.9975590551181)"><g class="cursor-pointer" transform="translate(178,245)"><rect class="bg" x="0.5" y="0.5" width="17" height="9" style="stroke-width: 1px; stroke: rgb(0, 0, 0); stroke-opacity: 0; fill: rgb(0, 0, 0); fill-opacity: 0;"/><text class="annotation-text" text-anchor="middle" x="8.6875" y="7" style="font-family: sans-serif; font-size: 6px; fill: rgb(0, 0, 0); fill-opacity: 1; white-space: pre;">0122</text></g></g></g><g class="annotation" data-index="6" style="opacity: 1;"><g class="annotation-text-g" transform="rotate(0,217.8198425196851,349.5375590551181)"><g class="cursor-pointer" transform="translate(209,345)"><rect class="bg" x="0.5" y="0.5" width="17" height="9" style="stroke-width: 1px; stroke: rgb(0, 0, 0); stroke-opacity: 0; fill: rgb(0, 0, 0); fill-opacity: 0;"/><text class="annotation-text" text-anchor="middle" x="8.6875" y="7" style="font-family: sans-serif; font-size: 6px; fill: rgb(0, 0, 0); fill-opacity: 1; white-space: pre;">0131</text></g></g></g><g class="annotation" data-index="7" style="opacity: 1;"><g class="annotation-text-g" transform="rotate(0,299.5098425196851,411.0475590551181)"><g class="cursor-pointer" transform="translate(291,406)"><rect class="bg" x="0.5" y="0.5" width="17" height="9" style="stroke-width: 1px; stroke: rgb(0, 0, 0); stroke-opacity: 0; fill: rgb(0, 0, 0); fill-opacity: 0;"/><text class="annotation-text" text-anchor="middle" x="8.6875" y="7" style="font-family: sans-serif; font-size: 6px; fill: rgb(0, 0, 0); fill-opacity: 1; white-space: pre;">0203</text></g></g></g><g class="annotation" data-index="8" style="opacity: 1;"><g class="annotation-text-g" transform="rotate(0,400.4898425196851,411.0475590551181)"><g class="cursor-pointer" transform="translate(391,406)"><rect class="bg" x="0.5" y="0.5" width="17" height="9" style="stroke-width: 1px; stroke: rgb(0, 0, 0); stroke-opacity: 0; fill: rgb(0, 0, 0); fill-opacity: 0;"/><text class="annotation-text" text-anchor="middle" x="8.6875" y="7" style="font-family: sans-serif; font-size: 6px; fill: rgb(0, 0, 0); fill-opacity: 1; white-space: pre;">0212</text></g></g></g><g class="annotation" data-index="9" style="opacity: 1;"><g class="annotation-text-g" transform="rotate(0,482.1798425196851,349.5375590551181)"><g class="cursor-pointer" transform="translate(473,345)"><rect class="bg" x="0.5" y="0.5" width="17" height="9" style="stroke-width: 1px; stroke: rgb(0, 0, 0); stroke-opacity: 0; fill: rgb(0, 0, 0); fill-opacity: 0;"/><text class="annotation-text" text-anchor="middle" x="8.6875" y="7" style="font-family: sans-serif; font-size: 6px; fill: rgb(0, 0, 0); fill-opacity: 1; white-space: pre;">1112</text></g></g></g></g></svg>