<?xml version="1.0" encoding="utf-8"?>
<svg xmlns="http://www.w3.org/2000/svg" xmlns:xlink="http://www.w3.org/1999/xlink" width="600" height="400" viewBox="0 0 2400 1600">
<defs>
  <clipPath id="clip320">
    <rect x="0" y="0" width="2400" height="1600"/>
  </clipPath>
</defs>
<path clip-path="url(#clip320)" d="M0 1600 L2400 1600 L2400 0 L0 0  Z" fill="#ffffff" fill-rule="evenodd" fill-opacity="1"/>
<defs>
  <clipPath id="clip321">
    <rect x="480" y="0" width="1681" height="1600"/>
  </clipPath>
</defs>
<path clip-path="url(#clip320)" d="M612.511 1486.45 L1964.34 1486.45 L1964.34 123.472 L612.511 123.472  Z" fill="#ffffff" fill-rule="evenodd" fill-opacity="1"/>
<defs>
  <clipPath id="clip322">
    <rect x="612" y="123" width="1353" height="1364"/>
  </clipPath>
</defs>
<polyline clip-path="url(#clip322)" style="stroke:#000000; stroke-linecap:round; stroke-linejoin:round; stroke-width:2; stroke-opacity:0.1; fill:none" points="777.543,1486.45 777.543,123.472 "/>
<polyline clip-path="url(#clip322)" style="stroke:#000000; stroke-linecap:round; stroke-linejoin:round; stroke-width:2; stroke-opacity:0.1; fill:none" points="1021.05,1486.45 1021.05,123.472 "/>
<polyline clip-path="url(#clip322)" style="stroke:#000000; stroke-linecap:round; stroke-linejoin:round; stroke-width:2; stroke-opacity:0.1; fill:none" points="1264.56,1486.45 1264.56,123.472 "/>
<polyline clip-path="url(#clip322)" style="stroke:#000000; stroke-linecap:round; stroke-linejoin:round; stroke-width:2; stroke-opacity:0.1; fill:none" points="1508.06,1486.45 1508.06,123.472 "/>
<polyline clip-path="url(#clip322)" style="stroke:#000000; stroke-linecap:round; stroke-linejoin:round; stroke-width:2; stroke-opacity:0.1; fill:none" points="1751.57,1486.45 1751.57,123.472 "/>
<polyline clip-path="url(#clip320)" style="stroke:#000000; stroke-linecap:round; stroke-linejoin:round; stroke-width:4; stroke-opacity:1; fill:none" points="612.511,1486.45 1964.34,1486.45 "/>
<polyline clip-path="url(#clip320)" style="stroke:#000000; stroke-linecap:round; stroke-linejoin:round; stroke-width:4; stroke-opacity:1; fill:none" points="777.543,1486.45 777.543,1467.55 "/>
<polyline clip-path="url(#clip320)" style="stroke:#000000; stroke-linecap:round; stroke-linejoin:round; stroke-width:4; stroke-opacity:1; fill:none" points="1021.05,1486.45 1021.05,1467.55 "/>
<polyline clip-path="url(#clip320)" style="stroke:#000000; stroke-linecap:round; stroke-linejoin:round; stroke-width:4; stroke-opacity:1; fill:none" points="1264.56,1486.45 1264.56,1467.55 "/>
<polyline clip-path="url(#clip320)" style="stroke:#000000; stroke-linecap:round; stroke-linejoin:round; stroke-width:4; stroke-opacity:1; fill:none" points="1508.06,1486.45 1508.06,1467.55 "/>
<polyline clip-path="url(#clip320)" style="stroke:#000000; stroke-linecap:round; stroke-linejoin:round; stroke-width:4; stroke-opacity:1; fill:none" points="1751.57,1486.45 1751.57,1467.55 "/>
<path clip-path="url(#clip320)" d="M708.99 1532.02 L738.666 1532.02 L738.666 1535.95 L708.99 1535.95 L708.99 1532.02 Z" fill="#000000" fill-rule="nonzero" fill-opacity="1" /><path clip-path="url(#clip320)" d="M749.568 1544.91 L757.207 1544.91 L757.207 1518.55 L748.897 1520.21 L748.897 1515.95 L757.161 1514.29 L761.837 1514.29 L761.837 1544.91 L769.476 1544.91 L769.476 1548.85 L749.568 1548.85 L749.568 1544.91 Z" fill="#000000" fill-rule="nonzero" fill-opacity="1" /><path clip-path="url(#clip320)" d="M778.92 1542.97 L783.804 1542.97 L783.804 1548.85 L778.92 1548.85 L778.92 1542.97 Z" fill="#000000" fill-rule="nonzero" fill-opacity="1" /><path clip-path="url(#clip320)" d="M803.989 1517.37 Q800.378 1517.37 798.55 1520.93 Q796.744 1524.47 796.744 1531.6 Q796.744 1538.71 798.55 1542.27 Q800.378 1545.82 803.989 1545.82 Q807.624 1545.82 809.429 1542.27 Q811.258 1538.71 811.258 1531.6 Q811.258 1524.47 809.429 1520.93 Q807.624 1517.37 803.989 1517.37 M803.989 1513.66 Q809.8 1513.66 812.855 1518.27 Q815.934 1522.85 815.934 1531.6 Q815.934 1540.33 812.855 1544.94 Q809.8 1549.52 803.989 1549.52 Q798.179 1549.52 795.101 1544.94 Q792.045 1540.33 792.045 1531.6 Q792.045 1522.85 795.101 1518.27 Q798.179 1513.66 803.989 1513.66 Z" fill="#000000" fill-rule="nonzero" fill-opacity="1" /><path clip-path="url(#clip320)" d="M834.151 1517.37 Q830.54 1517.37 828.712 1520.93 Q826.906 1524.47 826.906 1531.6 Q826.906 1538.71 828.712 1542.27 Q830.54 1545.82 834.151 1545.82 Q837.786 1545.82 839.591 1542.27 Q841.42 1538.71 841.42 1531.6 Q841.42 1524.47 839.591 1520.93 Q837.786 1517.37 834.151 1517.37 M834.151 1513.66 Q839.961 1513.66 843.017 1518.27 Q846.096 1522.85 846.096 1531.6 Q846.096 1540.33 843.017 1544.94 Q839.961 1549.52 834.151 1549.52 Q828.341 1549.52 825.262 1544.94 Q822.207 1540.33 822.207 1531.6 Q822.207 1522.85 825.262 1518.27 Q828.341 1513.66 834.151 1513.66 Z" fill="#000000" fill-rule="nonzero" fill-opacity="1" /><path clip-path="url(#clip320)" d="M952.994 1532.02 L982.67 1532.02 L982.67 1535.95 L952.994 1535.95 L952.994 1532.02 Z" fill="#000000" fill-rule="nonzero" fill-opacity="1" /><path clip-path="url(#clip320)" d="M1002.76 1517.37 Q999.152 1517.37 997.323 1520.93 Q995.517 1524.47 995.517 1531.6 Q995.517 1538.71 997.323 1542.27 Q999.152 1545.82 1002.76 1545.82 Q1006.4 1545.82 1008.2 1542.27 Q1010.03 1538.71 1010.03 1531.6 Q1010.03 1524.47 1008.2 1520.93 Q1006.4 1517.37 1002.76 1517.37 M1002.76 1513.66 Q1008.57 1513.66 1011.63 1518.27 Q1014.71 1522.85 1014.71 1531.6 Q1014.71 1540.33 1011.63 1544.94 Q1008.57 1549.52 1002.76 1549.52 Q996.953 1549.52 993.874 1544.94 Q990.818 1540.33 990.818 1531.6 Q990.818 1522.85 993.874 1518.27 Q996.953 1513.66 1002.76 1513.66 Z" fill="#000000" fill-rule="nonzero" fill-opacity="1" /><path clip-path="url(#clip320)" d="M1022.92 1542.97 L1027.81 1542.97 L1027.81 1548.85 L1022.92 1548.85 L1022.92 1542.97 Z" fill="#000000" fill-rule="nonzero" fill-opacity="1" /><path clip-path="url(#clip320)" d="M1036.81 1514.29 L1059.04 1514.29 L1059.04 1516.28 L1046.49 1548.85 L1041.61 1548.85 L1053.41 1518.22 L1036.81 1518.22 L1036.81 1514.29 Z" fill="#000000" fill-rule="nonzero" fill-opacity="1" /><path clip-path="url(#clip320)" d="M1068.2 1514.29 L1086.56 1514.29 L1086.56 1518.22 L1072.48 1518.22 L1072.48 1526.7 Q1073.5 1526.35 1074.52 1526.19 Q1075.54 1526 1076.56 1526 Q1082.35 1526 1085.73 1529.17 Q1089.1 1532.34 1089.1 1537.76 Q1089.1 1543.34 1085.63 1546.44 Q1082.16 1549.52 1075.84 1549.52 Q1073.67 1549.52 1071.4 1549.15 Q1069.15 1548.78 1066.74 1548.04 L1066.74 1543.34 Q1068.83 1544.47 1071.05 1545.03 Q1073.27 1545.58 1075.75 1545.58 Q1079.75 1545.58 1082.09 1543.48 Q1084.43 1541.37 1084.43 1537.76 Q1084.43 1534.15 1082.09 1532.04 Q1079.75 1529.94 1075.75 1529.94 Q1073.87 1529.94 1072 1530.35 Q1070.15 1530.77 1068.2 1531.65 L1068.2 1514.29 Z" fill="#000000" fill-rule="nonzero" fill-opacity="1" /><path clip-path="url(#clip320)" d="M1196 1532.02 L1225.68 1532.02 L1225.68 1535.95 L1196 1535.95 L1196 1532.02 Z" fill="#000000" fill-rule="nonzero" fill-opacity="1" /><path clip-path="url(#clip320)" d="M1245.77 1517.37 Q1242.16 1517.37 1240.33 1520.93 Q1238.53 1524.47 1238.53 1531.6 Q1238.53 1538.71 1240.33 1542.27 Q1242.16 1545.82 1245.77 1545.82 Q1249.41 1545.82 1251.21 1542.27 Q1253.04 1538.71 1253.04 1531.6 Q1253.04 1524.47 1251.21 1520.93 Q1249.41 1517.37 1245.77 1517.37 M1245.77 1513.66 Q1251.58 1513.66 1254.64 1518.27 Q1257.72 1522.85 1257.72 1531.6 Q1257.72 1540.33 1254.64 1544.94 Q1251.58 1549.52 1245.77 1549.52 Q1239.96 1549.52 1236.88 1544.94 Q1233.83 1540.33 1233.83 1531.6 Q1233.83 1522.85 1236.88 1518.27 Q1239.96 1513.66 1245.77 1513.66 Z" fill="#000000" fill-rule="nonzero" fill-opacity="1" /><path clip-path="url(#clip320)" d="M1265.93 1542.97 L1270.82 1542.97 L1270.82 1548.85 L1265.93 1548.85 L1265.93 1542.97 Z" fill="#000000" fill-rule="nonzero" fill-opacity="1" /><path clip-path="url(#clip320)" d="M1281.05 1514.29 L1299.41 1514.29 L1299.41 1518.22 L1285.33 1518.22 L1285.33 1526.7 Q1286.35 1526.35 1287.37 1526.19 Q1288.39 1526 1289.41 1526 Q1295.19 1526 1298.57 1529.17 Q1301.95 1532.34 1301.95 1537.76 Q1301.95 1543.34 1298.48 1546.44 Q1295.01 1549.52 1288.69 1549.52 Q1286.51 1549.52 1284.24 1549.15 Q1282 1548.78 1279.59 1548.04 L1279.59 1543.34 Q1281.67 1544.47 1283.9 1545.03 Q1286.12 1545.58 1288.6 1545.58 Q1292.6 1545.58 1294.94 1543.48 Q1297.28 1541.37 1297.28 1537.76 Q1297.28 1534.15 1294.94 1532.04 Q1292.6 1529.94 1288.6 1529.94 Q1286.72 1529.94 1284.85 1530.35 Q1282.99 1530.77 1281.05 1531.65 L1281.05 1514.29 Z" fill="#000000" fill-rule="nonzero" fill-opacity="1" /><path clip-path="url(#clip320)" d="M1321.16 1517.37 Q1317.55 1517.37 1315.73 1520.93 Q1313.92 1524.47 1313.92 1531.6 Q1313.92 1538.71 1315.73 1542.27 Q1317.55 1545.82 1321.16 1545.82 Q1324.8 1545.82 1326.6 1542.27 Q1328.43 1538.71 1328.43 1531.6 Q1328.43 1524.47 1326.6 1520.93 Q1324.8 1517.37 1321.16 1517.37 M1321.16 1513.66 Q1326.98 1513.66 1330.03 1518.27 Q1333.11 1522.85 1333.11 1531.6 Q1333.11 1540.33 1330.03 1544.94 Q1326.98 1549.52 1321.16 1549.52 Q1315.35 1549.52 1312.28 1544.94 Q1309.22 1540.33 1309.22 1531.6 Q1309.22 1522.85 1312.28 1518.27 Q1315.35 1513.66 1321.16 1513.66 Z" fill="#000000" fill-rule="nonzero" fill-opacity="1" /><path clip-path="url(#clip320)" d="M1440.01 1532.02 L1469.68 1532.02 L1469.68 1535.95 L1440.01 1535.95 L1440.01 1532.02 Z" fill="#000000" fill-rule="nonzero" fill-opacity="1" /><path clip-path="url(#clip320)" d="M1489.78 1517.37 Q1486.17 1517.37 1484.34 1520.93 Q1482.53 1524.47 1482.53 1531.6 Q1482.53 1538.71 1484.34 1542.27 Q1486.17 1545.82 1489.78 1545.82 Q1493.41 1545.82 1495.22 1542.27 Q1497.04 1538.71 1497.04 1531.6 Q1497.04 1524.47 1495.22 1520.93 Q1493.41 1517.37 1489.78 1517.37 M1489.78 1513.66 Q1495.59 1513.66 1498.64 1518.27 Q1501.72 1522.85 1501.72 1531.6 Q1501.72 1540.33 1498.64 1544.94 Q1495.59 1549.52 1489.78 1549.52 Q1483.97 1549.52 1480.89 1544.94 Q1477.83 1540.33 1477.83 1531.6 Q1477.83 1522.85 1480.89 1518.27 Q1483.97 1513.66 1489.78 1513.66 Z" fill="#000000" fill-rule="nonzero" fill-opacity="1" /><path clip-path="url(#clip320)" d="M1509.94 1542.97 L1514.82 1542.97 L1514.82 1548.85 L1509.94 1548.85 L1509.94 1542.97 Z" fill="#000000" fill-rule="nonzero" fill-opacity="1" /><path clip-path="url(#clip320)" d="M1529.04 1544.91 L1545.35 1544.91 L1545.35 1548.85 L1523.41 1548.85 L1523.41 1544.91 Q1526.07 1542.16 1530.66 1537.53 Q1535.26 1532.88 1536.44 1531.53 Q1538.69 1529.01 1539.57 1527.27 Q1540.47 1525.51 1540.47 1523.82 Q1540.47 1521.07 1538.53 1519.33 Q1536.6 1517.6 1533.5 1517.6 Q1531.3 1517.6 1528.85 1518.36 Q1526.42 1519.13 1523.64 1520.68 L1523.64 1515.95 Q1526.47 1514.82 1528.92 1514.24 Q1531.37 1513.66 1533.41 1513.66 Q1538.78 1513.66 1541.98 1516.35 Q1545.17 1519.03 1545.17 1523.52 Q1545.17 1525.65 1544.36 1527.57 Q1543.57 1529.47 1541.47 1532.07 Q1540.89 1532.74 1537.79 1535.95 Q1534.68 1539.15 1529.04 1544.91 Z" fill="#000000" fill-rule="nonzero" fill-opacity="1" /><path clip-path="url(#clip320)" d="M1555.22 1514.29 L1573.57 1514.29 L1573.57 1518.22 L1559.5 1518.22 L1559.5 1526.7 Q1560.52 1526.35 1561.54 1526.19 Q1562.55 1526 1563.57 1526 Q1569.36 1526 1572.74 1529.17 Q1576.12 1532.34 1576.12 1537.76 Q1576.12 1543.34 1572.65 1546.44 Q1569.17 1549.52 1562.85 1549.52 Q1560.68 1549.52 1558.41 1549.15 Q1556.16 1548.78 1553.76 1548.04 L1553.76 1543.34 Q1555.84 1544.47 1558.06 1545.03 Q1560.29 1545.58 1562.76 1545.58 Q1566.77 1545.58 1569.1 1543.48 Q1571.44 1541.37 1571.44 1537.76 Q1571.44 1534.15 1569.1 1532.04 Q1566.77 1529.94 1562.76 1529.94 Q1560.89 1529.94 1559.01 1530.35 Q1557.16 1530.77 1555.22 1531.65 L1555.22 1514.29 Z" fill="#000000" fill-rule="nonzero" fill-opacity="1" /><path clip-path="url(#clip320)" d="M1713.87 1517.37 Q1710.26 1517.37 1708.43 1520.93 Q1706.63 1524.47 1706.63 1531.6 Q1706.63 1538.71 1708.43 1542.27 Q1710.26 1545.82 1713.87 1545.82 Q1717.51 1545.82 1719.31 1542.27 Q1721.14 1538.71 1721.14 1531.6 Q1721.14 1524.47 1719.31 1520.93 Q1717.51 1517.37 1713.87 1517.37 M1713.87 1513.66 Q1719.68 1513.66 1722.74 1518.27 Q1725.82 1522.85 1725.82 1531.6 Q1725.82 1540.33 1722.74 1544.94 Q1719.68 1549.52 1713.87 1549.52 Q1708.06 1549.52 1704.98 1544.94 Q1701.93 1540.33 1701.93 1531.6 Q1701.93 1522.85 1704.98 1518.27 Q1708.06 1513.66 1713.87 1513.66 Z" fill="#000000" fill-rule="nonzero" fill-opacity="1" /><path clip-path="url(#clip320)" d="M1734.04 1542.97 L1738.92 1542.97 L1738.92 1548.85 L1734.04 1548.85 L1734.04 1542.97 Z" fill="#000000" fill-rule="nonzero" fill-opacity="1" /><path clip-path="url(#clip320)" d="M1759.1 1517.37 Q1755.49 1517.37 1753.66 1520.93 Q1751.86 1524.47 1751.86 1531.6 Q1751.86 1538.71 1753.66 1542.27 Q1755.49 1545.82 1759.1 1545.82 Q1762.74 1545.82 1764.54 1542.27 Q1766.37 1538.71 1766.37 1531.6 Q1766.37 1524.47 1764.54 1520.93 Q1762.74 1517.37 1759.1 1517.37 M1759.1 1513.66 Q1764.91 1513.66 1767.97 1518.27 Q1771.05 1522.85 1771.05 1531.6 Q1771.05 1540.33 1767.97 1544.94 Q1764.91 1549.52 1759.1 1549.52 Q1753.29 1549.52 1750.22 1544.94 Q1747.16 1540.33 1747.16 1531.6 Q1747.16 1522.85 1750.22 1518.27 Q1753.29 1513.66 1759.1 1513.66 Z" fill="#000000" fill-rule="nonzero" fill-opacity="1" /><path clip-path="url(#clip320)" d="M1789.27 1517.37 Q1785.66 1517.37 1783.83 1520.93 Q1782.02 1524.47 1782.02 1531.6 Q1782.02 1538.71 1783.83 1542.27 Q1785.66 1545.82 1789.27 1545.82 Q1792.9 1545.82 1794.71 1542.27 Q1796.53 1538.71 1796.53 1531.6 Q1796.53 1524.47 1794.71 1520.93 Q1792.9 1517.37 1789.27 1517.37 M1789.27 1513.66 Q1795.08 1513.66 1798.13 1518.27 Q1801.21 1522.85 1801.21 1531.6 Q1801.21 1540.33 1798.13 1544.94 Q1795.08 1549.52 1789.27 1549.52 Q1783.46 1549.52 1780.38 1544.94 Q1777.32 1540.33 1777.32 1531.6 Q1777.32 1522.85 1780.38 1518.27 Q1783.46 1513.66 1789.27 1513.66 Z" fill="#000000" fill-rule="nonzero" fill-opacity="1" /><polyline clip-path="url(#clip322)" style="stroke:#000000; stroke-linecap:round; stroke-linejoin:round; stroke-width:2; stroke-opacity:0.1; fill:none" points="612.511,1284.82 1964.34,1284.82 "/>
<polyline clip-path="url(#clip322)" style="stroke:#000000; stroke-linecap:round; stroke-linejoin:round; stroke-width:2; stroke-opacity:0.1; fill:none" points="612.511,1041.31 1964.34,1041.31 "/>
<polyline clip-path="url(#clip322)" style="stroke:#000000; stroke-linecap:round; stroke-linejoin:round; stroke-width:2; stroke-opacity:0.1; fill:none" points="612.511,797.802 1964.34,797.802 "/>
<polyline clip-path="url(#clip322)" style="stroke:#000000; stroke-linecap:round; stroke-linejoin:round; stroke-width:2; stroke-opacity:0.1; fill:none" points="612.511,554.295 1964.34,554.295 "/>
<polyline clip-path="url(#clip322)" style="stroke:#000000; stroke-linecap:round; stroke-linejoin:round; stroke-width:2; stroke-opacity:0.1; fill:none" points="612.511,310.788 1964.34,310.788 "/>
<polyline clip-path="url(#clip320)" style="stroke:#000000; stroke-linecap:round; stroke-linejoin:round; stroke-width:4; stroke-opacity:1; fill:none" points="612.511,1486.45 612.511,123.472 "/>
<polyline clip-path="url(#clip320)" style="stroke:#000000; stroke-linecap:round; stroke-linejoin:round; stroke-width:4; stroke-opacity:1; fill:none" points="612.511,1284.82 624.513,1284.82 "/>
<polyline clip-path="url(#clip320)" style="stroke:#000000; stroke-linecap:round; stroke-linejoin:round; stroke-width:4; stroke-opacity:1; fill:none" points="612.511,1041.31 624.513,1041.31 "/>
<polyline clip-path="url(#clip320)" style="stroke:#000000; stroke-linecap:round; stroke-linejoin:round; stroke-width:4; stroke-opacity:1; fill:none" points="612.511,797.802 624.513,797.802 "/>
<polyline clip-path="url(#clip320)" style="stroke:#000000; stroke-linecap:round; stroke-linejoin:round; stroke-width:4; stroke-opacity:1; fill:none" points="612.511,554.295 624.513,554.295 "/>
<polyline clip-path="url(#clip320)" style="stroke:#000000; stroke-linecap:round; stroke-linejoin:round; stroke-width:4; stroke-opacity:1; fill:none" points="612.511,310.788 624.513,310.788 "/>
<path clip-path="url(#clip320)" d="M439.406 1285.27 L469.081 1285.27 L469.081 1289.2 L439.406 1289.2 L439.406 1285.27 Z" fill="#000000" fill-rule="nonzero" fill-opacity="1" /><path clip-path="url(#clip320)" d="M489.174 1270.61 Q485.563 1270.61 483.734 1274.18 Q481.929 1277.72 481.929 1284.85 Q481.929 1291.96 483.734 1295.52 Q485.563 1299.06 489.174 1299.06 Q492.808 1299.06 494.614 1295.52 Q496.442 1291.96 496.442 1284.85 Q496.442 1277.72 494.614 1274.18 Q492.808 1270.61 489.174 1270.61 M489.174 1266.91 Q494.984 1266.91 498.04 1271.52 Q501.118 1276.1 501.118 1284.85 Q501.118 1293.58 498.04 1298.18 Q494.984 1302.77 489.174 1302.77 Q483.364 1302.77 480.285 1298.18 Q477.23 1293.58 477.23 1284.85 Q477.23 1276.1 480.285 1271.52 Q483.364 1266.91 489.174 1266.91 Z" fill="#000000" fill-rule="nonzero" fill-opacity="1" /><path clip-path="url(#clip320)" d="M509.336 1296.22 L514.22 1296.22 L514.22 1302.1 L509.336 1302.1 L509.336 1296.22 Z" fill="#000000" fill-rule="nonzero" fill-opacity="1" /><path clip-path="url(#clip320)" d="M524.452 1267.54 L542.808 1267.54 L542.808 1271.47 L528.734 1271.47 L528.734 1279.94 Q529.752 1279.6 530.771 1279.43 Q531.789 1279.25 532.808 1279.25 Q538.595 1279.25 541.975 1282.42 Q545.354 1285.59 545.354 1291.01 Q545.354 1296.59 541.882 1299.69 Q538.41 1302.77 532.09 1302.77 Q529.914 1302.77 527.646 1302.4 Q525.401 1302.03 522.993 1301.29 L522.993 1296.59 Q525.077 1297.72 527.299 1298.28 Q529.521 1298.83 531.998 1298.83 Q536.002 1298.83 538.34 1296.72 Q540.678 1294.62 540.678 1291.01 Q540.678 1287.4 538.34 1285.29 Q536.002 1283.18 531.998 1283.18 Q530.123 1283.18 528.248 1283.6 Q526.396 1284.02 524.452 1284.9 L524.452 1267.54 Z" fill="#000000" fill-rule="nonzero" fill-opacity="1" /><path clip-path="url(#clip320)" d="M564.567 1270.61 Q560.956 1270.61 559.127 1274.18 Q557.322 1277.72 557.322 1284.85 Q557.322 1291.96 559.127 1295.52 Q560.956 1299.06 564.567 1299.06 Q568.201 1299.06 570.007 1295.52 Q571.836 1291.96 571.836 1284.85 Q571.836 1277.72 570.007 1274.18 Q568.201 1270.61 564.567 1270.61 M564.567 1266.91 Q570.377 1266.91 573.433 1271.52 Q576.511 1276.1 576.511 1284.85 Q576.511 1293.58 573.433 1298.18 Q570.377 1302.77 564.567 1302.77 Q558.757 1302.77 555.678 1298.18 Q552.623 1293.58 552.623 1284.85 Q552.623 1276.1 555.678 1271.52 Q558.757 1266.91 564.567 1266.91 Z" fill="#000000" fill-rule="nonzero" fill-opacity="1" /><path clip-path="url(#clip320)" d="M440.401 1041.76 L470.077 1041.76 L470.077 1045.69 L440.401 1045.69 L440.401 1041.76 Z" fill="#000000" fill-rule="nonzero" fill-opacity="1" /><path clip-path="url(#clip320)" d="M490.169 1027.11 Q486.558 1027.11 484.73 1030.67 Q482.924 1034.21 482.924 1041.34 Q482.924 1048.45 484.73 1052.01 Q486.558 1055.56 490.169 1055.56 Q493.804 1055.56 495.609 1052.01 Q497.438 1048.45 497.438 1041.34 Q497.438 1034.21 495.609 1030.67 Q493.804 1027.11 490.169 1027.11 M490.169 1023.4 Q495.979 1023.4 499.035 1028.01 Q502.114 1032.59 502.114 1041.34 Q502.114 1050.07 499.035 1054.68 Q495.979 1059.26 490.169 1059.26 Q484.359 1059.26 481.28 1054.68 Q478.225 1050.07 478.225 1041.34 Q478.225 1032.59 481.28 1028.01 Q484.359 1023.4 490.169 1023.4 Z" fill="#000000" fill-rule="nonzero" fill-opacity="1" /><path clip-path="url(#clip320)" d="M510.331 1052.71 L515.215 1052.71 L515.215 1058.59 L510.331 1058.59 L510.331 1052.71 Z" fill="#000000" fill-rule="nonzero" fill-opacity="1" /><path clip-path="url(#clip320)" d="M529.428 1054.65 L545.748 1054.65 L545.748 1058.59 L523.803 1058.59 L523.803 1054.65 Q526.465 1051.9 531.049 1047.27 Q535.655 1042.62 536.836 1041.27 Q539.081 1038.75 539.961 1037.01 Q540.863 1035.26 540.863 1033.57 Q540.863 1030.81 538.919 1029.07 Q536.998 1027.34 533.896 1027.34 Q531.697 1027.34 529.243 1028.1 Q526.813 1028.87 524.035 1030.42 L524.035 1025.7 Q526.859 1024.56 529.313 1023.98 Q531.766 1023.4 533.803 1023.4 Q539.174 1023.4 542.368 1026.09 Q545.563 1028.77 545.563 1033.26 Q545.563 1035.39 544.752 1037.32 Q543.965 1039.21 541.859 1041.81 Q541.28 1042.48 538.178 1045.69 Q535.076 1048.89 529.428 1054.65 Z" fill="#000000" fill-rule="nonzero" fill-opacity="1" /><path clip-path="url(#clip320)" d="M555.609 1024.03 L573.965 1024.03 L573.965 1027.96 L559.891 1027.96 L559.891 1036.44 Q560.91 1036.09 561.928 1035.93 Q562.947 1035.74 563.965 1035.74 Q569.752 1035.74 573.132 1038.91 Q576.511 1042.08 576.511 1047.5 Q576.511 1053.08 573.039 1056.18 Q569.567 1059.26 563.248 1059.26 Q561.072 1059.26 558.803 1058.89 Q556.558 1058.52 554.15 1057.78 L554.15 1053.08 Q556.234 1054.21 558.456 1054.77 Q560.678 1055.32 563.155 1055.32 Q567.16 1055.32 569.498 1053.22 Q571.836 1051.11 571.836 1047.5 Q571.836 1043.89 569.498 1041.78 Q567.16 1039.68 563.155 1039.68 Q561.28 1039.68 559.405 1040.09 Q557.553 1040.51 555.609 1041.39 L555.609 1024.03 Z" fill="#000000" fill-rule="nonzero" fill-opacity="1" /><path clip-path="url(#clip320)" d="M489.174 783.6 Q485.563 783.6 483.734 787.165 Q481.929 790.707 481.929 797.836 Q481.929 804.943 483.734 808.508 Q485.563 812.049 489.174 812.049 Q492.808 812.049 494.614 808.508 Q496.442 804.943 496.442 797.836 Q496.442 790.707 494.614 787.165 Q492.808 783.6 489.174 783.6 M489.174 779.897 Q494.984 779.897 498.04 784.503 Q501.118 789.086 501.118 797.836 Q501.118 806.563 498.04 811.17 Q494.984 815.753 489.174 815.753 Q483.364 815.753 480.285 811.17 Q477.23 806.563 477.23 797.836 Q477.23 789.086 480.285 784.503 Q483.364 779.897 489.174 779.897 Z" fill="#000000" fill-rule="nonzero" fill-opacity="1" /><path clip-path="url(#clip320)" d="M509.336 809.202 L514.22 809.202 L514.22 815.082 L509.336 815.082 L509.336 809.202 Z" fill="#000000" fill-rule="nonzero" fill-opacity="1" /><path clip-path="url(#clip320)" d="M534.405 783.6 Q530.794 783.6 528.965 787.165 Q527.16 790.707 527.16 797.836 Q527.16 804.943 528.965 808.508 Q530.794 812.049 534.405 812.049 Q538.039 812.049 539.845 808.508 Q541.674 804.943 541.674 797.836 Q541.674 790.707 539.845 787.165 Q538.039 783.6 534.405 783.6 M534.405 779.897 Q540.215 779.897 543.271 784.503 Q546.35 789.086 546.35 797.836 Q546.35 806.563 543.271 811.17 Q540.215 815.753 534.405 815.753 Q528.595 815.753 525.516 811.17 Q522.461 806.563 522.461 797.836 Q522.461 789.086 525.516 784.503 Q528.595 779.897 534.405 779.897 Z" fill="#000000" fill-rule="nonzero" fill-opacity="1" /><path clip-path="url(#clip320)" d="M564.567 783.6 Q560.956 783.6 559.127 787.165 Q557.322 790.707 557.322 797.836 Q557.322 804.943 559.127 808.508 Q560.956 812.049 564.567 812.049 Q568.201 812.049 570.007 808.508 Q571.836 804.943 571.836 797.836 Q571.836 790.707 570.007 787.165 Q568.201 783.6 564.567 783.6 M564.567 779.897 Q570.377 779.897 573.433 784.503 Q576.511 789.086 576.511 797.836 Q576.511 806.563 573.433 811.17 Q570.377 815.753 564.567 815.753 Q558.757 815.753 555.678 811.17 Q552.623 806.563 552.623 797.836 Q552.623 789.086 555.678 784.503 Q558.757 779.897 564.567 779.897 Z" fill="#000000" fill-rule="nonzero" fill-opacity="1" /><path clip-path="url(#clip320)" d="M490.169 540.094 Q486.558 540.094 484.73 543.658 Q482.924 547.2 482.924 554.33 Q482.924 561.436 484.73 565.001 Q486.558 568.542 490.169 568.542 Q493.804 568.542 495.609 565.001 Q497.438 561.436 497.438 554.33 Q497.438 547.2 495.609 543.658 Q493.804 540.094 490.169 540.094 M490.169 536.39 Q495.979 536.39 499.035 540.996 Q502.114 545.58 502.114 554.33 Q502.114 563.056 499.035 567.663 Q495.979 572.246 490.169 572.246 Q484.359 572.246 481.28 567.663 Q478.225 563.056 478.225 554.33 Q478.225 545.58 481.28 540.996 Q484.359 536.39 490.169 536.39 Z" fill="#000000" fill-rule="nonzero" fill-opacity="1" /><path clip-path="url(#clip320)" d="M510.331 565.695 L515.215 565.695 L515.215 571.575 L510.331 571.575 L510.331 565.695 Z" fill="#000000" fill-rule="nonzero" fill-opacity="1" /><path clip-path="url(#clip320)" d="M529.428 567.64 L545.748 567.64 L545.748 571.575 L523.803 571.575 L523.803 567.64 Q526.465 564.885 531.049 560.255 Q535.655 555.603 536.836 554.26 Q539.081 551.737 539.961 550.001 Q540.863 548.242 540.863 546.552 Q540.863 543.797 538.919 542.061 Q536.998 540.325 533.896 540.325 Q531.697 540.325 529.243 541.089 Q526.813 541.853 524.035 543.404 L524.035 538.682 Q526.859 537.547 529.313 536.969 Q531.766 536.39 533.803 536.39 Q539.174 536.39 542.368 539.075 Q545.563 541.76 545.563 546.251 Q545.563 548.381 544.752 550.302 Q543.965 552.2 541.859 554.793 Q541.28 555.464 538.178 558.681 Q535.076 561.876 529.428 567.64 Z" fill="#000000" fill-rule="nonzero" fill-opacity="1" /><path clip-path="url(#clip320)" d="M555.609 537.015 L573.965 537.015 L573.965 540.95 L559.891 540.95 L559.891 549.422 Q560.91 549.075 561.928 548.913 Q562.947 548.728 563.965 548.728 Q569.752 548.728 573.132 551.899 Q576.511 555.07 576.511 560.487 Q576.511 566.066 573.039 569.167 Q569.567 572.246 563.248 572.246 Q561.072 572.246 558.803 571.876 Q556.558 571.505 554.15 570.765 L554.15 566.066 Q556.234 567.2 558.456 567.755 Q560.678 568.311 563.155 568.311 Q567.16 568.311 569.498 566.205 Q571.836 564.098 571.836 560.487 Q571.836 556.876 569.498 554.769 Q567.16 552.663 563.155 552.663 Q561.28 552.663 559.405 553.08 Q557.553 553.496 555.609 554.376 L555.609 537.015 Z" fill="#000000" fill-rule="nonzero" fill-opacity="1" /><path clip-path="url(#clip320)" d="M489.174 296.587 Q485.563 296.587 483.734 300.152 Q481.929 303.693 481.929 310.823 Q481.929 317.929 483.734 321.494 Q485.563 325.036 489.174 325.036 Q492.808 325.036 494.614 321.494 Q496.442 317.929 496.442 310.823 Q496.442 303.693 494.614 300.152 Q492.808 296.587 489.174 296.587 M489.174 292.883 Q494.984 292.883 498.04 297.49 Q501.118 302.073 501.118 310.823 Q501.118 319.55 498.04 324.156 Q494.984 328.739 489.174 328.739 Q483.364 328.739 480.285 324.156 Q477.23 319.55 477.23 310.823 Q477.23 302.073 480.285 297.49 Q483.364 292.883 489.174 292.883 Z" fill="#000000" fill-rule="nonzero" fill-opacity="1" /><path clip-path="url(#clip320)" d="M509.336 322.188 L514.22 322.188 L514.22 328.068 L509.336 328.068 L509.336 322.188 Z" fill="#000000" fill-rule="nonzero" fill-opacity="1" /><path clip-path="url(#clip320)" d="M524.452 293.508 L542.808 293.508 L542.808 297.443 L528.734 297.443 L528.734 305.915 Q529.752 305.568 530.771 305.406 Q531.789 305.221 532.808 305.221 Q538.595 305.221 541.975 308.392 Q545.354 311.564 545.354 316.98 Q545.354 322.559 541.882 325.661 Q538.41 328.739 532.09 328.739 Q529.914 328.739 527.646 328.369 Q525.401 327.999 522.993 327.258 L522.993 322.559 Q525.077 323.693 527.299 324.249 Q529.521 324.804 531.998 324.804 Q536.002 324.804 538.34 322.698 Q540.678 320.591 540.678 316.98 Q540.678 313.369 538.34 311.263 Q536.002 309.156 531.998 309.156 Q530.123 309.156 528.248 309.573 Q526.396 309.989 524.452 310.869 L524.452 293.508 Z" fill="#000000" fill-rule="nonzero" fill-opacity="1" /><path clip-path="url(#clip320)" d="M564.567 296.587 Q560.956 296.587 559.127 300.152 Q557.322 303.693 557.322 310.823 Q557.322 317.929 559.127 321.494 Q560.956 325.036 564.567 325.036 Q568.201 325.036 570.007 321.494 Q571.836 317.929 571.836 310.823 Q571.836 303.693 570.007 300.152 Q568.201 296.587 564.567 296.587 M564.567 292.883 Q570.377 292.883 573.433 297.49 Q576.511 302.073 576.511 310.823 Q576.511 319.55 573.433 324.156 Q570.377 328.739 564.567 328.739 Q558.757 328.739 555.678 324.156 Q552.623 319.55 552.623 310.823 Q552.623 302.073 555.678 297.49 Q558.757 292.883 564.567 292.883 Z" fill="#000000" fill-rule="nonzero" fill-opacity="1" /><path clip-path="url(#clip320)" d="M573.665 17.6457 Q564.753 17.6457 559.487 24.2892 Q554.261 30.9327 554.261 42.3968 Q554.261 53.8203 559.487 60.4638 Q564.753 67.1073 573.665 67.1073 Q582.577 67.1073 587.762 60.4638 Q592.988 53.8203 592.988 42.3968 Q592.988 30.9327 587.762 24.2892 Q582.577 17.6457 573.665 17.6457 M573.665 11.0023 Q586.385 11.0023 594.001 19.5497 Q601.616 28.0566 601.616 42.3968 Q601.616 56.6965 594.001 65.2439 Q586.385 73.7508 573.665 73.7508 Q560.905 73.7508 553.249 65.2439 Q545.633 56.737 545.633 42.3968 Q545.633 28.0566 553.249 19.5497 Q560.905 11.0023 573.665 11.0023 Z" fill="#000000" fill-rule="nonzero" fill-opacity="1" /><path clip-path="url(#clip320)" d="M621.304 65.7705 L621.304 89.8329 L613.81 89.8329 L613.81 27.2059 L621.304 27.2059 L621.304 34.0924 Q623.653 30.0415 627.218 28.0971 Q630.823 26.1121 635.806 26.1121 Q644.07 26.1121 649.214 32.6746 Q654.4 39.2371 654.4 49.9314 Q654.4 60.6258 649.214 67.1883 Q644.07 73.7508 635.806 73.7508 Q630.823 73.7508 627.218 71.8063 Q623.653 69.8214 621.304 65.7705 M646.662 49.9314 Q646.662 41.7081 643.26 37.0496 Q639.897 32.3505 633.983 32.3505 Q628.069 32.3505 624.666 37.0496 Q621.304 41.7081 621.304 49.9314 Q621.304 58.1548 624.666 62.8538 Q628.069 67.5124 633.983 67.5124 Q639.897 67.5124 643.26 62.8538 Q646.662 58.1548 646.662 49.9314 Z" fill="#000000" fill-rule="nonzero" fill-opacity="1" /><path clip-path="url(#clip320)" d="M674.128 14.324 L674.128 27.2059 L689.48 27.2059 L689.48 32.9987 L674.128 32.9987 L674.128 57.6282 Q674.128 63.1779 675.626 64.7578 Q677.166 66.3376 681.824 66.3376 L689.48 66.3376 L689.48 72.576 L681.824 72.576 Q673.196 72.576 669.915 69.3758 Q666.633 66.1351 666.633 57.6282 L666.633 32.9987 L661.165 32.9987 L661.165 27.2059 L666.633 27.2059 L666.633 14.324 L674.128 14.324 Z" fill="#000000" fill-rule="nonzero" fill-opacity="1" /><path clip-path="url(#clip320)" d="M699.284 27.2059 L706.737 27.2059 L706.737 72.576 L699.284 72.576 L699.284 27.2059 M699.284 9.54393 L706.737 9.54393 L706.737 18.9825 L699.284 18.9825 L699.284 9.54393 Z" fill="#000000" fill-rule="nonzero" fill-opacity="1" /><path clip-path="url(#clip320)" d="M757.657 35.9153 Q760.452 30.8922 764.341 28.5022 Q768.23 26.1121 773.496 26.1121 Q780.585 26.1121 784.434 31.0947 Q788.282 36.0368 788.282 45.1919 L788.282 72.576 L780.788 72.576 L780.788 45.4349 Q780.788 38.913 778.479 35.7533 Q776.17 32.5936 771.43 32.5936 Q765.637 32.5936 762.275 36.4419 Q758.913 40.2903 758.913 46.9338 L758.913 72.576 L751.419 72.576 L751.419 45.4349 Q751.419 38.8725 749.11 35.7533 Q746.801 32.5936 741.98 32.5936 Q736.268 32.5936 732.906 36.4824 Q729.544 40.3308 729.544 46.9338 L729.544 72.576 L722.05 72.576 L722.05 27.2059 L729.544 27.2059 L729.544 34.2544 Q732.096 30.082 735.661 28.0971 Q739.226 26.1121 744.127 26.1121 Q749.069 26.1121 752.513 28.6237 Q755.996 31.1352 757.657 35.9153 Z" fill="#000000" fill-rule="nonzero" fill-opacity="1" /><path clip-path="url(#clip320)" d="M823.768 49.7694 Q814.734 49.7694 811.251 51.8354 Q807.767 53.9013 807.767 58.8839 Q807.767 62.8538 810.359 65.2034 Q812.993 67.5124 817.489 67.5124 Q823.687 67.5124 827.414 63.1374 Q831.181 58.7219 831.181 51.4303 L831.181 49.7694 L823.768 49.7694 M838.635 46.6907 L838.635 72.576 L831.181 72.576 L831.181 65.6895 Q828.629 69.8214 824.821 71.8063 Q821.013 73.7508 815.504 73.7508 Q808.537 73.7508 804.405 69.8619 Q800.313 65.9325 800.313 59.3701 Q800.313 51.7138 805.417 47.825 Q810.562 43.9361 820.73 43.9361 L831.181 43.9361 L831.181 43.2069 Q831.181 38.0623 827.778 35.2672 Q824.416 32.4315 818.299 32.4315 Q814.41 32.4315 810.724 33.3632 Q807.038 34.295 803.635 36.1584 L803.635 29.2718 Q807.726 27.692 811.575 26.9223 Q815.423 26.1121 819.069 26.1121 Q828.913 26.1121 833.774 31.2163 Q838.635 36.3204 838.635 46.6907 Z" fill="#000000" fill-rule="nonzero" fill-opacity="1" /><path clip-path="url(#clip320)" d="M853.988 9.54393 L861.441 9.54393 L861.441 72.576 L853.988 72.576 L853.988 9.54393 Z" fill="#000000" fill-rule="nonzero" fill-opacity="1" /><path clip-path="url(#clip320)" d="M911.916 18.8205 L911.916 41.5461 L922.205 41.5461 Q927.917 41.5461 931.036 38.5889 Q934.155 35.6318 934.155 30.163 Q934.155 24.7348 931.036 21.7777 Q927.917 18.8205 922.205 18.8205 L911.916 18.8205 M903.733 12.096 L922.205 12.096 Q932.373 12.096 937.558 16.714 Q942.783 21.2916 942.783 30.163 Q942.783 39.1155 937.558 43.6931 Q932.373 48.2706 922.205 48.2706 L911.916 48.2706 L911.916 72.576 L903.733 72.576 L903.733 12.096 Z" fill="#000000" fill-rule="nonzero" fill-opacity="1" /><path clip-path="url(#clip320)" d="M968.061 32.4315 Q962.066 32.4315 958.582 37.1306 Q955.098 41.7891 955.098 49.9314 Q955.098 58.0738 958.542 62.7728 Q962.025 67.4314 968.061 67.4314 Q974.016 67.4314 977.5 62.7323 Q980.984 58.0333 980.984 49.9314 Q980.984 41.8701 977.5 37.1711 Q974.016 32.4315 968.061 32.4315 M968.061 26.1121 Q977.783 26.1121 983.333 32.4315 Q988.883 38.7509 988.883 49.9314 Q988.883 61.0714 983.333 67.4314 Q977.783 73.7508 968.061 73.7508 Q958.298 73.7508 952.749 67.4314 Q947.239 61.0714 947.239 49.9314 Q947.239 38.7509 952.749 32.4315 Q958.298 26.1121 968.061 26.1121 Z" fill="#000000" fill-rule="nonzero" fill-opacity="1" /><path clip-path="url(#clip320)" d="M1001.24 9.54393 L1008.69 9.54393 L1008.69 72.576 L1001.24 72.576 L1001.24 9.54393 Z" fill="#000000" fill-rule="nonzero" fill-opacity="1" /><path clip-path="url(#clip320)" d="M1043.16 76.7889 Q1040.01 84.8907 1037.01 87.3618 Q1034.01 89.8329 1028.99 89.8329 L1023.03 89.8329 L1023.03 83.5945 L1027.41 83.5945 Q1030.49 83.5945 1032.19 82.1361 Q1033.89 80.6778 1035.95 75.2496 L1037.29 71.8468 L1018.94 27.2059 L1026.84 27.2059 L1041.02 62.6918 L1055.2 27.2059 L1063.1 27.2059 L1043.16 76.7889 Z" fill="#000000" fill-rule="nonzero" fill-opacity="1" /><path clip-path="url(#clip320)" d="M1103.24 49.3643 Q1103.24 41.2625 1099.88 36.8065 Q1096.56 32.3505 1090.52 32.3505 Q1084.52 32.3505 1081.16 36.8065 Q1077.84 41.2625 1077.84 49.3643 Q1077.84 57.4256 1081.16 61.8816 Q1084.52 66.3376 1090.52 66.3376 Q1096.56 66.3376 1099.88 61.8816 Q1103.24 57.4256 1103.24 49.3643 M1110.69 66.9452 Q1110.69 78.5308 1105.55 84.1616 Q1100.4 89.8329 1089.79 89.8329 Q1085.86 89.8329 1082.38 89.2252 Q1078.89 88.6581 1075.61 87.4428 L1075.61 80.1917 Q1078.89 81.9741 1082.09 82.8248 Q1085.29 83.6755 1088.62 83.6755 Q1095.95 83.6755 1099.59 79.8271 Q1103.24 76.0193 1103.24 68.282 L1103.24 64.5957 Q1100.93 68.6061 1097.33 70.5911 Q1093.72 72.576 1088.7 72.576 Q1080.35 72.576 1075.25 66.2161 Q1070.14 59.8562 1070.14 49.3643 Q1070.14 38.832 1075.25 32.472 Q1080.35 26.1121 1088.7 26.1121 Q1093.72 26.1121 1097.33 28.0971 Q1100.93 30.082 1103.24 34.0924 L1103.24 27.2059 L1110.69 27.2059 L1110.69 66.9452 Z" fill="#000000" fill-rule="nonzero" fill-opacity="1" /><path clip-path="url(#clip320)" d="M1143.63 32.4315 Q1137.63 32.4315 1134.15 37.1306 Q1130.66 41.7891 1130.66 49.9314 Q1130.66 58.0738 1134.11 62.7728 Q1137.59 67.4314 1143.63 67.4314 Q1149.58 67.4314 1153.07 62.7323 Q1156.55 58.0333 1156.55 49.9314 Q1156.55 41.8701 1153.07 37.1711 Q1149.58 32.4315 1143.63 32.4315 M1143.63 26.1121 Q1153.35 26.1121 1158.9 32.4315 Q1164.45 38.7509 1164.45 49.9314 Q1164.45 61.0714 1158.9 67.4314 Q1153.35 73.7508 1143.63 73.7508 Q1133.86 73.7508 1128.31 67.4314 Q1122.81 61.0714 1122.81 49.9314 Q1122.81 38.7509 1128.31 32.4315 Q1133.86 26.1121 1143.63 26.1121 Z" fill="#000000" fill-rule="nonzero" fill-opacity="1" /><path clip-path="url(#clip320)" d="M1214.52 45.1919 L1214.52 72.576 L1207.06 72.576 L1207.06 45.4349 Q1207.06 38.994 1204.55 35.7938 Q1202.04 32.5936 1197.02 32.5936 Q1190.98 32.5936 1187.5 36.4419 Q1184.01 40.2903 1184.01 46.9338 L1184.01 72.576 L1176.52 72.576 L1176.52 27.2059 L1184.01 27.2059 L1184.01 34.2544 Q1186.69 30.163 1190.29 28.1376 Q1193.94 26.1121 1198.68 26.1121 Q1206.5 26.1121 1210.51 30.9732 Q1214.52 35.7938 1214.52 45.1919 Z" fill="#000000" fill-rule="nonzero" fill-opacity="1" /><path clip-path="url(#clip320)" d="M1251.42 27.2059 L1258.88 27.2059 L1268.19 62.6108 L1277.47 27.2059 L1286.26 27.2059 L1295.58 62.6108 L1304.85 27.2059 L1312.31 27.2059 L1300.44 72.576 L1291.65 72.576 L1281.88 35.3887 L1272.08 72.576 L1263.29 72.576 L1251.42 27.2059 Z" fill="#000000" fill-rule="nonzero" fill-opacity="1" /><path clip-path="url(#clip320)" d="M1323.61 27.2059 L1331.06 27.2059 L1331.06 72.576 L1323.61 72.576 L1323.61 27.2059 M1323.61 9.54393 L1331.06 9.54393 L1331.06 18.9825 L1323.61 18.9825 L1323.61 9.54393 Z" fill="#000000" fill-rule="nonzero" fill-opacity="1" /><path clip-path="url(#clip320)" d="M1354.03 14.324 L1354.03 27.2059 L1369.38 27.2059 L1369.38 32.9987 L1354.03 32.9987 L1354.03 57.6282 Q1354.03 63.1779 1355.53 64.7578 Q1357.07 66.3376 1361.73 66.3376 L1369.38 66.3376 L1369.38 72.576 L1361.73 72.576 Q1353.1 72.576 1349.82 69.3758 Q1346.54 66.1351 1346.54 57.6282 L1346.54 32.9987 L1341.07 32.9987 L1341.07 27.2059 L1346.54 27.2059 L1346.54 14.324 L1354.03 14.324 Z" fill="#000000" fill-rule="nonzero" fill-opacity="1" /><path clip-path="url(#clip320)" d="M1416.9 45.1919 L1416.9 72.576 L1409.45 72.576 L1409.45 45.4349 Q1409.45 38.994 1406.94 35.7938 Q1404.42 32.5936 1399.4 32.5936 Q1393.37 32.5936 1389.88 36.4419 Q1386.4 40.2903 1386.4 46.9338 L1386.4 72.576 L1378.9 72.576 L1378.9 9.54393 L1386.4 9.54393 L1386.4 34.2544 Q1389.07 30.163 1392.68 28.1376 Q1396.32 26.1121 1401.06 26.1121 Q1408.88 26.1121 1412.89 30.9732 Q1416.9 35.7938 1416.9 45.1919 Z" fill="#000000" fill-rule="nonzero" fill-opacity="1" /><path clip-path="url(#clip320)" d="M1495.85 45.1919 L1495.85 72.576 L1488.4 72.576 L1488.4 45.4349 Q1488.4 38.994 1485.89 35.7938 Q1483.38 32.5936 1478.35 32.5936 Q1472.32 32.5936 1468.83 36.4419 Q1465.35 40.2903 1465.35 46.9338 L1465.35 72.576 L1457.86 72.576 L1457.86 27.2059 L1465.35 27.2059 L1465.35 34.2544 Q1468.02 30.163 1471.63 28.1376 Q1475.27 26.1121 1480.01 26.1121 Q1487.83 26.1121 1491.84 30.9732 Q1495.85 35.7938 1495.85 45.1919 Z" fill="#000000" fill-rule="nonzero" fill-opacity="1" /><path clip-path="url(#clip320)" d="M1511.69 34.9026 L1563.63 34.9026 L1563.63 41.7081 L1511.69 41.7081 L1511.69 34.9026 M1511.69 51.4303 L1563.63 51.4303 L1563.63 58.3168 L1511.69 58.3168 L1511.69 51.4303 Z" fill="#000000" fill-rule="nonzero" fill-opacity="1" /><path clip-path="url(#clip320)" d="M1582.7 65.6895 L1596.07 65.6895 L1596.07 19.5497 L1581.53 22.4663 L1581.53 15.0127 L1595.99 12.096 L1604.17 12.096 L1604.17 65.6895 L1617.54 65.6895 L1617.54 72.576 L1582.7 72.576 L1582.7 65.6895 Z" fill="#000000" fill-rule="nonzero" fill-opacity="1" /><path clip-path="url(#clip320)" d="M1651.57 17.4837 Q1645.25 17.4837 1642.05 23.7221 Q1638.89 29.92 1638.89 42.3968 Q1638.89 54.833 1642.05 61.0714 Q1645.25 67.2693 1651.57 67.2693 Q1657.93 67.2693 1661.09 61.0714 Q1664.29 54.833 1664.29 42.3968 Q1664.29 29.92 1661.09 23.7221 Q1657.93 17.4837 1651.57 17.4837 M1651.57 11.0023 Q1661.74 11.0023 1667.09 19.0636 Q1672.47 27.0843 1672.47 42.3968 Q1672.47 57.6687 1667.09 65.73 Q1661.74 73.7508 1651.57 73.7508 Q1641.4 73.7508 1636.01 65.73 Q1630.67 57.6687 1630.67 42.3968 Q1630.67 27.0843 1636.01 19.0636 Q1641.4 11.0023 1651.57 11.0023 Z" fill="#000000" fill-rule="nonzero" fill-opacity="1" /><path clip-path="url(#clip320)" d="M1728.09 72.576 L1705 12.096 L1713.55 12.096 L1732.71 63.0159 L1751.91 12.096 L1760.42 12.096 L1737.37 72.576 L1728.09 72.576 Z" fill="#000000" fill-rule="nonzero" fill-opacity="1" /><path clip-path="url(#clip320)" d="M1801.29 48.0275 L1801.29 51.6733 L1767.02 51.6733 Q1767.51 59.3701 1771.64 63.421 Q1775.81 67.4314 1783.22 67.4314 Q1787.52 67.4314 1791.53 66.3781 Q1795.58 65.3249 1799.55 63.2184 L1799.55 70.267 Q1795.54 71.9684 1791.33 72.8596 Q1787.11 73.7508 1782.78 73.7508 Q1771.92 73.7508 1765.56 67.4314 Q1759.24 61.1119 1759.24 50.3365 Q1759.24 39.1965 1765.24 32.6746 Q1771.27 26.1121 1781.48 26.1121 Q1790.64 26.1121 1795.94 32.0264 Q1801.29 37.9003 1801.29 48.0275 M1793.84 45.84 Q1793.76 39.7232 1790.39 36.0774 Q1787.07 32.4315 1781.56 32.4315 Q1775.33 32.4315 1771.56 35.9558 Q1767.83 39.4801 1767.26 45.8805 L1793.84 45.84 Z" fill="#000000" fill-rule="nonzero" fill-opacity="1" /><path clip-path="url(#clip320)" d="M1839.82 34.1734 Q1838.56 33.4443 1837.06 33.1202 Q1835.6 32.7556 1833.82 32.7556 Q1827.5 32.7556 1824.1 36.8875 Q1820.74 40.9789 1820.74 48.6757 L1820.74 72.576 L1813.24 72.576 L1813.24 27.2059 L1820.74 27.2059 L1820.74 34.2544 Q1823.09 30.1225 1826.85 28.1376 Q1830.62 26.1121 1836.01 26.1121 Q1836.78 26.1121 1837.71 26.2337 Q1838.64 26.3147 1839.78 26.5172 L1839.82 34.1734 Z" fill="#000000" fill-rule="nonzero" fill-opacity="1" /><path clip-path="url(#clip320)" d="M1855.01 14.324 L1855.01 27.2059 L1870.36 27.2059 L1870.36 32.9987 L1855.01 32.9987 L1855.01 57.6282 Q1855.01 63.1779 1856.51 64.7578 Q1858.04 66.3376 1862.7 66.3376 L1870.36 66.3376 L1870.36 72.576 L1862.7 72.576 Q1854.07 72.576 1850.79 69.3758 Q1847.51 66.1351 1847.51 57.6282 L1847.51 32.9987 L1842.04 32.9987 L1842.04 27.2059 L1847.51 27.2059 L1847.51 14.324 L1855.01 14.324 Z" fill="#000000" fill-rule="nonzero" fill-opacity="1" /><path clip-path="url(#clip320)" d="M1880.16 27.2059 L1887.62 27.2059 L1887.62 72.576 L1880.16 72.576 L1880.16 27.2059 M1880.16 9.54393 L1887.62 9.54393 L1887.62 18.9825 L1880.16 18.9825 L1880.16 9.54393 Z" fill="#000000" fill-rule="nonzero" fill-opacity="1" /><path clip-path="url(#clip320)" d="M1935.86 28.9478 L1935.86 35.9153 Q1932.7 34.1734 1929.5 33.3227 Q1926.34 32.4315 1923.1 32.4315 Q1915.85 32.4315 1911.84 37.0496 Q1907.83 41.6271 1907.83 49.9314 Q1907.83 58.2358 1911.84 62.8538 Q1915.85 67.4314 1923.1 67.4314 Q1926.34 67.4314 1929.5 66.5807 Q1932.7 65.6895 1935.86 63.9476 L1935.86 70.8341 Q1932.74 72.2924 1929.38 73.0216 Q1926.06 73.7508 1922.29 73.7508 Q1912.04 73.7508 1906.01 67.3098 Q1899.97 60.8689 1899.97 49.9314 Q1899.97 38.832 1906.05 32.472 Q1912.16 26.1121 1922.78 26.1121 Q1926.22 26.1121 1929.5 26.8413 Q1932.78 27.5299 1935.86 28.9478 Z" fill="#000000" fill-rule="nonzero" fill-opacity="1" /><path clip-path="url(#clip320)" d="M1987.63 48.0275 L1987.63 51.6733 L1953.36 51.6733 Q1953.85 59.3701 1957.98 63.421 Q1962.15 67.4314 1969.57 67.4314 Q1973.86 67.4314 1977.87 66.3781 Q1981.92 65.3249 1985.89 63.2184 L1985.89 70.267 Q1981.88 71.9684 1977.67 72.8596 Q1973.46 73.7508 1969.12 73.7508 Q1958.26 73.7508 1951.9 67.4314 Q1945.58 61.1119 1945.58 50.3365 Q1945.58 39.1965 1951.58 32.6746 Q1957.62 26.1121 1967.82 26.1121 Q1976.98 26.1121 1982.29 32.0264 Q1987.63 37.9003 1987.63 48.0275 M1980.18 45.84 Q1980.1 39.7232 1976.74 36.0774 Q1973.41 32.4315 1967.91 32.4315 Q1961.67 32.4315 1957.9 35.9558 Q1954.17 39.4801 1953.61 45.8805 L1980.18 45.84 Z" fill="#000000" fill-rule="nonzero" fill-opacity="1" /><path clip-path="url(#clip320)" d="M2028.79 28.5427 L2028.79 35.5912 Q2025.63 33.9709 2022.23 33.1607 Q2018.83 32.3505 2015.18 32.3505 Q2009.63 32.3505 2006.83 34.0519 Q2004.08 35.7533 2004.08 39.156 Q2004.08 41.7486 2006.06 43.2475 Q2008.05 44.7058 2014.05 46.0426 L2016.6 46.6097 Q2024.54 48.3111 2027.86 51.4303 Q2031.22 54.509 2031.22 60.0587 Q2031.22 66.3781 2026.2 70.0644 Q2021.22 73.7508 2012.47 73.7508 Q2008.82 73.7508 2004.85 73.0216 Q2000.92 72.3329 1996.55 70.9151 L1996.55 63.2184 Q2000.68 65.3654 2004.69 66.4591 Q2008.7 67.5124 2012.63 67.5124 Q2017.89 67.5124 2020.73 65.73 Q2023.56 63.9071 2023.56 60.6258 Q2023.56 57.5877 2021.5 55.9673 Q2019.47 54.3469 2012.55 52.8481 L2009.95 52.2405 Q2003.03 50.7821 1999.95 47.7845 Q1996.87 44.7463 1996.87 39.4801 Q1996.87 33.0797 2001.41 29.5959 Q2005.94 26.1121 2014.29 26.1121 Q2018.42 26.1121 2022.07 26.7198 Q2025.71 27.3274 2028.79 28.5427 Z" fill="#000000" fill-rule="nonzero" fill-opacity="1" /><path clip-path="url(#clip322)" d="M1734.51 537.129 L1401.41 318.278 L1174.76 353.67 L962.678 441.086 L863.279 629.745 L807.317 835.513 L902.814 1044.08 L1044.44 1224.54 L1437.32 1291.64 L1769.54 986.712 L1734.51 537.129 L1734.51 537.129  Z" fill="#009af9" fill-rule="evenodd" fill-opacity="0.3"/>
<polyline clip-path="url(#clip322)" style="stroke:#000000; stroke-linecap:round; stroke-linejoin:round; stroke-width:4; stroke-opacity:1; fill:none" points="1734.51,537.129 1401.41,318.278 1174.76,353.67 962.678,441.086 863.279,629.745 807.317,835.513 902.814,1044.08 1044.44,1224.54 1437.32,1291.64 1769.54,986.712 1734.51,537.129 "/>
<circle clip-path="url(#clip322)" cx="1734.51" cy="537.129" r="14.4" fill="#e26f46" fill-rule="evenodd" fill-opacity="1" stroke="#000000" stroke-opacity="1" stroke-width="3.2"/>
<circle clip-path="url(#clip322)" cx="1401.41" cy="318.278" r="14.4" fill="#e26f46" fill-rule="evenodd" fill-opacity="1" stroke="#000000" stroke-opacity="1" stroke-width="3.2"/>
<circle clip-path="url(#clip322)" cx="1174.76" cy="353.67" r="14.4" fill="#e26f46" fill-rule="evenodd" fill-opacity="1" stroke="#000000" stroke-opacity="1" stroke-width="3.2"/>
<circle clip-path="url(#clip322)" cx="962.678" cy="441.086" r="14.4" fill="#e26f46" fill-rule="evenodd" fill-opacity="1" stroke="#000000" stroke-opacity="1" stroke-width="3.2"/>
<circle clip-path="url(#clip322)" cx="863.279" cy="629.745" r="14.4" fill="#e26f46" fill-rule="evenodd" fill-opacity="1" stroke="#000000" stroke-opacity="1" stroke-width="3.2"/>
<circle clip-path="url(#clip322)" cx="807.317" cy="835.513" r="14.4" fill="#e26f46" fill-rule="evenodd" fill-opacity="1" stroke="#000000" stroke-opacity="1" stroke-width="3.2"/>
<circle clip-path="url(#clip322)" cx="902.814" cy="1044.08" r="14.4" fill="#e26f46" fill-rule="evenodd" fill-opacity="1" stroke="#000000" stroke-opacity="1" stroke-width="3.2"/>
<circle clip-path="url(#clip322)" cx="1044.44" cy="1224.54" r="14.4" fill="#e26f46" fill-rule="evenodd" fill-opacity="1" stroke="#000000" stroke-opacity="1" stroke-width="3.2"/>
<circle clip-path="url(#clip322)" cx="1437.32" cy="1291.64" r="14.4" fill="#e26f46" fill-rule="evenodd" fill-opacity="1" stroke="#000000" stroke-opacity="1" stroke-width="3.2"/>
<circle clip-path="url(#clip322)" cx="1769.54" cy="986.712" r="14.4" fill="#e26f46" fill-rule="evenodd" fill-opacity="1" stroke="#000000" stroke-opacity="1" stroke-width="3.2"/>
<circle clip-path="url(#clip322)" cx="1734.51" cy="537.129" r="14.4" fill="#e26f46" fill-rule="evenodd" fill-opacity="1" stroke="#000000" stroke-opacity="1" stroke-width="3.2"/>
<polyline clip-path="url(#clip322)" style="stroke:#ff0000; stroke-linecap:round; stroke-linejoin:round; stroke-width:4; stroke-opacity:0.3; fill:none" points="2708.54,537.129 2706.58,475.353 2700.71,413.825 2690.94,352.793 2677.32,292.504 2659.91,233.2 2638.77,175.12 2613.99,118.497 2585.67,63.5605 2553.92,10.5305 2518.87,-40.3791 2480.66,-88.9633 2439.45,-135.026 2395.4,-178.383 2348.69,-218.858 2299.51,-256.29 2248.05,-290.526 2194.52,-321.43 2139.14,-348.877 2082.13,-372.756 2023.72,-392.971 1964.15,-409.442 1903.65,-422.1 1842.47,-430.896 1780.86,-435.795 1719.06,-436.775 1657.32,-433.834 1595.9,-426.984 1535.03,-416.251 1474.96,-401.679 1415.94,-383.327 1358.2,-361.269 1301.98,-335.593 1247.5,-306.403 1194.98,-273.816 1144.63,-237.964 1096.66,-198.991 1051.26,-157.054 1008.61,-112.322 968.878,-64.9743 932.232,-15.2024 898.816,36.7936 868.765,90.8042 842.2,146.612 819.229,203.992 799.943,262.714 784.42,322.541 772.723,383.232 764.898,444.542 760.978,506.225 760.978,568.033 764.898,629.716 772.723,691.027 784.42,751.718 799.943,811.544 819.229,870.266 842.2,927.646 868.765,983.454 898.816,1037.46 932.232,1089.46 968.878,1139.23 1008.61,1186.58 1051.26,1231.31 1096.66,1273.25 1144.63,1312.22 1194.98,1348.07 1247.5,1380.66 1301.98,1409.85 1358.2,1435.53 1415.94,1457.59 1474.96,1475.94 1535.03,1490.51 1595.9,1501.24 1657.32,1508.09 1719.06,1511.03 1780.86,1510.05 1842.47,1505.15 1903.65,1496.36 1964.15,1483.7 2023.72,1467.23 2082.13,1447.01 2139.14,1423.14 2194.52,1395.69 2248.05,1364.78 2299.51,1330.55 2348.69,1293.12 2395.4,1252.64 2439.45,1209.28 2480.66,1163.22 2518.87,1114.64 2553.92,1063.73 2585.67,1010.7 2613.99,955.761 2638.77,899.139 2659.91,841.058 2677.32,781.754 2690.94,721.465 2700.71,660.434 2706.58,598.906 2708.54,537.129 "/>
<polyline clip-path="url(#clip322)" style="stroke:#ff0000; stroke-linecap:round; stroke-linejoin:round; stroke-width:4; stroke-opacity:0.3; fill:none" points="2375.44,318.278 2373.47,256.501 2367.6,194.973 2357.83,133.942 2344.22,73.6526 2326.8,14.3485 2305.66,-43.7318 2280.88,-100.354 2252.56,-155.291 2220.81,-208.321 2185.76,-259.231 2147.56,-307.815 2106.35,-353.878 2062.3,-397.235 2015.58,-437.71 1966.4,-475.142 1914.94,-509.378 1861.41,-540.282 1806.03,-567.729 1749.03,-591.608 1690.62,-611.823 1631.04,-628.293 1570.55,-640.952 1509.37,-649.748 1447.75,-654.646 1385.95,-655.627 1324.22,-652.686 1262.79,-645.835 1201.92,-635.103 1141.86,-620.531 1082.84,-602.179 1025.1,-580.121 968.876,-554.445 914.395,-525.255 861.875,-492.668 811.528,-456.816 763.557,-417.843 718.153,-375.906 675.501,-331.174 635.772,-283.826 599.125,-234.054 565.71,-182.058 535.659,-128.048 509.094,-72.2397 486.123,-14.8593 466.836,43.8624 451.314,103.689 439.616,164.38 431.792,225.69 427.872,287.374 427.872,349.181 431.792,410.865 439.616,472.175 451.314,532.866 466.836,592.693 486.123,651.414 509.094,708.795 535.659,764.603 565.71,818.613 599.125,870.609 635.772,920.381 675.501,967.729 718.153,1012.46 763.557,1054.4 811.528,1093.37 861.875,1129.22 914.395,1161.81 968.876,1191 1025.1,1216.68 1082.84,1238.73 1141.86,1257.09 1201.92,1271.66 1262.79,1282.39 1324.22,1289.24 1385.95,1292.18 1447.75,1291.2 1509.37,1286.3 1570.55,1277.51 1631.04,1264.85 1690.62,1248.38 1749.03,1228.16 1806.03,1204.28 1861.41,1176.84 1914.94,1145.93 1966.4,1111.7 2015.58,1074.27 2062.3,1033.79 2106.35,990.433 2147.56,944.37 2185.76,895.786 2220.81,844.876 2252.56,791.846 2280.88,736.909 2305.66,680.287 2326.8,622.207 2344.22,562.903 2357.83,502.613 2367.6,441.582 2373.47,380.054 2375.44,318.278 "/>
<polyline clip-path="url(#clip322)" style="stroke:#ff0000; stroke-linecap:round; stroke-linejoin:round; stroke-width:4; stroke-opacity:0.3; fill:none" points="2148.79,353.67 2146.83,291.893 2140.95,230.365 2131.19,169.334 2117.57,109.045 2100.16,49.7406 2079.02,-8.33971 2054.24,-64.9623 2025.92,-119.899 1994.17,-172.929 1959.12,-223.839 1920.91,-272.423 1879.7,-318.486 1835.65,-361.843 1788.94,-402.318 1739.75,-439.749 1688.29,-473.986 1634.77,-504.89 1579.39,-532.337 1522.38,-556.216 1463.97,-576.431 1404.4,-592.901 1343.9,-605.56 1282.72,-614.356 1221.11,-619.254 1159.31,-620.235 1097.57,-617.294 1036.14,-610.443 975.275,-599.711 915.209,-585.139 856.189,-566.787 798.451,-544.728 742.229,-519.053 687.749,-489.863 635.229,-457.276 584.882,-421.424 536.91,-382.451 491.507,-340.514 448.854,-295.781 409.125,-248.434 372.479,-198.662 339.063,-146.666 309.012,-92.6555 282.448,-36.8476 259.476,20.5327 240.19,79.2545 224.667,139.081 212.97,199.772 205.145,261.082 201.225,322.766 201.225,384.573 205.145,446.257 212.97,507.567 224.667,568.258 240.19,628.085 259.476,686.806 282.448,744.187 309.012,799.995 339.063,854.005 372.479,906.001 409.125,955.773 448.854,1003.12 491.507,1047.85 536.91,1089.79 584.882,1128.76 635.229,1164.62 687.749,1197.2 742.229,1226.39 798.451,1252.07 856.189,1274.13 915.209,1292.48 975.275,1307.05 1036.14,1317.78 1097.57,1324.63 1159.31,1327.57 1221.11,1326.59 1282.72,1321.7 1343.9,1312.9 1404.4,1300.24 1463.97,1283.77 1522.38,1263.55 1579.39,1239.68 1634.77,1212.23 1688.29,1181.33 1739.75,1147.09 1788.94,1109.66 1835.65,1069.18 1879.7,1025.83 1920.91,979.762 1959.12,931.178 1994.17,880.268 2025.92,827.238 2054.24,772.302 2079.02,715.679 2100.16,657.599 2117.57,598.295 2131.19,538.005 2140.95,476.974 2146.83,415.446 2148.79,353.67 "/>
<polyline clip-path="url(#clip322)" style="stroke:#ff0000; stroke-linecap:round; stroke-linejoin:round; stroke-width:4; stroke-opacity:0.3; fill:none" points="1936.71,441.086 1934.74,379.31 1928.87,317.782 1919.1,256.751 1905.49,196.461 1888.07,137.157 1866.93,79.0771 1842.15,22.4545 1813.83,-32.4824 1782.08,-85.5124 1747.03,-136.422 1708.83,-185.006 1667.61,-231.069 1623.56,-274.426 1576.85,-314.901 1527.67,-352.333 1476.21,-386.569 1422.68,-417.473 1367.3,-444.92 1310.3,-468.799 1251.89,-489.014 1192.31,-505.484 1131.82,-518.143 1070.64,-526.939 1009.02,-531.837 947.224,-532.818 885.487,-529.877 824.06,-523.027 763.191,-512.294 703.125,-497.722 644.105,-479.37 586.368,-457.312 530.145,-431.636 475.665,-402.446 423.145,-369.859 372.798,-334.007 324.826,-295.034 279.423,-253.097 236.77,-208.365 197.041,-161.017 160.395,-111.245 126.979,-59.2493 96.9283,-5.23864 70.3637,50.5692 47.3921,107.95 28.106,166.671 12.5831,226.498 0.88591,287.189 -6.93848,348.499 -10.8586,410.183 -10.8586,471.99 -6.93848,533.674 0.88591,594.984 12.5831,655.675 28.106,715.502 47.3921,774.223 70.3637,831.604 96.9283,887.411 126.979,941.422 160.395,993.418 197.041,1043.19 236.77,1090.54 279.423,1135.27 324.826,1177.21 372.798,1216.18 423.145,1252.03 475.665,1284.62 530.145,1313.81 586.368,1339.48 644.105,1361.54 703.125,1379.89 763.191,1394.47 824.06,1405.2 885.487,1412.05 947.224,1414.99 1009.02,1414.01 1070.64,1409.11 1131.82,1400.32 1192.31,1387.66 1251.89,1371.19 1310.3,1350.97 1367.3,1327.09 1422.68,1299.65 1476.21,1268.74 1527.67,1234.51 1576.85,1197.07 1623.56,1156.6 1667.61,1113.24 1708.83,1067.18 1747.03,1018.59 1782.08,967.685 1813.83,914.655 1842.15,859.718 1866.93,803.096 1888.07,745.015 1905.49,685.711 1919.1,625.422 1928.87,564.391 1934.74,502.863 1936.71,441.086 "/>
<polyline clip-path="url(#clip322)" style="stroke:#ff0000; stroke-linecap:round; stroke-linejoin:round; stroke-width:4; stroke-opacity:0.3; fill:none" points="1837.31,629.745 1835.35,567.968 1829.47,506.44 1819.7,445.409 1806.09,385.12 1788.67,325.816 1767.53,267.736 1742.75,211.113 1714.43,156.176 1682.68,103.146 1647.63,52.2365 1609.43,3.65232 1568.22,-42.4108 1524.17,-85.7674 1477.45,-126.243 1428.27,-163.674 1376.81,-197.911 1323.28,-228.815 1267.9,-256.261 1210.9,-280.14 1152.49,-300.356 1092.91,-316.826 1032.42,-329.485 971.239,-338.281 909.625,-343.179 847.825,-344.16 786.088,-341.219 724.661,-334.368 663.792,-323.635 603.727,-309.064 544.706,-290.712 486.969,-268.653 430.746,-242.977 376.266,-213.787 323.746,-181.201 273.399,-145.349 225.427,-106.376 180.024,-64.4386 137.371,-19.7062 97.6422,27.6413 60.9959,77.4132 27.5801,129.409 -2.4706,183.42 -29.0352,239.228 -52.0069,296.608 -71.2929,355.33 -86.8158,415.156 -98.513,475.847 -106.337,537.158 -110.258,598.841 -110.258,660.649 -106.337,722.332 -98.513,783.643 -86.8158,844.333 -71.2929,904.16 -52.0069,962.882 -29.0352,1020.26 -2.4706,1076.07 27.5801,1130.08 60.9959,1182.08 97.6422,1231.85 137.371,1279.2 180.024,1323.93 225.427,1365.87 273.399,1404.84 323.746,1440.69 376.266,1473.28 430.746,1502.47 486.969,1528.14 544.706,1550.2 603.727,1568.55 663.792,1583.13 724.661,1593.86 786.088,1600.71 847.825,1603.65 909.625,1602.67 971.239,1597.77 1032.42,1588.97 1092.91,1576.32 1152.49,1559.85 1210.9,1539.63 1267.9,1515.75 1323.28,1488.3 1376.81,1457.4 1428.27,1423.16 1477.45,1385.73 1524.17,1345.26 1568.22,1301.9 1609.43,1255.84 1647.63,1207.25 1682.68,1156.34 1714.43,1103.31 1742.75,1048.38 1767.53,991.754 1788.67,933.674 1806.09,874.37 1819.7,814.081 1829.47,753.049 1835.35,691.521 1837.31,629.745 "/>
<polyline clip-path="url(#clip322)" style="stroke:#ff0000; stroke-linecap:round; stroke-linejoin:round; stroke-width:4; stroke-opacity:0.3; fill:none" points="1781.34,835.513 1779.38,773.736 1773.51,712.208 1763.74,651.177 1750.13,590.888 1732.71,531.584 1711.57,473.503 1686.79,416.881 1658.47,361.944 1626.72,308.914 1591.67,258.004 1553.46,209.42 1512.25,163.357 1468.2,120 1421.49,79.525 1372.31,42.0936 1320.85,7.85706 1267.32,-23.0468 1211.94,-50.4936 1154.93,-74.3727 1096.53,-94.588 1036.95,-111.058 976.455,-123.717 915.276,-132.513 853.663,-137.411 791.863,-138.392 730.125,-135.451 668.698,-128.6 607.83,-117.867 547.764,-103.296 488.744,-84.9437 431.006,-62.8854 374.784,-37.2096 320.303,-8.01955 267.784,24.5671 217.437,60.4191 169.465,99.3921 124.061,141.329 81.4091,186.062 41.6798,233.409 5.03354,283.181 -28.3822,335.177 -58.433,389.188 -84.9976,444.995 -107.969,502.376 -127.255,561.098 -142.778,620.924 -154.475,681.615 -162.3,742.926 -166.22,804.609 -166.22,866.417 -162.3,928.1 -154.475,989.41 -142.778,1050.1 -127.255,1109.93 -107.969,1168.65 -84.9976,1226.03 -58.433,1281.84 -28.3822,1335.85 5.03354,1387.84 41.6798,1437.62 81.4091,1484.96 124.061,1529.7 169.465,1571.63 217.437,1610.61 267.784,1646.46 320.303,1679.04 374.784,1708.23 431.006,1733.91 488.744,1755.97 547.764,1774.32 607.83,1788.89 668.698,1799.63 730.125,1806.48 791.863,1809.42 853.663,1808.44 915.276,1803.54 976.455,1794.74 1036.95,1782.08 1096.53,1765.61 1154.93,1745.4 1211.94,1721.52 1267.32,1694.07 1320.85,1663.17 1372.31,1628.93 1421.49,1591.5 1468.2,1551.02 1512.25,1507.67 1553.46,1461.61 1591.67,1413.02 1626.72,1362.11 1658.47,1309.08 1686.79,1254.14 1711.57,1197.52 1732.71,1139.44 1750.13,1080.14 1763.74,1019.85 1773.51,958.817 1779.38,897.289 1781.34,835.513 "/>
<polyline clip-path="url(#clip322)" style="stroke:#ff0000; stroke-linecap:round; stroke-linejoin:round; stroke-width:4; stroke-opacity:0.3; fill:none" points="1876.84,1044.08 1874.88,982.306 1869,920.779 1859.24,859.747 1845.62,799.458 1828.21,740.154 1807.07,682.074 1782.29,625.451 1753.97,570.514 1722.22,517.484 1687.17,466.575 1648.96,417.991 1607.75,371.927 1563.7,328.571 1516.99,288.095 1467.8,250.664 1416.35,216.428 1362.82,185.524 1307.44,158.077 1250.43,134.198 1192.02,113.982 1132.45,97.5123 1071.95,84.8537 1010.77,76.0575 949.16,71.1592 887.36,70.1786 825.622,73.1195 764.195,79.9702 703.327,90.703 643.261,105.275 584.241,123.627 526.503,145.685 470.281,171.361 415.8,200.551 363.281,233.137 312.934,268.989 264.962,307.963 219.558,349.9 176.906,394.632 137.177,441.979 100.53,491.751 67.1147,543.747 37.064,597.758 10.4993,653.566 -12.4723,710.946 -31.7584,769.668 -47.2812,829.495 -58.9784,890.185 -66.8028,951.496 -70.7229,1013.18 -70.7229,1074.99 -66.8028,1136.67 -58.9784,1197.98 -47.2812,1258.67 -31.7584,1318.5 -12.4723,1377.22 10.4993,1434.6 37.064,1490.41 67.1147,1544.42 100.53,1596.41 137.177,1646.19 176.906,1693.53 219.558,1738.27 264.962,1780.2 312.934,1819.18 363.281,1855.03 415.8,1887.62 470.281,1916.81 526.503,1942.48 584.241,1964.54 643.261,1982.89 703.327,1997.46 764.195,2008.2 825.622,2015.05 887.36,2017.99 949.16,2017.01 1010.77,2012.11 1071.95,2003.31 1132.45,1990.65 1192.02,1974.18 1250.43,1953.97 1307.44,1930.09 1362.82,1902.64 1416.35,1871.74 1467.8,1837.5 1516.99,1800.07 1563.7,1759.6 1607.75,1716.24 1648.96,1670.18 1687.17,1621.59 1722.22,1570.68 1753.97,1517.65 1782.29,1462.72 1807.07,1406.09 1828.21,1348.01 1845.62,1288.71 1859.24,1228.42 1869,1167.39 1874.88,1105.86 1876.84,1044.08 "/>
<polyline clip-path="url(#clip322)" style="stroke:#ff0000; stroke-linecap:round; stroke-linejoin:round; stroke-width:4; stroke-opacity:0.3; fill:none" points="2018.47,1224.54 2016.51,1162.76 2010.63,1101.23 2000.87,1040.2 1987.25,979.91 1969.84,920.606 1948.7,862.526 1923.92,805.903 1895.59,750.966 1863.84,697.936 1828.8,647.027 1790.59,598.443 1749.38,552.38 1705.33,509.023 1658.62,468.548 1609.43,431.116 1557.97,396.88 1504.45,365.976 1449.07,338.529 1392.06,314.65 1333.65,294.435 1274.08,277.964 1213.58,265.306 1152.4,256.51 1090.79,251.611 1028.99,250.631 967.25,253.572 905.823,260.422 844.954,271.155 784.888,285.727 725.868,304.079 668.131,326.137 611.908,351.813 557.428,381.003 504.908,413.59 454.561,449.442 406.589,488.415 361.186,530.352 318.533,575.084 278.804,622.432 242.158,672.204 208.742,724.2 178.691,778.21 152.127,834.018 129.155,891.398 109.869,950.12 94.3461,1009.95 82.6489,1070.64 74.8245,1131.95 70.9044,1193.63 70.9044,1255.44 74.8245,1317.12 82.6489,1378.43 94.3461,1439.12 109.869,1498.95 129.155,1557.67 152.127,1615.05 178.691,1670.86 208.742,1724.87 242.158,1776.87 278.804,1826.64 318.533,1873.99 361.186,1918.72 406.589,1960.66 454.561,1999.63 504.908,2035.48 557.428,2068.07 611.908,2097.26 668.131,2122.93 725.868,2144.99 784.888,2163.34 844.954,2177.92 905.823,2188.65 967.25,2195.5 1028.99,2198.44 1090.79,2197.46 1152.4,2192.56 1213.58,2183.76 1274.08,2171.11 1333.65,2154.64 1392.06,2134.42 1449.07,2110.54 1504.45,2083.09 1557.97,2052.19 1609.43,2017.95 1658.62,1980.52 1705.33,1940.05 1749.38,1896.69 1790.59,1850.63 1828.8,1802.04 1863.84,1751.13 1895.59,1698.1 1923.92,1643.17 1948.7,1586.54 1969.84,1528.46 1987.25,1469.16 2000.87,1408.87 2010.63,1347.84 2016.51,1286.31 2018.47,1224.54 "/>
<polyline clip-path="url(#clip322)" style="stroke:#ff0000; stroke-linecap:round; stroke-linejoin:round; stroke-width:4; stroke-opacity:0.3; fill:none" points="2411.35,1291.64 2409.38,1229.87 2403.51,1168.34 2393.74,1107.31 2380.13,1047.02 2362.71,987.713 2341.57,929.633 2316.79,873.011 2288.47,818.074 2256.72,765.044 2221.67,714.134 2183.47,665.55 2142.25,619.487 2098.2,576.13 2051.49,535.655 2002.31,498.223 1950.85,463.987 1897.32,433.083 1841.94,405.636 1784.94,381.757 1726.53,361.542 1666.95,345.072 1606.46,332.413 1545.28,323.617 1483.66,318.719 1421.86,317.738 1360.13,320.679 1298.7,327.53 1237.83,338.262 1177.77,352.834 1118.75,371.186 1061.01,393.244 1004.79,418.92 950.305,448.11 897.785,480.697 847.438,516.549 799.466,555.522 754.063,597.459 711.41,642.191 671.681,689.539 635.035,739.311 601.619,791.307 571.568,845.317 545.004,901.125 522.032,958.506 502.746,1017.23 487.223,1077.05 475.526,1137.74 467.702,1199.06 463.782,1260.74 463.782,1322.55 467.702,1384.23 475.526,1445.54 487.223,1506.23 502.746,1566.06 522.032,1624.78 545.004,1682.16 571.568,1737.97 601.619,1791.98 635.035,1843.97 671.681,1893.75 711.41,1941.09 754.063,1985.83 799.466,2027.76 847.438,2066.74 897.785,2102.59 950.305,2135.17 1004.79,2164.36 1061.01,2190.04 1118.75,2212.1 1177.77,2230.45 1237.83,2245.02 1298.7,2255.76 1360.13,2262.61 1421.86,2265.55 1483.66,2264.57 1545.28,2259.67 1606.46,2250.87 1666.95,2238.21 1726.53,2221.74 1784.94,2201.53 1841.94,2177.65 1897.32,2150.2 1950.85,2119.3 2002.31,2085.06 2051.49,2047.63 2098.2,2007.15 2142.25,1963.8 2183.47,1917.74 2221.67,1869.15 2256.72,1818.24 2288.47,1765.21 2316.79,1710.27 2341.57,1653.65 2362.71,1595.57 2380.13,1536.27 2393.74,1475.98 2403.51,1414.95 2409.38,1353.42 2411.35,1291.64 "/>
<polyline clip-path="url(#clip322)" style="stroke:#ff0000; stroke-linecap:round; stroke-linejoin:round; stroke-width:4; stroke-opacity:0.3; fill:none" points="2743.56,986.712 2741.6,924.936 2735.73,863.408 2725.96,802.377 2712.35,742.087 2694.93,682.783 2673.79,624.703 2649.01,568.081 2620.69,513.144 2588.94,460.114 2553.89,409.204 2515.68,360.62 2474.47,314.557 2430.42,271.2 2383.71,230.725 2334.53,193.293 2283.07,159.057 2229.54,128.153 2174.16,100.706 2117.15,76.8271 2058.75,56.6118 1999.17,40.1416 1938.67,27.483 1877.5,18.6868 1815.88,13.7886 1754.08,12.8079 1692.35,15.7489 1630.92,22.5995 1570.05,33.3323 1509.98,47.904 1450.96,66.256 1393.23,88.3143 1337,113.99 1282.52,143.18 1230,175.767 1179.66,211.619 1131.68,250.592 1086.28,292.529 1043.63,337.261 1003.9,384.609 967.254,434.381 933.838,486.377 903.787,540.387 877.222,596.195 854.251,653.576 834.965,712.297 819.442,772.124 807.745,832.815 799.92,894.125 796,955.809 796,1017.62 799.92,1079.3 807.745,1140.61 819.442,1201.3 834.965,1261.13 854.251,1319.85 877.222,1377.23 903.787,1433.04 933.838,1487.05 967.254,1539.04 1003.9,1588.82 1043.63,1636.16 1086.28,1680.9 1131.68,1722.83 1179.66,1761.81 1230,1797.66 1282.52,1830.24 1337,1859.43 1393.23,1885.11 1450.96,1907.17 1509.98,1925.52 1570.05,1940.09 1630.92,1950.83 1692.35,1957.68 1754.08,1960.62 1815.88,1959.64 1877.5,1954.74 1938.67,1945.94 1999.17,1933.28 2058.75,1916.81 2117.15,1896.6 2174.16,1872.72 2229.54,1845.27 2283.07,1814.37 2334.53,1780.13 2383.71,1742.7 2430.42,1702.22 2474.47,1658.87 2515.68,1612.81 2553.89,1564.22 2588.94,1513.31 2620.69,1460.28 2649.01,1405.34 2673.79,1348.72 2694.93,1290.64 2712.35,1231.34 2725.96,1171.05 2735.73,1110.02 2741.6,1048.49 2743.56,986.712 "/>
</svg>
