<?xml version="1.0" encoding="utf-8"?>
<svg xmlns="http://www.w3.org/2000/svg" xmlns:xlink="http://www.w3.org/1999/xlink" width="600" height="400" viewBox="0 0 2400 1600">
<defs>
  <clipPath id="clip380">
    <rect x="0" y="0" width="2400" height="1600"/>
  </clipPath>
</defs>
<path clip-path="url(#clip380)" d="M0 1600 L2400 1600 L2400 0 L0 0  Z" fill="#ffffff" fill-rule="evenodd" fill-opacity="1"/>
<defs>
  <clipPath id="clip381">
    <rect x="480" y="0" width="1681" height="1600"/>
  </clipPath>
</defs>
<path clip-path="url(#clip380)" d="M596.339 1486.45 L1912.69 1486.45 L1912.69 123.472 L596.339 123.472  Z" fill="#ffffff" fill-rule="evenodd" fill-opacity="1"/>
<defs>
  <clipPath id="clip382">
    <rect x="596" y="123" width="1317" height="1364"/>
  </clipPath>
</defs>
<polyline clip-path="url(#clip382)" style="stroke:#000000; stroke-linecap:round; stroke-linejoin:round; stroke-width:2; stroke-opacity:0.1; fill:none" points="823.219,1486.45 823.219,123.472 "/>
<polyline clip-path="url(#clip382)" style="stroke:#000000; stroke-linecap:round; stroke-linejoin:round; stroke-width:2; stroke-opacity:0.1; fill:none" points="1115.29,1486.45 1115.29,123.472 "/>
<polyline clip-path="url(#clip382)" style="stroke:#000000; stroke-linecap:round; stroke-linejoin:round; stroke-width:2; stroke-opacity:0.1; fill:none" points="1407.35,1486.45 1407.35,123.472 "/>
<polyline clip-path="url(#clip382)" style="stroke:#000000; stroke-linecap:round; stroke-linejoin:round; stroke-width:2; stroke-opacity:0.1; fill:none" points="1699.42,1486.45 1699.42,123.472 "/>
<polyline clip-path="url(#clip380)" style="stroke:#000000; stroke-linecap:round; stroke-linejoin:round; stroke-width:4; stroke-opacity:1; fill:none" points="596.339,1486.45 1912.69,1486.45 "/>
<polyline clip-path="url(#clip380)" style="stroke:#000000; stroke-linecap:round; stroke-linejoin:round; stroke-width:4; stroke-opacity:1; fill:none" points="823.219,1486.45 823.219,1467.55 "/>
<polyline clip-path="url(#clip380)" style="stroke:#000000; stroke-linecap:round; stroke-linejoin:round; stroke-width:4; stroke-opacity:1; fill:none" points="1115.29,1486.45 1115.29,1467.55 "/>
<polyline clip-path="url(#clip380)" style="stroke:#000000; stroke-linecap:round; stroke-linejoin:round; stroke-width:4; stroke-opacity:1; fill:none" points="1407.35,1486.45 1407.35,1467.55 "/>
<polyline clip-path="url(#clip380)" style="stroke:#000000; stroke-linecap:round; stroke-linejoin:round; stroke-width:4; stroke-opacity:1; fill:none" points="1699.42,1486.45 1699.42,1467.55 "/>
<path clip-path="url(#clip380)" d="M769.666 1532.02 L799.342 1532.02 L799.342 1535.95 L769.666 1535.95 L769.666 1532.02 Z" fill="#000000" fill-rule="nonzero" fill-opacity="1" /><path clip-path="url(#clip380)" d="M819.434 1517.37 Q815.823 1517.37 813.994 1520.93 Q812.189 1524.47 812.189 1531.6 Q812.189 1538.71 813.994 1542.27 Q815.823 1545.82 819.434 1545.82 Q823.068 1545.82 824.874 1542.27 Q826.703 1538.71 826.703 1531.6 Q826.703 1524.47 824.874 1520.93 Q823.068 1517.37 819.434 1517.37 M819.434 1513.66 Q825.244 1513.66 828.3 1518.27 Q831.379 1522.85 831.379 1531.6 Q831.379 1540.33 828.3 1544.94 Q825.244 1549.52 819.434 1549.52 Q813.624 1549.52 810.545 1544.94 Q807.49 1540.33 807.49 1531.6 Q807.49 1522.85 810.545 1518.27 Q813.624 1513.66 819.434 1513.66 Z" fill="#000000" fill-rule="nonzero" fill-opacity="1" /><path clip-path="url(#clip380)" d="M839.596 1542.97 L844.48 1542.97 L844.48 1548.85 L839.596 1548.85 L839.596 1542.97 Z" fill="#000000" fill-rule="nonzero" fill-opacity="1" /><path clip-path="url(#clip380)" d="M865.244 1529.7 Q862.096 1529.7 860.244 1531.86 Q858.416 1534.01 858.416 1537.76 Q858.416 1541.49 860.244 1543.66 Q862.096 1545.82 865.244 1545.82 Q868.392 1545.82 870.221 1543.66 Q872.073 1541.49 872.073 1537.76 Q872.073 1534.01 870.221 1531.86 Q868.392 1529.7 865.244 1529.7 M874.527 1515.05 L874.527 1519.31 Q872.767 1518.48 870.962 1518.04 Q869.179 1517.6 867.42 1517.6 Q862.79 1517.6 860.337 1520.72 Q857.906 1523.85 857.559 1530.17 Q858.925 1528.15 860.985 1527.09 Q863.045 1526 865.522 1526 Q870.73 1526 873.739 1529.17 Q876.772 1532.32 876.772 1537.76 Q876.772 1543.08 873.624 1546.3 Q870.476 1549.52 865.244 1549.52 Q859.249 1549.52 856.078 1544.94 Q852.906 1540.33 852.906 1531.6 Q852.906 1523.41 856.795 1518.55 Q860.684 1513.66 867.235 1513.66 Q868.994 1513.66 870.777 1514.01 Q872.582 1514.36 874.527 1515.05 Z" fill="#000000" fill-rule="nonzero" fill-opacity="1" /><path clip-path="url(#clip380)" d="M1062.14 1532.02 L1091.81 1532.02 L1091.81 1535.95 L1062.14 1535.95 L1062.14 1532.02 Z" fill="#000000" fill-rule="nonzero" fill-opacity="1" /><path clip-path="url(#clip380)" d="M1111.91 1517.37 Q1108.3 1517.37 1106.47 1520.93 Q1104.66 1524.47 1104.66 1531.6 Q1104.66 1538.71 1106.47 1542.27 Q1108.3 1545.82 1111.91 1545.82 Q1115.54 1545.82 1117.35 1542.27 Q1119.18 1538.71 1119.18 1531.6 Q1119.18 1524.47 1117.35 1520.93 Q1115.54 1517.37 1111.91 1517.37 M1111.91 1513.66 Q1117.72 1513.66 1120.77 1518.27 Q1123.85 1522.85 1123.85 1531.6 Q1123.85 1540.33 1120.77 1544.94 Q1117.72 1549.52 1111.91 1549.52 Q1106.1 1549.52 1103.02 1544.94 Q1099.96 1540.33 1099.96 1531.6 Q1099.96 1522.85 1103.02 1518.27 Q1106.1 1513.66 1111.91 1513.66 Z" fill="#000000" fill-rule="nonzero" fill-opacity="1" /><path clip-path="url(#clip380)" d="M1132.07 1542.97 L1136.95 1542.97 L1136.95 1548.85 L1132.07 1548.85 L1132.07 1542.97 Z" fill="#000000" fill-rule="nonzero" fill-opacity="1" /><path clip-path="url(#clip380)" d="M1161.3 1530.21 Q1164.66 1530.93 1166.54 1533.2 Q1168.43 1535.47 1168.43 1538.8 Q1168.43 1543.92 1164.92 1546.72 Q1161.4 1549.52 1154.92 1549.52 Q1152.74 1549.52 1150.43 1549.08 Q1148.13 1548.66 1145.68 1547.81 L1145.68 1543.29 Q1147.62 1544.43 1149.94 1545.01 Q1152.25 1545.58 1154.78 1545.58 Q1159.18 1545.58 1161.47 1543.85 Q1163.78 1542.11 1163.78 1538.8 Q1163.78 1535.75 1161.63 1534.03 Q1159.5 1532.3 1155.68 1532.3 L1151.65 1532.3 L1151.65 1528.45 L1155.86 1528.45 Q1159.31 1528.45 1161.14 1527.09 Q1162.97 1525.7 1162.97 1523.11 Q1162.97 1520.45 1161.07 1519.03 Q1159.2 1517.6 1155.68 1517.6 Q1153.76 1517.6 1151.56 1518.01 Q1149.36 1518.43 1146.72 1519.31 L1146.72 1515.14 Q1149.38 1514.4 1151.7 1514.03 Q1154.04 1513.66 1156.1 1513.66 Q1161.42 1513.66 1164.52 1516.09 Q1167.62 1518.5 1167.62 1522.62 Q1167.62 1525.49 1165.98 1527.48 Q1164.34 1529.45 1161.3 1530.21 Z" fill="#000000" fill-rule="nonzero" fill-opacity="1" /><path clip-path="url(#clip380)" d="M1384.74 1517.37 Q1381.13 1517.37 1379.3 1520.93 Q1377.49 1524.47 1377.49 1531.6 Q1377.49 1538.71 1379.3 1542.27 Q1381.13 1545.82 1384.74 1545.82 Q1388.37 1545.82 1390.18 1542.27 Q1392.01 1538.71 1392.01 1531.6 Q1392.01 1524.47 1390.18 1520.93 Q1388.37 1517.37 1384.74 1517.37 M1384.74 1513.66 Q1390.55 1513.66 1393.6 1518.27 Q1396.68 1522.85 1396.68 1531.6 Q1396.68 1540.33 1393.6 1544.94 Q1390.55 1549.52 1384.74 1549.52 Q1378.93 1549.52 1375.85 1544.94 Q1372.79 1540.33 1372.79 1531.6 Q1372.79 1522.85 1375.85 1518.27 Q1378.93 1513.66 1384.74 1513.66 Z" fill="#000000" fill-rule="nonzero" fill-opacity="1" /><path clip-path="url(#clip380)" d="M1404.9 1542.97 L1409.78 1542.97 L1409.78 1548.85 L1404.9 1548.85 L1404.9 1542.97 Z" fill="#000000" fill-rule="nonzero" fill-opacity="1" /><path clip-path="url(#clip380)" d="M1429.97 1517.37 Q1426.36 1517.37 1424.53 1520.93 Q1422.72 1524.47 1422.72 1531.6 Q1422.72 1538.71 1424.53 1542.27 Q1426.36 1545.82 1429.97 1545.82 Q1433.6 1545.82 1435.41 1542.27 Q1437.24 1538.71 1437.24 1531.6 Q1437.24 1524.47 1435.41 1520.93 Q1433.6 1517.37 1429.97 1517.37 M1429.97 1513.66 Q1435.78 1513.66 1438.84 1518.27 Q1441.91 1522.85 1441.91 1531.6 Q1441.91 1540.33 1438.84 1544.94 Q1435.78 1549.52 1429.97 1549.52 Q1424.16 1549.52 1421.08 1544.94 Q1418.03 1540.33 1418.03 1531.6 Q1418.03 1522.85 1421.08 1518.27 Q1424.16 1513.66 1429.97 1513.66 Z" fill="#000000" fill-rule="nonzero" fill-opacity="1" /><path clip-path="url(#clip380)" d="M1677.13 1517.37 Q1673.52 1517.37 1671.69 1520.93 Q1669.88 1524.47 1669.88 1531.6 Q1669.88 1538.71 1671.69 1542.27 Q1673.52 1545.82 1677.13 1545.82 Q1680.76 1545.82 1682.57 1542.27 Q1684.4 1538.71 1684.4 1531.6 Q1684.4 1524.47 1682.57 1520.93 Q1680.76 1517.37 1677.13 1517.37 M1677.13 1513.66 Q1682.94 1513.66 1686 1518.27 Q1689.07 1522.85 1689.07 1531.6 Q1689.07 1540.33 1686 1544.94 Q1682.94 1549.52 1677.13 1549.52 Q1671.32 1549.52 1668.24 1544.94 Q1665.19 1540.33 1665.19 1531.6 Q1665.19 1522.85 1668.24 1518.27 Q1671.32 1513.66 1677.13 1513.66 Z" fill="#000000" fill-rule="nonzero" fill-opacity="1" /><path clip-path="url(#clip380)" d="M1697.29 1542.97 L1702.18 1542.97 L1702.18 1548.85 L1697.29 1548.85 L1697.29 1542.97 Z" fill="#000000" fill-rule="nonzero" fill-opacity="1" /><path clip-path="url(#clip380)" d="M1726.53 1530.21 Q1729.88 1530.93 1731.76 1533.2 Q1733.66 1535.47 1733.66 1538.8 Q1733.66 1543.92 1730.14 1546.72 Q1726.62 1549.52 1720.14 1549.52 Q1717.96 1549.52 1715.65 1549.08 Q1713.36 1548.66 1710.9 1547.81 L1710.9 1543.29 Q1712.85 1544.43 1715.16 1545.01 Q1717.48 1545.58 1720 1545.58 Q1724.4 1545.58 1726.69 1543.85 Q1729 1542.11 1729 1538.8 Q1729 1535.75 1726.85 1534.03 Q1724.72 1532.3 1720.9 1532.3 L1716.87 1532.3 L1716.87 1528.45 L1721.09 1528.45 Q1724.54 1528.45 1726.37 1527.09 Q1728.19 1525.7 1728.19 1523.11 Q1728.19 1520.45 1726.3 1519.03 Q1724.42 1517.6 1720.9 1517.6 Q1718.98 1517.6 1716.78 1518.01 Q1714.58 1518.43 1711.94 1519.31 L1711.94 1515.14 Q1714.61 1514.4 1716.92 1514.03 Q1719.26 1513.66 1721.32 1513.66 Q1726.64 1513.66 1729.75 1516.09 Q1732.85 1518.5 1732.85 1522.62 Q1732.85 1525.49 1731.2 1527.48 Q1729.56 1529.45 1726.53 1530.21 Z" fill="#000000" fill-rule="nonzero" fill-opacity="1" /><polyline clip-path="url(#clip382)" style="stroke:#000000; stroke-linecap:round; stroke-linejoin:round; stroke-width:2; stroke-opacity:0.1; fill:none" points="596.339,1200.98 1912.69,1200.98 "/>
<polyline clip-path="url(#clip382)" style="stroke:#000000; stroke-linecap:round; stroke-linejoin:round; stroke-width:2; stroke-opacity:0.1; fill:none" points="596.339,908.912 1912.69,908.912 "/>
<polyline clip-path="url(#clip382)" style="stroke:#000000; stroke-linecap:round; stroke-linejoin:round; stroke-width:2; stroke-opacity:0.1; fill:none" points="596.339,616.845 1912.69,616.845 "/>
<polyline clip-path="url(#clip382)" style="stroke:#000000; stroke-linecap:round; stroke-linejoin:round; stroke-width:2; stroke-opacity:0.1; fill:none" points="596.339,324.777 1912.69,324.777 "/>
<polyline clip-path="url(#clip380)" style="stroke:#000000; stroke-linecap:round; stroke-linejoin:round; stroke-width:4; stroke-opacity:1; fill:none" points="596.339,1486.45 596.339,123.472 "/>
<polyline clip-path="url(#clip380)" style="stroke:#000000; stroke-linecap:round; stroke-linejoin:round; stroke-width:4; stroke-opacity:1; fill:none" points="596.339,1200.98 607.664,1200.98 "/>
<polyline clip-path="url(#clip380)" style="stroke:#000000; stroke-linecap:round; stroke-linejoin:round; stroke-width:4; stroke-opacity:1; fill:none" points="596.339,908.912 607.664,908.912 "/>
<polyline clip-path="url(#clip380)" style="stroke:#000000; stroke-linecap:round; stroke-linejoin:round; stroke-width:4; stroke-opacity:1; fill:none" points="596.339,616.845 607.664,616.845 "/>
<polyline clip-path="url(#clip380)" style="stroke:#000000; stroke-linecap:round; stroke-linejoin:round; stroke-width:4; stroke-opacity:1; fill:none" points="596.339,324.777 607.664,324.777 "/>
<path clip-path="url(#clip380)" d="M503.163 1186.78 Q499.552 1186.78 497.723 1190.34 Q495.918 1193.88 495.918 1201.01 Q495.918 1208.12 497.723 1211.69 Q499.552 1215.23 503.163 1215.23 Q506.797 1215.23 508.603 1211.69 Q510.432 1208.12 510.432 1201.01 Q510.432 1193.88 508.603 1190.34 Q506.797 1186.78 503.163 1186.78 M503.163 1183.07 Q508.973 1183.07 512.029 1187.68 Q515.107 1192.26 515.107 1201.01 Q515.107 1209.74 512.029 1214.35 Q508.973 1218.93 503.163 1218.93 Q497.353 1218.93 494.274 1214.35 Q491.219 1209.74 491.219 1201.01 Q491.219 1192.26 494.274 1187.68 Q497.353 1183.07 503.163 1183.07 Z" fill="#000000" fill-rule="nonzero" fill-opacity="1" /><path clip-path="url(#clip380)" d="M523.325 1212.38 L528.209 1212.38 L528.209 1218.26 L523.325 1218.26 L523.325 1212.38 Z" fill="#000000" fill-rule="nonzero" fill-opacity="1" /><path clip-path="url(#clip380)" d="M548.394 1186.78 Q544.783 1186.78 542.955 1190.34 Q541.149 1193.88 541.149 1201.01 Q541.149 1208.12 542.955 1211.69 Q544.783 1215.23 548.394 1215.23 Q552.029 1215.23 553.834 1211.69 Q555.663 1208.12 555.663 1201.01 Q555.663 1193.88 553.834 1190.34 Q552.029 1186.78 548.394 1186.78 M548.394 1183.07 Q554.204 1183.07 557.26 1187.68 Q560.339 1192.26 560.339 1201.01 Q560.339 1209.74 557.26 1214.35 Q554.204 1218.93 548.394 1218.93 Q542.584 1218.93 539.505 1214.35 Q536.45 1209.74 536.45 1201.01 Q536.45 1192.26 539.505 1187.68 Q542.584 1183.07 548.394 1183.07 Z" fill="#000000" fill-rule="nonzero" fill-opacity="1" /><path clip-path="url(#clip380)" d="M503.811 894.711 Q500.2 894.711 498.371 898.275 Q496.566 901.817 496.566 908.947 Q496.566 916.053 498.371 919.618 Q500.2 923.16 503.811 923.16 Q507.445 923.16 509.251 919.618 Q511.08 916.053 511.08 908.947 Q511.08 901.817 509.251 898.275 Q507.445 894.711 503.811 894.711 M503.811 891.007 Q509.621 891.007 512.677 895.613 Q515.756 900.197 515.756 908.947 Q515.756 917.674 512.677 922.28 Q509.621 926.863 503.811 926.863 Q498.001 926.863 494.922 922.28 Q491.867 917.674 491.867 908.947 Q491.867 900.197 494.922 895.613 Q498.001 891.007 503.811 891.007 Z" fill="#000000" fill-rule="nonzero" fill-opacity="1" /><path clip-path="url(#clip380)" d="M523.973 920.312 L528.857 920.312 L528.857 926.192 L523.973 926.192 L523.973 920.312 Z" fill="#000000" fill-rule="nonzero" fill-opacity="1" /><path clip-path="url(#clip380)" d="M553.209 907.558 Q556.566 908.275 558.441 910.544 Q560.339 912.812 560.339 916.146 Q560.339 921.261 556.82 924.062 Q553.302 926.863 546.82 926.863 Q544.644 926.863 542.33 926.423 Q540.038 926.007 537.584 925.15 L537.584 920.636 Q539.529 921.771 541.843 922.349 Q544.158 922.928 546.681 922.928 Q551.079 922.928 553.371 921.192 Q555.686 919.456 555.686 916.146 Q555.686 913.09 553.533 911.377 Q551.404 909.641 547.584 909.641 L543.556 909.641 L543.556 905.799 L547.769 905.799 Q551.218 905.799 553.047 904.433 Q554.876 903.044 554.876 900.451 Q554.876 897.789 552.978 896.377 Q551.103 894.942 547.584 894.942 Q545.663 894.942 543.464 895.359 Q541.265 895.775 538.626 896.655 L538.626 892.488 Q541.288 891.748 543.603 891.377 Q545.941 891.007 548.001 891.007 Q553.325 891.007 556.427 893.438 Q559.529 895.845 559.529 899.965 Q559.529 902.836 557.885 904.826 Q556.241 906.794 553.209 907.558 Z" fill="#000000" fill-rule="nonzero" fill-opacity="1" /><path clip-path="url(#clip380)" d="M503.001 602.643 Q499.39 602.643 497.561 606.208 Q495.756 609.75 495.756 616.879 Q495.756 623.986 497.561 627.55 Q499.39 631.092 503.001 631.092 Q506.635 631.092 508.441 627.55 Q510.27 623.986 510.27 616.879 Q510.27 609.75 508.441 606.208 Q506.635 602.643 503.001 602.643 M503.001 598.94 Q508.811 598.94 511.867 603.546 Q514.945 608.129 514.945 616.879 Q514.945 625.606 511.867 630.213 Q508.811 634.796 503.001 634.796 Q497.191 634.796 494.112 630.213 Q491.057 625.606 491.057 616.879 Q491.057 608.129 494.112 603.546 Q497.191 598.94 503.001 598.94 Z" fill="#000000" fill-rule="nonzero" fill-opacity="1" /><path clip-path="url(#clip380)" d="M523.163 628.245 L528.047 628.245 L528.047 634.125 L523.163 634.125 L523.163 628.245 Z" fill="#000000" fill-rule="nonzero" fill-opacity="1" /><path clip-path="url(#clip380)" d="M548.811 614.981 Q545.663 614.981 543.811 617.134 Q541.982 619.287 541.982 623.037 Q541.982 626.763 543.811 628.939 Q545.663 631.092 548.811 631.092 Q551.959 631.092 553.788 628.939 Q555.64 626.763 555.64 623.037 Q555.64 619.287 553.788 617.134 Q551.959 614.981 548.811 614.981 M558.093 600.328 L558.093 604.588 Q556.334 603.754 554.529 603.315 Q552.746 602.875 550.987 602.875 Q546.357 602.875 543.904 606 Q541.473 609.125 541.126 615.444 Q542.492 613.43 544.552 612.365 Q546.612 611.277 549.089 611.277 Q554.297 611.277 557.306 614.449 Q560.339 617.597 560.339 623.037 Q560.339 628.361 557.191 631.578 Q554.042 634.796 548.811 634.796 Q542.816 634.796 539.644 630.213 Q536.473 625.606 536.473 616.879 Q536.473 608.685 540.362 603.824 Q544.251 598.94 550.802 598.94 Q552.561 598.94 554.343 599.287 Q556.149 599.634 558.093 600.328 Z" fill="#000000" fill-rule="nonzero" fill-opacity="1" /><path clip-path="url(#clip380)" d="M503.348 310.576 Q499.737 310.576 497.908 314.141 Q496.103 317.682 496.103 324.812 Q496.103 331.918 497.908 335.483 Q499.737 339.025 503.348 339.025 Q506.982 339.025 508.788 335.483 Q510.617 331.918 510.617 324.812 Q510.617 317.682 508.788 314.141 Q506.982 310.576 503.348 310.576 M503.348 306.872 Q509.158 306.872 512.214 311.479 Q515.293 316.062 515.293 324.812 Q515.293 333.539 512.214 338.145 Q509.158 342.728 503.348 342.728 Q497.538 342.728 494.459 338.145 Q491.404 333.539 491.404 324.812 Q491.404 316.062 494.459 311.479 Q497.538 306.872 503.348 306.872 Z" fill="#000000" fill-rule="nonzero" fill-opacity="1" /><path clip-path="url(#clip380)" d="M523.51 336.177 L528.394 336.177 L528.394 342.057 L523.51 342.057 L523.51 336.177 Z" fill="#000000" fill-rule="nonzero" fill-opacity="1" /><path clip-path="url(#clip380)" d="M538.718 341.34 L538.718 337.08 Q540.478 337.914 542.283 338.353 Q544.089 338.793 545.825 338.793 Q550.454 338.793 552.885 335.691 Q555.339 332.566 555.686 326.224 Q554.343 328.215 552.283 329.279 Q550.223 330.344 547.723 330.344 Q542.538 330.344 539.505 327.219 Q536.496 324.071 536.496 318.631 Q536.496 313.307 539.644 310.09 Q542.792 306.872 548.024 306.872 Q554.019 306.872 557.167 311.479 Q560.339 316.062 560.339 324.812 Q560.339 332.983 556.45 337.867 Q552.584 342.728 546.033 342.728 Q544.274 342.728 542.468 342.381 Q540.663 342.034 538.718 341.34 M548.024 326.687 Q551.172 326.687 553.001 324.534 Q554.853 322.381 554.853 318.631 Q554.853 314.904 553.001 312.752 Q551.172 310.576 548.024 310.576 Q544.876 310.576 543.024 312.752 Q541.195 314.904 541.195 318.631 Q541.195 322.381 543.024 324.534 Q544.876 326.687 548.024 326.687 Z" fill="#000000" fill-rule="nonzero" fill-opacity="1" /><path clip-path="url(#clip380)" d="M566.145 17.6457 Q557.233 17.6457 551.967 24.2892 Q546.741 30.9327 546.741 42.3968 Q546.741 53.8203 551.967 60.4638 Q557.233 67.1073 566.145 67.1073 Q575.057 67.1073 580.242 60.4638 Q585.468 53.8203 585.468 42.3968 Q585.468 30.9327 580.242 24.2892 Q575.057 17.6457 566.145 17.6457 M566.145 11.0023 Q578.865 11.0023 586.48 19.5497 Q594.096 28.0566 594.096 42.3968 Q594.096 56.6965 586.48 65.2439 Q578.865 73.7508 566.145 73.7508 Q553.385 73.7508 545.728 65.2439 Q538.113 56.737 538.113 42.3968 Q538.113 28.0566 545.728 19.5497 Q553.385 11.0023 566.145 11.0023 Z" fill="#000000" fill-rule="nonzero" fill-opacity="1" /><path clip-path="url(#clip380)" d="M613.784 65.7705 L613.784 89.8329 L606.289 89.8329 L606.289 27.2059 L613.784 27.2059 L613.784 34.0924 Q616.133 30.0415 619.698 28.0971 Q623.303 26.1121 628.286 26.1121 Q636.55 26.1121 641.694 32.6746 Q646.879 39.2371 646.879 49.9314 Q646.879 60.6258 641.694 67.1883 Q636.55 73.7508 628.286 73.7508 Q623.303 73.7508 619.698 71.8063 Q616.133 69.8214 613.784 65.7705 M639.142 49.9314 Q639.142 41.7081 635.739 37.0496 Q632.377 32.3505 626.463 32.3505 Q620.549 32.3505 617.146 37.0496 Q613.784 41.7081 613.784 49.9314 Q613.784 58.1548 617.146 62.8538 Q620.549 67.5124 626.463 67.5124 Q632.377 67.5124 635.739 62.8538 Q639.142 58.1548 639.142 49.9314 Z" fill="#000000" fill-rule="nonzero" fill-opacity="1" /><path clip-path="url(#clip380)" d="M666.607 14.324 L666.607 27.2059 L681.96 27.2059 L681.96 32.9987 L666.607 32.9987 L666.607 57.6282 Q666.607 63.1779 668.106 64.7578 Q669.645 66.3376 674.304 66.3376 L681.96 66.3376 L681.96 72.576 L674.304 72.576 Q665.676 72.576 662.394 69.3758 Q659.113 66.1351 659.113 57.6282 L659.113 32.9987 L653.644 32.9987 L653.644 27.2059 L659.113 27.2059 L659.113 14.324 L666.607 14.324 Z" fill="#000000" fill-rule="nonzero" fill-opacity="1" /><path clip-path="url(#clip380)" d="M691.763 27.2059 L699.217 27.2059 L699.217 72.576 L691.763 72.576 L691.763 27.2059 M691.763 9.54393 L699.217 9.54393 L699.217 18.9825 L691.763 18.9825 L691.763 9.54393 Z" fill="#000000" fill-rule="nonzero" fill-opacity="1" /><path clip-path="url(#clip380)" d="M750.137 35.9153 Q752.932 30.8922 756.821 28.5022 Q760.71 26.1121 765.976 26.1121 Q773.065 26.1121 776.913 31.0947 Q780.762 36.0368 780.762 45.1919 L780.762 72.576 L773.268 72.576 L773.268 45.4349 Q773.268 38.913 770.959 35.7533 Q768.65 32.5936 763.91 32.5936 Q758.117 32.5936 754.755 36.4419 Q751.393 40.2903 751.393 46.9338 L751.393 72.576 L743.899 72.576 L743.899 45.4349 Q743.899 38.8725 741.59 35.7533 Q739.281 32.5936 734.46 32.5936 Q728.748 32.5936 725.386 36.4824 Q722.024 40.3308 722.024 46.9338 L722.024 72.576 L714.53 72.576 L714.53 27.2059 L722.024 27.2059 L722.024 34.2544 Q724.576 30.082 728.141 28.0971 Q731.705 26.1121 736.607 26.1121 Q741.549 26.1121 744.992 28.6237 Q748.476 31.1352 750.137 35.9153 Z" fill="#000000" fill-rule="nonzero" fill-opacity="1" /><path clip-path="url(#clip380)" d="M816.248 49.7694 Q807.214 49.7694 803.73 51.8354 Q800.247 53.9013 800.247 58.8839 Q800.247 62.8538 802.839 65.2034 Q805.472 67.5124 809.969 67.5124 Q816.167 67.5124 819.894 63.1374 Q823.661 58.7219 823.661 51.4303 L823.661 49.7694 L816.248 49.7694 M831.115 46.6907 L831.115 72.576 L823.661 72.576 L823.661 65.6895 Q821.109 69.8214 817.301 71.8063 Q813.493 73.7508 807.984 73.7508 Q801.016 73.7508 796.884 69.8619 Q792.793 65.9325 792.793 59.3701 Q792.793 51.7138 797.897 47.825 Q803.042 43.9361 813.21 43.9361 L823.661 43.9361 L823.661 43.2069 Q823.661 38.0623 820.258 35.2672 Q816.896 32.4315 810.779 32.4315 Q806.89 32.4315 803.204 33.3632 Q799.517 34.295 796.115 36.1584 L796.115 29.2718 Q800.206 27.692 804.054 26.9223 Q807.903 26.1121 811.549 26.1121 Q821.392 26.1121 826.253 31.2163 Q831.115 36.3204 831.115 46.6907 Z" fill="#000000" fill-rule="nonzero" fill-opacity="1" /><path clip-path="url(#clip380)" d="M846.467 9.54393 L853.921 9.54393 L853.921 72.576 L846.467 72.576 L846.467 9.54393 Z" fill="#000000" fill-rule="nonzero" fill-opacity="1" /><path clip-path="url(#clip380)" d="M904.395 18.8205 L904.395 41.5461 L914.685 41.5461 Q920.396 41.5461 923.516 38.5889 Q926.635 35.6318 926.635 30.163 Q926.635 24.7348 923.516 21.7777 Q920.396 18.8205 914.685 18.8205 L904.395 18.8205 M896.213 12.096 L914.685 12.096 Q924.852 12.096 930.038 16.714 Q935.263 21.2916 935.263 30.163 Q935.263 39.1155 930.038 43.6931 Q924.852 48.2706 914.685 48.2706 L904.395 48.2706 L904.395 72.576 L896.213 72.576 L896.213 12.096 Z" fill="#000000" fill-rule="nonzero" fill-opacity="1" /><path clip-path="url(#clip380)" d="M960.541 32.4315 Q954.546 32.4315 951.062 37.1306 Q947.578 41.7891 947.578 49.9314 Q947.578 58.0738 951.021 62.7728 Q954.505 67.4314 960.541 67.4314 Q966.496 67.4314 969.98 62.7323 Q973.463 58.0333 973.463 49.9314 Q973.463 41.8701 969.98 37.1711 Q966.496 32.4315 960.541 32.4315 M960.541 26.1121 Q970.263 26.1121 975.813 32.4315 Q981.363 38.7509 981.363 49.9314 Q981.363 61.0714 975.813 67.4314 Q970.263 73.7508 960.541 73.7508 Q950.778 73.7508 945.228 67.4314 Q939.719 61.0714 939.719 49.9314 Q939.719 38.7509 945.228 32.4315 Q950.778 26.1121 960.541 26.1121 Z" fill="#000000" fill-rule="nonzero" fill-opacity="1" /><path clip-path="url(#clip380)" d="M993.718 9.54393 L1001.17 9.54393 L1001.17 72.576 L993.718 72.576 L993.718 9.54393 Z" fill="#000000" fill-rule="nonzero" fill-opacity="1" /><path clip-path="url(#clip380)" d="M1035.64 76.7889 Q1032.48 84.8907 1029.49 87.3618 Q1026.49 89.8329 1021.47 89.8329 L1015.51 89.8329 L1015.51 83.5945 L1019.89 83.5945 Q1022.97 83.5945 1024.67 82.1361 Q1026.37 80.6778 1028.43 75.2496 L1029.77 71.8468 L1011.42 27.2059 L1019.32 27.2059 L1033.5 62.6918 L1047.68 27.2059 L1055.58 27.2059 L1035.64 76.7889 Z" fill="#000000" fill-rule="nonzero" fill-opacity="1" /><path clip-path="url(#clip380)" d="M1095.72 49.3643 Q1095.72 41.2625 1092.36 36.8065 Q1089.04 32.3505 1083 32.3505 Q1077 32.3505 1073.64 36.8065 Q1070.32 41.2625 1070.32 49.3643 Q1070.32 57.4256 1073.64 61.8816 Q1077 66.3376 1083 66.3376 Q1089.04 66.3376 1092.36 61.8816 Q1095.72 57.4256 1095.72 49.3643 M1103.17 66.9452 Q1103.17 78.5308 1098.03 84.1616 Q1092.88 89.8329 1082.27 89.8329 Q1078.34 89.8329 1074.86 89.2252 Q1071.37 88.6581 1068.09 87.4428 L1068.09 80.1917 Q1071.37 81.9741 1074.57 82.8248 Q1077.77 83.6755 1081.1 83.6755 Q1088.43 83.6755 1092.07 79.8271 Q1095.72 76.0193 1095.72 68.282 L1095.72 64.5957 Q1093.41 68.6061 1089.81 70.5911 Q1086.2 72.576 1081.18 72.576 Q1072.83 72.576 1067.73 66.2161 Q1062.62 59.8562 1062.62 49.3643 Q1062.62 38.832 1067.73 32.472 Q1072.83 26.1121 1081.18 26.1121 Q1086.2 26.1121 1089.81 28.0971 Q1093.41 30.082 1095.72 34.0924 L1095.72 27.2059 L1103.17 27.2059 L1103.17 66.9452 Z" fill="#000000" fill-rule="nonzero" fill-opacity="1" /><path clip-path="url(#clip380)" d="M1136.11 32.4315 Q1130.11 32.4315 1126.63 37.1306 Q1123.14 41.7891 1123.14 49.9314 Q1123.14 58.0738 1126.59 62.7728 Q1130.07 67.4314 1136.11 67.4314 Q1142.06 67.4314 1145.55 62.7323 Q1149.03 58.0333 1149.03 49.9314 Q1149.03 41.8701 1145.55 37.1711 Q1142.06 32.4315 1136.11 32.4315 M1136.11 26.1121 Q1145.83 26.1121 1151.38 32.4315 Q1156.93 38.7509 1156.93 49.9314 Q1156.93 61.0714 1151.38 67.4314 Q1145.83 73.7508 1136.11 73.7508 Q1126.34 73.7508 1120.79 67.4314 Q1115.29 61.0714 1115.29 49.9314 Q1115.29 38.7509 1120.79 32.4315 Q1126.34 26.1121 1136.11 26.1121 Z" fill="#000000" fill-rule="nonzero" fill-opacity="1" /><path clip-path="url(#clip380)" d="M1207 45.1919 L1207 72.576 L1199.54 72.576 L1199.54 45.4349 Q1199.54 38.994 1197.03 35.7938 Q1194.52 32.5936 1189.5 32.5936 Q1183.46 32.5936 1179.98 36.4419 Q1176.49 40.2903 1176.49 46.9338 L1176.49 72.576 L1169 72.576 L1169 27.2059 L1176.49 27.2059 L1176.49 34.2544 Q1179.17 30.163 1182.77 28.1376 Q1186.42 26.1121 1191.16 26.1121 Q1198.98 26.1121 1202.99 30.9732 Q1207 35.7938 1207 45.1919 Z" fill="#000000" fill-rule="nonzero" fill-opacity="1" /><path clip-path="url(#clip380)" d="M1243.9 27.2059 L1251.36 27.2059 L1260.67 62.6108 L1269.95 27.2059 L1278.74 27.2059 L1288.06 62.6108 L1297.33 27.2059 L1304.79 27.2059 L1292.92 72.576 L1284.13 72.576 L1274.36 35.3887 L1264.56 72.576 L1255.77 72.576 L1243.9 27.2059 Z" fill="#000000" fill-rule="nonzero" fill-opacity="1" /><path clip-path="url(#clip380)" d="M1316.09 27.2059 L1323.54 27.2059 L1323.54 72.576 L1316.09 72.576 L1316.09 27.2059 M1316.09 9.54393 L1323.54 9.54393 L1323.54 18.9825 L1316.09 18.9825 L1316.09 9.54393 Z" fill="#000000" fill-rule="nonzero" fill-opacity="1" /><path clip-path="url(#clip380)" d="M1346.51 14.324 L1346.51 27.2059 L1361.86 27.2059 L1361.86 32.9987 L1346.51 32.9987 L1346.51 57.6282 Q1346.51 63.1779 1348.01 64.7578 Q1349.55 66.3376 1354.21 66.3376 L1361.86 66.3376 L1361.86 72.576 L1354.21 72.576 Q1345.58 72.576 1342.3 69.3758 Q1339.02 66.1351 1339.02 57.6282 L1339.02 32.9987 L1333.55 32.9987 L1333.55 27.2059 L1339.02 27.2059 L1339.02 14.324 L1346.51 14.324 Z" fill="#000000" fill-rule="nonzero" fill-opacity="1" /><path clip-path="url(#clip380)" d="M1409.38 45.1919 L1409.38 72.576 L1401.93 72.576 L1401.93 45.4349 Q1401.93 38.994 1399.42 35.7938 Q1396.9 32.5936 1391.88 32.5936 Q1385.85 32.5936 1382.36 36.4419 Q1378.88 40.2903 1378.88 46.9338 L1378.88 72.576 L1371.38 72.576 L1371.38 9.54393 L1378.88 9.54393 L1378.88 34.2544 Q1381.55 30.163 1385.16 28.1376 Q1388.8 26.1121 1393.54 26.1121 Q1401.36 26.1121 1405.37 30.9732 Q1409.38 35.7938 1409.38 45.1919 Z" fill="#000000" fill-rule="nonzero" fill-opacity="1" /><path clip-path="url(#clip380)" d="M1488.33 45.1919 L1488.33 72.576 L1480.88 72.576 L1480.88 45.4349 Q1480.88 38.994 1478.37 35.7938 Q1475.86 32.5936 1470.83 32.5936 Q1464.8 32.5936 1461.31 36.4419 Q1457.83 40.2903 1457.83 46.9338 L1457.83 72.576 L1450.34 72.576 L1450.34 27.2059 L1457.83 27.2059 L1457.83 34.2544 Q1460.5 30.163 1464.11 28.1376 Q1467.75 26.1121 1472.49 26.1121 Q1480.31 26.1121 1484.32 30.9732 Q1488.33 35.7938 1488.33 45.1919 Z" fill="#000000" fill-rule="nonzero" fill-opacity="1" /><path clip-path="url(#clip380)" d="M1504.17 34.9026 L1556.1 34.9026 L1556.1 41.7081 L1504.17 41.7081 L1504.17 34.9026 M1504.17 51.4303 L1556.1 51.4303 L1556.1 58.3168 L1504.17 58.3168 L1504.17 51.4303 Z" fill="#000000" fill-rule="nonzero" fill-opacity="1" /><path clip-path="url(#clip380)" d="M1573.85 12.096 L1605.97 12.096 L1605.97 18.9825 L1581.34 18.9825 L1581.34 33.8088 Q1583.12 33.2012 1584.91 32.9176 Q1586.69 32.5936 1588.47 32.5936 Q1598.6 32.5936 1604.51 38.1433 Q1610.43 43.6931 1610.43 53.1722 Q1610.43 62.9348 1604.35 68.3631 Q1598.27 73.7508 1587.22 73.7508 Q1583.41 73.7508 1579.44 73.1026 Q1575.51 72.4545 1571.3 71.1582 L1571.3 62.9348 Q1574.94 64.9198 1578.83 65.892 Q1582.72 66.8642 1587.05 66.8642 Q1594.06 66.8642 1598.15 63.1779 Q1602.24 59.4916 1602.24 53.1722 Q1602.24 46.8528 1598.15 43.1664 Q1594.06 39.4801 1587.05 39.4801 Q1583.77 39.4801 1580.49 40.2093 Q1577.25 40.9384 1573.85 42.4778 L1573.85 12.096 Z" fill="#000000" fill-rule="nonzero" fill-opacity="1" /><path clip-path="url(#clip380)" d="M1667.79 72.576 L1644.7 12.096 L1653.25 12.096 L1672.41 63.0159 L1691.61 12.096 L1700.11 12.096 L1677.06 72.576 L1667.79 72.576 Z" fill="#000000" fill-rule="nonzero" fill-opacity="1" /><path clip-path="url(#clip380)" d="M1740.99 48.0275 L1740.99 51.6733 L1706.72 51.6733 Q1707.2 59.3701 1711.34 63.421 Q1715.51 67.4314 1722.92 67.4314 Q1727.22 67.4314 1731.23 66.3781 Q1735.28 65.3249 1739.25 63.2184 L1739.25 70.267 Q1735.24 71.9684 1731.02 72.8596 Q1726.81 73.7508 1722.48 73.7508 Q1711.62 73.7508 1705.26 67.4314 Q1698.94 61.1119 1698.94 50.3365 Q1698.94 39.1965 1704.94 32.6746 Q1710.97 26.1121 1721.18 26.1121 Q1730.33 26.1121 1735.64 32.0264 Q1740.99 37.9003 1740.99 48.0275 M1733.53 45.84 Q1733.45 39.7232 1730.09 36.0774 Q1726.77 32.4315 1721.26 32.4315 Q1715.02 32.4315 1711.25 35.9558 Q1707.53 39.4801 1706.96 45.8805 L1733.53 45.84 Z" fill="#000000" fill-rule="nonzero" fill-opacity="1" /><path clip-path="url(#clip380)" d="M1779.51 34.1734 Q1778.26 33.4443 1776.76 33.1202 Q1775.3 32.7556 1773.52 32.7556 Q1767.2 32.7556 1763.79 36.8875 Q1760.43 40.9789 1760.43 48.6757 L1760.43 72.576 L1752.94 72.576 L1752.94 27.2059 L1760.43 27.2059 L1760.43 34.2544 Q1762.78 30.1225 1766.55 28.1376 Q1770.32 26.1121 1775.7 26.1121 Q1776.47 26.1121 1777.41 26.2337 Q1778.34 26.3147 1779.47 26.5172 L1779.51 34.1734 Z" fill="#000000" fill-rule="nonzero" fill-opacity="1" /><path clip-path="url(#clip380)" d="M1794.7 14.324 L1794.7 27.2059 L1810.06 27.2059 L1810.06 32.9987 L1794.7 32.9987 L1794.7 57.6282 Q1794.7 63.1779 1796.2 64.7578 Q1797.74 66.3376 1802.4 66.3376 L1810.06 66.3376 L1810.06 72.576 L1802.4 72.576 Q1793.77 72.576 1790.49 69.3758 Q1787.21 66.1351 1787.21 57.6282 L1787.21 32.9987 L1781.74 32.9987 L1781.74 27.2059 L1787.21 27.2059 L1787.21 14.324 L1794.7 14.324 Z" fill="#000000" fill-rule="nonzero" fill-opacity="1" /><path clip-path="url(#clip380)" d="M1819.86 27.2059 L1827.31 27.2059 L1827.31 72.576 L1819.86 72.576 L1819.86 27.2059 M1819.86 9.54393 L1827.31 9.54393 L1827.31 18.9825 L1819.86 18.9825 L1819.86 9.54393 Z" fill="#000000" fill-rule="nonzero" fill-opacity="1" /><path clip-path="url(#clip380)" d="M1875.56 28.9478 L1875.56 35.9153 Q1872.4 34.1734 1869.2 33.3227 Q1866.04 32.4315 1862.8 32.4315 Q1855.55 32.4315 1851.54 37.0496 Q1847.53 41.6271 1847.53 49.9314 Q1847.53 58.2358 1851.54 62.8538 Q1855.55 67.4314 1862.8 67.4314 Q1866.04 67.4314 1869.2 66.5807 Q1872.4 65.6895 1875.56 63.9476 L1875.56 70.8341 Q1872.44 72.2924 1869.08 73.0216 Q1865.76 73.7508 1861.99 73.7508 Q1851.74 73.7508 1845.7 67.3098 Q1839.67 60.8689 1839.67 49.9314 Q1839.67 38.832 1845.74 32.472 Q1851.86 26.1121 1862.47 26.1121 Q1865.92 26.1121 1869.2 26.8413 Q1872.48 27.5299 1875.56 28.9478 Z" fill="#000000" fill-rule="nonzero" fill-opacity="1" /><path clip-path="url(#clip380)" d="M1927.33 48.0275 L1927.33 51.6733 L1893.06 51.6733 Q1893.55 59.3701 1897.68 63.421 Q1901.85 67.4314 1909.26 67.4314 Q1913.56 67.4314 1917.57 66.3781 Q1921.62 65.3249 1925.59 63.2184 L1925.59 70.267 Q1921.58 71.9684 1917.36 72.8596 Q1913.15 73.7508 1908.82 73.7508 Q1897.96 73.7508 1891.6 67.4314 Q1885.28 61.1119 1885.28 50.3365 Q1885.28 39.1965 1891.28 32.6746 Q1897.31 26.1121 1907.52 26.1121 Q1916.68 26.1121 1921.98 32.0264 Q1927.33 37.9003 1927.33 48.0275 M1919.88 45.84 Q1919.8 39.7232 1916.43 36.0774 Q1913.11 32.4315 1907.6 32.4315 Q1901.36 32.4315 1897.6 35.9558 Q1893.87 39.4801 1893.3 45.8805 L1919.88 45.84 Z" fill="#000000" fill-rule="nonzero" fill-opacity="1" /><path clip-path="url(#clip380)" d="M1968.49 28.5427 L1968.49 35.5912 Q1965.33 33.9709 1961.92 33.1607 Q1958.52 32.3505 1954.88 32.3505 Q1949.33 32.3505 1946.53 34.0519 Q1943.78 35.7533 1943.78 39.156 Q1943.78 41.7486 1945.76 43.2475 Q1947.75 44.7058 1953.74 46.0426 L1956.29 46.6097 Q1964.23 48.3111 1967.56 51.4303 Q1970.92 54.509 1970.92 60.0587 Q1970.92 66.3781 1965.89 70.0644 Q1960.91 73.7508 1952.16 73.7508 Q1948.52 73.7508 1944.55 73.0216 Q1940.62 72.3329 1936.24 70.9151 L1936.24 63.2184 Q1940.37 65.3654 1944.38 66.4591 Q1948.39 67.5124 1952.32 67.5124 Q1957.59 67.5124 1960.43 65.73 Q1963.26 63.9071 1963.26 60.6258 Q1963.26 57.5877 1961.2 55.9673 Q1959.17 54.3469 1952.24 52.8481 L1949.65 52.2405 Q1942.72 50.7821 1939.64 47.7845 Q1936.57 44.7463 1936.57 39.4801 Q1936.57 33.0797 1941.1 29.5959 Q1945.64 26.1121 1953.98 26.1121 Q1958.12 26.1121 1961.76 26.7198 Q1965.41 27.3274 1968.49 28.5427 Z" fill="#000000" fill-rule="nonzero" fill-opacity="1" /><path clip-path="url(#clip382)" d="M1715.93 1107.76 L1717.98 506.067 L1146.37 318.184 L791.05 803.754 L1143.05 1291.74 L1715.93 1107.76 L1715.93 1107.76  Z" fill="#009af9" fill-rule="evenodd" fill-opacity="0.3"/>
<polyline clip-path="url(#clip382)" style="stroke:#000000; stroke-linecap:round; stroke-linejoin:round; stroke-width:4; stroke-opacity:1; fill:none" points="1715.93,1107.76 1717.98,506.067 1146.37,318.184 791.05,803.754 1143.05,1291.74 1715.93,1107.76 "/>
<circle clip-path="url(#clip382)" cx="1715.93" cy="1107.76" r="14.4" fill="#e26f46" fill-rule="evenodd" fill-opacity="1" stroke="#000000" stroke-opacity="1" stroke-width="3.2"/>
<circle clip-path="url(#clip382)" cx="1717.98" cy="506.067" r="14.4" fill="#e26f46" fill-rule="evenodd" fill-opacity="1" stroke="#000000" stroke-opacity="1" stroke-width="3.2"/>
<circle clip-path="url(#clip382)" cx="1146.37" cy="318.184" r="14.4" fill="#e26f46" fill-rule="evenodd" fill-opacity="1" stroke="#000000" stroke-opacity="1" stroke-width="3.2"/>
<circle clip-path="url(#clip382)" cx="791.05" cy="803.754" r="14.4" fill="#e26f46" fill-rule="evenodd" fill-opacity="1" stroke="#000000" stroke-opacity="1" stroke-width="3.2"/>
<circle clip-path="url(#clip382)" cx="1143.05" cy="1291.74" r="14.4" fill="#e26f46" fill-rule="evenodd" fill-opacity="1" stroke="#000000" stroke-opacity="1" stroke-width="3.2"/>
<circle clip-path="url(#clip382)" cx="1715.93" cy="1107.76" r="14.4" fill="#e26f46" fill-rule="evenodd" fill-opacity="1" stroke="#000000" stroke-opacity="1" stroke-width="3.2"/>
<polyline clip-path="url(#clip382)" style="stroke:#ff0000; stroke-linecap:round; stroke-linejoin:round; stroke-width:4; stroke-opacity:0.3; fill:none" points="2689.49,1107.76 2687.53,1046.01 2681.65,984.511 2671.89,923.509 2658.28,863.249 2640.88,803.973 2619.75,745.921 2594.98,689.325 2566.67,634.415 2534.94,581.411 2499.91,530.525 2461.72,481.965 2420.52,435.924 2376.5,392.588 2329.81,352.132 2280.65,314.719 2229.21,280.499 2175.71,249.61 2120.36,222.176 2063.38,198.309 2005,178.103 1945.45,161.641 1884.98,148.988 1823.84,140.196 1762.25,135.3 1700.48,134.32 1638.77,137.26 1577.38,144.107 1516.54,154.835 1456.5,169.399 1397.51,187.743 1339.8,209.79 1283.6,235.454 1229.15,264.63 1176.65,297.201 1126.33,333.035 1078.38,371.99 1033,413.907 990.369,458.617 950.659,505.942 914.031,555.69 880.631,607.661 850.595,661.646 824.043,717.427 801.082,774.779 781.806,833.473 766.29,893.271 754.599,953.932 746.778,1015.21 742.86,1076.87 742.86,1138.64 746.778,1200.3 754.599,1261.58 766.29,1322.24 781.806,1382.04 801.082,1440.73 824.043,1498.08 850.595,1553.87 880.631,1607.85 914.031,1659.82 950.659,1709.57 990.369,1756.89 1033,1801.61 1078.38,1843.52 1126.33,1882.48 1176.65,1918.31 1229.15,1950.88 1283.6,1980.06 1339.8,2005.72 1397.51,2027.77 1456.5,2046.11 1516.54,2060.68 1577.38,2071.4 1638.77,2078.25 1700.48,2081.19 1762.25,2080.21 1823.84,2075.32 1884.98,2066.52 1945.45,2053.87 2005,2037.41 2063.38,2017.2 2120.36,1993.34 2175.71,1965.9 2229.21,1935.01 2280.65,1900.79 2329.81,1863.38 2376.5,1822.92 2420.52,1779.59 2461.72,1733.55 2499.91,1684.99 2534.94,1634.1 2566.67,1581.1 2594.98,1526.19 2619.75,1469.59 2640.88,1411.54 2658.28,1352.26 2671.89,1292 2681.65,1231 2687.53,1169.5 2689.49,1107.76 "/>
<polyline clip-path="url(#clip382)" style="stroke:#ff0000; stroke-linecap:round; stroke-linejoin:round; stroke-width:4; stroke-opacity:0.3; fill:none" points="2691.54,506.067 2689.58,444.32 2683.71,382.822 2673.94,321.82 2660.33,261.56 2642.93,202.285 2621.8,144.232 2597.03,87.6369 2568.72,32.7265 2536.99,-20.278 2501.96,-71.1631 2463.77,-119.724 2422.58,-165.765 2378.55,-209.1 2331.86,-249.556 2282.7,-286.97 2231.26,-321.19 2177.76,-352.079 2122.41,-379.512 2065.43,-403.38 2007.05,-423.586 1947.5,-440.048 1887.04,-452.7 1825.89,-461.492 1764.3,-466.388 1702.53,-467.368 1640.83,-464.429 1579.43,-457.581 1518.59,-446.854 1458.55,-432.289 1399.56,-413.946 1341.85,-391.898 1285.66,-366.235 1231.2,-337.059 1178.71,-304.488 1128.38,-268.653 1080.43,-229.699 1035.05,-187.782 992.421,-143.071 952.711,-95.7464 916.083,-45.9985 882.683,5.97246 852.647,59.9571 826.095,115.738 803.134,173.091 783.858,231.784 768.342,291.582 756.651,352.244 748.83,413.525 744.912,475.178 744.912,536.956 748.83,598.61 756.651,659.891 768.342,720.552 783.858,780.35 803.134,839.044 826.095,896.396 852.647,952.177 882.683,1006.16 916.083,1058.13 952.711,1107.88 992.421,1155.21 1035.05,1199.92 1080.43,1241.83 1128.38,1280.79 1178.71,1316.62 1231.2,1349.19 1285.66,1378.37 1341.85,1404.03 1399.56,1426.08 1458.55,1444.42 1518.59,1458.99 1579.43,1469.72 1640.83,1476.56 1702.53,1479.5 1764.3,1478.52 1825.89,1473.63 1887.04,1464.83 1947.5,1452.18 2007.05,1435.72 2065.43,1415.51 2122.41,1391.65 2177.76,1364.21 2231.26,1333.32 2282.7,1299.1 2331.86,1261.69 2378.55,1221.24 2422.58,1177.9 2463.77,1131.86 2501.96,1083.3 2536.99,1032.41 2568.72,979.408 2597.03,924.498 2621.8,867.902 2642.93,809.85 2660.33,750.574 2673.94,690.314 2683.71,629.312 2689.58,567.814 2691.54,506.067 "/>
<polyline clip-path="url(#clip382)" style="stroke:#ff0000; stroke-linecap:round; stroke-linejoin:round; stroke-width:4; stroke-opacity:0.3; fill:none" points="2119.93,318.184 2117.97,256.437 2112.1,194.939 2102.34,133.937 2088.73,73.6766 2071.32,14.4011 2050.19,-43.6513 2025.43,-100.247 1997.12,-155.157 1965.38,-208.162 1930.35,-259.047 1892.16,-307.607 1850.97,-353.648 1806.94,-396.984 1760.25,-437.44 1711.09,-474.853 1659.66,-509.073 1606.16,-539.962 1550.8,-567.396 1493.82,-591.264 1435.44,-611.469 1375.9,-627.931 1315.43,-640.584 1254.28,-649.376 1192.7,-654.272 1130.93,-655.252 1069.22,-652.312 1007.82,-645.465 946.983,-634.737 886.946,-620.173 827.954,-601.829 770.245,-579.782 714.049,-554.118 659.595,-524.942 607.101,-492.371 556.778,-456.537 508.829,-417.582 463.447,-375.665 420.816,-330.955 381.106,-283.63 344.477,-233.882 311.077,-181.911 281.041,-127.926 254.489,-72.1454 231.529,-14.7927 212.252,43.9007 196.736,103.699 185.045,164.36 177.224,225.641 173.306,287.295 173.306,349.073 177.224,410.726 185.045,472.007 196.736,532.669 212.252,592.467 231.529,651.16 254.489,708.513 281.041,764.294 311.077,818.279 344.477,870.25 381.106,919.997 420.816,967.322 463.447,1012.03 508.829,1053.95 556.778,1092.9 607.101,1128.74 659.595,1161.31 714.049,1190.49 770.245,1216.15 827.954,1238.2 886.946,1256.54 946.983,1271.1 1007.82,1281.83 1069.22,1288.68 1130.93,1291.62 1192.7,1290.64 1254.28,1285.74 1315.43,1276.95 1375.9,1264.3 1435.44,1247.84 1493.82,1227.63 1550.8,1203.76 1606.16,1176.33 1659.66,1145.44 1711.09,1111.22 1760.25,1073.81 1806.94,1033.35 1850.97,990.016 1892.16,943.975 1930.35,895.414 1965.38,844.529 1997.12,791.525 2025.43,736.614 2050.19,680.019 2071.32,621.966 2088.73,562.691 2102.34,502.431 2112.1,441.429 2117.97,379.931 2119.93,318.184 "/>
<polyline clip-path="url(#clip382)" style="stroke:#ff0000; stroke-linecap:round; stroke-linejoin:round; stroke-width:4; stroke-opacity:0.3; fill:none" points="1764.61,803.754 1762.65,742.007 1756.78,680.509 1747.02,619.507 1733.4,559.247 1716,499.971 1694.87,441.919 1670.1,385.324 1641.79,330.413 1610.06,277.409 1575.03,226.524 1536.84,177.963 1495.65,131.922 1451.62,88.5861 1404.93,48.1302 1355.77,10.7168 1304.33,-23.5032 1250.83,-54.3922 1195.48,-81.8258 1138.5,-105.693 1080.12,-125.899 1020.58,-142.361 960.107,-155.014 898.958,-163.806 837.374,-168.702 775.604,-169.682 713.896,-166.742 652.499,-159.895 591.659,-149.167 531.623,-134.603 472.631,-116.259 414.921,-94.2117 358.726,-68.5482 304.271,-39.3722 251.777,-6.80128 201.454,29.0335 153.505,67.9877 108.124,109.905 65.492,154.615 25.7819,201.94 -10.8467,251.688 -44.2464,303.659 -74.2827,357.644 -100.835,413.425 -123.795,470.777 -143.072,529.471 -158.587,589.269 -170.279,649.93 -178.099,711.211 -182.018,772.865 -182.018,834.643 -178.099,896.296 -170.279,957.577 -158.587,1018.24 -143.072,1078.04 -123.795,1136.73 -100.835,1194.08 -74.2827,1249.86 -44.2464,1303.85 -10.8467,1355.82 25.7819,1405.57 65.492,1452.89 108.124,1497.6 153.505,1539.52 201.454,1578.47 251.777,1614.31 304.271,1646.88 358.726,1676.06 414.921,1701.72 472.631,1723.77 531.623,1742.11 591.659,1756.67 652.499,1767.4 713.896,1774.25 775.604,1777.19 837.374,1776.21 898.958,1771.31 960.107,1762.52 1020.58,1749.87 1080.12,1733.41 1138.5,1713.2 1195.48,1689.33 1250.83,1661.9 1304.33,1631.01 1355.77,1596.79 1404.93,1559.38 1451.62,1518.92 1495.65,1475.59 1536.84,1429.55 1575.03,1380.98 1610.06,1330.1 1641.79,1277.09 1670.1,1222.18 1694.87,1165.59 1716,1107.54 1733.4,1048.26 1747.02,988.001 1756.78,926.999 1762.65,865.501 1764.61,803.754 "/>
<polyline clip-path="url(#clip382)" style="stroke:#ff0000; stroke-linecap:round; stroke-linejoin:round; stroke-width:4; stroke-opacity:0.3; fill:none" points="2116.61,1291.74 2114.65,1229.99 2108.78,1168.49 2099.02,1107.49 2085.41,1047.23 2068,987.954 2046.87,929.901 2022.11,873.306 1993.8,818.395 1962.06,765.391 1927.03,714.506 1888.84,665.945 1847.65,619.904 1803.62,576.568 1756.93,536.113 1707.77,498.699 1656.34,464.479 1602.84,433.59 1547.48,406.157 1490.5,382.289 1432.12,362.083 1372.58,345.621 1312.11,332.969 1250.96,324.177 1189.38,319.281 1127.61,318.301 1065.9,321.24 1004.5,328.088 943.663,338.815 883.626,353.38 824.634,371.723 766.924,393.771 710.729,419.434 656.275,448.61 603.78,481.181 553.458,517.016 505.509,555.97 460.127,597.887 417.496,642.598 377.785,689.923 341.157,739.67 307.757,791.641 277.721,845.626 251.169,901.407 228.208,958.76 208.932,1017.45 193.416,1077.25 181.725,1137.91 173.904,1199.19 169.986,1260.85 169.986,1322.63 173.904,1384.28 181.725,1445.56 193.416,1506.22 208.932,1566.02 228.208,1624.71 251.169,1682.07 277.721,1737.85 307.757,1791.83 341.157,1843.8 377.785,1893.55 417.496,1940.87 460.127,1985.59 505.509,2027.5 553.458,2066.46 603.78,2102.29 656.275,2134.86 710.729,2164.04 766.924,2189.7 824.634,2211.75 883.626,2230.09 943.663,2244.66 1004.5,2255.38 1065.9,2262.23 1127.61,2265.17 1189.38,2264.19 1250.96,2259.3 1312.11,2250.5 1372.58,2237.85 1432.12,2221.39 1490.5,2201.18 1547.48,2177.32 1602.84,2149.88 1656.34,2118.99 1707.77,2084.77 1756.93,2047.36 1803.62,2006.9 1847.65,1963.57 1888.84,1917.53 1927.03,1868.97 1962.06,1818.08 1993.8,1765.08 2022.11,1710.17 2046.87,1653.57 2068,1595.52 2085.41,1536.24 2099.02,1475.98 2108.78,1414.98 2114.65,1353.48 2116.61,1291.74 "/>
</svg>
