<?xml version="1.0" encoding="utf-8"?>
<svg xmlns="http://www.w3.org/2000/svg" xmlns:xlink="http://www.w3.org/1999/xlink" width="600" height="400" viewBox="0 0 2400 1600">
<defs>
  <clipPath id="clip350">
    <rect x="0" y="0" width="2400" height="1600"/>
  </clipPath>
</defs>
<path clip-path="url(#clip350)" d="M0 1600 L2400 1600 L2400 0 L0 0  Z" fill="#ffffff" fill-rule="evenodd" fill-opacity="1"/>
<defs>
  <clipPath id="clip351">
    <rect x="480" y="0" width="1681" height="1600"/>
  </clipPath>
</defs>
<path clip-path="url(#clip350)" d="M627.27 1486.45 L1919.58 1486.45 L1919.58 123.472 L627.27 123.472  Z" fill="#ffffff" fill-rule="evenodd" fill-opacity="1"/>
<defs>
  <clipPath id="clip352">
    <rect x="627" y="123" width="1293" height="1364"/>
  </clipPath>
</defs>
<polyline clip-path="url(#clip352)" style="stroke:#000000; stroke-linecap:round; stroke-linejoin:round; stroke-width:2; stroke-opacity:0.1; fill:none" points="797.714,1486.45 797.714,123.472 "/>
<polyline clip-path="url(#clip352)" style="stroke:#000000; stroke-linecap:round; stroke-linejoin:round; stroke-width:2; stroke-opacity:0.1; fill:none" points="1042.4,1486.45 1042.4,123.472 "/>
<polyline clip-path="url(#clip352)" style="stroke:#000000; stroke-linecap:round; stroke-linejoin:round; stroke-width:2; stroke-opacity:0.1; fill:none" points="1287.08,1486.45 1287.08,123.472 "/>
<polyline clip-path="url(#clip352)" style="stroke:#000000; stroke-linecap:round; stroke-linejoin:round; stroke-width:2; stroke-opacity:0.1; fill:none" points="1531.77,1486.45 1531.77,123.472 "/>
<polyline clip-path="url(#clip352)" style="stroke:#000000; stroke-linecap:round; stroke-linejoin:round; stroke-width:2; stroke-opacity:0.1; fill:none" points="1776.45,1486.45 1776.45,123.472 "/>
<polyline clip-path="url(#clip350)" style="stroke:#000000; stroke-linecap:round; stroke-linejoin:round; stroke-width:4; stroke-opacity:1; fill:none" points="627.27,1486.45 1919.58,1486.45 "/>
<polyline clip-path="url(#clip350)" style="stroke:#000000; stroke-linecap:round; stroke-linejoin:round; stroke-width:4; stroke-opacity:1; fill:none" points="797.714,1486.45 797.714,1467.55 "/>
<polyline clip-path="url(#clip350)" style="stroke:#000000; stroke-linecap:round; stroke-linejoin:round; stroke-width:4; stroke-opacity:1; fill:none" points="1042.4,1486.45 1042.4,1467.55 "/>
<polyline clip-path="url(#clip350)" style="stroke:#000000; stroke-linecap:round; stroke-linejoin:round; stroke-width:4; stroke-opacity:1; fill:none" points="1287.08,1486.45 1287.08,1467.55 "/>
<polyline clip-path="url(#clip350)" style="stroke:#000000; stroke-linecap:round; stroke-linejoin:round; stroke-width:4; stroke-opacity:1; fill:none" points="1531.77,1486.45 1531.77,1467.55 "/>
<polyline clip-path="url(#clip350)" style="stroke:#000000; stroke-linecap:round; stroke-linejoin:round; stroke-width:4; stroke-opacity:1; fill:none" points="1776.45,1486.45 1776.45,1467.55 "/>
<path clip-path="url(#clip350)" d="M729.659 1532.02 L759.335 1532.02 L759.335 1535.95 L729.659 1535.95 L729.659 1532.02 Z" fill="#000000" fill-rule="nonzero" fill-opacity="1" /><path clip-path="url(#clip350)" d="M770.238 1544.91 L777.876 1544.91 L777.876 1518.55 L769.566 1520.21 L769.566 1515.95 L777.83 1514.29 L782.506 1514.29 L782.506 1544.91 L790.145 1544.91 L790.145 1548.85 L770.238 1548.85 L770.238 1544.91 Z" fill="#000000" fill-rule="nonzero" fill-opacity="1" /><path clip-path="url(#clip350)" d="M799.589 1542.97 L804.474 1542.97 L804.474 1548.85 L799.589 1548.85 L799.589 1542.97 Z" fill="#000000" fill-rule="nonzero" fill-opacity="1" /><path clip-path="url(#clip350)" d="M813.478 1514.29 L835.7 1514.29 L835.7 1516.28 L823.154 1548.85 L818.27 1548.85 L830.075 1518.22 L813.478 1518.22 L813.478 1514.29 Z" fill="#000000" fill-rule="nonzero" fill-opacity="1" /><path clip-path="url(#clip350)" d="M844.867 1514.29 L863.223 1514.29 L863.223 1518.22 L849.149 1518.22 L849.149 1526.7 Q850.168 1526.35 851.186 1526.19 Q852.205 1526 853.223 1526 Q859.01 1526 862.39 1529.17 Q865.769 1532.34 865.769 1537.76 Q865.769 1543.34 862.297 1546.44 Q858.825 1549.52 852.506 1549.52 Q850.33 1549.52 848.061 1549.15 Q845.816 1548.78 843.408 1548.04 L843.408 1543.34 Q845.492 1544.47 847.714 1545.03 Q849.936 1545.58 852.413 1545.58 Q856.418 1545.58 858.756 1543.48 Q861.094 1541.37 861.094 1537.76 Q861.094 1534.15 858.756 1532.04 Q856.418 1529.94 852.413 1529.94 Q850.538 1529.94 848.663 1530.35 Q846.811 1530.77 844.867 1531.65 L844.867 1514.29 Z" fill="#000000" fill-rule="nonzero" fill-opacity="1" /><path clip-path="url(#clip350)" d="M973.846 1532.02 L1003.52 1532.02 L1003.52 1535.95 L973.846 1535.95 L973.846 1532.02 Z" fill="#000000" fill-rule="nonzero" fill-opacity="1" /><path clip-path="url(#clip350)" d="M1014.42 1544.91 L1022.06 1544.91 L1022.06 1518.55 L1013.75 1520.21 L1013.75 1515.95 L1022.02 1514.29 L1026.69 1514.29 L1026.69 1544.91 L1034.33 1544.91 L1034.33 1548.85 L1014.42 1548.85 L1014.42 1544.91 Z" fill="#000000" fill-rule="nonzero" fill-opacity="1" /><path clip-path="url(#clip350)" d="M1043.78 1542.97 L1048.66 1542.97 L1048.66 1548.85 L1043.78 1548.85 L1043.78 1542.97 Z" fill="#000000" fill-rule="nonzero" fill-opacity="1" /><path clip-path="url(#clip350)" d="M1058.89 1514.29 L1077.25 1514.29 L1077.25 1518.22 L1063.17 1518.22 L1063.17 1526.7 Q1064.19 1526.35 1065.21 1526.19 Q1066.23 1526 1067.25 1526 Q1073.04 1526 1076.42 1529.17 Q1079.79 1532.34 1079.79 1537.76 Q1079.79 1543.34 1076.32 1546.44 Q1072.85 1549.52 1066.53 1549.52 Q1064.35 1549.52 1062.09 1549.15 Q1059.84 1548.78 1057.43 1548.04 L1057.43 1543.34 Q1059.52 1544.47 1061.74 1545.03 Q1063.96 1545.58 1066.44 1545.58 Q1070.44 1545.58 1072.78 1543.48 Q1075.12 1541.37 1075.12 1537.76 Q1075.12 1534.15 1072.78 1532.04 Q1070.44 1529.94 1066.44 1529.94 Q1064.56 1529.94 1062.69 1530.35 Q1060.84 1530.77 1058.89 1531.65 L1058.89 1514.29 Z" fill="#000000" fill-rule="nonzero" fill-opacity="1" /><path clip-path="url(#clip350)" d="M1099.01 1517.37 Q1095.4 1517.37 1093.57 1520.93 Q1091.76 1524.47 1091.76 1531.6 Q1091.76 1538.71 1093.57 1542.27 Q1095.4 1545.82 1099.01 1545.82 Q1102.64 1545.82 1104.45 1542.27 Q1106.28 1538.71 1106.28 1531.6 Q1106.28 1524.47 1104.45 1520.93 Q1102.64 1517.37 1099.01 1517.37 M1099.01 1513.66 Q1104.82 1513.66 1107.87 1518.27 Q1110.95 1522.85 1110.95 1531.6 Q1110.95 1540.33 1107.87 1544.94 Q1104.82 1549.52 1099.01 1549.52 Q1093.2 1549.52 1090.12 1544.94 Q1087.06 1540.33 1087.06 1531.6 Q1087.06 1522.85 1090.12 1518.27 Q1093.2 1513.66 1099.01 1513.66 Z" fill="#000000" fill-rule="nonzero" fill-opacity="1" /><path clip-path="url(#clip350)" d="M1219.03 1532.02 L1248.7 1532.02 L1248.7 1535.95 L1219.03 1535.95 L1219.03 1532.02 Z" fill="#000000" fill-rule="nonzero" fill-opacity="1" /><path clip-path="url(#clip350)" d="M1259.61 1544.91 L1267.25 1544.91 L1267.25 1518.55 L1258.94 1520.21 L1258.94 1515.95 L1267.2 1514.29 L1271.88 1514.29 L1271.88 1544.91 L1279.51 1544.91 L1279.51 1548.85 L1259.61 1548.85 L1259.61 1544.91 Z" fill="#000000" fill-rule="nonzero" fill-opacity="1" /><path clip-path="url(#clip350)" d="M1288.96 1542.97 L1293.84 1542.97 L1293.84 1548.85 L1288.96 1548.85 L1288.96 1542.97 Z" fill="#000000" fill-rule="nonzero" fill-opacity="1" /><path clip-path="url(#clip350)" d="M1308.06 1544.91 L1324.38 1544.91 L1324.38 1548.85 L1302.43 1548.85 L1302.43 1544.91 Q1305.09 1542.16 1309.68 1537.53 Q1314.28 1532.88 1315.46 1531.53 Q1317.71 1529.01 1318.59 1527.27 Q1319.49 1525.51 1319.49 1523.82 Q1319.49 1521.07 1317.55 1519.33 Q1315.63 1517.6 1312.52 1517.6 Q1310.32 1517.6 1307.87 1518.36 Q1305.44 1519.13 1302.66 1520.68 L1302.66 1515.95 Q1305.49 1514.82 1307.94 1514.24 Q1310.39 1513.66 1312.43 1513.66 Q1317.8 1513.66 1321 1516.35 Q1324.19 1519.03 1324.19 1523.52 Q1324.19 1525.65 1323.38 1527.57 Q1322.59 1529.47 1320.49 1532.07 Q1319.91 1532.74 1316.81 1535.95 Q1313.7 1539.15 1308.06 1544.91 Z" fill="#000000" fill-rule="nonzero" fill-opacity="1" /><path clip-path="url(#clip350)" d="M1334.24 1514.29 L1352.59 1514.29 L1352.59 1518.22 L1338.52 1518.22 L1338.52 1526.7 Q1339.54 1526.35 1340.56 1526.19 Q1341.57 1526 1342.59 1526 Q1348.38 1526 1351.76 1529.17 Q1355.14 1532.34 1355.14 1537.76 Q1355.14 1543.34 1351.67 1546.44 Q1348.19 1549.52 1341.88 1549.52 Q1339.7 1549.52 1337.43 1549.15 Q1335.19 1548.78 1332.78 1548.04 L1332.78 1543.34 Q1334.86 1544.47 1337.08 1545.03 Q1339.31 1545.58 1341.78 1545.58 Q1345.79 1545.58 1348.13 1543.48 Q1350.46 1541.37 1350.46 1537.76 Q1350.46 1534.15 1348.13 1532.04 Q1345.79 1529.94 1341.78 1529.94 Q1339.91 1529.94 1338.03 1530.35 Q1336.18 1530.77 1334.24 1531.65 L1334.24 1514.29 Z" fill="#000000" fill-rule="nonzero" fill-opacity="1" /><path clip-path="url(#clip350)" d="M1463.22 1532.02 L1492.89 1532.02 L1492.89 1535.95 L1463.22 1535.95 L1463.22 1532.02 Z" fill="#000000" fill-rule="nonzero" fill-opacity="1" /><path clip-path="url(#clip350)" d="M1503.79 1544.91 L1511.43 1544.91 L1511.43 1518.55 L1503.12 1520.21 L1503.12 1515.95 L1511.39 1514.29 L1516.06 1514.29 L1516.06 1544.91 L1523.7 1544.91 L1523.7 1548.85 L1503.79 1548.85 L1503.79 1544.91 Z" fill="#000000" fill-rule="nonzero" fill-opacity="1" /><path clip-path="url(#clip350)" d="M1533.15 1542.97 L1538.03 1542.97 L1538.03 1548.85 L1533.15 1548.85 L1533.15 1542.97 Z" fill="#000000" fill-rule="nonzero" fill-opacity="1" /><path clip-path="url(#clip350)" d="M1558.22 1517.37 Q1554.6 1517.37 1552.78 1520.93 Q1550.97 1524.47 1550.97 1531.6 Q1550.97 1538.71 1552.78 1542.27 Q1554.6 1545.82 1558.22 1545.82 Q1561.85 1545.82 1563.66 1542.27 Q1565.48 1538.71 1565.48 1531.6 Q1565.48 1524.47 1563.66 1520.93 Q1561.85 1517.37 1558.22 1517.37 M1558.22 1513.66 Q1564.03 1513.66 1567.08 1518.27 Q1570.16 1522.85 1570.16 1531.6 Q1570.16 1540.33 1567.08 1544.94 Q1564.03 1549.52 1558.22 1549.52 Q1552.41 1549.52 1549.33 1544.94 Q1546.27 1540.33 1546.27 1531.6 Q1546.27 1522.85 1549.33 1518.27 Q1552.41 1513.66 1558.22 1513.66 Z" fill="#000000" fill-rule="nonzero" fill-opacity="1" /><path clip-path="url(#clip350)" d="M1588.38 1517.37 Q1584.77 1517.37 1582.94 1520.93 Q1581.13 1524.47 1581.13 1531.6 Q1581.13 1538.71 1582.94 1542.27 Q1584.77 1545.82 1588.38 1545.82 Q1592.01 1545.82 1593.82 1542.27 Q1595.65 1538.71 1595.65 1531.6 Q1595.65 1524.47 1593.82 1520.93 Q1592.01 1517.37 1588.38 1517.37 M1588.38 1513.66 Q1594.19 1513.66 1597.24 1518.27 Q1600.32 1522.85 1600.32 1531.6 Q1600.32 1540.33 1597.24 1544.94 Q1594.19 1549.52 1588.38 1549.52 Q1582.57 1549.52 1579.49 1544.94 Q1576.43 1540.33 1576.43 1531.6 Q1576.43 1522.85 1579.49 1518.27 Q1582.57 1513.66 1588.38 1513.66 Z" fill="#000000" fill-rule="nonzero" fill-opacity="1" /><path clip-path="url(#clip350)" d="M1708.4 1532.02 L1738.07 1532.02 L1738.07 1535.95 L1708.4 1535.95 L1708.4 1532.02 Z" fill="#000000" fill-rule="nonzero" fill-opacity="1" /><path clip-path="url(#clip350)" d="M1758.17 1517.37 Q1754.56 1517.37 1752.73 1520.93 Q1750.92 1524.47 1750.92 1531.6 Q1750.92 1538.71 1752.73 1542.27 Q1754.56 1545.82 1758.17 1545.82 Q1761.8 1545.82 1763.61 1542.27 Q1765.43 1538.71 1765.43 1531.6 Q1765.43 1524.47 1763.61 1520.93 Q1761.8 1517.37 1758.17 1517.37 M1758.17 1513.66 Q1763.98 1513.66 1767.03 1518.27 Q1770.11 1522.85 1770.11 1531.6 Q1770.11 1540.33 1767.03 1544.94 Q1763.98 1549.52 1758.17 1549.52 Q1752.36 1549.52 1749.28 1544.94 Q1746.22 1540.33 1746.22 1531.6 Q1746.22 1522.85 1749.28 1518.27 Q1752.36 1513.66 1758.17 1513.66 Z" fill="#000000" fill-rule="nonzero" fill-opacity="1" /><path clip-path="url(#clip350)" d="M1778.33 1542.97 L1783.21 1542.97 L1783.21 1548.85 L1778.33 1548.85 L1778.33 1542.97 Z" fill="#000000" fill-rule="nonzero" fill-opacity="1" /><path clip-path="url(#clip350)" d="M1792.22 1514.29 L1814.44 1514.29 L1814.44 1516.28 L1801.89 1548.85 L1797.01 1548.85 L1808.81 1518.22 L1792.22 1518.22 L1792.22 1514.29 Z" fill="#000000" fill-rule="nonzero" fill-opacity="1" /><path clip-path="url(#clip350)" d="M1823.61 1514.29 L1841.96 1514.29 L1841.96 1518.22 L1827.89 1518.22 L1827.89 1526.7 Q1828.91 1526.35 1829.93 1526.19 Q1830.94 1526 1831.96 1526 Q1837.75 1526 1841.13 1529.17 Q1844.51 1532.34 1844.51 1537.76 Q1844.51 1543.34 1841.04 1546.44 Q1837.56 1549.52 1831.24 1549.52 Q1829.07 1549.52 1826.8 1549.15 Q1824.56 1548.78 1822.15 1548.04 L1822.15 1543.34 Q1824.23 1544.47 1826.45 1545.03 Q1828.68 1545.58 1831.15 1545.58 Q1835.16 1545.58 1837.49 1543.48 Q1839.83 1541.37 1839.83 1537.76 Q1839.83 1534.15 1837.49 1532.04 Q1835.16 1529.94 1831.15 1529.94 Q1829.28 1529.94 1827.4 1530.35 Q1825.55 1530.77 1823.61 1531.65 L1823.61 1514.29 Z" fill="#000000" fill-rule="nonzero" fill-opacity="1" /><polyline clip-path="url(#clip352)" style="stroke:#000000; stroke-linecap:round; stroke-linejoin:round; stroke-width:2; stroke-opacity:0.1; fill:none" points="627.27,1285.65 1919.58,1285.65 "/>
<polyline clip-path="url(#clip352)" style="stroke:#000000; stroke-linecap:round; stroke-linejoin:round; stroke-width:2; stroke-opacity:0.1; fill:none" points="627.27,992.031 1919.58,992.031 "/>
<polyline clip-path="url(#clip352)" style="stroke:#000000; stroke-linecap:round; stroke-linejoin:round; stroke-width:2; stroke-opacity:0.1; fill:none" points="627.27,698.409 1919.58,698.409 "/>
<polyline clip-path="url(#clip352)" style="stroke:#000000; stroke-linecap:round; stroke-linejoin:round; stroke-width:2; stroke-opacity:0.1; fill:none" points="627.27,404.788 1919.58,404.788 "/>
<polyline clip-path="url(#clip350)" style="stroke:#000000; stroke-linecap:round; stroke-linejoin:round; stroke-width:4; stroke-opacity:1; fill:none" points="627.27,1486.45 627.27,123.472 "/>
<polyline clip-path="url(#clip350)" style="stroke:#000000; stroke-linecap:round; stroke-linejoin:round; stroke-width:4; stroke-opacity:1; fill:none" points="627.27,1285.65 638.584,1285.65 "/>
<polyline clip-path="url(#clip350)" style="stroke:#000000; stroke-linecap:round; stroke-linejoin:round; stroke-width:4; stroke-opacity:1; fill:none" points="627.27,992.031 638.584,992.031 "/>
<polyline clip-path="url(#clip350)" style="stroke:#000000; stroke-linecap:round; stroke-linejoin:round; stroke-width:4; stroke-opacity:1; fill:none" points="627.27,698.409 638.584,698.409 "/>
<polyline clip-path="url(#clip350)" style="stroke:#000000; stroke-linecap:round; stroke-linejoin:round; stroke-width:4; stroke-opacity:1; fill:none" points="627.27,404.788 638.584,404.788 "/>
<path clip-path="url(#clip350)" d="M484.165 1286.1 L513.84 1286.1 L513.84 1290.04 L484.165 1290.04 L484.165 1286.1 Z" fill="#000000" fill-rule="nonzero" fill-opacity="1" /><path clip-path="url(#clip350)" d="M533.933 1271.45 Q530.322 1271.45 528.493 1275.02 Q526.687 1278.56 526.687 1285.69 Q526.687 1292.79 528.493 1296.36 Q530.322 1299.9 533.933 1299.9 Q537.567 1299.9 539.373 1296.36 Q541.201 1292.79 541.201 1285.69 Q541.201 1278.56 539.373 1275.02 Q537.567 1271.45 533.933 1271.45 M533.933 1267.75 Q539.743 1267.75 542.798 1272.35 Q545.877 1276.94 545.877 1285.69 Q545.877 1294.41 542.798 1299.02 Q539.743 1303.6 533.933 1303.6 Q528.123 1303.6 525.044 1299.02 Q521.988 1294.41 521.988 1285.69 Q521.988 1276.94 525.044 1272.35 Q528.123 1267.75 533.933 1267.75 Z" fill="#000000" fill-rule="nonzero" fill-opacity="1" /><path clip-path="url(#clip350)" d="M554.095 1297.05 L558.979 1297.05 L558.979 1302.93 L554.095 1302.93 L554.095 1297.05 Z" fill="#000000" fill-rule="nonzero" fill-opacity="1" /><path clip-path="url(#clip350)" d="M579.743 1283.79 Q576.595 1283.79 574.743 1285.94 Q572.914 1288.09 572.914 1291.84 Q572.914 1295.57 574.743 1297.75 Q576.595 1299.9 579.743 1299.9 Q582.891 1299.9 584.72 1297.75 Q586.571 1295.57 586.571 1291.84 Q586.571 1288.09 584.72 1285.94 Q582.891 1283.79 579.743 1283.79 M589.025 1269.14 L589.025 1273.4 Q587.266 1272.56 585.46 1272.12 Q583.678 1271.68 581.919 1271.68 Q577.289 1271.68 574.835 1274.81 Q572.405 1277.93 572.058 1284.25 Q573.423 1282.24 575.484 1281.17 Q577.544 1280.09 580.021 1280.09 Q585.229 1280.09 588.238 1283.26 Q591.27 1286.41 591.27 1291.84 Q591.27 1297.17 588.122 1300.39 Q584.974 1303.6 579.743 1303.6 Q573.747 1303.6 570.576 1299.02 Q567.405 1294.41 567.405 1285.69 Q567.405 1277.49 571.294 1272.63 Q575.183 1267.75 581.733 1267.75 Q583.493 1267.75 585.275 1268.09 Q587.081 1268.44 589.025 1269.14 Z" fill="#000000" fill-rule="nonzero" fill-opacity="1" /><path clip-path="url(#clip350)" d="M484.975 992.482 L514.651 992.482 L514.651 996.418 L484.975 996.418 L484.975 992.482 Z" fill="#000000" fill-rule="nonzero" fill-opacity="1" /><path clip-path="url(#clip350)" d="M534.743 977.83 Q531.132 977.83 529.303 981.394 Q527.498 984.936 527.498 992.066 Q527.498 999.172 529.303 1002.74 Q531.132 1006.28 534.743 1006.28 Q538.377 1006.28 540.183 1002.74 Q542.011 999.172 542.011 992.066 Q542.011 984.936 540.183 981.394 Q538.377 977.83 534.743 977.83 M534.743 974.126 Q540.553 974.126 543.609 978.732 Q546.687 983.316 546.687 992.066 Q546.687 1000.79 543.609 1005.4 Q540.553 1009.98 534.743 1009.98 Q528.933 1009.98 525.854 1005.4 Q522.799 1000.79 522.799 992.066 Q522.799 983.316 525.854 978.732 Q528.933 974.126 534.743 974.126 Z" fill="#000000" fill-rule="nonzero" fill-opacity="1" /><path clip-path="url(#clip350)" d="M554.905 1003.43 L559.789 1003.43 L559.789 1009.31 L554.905 1009.31 L554.905 1003.43 Z" fill="#000000" fill-rule="nonzero" fill-opacity="1" /><path clip-path="url(#clip350)" d="M584.141 990.677 Q587.497 991.394 589.372 993.663 Q591.27 995.931 591.27 999.265 Q591.27 1004.38 587.752 1007.18 Q584.233 1009.98 577.752 1009.98 Q575.576 1009.98 573.261 1009.54 Q570.97 1009.13 568.516 1008.27 L568.516 1003.76 Q570.46 1004.89 572.775 1005.47 Q575.09 1006.05 577.613 1006.05 Q582.011 1006.05 584.303 1004.31 Q586.618 1002.57 586.618 999.265 Q586.618 996.209 584.465 994.496 Q582.335 992.76 578.516 992.76 L574.488 992.76 L574.488 988.918 L578.701 988.918 Q582.15 988.918 583.979 987.552 Q585.808 986.163 585.808 983.57 Q585.808 980.908 583.909 979.496 Q582.034 978.061 578.516 978.061 Q576.595 978.061 574.396 978.478 Q572.196 978.895 569.558 979.774 L569.558 975.607 Q572.22 974.867 574.534 974.496 Q576.872 974.126 578.933 974.126 Q584.257 974.126 587.358 976.557 Q590.46 978.964 590.46 983.084 Q590.46 985.955 588.817 987.945 Q587.173 989.913 584.141 990.677 Z" fill="#000000" fill-rule="nonzero" fill-opacity="1" /><path clip-path="url(#clip350)" d="M534.095 684.208 Q530.484 684.208 528.655 687.773 Q526.85 691.314 526.85 698.444 Q526.85 705.55 528.655 709.115 Q530.484 712.657 534.095 712.657 Q537.729 712.657 539.535 709.115 Q541.363 705.55 541.363 698.444 Q541.363 691.314 539.535 687.773 Q537.729 684.208 534.095 684.208 M534.095 680.504 Q539.905 680.504 542.961 685.111 Q546.039 689.694 546.039 698.444 Q546.039 707.171 542.961 711.777 Q539.905 716.361 534.095 716.361 Q528.285 716.361 525.206 711.777 Q522.15 707.171 522.15 698.444 Q522.15 689.694 525.206 685.111 Q528.285 680.504 534.095 680.504 Z" fill="#000000" fill-rule="nonzero" fill-opacity="1" /><path clip-path="url(#clip350)" d="M554.257 709.81 L559.141 709.81 L559.141 715.689 L554.257 715.689 L554.257 709.81 Z" fill="#000000" fill-rule="nonzero" fill-opacity="1" /><path clip-path="url(#clip350)" d="M579.326 684.208 Q575.715 684.208 573.886 687.773 Q572.081 691.314 572.081 698.444 Q572.081 705.55 573.886 709.115 Q575.715 712.657 579.326 712.657 Q582.96 712.657 584.766 709.115 Q586.595 705.55 586.595 698.444 Q586.595 691.314 584.766 687.773 Q582.96 684.208 579.326 684.208 M579.326 680.504 Q585.136 680.504 588.192 685.111 Q591.27 689.694 591.27 698.444 Q591.27 707.171 588.192 711.777 Q585.136 716.361 579.326 716.361 Q573.516 716.361 570.437 711.777 Q567.382 707.171 567.382 698.444 Q567.382 689.694 570.437 685.111 Q573.516 680.504 579.326 680.504 Z" fill="#000000" fill-rule="nonzero" fill-opacity="1" /><path clip-path="url(#clip350)" d="M534.743 390.586 Q531.132 390.586 529.303 394.151 Q527.498 397.693 527.498 404.822 Q527.498 411.929 529.303 415.494 Q531.132 419.035 534.743 419.035 Q538.377 419.035 540.183 415.494 Q542.011 411.929 542.011 404.822 Q542.011 397.693 540.183 394.151 Q538.377 390.586 534.743 390.586 M534.743 386.883 Q540.553 386.883 543.609 391.489 Q546.687 396.072 546.687 404.822 Q546.687 413.549 543.609 418.156 Q540.553 422.739 534.743 422.739 Q528.933 422.739 525.854 418.156 Q522.799 413.549 522.799 404.822 Q522.799 396.072 525.854 391.489 Q528.933 386.883 534.743 386.883 Z" fill="#000000" fill-rule="nonzero" fill-opacity="1" /><path clip-path="url(#clip350)" d="M554.905 416.188 L559.789 416.188 L559.789 422.068 L554.905 422.068 L554.905 416.188 Z" fill="#000000" fill-rule="nonzero" fill-opacity="1" /><path clip-path="url(#clip350)" d="M584.141 403.433 Q587.497 404.151 589.372 406.419 Q591.27 408.688 591.27 412.021 Q591.27 417.137 587.752 419.938 Q584.233 422.739 577.752 422.739 Q575.576 422.739 573.261 422.299 Q570.97 421.882 568.516 421.026 L568.516 416.512 Q570.46 417.646 572.775 418.225 Q575.09 418.804 577.613 418.804 Q582.011 418.804 584.303 417.068 Q586.618 415.331 586.618 412.021 Q586.618 408.966 584.465 407.253 Q582.335 405.517 578.516 405.517 L574.488 405.517 L574.488 401.674 L578.701 401.674 Q582.15 401.674 583.979 400.308 Q585.808 398.92 585.808 396.327 Q585.808 393.665 583.909 392.253 Q582.034 390.818 578.516 390.818 Q576.595 390.818 574.396 391.234 Q572.196 391.651 569.558 392.531 L569.558 388.364 Q572.22 387.623 574.534 387.253 Q576.872 386.883 578.933 386.883 Q584.257 386.883 587.358 389.313 Q590.46 391.72 590.46 395.841 Q590.46 398.711 588.817 400.702 Q587.173 402.669 584.141 403.433 Z" fill="#000000" fill-rule="nonzero" fill-opacity="1" /><path clip-path="url(#clip350)" d="M585.057 17.6457 Q576.145 17.6457 570.879 24.2892 Q565.653 30.9327 565.653 42.3968 Q565.653 53.8203 570.879 60.4638 Q576.145 67.1073 585.057 67.1073 Q593.969 67.1073 599.154 60.4638 Q604.38 53.8203 604.38 42.3968 Q604.38 30.9327 599.154 24.2892 Q593.969 17.6457 585.057 17.6457 M585.057 11.0023 Q597.777 11.0023 605.392 19.5497 Q613.008 28.0566 613.008 42.3968 Q613.008 56.6965 605.392 65.2439 Q597.777 73.7508 585.057 73.7508 Q572.296 73.7508 564.64 65.2439 Q557.025 56.737 557.025 42.3968 Q557.025 28.0566 564.64 19.5497 Q572.296 11.0023 585.057 11.0023 Z" fill="#000000" fill-rule="nonzero" fill-opacity="1" /><path clip-path="url(#clip350)" d="M632.695 65.7705 L632.695 89.8329 L625.201 89.8329 L625.201 27.2059 L632.695 27.2059 L632.695 34.0924 Q635.045 30.0415 638.61 28.0971 Q642.215 26.1121 647.198 26.1121 Q655.462 26.1121 660.606 32.6746 Q665.791 39.2371 665.791 49.9314 Q665.791 60.6258 660.606 67.1883 Q655.462 73.7508 647.198 73.7508 Q642.215 73.7508 638.61 71.8063 Q635.045 69.8214 632.695 65.7705 M658.054 49.9314 Q658.054 41.7081 654.651 37.0496 Q651.289 32.3505 645.375 32.3505 Q639.46 32.3505 636.058 37.0496 Q632.695 41.7081 632.695 49.9314 Q632.695 58.1548 636.058 62.8538 Q639.46 67.5124 645.375 67.5124 Q651.289 67.5124 654.651 62.8538 Q658.054 58.1548 658.054 49.9314 Z" fill="#000000" fill-rule="nonzero" fill-opacity="1" /><path clip-path="url(#clip350)" d="M685.519 14.324 L685.519 27.2059 L700.872 27.2059 L700.872 32.9987 L685.519 32.9987 L685.519 57.6282 Q685.519 63.1779 687.018 64.7578 Q688.557 66.3376 693.216 66.3376 L700.872 66.3376 L700.872 72.576 L693.216 72.576 Q684.588 72.576 681.306 69.3758 Q678.025 66.1351 678.025 57.6282 L678.025 32.9987 L672.556 32.9987 L672.556 27.2059 L678.025 27.2059 L678.025 14.324 L685.519 14.324 Z" fill="#000000" fill-rule="nonzero" fill-opacity="1" /><path clip-path="url(#clip350)" d="M710.675 27.2059 L718.129 27.2059 L718.129 72.576 L710.675 72.576 L710.675 27.2059 M710.675 9.54393 L718.129 9.54393 L718.129 18.9825 L710.675 18.9825 L710.675 9.54393 Z" fill="#000000" fill-rule="nonzero" fill-opacity="1" /><path clip-path="url(#clip350)" d="M769.049 35.9153 Q771.844 30.8922 775.733 28.5022 Q779.622 26.1121 784.888 26.1121 Q791.977 26.1121 795.825 31.0947 Q799.674 36.0368 799.674 45.1919 L799.674 72.576 L792.18 72.576 L792.18 45.4349 Q792.18 38.913 789.871 35.7533 Q787.562 32.5936 782.822 32.5936 Q777.029 32.5936 773.667 36.4419 Q770.305 40.2903 770.305 46.9338 L770.305 72.576 L762.81 72.576 L762.81 45.4349 Q762.81 38.8725 760.501 35.7533 Q758.192 32.5936 753.372 32.5936 Q747.66 32.5936 744.298 36.4824 Q740.936 40.3308 740.936 46.9338 L740.936 72.576 L733.441 72.576 L733.441 27.2059 L740.936 27.2059 L740.936 34.2544 Q743.488 30.082 747.052 28.0971 Q750.617 26.1121 755.519 26.1121 Q760.461 26.1121 763.904 28.6237 Q767.388 31.1352 769.049 35.9153 Z" fill="#000000" fill-rule="nonzero" fill-opacity="1" /><path clip-path="url(#clip350)" d="M835.16 49.7694 Q826.126 49.7694 822.642 51.8354 Q819.159 53.9013 819.159 58.8839 Q819.159 62.8538 821.751 65.2034 Q824.384 67.5124 828.881 67.5124 Q835.079 67.5124 838.805 63.1374 Q842.573 58.7219 842.573 51.4303 L842.573 49.7694 L835.16 49.7694 M850.026 46.6907 L850.026 72.576 L842.573 72.576 L842.573 65.6895 Q840.021 69.8214 836.213 71.8063 Q832.405 73.7508 826.896 73.7508 Q819.928 73.7508 815.796 69.8619 Q811.705 65.9325 811.705 59.3701 Q811.705 51.7138 816.809 47.825 Q821.954 43.9361 832.121 43.9361 L842.573 43.9361 L842.573 43.2069 Q842.573 38.0623 839.17 35.2672 Q835.808 32.4315 829.691 32.4315 Q825.802 32.4315 822.116 33.3632 Q818.429 34.295 815.027 36.1584 L815.027 29.2718 Q819.118 27.692 822.966 26.9223 Q826.815 26.1121 830.461 26.1121 Q840.304 26.1121 845.165 31.2163 Q850.026 36.3204 850.026 46.6907 Z" fill="#000000" fill-rule="nonzero" fill-opacity="1" /><path clip-path="url(#clip350)" d="M865.379 9.54393 L872.833 9.54393 L872.833 72.576 L865.379 72.576 L865.379 9.54393 Z" fill="#000000" fill-rule="nonzero" fill-opacity="1" /><path clip-path="url(#clip350)" d="M923.307 18.8205 L923.307 41.5461 L933.597 41.5461 Q939.308 41.5461 942.428 38.5889 Q945.547 35.6318 945.547 30.163 Q945.547 24.7348 942.428 21.7777 Q939.308 18.8205 933.597 18.8205 L923.307 18.8205 M915.124 12.096 L933.597 12.096 Q943.764 12.096 948.95 16.714 Q954.175 21.2916 954.175 30.163 Q954.175 39.1155 948.95 43.6931 Q943.764 48.2706 933.597 48.2706 L923.307 48.2706 L923.307 72.576 L915.124 72.576 L915.124 12.096 Z" fill="#000000" fill-rule="nonzero" fill-opacity="1" /><path clip-path="url(#clip350)" d="M979.453 32.4315 Q973.458 32.4315 969.974 37.1306 Q966.49 41.7891 966.49 49.9314 Q966.49 58.0738 969.933 62.7728 Q973.417 67.4314 979.453 67.4314 Q985.408 67.4314 988.891 62.7323 Q992.375 58.0333 992.375 49.9314 Q992.375 41.8701 988.891 37.1711 Q985.408 32.4315 979.453 32.4315 M979.453 26.1121 Q989.175 26.1121 994.725 32.4315 Q1000.27 38.7509 1000.27 49.9314 Q1000.27 61.0714 994.725 67.4314 Q989.175 73.7508 979.453 73.7508 Q969.69 73.7508 964.14 67.4314 Q958.631 61.0714 958.631 49.9314 Q958.631 38.7509 964.14 32.4315 Q969.69 26.1121 979.453 26.1121 Z" fill="#000000" fill-rule="nonzero" fill-opacity="1" /><path clip-path="url(#clip350)" d="M1012.63 9.54393 L1020.08 9.54393 L1020.08 72.576 L1012.63 72.576 L1012.63 9.54393 Z" fill="#000000" fill-rule="nonzero" fill-opacity="1" /><path clip-path="url(#clip350)" d="M1054.56 76.7889 Q1051.4 84.8907 1048.4 87.3618 Q1045.4 89.8329 1040.38 89.8329 L1034.42 89.8329 L1034.42 83.5945 L1038.8 83.5945 Q1041.88 83.5945 1043.58 82.1361 Q1045.28 80.6778 1047.35 75.2496 L1048.68 71.8468 L1030.33 27.2059 L1038.23 27.2059 L1052.41 62.6918 L1066.59 27.2059 L1074.49 27.2059 L1054.56 76.7889 Z" fill="#000000" fill-rule="nonzero" fill-opacity="1" /><path clip-path="url(#clip350)" d="M1114.63 49.3643 Q1114.63 41.2625 1111.27 36.8065 Q1107.95 32.3505 1101.91 32.3505 Q1095.92 32.3505 1092.55 36.8065 Q1089.23 41.2625 1089.23 49.3643 Q1089.23 57.4256 1092.55 61.8816 Q1095.92 66.3376 1101.91 66.3376 Q1107.95 66.3376 1111.27 61.8816 Q1114.63 57.4256 1114.63 49.3643 M1122.09 66.9452 Q1122.09 78.5308 1116.94 84.1616 Q1111.8 89.8329 1101.18 89.8329 Q1097.25 89.8329 1093.77 89.2252 Q1090.29 88.6581 1087 87.4428 L1087 80.1917 Q1090.29 81.9741 1093.49 82.8248 Q1096.69 83.6755 1100.01 83.6755 Q1107.34 83.6755 1110.99 79.8271 Q1114.63 76.0193 1114.63 68.282 L1114.63 64.5957 Q1112.32 68.6061 1108.72 70.5911 Q1105.11 72.576 1100.09 72.576 Q1091.74 72.576 1086.64 66.2161 Q1081.54 59.8562 1081.54 49.3643 Q1081.54 38.832 1086.64 32.472 Q1091.74 26.1121 1100.09 26.1121 Q1105.11 26.1121 1108.72 28.0971 Q1112.32 30.082 1114.63 34.0924 L1114.63 27.2059 L1122.09 27.2059 L1122.09 66.9452 Z" fill="#000000" fill-rule="nonzero" fill-opacity="1" /><path clip-path="url(#clip350)" d="M1155.02 32.4315 Q1149.02 32.4315 1145.54 37.1306 Q1142.06 41.7891 1142.06 49.9314 Q1142.06 58.0738 1145.5 62.7728 Q1148.98 67.4314 1155.02 67.4314 Q1160.97 67.4314 1164.46 62.7323 Q1167.94 58.0333 1167.94 49.9314 Q1167.94 41.8701 1164.46 37.1711 Q1160.97 32.4315 1155.02 32.4315 M1155.02 26.1121 Q1164.74 26.1121 1170.29 32.4315 Q1175.84 38.7509 1175.84 49.9314 Q1175.84 61.0714 1170.29 67.4314 Q1164.74 73.7508 1155.02 73.7508 Q1145.26 73.7508 1139.71 67.4314 Q1134.2 61.0714 1134.2 49.9314 Q1134.2 38.7509 1139.71 32.4315 Q1145.26 26.1121 1155.02 26.1121 Z" fill="#000000" fill-rule="nonzero" fill-opacity="1" /><path clip-path="url(#clip350)" d="M1225.91 45.1919 L1225.91 72.576 L1218.46 72.576 L1218.46 45.4349 Q1218.46 38.994 1215.94 35.7938 Q1213.43 32.5936 1208.41 32.5936 Q1202.37 32.5936 1198.89 36.4419 Q1195.41 40.2903 1195.41 46.9338 L1195.41 72.576 L1187.91 72.576 L1187.91 27.2059 L1195.41 27.2059 L1195.41 34.2544 Q1198.08 30.163 1201.69 28.1376 Q1205.33 26.1121 1210.07 26.1121 Q1217.89 26.1121 1221.9 30.9732 Q1225.91 35.7938 1225.91 45.1919 Z" fill="#000000" fill-rule="nonzero" fill-opacity="1" /><path clip-path="url(#clip350)" d="M1262.81 27.2059 L1270.27 27.2059 L1279.58 62.6108 L1288.86 27.2059 L1297.65 27.2059 L1306.97 62.6108 L1316.25 27.2059 L1323.7 27.2059 L1311.83 72.576 L1303.04 72.576 L1293.28 35.3887 L1283.47 72.576 L1274.68 72.576 L1262.81 27.2059 Z" fill="#000000" fill-rule="nonzero" fill-opacity="1" /><path clip-path="url(#clip350)" d="M1335 27.2059 L1342.45 27.2059 L1342.45 72.576 L1335 72.576 L1335 27.2059 M1335 9.54393 L1342.45 9.54393 L1342.45 18.9825 L1335 18.9825 L1335 9.54393 Z" fill="#000000" fill-rule="nonzero" fill-opacity="1" /><path clip-path="url(#clip350)" d="M1365.42 14.324 L1365.42 27.2059 L1380.78 27.2059 L1380.78 32.9987 L1365.42 32.9987 L1365.42 57.6282 Q1365.42 63.1779 1366.92 64.7578 Q1368.46 66.3376 1373.12 66.3376 L1380.78 66.3376 L1380.78 72.576 L1373.12 72.576 Q1364.49 72.576 1361.21 69.3758 Q1357.93 66.1351 1357.93 57.6282 L1357.93 32.9987 L1352.46 32.9987 L1352.46 27.2059 L1357.93 27.2059 L1357.93 14.324 L1365.42 14.324 Z" fill="#000000" fill-rule="nonzero" fill-opacity="1" /><path clip-path="url(#clip350)" d="M1428.29 45.1919 L1428.29 72.576 L1420.84 72.576 L1420.84 45.4349 Q1420.84 38.994 1418.33 35.7938 Q1415.82 32.5936 1410.79 32.5936 Q1404.76 32.5936 1401.27 36.4419 Q1397.79 40.2903 1397.79 46.9338 L1397.79 72.576 L1390.3 72.576 L1390.3 9.54393 L1397.79 9.54393 L1397.79 34.2544 Q1400.46 30.163 1404.07 28.1376 Q1407.71 26.1121 1412.45 26.1121 Q1420.27 26.1121 1424.28 30.9732 Q1428.29 35.7938 1428.29 45.1919 Z" fill="#000000" fill-rule="nonzero" fill-opacity="1" /><path clip-path="url(#clip350)" d="M1507.25 45.1919 L1507.25 72.576 L1499.79 72.576 L1499.79 45.4349 Q1499.79 38.994 1497.28 35.7938 Q1494.77 32.5936 1489.75 32.5936 Q1483.71 32.5936 1480.23 36.4419 Q1476.74 40.2903 1476.74 46.9338 L1476.74 72.576 L1469.25 72.576 L1469.25 27.2059 L1476.74 27.2059 L1476.74 34.2544 Q1479.42 30.163 1483.02 28.1376 Q1486.67 26.1121 1491.41 26.1121 Q1499.22 26.1121 1503.23 30.9732 Q1507.25 35.7938 1507.25 45.1919 Z" fill="#000000" fill-rule="nonzero" fill-opacity="1" /><path clip-path="url(#clip350)" d="M1523.08 34.9026 L1575.02 34.9026 L1575.02 41.7081 L1523.08 41.7081 L1523.08 34.9026 M1523.08 51.4303 L1575.02 51.4303 L1575.02 58.3168 L1523.08 58.3168 L1523.08 51.4303 Z" fill="#000000" fill-rule="nonzero" fill-opacity="1" /><path clip-path="url(#clip350)" d="M1617.47 39.9662 Q1623.34 41.222 1626.63 45.1919 Q1629.95 49.1618 1629.95 54.9951 Q1629.95 63.9476 1623.79 68.8492 Q1617.63 73.7508 1606.29 73.7508 Q1602.48 73.7508 1598.43 72.9811 Q1594.42 72.2519 1590.13 70.7531 L1590.13 62.8538 Q1593.53 64.8388 1597.58 65.8515 Q1601.63 66.8642 1606.05 66.8642 Q1613.74 66.8642 1617.75 63.826 Q1621.8 60.7879 1621.8 54.9951 Q1621.8 49.6479 1618.04 46.6502 Q1614.31 43.612 1607.63 43.612 L1600.58 43.612 L1600.58 36.8875 L1607.95 36.8875 Q1613.99 36.8875 1617.19 34.4975 Q1620.39 32.067 1620.39 27.5299 Q1620.39 22.8714 1617.07 20.4004 Q1613.78 17.8888 1607.63 17.8888 Q1604.26 17.8888 1600.42 18.618 Q1596.57 19.3471 1591.95 20.8865 L1591.95 13.5948 Q1596.61 12.2985 1600.66 11.6504 Q1604.75 11.0023 1608.36 11.0023 Q1617.67 11.0023 1623.1 15.2557 Q1628.53 19.4686 1628.53 26.6793 Q1628.53 31.7024 1625.65 35.1862 Q1622.78 38.6294 1617.47 39.9662 Z" fill="#000000" fill-rule="nonzero" fill-opacity="1" /><path clip-path="url(#clip350)" d="M1686.7 72.576 L1663.61 12.096 L1672.16 12.096 L1691.32 63.0159 L1710.52 12.096 L1719.03 12.096 L1695.98 72.576 L1686.7 72.576 Z" fill="#000000" fill-rule="nonzero" fill-opacity="1" /><path clip-path="url(#clip350)" d="M1759.9 48.0275 L1759.9 51.6733 L1725.63 51.6733 Q1726.12 59.3701 1730.25 63.421 Q1734.42 67.4314 1741.83 67.4314 Q1746.13 67.4314 1750.14 66.3781 Q1754.19 65.3249 1758.16 63.2184 L1758.16 70.267 Q1754.15 71.9684 1749.93 72.8596 Q1745.72 73.7508 1741.39 73.7508 Q1730.53 73.7508 1724.17 67.4314 Q1717.85 61.1119 1717.85 50.3365 Q1717.85 39.1965 1723.85 32.6746 Q1729.88 26.1121 1740.09 26.1121 Q1749.25 26.1121 1754.55 32.0264 Q1759.9 37.9003 1759.9 48.0275 M1752.45 45.84 Q1752.37 39.7232 1749 36.0774 Q1745.68 32.4315 1740.17 32.4315 Q1733.93 32.4315 1730.17 35.9558 Q1726.44 39.4801 1725.87 45.8805 L1752.45 45.84 Z" fill="#000000" fill-rule="nonzero" fill-opacity="1" /><path clip-path="url(#clip350)" d="M1798.42 34.1734 Q1797.17 33.4443 1795.67 33.1202 Q1794.21 32.7556 1792.43 32.7556 Q1786.11 32.7556 1782.71 36.8875 Q1779.34 40.9789 1779.34 48.6757 L1779.34 72.576 L1771.85 72.576 L1771.85 27.2059 L1779.34 27.2059 L1779.34 34.2544 Q1781.69 30.1225 1785.46 28.1376 Q1789.23 26.1121 1794.62 26.1121 Q1795.39 26.1121 1796.32 26.2337 Q1797.25 26.3147 1798.38 26.5172 L1798.42 34.1734 Z" fill="#000000" fill-rule="nonzero" fill-opacity="1" /><path clip-path="url(#clip350)" d="M1813.62 14.324 L1813.62 27.2059 L1828.97 27.2059 L1828.97 32.9987 L1813.62 32.9987 L1813.62 57.6282 Q1813.62 63.1779 1815.11 64.7578 Q1816.65 66.3376 1821.31 66.3376 L1828.97 66.3376 L1828.97 72.576 L1821.31 72.576 Q1812.68 72.576 1809.4 69.3758 Q1806.12 66.1351 1806.12 57.6282 L1806.12 32.9987 L1800.65 32.9987 L1800.65 27.2059 L1806.12 27.2059 L1806.12 14.324 L1813.62 14.324 Z" fill="#000000" fill-rule="nonzero" fill-opacity="1" /><path clip-path="url(#clip350)" d="M1838.77 27.2059 L1846.22 27.2059 L1846.22 72.576 L1838.77 72.576 L1838.77 27.2059 M1838.77 9.54393 L1846.22 9.54393 L1846.22 18.9825 L1838.77 18.9825 L1838.77 9.54393 Z" fill="#000000" fill-rule="nonzero" fill-opacity="1" /><path clip-path="url(#clip350)" d="M1894.47 28.9478 L1894.47 35.9153 Q1891.31 34.1734 1888.11 33.3227 Q1884.95 32.4315 1881.71 32.4315 Q1874.46 32.4315 1870.45 37.0496 Q1866.44 41.6271 1866.44 49.9314 Q1866.44 58.2358 1870.45 62.8538 Q1874.46 67.4314 1881.71 67.4314 Q1884.95 67.4314 1888.11 66.5807 Q1891.31 65.6895 1894.47 63.9476 L1894.47 70.8341 Q1891.35 72.2924 1887.99 73.0216 Q1884.67 73.7508 1880.9 73.7508 Q1870.65 73.7508 1864.62 67.3098 Q1858.58 60.8689 1858.58 49.9314 Q1858.58 38.832 1864.66 32.472 Q1870.77 26.1121 1881.39 26.1121 Q1884.83 26.1121 1888.11 26.8413 Q1891.39 27.5299 1894.47 28.9478 Z" fill="#000000" fill-rule="nonzero" fill-opacity="1" /><path clip-path="url(#clip350)" d="M1946.24 48.0275 L1946.24 51.6733 L1911.97 51.6733 Q1912.46 59.3701 1916.59 63.421 Q1920.76 67.4314 1928.17 67.4314 Q1932.47 67.4314 1936.48 66.3781 Q1940.53 65.3249 1944.5 63.2184 L1944.5 70.267 Q1940.49 71.9684 1936.28 72.8596 Q1932.06 73.7508 1927.73 73.7508 Q1916.87 73.7508 1910.51 67.4314 Q1904.19 61.1119 1904.19 50.3365 Q1904.19 39.1965 1910.19 32.6746 Q1916.22 26.1121 1926.43 26.1121 Q1935.59 26.1121 1940.89 32.0264 Q1946.24 37.9003 1946.24 48.0275 M1938.79 45.84 Q1938.71 39.7232 1935.34 36.0774 Q1932.02 32.4315 1926.51 32.4315 Q1920.28 32.4315 1916.51 35.9558 Q1912.78 39.4801 1912.21 45.8805 L1938.79 45.84 Z" fill="#000000" fill-rule="nonzero" fill-opacity="1" /><path clip-path="url(#clip350)" d="M1987.4 28.5427 L1987.4 35.5912 Q1984.24 33.9709 1980.84 33.1607 Q1977.43 32.3505 1973.79 32.3505 Q1968.24 32.3505 1965.44 34.0519 Q1962.69 35.7533 1962.69 39.156 Q1962.69 41.7486 1964.67 43.2475 Q1966.66 44.7058 1972.65 46.0426 L1975.21 46.6097 Q1983.15 48.3111 1986.47 51.4303 Q1989.83 54.509 1989.83 60.0587 Q1989.83 66.3781 1984.81 70.0644 Q1979.82 73.7508 1971.07 73.7508 Q1967.43 73.7508 1963.46 73.0216 Q1959.53 72.3329 1955.15 70.9151 L1955.15 63.2184 Q1959.29 65.3654 1963.3 66.4591 Q1967.31 67.5124 1971.24 67.5124 Q1976.5 67.5124 1979.34 65.73 Q1982.17 63.9071 1982.17 60.6258 Q1982.17 57.5877 1980.11 55.9673 Q1978.08 54.3469 1971.15 52.8481 L1968.56 52.2405 Q1961.64 50.7821 1958.56 47.7845 Q1955.48 44.7463 1955.48 39.4801 Q1955.48 33.0797 1960.01 29.5959 Q1964.55 26.1121 1972.9 26.1121 Q1977.03 26.1121 1980.67 26.7198 Q1984.32 27.3274 1987.4 28.5427 Z" fill="#000000" fill-rule="nonzero" fill-opacity="1" /><path clip-path="url(#clip352)" d="M1723.84 319.22 L823.018 701.919 L1604.85 1290.7 L1723.84 319.22 L1723.84 319.22  Z" fill="#009af9" fill-rule="evenodd" fill-opacity="0.3"/>
<polyline clip-path="url(#clip352)" style="stroke:#000000; stroke-linecap:round; stroke-linejoin:round; stroke-width:4; stroke-opacity:1; fill:none" points="1723.84,319.22 823.018,701.919 1604.85,1290.7 1723.84,319.22 "/>
<circle clip-path="url(#clip352)" cx="1723.84" cy="319.22" r="14.4" fill="#e26f46" fill-rule="evenodd" fill-opacity="1" stroke="#000000" stroke-opacity="1" stroke-width="3.2"/>
<circle clip-path="url(#clip352)" cx="823.018" cy="701.919" r="14.4" fill="#e26f46" fill-rule="evenodd" fill-opacity="1" stroke="#000000" stroke-opacity="1" stroke-width="3.2"/>
<circle clip-path="url(#clip352)" cx="1604.85" cy="1290.7" r="14.4" fill="#e26f46" fill-rule="evenodd" fill-opacity="1" stroke="#000000" stroke-opacity="1" stroke-width="3.2"/>
<circle clip-path="url(#clip352)" cx="1723.84" cy="319.22" r="14.4" fill="#e26f46" fill-rule="evenodd" fill-opacity="1" stroke="#000000" stroke-opacity="1" stroke-width="3.2"/>
<polyline clip-path="url(#clip352)" style="stroke:#ff0000; stroke-linecap:round; stroke-linejoin:round; stroke-width:4; stroke-opacity:0.3; fill:none" points="2702.57,319.22 2700.6,257.144 2694.7,195.319 2684.89,133.992 2671.2,73.4116 2653.71,13.8206 2632.47,-44.5406 2607.57,-101.437 2579.11,-156.64 2547.2,-209.926 2511.99,-261.082 2473.59,-309.901 2432.18,-356.187 2387.92,-399.754 2340.98,-440.425 2291.56,-478.037 2239.85,-512.44 2186.07,-543.493 2130.42,-571.072 2073.13,-595.067 2014.44,-615.38 1954.58,-631.93 1893.79,-644.65 1832.32,-653.489 1770.41,-658.411 1708.31,-659.396 1646.27,-656.441 1584.55,-649.557 1523.38,-638.772 1463.03,-624.13 1403.72,-605.689 1345.7,-583.524 1289.21,-557.724 1234.47,-528.393 1181.69,-495.649 1131.1,-459.623 1082.9,-420.462 1037.27,-378.322 994.416,-333.373 954.495,-285.796 917.671,-235.784 884.094,-183.536 853.898,-129.264 827.204,-73.1864 804.122,-15.5285 784.742,43.4773 769.144,103.593 757.391,164.578 749.528,226.185 745.589,288.167 745.589,350.273 749.528,412.255 757.391,473.862 769.144,534.846 784.742,594.963 804.122,653.968 827.204,711.626 853.898,767.704 884.094,821.976 917.671,874.224 954.495,924.236 994.416,971.813 1037.27,1016.76 1082.9,1058.9 1131.1,1098.06 1181.69,1134.09 1234.47,1166.83 1289.21,1196.16 1345.7,1221.96 1403.72,1244.13 1463.03,1262.57 1523.38,1277.21 1584.55,1288 1646.27,1294.88 1708.31,1297.84 1770.41,1296.85 1832.32,1291.93 1893.79,1283.09 1954.58,1270.37 2014.44,1253.82 2073.13,1233.51 2130.42,1209.51 2186.07,1181.93 2239.85,1150.88 2291.56,1116.48 2340.98,1078.86 2387.92,1038.19 2432.18,994.627 2473.59,948.341 2511.99,899.522 2547.2,848.366 2579.11,795.08 2607.57,739.877 2632.47,682.981 2653.71,624.619 2671.2,565.028 2684.89,504.448 2694.7,443.121 2700.6,381.295 2702.57,319.22 "/>
<polyline clip-path="url(#clip352)" style="stroke:#ff0000; stroke-linecap:round; stroke-linejoin:round; stroke-width:4; stroke-opacity:0.3; fill:none" points="1801.76,701.919 1799.79,639.843 1793.88,578.018 1784.07,516.691 1770.39,456.11 1752.89,396.519 1731.65,338.158 1706.75,281.262 1678.29,226.059 1646.39,172.772 1611.17,121.617 1572.78,72.7973 1531.37,26.5114 1487.1,-17.0549 1440.16,-57.7262 1390.74,-95.3387 1339.03,-129.741 1285.25,-160.794 1229.6,-188.374 1172.32,-212.368 1113.63,-232.681 1053.76,-249.231 992.975,-261.951 931.5,-270.79 869.589,-275.712 807.49,-276.697 745.453,-273.742 683.729,-266.858 622.566,-256.074 562.21,-241.431 502.904,-222.991 444.887,-200.826 388.393,-175.025 333.649,-145.694 280.875,-112.95 230.284,-76.9245 182.08,-37.763 136.457,4.37703 93.5988,49.3258 53.6774,96.9023 16.8538,146.915 -16.7236,199.163 -46.9197,253.434 -73.6129,309.512 -96.6956,367.17 -116.075,426.176 -131.673,486.292 -143.427,547.277 -151.289,608.884 -155.228,670.865 -155.228,732.972 -151.289,794.954 -143.427,856.561 -131.673,917.545 -116.075,977.661 -96.6956,1036.67 -73.6129,1094.33 -46.9197,1150.4 -16.7236,1204.67 16.8538,1256.92 53.6774,1306.94 93.5988,1354.51 136.457,1399.46 182.08,1441.6 230.284,1480.76 280.875,1516.79 333.649,1549.53 388.393,1578.86 444.887,1604.66 502.904,1626.83 562.21,1645.27 622.566,1659.91 683.729,1670.7 745.453,1677.58 807.49,1680.53 869.589,1679.55 931.5,1674.63 992.975,1665.79 1053.76,1653.07 1113.63,1636.52 1172.32,1616.21 1229.6,1592.21 1285.25,1564.63 1339.03,1533.58 1390.74,1499.18 1440.16,1461.56 1487.1,1420.89 1531.37,1377.33 1572.78,1331.04 1611.17,1282.22 1646.39,1231.07 1678.29,1177.78 1706.75,1122.58 1731.65,1065.68 1752.89,1007.32 1770.39,947.727 1784.07,887.146 1793.88,825.82 1799.79,763.994 1801.76,701.919 "/>
<polyline clip-path="url(#clip352)" style="stroke:#ff0000; stroke-linecap:round; stroke-linejoin:round; stroke-width:4; stroke-opacity:0.3; fill:none" points="2583.59,1290.7 2581.62,1228.62 2575.72,1166.8 2565.91,1105.47 2552.22,1044.89 2534.73,985.301 2513.48,926.939 2488.58,870.043 2460.12,814.84 2428.22,761.554 2393,710.398 2354.61,661.579 2313.2,615.293 2268.94,571.726 2222,531.055 2172.58,493.443 2120.87,459.041 2067.08,427.987 2011.44,400.408 1954.15,376.413 1895.46,356.1 1835.6,339.55 1774.81,326.83 1713.34,317.991 1651.42,313.07 1589.33,312.084 1527.29,315.039 1465.56,321.923 1404.4,332.708 1344.05,347.35 1284.74,365.791 1226.72,387.956 1170.23,413.756 1115.48,443.087 1062.71,475.831 1012.12,511.857 963.916,551.018 918.293,593.158 875.434,638.107 835.513,685.684 798.689,735.696 765.112,787.944 734.916,842.216 708.223,898.294 685.14,955.952 665.76,1014.96 650.163,1075.07 638.409,1136.06 630.546,1197.66 626.607,1259.65 626.607,1321.75 630.546,1383.74 638.409,1445.34 650.163,1506.33 665.76,1566.44 685.14,1625.45 708.223,1683.11 734.916,1739.18 765.112,1793.46 798.689,1845.7 835.513,1895.72 875.434,1943.29 918.293,1988.24 963.916,2030.38 1012.12,2069.54 1062.71,2105.57 1115.48,2138.31 1170.23,2167.64 1226.72,2193.44 1284.74,2215.61 1344.05,2234.05 1404.4,2248.69 1465.56,2259.48 1527.29,2266.36 1589.33,2269.32 1651.42,2268.33 1713.34,2263.41 1774.81,2254.57 1835.6,2241.85 1895.46,2225.3 1954.15,2204.99 2011.44,2180.99 2067.08,2153.41 2120.87,2122.36 2172.58,2087.96 2222,2050.34 2268.94,2009.67 2313.2,1966.11 2354.61,1919.82 2393,1871 2428.22,1819.85 2460.12,1766.56 2488.58,1711.36 2513.48,1654.46 2534.73,1596.1 2552.22,1536.51 2565.91,1475.93 2575.72,1414.6 2581.62,1352.78 2583.59,1290.7 "/>
</svg>
